%TF.GenerationSoftware,KiCad,Pcbnew,10.0.3*%
%TF.CreationDate,2026-07-19T10:29:48+10:00*%
%TF.ProjectId,epaper-smart-watch,65706170-6572-42d7-936d-6172742d7761,rev?*%
%TF.SameCoordinates,Original*%
%TF.FileFunction,Copper,L2,Inr*%
%TF.FilePolarity,Positive*%
%FSLAX46Y46*%
G04 Gerber Fmt 4.6, Leading zero omitted, Abs format (unit mm)*
G04 Created by KiCad (PCBNEW 10.0.3) date 2026-07-19 10:29:48*
%MOMM*%
%LPD*%
G01*
G04 APERTURE LIST*
%TA.AperFunction,ComponentPad*%
%ADD10O,1.700000X1.000000*%
%TD*%
%TA.AperFunction,ComponentPad*%
%ADD11O,2.100000X1.000000*%
%TD*%
%TA.AperFunction,ViaPad*%
%ADD12C,0.600000*%
%TD*%
%TA.AperFunction,ViaPad*%
%ADD13C,0.450000*%
%TD*%
%TA.AperFunction,ViaPad*%
%ADD14C,0.500000*%
%TD*%
G04 APERTURE END LIST*
D10*
%TO.N,GND*%
%TO.C,P1*%
X167644362Y-108020000D03*
D11*
X171644362Y-108020000D03*
D10*
X167644362Y-96780000D03*
D11*
X171644362Y-96780000D03*
%TD*%
D12*
%TO.N,GND*%
X156750500Y-119238631D03*
X148750500Y-119238631D03*
X160750500Y-117238631D03*
X156750500Y-117238631D03*
X160750500Y-115238631D03*
X154750500Y-115238631D03*
X150750500Y-115238631D03*
X142750500Y-115238631D03*
X158750500Y-113238631D03*
X166750500Y-111238631D03*
X172750500Y-109238631D03*
X170750500Y-109238631D03*
X168750500Y-109238631D03*
X166750500Y-109238631D03*
X156750500Y-109238631D03*
X166750500Y-107238631D03*
X156750500Y-101238631D03*
X172750500Y-97238631D03*
X170750500Y-97238631D03*
X168750500Y-97238631D03*
X166750500Y-97238631D03*
X166750500Y-95238631D03*
X164750500Y-95238631D03*
X166750500Y-93238631D03*
X164750500Y-93238631D03*
X162750500Y-93238631D03*
X160750500Y-93238631D03*
X138750500Y-93238631D03*
X162750500Y-91238631D03*
X160750500Y-91238631D03*
X162750500Y-89238631D03*
X160750500Y-89238631D03*
X146750500Y-87238631D03*
D13*
X156400000Y-85500000D03*
X150000000Y-90275003D03*
X161700000Y-104100000D03*
X152600000Y-104700000D03*
X156400000Y-87400000D03*
X158400000Y-93100000D03*
X149000000Y-103700000D03*
X145900000Y-106100000D03*
X136600000Y-107800000D03*
X155501196Y-97770866D03*
X138200000Y-111700000D03*
X138600000Y-94800000D03*
X150200000Y-108300000D03*
D14*
X148700500Y-117181150D03*
D13*
X149700000Y-95500000D03*
X144700000Y-112700000D03*
X138600000Y-95700000D03*
D14*
X152900000Y-114900000D03*
D13*
X139400000Y-111000000D03*
X159600000Y-94000000D03*
X143600000Y-105000000D03*
X150300000Y-102500000D03*
X141400000Y-100900000D03*
X164743217Y-103925285D03*
X152619302Y-91044300D03*
X155450002Y-96125002D03*
X138500000Y-99000000D03*
%TO.N,Net-(P1-D+-PadA6)*%
X165782789Y-102656998D03*
X165500000Y-101650000D03*
%TO.N,/D+*%
X160411372Y-102000000D03*
X154688407Y-96614534D03*
%TO.N,/D-*%
X153900000Y-95444720D03*
X160400000Y-102650000D03*
%TO.N,+3V0*%
X133100000Y-109000000D03*
X151150000Y-104300000D03*
X140400000Y-108300000D03*
X151113039Y-108313039D03*
X135173995Y-101600000D03*
X152400000Y-99100000D03*
X142328662Y-100069846D03*
X145900000Y-108400000D03*
X148300000Y-107800000D03*
X150250000Y-105100000D03*
X147450000Y-103900000D03*
X141600000Y-94400000D03*
X145400000Y-90000000D03*
X152050000Y-102152929D03*
%TO.N,/FLASH_CS*%
X153600000Y-93800000D03*
X156313838Y-91957526D03*
%TO.N,/VIB*%
X166000000Y-108800000D03*
X153654256Y-96892393D03*
%TO.N,/BATC_ALRT*%
X150300000Y-95400000D03*
X150500000Y-97400000D03*
%TO.N,/EPD_VCOM*%
X134100000Y-97300000D03*
%TO.N,/EPD_VGL*%
X140600000Y-95000000D03*
%TO.N,/EPD_VGH*%
X139777746Y-99575000D03*
%TO.N,Net-(J6-Pin_5)*%
X135290040Y-100186206D03*
X134300000Y-107300000D03*
%TO.N,/EPD_MOSI*%
X152862403Y-89524998D03*
X138132201Y-101676707D03*
%TO.N,/EPD_SPICL*%
X152224900Y-88425131D03*
X135220421Y-102198203D03*
%TO.N,/EPD_CSB*%
X151681914Y-89451956D03*
X138570137Y-102096485D03*
X139188285Y-97668894D03*
%TO.N,/EPD_DC*%
X154400000Y-89500000D03*
X134760991Y-102584114D03*
%TO.N,/EPD_RST_N*%
X152278420Y-89387275D03*
X138210429Y-102576707D03*
%TO.N,/EPD_BUSY*%
X146392207Y-88965002D03*
X135600000Y-103100000D03*
%TO.N,Net-(J6-Pin_16)*%
X138203576Y-103176671D03*
%TO.N,/EPD_RESR*%
X144450000Y-103674589D03*
X138395032Y-103750000D03*
%TO.N,/EPD_LIGHT_PWR_NEG*%
X142800000Y-106000000D03*
X138280459Y-104726128D03*
%TO.N,/FLASH_IO1*%
X151993007Y-94025377D03*
X156956983Y-90425002D03*
%TO.N,/FLASH_IO2*%
X152893007Y-93882907D03*
X157400000Y-91900000D03*
%TO.N,/FLASH_IO0*%
X154838799Y-91057526D03*
X158023661Y-89086932D03*
%TO.N,/FLASH_CLK*%
X151083750Y-89405025D03*
X157426092Y-89140917D03*
%TO.N,/FLASH_IO3*%
X156816827Y-89087890D03*
X151775001Y-94700001D03*
%TO.N,/VSYS*%
X154318326Y-100948383D03*
X157378383Y-98516987D03*
X140900000Y-109000000D03*
X157350000Y-104500000D03*
X145864645Y-108998957D03*
X159906250Y-108893750D03*
%TO.N,Net-(D6-A)*%
X144200000Y-112000000D03*
X144800000Y-107400000D03*
%TO.N,/CHGR_MODE*%
X154768607Y-99206169D03*
X153762403Y-89501200D03*
%TO.N,Net-(IC2-VBAT)*%
X153750000Y-105586395D03*
%TO.N,Net-(U3-PH3-BOOT0)*%
X145350000Y-97200000D03*
X149700000Y-93700000D03*
%TO.N,/CHGR_ISET*%
X156284471Y-96545244D03*
X154800000Y-95100000D03*
%TO.N,Net-(IC2-SHPACT)*%
X155355919Y-99083419D03*
%TO.N,Net-(D2-K)*%
X156951696Y-98090301D03*
X154356279Y-100349941D03*
%TO.N,Net-(D1-K)*%
X154300000Y-101548106D03*
X157800000Y-96500000D03*
%TO.N,/CHGR_SHPHLD*%
X154083757Y-102549707D03*
X155000000Y-93800000D03*
%TO.N,Net-(IC2-NTC)*%
X155300000Y-103700000D03*
%TO.N,/VUSB*%
X161500000Y-95100000D03*
X156700000Y-94400000D03*
%TO.N,/EPD_LIGHT*%
X146900000Y-103200000D03*
X143700000Y-109900000D03*
X147949403Y-91855850D03*
%TO.N,Net-(JP2-A)*%
X160900000Y-103800000D03*
%TO.N,/I2C_SCL*%
X148150000Y-97520470D03*
X149400000Y-101300000D03*
X149300000Y-97500000D03*
%TO.N,/BTN_2*%
X145600000Y-87400000D03*
X148631985Y-91985604D03*
%TO.N,/ACCL_INT2*%
X148342912Y-92513240D03*
X148318012Y-107099732D03*
%TO.N,/NRST*%
X145950000Y-107000000D03*
X154800000Y-109200000D03*
X147360586Y-91977936D03*
%TO.N,/ACCL_INT1*%
X148150000Y-93752253D03*
X148300000Y-106500000D03*
%TO.N,/BTN_4*%
X151100000Y-97500000D03*
X163700000Y-114900000D03*
%TO.N,/BTN_1*%
X144500000Y-115800000D03*
X151400000Y-96633656D03*
%TO.N,/BTN_3*%
X152154588Y-96698402D03*
X159200000Y-86900000D03*
%TO.N,/SWDIO*%
X152743199Y-97493199D03*
%TO.N,/SWDCLK*%
X153054310Y-96900627D03*
%TO.N,Net-(J18-Pin_1)*%
X156000000Y-94200000D03*
%TO.N,Net-(J17-Pin_1)*%
X154415022Y-93666570D03*
%TO.N,Net-(J16-Pin_1)*%
X156000000Y-93516395D03*
%TO.N,/SND*%
X151856722Y-92888867D03*
X157837895Y-114475032D03*
%TO.N,Net-(D9-A)*%
X163200000Y-111500000D03*
%TD*%
%TA.AperFunction,Conductor*%
%TO.N,GND*%
G36*
X155570381Y-84933532D02*
G01*
X155575996Y-84934451D01*
X156380705Y-85085286D01*
X156386274Y-85086463D01*
X157051563Y-85243368D01*
X157183158Y-85274404D01*
X157188716Y-85275852D01*
X157975980Y-85500474D01*
X157981465Y-85502177D01*
X158757512Y-85763023D01*
X158762883Y-85764967D01*
X159526052Y-86061482D01*
X159531327Y-86063674D01*
X160279906Y-86395191D01*
X160285097Y-86397635D01*
X161017528Y-86763464D01*
X161022581Y-86766135D01*
X161530765Y-87050091D01*
X161737294Y-87165492D01*
X161742241Y-87168409D01*
X162437685Y-87600425D01*
X162442471Y-87603553D01*
X163079828Y-88041647D01*
X163117178Y-88067320D01*
X163121833Y-88070681D01*
X163634866Y-88459491D01*
X163774315Y-88565174D01*
X163778805Y-88568743D01*
X164319570Y-89019471D01*
X164407705Y-89092931D01*
X164412024Y-89096704D01*
X165015985Y-89649460D01*
X165020109Y-89653414D01*
X165597829Y-90233547D01*
X165601764Y-90237687D01*
X165639237Y-90278975D01*
X165655774Y-90297196D01*
X165686252Y-90360068D01*
X165677901Y-90429436D01*
X165633371Y-90483278D01*
X165588144Y-90502148D01*
X165408170Y-90537947D01*
X165408160Y-90537950D01*
X165226092Y-90613364D01*
X165226079Y-90613371D01*
X165062218Y-90722860D01*
X165062214Y-90722863D01*
X164922863Y-90862214D01*
X164922860Y-90862218D01*
X164813371Y-91026079D01*
X164813364Y-91026092D01*
X164737950Y-91208160D01*
X164737947Y-91208170D01*
X164699500Y-91401456D01*
X164699500Y-91401459D01*
X164699500Y-91421750D01*
X164699500Y-91598541D01*
X164699500Y-91598543D01*
X164699499Y-91598543D01*
X164737947Y-91791829D01*
X164737950Y-91791839D01*
X164813364Y-91973907D01*
X164813371Y-91973920D01*
X164922860Y-92137781D01*
X164922863Y-92137785D01*
X165062214Y-92277136D01*
X165062218Y-92277139D01*
X165226079Y-92386628D01*
X165226092Y-92386635D01*
X165398670Y-92458118D01*
X165408165Y-92462051D01*
X165408169Y-92462051D01*
X165408170Y-92462052D01*
X165601456Y-92500500D01*
X165601459Y-92500500D01*
X165798543Y-92500500D01*
X165932196Y-92473914D01*
X165991835Y-92462051D01*
X166173914Y-92386632D01*
X166337782Y-92277139D01*
X166477139Y-92137782D01*
X166586632Y-91973914D01*
X166662051Y-91791835D01*
X166662052Y-91791827D01*
X166663050Y-91788540D01*
X166664045Y-91787021D01*
X166664382Y-91786208D01*
X166664536Y-91786271D01*
X166701343Y-91730098D01*
X166765153Y-91701637D01*
X166834220Y-91712192D01*
X166880850Y-91750042D01*
X167172634Y-92138404D01*
X167175977Y-92143075D01*
X167341898Y-92386632D01*
X167632843Y-92813713D01*
X167636910Y-92819682D01*
X167640026Y-92824492D01*
X167850506Y-93166485D01*
X168069150Y-93521745D01*
X168072046Y-93526705D01*
X168468408Y-94243056D01*
X168471071Y-94248144D01*
X168832038Y-94978441D01*
X168833159Y-94980769D01*
X168834355Y-94983321D01*
X168846886Y-95013574D01*
X168849982Y-95016670D01*
X168851873Y-95020705D01*
X168851946Y-95020805D01*
X168851948Y-95020807D01*
X168851949Y-95020808D01*
X168878149Y-95044837D01*
X168903288Y-95069976D01*
X168907429Y-95071691D01*
X168910734Y-95074722D01*
X168944136Y-95086895D01*
X168976980Y-95100500D01*
X168981463Y-95100500D01*
X168985675Y-95102035D01*
X168985677Y-95102034D01*
X168985678Y-95102035D01*
X169010908Y-95100944D01*
X169018509Y-95100615D01*
X169023864Y-95100500D01*
X173519862Y-95100500D01*
X173586901Y-95120185D01*
X173632656Y-95172989D01*
X173643862Y-95224500D01*
X173643862Y-97525500D01*
X173624177Y-97592539D01*
X173571373Y-97638294D01*
X173519862Y-97649500D01*
X167204478Y-97649500D01*
X167130787Y-97680024D01*
X167074386Y-97736425D01*
X167043862Y-97810116D01*
X167043862Y-106889883D01*
X167068998Y-106950567D01*
X167074386Y-106963574D01*
X167130788Y-107019976D01*
X167204480Y-107050500D01*
X173519862Y-107050500D01*
X173586901Y-107070185D01*
X173632656Y-107122989D01*
X173643862Y-107174500D01*
X173643862Y-109775500D01*
X173624177Y-109842539D01*
X173571373Y-109888294D01*
X173519862Y-109899500D01*
X169021193Y-109899500D01*
X168985675Y-109897965D01*
X168981463Y-109899500D01*
X168976980Y-109899500D01*
X168946602Y-109912082D01*
X168941614Y-109914023D01*
X168910729Y-109925279D01*
X168910249Y-109925570D01*
X168910250Y-109925571D01*
X168904860Y-109928844D01*
X168903764Y-109929705D01*
X168903289Y-109930022D01*
X168880045Y-109953265D01*
X168876183Y-109956964D01*
X168851949Y-109979190D01*
X168851613Y-109979650D01*
X168851610Y-109979653D01*
X168847888Y-109984732D01*
X168847204Y-109985948D01*
X168846887Y-109986421D01*
X168835432Y-110014076D01*
X168832034Y-110021565D01*
X168471071Y-110751855D01*
X168468408Y-110756943D01*
X168072046Y-111473294D01*
X168069150Y-111478254D01*
X167640033Y-112175497D01*
X167636910Y-112180317D01*
X167175977Y-112856924D01*
X167172634Y-112861595D01*
X166880850Y-113249957D01*
X166824844Y-113291730D01*
X166755143Y-113296593D01*
X166693879Y-113263001D01*
X166664431Y-113213771D01*
X166664382Y-113213792D01*
X166664242Y-113213454D01*
X166663051Y-113211463D01*
X166662049Y-113208160D01*
X166586635Y-113026092D01*
X166586628Y-113026079D01*
X166477139Y-112862218D01*
X166477136Y-112862214D01*
X166337785Y-112722863D01*
X166337781Y-112722860D01*
X166173920Y-112613371D01*
X166173907Y-112613364D01*
X165991839Y-112537950D01*
X165991829Y-112537947D01*
X165798543Y-112499500D01*
X165798541Y-112499500D01*
X165601459Y-112499500D01*
X165601457Y-112499500D01*
X165408170Y-112537947D01*
X165408160Y-112537950D01*
X165226092Y-112613364D01*
X165226079Y-112613371D01*
X165062218Y-112722860D01*
X165062214Y-112722863D01*
X164922863Y-112862214D01*
X164922860Y-112862218D01*
X164813371Y-113026079D01*
X164813364Y-113026092D01*
X164737950Y-113208160D01*
X164737947Y-113208170D01*
X164699500Y-113401456D01*
X164699500Y-113401459D01*
X164699500Y-113421750D01*
X164699500Y-113598541D01*
X164699500Y-113598543D01*
X164699499Y-113598543D01*
X164737947Y-113791829D01*
X164737950Y-113791839D01*
X164813364Y-113973907D01*
X164813371Y-113973920D01*
X164922860Y-114137781D01*
X164922863Y-114137785D01*
X165062214Y-114277136D01*
X165062218Y-114277139D01*
X165226079Y-114386628D01*
X165226092Y-114386635D01*
X165320161Y-114425599D01*
X165408165Y-114462051D01*
X165588143Y-114497851D01*
X165594470Y-114501160D01*
X165601612Y-114501325D01*
X165625024Y-114517143D01*
X165650054Y-114530236D01*
X165653587Y-114536441D01*
X165659507Y-114540441D01*
X165670649Y-114566404D01*
X165684628Y-114590951D01*
X165684245Y-114598082D01*
X165687063Y-114604647D01*
X165682400Y-114632511D01*
X165680889Y-114660721D01*
X165676431Y-114668190D01*
X165675533Y-114673558D01*
X165655774Y-114702803D01*
X165601776Y-114762300D01*
X165597818Y-114766463D01*
X165020120Y-115346574D01*
X165015974Y-115350549D01*
X164412031Y-115903289D01*
X164407705Y-115907068D01*
X163778811Y-116431251D01*
X163774315Y-116434825D01*
X163121834Y-116929317D01*
X163117178Y-116932679D01*
X162442493Y-117396431D01*
X162437685Y-117399574D01*
X161742241Y-117831590D01*
X161737294Y-117834507D01*
X161022593Y-118233857D01*
X161017516Y-118236541D01*
X160285103Y-118602361D01*
X160279906Y-118604808D01*
X159531342Y-118936319D01*
X159526038Y-118938523D01*
X158762898Y-119235026D01*
X158757498Y-119236981D01*
X157981465Y-119497822D01*
X157975980Y-119499525D01*
X157188716Y-119724147D01*
X157183158Y-119725595D01*
X156386299Y-119913530D01*
X156380680Y-119914718D01*
X155576023Y-120065543D01*
X155570354Y-120066471D01*
X154759521Y-120179881D01*
X154753817Y-120180544D01*
X153938646Y-120256282D01*
X153932916Y-120256681D01*
X153115091Y-120294593D01*
X153109349Y-120294726D01*
X152290651Y-120294726D01*
X152284909Y-120294593D01*
X151467083Y-120256681D01*
X151461353Y-120256282D01*
X150646182Y-120180544D01*
X150640478Y-120179881D01*
X149829645Y-120066471D01*
X149823976Y-120065543D01*
X149019319Y-119914718D01*
X149013700Y-119913530D01*
X148216841Y-119725595D01*
X148211283Y-119724147D01*
X147424019Y-119499525D01*
X147418534Y-119497822D01*
X146642501Y-119236981D01*
X146637101Y-119235026D01*
X145873961Y-118938523D01*
X145868657Y-118936319D01*
X145120093Y-118604808D01*
X145114896Y-118602361D01*
X144382483Y-118236541D01*
X144377406Y-118233857D01*
X143662705Y-117834507D01*
X143657758Y-117831590D01*
X142962314Y-117399574D01*
X142957518Y-117396439D01*
X142282821Y-116932679D01*
X142278165Y-116929317D01*
X141625684Y-116434825D01*
X141621188Y-116431251D01*
X141241343Y-116114650D01*
X141136814Y-116027525D01*
X142849500Y-116027525D01*
X142849500Y-116172475D01*
X142887016Y-116312485D01*
X142887017Y-116312488D01*
X142959488Y-116438011D01*
X142959490Y-116438013D01*
X142959491Y-116438015D01*
X143061985Y-116540509D01*
X143061986Y-116540510D01*
X143061988Y-116540511D01*
X143187511Y-116612982D01*
X143187512Y-116612982D01*
X143187515Y-116612984D01*
X143327525Y-116650500D01*
X143327528Y-116650500D01*
X143472472Y-116650500D01*
X143472475Y-116650500D01*
X143612485Y-116612984D01*
X143738015Y-116540509D01*
X143840509Y-116438015D01*
X143846565Y-116427525D01*
X160949500Y-116427525D01*
X160949500Y-116572475D01*
X160970407Y-116650500D01*
X160987017Y-116712488D01*
X161059488Y-116838011D01*
X161059490Y-116838013D01*
X161059491Y-116838015D01*
X161161985Y-116940509D01*
X161161986Y-116940510D01*
X161161988Y-116940511D01*
X161287511Y-117012982D01*
X161287512Y-117012982D01*
X161287515Y-117012984D01*
X161427525Y-117050500D01*
X161427528Y-117050500D01*
X161572472Y-117050500D01*
X161572475Y-117050500D01*
X161712485Y-117012984D01*
X161838015Y-116940509D01*
X161940509Y-116838015D01*
X162012984Y-116712485D01*
X162050500Y-116572475D01*
X162050500Y-116427525D01*
X162012984Y-116287515D01*
X161946565Y-116172475D01*
X161940511Y-116161988D01*
X161940506Y-116161982D01*
X161838017Y-116059493D01*
X161838011Y-116059488D01*
X161712488Y-115987017D01*
X161712489Y-115987017D01*
X161701006Y-115983940D01*
X161572475Y-115949500D01*
X161427525Y-115949500D01*
X161298993Y-115983940D01*
X161287511Y-115987017D01*
X161161988Y-116059488D01*
X161161982Y-116059493D01*
X161059493Y-116161982D01*
X161059488Y-116161988D01*
X160987017Y-116287511D01*
X160987016Y-116287515D01*
X160949500Y-116427525D01*
X143846565Y-116427525D01*
X143912984Y-116312485D01*
X143950500Y-116172475D01*
X143950500Y-116062011D01*
X143970185Y-115994972D01*
X144022989Y-115949217D01*
X144092147Y-115939273D01*
X144155703Y-115968298D01*
X144181884Y-116000008D01*
X144199525Y-116030562D01*
X144269438Y-116100475D01*
X144355062Y-116149910D01*
X144450565Y-116175500D01*
X144450567Y-116175500D01*
X144549432Y-116175500D01*
X144549435Y-116175500D01*
X144644938Y-116149910D01*
X144730562Y-116100475D01*
X144800475Y-116030562D01*
X144849910Y-115944938D01*
X144875500Y-115849435D01*
X144875500Y-115750565D01*
X144849910Y-115655062D01*
X144800475Y-115569438D01*
X144730562Y-115499525D01*
X144644938Y-115450090D01*
X144549435Y-115424500D01*
X144450565Y-115424500D01*
X144355062Y-115450090D01*
X144355060Y-115450091D01*
X144355059Y-115450091D01*
X144269436Y-115499526D01*
X144199526Y-115569436D01*
X144150091Y-115655059D01*
X144150091Y-115655060D01*
X144150090Y-115655062D01*
X144124500Y-115750565D01*
X144124500Y-115750567D01*
X144124500Y-115791096D01*
X144104815Y-115858135D01*
X144052011Y-115903890D01*
X143982853Y-115913834D01*
X143919297Y-115884809D01*
X143893113Y-115853097D01*
X143857316Y-115791096D01*
X143840509Y-115761985D01*
X143738015Y-115659491D01*
X143738013Y-115659490D01*
X143738011Y-115659488D01*
X143612488Y-115587017D01*
X143612489Y-115587017D01*
X143601006Y-115583940D01*
X143472475Y-115549500D01*
X143327525Y-115549500D01*
X143198993Y-115583940D01*
X143187511Y-115587017D01*
X143061988Y-115659488D01*
X143061982Y-115659493D01*
X142959493Y-115761982D01*
X142959488Y-115761988D01*
X142887017Y-115887511D01*
X142887016Y-115887515D01*
X142849500Y-116027525D01*
X141136814Y-116027525D01*
X140992294Y-115907068D01*
X140987968Y-115903289D01*
X140970733Y-115887515D01*
X140384015Y-115350540D01*
X140379879Y-115346574D01*
X139885933Y-114850565D01*
X163324500Y-114850565D01*
X163324500Y-114949435D01*
X163350090Y-115044938D01*
X163399525Y-115130562D01*
X163469438Y-115200475D01*
X163555062Y-115249910D01*
X163650565Y-115275500D01*
X163650567Y-115275500D01*
X163749432Y-115275500D01*
X163749435Y-115275500D01*
X163844938Y-115249910D01*
X163930562Y-115200475D01*
X164000475Y-115130562D01*
X164049910Y-115044938D01*
X164075500Y-114949435D01*
X164075500Y-114850565D01*
X164049910Y-114755062D01*
X164000475Y-114669438D01*
X163930562Y-114599525D01*
X163844938Y-114550090D01*
X163749435Y-114524500D01*
X163650565Y-114524500D01*
X163555062Y-114550090D01*
X163555060Y-114550091D01*
X163555059Y-114550091D01*
X163469436Y-114599526D01*
X163399526Y-114669436D01*
X163350091Y-114755059D01*
X163350091Y-114755060D01*
X163350090Y-114755062D01*
X163324500Y-114850565D01*
X139885933Y-114850565D01*
X139802169Y-114766451D01*
X139798236Y-114762313D01*
X139525721Y-114462051D01*
X139492636Y-114425597D01*
X157462395Y-114425597D01*
X157462395Y-114524467D01*
X157487985Y-114619970D01*
X157487986Y-114619971D01*
X157487986Y-114619972D01*
X157501232Y-114642914D01*
X157537420Y-114705594D01*
X157607333Y-114775507D01*
X157692957Y-114824942D01*
X157788460Y-114850532D01*
X157788462Y-114850532D01*
X157887327Y-114850532D01*
X157887330Y-114850532D01*
X157982833Y-114824942D01*
X158068457Y-114775507D01*
X158138370Y-114705594D01*
X158187805Y-114619970D01*
X158213395Y-114524467D01*
X158213395Y-114425597D01*
X158187805Y-114330094D01*
X158138370Y-114244470D01*
X158068457Y-114174557D01*
X157982833Y-114125122D01*
X157887330Y-114099532D01*
X157788460Y-114099532D01*
X157692957Y-114125122D01*
X157692955Y-114125123D01*
X157692954Y-114125123D01*
X157607331Y-114174558D01*
X157537421Y-114244468D01*
X157487986Y-114330091D01*
X157487986Y-114330092D01*
X157487985Y-114330094D01*
X157462395Y-114425597D01*
X139492636Y-114425597D01*
X139248016Y-114156069D01*
X139244256Y-114151729D01*
X139238264Y-114144479D01*
X139210729Y-114080264D01*
X139222282Y-114011356D01*
X139269256Y-113959633D01*
X139336736Y-113941517D01*
X139381295Y-113950921D01*
X139408165Y-113962051D01*
X139408169Y-113962051D01*
X139408170Y-113962052D01*
X139601456Y-114000500D01*
X139601459Y-114000500D01*
X139798543Y-114000500D01*
X139932196Y-113973914D01*
X139991835Y-113962051D01*
X140173914Y-113886632D01*
X140337782Y-113777139D01*
X140477139Y-113637782D01*
X140586632Y-113473914D01*
X140662051Y-113291835D01*
X140686934Y-113166743D01*
X140700500Y-113098543D01*
X140700500Y-112901456D01*
X140662052Y-112708170D01*
X140662051Y-112708169D01*
X140662051Y-112708165D01*
X140631765Y-112635048D01*
X140586635Y-112526092D01*
X140586628Y-112526079D01*
X140477139Y-112362218D01*
X140477136Y-112362214D01*
X140337785Y-112222863D01*
X140337781Y-112222860D01*
X140173920Y-112113371D01*
X140173907Y-112113364D01*
X140037827Y-112056999D01*
X139991839Y-112037950D01*
X139991829Y-112037947D01*
X139798543Y-111999500D01*
X139798541Y-111999500D01*
X139601459Y-111999500D01*
X139601457Y-111999500D01*
X139408170Y-112037947D01*
X139408160Y-112037950D01*
X139226092Y-112113364D01*
X139226079Y-112113371D01*
X139062218Y-112222860D01*
X139062214Y-112222863D01*
X138922863Y-112362214D01*
X138922860Y-112362218D01*
X138813371Y-112526079D01*
X138813364Y-112526092D01*
X138737950Y-112708160D01*
X138737947Y-112708170D01*
X138699500Y-112901456D01*
X138699500Y-113098543D01*
X138700097Y-113104606D01*
X138698540Y-113104759D01*
X138692983Y-113166743D01*
X138650110Y-113221912D01*
X138584216Y-113245145D01*
X138516222Y-113229065D01*
X138478465Y-113195807D01*
X138227364Y-112861594D01*
X138224022Y-112856924D01*
X138058104Y-112613371D01*
X137763075Y-112180296D01*
X137759979Y-112175518D01*
X137621532Y-111950565D01*
X143824500Y-111950565D01*
X143824500Y-112049435D01*
X143850090Y-112144938D01*
X143899525Y-112230562D01*
X143969438Y-112300475D01*
X144055062Y-112349910D01*
X144150565Y-112375500D01*
X144150567Y-112375500D01*
X144249432Y-112375500D01*
X144249435Y-112375500D01*
X144344938Y-112349910D01*
X144430562Y-112300475D01*
X144500475Y-112230562D01*
X144549910Y-112144938D01*
X144575500Y-112049435D01*
X144575500Y-111950565D01*
X144549910Y-111855062D01*
X144500475Y-111769438D01*
X144430562Y-111699525D01*
X144344938Y-111650090D01*
X144249435Y-111624500D01*
X144150565Y-111624500D01*
X144055062Y-111650090D01*
X144055060Y-111650091D01*
X144055059Y-111650091D01*
X143969436Y-111699526D01*
X143899526Y-111769436D01*
X143850091Y-111855059D01*
X143850091Y-111855060D01*
X143850090Y-111855062D01*
X143824500Y-111950565D01*
X137621532Y-111950565D01*
X137330847Y-111478251D01*
X137327953Y-111473294D01*
X137315377Y-111450565D01*
X162824500Y-111450565D01*
X162824500Y-111549435D01*
X162850090Y-111644938D01*
X162850091Y-111644939D01*
X162850091Y-111644940D01*
X162853065Y-111650091D01*
X162899525Y-111730562D01*
X162969438Y-111800475D01*
X163055062Y-111849910D01*
X163150565Y-111875500D01*
X163150567Y-111875500D01*
X163249432Y-111875500D01*
X163249435Y-111875500D01*
X163344938Y-111849910D01*
X163430562Y-111800475D01*
X163500475Y-111730562D01*
X163549910Y-111644938D01*
X163575500Y-111549435D01*
X163575500Y-111450565D01*
X163549910Y-111355062D01*
X163500475Y-111269438D01*
X163430562Y-111199525D01*
X163344938Y-111150090D01*
X163249435Y-111124500D01*
X163150565Y-111124500D01*
X163055062Y-111150090D01*
X163055060Y-111150091D01*
X163055059Y-111150091D01*
X162969436Y-111199526D01*
X162899526Y-111269436D01*
X162850091Y-111355059D01*
X162850091Y-111355060D01*
X162850090Y-111355062D01*
X162824500Y-111450565D01*
X137315377Y-111450565D01*
X136931586Y-110756934D01*
X136928928Y-110751855D01*
X136567953Y-110021543D01*
X136564563Y-110014069D01*
X136553114Y-109986426D01*
X136553112Y-109986424D01*
X136553112Y-109986423D01*
X136552813Y-109985975D01*
X136549282Y-109980691D01*
X136548368Y-109979625D01*
X136548050Y-109979191D01*
X136523817Y-109956966D01*
X136519947Y-109953259D01*
X136496806Y-109930117D01*
X136496715Y-109930026D01*
X136496254Y-109929718D01*
X136495154Y-109928854D01*
X136489739Y-109925565D01*
X136489738Y-109925564D01*
X136489266Y-109925277D01*
X136458370Y-109914017D01*
X136453390Y-109912079D01*
X136438739Y-109906011D01*
X136423016Y-109899498D01*
X136422480Y-109899392D01*
X136422466Y-109899390D01*
X136416268Y-109898156D01*
X136414868Y-109898049D01*
X136414321Y-109897964D01*
X136382549Y-109899338D01*
X136381490Y-109899384D01*
X136376136Y-109899500D01*
X132524500Y-109899500D01*
X132457461Y-109879815D01*
X132432116Y-109850565D01*
X143324500Y-109850565D01*
X143324500Y-109949435D01*
X143350090Y-110044938D01*
X143399525Y-110130562D01*
X143469438Y-110200475D01*
X143555062Y-110249910D01*
X143650565Y-110275500D01*
X143650567Y-110275500D01*
X143749432Y-110275500D01*
X143749435Y-110275500D01*
X143844938Y-110249910D01*
X143930562Y-110200475D01*
X144000475Y-110130562D01*
X144049910Y-110044938D01*
X144075500Y-109949435D01*
X144075500Y-109850565D01*
X144049910Y-109755062D01*
X144000475Y-109669438D01*
X143930562Y-109599525D01*
X143844938Y-109550090D01*
X143749435Y-109524500D01*
X143650565Y-109524500D01*
X143555062Y-109550090D01*
X143555060Y-109550091D01*
X143555059Y-109550091D01*
X143469436Y-109599526D01*
X143399526Y-109669436D01*
X143350091Y-109755059D01*
X143350091Y-109755060D01*
X143350090Y-109755062D01*
X143324500Y-109850565D01*
X132432116Y-109850565D01*
X132411706Y-109827011D01*
X132400500Y-109775500D01*
X132400500Y-108950565D01*
X132724500Y-108950565D01*
X132724500Y-109049435D01*
X132750090Y-109144938D01*
X132750091Y-109144939D01*
X132750091Y-109144940D01*
X132753339Y-109150565D01*
X132799525Y-109230562D01*
X132869438Y-109300475D01*
X132955062Y-109349910D01*
X133050565Y-109375500D01*
X133050567Y-109375500D01*
X133149432Y-109375500D01*
X133149435Y-109375500D01*
X133244938Y-109349910D01*
X133330562Y-109300475D01*
X133400475Y-109230562D01*
X133449910Y-109144938D01*
X133475500Y-109049435D01*
X133475500Y-108950565D01*
X133449910Y-108855062D01*
X133400475Y-108769438D01*
X133330562Y-108699525D01*
X133244938Y-108650090D01*
X133149435Y-108624500D01*
X133050565Y-108624500D01*
X132955062Y-108650090D01*
X132955060Y-108650091D01*
X132955059Y-108650091D01*
X132869436Y-108699526D01*
X132799526Y-108769436D01*
X132750091Y-108855059D01*
X132750091Y-108855060D01*
X132750090Y-108855062D01*
X132724500Y-108950565D01*
X132400500Y-108950565D01*
X132400500Y-108250565D01*
X140024500Y-108250565D01*
X140024500Y-108349435D01*
X140050090Y-108444938D01*
X140050091Y-108444939D01*
X140050091Y-108444940D01*
X140053065Y-108450091D01*
X140099525Y-108530562D01*
X140169438Y-108600475D01*
X140255062Y-108649910D01*
X140350565Y-108675500D01*
X140350567Y-108675500D01*
X140438986Y-108675500D01*
X140506025Y-108695185D01*
X140551780Y-108747989D01*
X140561724Y-108817147D01*
X140551451Y-108846827D01*
X140553201Y-108847552D01*
X140550090Y-108855060D01*
X140550090Y-108855062D01*
X140524500Y-108950565D01*
X140524500Y-109049435D01*
X140550090Y-109144938D01*
X140550091Y-109144939D01*
X140550091Y-109144940D01*
X140553339Y-109150565D01*
X140599525Y-109230562D01*
X140669438Y-109300475D01*
X140755062Y-109349910D01*
X140850565Y-109375500D01*
X140850567Y-109375500D01*
X140949432Y-109375500D01*
X140949435Y-109375500D01*
X141044938Y-109349910D01*
X141130562Y-109300475D01*
X141200475Y-109230562D01*
X141249910Y-109144938D01*
X141275500Y-109049435D01*
X141275500Y-108950565D01*
X141275221Y-108949522D01*
X145489145Y-108949522D01*
X145489145Y-109048392D01*
X145514735Y-109143895D01*
X145514736Y-109143896D01*
X145514736Y-109143897D01*
X145518208Y-109149910D01*
X145564170Y-109229519D01*
X145634083Y-109299432D01*
X145719707Y-109348867D01*
X145815210Y-109374457D01*
X145815212Y-109374457D01*
X145914077Y-109374457D01*
X145914080Y-109374457D01*
X146009583Y-109348867D01*
X146095207Y-109299432D01*
X146165120Y-109229519D01*
X146210704Y-109150565D01*
X154424500Y-109150565D01*
X154424500Y-109249435D01*
X154450090Y-109344938D01*
X154450091Y-109344939D01*
X154450091Y-109344940D01*
X154463337Y-109367882D01*
X154499525Y-109430562D01*
X154569438Y-109500475D01*
X154655062Y-109549910D01*
X154750565Y-109575500D01*
X154750567Y-109575500D01*
X154849432Y-109575500D01*
X154849435Y-109575500D01*
X154944938Y-109549910D01*
X155030562Y-109500475D01*
X155100475Y-109430562D01*
X155149910Y-109344938D01*
X155175500Y-109249435D01*
X155175500Y-109150565D01*
X155149910Y-109055062D01*
X155100475Y-108969438D01*
X155030562Y-108899525D01*
X154944938Y-108850090D01*
X154923385Y-108844315D01*
X159530750Y-108844315D01*
X159530750Y-108943185D01*
X159556340Y-109038688D01*
X159556341Y-109038689D01*
X159556341Y-109038690D01*
X159569587Y-109061632D01*
X159605775Y-109124312D01*
X159675688Y-109194225D01*
X159761312Y-109243660D01*
X159856815Y-109269250D01*
X159856817Y-109269250D01*
X159955682Y-109269250D01*
X159955685Y-109269250D01*
X160051188Y-109243660D01*
X160136812Y-109194225D01*
X160206725Y-109124312D01*
X160256160Y-109038688D01*
X160281750Y-108943185D01*
X160281750Y-108844315D01*
X160256630Y-108750565D01*
X165624500Y-108750565D01*
X165624500Y-108849435D01*
X165650090Y-108944938D01*
X165650091Y-108944939D01*
X165650091Y-108944940D01*
X165652738Y-108949524D01*
X165699525Y-109030562D01*
X165769438Y-109100475D01*
X165855062Y-109149910D01*
X165950565Y-109175500D01*
X165950567Y-109175500D01*
X166049432Y-109175500D01*
X166049435Y-109175500D01*
X166144938Y-109149910D01*
X166230562Y-109100475D01*
X166300475Y-109030562D01*
X166349910Y-108944938D01*
X166375500Y-108849435D01*
X166375500Y-108750565D01*
X166349910Y-108655062D01*
X166300475Y-108569438D01*
X166230562Y-108499525D01*
X166144938Y-108450090D01*
X166049435Y-108424500D01*
X165950565Y-108424500D01*
X165855062Y-108450090D01*
X165855060Y-108450091D01*
X165855059Y-108450091D01*
X165769436Y-108499526D01*
X165699526Y-108569436D01*
X165650091Y-108655059D01*
X165650091Y-108655060D01*
X165650090Y-108655062D01*
X165624500Y-108750565D01*
X160256630Y-108750565D01*
X160256160Y-108748812D01*
X160206725Y-108663188D01*
X160136812Y-108593275D01*
X160051188Y-108543840D01*
X159955685Y-108518250D01*
X159856815Y-108518250D01*
X159761312Y-108543840D01*
X159761310Y-108543841D01*
X159761309Y-108543841D01*
X159675686Y-108593276D01*
X159605776Y-108663186D01*
X159556341Y-108748809D01*
X159556341Y-108748810D01*
X159556340Y-108748812D01*
X159530750Y-108844315D01*
X154923385Y-108844315D01*
X154849435Y-108824500D01*
X154750565Y-108824500D01*
X154655062Y-108850090D01*
X154655060Y-108850091D01*
X154655059Y-108850091D01*
X154569436Y-108899526D01*
X154499526Y-108969436D01*
X154450091Y-109055059D01*
X154450091Y-109055060D01*
X154450090Y-109055062D01*
X154424500Y-109150565D01*
X146210704Y-109150565D01*
X146214555Y-109143895D01*
X146240145Y-109048392D01*
X146240145Y-108949522D01*
X146214555Y-108854019D01*
X146175183Y-108785825D01*
X146158711Y-108717927D01*
X146181563Y-108651900D01*
X146194888Y-108636148D01*
X146200475Y-108630562D01*
X146249910Y-108544938D01*
X146275500Y-108449435D01*
X146275500Y-108350565D01*
X146252199Y-108263604D01*
X150737539Y-108263604D01*
X150737539Y-108362474D01*
X150763129Y-108457977D01*
X150812564Y-108543601D01*
X150882477Y-108613514D01*
X150968101Y-108662949D01*
X151063604Y-108688539D01*
X151063606Y-108688539D01*
X151162471Y-108688539D01*
X151162474Y-108688539D01*
X151257977Y-108662949D01*
X151343601Y-108613514D01*
X151413514Y-108543601D01*
X151462949Y-108457977D01*
X151488539Y-108362474D01*
X151488539Y-108263604D01*
X151462949Y-108168101D01*
X151413514Y-108082477D01*
X151343601Y-108012564D01*
X151257977Y-107963129D01*
X151162474Y-107937539D01*
X151063604Y-107937539D01*
X150968101Y-107963129D01*
X150968099Y-107963130D01*
X150968098Y-107963130D01*
X150882475Y-108012565D01*
X150812565Y-108082475D01*
X150763130Y-108168098D01*
X150763130Y-108168099D01*
X150763129Y-108168101D01*
X150737539Y-108263604D01*
X146252199Y-108263604D01*
X146249910Y-108255062D01*
X146200475Y-108169438D01*
X146130562Y-108099525D01*
X146044938Y-108050090D01*
X145949435Y-108024500D01*
X145850565Y-108024500D01*
X145755062Y-108050090D01*
X145755060Y-108050091D01*
X145755059Y-108050091D01*
X145669436Y-108099526D01*
X145599526Y-108169436D01*
X145550091Y-108255059D01*
X145550091Y-108255060D01*
X145550090Y-108255062D01*
X145524500Y-108350565D01*
X145524500Y-108449435D01*
X145550090Y-108544938D01*
X145550091Y-108544939D01*
X145550091Y-108544940D01*
X145589460Y-108613129D01*
X145605933Y-108681029D01*
X145583080Y-108747056D01*
X145569758Y-108762806D01*
X145564172Y-108768392D01*
X145564170Y-108768394D01*
X145564170Y-108768395D01*
X145560627Y-108774532D01*
X145514736Y-108854016D01*
X145514736Y-108854017D01*
X145514735Y-108854019D01*
X145489145Y-108949522D01*
X141275221Y-108949522D01*
X141249910Y-108855062D01*
X141200475Y-108769438D01*
X141130562Y-108699525D01*
X141044938Y-108650090D01*
X140949435Y-108624500D01*
X140861014Y-108624500D01*
X140793975Y-108604815D01*
X140748220Y-108552011D01*
X140738276Y-108482853D01*
X140748548Y-108453172D01*
X140746799Y-108452448D01*
X140749904Y-108444947D01*
X140749910Y-108444938D01*
X140775500Y-108349435D01*
X140775500Y-108250565D01*
X140749910Y-108155062D01*
X140700475Y-108069438D01*
X140630562Y-107999525D01*
X140544938Y-107950090D01*
X140449435Y-107924500D01*
X140350565Y-107924500D01*
X140255062Y-107950090D01*
X140255060Y-107950091D01*
X140255059Y-107950091D01*
X140169436Y-107999526D01*
X140099526Y-108069436D01*
X140050091Y-108155059D01*
X140050091Y-108155060D01*
X140050090Y-108155062D01*
X140024500Y-108250565D01*
X132400500Y-108250565D01*
X132400500Y-107250565D01*
X133924500Y-107250565D01*
X133924500Y-107349435D01*
X133950090Y-107444938D01*
X133950091Y-107444939D01*
X133950091Y-107444940D01*
X133954791Y-107453080D01*
X133999525Y-107530562D01*
X134069438Y-107600475D01*
X134155062Y-107649910D01*
X134250565Y-107675500D01*
X134250567Y-107675500D01*
X134349432Y-107675500D01*
X134349435Y-107675500D01*
X134444938Y-107649910D01*
X134530562Y-107600475D01*
X134600475Y-107530562D01*
X134649910Y-107444938D01*
X134675197Y-107350565D01*
X144424500Y-107350565D01*
X144424500Y-107449435D01*
X144450090Y-107544938D01*
X144499525Y-107630562D01*
X144569438Y-107700475D01*
X144655062Y-107749910D01*
X144750565Y-107775500D01*
X144750567Y-107775500D01*
X144849432Y-107775500D01*
X144849435Y-107775500D01*
X144944938Y-107749910D01*
X145030562Y-107700475D01*
X145100475Y-107630562D01*
X145149910Y-107544938D01*
X145175500Y-107449435D01*
X145175500Y-107350565D01*
X145149910Y-107255062D01*
X145100475Y-107169438D01*
X145030562Y-107099525D01*
X144944938Y-107050090D01*
X144849435Y-107024500D01*
X144750565Y-107024500D01*
X144655062Y-107050090D01*
X144655060Y-107050091D01*
X144655059Y-107050091D01*
X144569436Y-107099526D01*
X144499526Y-107169436D01*
X144450091Y-107255059D01*
X144450091Y-107255060D01*
X144450090Y-107255062D01*
X144424500Y-107350565D01*
X134675197Y-107350565D01*
X134675500Y-107349435D01*
X134675500Y-107250565D01*
X134649910Y-107155062D01*
X134600475Y-107069438D01*
X134530562Y-106999525D01*
X134445761Y-106950565D01*
X145574500Y-106950565D01*
X145574500Y-107049435D01*
X145600090Y-107144938D01*
X145600091Y-107144939D01*
X145600091Y-107144940D01*
X145605933Y-107155059D01*
X145649525Y-107230562D01*
X145719438Y-107300475D01*
X145805062Y-107349910D01*
X145900565Y-107375500D01*
X145900567Y-107375500D01*
X145999432Y-107375500D01*
X145999435Y-107375500D01*
X146094938Y-107349910D01*
X146180562Y-107300475D01*
X146250475Y-107230562D01*
X146299910Y-107144938D01*
X146325500Y-107049435D01*
X146325500Y-106950565D01*
X146299910Y-106855062D01*
X146250475Y-106769438D01*
X146180562Y-106699525D01*
X146094938Y-106650090D01*
X145999435Y-106624500D01*
X145900565Y-106624500D01*
X145805062Y-106650090D01*
X145805060Y-106650091D01*
X145805059Y-106650091D01*
X145719436Y-106699526D01*
X145649526Y-106769436D01*
X145600091Y-106855059D01*
X145600091Y-106855060D01*
X145600090Y-106855062D01*
X145574500Y-106950565D01*
X134445761Y-106950565D01*
X134444938Y-106950090D01*
X134349435Y-106924500D01*
X134250565Y-106924500D01*
X134155062Y-106950090D01*
X134155060Y-106950091D01*
X134155059Y-106950091D01*
X134069436Y-106999526D01*
X133999526Y-107069436D01*
X133950091Y-107155059D01*
X133950091Y-107155060D01*
X133950090Y-107155062D01*
X133924500Y-107250565D01*
X132400500Y-107250565D01*
X132400500Y-106450565D01*
X147924500Y-106450565D01*
X147924500Y-106549435D01*
X147950090Y-106644938D01*
X147950091Y-106644939D01*
X147950091Y-106644940D01*
X147999527Y-106730565D01*
X148004474Y-106737012D01*
X148001827Y-106739042D01*
X148027882Y-106786757D01*
X148022898Y-106856449D01*
X148014104Y-106875113D01*
X147968104Y-106954789D01*
X147968102Y-106954792D01*
X147968102Y-106954794D01*
X147942512Y-107050297D01*
X147942512Y-107149167D01*
X147968102Y-107244670D01*
X147968103Y-107244671D01*
X147968103Y-107244672D01*
X148017538Y-107330295D01*
X148040422Y-107353179D01*
X148073907Y-107414502D01*
X148068923Y-107484194D01*
X148040422Y-107528541D01*
X147999526Y-107569436D01*
X147950091Y-107655059D01*
X147950091Y-107655060D01*
X147950090Y-107655062D01*
X147924500Y-107750565D01*
X147924500Y-107849435D01*
X147950090Y-107944938D01*
X147950091Y-107944939D01*
X147950091Y-107944940D01*
X147953065Y-107950091D01*
X147999525Y-108030562D01*
X148069438Y-108100475D01*
X148155062Y-108149910D01*
X148250565Y-108175500D01*
X148250567Y-108175500D01*
X148349432Y-108175500D01*
X148349435Y-108175500D01*
X148444938Y-108149910D01*
X148530562Y-108100475D01*
X148600475Y-108030562D01*
X148649910Y-107944938D01*
X148675500Y-107849435D01*
X148675500Y-107750565D01*
X148649910Y-107655062D01*
X148600475Y-107569438D01*
X148577590Y-107546553D01*
X148544105Y-107485230D01*
X148549089Y-107415538D01*
X148577590Y-107371191D01*
X148595602Y-107353179D01*
X148618487Y-107330294D01*
X148667922Y-107244670D01*
X148693512Y-107149167D01*
X148693512Y-107050297D01*
X148667922Y-106954794D01*
X148618487Y-106869170D01*
X148618485Y-106869168D01*
X148618484Y-106869166D01*
X148613538Y-106862720D01*
X148616183Y-106860690D01*
X148590128Y-106812973D01*
X148595112Y-106743281D01*
X148603903Y-106724624D01*
X148649910Y-106644938D01*
X148675500Y-106549435D01*
X148675500Y-106450565D01*
X148649910Y-106355062D01*
X148600475Y-106269438D01*
X148530562Y-106199525D01*
X148444938Y-106150090D01*
X148349435Y-106124500D01*
X148250565Y-106124500D01*
X148155062Y-106150090D01*
X148155060Y-106150091D01*
X148155059Y-106150091D01*
X148069436Y-106199526D01*
X147999526Y-106269436D01*
X147950091Y-106355059D01*
X147950091Y-106355060D01*
X147950090Y-106355062D01*
X147924500Y-106450565D01*
X132400500Y-106450565D01*
X132400500Y-105950565D01*
X142424500Y-105950565D01*
X142424500Y-106049435D01*
X142450090Y-106144938D01*
X142450091Y-106144939D01*
X142450091Y-106144940D01*
X142453065Y-106150091D01*
X142499525Y-106230562D01*
X142569438Y-106300475D01*
X142655062Y-106349910D01*
X142750565Y-106375500D01*
X142750567Y-106375500D01*
X142849432Y-106375500D01*
X142849435Y-106375500D01*
X142944938Y-106349910D01*
X143030562Y-106300475D01*
X143100475Y-106230562D01*
X143149910Y-106144938D01*
X143175500Y-106049435D01*
X143175500Y-105950565D01*
X143149910Y-105855062D01*
X143100475Y-105769438D01*
X143030562Y-105699525D01*
X142944938Y-105650090D01*
X142849435Y-105624500D01*
X142750565Y-105624500D01*
X142655062Y-105650090D01*
X142655060Y-105650091D01*
X142655059Y-105650091D01*
X142569436Y-105699526D01*
X142499526Y-105769436D01*
X142450091Y-105855059D01*
X142450091Y-105855060D01*
X142450090Y-105855062D01*
X142424500Y-105950565D01*
X132400500Y-105950565D01*
X132400500Y-105536960D01*
X153374500Y-105536960D01*
X153374500Y-105635830D01*
X153400090Y-105731333D01*
X153449525Y-105816957D01*
X153519438Y-105886870D01*
X153605062Y-105936305D01*
X153700565Y-105961895D01*
X153700567Y-105961895D01*
X153799432Y-105961895D01*
X153799435Y-105961895D01*
X153894938Y-105936305D01*
X153980562Y-105886870D01*
X154050475Y-105816957D01*
X154099910Y-105731333D01*
X154125500Y-105635830D01*
X154125500Y-105536960D01*
X154099910Y-105441457D01*
X154050475Y-105355833D01*
X153980562Y-105285920D01*
X153894938Y-105236485D01*
X153799435Y-105210895D01*
X153700565Y-105210895D01*
X153605062Y-105236485D01*
X153605060Y-105236486D01*
X153605059Y-105236486D01*
X153519436Y-105285921D01*
X153449526Y-105355831D01*
X153400091Y-105441454D01*
X153400091Y-105441455D01*
X153400090Y-105441457D01*
X153374500Y-105536960D01*
X132400500Y-105536960D01*
X132400500Y-104676693D01*
X137904959Y-104676693D01*
X137904959Y-104775563D01*
X137930549Y-104871066D01*
X137979984Y-104956690D01*
X138049897Y-105026603D01*
X138135521Y-105076038D01*
X138231024Y-105101628D01*
X138231026Y-105101628D01*
X138329891Y-105101628D01*
X138329894Y-105101628D01*
X138425397Y-105076038D01*
X138469518Y-105050565D01*
X149874500Y-105050565D01*
X149874500Y-105149435D01*
X149900090Y-105244938D01*
X149949525Y-105330562D01*
X150019438Y-105400475D01*
X150105062Y-105449910D01*
X150200565Y-105475500D01*
X150200567Y-105475500D01*
X150299432Y-105475500D01*
X150299435Y-105475500D01*
X150394938Y-105449910D01*
X150480562Y-105400475D01*
X150550475Y-105330562D01*
X150599910Y-105244938D01*
X150625500Y-105149435D01*
X150625500Y-105050565D01*
X150599910Y-104955062D01*
X150550475Y-104869438D01*
X150480562Y-104799525D01*
X150394938Y-104750090D01*
X150299435Y-104724500D01*
X150200565Y-104724500D01*
X150105062Y-104750090D01*
X150105060Y-104750091D01*
X150105059Y-104750091D01*
X150019436Y-104799526D01*
X149949526Y-104869436D01*
X149900091Y-104955059D01*
X149900091Y-104955060D01*
X149900090Y-104955062D01*
X149874500Y-105050565D01*
X138469518Y-105050565D01*
X138511021Y-105026603D01*
X138580934Y-104956690D01*
X138630369Y-104871066D01*
X138655959Y-104775563D01*
X138655959Y-104676693D01*
X138630369Y-104581190D01*
X138580934Y-104495566D01*
X138511021Y-104425653D01*
X138425397Y-104376218D01*
X138329894Y-104350628D01*
X138231024Y-104350628D01*
X138135521Y-104376218D01*
X138135519Y-104376219D01*
X138135518Y-104376219D01*
X138049895Y-104425654D01*
X137979985Y-104495564D01*
X137930550Y-104581187D01*
X137930550Y-104581188D01*
X137930549Y-104581190D01*
X137904959Y-104676693D01*
X132400500Y-104676693D01*
X132400500Y-102534679D01*
X134385491Y-102534679D01*
X134385491Y-102633549D01*
X134411081Y-102729052D01*
X134460516Y-102814676D01*
X134530429Y-102884589D01*
X134616053Y-102934024D01*
X134711556Y-102959614D01*
X134711558Y-102959614D01*
X134810423Y-102959614D01*
X134810426Y-102959614D01*
X134905929Y-102934024D01*
X134991553Y-102884589D01*
X135043286Y-102832855D01*
X135104607Y-102799371D01*
X135174299Y-102804355D01*
X135230232Y-102846226D01*
X135254650Y-102911690D01*
X135250741Y-102952629D01*
X135224500Y-103050563D01*
X135224500Y-103050565D01*
X135224500Y-103149435D01*
X135250090Y-103244938D01*
X135250091Y-103244939D01*
X135250091Y-103244940D01*
X135252686Y-103249435D01*
X135299525Y-103330562D01*
X135369438Y-103400475D01*
X135455062Y-103449910D01*
X135550565Y-103475500D01*
X135550567Y-103475500D01*
X135649432Y-103475500D01*
X135649435Y-103475500D01*
X135744938Y-103449910D01*
X135830562Y-103400475D01*
X135900475Y-103330562D01*
X135949910Y-103244938D01*
X135975500Y-103149435D01*
X135975500Y-103050565D01*
X135949910Y-102955062D01*
X135900475Y-102869438D01*
X135830562Y-102799525D01*
X135744938Y-102750090D01*
X135649435Y-102724500D01*
X135550565Y-102724500D01*
X135550560Y-102724500D01*
X135544648Y-102726085D01*
X135474798Y-102724421D01*
X135416936Y-102685258D01*
X135389434Y-102621028D01*
X135401022Y-102552126D01*
X135444801Y-102503968D01*
X135444537Y-102503624D01*
X135446446Y-102502158D01*
X135448021Y-102500427D01*
X135450519Y-102498945D01*
X135450983Y-102498678D01*
X135520896Y-102428765D01*
X135570331Y-102343141D01*
X135595921Y-102247638D01*
X135595921Y-102148768D01*
X135570331Y-102053265D01*
X135520896Y-101967641D01*
X135508568Y-101955313D01*
X135475083Y-101893990D01*
X135480067Y-101824298D01*
X135488856Y-101805643D01*
X135523905Y-101744938D01*
X135549495Y-101649435D01*
X135549495Y-101627272D01*
X137756701Y-101627272D01*
X137756701Y-101726142D01*
X137782291Y-101821645D01*
X137831726Y-101907269D01*
X137901639Y-101977182D01*
X137987263Y-102026617D01*
X137988346Y-102026907D01*
X137989155Y-102027400D01*
X137994770Y-102029726D01*
X137994407Y-102030601D01*
X138048007Y-102063271D01*
X138078537Y-102126117D01*
X138070243Y-102195493D01*
X138025758Y-102249372D01*
X138018256Y-102254068D01*
X137979865Y-102276233D01*
X137909955Y-102346143D01*
X137860520Y-102431766D01*
X137860520Y-102431767D01*
X137860519Y-102431769D01*
X137834929Y-102527272D01*
X137834929Y-102626142D01*
X137860519Y-102721645D01*
X137909954Y-102807269D01*
X137909956Y-102807271D01*
X137911327Y-102809645D01*
X137927800Y-102877546D01*
X137906615Y-102938753D01*
X137907165Y-102939071D01*
X137905520Y-102941920D01*
X137904948Y-102943573D01*
X137903204Y-102945930D01*
X137853667Y-103031730D01*
X137853667Y-103031731D01*
X137853666Y-103031733D01*
X137828076Y-103127236D01*
X137828076Y-103226106D01*
X137853666Y-103321609D01*
X137853667Y-103321610D01*
X137853667Y-103321611D01*
X137861569Y-103335298D01*
X137903101Y-103407233D01*
X137973014Y-103477146D01*
X137982742Y-103482762D01*
X138030957Y-103533327D01*
X138044182Y-103601934D01*
X138040518Y-103622241D01*
X138019532Y-103700563D01*
X138019532Y-103700565D01*
X138019532Y-103799435D01*
X138045122Y-103894938D01*
X138094557Y-103980562D01*
X138164470Y-104050475D01*
X138250094Y-104099910D01*
X138345597Y-104125500D01*
X138439104Y-104125500D01*
X138444464Y-104125500D01*
X138444467Y-104125500D01*
X138539970Y-104099910D01*
X138625594Y-104050475D01*
X138695507Y-103980562D01*
X138744942Y-103894938D01*
X138770532Y-103799435D01*
X138770532Y-103700565D01*
X138750326Y-103625154D01*
X144074500Y-103625154D01*
X144074500Y-103724024D01*
X144100090Y-103819527D01*
X144149525Y-103905151D01*
X144219438Y-103975064D01*
X144305062Y-104024499D01*
X144400565Y-104050089D01*
X144400567Y-104050089D01*
X144499432Y-104050089D01*
X144499435Y-104050089D01*
X144594938Y-104024499D01*
X144680562Y-103975064D01*
X144750475Y-103905151D01*
X144799910Y-103819527D01*
X144825500Y-103724024D01*
X144825500Y-103625154D01*
X144799910Y-103529651D01*
X144750475Y-103444027D01*
X144680562Y-103374114D01*
X144594938Y-103324679D01*
X144499435Y-103299089D01*
X144400565Y-103299089D01*
X144305062Y-103324679D01*
X144305060Y-103324680D01*
X144305059Y-103324680D01*
X144219436Y-103374115D01*
X144149526Y-103444025D01*
X144100091Y-103529648D01*
X144100091Y-103529649D01*
X144100090Y-103529651D01*
X144074500Y-103625154D01*
X138750326Y-103625154D01*
X138744942Y-103605062D01*
X138695507Y-103519438D01*
X138625594Y-103449525D01*
X138615862Y-103443906D01*
X138602140Y-103429515D01*
X138585266Y-103418993D01*
X138578524Y-103404747D01*
X138567648Y-103393341D01*
X138563884Y-103373811D01*
X138555378Y-103355838D01*
X138556461Y-103335298D01*
X138554425Y-103324734D01*
X138554897Y-103320547D01*
X138555956Y-103312387D01*
X138579076Y-103226106D01*
X138579076Y-103150565D01*
X146524500Y-103150565D01*
X146524500Y-103249435D01*
X146550090Y-103344938D01*
X146550091Y-103344939D01*
X146550091Y-103344940D01*
X146553065Y-103350091D01*
X146599525Y-103430562D01*
X146669438Y-103500475D01*
X146755062Y-103549910D01*
X146850565Y-103575500D01*
X146850567Y-103575500D01*
X146949433Y-103575500D01*
X146949435Y-103575500D01*
X146961142Y-103572363D01*
X147030990Y-103574024D01*
X147088853Y-103613185D01*
X147116359Y-103677413D01*
X147104774Y-103746316D01*
X147100629Y-103754127D01*
X147100093Y-103755055D01*
X147100090Y-103755060D01*
X147100090Y-103755062D01*
X147074500Y-103850565D01*
X147074500Y-103949435D01*
X147100090Y-104044938D01*
X147100091Y-104044939D01*
X147100091Y-104044940D01*
X147103064Y-104050089D01*
X147149525Y-104130562D01*
X147219438Y-104200475D01*
X147305062Y-104249910D01*
X147400565Y-104275500D01*
X147400567Y-104275500D01*
X147499432Y-104275500D01*
X147499435Y-104275500D01*
X147592494Y-104250565D01*
X150774500Y-104250565D01*
X150774500Y-104349435D01*
X150800090Y-104444938D01*
X150849525Y-104530562D01*
X150919438Y-104600475D01*
X151005062Y-104649910D01*
X151100565Y-104675500D01*
X151100567Y-104675500D01*
X151199432Y-104675500D01*
X151199435Y-104675500D01*
X151294938Y-104649910D01*
X151380562Y-104600475D01*
X151450475Y-104530562D01*
X151496661Y-104450565D01*
X156974500Y-104450565D01*
X156974500Y-104549435D01*
X157000090Y-104644938D01*
X157000091Y-104644939D01*
X157000091Y-104644940D01*
X157013337Y-104667882D01*
X157049525Y-104730562D01*
X157119438Y-104800475D01*
X157205062Y-104849910D01*
X157300565Y-104875500D01*
X157300567Y-104875500D01*
X157399432Y-104875500D01*
X157399435Y-104875500D01*
X157494938Y-104849910D01*
X157580562Y-104800475D01*
X157650475Y-104730562D01*
X157699910Y-104644938D01*
X157725500Y-104549435D01*
X157725500Y-104450565D01*
X157699910Y-104355062D01*
X157650475Y-104269438D01*
X157580562Y-104199525D01*
X157494938Y-104150090D01*
X157399435Y-104124500D01*
X157300565Y-104124500D01*
X157205062Y-104150090D01*
X157205060Y-104150091D01*
X157205059Y-104150091D01*
X157119436Y-104199526D01*
X157049526Y-104269436D01*
X157000091Y-104355059D01*
X157000091Y-104355060D01*
X157000090Y-104355062D01*
X156974500Y-104450565D01*
X151496661Y-104450565D01*
X151499910Y-104444938D01*
X151525500Y-104349435D01*
X151525500Y-104250565D01*
X151499910Y-104155062D01*
X151450475Y-104069438D01*
X151380562Y-103999525D01*
X151294938Y-103950090D01*
X151199435Y-103924500D01*
X151100565Y-103924500D01*
X151005062Y-103950090D01*
X151005060Y-103950091D01*
X151005059Y-103950091D01*
X150919436Y-103999526D01*
X150849526Y-104069436D01*
X150800091Y-104155059D01*
X150800091Y-104155060D01*
X150800090Y-104155062D01*
X150774500Y-104250565D01*
X147592494Y-104250565D01*
X147594938Y-104249910D01*
X147680562Y-104200475D01*
X147750475Y-104130562D01*
X147799910Y-104044938D01*
X147825500Y-103949435D01*
X147825500Y-103850565D01*
X147799910Y-103755062D01*
X147750475Y-103669438D01*
X147731602Y-103650565D01*
X154924500Y-103650565D01*
X154924500Y-103749435D01*
X154950090Y-103844938D01*
X154950091Y-103844939D01*
X154950091Y-103844940D01*
X154952686Y-103849435D01*
X154999525Y-103930562D01*
X155069438Y-104000475D01*
X155155062Y-104049910D01*
X155250565Y-104075500D01*
X155250567Y-104075500D01*
X155349432Y-104075500D01*
X155349435Y-104075500D01*
X155444938Y-104049910D01*
X155530562Y-104000475D01*
X155600475Y-103930562D01*
X155649910Y-103844938D01*
X155675197Y-103750565D01*
X160524500Y-103750565D01*
X160524500Y-103849435D01*
X160550090Y-103944938D01*
X160550091Y-103944939D01*
X160550091Y-103944940D01*
X160553065Y-103950091D01*
X160599525Y-104030562D01*
X160669438Y-104100475D01*
X160755062Y-104149910D01*
X160850565Y-104175500D01*
X160850567Y-104175500D01*
X160949432Y-104175500D01*
X160949435Y-104175500D01*
X161044938Y-104149910D01*
X161130562Y-104100475D01*
X161200475Y-104030562D01*
X161249910Y-103944938D01*
X161275500Y-103849435D01*
X161275500Y-103750565D01*
X161249910Y-103655062D01*
X161200475Y-103569438D01*
X161130562Y-103499525D01*
X161044938Y-103450090D01*
X160949435Y-103424500D01*
X160850565Y-103424500D01*
X160755062Y-103450090D01*
X160755060Y-103450091D01*
X160755059Y-103450091D01*
X160669436Y-103499526D01*
X160599526Y-103569436D01*
X160550091Y-103655059D01*
X160550091Y-103655060D01*
X160550090Y-103655062D01*
X160524500Y-103750565D01*
X155675197Y-103750565D01*
X155675500Y-103749435D01*
X155675500Y-103650565D01*
X155649910Y-103555062D01*
X155600475Y-103469438D01*
X155530562Y-103399525D01*
X155444938Y-103350090D01*
X155349435Y-103324500D01*
X155250565Y-103324500D01*
X155155062Y-103350090D01*
X155155060Y-103350091D01*
X155155059Y-103350091D01*
X155069436Y-103399526D01*
X154999526Y-103469436D01*
X154950091Y-103555059D01*
X154950091Y-103555060D01*
X154950090Y-103555062D01*
X154924500Y-103650565D01*
X147731602Y-103650565D01*
X147680562Y-103599525D01*
X147594938Y-103550090D01*
X147499435Y-103524500D01*
X147400565Y-103524500D01*
X147400563Y-103524500D01*
X147388852Y-103527638D01*
X147319002Y-103525973D01*
X147261141Y-103486808D01*
X147233639Y-103422578D01*
X147245229Y-103353677D01*
X147249367Y-103345877D01*
X147249910Y-103344938D01*
X147275500Y-103249435D01*
X147275500Y-103150565D01*
X147249910Y-103055062D01*
X147200475Y-102969438D01*
X147130562Y-102899525D01*
X147044938Y-102850090D01*
X146949435Y-102824500D01*
X146850565Y-102824500D01*
X146755062Y-102850090D01*
X146755060Y-102850091D01*
X146755059Y-102850091D01*
X146669436Y-102899526D01*
X146599526Y-102969436D01*
X146550091Y-103055059D01*
X146550091Y-103055060D01*
X146550090Y-103055062D01*
X146524500Y-103150565D01*
X138579076Y-103150565D01*
X138579076Y-103127236D01*
X138553486Y-103031733D01*
X138504051Y-102946109D01*
X138504047Y-102946105D01*
X138502677Y-102943732D01*
X138486204Y-102875832D01*
X138507388Y-102814623D01*
X138506840Y-102814307D01*
X138508482Y-102811462D01*
X138509056Y-102809805D01*
X138510805Y-102807439D01*
X138510901Y-102807271D01*
X138510904Y-102807269D01*
X138560339Y-102721645D01*
X138585929Y-102626142D01*
X138585929Y-102576147D01*
X138605614Y-102509108D01*
X138658418Y-102463353D01*
X138677827Y-102456375D01*
X138715075Y-102446395D01*
X138800699Y-102396960D01*
X138870612Y-102327047D01*
X138920047Y-102241423D01*
X138945637Y-102145920D01*
X138945637Y-102103494D01*
X151674500Y-102103494D01*
X151674500Y-102202364D01*
X151700090Y-102297867D01*
X151749525Y-102383491D01*
X151819438Y-102453404D01*
X151905062Y-102502839D01*
X152000565Y-102528429D01*
X152000567Y-102528429D01*
X152099432Y-102528429D01*
X152099435Y-102528429D01*
X152194938Y-102502839D01*
X152199384Y-102500272D01*
X153708257Y-102500272D01*
X153708257Y-102599142D01*
X153733847Y-102694645D01*
X153733848Y-102694646D01*
X153733848Y-102694647D01*
X153740651Y-102706430D01*
X153783282Y-102780269D01*
X153853195Y-102850182D01*
X153938819Y-102899617D01*
X154034322Y-102925207D01*
X154034324Y-102925207D01*
X154133189Y-102925207D01*
X154133192Y-102925207D01*
X154228695Y-102899617D01*
X154314319Y-102850182D01*
X154384232Y-102780269D01*
X154433667Y-102694645D01*
X154458876Y-102600565D01*
X160024500Y-102600565D01*
X160024500Y-102699435D01*
X160050090Y-102794938D01*
X160099525Y-102880562D01*
X160169438Y-102950475D01*
X160255062Y-102999910D01*
X160350565Y-103025500D01*
X160350567Y-103025500D01*
X160449432Y-103025500D01*
X160449435Y-103025500D01*
X160544938Y-102999910D01*
X160630562Y-102950475D01*
X160700475Y-102880562D01*
X160749910Y-102794938D01*
X160775500Y-102699435D01*
X160775500Y-102607563D01*
X165407289Y-102607563D01*
X165407289Y-102706433D01*
X165432879Y-102801936D01*
X165432880Y-102801937D01*
X165432880Y-102801938D01*
X165435958Y-102807269D01*
X165482314Y-102887560D01*
X165552227Y-102957473D01*
X165637851Y-103006908D01*
X165733354Y-103032498D01*
X165733356Y-103032498D01*
X165832221Y-103032498D01*
X165832224Y-103032498D01*
X165927727Y-103006908D01*
X166013351Y-102957473D01*
X166083264Y-102887560D01*
X166132699Y-102801936D01*
X166158289Y-102706433D01*
X166158289Y-102607563D01*
X166132699Y-102512060D01*
X166083264Y-102426436D01*
X166013351Y-102356523D01*
X165927727Y-102307088D01*
X165832224Y-102281498D01*
X165733354Y-102281498D01*
X165637851Y-102307088D01*
X165637849Y-102307089D01*
X165637848Y-102307089D01*
X165552225Y-102356524D01*
X165482315Y-102426434D01*
X165432880Y-102512057D01*
X165432880Y-102512058D01*
X165432879Y-102512060D01*
X165407289Y-102607563D01*
X160775500Y-102607563D01*
X160775500Y-102600565D01*
X160749910Y-102505062D01*
X160700475Y-102419438D01*
X160699404Y-102418367D01*
X160698788Y-102417240D01*
X160695526Y-102412988D01*
X160696189Y-102412479D01*
X160665919Y-102357044D01*
X160670903Y-102287352D01*
X160699404Y-102243005D01*
X160705397Y-102237012D01*
X160711847Y-102230562D01*
X160761282Y-102144938D01*
X160786872Y-102049435D01*
X160786872Y-101950565D01*
X160761282Y-101855062D01*
X160711847Y-101769438D01*
X160641934Y-101699525D01*
X160556310Y-101650090D01*
X160460807Y-101624500D01*
X160361937Y-101624500D01*
X160266434Y-101650090D01*
X160266432Y-101650091D01*
X160266431Y-101650091D01*
X160180808Y-101699526D01*
X160110898Y-101769436D01*
X160061463Y-101855059D01*
X160061463Y-101855060D01*
X160061462Y-101855062D01*
X160035872Y-101950565D01*
X160035872Y-102049435D01*
X160061462Y-102144938D01*
X160108723Y-102226797D01*
X160110898Y-102230563D01*
X160111968Y-102231633D01*
X160112583Y-102232759D01*
X160115846Y-102237012D01*
X160115182Y-102237520D01*
X160145453Y-102292956D01*
X160140469Y-102362648D01*
X160111968Y-102406995D01*
X160099526Y-102419436D01*
X160050091Y-102505059D01*
X160050091Y-102505060D01*
X160050090Y-102505062D01*
X160024500Y-102600565D01*
X154458876Y-102600565D01*
X154459257Y-102599142D01*
X154459257Y-102500272D01*
X154433667Y-102404769D01*
X154384232Y-102319145D01*
X154314319Y-102249232D01*
X154228695Y-102199797D01*
X154133192Y-102174207D01*
X154034322Y-102174207D01*
X153938819Y-102199797D01*
X153938817Y-102199798D01*
X153938816Y-102199798D01*
X153853193Y-102249233D01*
X153783283Y-102319143D01*
X153733848Y-102404766D01*
X153733848Y-102404767D01*
X153733847Y-102404769D01*
X153708257Y-102500272D01*
X152199384Y-102500272D01*
X152280562Y-102453404D01*
X152350475Y-102383491D01*
X152399910Y-102297867D01*
X152425500Y-102202364D01*
X152425500Y-102103494D01*
X152399910Y-102007991D01*
X152350475Y-101922367D01*
X152280562Y-101852454D01*
X152194938Y-101803019D01*
X152099435Y-101777429D01*
X152000565Y-101777429D01*
X151905062Y-101803019D01*
X151905060Y-101803020D01*
X151905059Y-101803020D01*
X151819436Y-101852455D01*
X151749526Y-101922365D01*
X151700091Y-102007988D01*
X151700091Y-102007989D01*
X151700090Y-102007991D01*
X151674500Y-102103494D01*
X138945637Y-102103494D01*
X138945637Y-102047050D01*
X138920047Y-101951547D01*
X138870612Y-101865923D01*
X138800699Y-101796010D01*
X138715075Y-101746575D01*
X138619572Y-101720985D01*
X138619571Y-101720985D01*
X138619564Y-101720983D01*
X138611777Y-101719958D01*
X138547882Y-101691688D01*
X138509414Y-101633362D01*
X138508194Y-101629114D01*
X138507701Y-101627274D01*
X138507701Y-101627272D01*
X138482111Y-101531769D01*
X138432676Y-101446145D01*
X138362763Y-101376232D01*
X138277139Y-101326797D01*
X138181636Y-101301207D01*
X138082766Y-101301207D01*
X137987263Y-101326797D01*
X137987261Y-101326798D01*
X137987260Y-101326798D01*
X137901637Y-101376233D01*
X137831727Y-101446143D01*
X137782292Y-101531766D01*
X137782292Y-101531767D01*
X137782291Y-101531769D01*
X137756701Y-101627272D01*
X135549495Y-101627272D01*
X135549495Y-101550565D01*
X135523905Y-101455062D01*
X135474470Y-101369438D01*
X135404557Y-101299525D01*
X135319756Y-101250565D01*
X149024500Y-101250565D01*
X149024500Y-101349435D01*
X149050090Y-101444938D01*
X149099525Y-101530562D01*
X149169438Y-101600475D01*
X149255062Y-101649910D01*
X149350565Y-101675500D01*
X149350567Y-101675500D01*
X149449432Y-101675500D01*
X149449435Y-101675500D01*
X149544938Y-101649910D01*
X149630562Y-101600475D01*
X149700475Y-101530562D01*
X149718887Y-101498671D01*
X153924500Y-101498671D01*
X153924500Y-101597541D01*
X153950090Y-101693044D01*
X153999525Y-101778668D01*
X154069438Y-101848581D01*
X154155062Y-101898016D01*
X154250565Y-101923606D01*
X154250567Y-101923606D01*
X154349432Y-101923606D01*
X154349435Y-101923606D01*
X154444938Y-101898016D01*
X154530562Y-101848581D01*
X154600475Y-101778668D01*
X154649910Y-101693044D01*
X154674690Y-101600565D01*
X165124500Y-101600565D01*
X165124500Y-101699435D01*
X165150090Y-101794938D01*
X165150091Y-101794939D01*
X165150091Y-101794940D01*
X165154756Y-101803020D01*
X165199525Y-101880562D01*
X165269438Y-101950475D01*
X165355062Y-101999910D01*
X165450565Y-102025500D01*
X165450567Y-102025500D01*
X165549432Y-102025500D01*
X165549435Y-102025500D01*
X165644938Y-101999910D01*
X165730562Y-101950475D01*
X165800475Y-101880562D01*
X165849910Y-101794938D01*
X165875500Y-101699435D01*
X165875500Y-101600565D01*
X165849910Y-101505062D01*
X165800475Y-101419438D01*
X165730562Y-101349525D01*
X165644938Y-101300090D01*
X165549435Y-101274500D01*
X165450565Y-101274500D01*
X165355062Y-101300090D01*
X165355060Y-101300091D01*
X165355059Y-101300091D01*
X165269436Y-101349526D01*
X165199526Y-101419436D01*
X165150091Y-101505059D01*
X165150091Y-101505060D01*
X165150090Y-101505062D01*
X165124500Y-101600565D01*
X154674690Y-101600565D01*
X154675500Y-101597541D01*
X154675500Y-101498671D01*
X154649910Y-101403168D01*
X154604025Y-101323693D01*
X154587552Y-101255796D01*
X154610404Y-101189769D01*
X154614005Y-101185513D01*
X154613852Y-101185395D01*
X154618798Y-101178948D01*
X154618801Y-101178945D01*
X154668236Y-101093321D01*
X154693826Y-100997818D01*
X154693826Y-100898948D01*
X154668236Y-100803445D01*
X154630004Y-100737226D01*
X154613531Y-100669328D01*
X154636383Y-100603301D01*
X154649702Y-100587554D01*
X154656754Y-100580503D01*
X154706189Y-100494879D01*
X154731779Y-100399376D01*
X154731779Y-100300506D01*
X154706189Y-100205003D01*
X154656754Y-100119379D01*
X154586841Y-100049466D01*
X154501217Y-100000031D01*
X154405714Y-99974441D01*
X154306844Y-99974441D01*
X154211341Y-100000031D01*
X154211339Y-100000032D01*
X154211338Y-100000032D01*
X154125715Y-100049467D01*
X154055805Y-100119377D01*
X154006370Y-100205000D01*
X154006370Y-100205001D01*
X154006369Y-100205003D01*
X153980779Y-100300506D01*
X153980779Y-100399376D01*
X154006369Y-100494879D01*
X154044600Y-100561098D01*
X154061073Y-100628995D01*
X154038221Y-100695022D01*
X154024898Y-100710774D01*
X154017851Y-100717820D01*
X153968417Y-100803442D01*
X153968417Y-100803443D01*
X153968416Y-100803445D01*
X153942826Y-100898948D01*
X153942826Y-100997818D01*
X153968416Y-101093321D01*
X154014301Y-101172796D01*
X154030773Y-101240692D01*
X154007921Y-101306719D01*
X154004321Y-101310977D01*
X154004474Y-101311094D01*
X153999527Y-101317540D01*
X153950091Y-101403165D01*
X153950091Y-101403166D01*
X153950090Y-101403168D01*
X153924500Y-101498671D01*
X149718887Y-101498671D01*
X149749910Y-101444938D01*
X149775500Y-101349435D01*
X149775500Y-101250565D01*
X149749910Y-101155062D01*
X149700475Y-101069438D01*
X149630562Y-100999525D01*
X149544938Y-100950090D01*
X149449435Y-100924500D01*
X149350565Y-100924500D01*
X149255062Y-100950090D01*
X149255060Y-100950091D01*
X149255059Y-100950091D01*
X149169436Y-100999526D01*
X149099526Y-101069436D01*
X149050091Y-101155059D01*
X149050091Y-101155060D01*
X149050090Y-101155062D01*
X149024500Y-101250565D01*
X135319756Y-101250565D01*
X135318933Y-101250090D01*
X135223430Y-101224500D01*
X135124560Y-101224500D01*
X135029057Y-101250090D01*
X135029055Y-101250091D01*
X135029054Y-101250091D01*
X134943431Y-101299526D01*
X134873521Y-101369436D01*
X134824086Y-101455059D01*
X134824086Y-101455060D01*
X134824085Y-101455062D01*
X134798495Y-101550565D01*
X134798495Y-101649435D01*
X134824085Y-101744938D01*
X134869903Y-101824298D01*
X134873521Y-101830563D01*
X134885846Y-101842888D01*
X134895524Y-101860613D01*
X134909239Y-101875445D01*
X134911929Y-101890655D01*
X134919331Y-101904211D01*
X134917890Y-101924357D01*
X134921408Y-101944247D01*
X134915091Y-101963498D01*
X134914347Y-101973903D01*
X134912562Y-101978415D01*
X134909503Y-101985728D01*
X134870511Y-102053265D01*
X134851353Y-102124763D01*
X134848134Y-102132460D01*
X134831165Y-102153369D01*
X134817147Y-102176368D01*
X134809478Y-102180093D01*
X134804107Y-102186712D01*
X134778527Y-102195128D01*
X134754300Y-102206897D01*
X134738832Y-102208188D01*
X134737737Y-102208549D01*
X134736951Y-102208345D01*
X134733737Y-102208614D01*
X134711556Y-102208614D01*
X134616053Y-102234204D01*
X134616051Y-102234205D01*
X134616050Y-102234205D01*
X134530427Y-102283640D01*
X134460517Y-102353550D01*
X134411082Y-102439173D01*
X134411082Y-102439174D01*
X134411081Y-102439176D01*
X134385491Y-102534679D01*
X132400500Y-102534679D01*
X132400500Y-100136771D01*
X134914540Y-100136771D01*
X134914540Y-100235641D01*
X134940130Y-100331144D01*
X134989565Y-100416768D01*
X135059478Y-100486681D01*
X135145102Y-100536116D01*
X135240605Y-100561706D01*
X135240607Y-100561706D01*
X135339472Y-100561706D01*
X135339475Y-100561706D01*
X135434978Y-100536116D01*
X135520602Y-100486681D01*
X135590515Y-100416768D01*
X135639950Y-100331144D01*
X135665540Y-100235641D01*
X135665540Y-100136771D01*
X135639950Y-100041268D01*
X135627908Y-100020411D01*
X141953162Y-100020411D01*
X141953162Y-100119281D01*
X141978752Y-100214784D01*
X142028187Y-100300408D01*
X142098100Y-100370321D01*
X142183724Y-100419756D01*
X142279227Y-100445346D01*
X142279229Y-100445346D01*
X142378094Y-100445346D01*
X142378097Y-100445346D01*
X142473600Y-100419756D01*
X142559224Y-100370321D01*
X142629137Y-100300408D01*
X142678572Y-100214784D01*
X142704162Y-100119281D01*
X142704162Y-100020411D01*
X142678572Y-99924908D01*
X142629137Y-99839284D01*
X142559224Y-99769371D01*
X142473600Y-99719936D01*
X142378097Y-99694346D01*
X142279227Y-99694346D01*
X142183724Y-99719936D01*
X142183722Y-99719937D01*
X142183721Y-99719937D01*
X142098098Y-99769372D01*
X142028188Y-99839282D01*
X141978753Y-99924905D01*
X141978753Y-99924906D01*
X141978752Y-99924908D01*
X141953162Y-100020411D01*
X135627908Y-100020411D01*
X135590515Y-99955644D01*
X135520602Y-99885731D01*
X135434978Y-99836296D01*
X135339475Y-99810706D01*
X135240605Y-99810706D01*
X135145102Y-99836296D01*
X135145100Y-99836297D01*
X135145099Y-99836297D01*
X135059476Y-99885732D01*
X134989566Y-99955642D01*
X134940131Y-100041265D01*
X134940131Y-100041266D01*
X134940130Y-100041268D01*
X134914540Y-100136771D01*
X132400500Y-100136771D01*
X132400500Y-99525565D01*
X139402246Y-99525565D01*
X139402246Y-99624435D01*
X139427836Y-99719938D01*
X139477271Y-99805562D01*
X139547184Y-99875475D01*
X139632808Y-99924910D01*
X139728311Y-99950500D01*
X139728313Y-99950500D01*
X139827178Y-99950500D01*
X139827181Y-99950500D01*
X139922684Y-99924910D01*
X140008308Y-99875475D01*
X140078221Y-99805562D01*
X140127656Y-99719938D01*
X140153246Y-99624435D01*
X140153246Y-99525565D01*
X140127656Y-99430062D01*
X140078221Y-99344438D01*
X140008308Y-99274525D01*
X139922684Y-99225090D01*
X139827181Y-99199500D01*
X139728311Y-99199500D01*
X139632808Y-99225090D01*
X139632806Y-99225091D01*
X139632805Y-99225091D01*
X139547182Y-99274526D01*
X139477272Y-99344436D01*
X139427837Y-99430059D01*
X139427837Y-99430060D01*
X139427836Y-99430062D01*
X139402246Y-99525565D01*
X132400500Y-99525565D01*
X132400500Y-99050565D01*
X152024500Y-99050565D01*
X152024500Y-99149435D01*
X152050090Y-99244938D01*
X152099525Y-99330562D01*
X152169438Y-99400475D01*
X152255062Y-99449910D01*
X152350565Y-99475500D01*
X152350567Y-99475500D01*
X152449432Y-99475500D01*
X152449435Y-99475500D01*
X152544938Y-99449910D01*
X152630562Y-99400475D01*
X152700475Y-99330562D01*
X152749910Y-99244938D01*
X152773544Y-99156734D01*
X154393107Y-99156734D01*
X154393107Y-99255604D01*
X154418697Y-99351107D01*
X154468132Y-99436731D01*
X154538045Y-99506644D01*
X154623669Y-99556079D01*
X154719172Y-99581669D01*
X154719174Y-99581669D01*
X154818039Y-99581669D01*
X154818042Y-99581669D01*
X154913545Y-99556079D01*
X154999169Y-99506644D01*
X155055900Y-99449912D01*
X155117219Y-99416430D01*
X155186911Y-99421414D01*
X155205573Y-99430207D01*
X155210981Y-99433329D01*
X155306484Y-99458919D01*
X155306486Y-99458919D01*
X155405351Y-99458919D01*
X155405354Y-99458919D01*
X155500857Y-99433329D01*
X155586481Y-99383894D01*
X155656394Y-99313981D01*
X155705829Y-99228357D01*
X155731419Y-99132854D01*
X155731419Y-99033984D01*
X155705829Y-98938481D01*
X155656394Y-98852857D01*
X155586481Y-98782944D01*
X155500857Y-98733509D01*
X155405354Y-98707919D01*
X155306484Y-98707919D01*
X155210981Y-98733509D01*
X155210979Y-98733510D01*
X155210978Y-98733510D01*
X155125357Y-98782944D01*
X155068628Y-98839673D01*
X155007304Y-98873157D01*
X154937613Y-98868172D01*
X154918946Y-98859377D01*
X154913549Y-98856261D01*
X154913547Y-98856260D01*
X154913545Y-98856259D01*
X154818042Y-98830669D01*
X154719172Y-98830669D01*
X154623669Y-98856259D01*
X154623667Y-98856260D01*
X154623666Y-98856260D01*
X154538043Y-98905695D01*
X154468133Y-98975605D01*
X154418698Y-99061228D01*
X154418698Y-99061229D01*
X154418697Y-99061231D01*
X154393107Y-99156734D01*
X152773544Y-99156734D01*
X152775500Y-99149435D01*
X152775500Y-99050565D01*
X152749910Y-98955062D01*
X152700475Y-98869438D01*
X152630562Y-98799525D01*
X152544938Y-98750090D01*
X152449435Y-98724500D01*
X152350565Y-98724500D01*
X152255062Y-98750090D01*
X152255060Y-98750091D01*
X152255059Y-98750091D01*
X152169436Y-98799526D01*
X152099526Y-98869436D01*
X152050091Y-98955059D01*
X152050091Y-98955060D01*
X152050090Y-98955062D01*
X152024500Y-99050565D01*
X132400500Y-99050565D01*
X132400500Y-97250565D01*
X133724500Y-97250565D01*
X133724500Y-97349435D01*
X133750090Y-97444938D01*
X133750091Y-97444939D01*
X133750091Y-97444940D01*
X133752686Y-97449435D01*
X133799525Y-97530562D01*
X133869438Y-97600475D01*
X133955062Y-97649910D01*
X134050565Y-97675500D01*
X134050567Y-97675500D01*
X134149432Y-97675500D01*
X134149435Y-97675500D01*
X134244938Y-97649910D01*
X134297681Y-97619459D01*
X138812785Y-97619459D01*
X138812785Y-97718329D01*
X138838375Y-97813832D01*
X138838376Y-97813833D01*
X138838376Y-97813834D01*
X138842482Y-97820945D01*
X138887810Y-97899456D01*
X138957723Y-97969369D01*
X139043347Y-98018804D01*
X139138850Y-98044394D01*
X139138852Y-98044394D01*
X139237717Y-98044394D01*
X139237720Y-98044394D01*
X139250887Y-98040866D01*
X156576196Y-98040866D01*
X156576196Y-98139736D01*
X156601786Y-98235239D01*
X156651221Y-98320863D01*
X156721134Y-98390776D01*
X156806758Y-98440211D01*
X156902261Y-98465801D01*
X156902264Y-98465801D01*
X156910112Y-98467904D01*
X156909379Y-98470636D01*
X156960724Y-98493341D01*
X156999204Y-98551659D01*
X157000713Y-98558588D01*
X157000780Y-98558571D01*
X157002883Y-98566419D01*
X157002883Y-98566422D01*
X157028473Y-98661925D01*
X157077908Y-98747549D01*
X157147821Y-98817462D01*
X157233445Y-98866897D01*
X157328948Y-98892487D01*
X157328950Y-98892487D01*
X157427815Y-98892487D01*
X157427818Y-98892487D01*
X157523321Y-98866897D01*
X157608945Y-98817462D01*
X157678858Y-98747549D01*
X157728293Y-98661925D01*
X157753883Y-98566422D01*
X157753883Y-98467552D01*
X157728293Y-98372049D01*
X157678858Y-98286425D01*
X157608945Y-98216512D01*
X157523321Y-98167077D01*
X157427818Y-98141487D01*
X157427815Y-98141487D01*
X157419967Y-98139384D01*
X157420697Y-98136657D01*
X157369324Y-98113921D01*
X157330862Y-98055590D01*
X157329364Y-98048699D01*
X157329299Y-98048717D01*
X157327196Y-98040868D01*
X157327196Y-98040866D01*
X157301606Y-97945363D01*
X157252171Y-97859739D01*
X157182258Y-97789826D01*
X157096634Y-97740391D01*
X157001131Y-97714801D01*
X156902261Y-97714801D01*
X156806758Y-97740391D01*
X156806756Y-97740392D01*
X156806755Y-97740392D01*
X156721132Y-97789827D01*
X156651222Y-97859737D01*
X156601787Y-97945360D01*
X156601787Y-97945361D01*
X156601786Y-97945363D01*
X156576196Y-98040866D01*
X139250887Y-98040866D01*
X139333223Y-98018804D01*
X139418847Y-97969369D01*
X139488760Y-97899456D01*
X139538195Y-97813832D01*
X139563785Y-97718329D01*
X139563785Y-97619459D01*
X139538195Y-97523956D01*
X139488760Y-97438332D01*
X139418847Y-97368419D01*
X139333223Y-97318984D01*
X139237720Y-97293394D01*
X139138850Y-97293394D01*
X139043347Y-97318984D01*
X139043345Y-97318985D01*
X139043344Y-97318985D01*
X138957721Y-97368420D01*
X138887811Y-97438330D01*
X138838376Y-97523953D01*
X138838376Y-97523954D01*
X138838375Y-97523956D01*
X138812785Y-97619459D01*
X134297681Y-97619459D01*
X134330562Y-97600475D01*
X134400475Y-97530562D01*
X134449910Y-97444938D01*
X134475500Y-97349435D01*
X134475500Y-97250565D01*
X134449910Y-97155062D01*
X134447314Y-97150565D01*
X144974500Y-97150565D01*
X144974500Y-97249435D01*
X145000090Y-97344938D01*
X145000091Y-97344939D01*
X145000091Y-97344940D01*
X145002686Y-97349435D01*
X145049525Y-97430562D01*
X145119438Y-97500475D01*
X145205062Y-97549910D01*
X145300565Y-97575500D01*
X145300567Y-97575500D01*
X145399432Y-97575500D01*
X145399435Y-97575500D01*
X145494938Y-97549910D01*
X145580562Y-97500475D01*
X145610002Y-97471035D01*
X147774500Y-97471035D01*
X147774500Y-97569905D01*
X147800090Y-97665408D01*
X147800091Y-97665409D01*
X147800091Y-97665410D01*
X147813337Y-97688352D01*
X147849525Y-97751032D01*
X147919438Y-97820945D01*
X148005062Y-97870380D01*
X148100565Y-97895970D01*
X148100567Y-97895970D01*
X148199432Y-97895970D01*
X148199435Y-97895970D01*
X148294938Y-97870380D01*
X148380562Y-97820945D01*
X148450475Y-97751032D01*
X148499910Y-97665408D01*
X148525500Y-97569905D01*
X148525500Y-97471035D01*
X148520015Y-97450565D01*
X148924500Y-97450565D01*
X148924500Y-97549435D01*
X148950090Y-97644938D01*
X148950091Y-97644939D01*
X148950091Y-97644940D01*
X148963270Y-97667766D01*
X148999525Y-97730562D01*
X149069438Y-97800475D01*
X149155062Y-97849910D01*
X149250565Y-97875500D01*
X149250567Y-97875500D01*
X149349432Y-97875500D01*
X149349435Y-97875500D01*
X149444938Y-97849910D01*
X149530562Y-97800475D01*
X149600475Y-97730562D01*
X149649910Y-97644938D01*
X149675500Y-97549435D01*
X149675500Y-97450565D01*
X149649910Y-97355062D01*
X149647314Y-97350565D01*
X150124500Y-97350565D01*
X150124500Y-97449435D01*
X150150090Y-97544938D01*
X150150091Y-97544939D01*
X150150091Y-97544940D01*
X150163337Y-97567882D01*
X150199525Y-97630562D01*
X150269438Y-97700475D01*
X150355062Y-97749910D01*
X150450565Y-97775500D01*
X150450567Y-97775500D01*
X150549432Y-97775500D01*
X150549435Y-97775500D01*
X150644938Y-97749910D01*
X150672807Y-97733819D01*
X150740705Y-97717346D01*
X150806732Y-97740197D01*
X150822488Y-97753525D01*
X150869438Y-97800475D01*
X150955062Y-97849910D01*
X151050565Y-97875500D01*
X151050567Y-97875500D01*
X151149432Y-97875500D01*
X151149435Y-97875500D01*
X151244938Y-97849910D01*
X151330562Y-97800475D01*
X151400475Y-97730562D01*
X151449910Y-97644938D01*
X151475500Y-97549435D01*
X151475500Y-97450565D01*
X151449910Y-97355062D01*
X151400475Y-97269438D01*
X151351874Y-97220837D01*
X151318389Y-97159514D01*
X151323373Y-97089822D01*
X151365245Y-97033889D01*
X151430709Y-97009472D01*
X151439555Y-97009156D01*
X151449432Y-97009156D01*
X151449435Y-97009156D01*
X151544938Y-96983566D01*
X151630562Y-96934131D01*
X151659912Y-96904780D01*
X151721232Y-96871296D01*
X151790924Y-96876280D01*
X151846858Y-96918150D01*
X151853241Y-96927828D01*
X151854112Y-96928963D01*
X151854113Y-96928964D01*
X151924026Y-96998877D01*
X152009650Y-97048312D01*
X152105153Y-97073902D01*
X152105155Y-97073902D01*
X152204020Y-97073902D01*
X152204023Y-97073902D01*
X152299526Y-97048312D01*
X152329752Y-97030860D01*
X152397647Y-97014388D01*
X152463675Y-97037239D01*
X152506867Y-97092159D01*
X152513510Y-97161712D01*
X152481495Y-97223816D01*
X152479432Y-97225928D01*
X152442725Y-97262635D01*
X152393290Y-97348258D01*
X152393290Y-97348259D01*
X152393289Y-97348261D01*
X152367699Y-97443764D01*
X152367699Y-97542634D01*
X152393289Y-97638137D01*
X152393290Y-97638138D01*
X152393290Y-97638139D01*
X152397216Y-97644939D01*
X152442724Y-97723761D01*
X152512637Y-97793674D01*
X152598261Y-97843109D01*
X152693764Y-97868699D01*
X152693766Y-97868699D01*
X152792631Y-97868699D01*
X152792634Y-97868699D01*
X152888137Y-97843109D01*
X152973761Y-97793674D01*
X153043674Y-97723761D01*
X153093109Y-97638137D01*
X153118699Y-97542634D01*
X153118699Y-97443764D01*
X153107881Y-97403391D01*
X153109542Y-97333545D01*
X153148704Y-97275682D01*
X153168633Y-97262246D01*
X153181461Y-97255302D01*
X153199248Y-97250537D01*
X153284872Y-97201102D01*
X153288723Y-97197250D01*
X153301331Y-97190427D01*
X153326253Y-97185102D01*
X153350022Y-97175911D01*
X153359849Y-97177925D01*
X153369659Y-97175830D01*
X153393501Y-97184823D01*
X153418469Y-97189942D01*
X153422354Y-97192093D01*
X153423690Y-97192864D01*
X153423694Y-97192868D01*
X153509318Y-97242303D01*
X153604821Y-97267893D01*
X153604823Y-97267893D01*
X153703688Y-97267893D01*
X153703691Y-97267893D01*
X153799194Y-97242303D01*
X153884818Y-97192868D01*
X153954731Y-97122955D01*
X154004166Y-97037331D01*
X154029756Y-96941828D01*
X154029756Y-96842958D01*
X154004166Y-96747455D01*
X153954731Y-96661831D01*
X153884818Y-96591918D01*
X153838366Y-96565099D01*
X154312907Y-96565099D01*
X154312907Y-96663969D01*
X154338497Y-96759472D01*
X154387932Y-96845096D01*
X154457845Y-96915009D01*
X154543469Y-96964444D01*
X154638972Y-96990034D01*
X154638974Y-96990034D01*
X154737839Y-96990034D01*
X154737842Y-96990034D01*
X154833345Y-96964444D01*
X154918969Y-96915009D01*
X154988882Y-96845096D01*
X155038317Y-96759472D01*
X155063907Y-96663969D01*
X155063907Y-96565099D01*
X155045341Y-96495809D01*
X155908971Y-96495809D01*
X155908971Y-96594679D01*
X155934561Y-96690182D01*
X155983996Y-96775806D01*
X156053909Y-96845719D01*
X156139533Y-96895154D01*
X156235036Y-96920744D01*
X156235038Y-96920744D01*
X156333903Y-96920744D01*
X156333906Y-96920744D01*
X156429409Y-96895154D01*
X156515033Y-96845719D01*
X156584946Y-96775806D01*
X156634381Y-96690182D01*
X156659971Y-96594679D01*
X156659971Y-96495809D01*
X156647848Y-96450565D01*
X157424500Y-96450565D01*
X157424500Y-96549435D01*
X157450090Y-96644938D01*
X157499525Y-96730562D01*
X157569438Y-96800475D01*
X157655062Y-96849910D01*
X157750565Y-96875500D01*
X157750567Y-96875500D01*
X157849432Y-96875500D01*
X157849435Y-96875500D01*
X157944938Y-96849910D01*
X158030562Y-96800475D01*
X158100475Y-96730562D01*
X158149910Y-96644938D01*
X158175500Y-96549435D01*
X158175500Y-96450565D01*
X158149910Y-96355062D01*
X158100475Y-96269438D01*
X158030562Y-96199525D01*
X157944938Y-96150090D01*
X157849435Y-96124500D01*
X157750565Y-96124500D01*
X157655062Y-96150090D01*
X157655060Y-96150091D01*
X157655059Y-96150091D01*
X157569436Y-96199526D01*
X157499526Y-96269436D01*
X157450091Y-96355059D01*
X157450091Y-96355060D01*
X157450090Y-96355062D01*
X157424500Y-96450565D01*
X156647848Y-96450565D01*
X156634381Y-96400306D01*
X156584946Y-96314682D01*
X156515033Y-96244769D01*
X156429409Y-96195334D01*
X156333906Y-96169744D01*
X156235036Y-96169744D01*
X156139533Y-96195334D01*
X156139531Y-96195335D01*
X156139530Y-96195335D01*
X156053907Y-96244770D01*
X155983997Y-96314680D01*
X155934562Y-96400303D01*
X155934562Y-96400304D01*
X155934561Y-96400306D01*
X155908971Y-96495809D01*
X155045341Y-96495809D01*
X155038317Y-96469596D01*
X154988882Y-96383972D01*
X154918969Y-96314059D01*
X154833345Y-96264624D01*
X154737842Y-96239034D01*
X154638972Y-96239034D01*
X154543469Y-96264624D01*
X154543467Y-96264625D01*
X154543466Y-96264625D01*
X154457843Y-96314060D01*
X154387933Y-96383970D01*
X154338498Y-96469593D01*
X154338498Y-96469594D01*
X154338497Y-96469596D01*
X154312907Y-96565099D01*
X153838366Y-96565099D01*
X153799194Y-96542483D01*
X153703691Y-96516893D01*
X153604821Y-96516893D01*
X153509318Y-96542483D01*
X153509316Y-96542484D01*
X153509315Y-96542484D01*
X153490298Y-96553464D01*
X153423694Y-96591918D01*
X153423692Y-96591919D01*
X153416656Y-96595982D01*
X153416022Y-96594884D01*
X153358521Y-96617110D01*
X153290077Y-96603067D01*
X153286212Y-96600926D01*
X153284872Y-96600152D01*
X153199248Y-96550717D01*
X153103745Y-96525127D01*
X153004875Y-96525127D01*
X152909372Y-96550717D01*
X152909370Y-96550718D01*
X152909369Y-96550718D01*
X152823746Y-96600153D01*
X152753834Y-96670065D01*
X152748889Y-96676511D01*
X152747559Y-96675491D01*
X152703980Y-96717038D01*
X152635372Y-96730256D01*
X152570509Y-96704283D01*
X152529985Y-96647366D01*
X152527393Y-96638911D01*
X152504498Y-96553464D01*
X152455063Y-96467840D01*
X152385150Y-96397927D01*
X152299526Y-96348492D01*
X152204023Y-96322902D01*
X152105153Y-96322902D01*
X152009650Y-96348492D01*
X152009648Y-96348493D01*
X152009647Y-96348493D01*
X151924024Y-96397928D01*
X151894675Y-96427277D01*
X151833351Y-96460762D01*
X151763660Y-96455776D01*
X151707727Y-96413904D01*
X151701349Y-96404233D01*
X151700475Y-96403094D01*
X151630563Y-96333182D01*
X151630562Y-96333181D01*
X151544938Y-96283746D01*
X151449435Y-96258156D01*
X151350565Y-96258156D01*
X151255062Y-96283746D01*
X151255060Y-96283747D01*
X151255059Y-96283747D01*
X151169436Y-96333182D01*
X151099526Y-96403092D01*
X151050091Y-96488715D01*
X151050091Y-96488716D01*
X151050090Y-96488718D01*
X151024500Y-96584221D01*
X151024500Y-96683091D01*
X151050090Y-96778594D01*
X151092004Y-96851192D01*
X151099526Y-96864219D01*
X151148126Y-96912819D01*
X151181611Y-96974142D01*
X151176627Y-97043834D01*
X151134755Y-97099767D01*
X151095918Y-97119318D01*
X151078561Y-97124500D01*
X151050565Y-97124500D01*
X150955062Y-97150090D01*
X150914600Y-97173450D01*
X150900665Y-97177611D01*
X150879679Y-97177705D01*
X150859290Y-97182652D01*
X150845447Y-97177860D01*
X150830796Y-97177927D01*
X150813092Y-97166662D01*
X150793263Y-97159799D01*
X150777511Y-97146474D01*
X150730563Y-97099526D01*
X150730562Y-97099525D01*
X150644938Y-97050090D01*
X150549435Y-97024500D01*
X150450565Y-97024500D01*
X150355062Y-97050090D01*
X150355060Y-97050091D01*
X150355059Y-97050091D01*
X150269436Y-97099526D01*
X150199526Y-97169436D01*
X150150091Y-97255059D01*
X150150091Y-97255060D01*
X150150090Y-97255062D01*
X150124500Y-97350565D01*
X149647314Y-97350565D01*
X149600475Y-97269438D01*
X149530562Y-97199525D01*
X149444938Y-97150090D01*
X149349435Y-97124500D01*
X149250565Y-97124500D01*
X149155062Y-97150090D01*
X149155060Y-97150091D01*
X149155059Y-97150091D01*
X149069436Y-97199526D01*
X148999526Y-97269436D01*
X148950091Y-97355059D01*
X148950091Y-97355060D01*
X148950090Y-97355062D01*
X148924500Y-97450565D01*
X148520015Y-97450565D01*
X148499910Y-97375532D01*
X148450475Y-97289908D01*
X148380562Y-97219995D01*
X148294938Y-97170560D01*
X148199435Y-97144970D01*
X148100565Y-97144970D01*
X148005062Y-97170560D01*
X148005060Y-97170561D01*
X148005059Y-97170561D01*
X147919436Y-97219996D01*
X147849526Y-97289906D01*
X147800091Y-97375529D01*
X147800091Y-97375530D01*
X147800090Y-97375532D01*
X147774500Y-97471035D01*
X145610002Y-97471035D01*
X145650475Y-97430562D01*
X145699910Y-97344938D01*
X145725500Y-97249435D01*
X145725500Y-97150565D01*
X145699910Y-97055062D01*
X145650475Y-96969438D01*
X145580562Y-96899525D01*
X145494938Y-96850090D01*
X145399435Y-96824500D01*
X145300565Y-96824500D01*
X145205062Y-96850090D01*
X145205060Y-96850091D01*
X145205059Y-96850091D01*
X145119436Y-96899526D01*
X145049526Y-96969436D01*
X145000091Y-97055059D01*
X145000091Y-97055060D01*
X145000090Y-97055062D01*
X144974500Y-97150565D01*
X134447314Y-97150565D01*
X134400475Y-97069438D01*
X134330562Y-96999525D01*
X134244938Y-96950090D01*
X134149435Y-96924500D01*
X134050565Y-96924500D01*
X133955062Y-96950090D01*
X133955060Y-96950091D01*
X133955059Y-96950091D01*
X133869436Y-96999526D01*
X133799526Y-97069436D01*
X133750091Y-97155059D01*
X133750091Y-97155060D01*
X133750090Y-97155062D01*
X133724500Y-97250565D01*
X132400500Y-97250565D01*
X132400500Y-95224500D01*
X132420185Y-95157461D01*
X132472989Y-95111706D01*
X132524500Y-95100500D01*
X136378807Y-95100500D01*
X136414325Y-95102035D01*
X136418537Y-95100500D01*
X136423020Y-95100500D01*
X136455863Y-95086895D01*
X136489266Y-95074722D01*
X136492567Y-95071693D01*
X136496704Y-95069980D01*
X136496706Y-95069978D01*
X136496712Y-95069976D01*
X136521850Y-95044837D01*
X136548051Y-95020808D01*
X136549943Y-95016744D01*
X136553114Y-95013574D01*
X136564568Y-94985918D01*
X136567949Y-94978464D01*
X136581739Y-94950565D01*
X140224500Y-94950565D01*
X140224500Y-95049435D01*
X140250090Y-95144938D01*
X140250091Y-95144939D01*
X140250091Y-95144940D01*
X140252686Y-95149435D01*
X140299525Y-95230562D01*
X140369438Y-95300475D01*
X140455062Y-95349910D01*
X140550565Y-95375500D01*
X140550567Y-95375500D01*
X140649432Y-95375500D01*
X140649435Y-95375500D01*
X140742494Y-95350565D01*
X149924500Y-95350565D01*
X149924500Y-95449435D01*
X149950090Y-95544938D01*
X149999525Y-95630562D01*
X150069438Y-95700475D01*
X150155062Y-95749910D01*
X150250565Y-95775500D01*
X150250567Y-95775500D01*
X150349432Y-95775500D01*
X150349435Y-95775500D01*
X150444938Y-95749910D01*
X150530562Y-95700475D01*
X150600475Y-95630562D01*
X150649910Y-95544938D01*
X150675500Y-95449435D01*
X150675500Y-95395285D01*
X153524500Y-95395285D01*
X153524500Y-95494155D01*
X153550090Y-95589658D01*
X153599525Y-95675282D01*
X153669438Y-95745195D01*
X153755062Y-95794630D01*
X153850565Y-95820220D01*
X153850567Y-95820220D01*
X153949432Y-95820220D01*
X153949435Y-95820220D01*
X154044938Y-95794630D01*
X154130562Y-95745195D01*
X154200475Y-95675282D01*
X154249910Y-95589658D01*
X154275500Y-95494155D01*
X154275500Y-95403898D01*
X154295185Y-95336859D01*
X154347989Y-95291104D01*
X154417147Y-95281160D01*
X154480703Y-95310185D01*
X154497878Y-95328415D01*
X154499524Y-95330560D01*
X154499525Y-95330562D01*
X154569438Y-95400475D01*
X154655062Y-95449910D01*
X154750565Y-95475500D01*
X154750567Y-95475500D01*
X154849432Y-95475500D01*
X154849435Y-95475500D01*
X154944938Y-95449910D01*
X155030562Y-95400475D01*
X155100475Y-95330562D01*
X155149910Y-95244938D01*
X155175500Y-95149435D01*
X155175500Y-95050565D01*
X161124500Y-95050565D01*
X161124500Y-95149435D01*
X161150090Y-95244938D01*
X161199525Y-95330562D01*
X161269438Y-95400475D01*
X161355062Y-95449910D01*
X161450565Y-95475500D01*
X161450567Y-95475500D01*
X161549432Y-95475500D01*
X161549435Y-95475500D01*
X161644938Y-95449910D01*
X161730562Y-95400475D01*
X161800475Y-95330562D01*
X161849910Y-95244938D01*
X161875500Y-95149435D01*
X161875500Y-95050565D01*
X161849910Y-94955062D01*
X161800475Y-94869438D01*
X161730562Y-94799525D01*
X161644938Y-94750090D01*
X161549435Y-94724500D01*
X161450565Y-94724500D01*
X161355062Y-94750090D01*
X161355060Y-94750091D01*
X161355059Y-94750091D01*
X161269436Y-94799526D01*
X161199526Y-94869436D01*
X161150091Y-94955059D01*
X161150091Y-94955060D01*
X161150090Y-94955062D01*
X161124500Y-95050565D01*
X155175500Y-95050565D01*
X155149910Y-94955062D01*
X155100475Y-94869438D01*
X155030562Y-94799525D01*
X154944938Y-94750090D01*
X154849435Y-94724500D01*
X154750565Y-94724500D01*
X154655062Y-94750090D01*
X154655060Y-94750091D01*
X154655059Y-94750091D01*
X154569436Y-94799526D01*
X154499526Y-94869436D01*
X154450091Y-94955059D01*
X154450091Y-94955060D01*
X154450090Y-94955062D01*
X154424500Y-95050565D01*
X154424500Y-95050567D01*
X154424500Y-95140821D01*
X154404815Y-95207860D01*
X154352011Y-95253615D01*
X154282853Y-95263559D01*
X154219297Y-95234534D01*
X154202126Y-95216310D01*
X154200473Y-95214156D01*
X154130563Y-95144246D01*
X154130562Y-95144245D01*
X154044938Y-95094810D01*
X153949435Y-95069220D01*
X153850565Y-95069220D01*
X153755062Y-95094810D01*
X153755060Y-95094811D01*
X153755059Y-95094811D01*
X153669436Y-95144246D01*
X153599526Y-95214156D01*
X153550091Y-95299779D01*
X153550091Y-95299780D01*
X153550090Y-95299782D01*
X153524500Y-95395285D01*
X150675500Y-95395285D01*
X150675500Y-95350565D01*
X150649910Y-95255062D01*
X150600475Y-95169438D01*
X150530562Y-95099525D01*
X150444938Y-95050090D01*
X150349435Y-95024500D01*
X150250565Y-95024500D01*
X150155062Y-95050090D01*
X150155060Y-95050091D01*
X150155059Y-95050091D01*
X150069436Y-95099526D01*
X149999526Y-95169436D01*
X149950091Y-95255059D01*
X149950091Y-95255060D01*
X149950090Y-95255062D01*
X149924500Y-95350565D01*
X140742494Y-95350565D01*
X140744938Y-95349910D01*
X140830562Y-95300475D01*
X140900475Y-95230562D01*
X140949910Y-95144938D01*
X140975500Y-95049435D01*
X140975500Y-94950565D01*
X140949910Y-94855062D01*
X140900475Y-94769438D01*
X140830562Y-94699525D01*
X140744938Y-94650090D01*
X140649435Y-94624500D01*
X140550565Y-94624500D01*
X140455062Y-94650090D01*
X140455060Y-94650091D01*
X140455059Y-94650091D01*
X140369436Y-94699526D01*
X140299526Y-94769436D01*
X140250091Y-94855059D01*
X140250091Y-94855060D01*
X140250090Y-94855062D01*
X140224500Y-94950565D01*
X136581739Y-94950565D01*
X136878304Y-94350565D01*
X141224500Y-94350565D01*
X141224500Y-94449435D01*
X141250090Y-94544938D01*
X141250091Y-94544939D01*
X141250091Y-94544940D01*
X141255935Y-94555062D01*
X141299525Y-94630562D01*
X141369438Y-94700475D01*
X141455062Y-94749910D01*
X141550565Y-94775500D01*
X141550567Y-94775500D01*
X141649432Y-94775500D01*
X141649435Y-94775500D01*
X141744938Y-94749910D01*
X141830562Y-94700475D01*
X141880471Y-94650566D01*
X151399501Y-94650566D01*
X151399501Y-94749436D01*
X151425091Y-94844939D01*
X151425092Y-94844940D01*
X151425092Y-94844941D01*
X151433855Y-94860118D01*
X151474526Y-94930563D01*
X151544439Y-95000476D01*
X151630063Y-95049911D01*
X151725566Y-95075501D01*
X151725568Y-95075501D01*
X151824433Y-95075501D01*
X151824436Y-95075501D01*
X151919939Y-95049911D01*
X152005563Y-95000476D01*
X152075476Y-94930563D01*
X152124911Y-94844939D01*
X152150501Y-94749436D01*
X152150501Y-94650566D01*
X152124911Y-94555063D01*
X152112322Y-94533259D01*
X152095852Y-94465360D01*
X152118704Y-94399333D01*
X152157710Y-94363875D01*
X152223569Y-94325852D01*
X152293482Y-94255939D01*
X152342917Y-94170315D01*
X152354965Y-94125349D01*
X152391328Y-94065692D01*
X152454175Y-94035162D01*
X152523551Y-94043456D01*
X152577429Y-94087941D01*
X152582125Y-94095444D01*
X152592532Y-94113469D01*
X152662445Y-94183382D01*
X152748069Y-94232817D01*
X152843572Y-94258407D01*
X152843574Y-94258407D01*
X152942439Y-94258407D01*
X152942442Y-94258407D01*
X153037945Y-94232817D01*
X153123569Y-94183382D01*
X153193482Y-94113469D01*
X153193482Y-94113468D01*
X153199229Y-94107722D01*
X153201459Y-94109952D01*
X153245826Y-94077511D01*
X153315569Y-94073308D01*
X153363341Y-94095796D01*
X153369436Y-94100473D01*
X153369438Y-94100475D01*
X153455062Y-94149910D01*
X153550565Y-94175500D01*
X153550567Y-94175500D01*
X153649432Y-94175500D01*
X153649435Y-94175500D01*
X153744938Y-94149910D01*
X153830562Y-94100475D01*
X153900475Y-94030562D01*
X153946871Y-93950200D01*
X153997435Y-93901988D01*
X154066042Y-93888764D01*
X154130907Y-93914732D01*
X154141937Y-93924522D01*
X154184460Y-93967045D01*
X154270084Y-94016480D01*
X154365587Y-94042070D01*
X154365589Y-94042070D01*
X154464454Y-94042070D01*
X154464457Y-94042070D01*
X154559960Y-94016480D01*
X154559969Y-94016474D01*
X154567470Y-94013369D01*
X154568314Y-94015407D01*
X154625005Y-94001651D01*
X154691033Y-94024499D01*
X154706793Y-94037830D01*
X154769438Y-94100475D01*
X154855062Y-94149910D01*
X154950565Y-94175500D01*
X154950567Y-94175500D01*
X155049432Y-94175500D01*
X155049435Y-94175500D01*
X155144938Y-94149910D01*
X155230562Y-94100475D01*
X155300475Y-94030562D01*
X155349910Y-93944938D01*
X155375500Y-93849435D01*
X155375500Y-93750565D01*
X155349910Y-93655062D01*
X155300475Y-93569438D01*
X155230562Y-93499525D01*
X155174158Y-93466960D01*
X155624500Y-93466960D01*
X155624500Y-93565830D01*
X155650090Y-93661333D01*
X155650091Y-93661334D01*
X155650091Y-93661335D01*
X155699526Y-93746958D01*
X155723084Y-93770516D01*
X155756569Y-93831839D01*
X155751585Y-93901531D01*
X155723086Y-93945877D01*
X155699525Y-93969438D01*
X155650091Y-94055059D01*
X155650091Y-94055060D01*
X155650090Y-94055062D01*
X155624500Y-94150565D01*
X155624500Y-94249435D01*
X155650090Y-94344938D01*
X155699525Y-94430562D01*
X155769438Y-94500475D01*
X155855062Y-94549910D01*
X155950565Y-94575500D01*
X155950567Y-94575500D01*
X156049432Y-94575500D01*
X156049435Y-94575500D01*
X156144938Y-94549910D01*
X156193568Y-94521833D01*
X156261465Y-94505360D01*
X156327493Y-94528212D01*
X156362953Y-94567219D01*
X156370586Y-94580439D01*
X156399525Y-94630562D01*
X156469438Y-94700475D01*
X156555062Y-94749910D01*
X156650565Y-94775500D01*
X156650567Y-94775500D01*
X156749432Y-94775500D01*
X156749435Y-94775500D01*
X156844938Y-94749910D01*
X156930562Y-94700475D01*
X157000475Y-94630562D01*
X157049910Y-94544938D01*
X157075500Y-94449435D01*
X157075500Y-94350565D01*
X157049910Y-94255062D01*
X157000475Y-94169438D01*
X156930562Y-94099525D01*
X156844938Y-94050090D01*
X156749435Y-94024500D01*
X156650565Y-94024500D01*
X156600817Y-94037830D01*
X156555061Y-94050090D01*
X156506431Y-94078167D01*
X156503339Y-94078916D01*
X156501035Y-94081106D01*
X156469626Y-94087095D01*
X156438531Y-94094639D01*
X156435524Y-94093598D01*
X156432402Y-94094194D01*
X156402734Y-94082249D01*
X156372504Y-94071786D01*
X156369654Y-94068930D01*
X156367589Y-94068099D01*
X156359569Y-94058826D01*
X156343283Y-94042507D01*
X156339938Y-94037790D01*
X156300475Y-93969438D01*
X156269505Y-93938468D01*
X156263447Y-93929925D01*
X156255353Y-93906391D01*
X156243430Y-93884555D01*
X156244189Y-93873929D01*
X156240725Y-93863854D01*
X156246638Y-93839684D01*
X156248414Y-93814863D01*
X156255354Y-93804063D01*
X156257331Y-93795986D01*
X156265582Y-93788149D01*
X156276912Y-93770519D01*
X156300475Y-93746957D01*
X156349910Y-93661333D01*
X156375500Y-93565830D01*
X156375500Y-93466960D01*
X156349910Y-93371457D01*
X156300475Y-93285833D01*
X156230562Y-93215920D01*
X156144938Y-93166485D01*
X156049435Y-93140895D01*
X155950565Y-93140895D01*
X155855062Y-93166485D01*
X155855060Y-93166486D01*
X155855059Y-93166486D01*
X155769436Y-93215921D01*
X155699526Y-93285831D01*
X155650091Y-93371454D01*
X155650091Y-93371455D01*
X155650090Y-93371457D01*
X155624500Y-93466960D01*
X155174158Y-93466960D01*
X155144938Y-93450090D01*
X155049435Y-93424500D01*
X154950565Y-93424500D01*
X154855062Y-93450090D01*
X154855060Y-93450090D01*
X154855060Y-93450091D01*
X154847552Y-93453201D01*
X154846709Y-93451167D01*
X154789981Y-93464916D01*
X154723959Y-93442049D01*
X154708228Y-93428739D01*
X154645585Y-93366096D01*
X154645584Y-93366095D01*
X154559960Y-93316660D01*
X154464457Y-93291070D01*
X154365587Y-93291070D01*
X154270084Y-93316660D01*
X154270082Y-93316661D01*
X154270081Y-93316661D01*
X154184458Y-93366096D01*
X154114549Y-93436005D01*
X154114547Y-93436007D01*
X154114547Y-93436008D01*
X154077875Y-93499526D01*
X154068152Y-93516367D01*
X154017584Y-93564582D01*
X153948977Y-93577804D01*
X153884113Y-93551836D01*
X153873084Y-93542047D01*
X153830563Y-93499526D01*
X153830562Y-93499525D01*
X153744938Y-93450090D01*
X153649435Y-93424500D01*
X153550565Y-93424500D01*
X153455062Y-93450090D01*
X153455060Y-93450091D01*
X153455059Y-93450091D01*
X153369436Y-93499526D01*
X153293778Y-93575185D01*
X153291559Y-93572966D01*
X153247075Y-93605433D01*
X153177328Y-93609573D01*
X153129666Y-93587111D01*
X153123572Y-93582435D01*
X153123569Y-93582432D01*
X153037945Y-93532997D01*
X152942442Y-93507407D01*
X152843572Y-93507407D01*
X152748069Y-93532997D01*
X152748067Y-93532998D01*
X152748066Y-93532998D01*
X152662443Y-93582433D01*
X152592533Y-93652343D01*
X152543098Y-93737966D01*
X152543095Y-93737973D01*
X152531048Y-93782933D01*
X152494683Y-93842593D01*
X152431835Y-93873121D01*
X152362460Y-93864826D01*
X152308583Y-93820339D01*
X152303894Y-93812849D01*
X152293482Y-93794815D01*
X152223569Y-93724902D01*
X152137945Y-93675467D01*
X152042442Y-93649877D01*
X151943572Y-93649877D01*
X151848069Y-93675467D01*
X151848067Y-93675468D01*
X151848066Y-93675468D01*
X151762443Y-93724903D01*
X151692533Y-93794813D01*
X151643098Y-93880436D01*
X151643098Y-93880437D01*
X151643097Y-93880439D01*
X151617507Y-93975942D01*
X151617507Y-94074812D01*
X151643097Y-94170315D01*
X151643098Y-94170316D01*
X151643099Y-94170319D01*
X151655684Y-94192118D01*
X151672155Y-94260019D01*
X151649302Y-94326045D01*
X151610297Y-94361502D01*
X151544438Y-94399526D01*
X151474527Y-94469437D01*
X151425092Y-94555060D01*
X151425092Y-94555061D01*
X151425091Y-94555063D01*
X151399501Y-94650566D01*
X141880471Y-94650566D01*
X141900475Y-94630562D01*
X141949910Y-94544938D01*
X141975500Y-94449435D01*
X141975500Y-94350565D01*
X141949910Y-94255062D01*
X141900475Y-94169438D01*
X141830562Y-94099525D01*
X141744938Y-94050090D01*
X141649435Y-94024500D01*
X141550565Y-94024500D01*
X141455062Y-94050090D01*
X141455060Y-94050091D01*
X141455059Y-94050091D01*
X141369436Y-94099526D01*
X141299526Y-94169436D01*
X141250091Y-94255059D01*
X141250091Y-94255060D01*
X141250090Y-94255062D01*
X141224500Y-94350565D01*
X136878304Y-94350565D01*
X136928949Y-94248101D01*
X136931576Y-94243082D01*
X137230508Y-93702818D01*
X147774500Y-93702818D01*
X147774500Y-93801688D01*
X147800090Y-93897191D01*
X147800091Y-93897192D01*
X147800091Y-93897193D01*
X147805402Y-93906391D01*
X147849525Y-93982815D01*
X147919438Y-94052728D01*
X148005062Y-94102163D01*
X148100565Y-94127753D01*
X148100567Y-94127753D01*
X148199432Y-94127753D01*
X148199435Y-94127753D01*
X148294938Y-94102163D01*
X148380562Y-94052728D01*
X148450475Y-93982815D01*
X148499910Y-93897191D01*
X148525500Y-93801688D01*
X148525500Y-93702818D01*
X148511499Y-93650565D01*
X149324500Y-93650565D01*
X149324500Y-93749435D01*
X149350090Y-93844938D01*
X149350091Y-93844939D01*
X149350091Y-93844940D01*
X149352686Y-93849435D01*
X149399525Y-93930562D01*
X149469438Y-94000475D01*
X149555062Y-94049910D01*
X149650565Y-94075500D01*
X149650567Y-94075500D01*
X149749432Y-94075500D01*
X149749435Y-94075500D01*
X149844938Y-94049910D01*
X149930562Y-94000475D01*
X150000475Y-93930562D01*
X150049910Y-93844938D01*
X150075500Y-93749435D01*
X150075500Y-93650565D01*
X150049910Y-93555062D01*
X150000475Y-93469438D01*
X149930562Y-93399525D01*
X149844938Y-93350090D01*
X149749435Y-93324500D01*
X149650565Y-93324500D01*
X149555062Y-93350090D01*
X149555060Y-93350091D01*
X149555059Y-93350091D01*
X149469436Y-93399526D01*
X149399526Y-93469436D01*
X149350091Y-93555059D01*
X149350091Y-93555060D01*
X149350090Y-93555062D01*
X149324500Y-93650565D01*
X148511499Y-93650565D01*
X148499910Y-93607315D01*
X148450475Y-93521691D01*
X148380562Y-93451778D01*
X148294938Y-93402343D01*
X148199435Y-93376753D01*
X148100565Y-93376753D01*
X148005062Y-93402343D01*
X148005060Y-93402344D01*
X148005059Y-93402344D01*
X147919436Y-93451779D01*
X147849526Y-93521689D01*
X147800091Y-93607312D01*
X147800091Y-93607313D01*
X147800090Y-93607315D01*
X147774500Y-93702818D01*
X137230508Y-93702818D01*
X137327965Y-93526683D01*
X137330836Y-93521767D01*
X137759992Y-92824461D01*
X137763062Y-92819722D01*
X138224037Y-92143053D01*
X138227349Y-92138425D01*
X138478466Y-91804190D01*
X138534470Y-91762420D01*
X138604171Y-91757557D01*
X138665435Y-91791149D01*
X138698813Y-91852531D01*
X138699162Y-91895301D01*
X138700097Y-91895394D01*
X138699500Y-91901456D01*
X138699500Y-91901459D01*
X138699500Y-91921750D01*
X138699500Y-92098541D01*
X138699500Y-92098543D01*
X138699499Y-92098543D01*
X138737947Y-92291826D01*
X138737950Y-92291839D01*
X138813364Y-92473907D01*
X138813371Y-92473920D01*
X138922860Y-92637781D01*
X138922863Y-92637785D01*
X139062214Y-92777136D01*
X139062218Y-92777139D01*
X139226079Y-92886628D01*
X139226092Y-92886635D01*
X139350822Y-92938299D01*
X139408165Y-92962051D01*
X139408169Y-92962051D01*
X139408170Y-92962052D01*
X139601456Y-93000500D01*
X139601459Y-93000500D01*
X139798543Y-93000500D01*
X139928582Y-92974632D01*
X139991835Y-92962051D01*
X140173914Y-92886632D01*
X140337782Y-92777139D01*
X140477139Y-92637782D01*
X140586632Y-92473914D01*
X140662051Y-92291835D01*
X140663196Y-92286079D01*
X140700500Y-92098543D01*
X140700500Y-91928501D01*
X146985086Y-91928501D01*
X146985086Y-92027371D01*
X147010676Y-92122874D01*
X147010677Y-92122875D01*
X147010677Y-92122876D01*
X147019283Y-92137782D01*
X147060111Y-92208498D01*
X147130024Y-92278411D01*
X147215648Y-92327846D01*
X147311151Y-92353436D01*
X147311153Y-92353436D01*
X147410018Y-92353436D01*
X147410021Y-92353436D01*
X147505524Y-92327846D01*
X147591148Y-92278411D01*
X147648009Y-92221549D01*
X147709328Y-92188067D01*
X147773098Y-92191011D01*
X147785978Y-92195087D01*
X147804465Y-92205760D01*
X147899968Y-92231350D01*
X147900574Y-92231350D01*
X147906550Y-92233241D01*
X147933332Y-92251253D01*
X147960893Y-92268053D01*
X147962146Y-92270633D01*
X147964526Y-92272234D01*
X147977314Y-92301858D01*
X147991422Y-92330900D01*
X147991265Y-92334176D01*
X147992218Y-92336382D01*
X147990732Y-92345378D01*
X147988914Y-92383555D01*
X147967412Y-92463803D01*
X147967412Y-92463805D01*
X147967412Y-92562675D01*
X147993002Y-92658178D01*
X148042437Y-92743802D01*
X148112350Y-92813715D01*
X148197974Y-92863150D01*
X148293477Y-92888740D01*
X148293479Y-92888740D01*
X148392344Y-92888740D01*
X148392347Y-92888740D01*
X148487850Y-92863150D01*
X148528931Y-92839432D01*
X151481222Y-92839432D01*
X151481222Y-92938302D01*
X151506812Y-93033805D01*
X151556247Y-93119429D01*
X151626160Y-93189342D01*
X151711784Y-93238777D01*
X151807287Y-93264367D01*
X151807289Y-93264367D01*
X151906154Y-93264367D01*
X151906157Y-93264367D01*
X152001660Y-93238777D01*
X152087284Y-93189342D01*
X152157197Y-93119429D01*
X152206632Y-93033805D01*
X152232222Y-92938302D01*
X152232222Y-92839432D01*
X152206632Y-92743929D01*
X152157197Y-92658305D01*
X152087284Y-92588392D01*
X152001660Y-92538957D01*
X151906157Y-92513367D01*
X151807287Y-92513367D01*
X151711784Y-92538957D01*
X151711782Y-92538958D01*
X151711781Y-92538958D01*
X151626158Y-92588393D01*
X151556248Y-92658303D01*
X151506813Y-92743926D01*
X151506813Y-92743927D01*
X151506812Y-92743929D01*
X151481222Y-92839432D01*
X148528931Y-92839432D01*
X148573474Y-92813715D01*
X148643387Y-92743802D01*
X148692822Y-92658178D01*
X148718412Y-92562675D01*
X148718412Y-92463805D01*
X148718411Y-92463804D01*
X148717663Y-92458118D01*
X148728428Y-92389082D01*
X148774807Y-92336826D01*
X148778575Y-92334559D01*
X148862547Y-92286079D01*
X148932460Y-92216166D01*
X148981895Y-92130542D01*
X149007485Y-92035039D01*
X149007485Y-91936169D01*
X148999962Y-91908091D01*
X155938338Y-91908091D01*
X155938338Y-92006961D01*
X155963928Y-92102464D01*
X156013363Y-92188088D01*
X156083276Y-92258001D01*
X156168900Y-92307436D01*
X156264403Y-92333026D01*
X156264405Y-92333026D01*
X156363270Y-92333026D01*
X156363273Y-92333026D01*
X156458776Y-92307436D01*
X156544400Y-92258001D01*
X156614313Y-92188088D01*
X156663748Y-92102464D01*
X156689338Y-92006961D01*
X156689338Y-91908091D01*
X156673924Y-91850565D01*
X157024500Y-91850565D01*
X157024500Y-91949435D01*
X157050090Y-92044938D01*
X157050091Y-92044939D01*
X157050091Y-92044940D01*
X157060120Y-92062311D01*
X157099525Y-92130562D01*
X157169438Y-92200475D01*
X157255062Y-92249910D01*
X157350565Y-92275500D01*
X157350567Y-92275500D01*
X157449432Y-92275500D01*
X157449435Y-92275500D01*
X157544938Y-92249910D01*
X157630562Y-92200475D01*
X157700475Y-92130562D01*
X157749910Y-92044938D01*
X157775500Y-91949435D01*
X157775500Y-91850565D01*
X157749910Y-91755062D01*
X157700475Y-91669438D01*
X157630562Y-91599525D01*
X157544938Y-91550090D01*
X157449435Y-91524500D01*
X157350565Y-91524500D01*
X157255062Y-91550090D01*
X157255060Y-91550091D01*
X157255059Y-91550091D01*
X157169436Y-91599526D01*
X157099526Y-91669436D01*
X157050091Y-91755059D01*
X157050091Y-91755060D01*
X157050090Y-91755062D01*
X157024500Y-91850565D01*
X156673924Y-91850565D01*
X156663748Y-91812588D01*
X156614313Y-91726964D01*
X156544400Y-91657051D01*
X156458776Y-91607616D01*
X156363273Y-91582026D01*
X156264403Y-91582026D01*
X156168900Y-91607616D01*
X156168898Y-91607617D01*
X156168897Y-91607617D01*
X156083274Y-91657052D01*
X156013364Y-91726962D01*
X155963929Y-91812585D01*
X155963929Y-91812586D01*
X155963928Y-91812588D01*
X155938338Y-91908091D01*
X148999962Y-91908091D01*
X148981895Y-91840666D01*
X148932460Y-91755042D01*
X148862547Y-91685129D01*
X148776923Y-91635694D01*
X148681420Y-91610104D01*
X148582550Y-91610104D01*
X148487047Y-91635694D01*
X148487045Y-91635695D01*
X148487044Y-91635695D01*
X148421063Y-91673790D01*
X148353163Y-91690263D01*
X148287136Y-91667411D01*
X148251677Y-91628404D01*
X148249877Y-91625287D01*
X148179966Y-91555376D01*
X148179965Y-91555375D01*
X148094341Y-91505940D01*
X147998838Y-91480350D01*
X147899968Y-91480350D01*
X147804465Y-91505940D01*
X147804463Y-91505941D01*
X147804462Y-91505941D01*
X147718841Y-91555375D01*
X147661982Y-91612234D01*
X147600658Y-91645718D01*
X147530967Y-91640733D01*
X147512303Y-91631940D01*
X147509313Y-91630213D01*
X147505525Y-91628026D01*
X147473689Y-91619496D01*
X147410021Y-91602436D01*
X147311151Y-91602436D01*
X147215648Y-91628026D01*
X147215646Y-91628027D01*
X147215645Y-91628027D01*
X147130022Y-91677462D01*
X147060112Y-91747372D01*
X147010677Y-91832995D01*
X147010677Y-91832996D01*
X147010676Y-91832998D01*
X146985086Y-91928501D01*
X140700500Y-91928501D01*
X140700500Y-91901456D01*
X140662052Y-91708170D01*
X140662051Y-91708169D01*
X140662051Y-91708165D01*
X140645170Y-91667411D01*
X140586635Y-91526092D01*
X140586628Y-91526079D01*
X140477139Y-91362218D01*
X140477136Y-91362214D01*
X140337785Y-91222863D01*
X140337781Y-91222860D01*
X140173920Y-91113371D01*
X140173906Y-91113364D01*
X139991839Y-91037950D01*
X139991829Y-91037947D01*
X139841733Y-91008091D01*
X154463299Y-91008091D01*
X154463299Y-91106961D01*
X154488889Y-91202464D01*
X154488890Y-91202465D01*
X154488890Y-91202466D01*
X154492180Y-91208165D01*
X154538324Y-91288088D01*
X154608237Y-91358001D01*
X154693861Y-91407436D01*
X154789364Y-91433026D01*
X154789366Y-91433026D01*
X154888231Y-91433026D01*
X154888234Y-91433026D01*
X154983737Y-91407436D01*
X155069361Y-91358001D01*
X155139274Y-91288088D01*
X155188709Y-91202464D01*
X155214299Y-91106961D01*
X155214299Y-91008091D01*
X155188709Y-90912588D01*
X155139274Y-90826964D01*
X155069361Y-90757051D01*
X154983737Y-90707616D01*
X154888234Y-90682026D01*
X154789364Y-90682026D01*
X154693861Y-90707616D01*
X154693859Y-90707617D01*
X154693858Y-90707617D01*
X154608235Y-90757052D01*
X154538325Y-90826962D01*
X154488890Y-90912585D01*
X154488890Y-90912586D01*
X154488889Y-90912588D01*
X154463299Y-91008091D01*
X139841733Y-91008091D01*
X139798543Y-90999500D01*
X139798541Y-90999500D01*
X139601459Y-90999500D01*
X139601457Y-90999500D01*
X139408170Y-91037947D01*
X139408160Y-91037950D01*
X139381295Y-91049078D01*
X139375975Y-91049649D01*
X139371544Y-91052646D01*
X139341604Y-91053344D01*
X139311826Y-91056545D01*
X139307042Y-91054150D01*
X139301694Y-91054275D01*
X139276128Y-91038675D01*
X139249347Y-91025269D01*
X139246617Y-91020668D01*
X139242051Y-91017882D01*
X139228977Y-90990936D01*
X139213696Y-90965179D01*
X139213887Y-90959832D01*
X139211552Y-90955020D01*
X139215121Y-90925286D01*
X139216191Y-90895354D01*
X139219412Y-90889539D01*
X139219880Y-90885648D01*
X139238264Y-90855520D01*
X139244256Y-90848270D01*
X139248005Y-90843942D01*
X139673096Y-90375567D01*
X156581483Y-90375567D01*
X156581483Y-90474437D01*
X156607073Y-90569940D01*
X156656508Y-90655564D01*
X156726421Y-90725477D01*
X156812045Y-90774912D01*
X156907548Y-90800502D01*
X156907550Y-90800502D01*
X157006415Y-90800502D01*
X157006418Y-90800502D01*
X157101921Y-90774912D01*
X157187545Y-90725477D01*
X157257458Y-90655564D01*
X157306893Y-90569940D01*
X157332483Y-90474437D01*
X157332483Y-90375567D01*
X157306893Y-90280064D01*
X157257458Y-90194440D01*
X157187545Y-90124527D01*
X157101921Y-90075092D01*
X157006418Y-90049502D01*
X156907548Y-90049502D01*
X156812045Y-90075092D01*
X156812043Y-90075093D01*
X156812042Y-90075093D01*
X156726419Y-90124528D01*
X156656509Y-90194438D01*
X156607074Y-90280061D01*
X156607074Y-90280062D01*
X156607073Y-90280064D01*
X156581483Y-90375567D01*
X139673096Y-90375567D01*
X139798256Y-90237663D01*
X139802148Y-90233569D01*
X140083975Y-89950565D01*
X145024500Y-89950565D01*
X145024500Y-90049435D01*
X145050090Y-90144938D01*
X145099525Y-90230562D01*
X145169438Y-90300475D01*
X145255062Y-90349910D01*
X145350565Y-90375500D01*
X145350567Y-90375500D01*
X145449432Y-90375500D01*
X145449435Y-90375500D01*
X145544938Y-90349910D01*
X145630562Y-90300475D01*
X145700475Y-90230562D01*
X145749910Y-90144938D01*
X145775500Y-90049435D01*
X145775500Y-89950565D01*
X145749910Y-89855062D01*
X145700475Y-89769438D01*
X145630562Y-89699525D01*
X145544938Y-89650090D01*
X145449435Y-89624500D01*
X145350565Y-89624500D01*
X145255062Y-89650090D01*
X145255060Y-89650091D01*
X145255059Y-89650091D01*
X145169436Y-89699526D01*
X145099526Y-89769436D01*
X145050091Y-89855059D01*
X145050091Y-89855060D01*
X145050090Y-89855062D01*
X145024500Y-89950565D01*
X140083975Y-89950565D01*
X140379911Y-89653393D01*
X140383992Y-89649480D01*
X140987996Y-89096685D01*
X140992265Y-89092955D01*
X141310717Y-88827525D01*
X142849500Y-88827525D01*
X142849500Y-88972475D01*
X142886335Y-89109942D01*
X142887017Y-89112488D01*
X142959488Y-89238011D01*
X142959490Y-89238013D01*
X142959491Y-89238015D01*
X143061985Y-89340509D01*
X143061986Y-89340510D01*
X143061988Y-89340511D01*
X143187511Y-89412982D01*
X143187512Y-89412982D01*
X143187515Y-89412984D01*
X143327525Y-89450500D01*
X143327528Y-89450500D01*
X143472472Y-89450500D01*
X143472475Y-89450500D01*
X143612485Y-89412984D01*
X143738015Y-89340509D01*
X143840509Y-89238015D01*
X143912984Y-89112485D01*
X143950500Y-88972475D01*
X143950500Y-88915567D01*
X146016707Y-88915567D01*
X146016707Y-89014437D01*
X146042297Y-89109940D01*
X146042298Y-89109941D01*
X146042298Y-89109942D01*
X146054171Y-89130507D01*
X146091732Y-89195564D01*
X146161645Y-89265477D01*
X146247269Y-89314912D01*
X146342772Y-89340502D01*
X146342774Y-89340502D01*
X146441639Y-89340502D01*
X146441642Y-89340502D01*
X146537145Y-89314912D01*
X146622769Y-89265477D01*
X146692682Y-89195564D01*
X146742117Y-89109940D01*
X146767707Y-89014437D01*
X146767707Y-88915567D01*
X146742117Y-88820064D01*
X146692682Y-88734440D01*
X146622769Y-88664527D01*
X146537145Y-88615092D01*
X146441642Y-88589502D01*
X146342772Y-88589502D01*
X146247269Y-88615092D01*
X146247267Y-88615093D01*
X146247266Y-88615093D01*
X146161643Y-88664528D01*
X146091733Y-88734438D01*
X146042298Y-88820061D01*
X146042298Y-88820062D01*
X146042297Y-88820064D01*
X146016707Y-88915567D01*
X143950500Y-88915567D01*
X143950500Y-88827525D01*
X143912984Y-88687515D01*
X143899712Y-88664528D01*
X143840511Y-88561988D01*
X143840506Y-88561982D01*
X143738017Y-88459493D01*
X143738011Y-88459488D01*
X143612488Y-88387017D01*
X143612489Y-88387017D01*
X143601006Y-88383940D01*
X143472475Y-88349500D01*
X143327525Y-88349500D01*
X143198993Y-88383940D01*
X143187511Y-88387017D01*
X143061988Y-88459488D01*
X143061982Y-88459493D01*
X142959493Y-88561982D01*
X142959488Y-88561988D01*
X142887017Y-88687511D01*
X142887016Y-88687515D01*
X142849500Y-88827525D01*
X141310717Y-88827525D01*
X141621214Y-88568726D01*
X141625657Y-88565194D01*
X142278186Y-88070666D01*
X142282798Y-88067335D01*
X142957548Y-87603540D01*
X142962271Y-87600452D01*
X143364528Y-87350565D01*
X145224500Y-87350565D01*
X145224500Y-87449435D01*
X145250090Y-87544938D01*
X145299525Y-87630562D01*
X145369438Y-87700475D01*
X145455062Y-87749910D01*
X145550565Y-87775500D01*
X145550567Y-87775500D01*
X145649432Y-87775500D01*
X145649435Y-87775500D01*
X145744938Y-87749910D01*
X145830562Y-87700475D01*
X145900475Y-87630562D01*
X145949910Y-87544938D01*
X145975500Y-87449435D01*
X145975500Y-87350565D01*
X145949910Y-87255062D01*
X145900475Y-87169438D01*
X145830562Y-87099525D01*
X145744938Y-87050090D01*
X145649435Y-87024500D01*
X145550565Y-87024500D01*
X145455062Y-87050090D01*
X145455060Y-87050091D01*
X145455059Y-87050091D01*
X145369436Y-87099526D01*
X145299526Y-87169436D01*
X145250091Y-87255059D01*
X145250091Y-87255060D01*
X145250090Y-87255062D01*
X145224500Y-87350565D01*
X143364528Y-87350565D01*
X143625763Y-87188283D01*
X143657758Y-87168409D01*
X143662688Y-87165501D01*
X144377436Y-86766125D01*
X144382453Y-86763473D01*
X145114918Y-86397627D01*
X145120071Y-86395201D01*
X145868687Y-86063667D01*
X145873931Y-86061488D01*
X146637129Y-85764962D01*
X146642473Y-85763028D01*
X147111493Y-85605379D01*
X147181310Y-85602680D01*
X147241505Y-85638154D01*
X147272964Y-85700541D01*
X147275000Y-85722918D01*
X147275000Y-87900000D01*
X151921824Y-87900000D01*
X151988863Y-87919685D01*
X152034618Y-87972489D01*
X152044562Y-88041647D01*
X152015537Y-88105203D01*
X151997309Y-88122377D01*
X151994335Y-88124658D01*
X151924426Y-88194567D01*
X151874991Y-88280190D01*
X151874991Y-88280191D01*
X151874990Y-88280193D01*
X151849400Y-88375696D01*
X151849400Y-88474566D01*
X151874990Y-88570069D01*
X151924425Y-88655693D01*
X151994338Y-88725606D01*
X152079962Y-88775041D01*
X152149221Y-88793599D01*
X152208881Y-88829963D01*
X152239410Y-88892810D01*
X152231115Y-88962185D01*
X152186630Y-89016063D01*
X152181308Y-89019471D01*
X152166235Y-89028588D01*
X152133482Y-89037365D01*
X152047858Y-89086800D01*
X152013946Y-89120711D01*
X152001078Y-89128496D01*
X151981253Y-89133736D01*
X151963253Y-89143565D01*
X151948157Y-89142485D01*
X151933529Y-89146352D01*
X151914017Y-89140042D01*
X151893561Y-89138579D01*
X151874897Y-89129785D01*
X151826852Y-89102046D01*
X151731349Y-89076456D01*
X151632479Y-89076456D01*
X151536976Y-89102046D01*
X151536974Y-89102046D01*
X151536974Y-89102047D01*
X151536971Y-89102048D01*
X151476623Y-89136889D01*
X151408723Y-89153360D01*
X151342696Y-89130507D01*
X151326944Y-89117182D01*
X151314313Y-89104551D01*
X151314312Y-89104550D01*
X151228688Y-89055115D01*
X151133185Y-89029525D01*
X151034315Y-89029525D01*
X150938812Y-89055115D01*
X150938810Y-89055116D01*
X150938809Y-89055116D01*
X150853186Y-89104551D01*
X150783276Y-89174461D01*
X150733841Y-89260084D01*
X150733841Y-89260085D01*
X150733840Y-89260087D01*
X150708250Y-89355590D01*
X150708250Y-89454460D01*
X150733840Y-89549963D01*
X150783275Y-89635587D01*
X150853188Y-89705500D01*
X150938812Y-89754935D01*
X151034315Y-89780525D01*
X151034317Y-89780525D01*
X151133182Y-89780525D01*
X151133185Y-89780525D01*
X151228688Y-89754935D01*
X151289039Y-89720091D01*
X151356936Y-89703619D01*
X151422963Y-89726471D01*
X151438716Y-89739795D01*
X151451352Y-89752431D01*
X151536976Y-89801866D01*
X151632479Y-89827456D01*
X151632481Y-89827456D01*
X151731346Y-89827456D01*
X151731349Y-89827456D01*
X151826852Y-89801866D01*
X151912476Y-89752431D01*
X151935757Y-89729149D01*
X151997076Y-89695666D01*
X152066768Y-89700649D01*
X152085425Y-89709439D01*
X152133482Y-89737185D01*
X152228985Y-89762775D01*
X152228987Y-89762775D01*
X152327852Y-89762775D01*
X152327855Y-89762775D01*
X152423358Y-89737185D01*
X152423367Y-89737179D01*
X152430868Y-89734074D01*
X152432141Y-89737149D01*
X152484926Y-89724285D01*
X152550977Y-89747068D01*
X152566838Y-89760470D01*
X152631841Y-89825473D01*
X152717465Y-89874908D01*
X152812968Y-89900498D01*
X152812970Y-89900498D01*
X152911835Y-89900498D01*
X152911838Y-89900498D01*
X153007341Y-89874908D01*
X153092965Y-89825473D01*
X153162878Y-89755560D01*
X153211887Y-89670672D01*
X153262451Y-89622460D01*
X153331058Y-89609236D01*
X153395923Y-89635204D01*
X153426658Y-89670674D01*
X153449043Y-89709445D01*
X153461928Y-89731762D01*
X153531841Y-89801675D01*
X153617465Y-89851110D01*
X153712968Y-89876700D01*
X153712970Y-89876700D01*
X153811835Y-89876700D01*
X153811838Y-89876700D01*
X153907341Y-89851110D01*
X153992965Y-89801675D01*
X153994117Y-89800522D01*
X153995330Y-89799860D01*
X153999415Y-89796726D01*
X153999903Y-89797362D01*
X154055434Y-89767036D01*
X154125126Y-89772015D01*
X154162566Y-89796075D01*
X154162988Y-89795526D01*
X154169434Y-89800472D01*
X154169436Y-89800473D01*
X154169438Y-89800475D01*
X154255062Y-89849910D01*
X154350565Y-89875500D01*
X154350567Y-89875500D01*
X154449432Y-89875500D01*
X154449435Y-89875500D01*
X154544938Y-89849910D01*
X154630562Y-89800475D01*
X154700475Y-89730562D01*
X154749910Y-89644938D01*
X154775500Y-89549435D01*
X154775500Y-89450565D01*
X154749910Y-89355062D01*
X154700475Y-89269438D01*
X154630562Y-89199525D01*
X154567882Y-89163337D01*
X154544940Y-89150091D01*
X154544939Y-89150090D01*
X154544938Y-89150090D01*
X154449435Y-89124500D01*
X154350565Y-89124500D01*
X154255062Y-89150090D01*
X154255060Y-89150091D01*
X154255059Y-89150091D01*
X154211764Y-89175088D01*
X154169438Y-89199525D01*
X154169437Y-89199526D01*
X154168276Y-89200687D01*
X154167054Y-89201353D01*
X154162988Y-89204474D01*
X154162501Y-89203839D01*
X154106950Y-89234167D01*
X154037259Y-89229178D01*
X153999836Y-89205125D01*
X153999415Y-89205674D01*
X153992968Y-89200727D01*
X153990888Y-89199526D01*
X153907341Y-89151290D01*
X153811838Y-89125700D01*
X153712968Y-89125700D01*
X153617465Y-89151290D01*
X153617463Y-89151291D01*
X153617462Y-89151291D01*
X153531839Y-89200726D01*
X153461930Y-89270635D01*
X153461928Y-89270637D01*
X153461928Y-89270638D01*
X153436367Y-89314912D01*
X153412920Y-89355523D01*
X153362352Y-89403738D01*
X153293745Y-89416960D01*
X153228881Y-89390992D01*
X153198147Y-89355524D01*
X153162878Y-89294436D01*
X153092965Y-89224523D01*
X153007341Y-89175088D01*
X152911838Y-89149498D01*
X152812968Y-89149498D01*
X152717465Y-89175088D01*
X152717463Y-89175088D01*
X152717463Y-89175089D01*
X152709955Y-89178199D01*
X152708691Y-89175147D01*
X152655721Y-89187978D01*
X152589702Y-89165103D01*
X152573984Y-89151802D01*
X152508983Y-89086801D01*
X152508982Y-89086800D01*
X152446109Y-89050500D01*
X152425246Y-89038455D01*
X156441327Y-89038455D01*
X156441327Y-89137325D01*
X156466917Y-89232828D01*
X156466918Y-89232829D01*
X156466918Y-89232830D01*
X156467690Y-89234167D01*
X156516352Y-89318452D01*
X156586265Y-89388365D01*
X156671889Y-89437800D01*
X156767392Y-89463390D01*
X156767394Y-89463390D01*
X156866259Y-89463390D01*
X156866262Y-89463390D01*
X156961765Y-89437800D01*
X157025290Y-89401123D01*
X157093185Y-89384651D01*
X157159212Y-89407502D01*
X157174968Y-89420830D01*
X157195530Y-89441392D01*
X157281154Y-89490827D01*
X157376657Y-89516417D01*
X157376659Y-89516417D01*
X157475524Y-89516417D01*
X157475527Y-89516417D01*
X157571030Y-89490827D01*
X157656654Y-89441392D01*
X157673541Y-89424504D01*
X157734861Y-89391019D01*
X157804553Y-89396002D01*
X157823212Y-89404793D01*
X157878723Y-89436842D01*
X157974226Y-89462432D01*
X157974228Y-89462432D01*
X158073093Y-89462432D01*
X158073096Y-89462432D01*
X158168599Y-89436842D01*
X158254223Y-89387407D01*
X158324136Y-89317494D01*
X158373571Y-89231870D01*
X158399161Y-89136367D01*
X158399161Y-89037497D01*
X158373571Y-88941994D01*
X158324136Y-88856370D01*
X158254223Y-88786457D01*
X158168599Y-88737022D01*
X158073096Y-88711432D01*
X157974226Y-88711432D01*
X157878723Y-88737022D01*
X157878721Y-88737023D01*
X157878720Y-88737023D01*
X157793097Y-88786458D01*
X157776209Y-88803346D01*
X157714885Y-88836830D01*
X157645194Y-88831844D01*
X157626530Y-88823050D01*
X157571032Y-88791008D01*
X157571031Y-88791007D01*
X157571030Y-88791007D01*
X157475527Y-88765417D01*
X157376657Y-88765417D01*
X157281154Y-88791007D01*
X157281152Y-88791007D01*
X157281152Y-88791008D01*
X157281149Y-88791009D01*
X157217628Y-88827682D01*
X157149728Y-88844153D01*
X157083701Y-88821300D01*
X157067949Y-88807975D01*
X157047390Y-88787416D01*
X157047389Y-88787415D01*
X156961765Y-88737980D01*
X156866262Y-88712390D01*
X156767392Y-88712390D01*
X156671889Y-88737980D01*
X156671887Y-88737981D01*
X156671886Y-88737981D01*
X156586263Y-88787416D01*
X156516353Y-88857326D01*
X156466918Y-88942949D01*
X156466918Y-88942950D01*
X156466917Y-88942952D01*
X156441327Y-89038455D01*
X152425246Y-89038455D01*
X152423360Y-89037366D01*
X152423359Y-89037365D01*
X152383364Y-89026648D01*
X152354097Y-89018806D01*
X152294438Y-88982441D01*
X152263909Y-88919594D01*
X152272204Y-88850219D01*
X152316690Y-88796341D01*
X152354096Y-88779258D01*
X152369838Y-88775041D01*
X152455462Y-88725606D01*
X152525375Y-88655693D01*
X152574810Y-88570069D01*
X152600400Y-88474566D01*
X152600400Y-88427525D01*
X160949500Y-88427525D01*
X160949500Y-88572475D01*
X160986734Y-88711432D01*
X160987017Y-88712488D01*
X161059488Y-88838011D01*
X161059490Y-88838013D01*
X161059491Y-88838015D01*
X161161985Y-88940509D01*
X161161986Y-88940510D01*
X161161988Y-88940511D01*
X161287511Y-89012982D01*
X161287512Y-89012982D01*
X161287515Y-89012984D01*
X161427525Y-89050500D01*
X161427528Y-89050500D01*
X161572472Y-89050500D01*
X161572475Y-89050500D01*
X161712485Y-89012984D01*
X161838015Y-88940509D01*
X161940509Y-88838015D01*
X162012984Y-88712485D01*
X162050500Y-88572475D01*
X162050500Y-88427525D01*
X162012984Y-88287515D01*
X162008755Y-88280191D01*
X161940511Y-88161988D01*
X161940506Y-88161982D01*
X161838017Y-88059493D01*
X161838011Y-88059488D01*
X161712488Y-87987017D01*
X161712489Y-87987017D01*
X161701006Y-87983940D01*
X161572475Y-87949500D01*
X161427525Y-87949500D01*
X161298993Y-87983940D01*
X161287511Y-87987017D01*
X161161988Y-88059488D01*
X161161982Y-88059493D01*
X161059493Y-88161982D01*
X161059488Y-88161988D01*
X160987017Y-88287511D01*
X160987016Y-88287515D01*
X160949500Y-88427525D01*
X152600400Y-88427525D01*
X152600400Y-88375696D01*
X152574810Y-88280193D01*
X152525375Y-88194569D01*
X152455462Y-88124656D01*
X152455459Y-88124654D01*
X152452491Y-88122377D01*
X152450617Y-88119811D01*
X152449715Y-88118909D01*
X152449855Y-88118768D01*
X152411287Y-88065950D01*
X152407132Y-87996204D01*
X152441343Y-87935283D01*
X152503060Y-87902529D01*
X152527976Y-87900000D01*
X154875000Y-87900000D01*
X154875000Y-86850565D01*
X158824500Y-86850565D01*
X158824500Y-86949435D01*
X158850090Y-87044938D01*
X158850091Y-87044939D01*
X158850091Y-87044940D01*
X158853065Y-87050091D01*
X158899525Y-87130562D01*
X158969438Y-87200475D01*
X159055062Y-87249910D01*
X159150565Y-87275500D01*
X159150567Y-87275500D01*
X159249432Y-87275500D01*
X159249435Y-87275500D01*
X159344938Y-87249910D01*
X159430562Y-87200475D01*
X159500475Y-87130562D01*
X159549910Y-87044938D01*
X159575500Y-86949435D01*
X159575500Y-86850565D01*
X159549910Y-86755062D01*
X159500475Y-86669438D01*
X159430562Y-86599525D01*
X159344938Y-86550090D01*
X159249435Y-86524500D01*
X159150565Y-86524500D01*
X159055062Y-86550090D01*
X159055060Y-86550091D01*
X159055059Y-86550091D01*
X158969436Y-86599526D01*
X158899526Y-86669436D01*
X158850091Y-86755059D01*
X158850091Y-86755060D01*
X158850090Y-86755062D01*
X158824500Y-86850565D01*
X154875000Y-86850565D01*
X154875000Y-84978821D01*
X154894685Y-84911782D01*
X154947489Y-84866027D01*
X155016175Y-84856016D01*
X155570381Y-84933532D01*
G37*
%TD.AperFunction*%
%TD*%
M02*
