%TF.GenerationSoftware,KiCad,Pcbnew,8.0.7*%
%TF.CreationDate,2025-01-11T23:39:27+09:00*%
%TF.ProjectId,epaper-smart-watch,65706170-6572-42d7-936d-6172742d7761,rev?*%
%TF.SameCoordinates,Original*%
%TF.FileFunction,Copper,L1,Top*%
%TF.FilePolarity,Positive*%
%FSLAX46Y46*%
G04 Gerber Fmt 4.6, Leading zero omitted, Abs format (unit mm)*
G04 Created by KiCad (PCBNEW 8.0.7) date 2025-01-11 23:39:27*
%MOMM*%
%LPD*%
G01*
G04 APERTURE LIST*
G04 Aperture macros list*
%AMRoundRect*
0 Rectangle with rounded corners*
0 $1 Rounding radius*
0 $2 $3 $4 $5 $6 $7 $8 $9 X,Y pos of 4 corners*
0 Add a 4 corners polygon primitive as box body*
4,1,4,$2,$3,$4,$5,$6,$7,$8,$9,$2,$3,0*
0 Add four circle primitives for the rounded corners*
1,1,$1+$1,$2,$3*
1,1,$1+$1,$4,$5*
1,1,$1+$1,$6,$7*
1,1,$1+$1,$8,$9*
0 Add four rect primitives between the rounded corners*
20,1,$1+$1,$2,$3,$4,$5,0*
20,1,$1+$1,$4,$5,$6,$7,0*
20,1,$1+$1,$6,$7,$8,$9,0*
20,1,$1+$1,$8,$9,$2,$3,0*%
%AMRotRect*
0 Rectangle, with rotation*
0 The origin of the aperture is its center*
0 $1 length*
0 $2 width*
0 $3 Rotation angle, in degrees counterclockwise*
0 Add horizontal line*
21,1,$1,$2,0,0,$3*%
G04 Aperture macros list end*
%TA.AperFunction,SMDPad,CuDef*%
%ADD10R,0.400000X0.480000*%
%TD*%
%TA.AperFunction,SMDPad,CuDef*%
%ADD11RoundRect,0.140000X-0.140000X-0.170000X0.140000X-0.170000X0.140000X0.170000X-0.140000X0.170000X0*%
%TD*%
%TA.AperFunction,ComponentPad*%
%ADD12O,2.000000X1.200000*%
%TD*%
%TA.AperFunction,ComponentPad*%
%ADD13O,1.800000X1.200000*%
%TD*%
%TA.AperFunction,SMDPad,CuDef*%
%ADD14R,1.300000X0.300000*%
%TD*%
%TA.AperFunction,SMDPad,CuDef*%
%ADD15RoundRect,0.150000X-0.587500X-0.150000X0.587500X-0.150000X0.587500X0.150000X-0.587500X0.150000X0*%
%TD*%
%TA.AperFunction,SMDPad,CuDef*%
%ADD16R,1.200000X3.700000*%
%TD*%
%TA.AperFunction,SMDPad,CuDef*%
%ADD17R,0.700000X1.200000*%
%TD*%
%TA.AperFunction,SMDPad,CuDef*%
%ADD18R,0.230000X0.920000*%
%TD*%
%TA.AperFunction,SMDPad,CuDef*%
%ADD19RoundRect,0.250000X-0.250000X-0.475000X0.250000X-0.475000X0.250000X0.475000X-0.250000X0.475000X0*%
%TD*%
%TA.AperFunction,SMDPad,CuDef*%
%ADD20RoundRect,0.135000X-0.185000X0.135000X-0.185000X-0.135000X0.185000X-0.135000X0.185000X0.135000X0*%
%TD*%
%TA.AperFunction,SMDPad,CuDef*%
%ADD21RoundRect,0.135000X0.185000X-0.135000X0.185000X0.135000X-0.185000X0.135000X-0.185000X-0.135000X0*%
%TD*%
%TA.AperFunction,SMDPad,CuDef*%
%ADD22RoundRect,0.140000X0.170000X-0.140000X0.170000X0.140000X-0.170000X0.140000X-0.170000X-0.140000X0*%
%TD*%
%TA.AperFunction,SMDPad,CuDef*%
%ADD23RoundRect,0.140000X-0.170000X0.140000X-0.170000X-0.140000X0.170000X-0.140000X0.170000X0.140000X0*%
%TD*%
%TA.AperFunction,SMDPad,CuDef*%
%ADD24RoundRect,0.135000X-0.135000X-0.185000X0.135000X-0.185000X0.135000X0.185000X-0.135000X0.185000X0*%
%TD*%
%TA.AperFunction,SMDPad,CuDef*%
%ADD25RoundRect,0.218750X0.256250X-0.218750X0.256250X0.218750X-0.256250X0.218750X-0.256250X-0.218750X0*%
%TD*%
%TA.AperFunction,SMDPad,CuDef*%
%ADD26RoundRect,0.225000X0.225000X0.375000X-0.225000X0.375000X-0.225000X-0.375000X0.225000X-0.375000X0*%
%TD*%
%TA.AperFunction,SMDPad,CuDef*%
%ADD27R,0.300000X1.400000*%
%TD*%
%TA.AperFunction,SMDPad,CuDef*%
%ADD28R,1.000000X1.500000*%
%TD*%
%TA.AperFunction,SMDPad,CuDef*%
%ADD29RoundRect,0.140000X0.140000X0.170000X-0.140000X0.170000X-0.140000X-0.170000X0.140000X-0.170000X0*%
%TD*%
%TA.AperFunction,SMDPad,CuDef*%
%ADD30RoundRect,0.135000X0.135000X0.185000X-0.135000X0.185000X-0.135000X-0.185000X0.135000X-0.185000X0*%
%TD*%
%TA.AperFunction,SMDPad,CuDef*%
%ADD31R,0.450000X0.700000*%
%TD*%
%TA.AperFunction,SMDPad,CuDef*%
%ADD32RotRect,0.900000X1.700000X55.000000*%
%TD*%
%TA.AperFunction,SMDPad,CuDef*%
%ADD33RoundRect,0.218750X-0.256250X0.218750X-0.256250X-0.218750X0.256250X-0.218750X0.256250X0.218750X0*%
%TD*%
%TA.AperFunction,SMDPad,CuDef*%
%ADD34RotRect,0.900000X1.700000X125.000000*%
%TD*%
%TA.AperFunction,SMDPad,CuDef*%
%ADD35RoundRect,0.112500X-0.112500X0.187500X-0.112500X-0.187500X0.112500X-0.187500X0.112500X0.187500X0*%
%TD*%
%TA.AperFunction,SMDPad,CuDef*%
%ADD36RoundRect,0.225000X0.375000X-0.225000X0.375000X0.225000X-0.375000X0.225000X-0.375000X-0.225000X0*%
%TD*%
%TA.AperFunction,SMDPad,CuDef*%
%ADD37RoundRect,0.250000X0.250000X0.475000X-0.250000X0.475000X-0.250000X-0.475000X0.250000X-0.475000X0*%
%TD*%
%TA.AperFunction,SMDPad,CuDef*%
%ADD38RotRect,0.900000X1.700000X305.000000*%
%TD*%
%TA.AperFunction,SMDPad,CuDef*%
%ADD39RoundRect,0.225000X-0.375000X0.225000X-0.375000X-0.225000X0.375000X-0.225000X0.375000X0.225000X0*%
%TD*%
%TA.AperFunction,SMDPad,CuDef*%
%ADD40RotRect,0.900000X1.700000X235.000000*%
%TD*%
%TA.AperFunction,SMDPad,CuDef*%
%ADD41R,0.350000X0.350000*%
%TD*%
%TA.AperFunction,SMDPad,CuDef*%
%ADD42R,0.300000X0.350000*%
%TD*%
%TA.AperFunction,SMDPad,CuDef*%
%ADD43R,0.350000X0.250000*%
%TD*%
%TA.AperFunction,SMDPad,CuDef*%
%ADD44R,0.300000X0.300000*%
%TD*%
%TA.AperFunction,SMDPad,CuDef*%
%ADD45R,0.600000X0.600000*%
%TD*%
%TA.AperFunction,SMDPad,CuDef*%
%ADD46RoundRect,0.087500X-0.087500X0.225000X-0.087500X-0.225000X0.087500X-0.225000X0.087500X0.225000X0*%
%TD*%
%TA.AperFunction,SMDPad,CuDef*%
%ADD47RoundRect,0.087500X-0.225000X0.087500X-0.225000X-0.087500X0.225000X-0.087500X0.225000X0.087500X0*%
%TD*%
%TA.AperFunction,SMDPad,CuDef*%
%ADD48R,0.250000X0.900000*%
%TD*%
%TA.AperFunction,SMDPad,CuDef*%
%ADD49R,2.120000X1.310000*%
%TD*%
%TA.AperFunction,ViaPad*%
%ADD50C,0.500000*%
%TD*%
%TA.AperFunction,ViaPad*%
%ADD51C,0.800000*%
%TD*%
%TA.AperFunction,Conductor*%
%ADD52C,0.230000*%
%TD*%
%TA.AperFunction,Conductor*%
%ADD53C,0.150000*%
%TD*%
G04 APERTURE END LIST*
D10*
%TO.P,D1,1*%
%TO.N,GND*%
X138049000Y-93091000D03*
%TO.P,D1,2*%
%TO.N,/D-*%
X138049000Y-94411000D03*
%TD*%
D11*
%TO.P,C21,1*%
%TO.N,Net-(U2-PB2)*%
X156000000Y-100070000D03*
%TO.P,C21,2*%
%TO.N,GND*%
X156960000Y-100070000D03*
%TD*%
D12*
%TO.P,P1,1*%
%TO.N,N/C*%
X135551000Y-91680000D03*
%TO.P,P1,2*%
X135551000Y-100320000D03*
D13*
%TO.P,P1,3*%
X131371000Y-91680000D03*
%TO.P,P1,4*%
X131371000Y-100320000D03*
D14*
%TO.P,P1,A1,GND*%
%TO.N,GND*%
X136201000Y-92650000D03*
%TO.P,P1,A4,VBUS*%
%TO.N,/VBUS*%
X136201000Y-93450000D03*
%TO.P,P1,A5,CC1*%
%TO.N,Net-(P1-CC1)*%
X136201000Y-94750000D03*
%TO.P,P1,A6,D+*%
%TO.N,/D+*%
X136201000Y-95750000D03*
%TO.P,P1,A7,D-*%
%TO.N,/D-*%
X136201000Y-96250000D03*
%TO.P,P1,A8,SBU1*%
%TO.N,unconnected-(P1-SBU1-PadA8)*%
X136201000Y-97250000D03*
%TO.P,P1,A9,VBUS*%
%TO.N,/VBUS*%
X136201000Y-98550000D03*
%TO.P,P1,A12,GND*%
%TO.N,GND*%
X136201000Y-99350000D03*
%TO.P,P1,B1,GND*%
X136201000Y-99050000D03*
%TO.P,P1,B4,VBUS*%
%TO.N,/VBUS*%
X136201000Y-98250000D03*
%TO.P,P1,B5,CC2*%
%TO.N,Net-(P1-CC2)*%
X136201000Y-97750000D03*
%TO.P,P1,B6,D+*%
%TO.N,/D+*%
X136201000Y-96750000D03*
%TO.P,P1,B7,D-*%
%TO.N,/D-*%
X136201000Y-95250000D03*
%TO.P,P1,B8,SBU2*%
%TO.N,unconnected-(P1-SBU2-PadB8)*%
X136201000Y-94250000D03*
%TO.P,P1,B9,VBUS*%
%TO.N,/VBUS*%
X136201000Y-93750000D03*
%TO.P,P1,B12,GND*%
%TO.N,GND*%
X136201000Y-92950000D03*
%TD*%
D15*
%TO.P,Q1,1,B*%
%TO.N,/VIB*%
X147662500Y-102555000D03*
%TO.P,Q1,2,E*%
%TO.N,Net-(D9-K)*%
X147662500Y-104455000D03*
%TO.P,Q1,3,C*%
%TO.N,/EPD_VDD*%
X149537500Y-103505000D03*
%TD*%
D16*
%TO.P,L1,1,1*%
%TO.N,/EPD_VDD*%
X138170000Y-88750000D03*
%TO.P,L1,2,2*%
%TO.N,Net-(D7-A)*%
X140970000Y-88750000D03*
%TD*%
D17*
%TO.P,J1,*%
%TO.N,*%
X140700000Y-82600000D03*
X140700000Y-85600000D03*
X146900000Y-82600000D03*
X146900000Y-85600000D03*
D18*
%TO.P,J1,1,Pin_1*%
%TO.N,/VCOM*%
X146000000Y-82460000D03*
%TO.P,J1,2,Pin_2*%
%TO.N,/VGL*%
X146000000Y-85740000D03*
%TO.P,J1,3,Pin_3*%
%TO.N,Net-(J1-Pin_3)*%
X145600000Y-82460000D03*
%TO.P,J1,4,Pin_4*%
%TO.N,/VGH*%
X145600000Y-85740000D03*
%TO.P,J1,5,Pin_5*%
%TO.N,Net-(J1-Pin_5)*%
X145200000Y-82460000D03*
%TO.P,J1,6,Pin_6*%
%TO.N,unconnected-(J1-Pin_6-Pad6)*%
X145200000Y-85740000D03*
%TO.P,J1,7,Pin_7*%
%TO.N,Net-(J1-Pin_7)*%
X144800000Y-82460000D03*
%TO.P,J1,8,Pin_8*%
%TO.N,GND*%
X144800000Y-85740000D03*
%TO.P,J1,9,Pin_9*%
%TO.N,/EPD_VDD*%
X144400000Y-82460000D03*
%TO.P,J1,10,Pin_10*%
%TO.N,/EPD_MOSI*%
X144400000Y-85740000D03*
%TO.P,J1,11,Pin_11*%
%TO.N,/EPD_SPICL*%
X144000000Y-82460000D03*
%TO.P,J1,12,Pin_12*%
%TO.N,/CSB*%
X144000000Y-85740000D03*
%TO.P,J1,13,Pin_13*%
%TO.N,/DC*%
X143600000Y-82460000D03*
%TO.P,J1,14,Pin_14*%
%TO.N,/RST_N*%
X143600000Y-85740000D03*
%TO.P,J1,15,Pin_15*%
%TO.N,/BUSY*%
X143200000Y-82460000D03*
%TO.P,J1,16,Pin_16*%
%TO.N,Net-(J1-Pin_16)*%
X143200000Y-85740000D03*
%TO.P,J1,17,Pin_17*%
%TO.N,unconnected-(J1-Pin_17-Pad17)*%
X142800000Y-82460000D03*
%TO.P,J1,18,Pin_18*%
%TO.N,unconnected-(J1-Pin_18-Pad18)*%
X142800000Y-85740000D03*
%TO.P,J1,19,Pin_19*%
%TO.N,Net-(J1-Pin_19)*%
X142400000Y-82460000D03*
%TO.P,J1,20,Pin_20*%
%TO.N,/RESR*%
X142400000Y-85740000D03*
%TO.P,J1,21,Pin_21*%
%TO.N,/GDR*%
X142000000Y-82460000D03*
%TO.P,J1,22,Pin_22*%
%TO.N,GND*%
X142000000Y-85740000D03*
%TO.P,J1,23,Pin_23*%
%TO.N,/FL+*%
X141600000Y-82460000D03*
%TO.P,J1,24,Pin_24*%
%TO.N,/FL-*%
X141600000Y-85740000D03*
%TD*%
D11*
%TO.P,C4,1*%
%TO.N,/VCOM*%
X148070000Y-83100000D03*
%TO.P,C4,2*%
%TO.N,GND*%
X149030000Y-83100000D03*
%TD*%
D19*
%TO.P,C11,1*%
%TO.N,Net-(D7-A)*%
X148800000Y-89550000D03*
%TO.P,C11,2*%
%TO.N,Net-(D5-A)*%
X150700000Y-89550000D03*
%TD*%
D10*
%TO.P,D4,1*%
%TO.N,GND*%
X138049000Y-100253000D03*
%TO.P,D4,2*%
%TO.N,/VBUS*%
X138049000Y-98933000D03*
%TD*%
D20*
%TO.P,R2,1*%
%TO.N,/EPD_VDD*%
X147410000Y-97830000D03*
%TO.P,R2,2*%
%TO.N,/Accel_SCL*%
X147410000Y-98850000D03*
%TD*%
D21*
%TO.P,R1,1*%
%TO.N,Net-(PS1-ISET)*%
X137860000Y-106070000D03*
%TO.P,R1,2*%
%TO.N,Net-(R1-Pad2)*%
X137860000Y-105050000D03*
%TD*%
D22*
%TO.P,C15,1*%
%TO.N,/VBUS*%
X141470000Y-93140000D03*
%TO.P,C15,2*%
%TO.N,GND*%
X141470000Y-92180000D03*
%TD*%
D11*
%TO.P,C14,1*%
%TO.N,/EPD_VDD*%
X144520000Y-101100000D03*
%TO.P,C14,2*%
%TO.N,GND*%
X145480000Y-101100000D03*
%TD*%
D23*
%TO.P,C25,1*%
%TO.N,/EPD_VDD*%
X143225000Y-96120000D03*
%TO.P,C25,2*%
%TO.N,GND*%
X143225000Y-97080000D03*
%TD*%
%TO.P,C12,1*%
%TO.N,Net-(J3-Pin_1)*%
X143180000Y-107660000D03*
%TO.P,C12,2*%
%TO.N,GND*%
X143180000Y-108620000D03*
%TD*%
D22*
%TO.P,C16,1*%
%TO.N,/EPD_VDD*%
X146300000Y-94800000D03*
%TO.P,C16,2*%
%TO.N,GND*%
X146300000Y-93840000D03*
%TD*%
D11*
%TO.P,C13,1*%
%TO.N,/VBUS*%
X142740000Y-103650000D03*
%TO.P,C13,2*%
%TO.N,GND*%
X143700000Y-103650000D03*
%TD*%
D24*
%TO.P,R15,1*%
%TO.N,Net-(U1-TXD)*%
X143500000Y-94000000D03*
%TO.P,R15,2*%
%TO.N,Net-(JP1-A)*%
X144520000Y-94000000D03*
%TD*%
D25*
%TO.P,D2,1,K*%
%TO.N,/CHG*%
X137760000Y-103357500D03*
%TO.P,D2,2,A*%
%TO.N,Net-(D2-A)*%
X137760000Y-101782500D03*
%TD*%
D26*
%TO.P,D5,1,K*%
%TO.N,GND*%
X152050000Y-91700000D03*
%TO.P,D5,2,A*%
%TO.N,Net-(D5-A)*%
X148750000Y-91700000D03*
%TD*%
D27*
%TO.P,U1,1,UD+*%
%TO.N,/D+*%
X139900000Y-99100000D03*
%TO.P,U1,2,UD-*%
%TO.N,/D-*%
X140400000Y-99100000D03*
%TO.P,U1,3,GND*%
%TO.N,GND*%
X140900000Y-99100000D03*
%TO.P,U1,4,~{RTS}*%
%TO.N,Net-(U1-~{RTS})*%
X141400000Y-99100000D03*
%TO.P,U1,5,~{CTS}*%
%TO.N,unconnected-(U1-~{CTS}-Pad5)*%
X141900000Y-99100000D03*
%TO.P,U1,6,TNOW*%
%TO.N,Net-(U1-TNOW)*%
X141900000Y-94700000D03*
%TO.P,U1,7,VCC*%
%TO.N,/VBUS*%
X141400000Y-94700000D03*
%TO.P,U1,8,TXD*%
%TO.N,Net-(U1-TXD)*%
X140900000Y-94700000D03*
%TO.P,U1,9,RXD*%
%TO.N,Net-(U1-RXD)*%
X140400000Y-94700000D03*
%TO.P,U1,10,V3*%
%TO.N,Net-(U1-V3)*%
X139900000Y-94700000D03*
%TD*%
D21*
%TO.P,R9,1*%
%TO.N,Net-(R1-Pad2)*%
X136850000Y-106080000D03*
%TO.P,R9,2*%
%TO.N,GND*%
X136850000Y-105060000D03*
%TD*%
D28*
%TO.P,J3,1,Pin_1*%
%TO.N,Net-(J3-Pin_1)*%
X141665000Y-107800000D03*
%TO.P,J3,2,Pin_2*%
%TO.N,GND*%
X140365000Y-107800000D03*
%TO.P,J3,3,Pin_3*%
%TO.N,Net-(J3-Pin_3)*%
X139065000Y-107800000D03*
%TD*%
D29*
%TO.P,C8,1*%
%TO.N,Net-(J1-Pin_19)*%
X136830000Y-86150000D03*
%TO.P,C8,2*%
%TO.N,GND*%
X135870000Y-86150000D03*
%TD*%
D23*
%TO.P,C19,1*%
%TO.N,Net-(U2-PB1)*%
X153130000Y-100060000D03*
%TO.P,C19,2*%
%TO.N,GND*%
X153130000Y-101020000D03*
%TD*%
%TO.P,C2,1*%
%TO.N,/EPD_VDD*%
X136800000Y-89120000D03*
%TO.P,C2,2*%
%TO.N,GND*%
X136800000Y-90080000D03*
%TD*%
D11*
%TO.P,C22,1*%
%TO.N,Net-(PS1-SYS)*%
X144520000Y-102100000D03*
%TO.P,C22,2*%
%TO.N,GND*%
X145480000Y-102100000D03*
%TD*%
D30*
%TO.P,R3,1*%
%TO.N,GND*%
X136400000Y-101580000D03*
%TO.P,R3,2*%
%TO.N,Net-(P1-CC2)*%
X135380000Y-101580000D03*
%TD*%
D11*
%TO.P,C20,1*%
%TO.N,Net-(U2-PB0)*%
X154090000Y-100080000D03*
%TO.P,C20,2*%
%TO.N,GND*%
X155050000Y-100080000D03*
%TD*%
D31*
%TO.P,Q3,1,G*%
%TO.N,/GDR*%
X139400000Y-83720000D03*
%TO.P,Q3,2,S*%
%TO.N,/RESR*%
X138100000Y-83720000D03*
%TO.P,Q3,3,D*%
%TO.N,Net-(D7-A)*%
X138750000Y-85720000D03*
%TD*%
D21*
%TO.P,R14,1*%
%TO.N,Net-(U1-TNOW)*%
X142460000Y-93190000D03*
%TO.P,R14,2*%
%TO.N,Net-(D6-A)*%
X142460000Y-92170000D03*
%TD*%
D32*
%TO.P,SW1,1*%
%TO.N,/BTN_1*%
X132224920Y-89492558D03*
%TO.P,SW1,2*%
%TO.N,GND*%
X134175080Y-86707442D03*
%TD*%
D33*
%TO.P,D6,1,K*%
%TO.N,GND*%
X142560000Y-89442500D03*
%TO.P,D6,2,A*%
%TO.N,Net-(D6-A)*%
X142560000Y-91017500D03*
%TD*%
D24*
%TO.P,R4,1*%
%TO.N,GND*%
X137537000Y-91821000D03*
%TO.P,R4,2*%
%TO.N,Net-(P1-CC1)*%
X138557000Y-91821000D03*
%TD*%
D22*
%TO.P,C1,1*%
%TO.N,/EPD_VDD*%
X136800000Y-88100000D03*
%TO.P,C1,2*%
%TO.N,GND*%
X136800000Y-87140000D03*
%TD*%
D34*
%TO.P,SW4,1*%
%TO.N,/BTN_4*%
X134175080Y-105292558D03*
%TO.P,SW4,2*%
%TO.N,GND*%
X132224920Y-102507442D03*
%TD*%
D24*
%TO.P,R16,1*%
%TO.N,Net-(U1-RXD)*%
X143480000Y-95000000D03*
%TO.P,R16,2*%
%TO.N,Net-(JP1-B)*%
X144500000Y-95000000D03*
%TD*%
D10*
%TO.P,D3,1*%
%TO.N,GND*%
X138049000Y-97332000D03*
%TO.P,D3,2*%
%TO.N,/D+*%
X138049000Y-96012000D03*
%TD*%
D22*
%TO.P,C9,1*%
%TO.N,/EPD_VDD*%
X147300000Y-94800000D03*
%TO.P,C9,2*%
%TO.N,GND*%
X147300000Y-93840000D03*
%TD*%
D35*
%TO.P,D9,1,K*%
%TO.N,Net-(D9-K)*%
X146150000Y-105942500D03*
%TO.P,D9,2,A*%
%TO.N,GND*%
X146150000Y-108042500D03*
%TD*%
D36*
%TO.P,D8,1,K*%
%TO.N,Net-(D5-A)*%
X146850000Y-92600000D03*
%TO.P,D8,2,A*%
%TO.N,/VGL*%
X146850000Y-89300000D03*
%TD*%
D37*
%TO.P,C3,1*%
%TO.N,/VGH*%
X144860000Y-87770000D03*
%TO.P,C3,2*%
%TO.N,GND*%
X142960000Y-87770000D03*
%TD*%
D28*
%TO.P,M1,1,+*%
%TO.N,Net-(D9-K)*%
X148250000Y-106600000D03*
%TO.P,M1,2,-*%
%TO.N,GND*%
X149550000Y-106600000D03*
%TD*%
D38*
%TO.P,SW2,1*%
%TO.N,GND*%
X153424920Y-86707442D03*
%TO.P,SW2,2*%
%TO.N,/BTN_2*%
X155375080Y-89492558D03*
%TD*%
D22*
%TO.P,C24,1*%
%TO.N,/EPD_VDD*%
X143225000Y-98960000D03*
%TO.P,C24,2*%
%TO.N,GND*%
X143225000Y-98000000D03*
%TD*%
D23*
%TO.P,C7,1*%
%TO.N,Net-(J1-Pin_7)*%
X148082000Y-85070000D03*
%TO.P,C7,2*%
%TO.N,GND*%
X148082000Y-86030000D03*
%TD*%
D11*
%TO.P,C23,1*%
%TO.N,Net-(D9-K)*%
X147660000Y-108400000D03*
%TO.P,C23,2*%
%TO.N,GND*%
X148620000Y-108400000D03*
%TD*%
D24*
%TO.P,R6,1*%
%TO.N,GND*%
X135830000Y-85150000D03*
%TO.P,R6,2*%
%TO.N,/RESR*%
X136850000Y-85150000D03*
%TD*%
D11*
%TO.P,C18,1*%
%TO.N,Net-(U1-~{RTS})*%
X144420000Y-99500000D03*
%TO.P,C18,2*%
%TO.N,/NRST*%
X145380000Y-99500000D03*
%TD*%
D39*
%TO.P,D7,1,K*%
%TO.N,/VGH*%
X144450000Y-89480000D03*
%TO.P,D7,2,A*%
%TO.N,Net-(D7-A)*%
X144450000Y-92780000D03*
%TD*%
D20*
%TO.P,R7,1*%
%TO.N,/EPD_VDD*%
X147406019Y-95750666D03*
%TO.P,R7,2*%
%TO.N,/Accel_SDA*%
X147406019Y-96770666D03*
%TD*%
D23*
%TO.P,C6,1*%
%TO.N,Net-(J1-Pin_5)*%
X149100000Y-85070000D03*
%TO.P,C6,2*%
%TO.N,GND*%
X149100000Y-86030000D03*
%TD*%
D19*
%TO.P,C10,1*%
%TO.N,/VGL*%
X146450000Y-87550000D03*
%TO.P,C10,2*%
%TO.N,GND*%
X148350000Y-87550000D03*
%TD*%
D11*
%TO.P,C5,1*%
%TO.N,Net-(J1-Pin_3)*%
X148080000Y-84030000D03*
%TO.P,C5,2*%
%TO.N,GND*%
X149040000Y-84030000D03*
%TD*%
D40*
%TO.P,SW3,1*%
%TO.N,/BTN_3*%
X155375080Y-102507442D03*
%TO.P,SW3,2*%
%TO.N,GND*%
X153424920Y-105292558D03*
%TD*%
D41*
%TO.P,U2,1,VSS*%
%TO.N,GND*%
X157610000Y-93460000D03*
D42*
%TO.P,U2,2,VSS*%
X157010000Y-93460000D03*
%TO.P,U2,3,VSS*%
X156410000Y-93460000D03*
%TO.P,U2,4,VSS*%
X155810000Y-93460000D03*
%TO.P,U2,5,VSSRF*%
X155210000Y-93460000D03*
%TO.P,U2,6,ANT_IN*%
%TO.N,Net-(U2-ANT_IN)*%
X154600000Y-93460000D03*
%TO.P,U2,7,ANT_OUT*%
X154070000Y-93460000D03*
%TO.P,U2,8,VSSRF*%
%TO.N,GND*%
X153570000Y-93460000D03*
%TO.P,U2,9,PA4*%
%TO.N,/BTN_1*%
X153070000Y-93460000D03*
%TO.P,U2,10,PA8*%
%TO.N,/BTN_2*%
X152570000Y-93460000D03*
%TO.P,U2,11,PA1*%
%TO.N,/EPD_SPICL*%
X152070000Y-93460000D03*
%TO.P,U2,12,PA6*%
%TO.N,/DC*%
X151570000Y-93460000D03*
%TO.P,U2,13,PA2*%
%TO.N,/BUSY*%
X151060000Y-93460000D03*
%TO.P,U2,14,PB8*%
%TO.N,/CSB*%
X150560000Y-93460000D03*
%TO.P,U2,15,VSS*%
%TO.N,GND*%
X150060000Y-93460000D03*
%TO.P,U2,16,VDDA*%
%TO.N,/EPD_VDD*%
X149560000Y-93460000D03*
%TO.P,U2,17,VSS*%
%TO.N,GND*%
X149060000Y-93460000D03*
D41*
%TO.P,U2,18,VBAT*%
%TO.N,/EPD_VDD*%
X148530000Y-93460000D03*
D43*
%TO.P,U2,19,VSS*%
%TO.N,GND*%
X148530000Y-93980000D03*
%TO.P,U2,20,VDDSMPS*%
%TO.N,/EPD_VDD*%
X148530000Y-94430000D03*
%TO.P,U2,21,VSSSMPS*%
%TO.N,GND*%
X148530000Y-94880000D03*
%TO.P,U2,22,BOOT0*%
%TO.N,unconnected-(U2-BOOT0-Pad22)*%
X148530000Y-95330000D03*
%TO.P,U2,23,NRST*%
%TO.N,/NRST*%
X148530000Y-95780000D03*
%TO.P,U2,24,VSS*%
%TO.N,GND*%
X148530000Y-96230000D03*
%TO.P,U2,25,PB7*%
%TO.N,/Accel_SDA*%
X148530000Y-96680000D03*
%TO.P,U2,26,PB5*%
%TO.N,/EPD_MOSI*%
X148530000Y-97130000D03*
%TO.P,U2,27,PB6*%
%TO.N,/Accel_SCL*%
X148530000Y-97580000D03*
%TO.P,U2,28,PA3*%
%TO.N,/BATMS*%
X148530000Y-98030000D03*
%TO.P,U2,29,PA7*%
%TO.N,/RST_N*%
X148530000Y-98480000D03*
D41*
%TO.P,U2,30,PA12*%
%TO.N,/BTN_3*%
X148530000Y-99000000D03*
D42*
%TO.P,U2,31,VSS*%
%TO.N,GND*%
X149060000Y-99000000D03*
%TO.P,U2,32,PA11*%
%TO.N,/VIB*%
X149560000Y-99000000D03*
%TO.P,U2,33,PB4*%
%TO.N,/Accel_INT1*%
X150060000Y-99000000D03*
%TO.P,U2,34,PA14*%
%TO.N,/SWDCLK*%
X150560000Y-99000000D03*
%TO.P,U2,35,PA13*%
%TO.N,/SWDIO*%
X151060000Y-99000000D03*
%TO.P,U2,36,PA10*%
%TO.N,/RXD*%
X151570000Y-99000000D03*
%TO.P,U2,37,PA0*%
%TO.N,/BTN_4*%
X152070000Y-99000000D03*
%TO.P,U2,38,PA9*%
%TO.N,/TXD*%
X152570000Y-99000000D03*
%TO.P,U2,39,PA5*%
%TO.N,/Accel_CS*%
X153070000Y-99000000D03*
%TO.P,U2,40,PB1*%
%TO.N,Net-(U2-PB1)*%
X153570000Y-99000000D03*
%TO.P,U2,41,PB0*%
%TO.N,Net-(U2-PB0)*%
X154070000Y-99000000D03*
%TO.P,U2,42,PB2*%
%TO.N,Net-(U2-PB2)*%
X154600000Y-99000000D03*
%TO.P,U2,43,VSS*%
%TO.N,GND*%
X155210000Y-99000000D03*
%TO.P,U2,44,VSS*%
X155810000Y-99000000D03*
%TO.P,U2,45,VSS*%
X156410000Y-99000000D03*
%TO.P,U2,46,VSS*%
X157010000Y-99000000D03*
%TO.P,U2,47,VSS*%
X157610000Y-99000000D03*
D44*
%TO.P,U2,48,VSS*%
X157610000Y-98480000D03*
%TO.P,U2,49,VSS*%
X157010000Y-98480000D03*
%TO.P,U2,50,VSS*%
X156410000Y-98480000D03*
%TO.P,U2,51,VSS*%
X155810000Y-98480000D03*
%TO.P,U2,52,VSS*%
X155210000Y-98480000D03*
D43*
%TO.P,U2,53,VSS*%
X154600000Y-98480000D03*
%TO.P,U2,54,VSS*%
X154600000Y-98030000D03*
%TO.P,U2,55,VSS*%
X154600000Y-97580000D03*
%TO.P,U2,56,VSS*%
X154600000Y-97130000D03*
%TO.P,U2,57,VSS*%
X154600000Y-96680000D03*
%TO.P,U2,58,VSS*%
X154600000Y-96230000D03*
%TO.P,U2,59,VSS*%
X154600000Y-95780000D03*
%TO.P,U2,60,VSS*%
X154600000Y-95330000D03*
%TO.P,U2,61,VSS*%
X154600000Y-94880000D03*
%TO.P,U2,62,VSS*%
X154600000Y-94430000D03*
%TO.P,U2,63,VSS*%
X154600000Y-93980000D03*
D44*
%TO.P,U2,64,VSS*%
X155210000Y-93980000D03*
%TO.P,U2,65,VSS*%
X155810000Y-93980000D03*
%TO.P,U2,66,VSS*%
X156410000Y-93980000D03*
%TO.P,U2,67,VSS*%
X157010000Y-93980000D03*
%TO.P,U2,68,VSS*%
X157610000Y-93980000D03*
D45*
%TO.P,U2,69,VSS*%
X152620000Y-95280000D03*
%TO.P,U2,70,VSS*%
X151570000Y-95280000D03*
%TO.P,U2,71,VSS*%
X150520000Y-95280000D03*
%TO.P,U2,72,VSS*%
X150520000Y-96230000D03*
%TO.P,U2,73,VSS*%
X151570000Y-96230000D03*
%TO.P,U2,74,VSS*%
X152620000Y-96230000D03*
%TO.P,U2,75,VSS*%
X152620000Y-97180000D03*
%TO.P,U2,76,VSS*%
X151570000Y-97180000D03*
%TO.P,U2,77,VSS*%
X150520000Y-97180000D03*
%TD*%
D30*
%TO.P,R5,1*%
%TO.N,/EPD_VDD*%
X142560000Y-100800000D03*
%TO.P,R5,2*%
%TO.N,Net-(D2-A)*%
X141540000Y-100800000D03*
%TD*%
D22*
%TO.P,C17,1*%
%TO.N,Net-(U1-V3)*%
X139500000Y-93020000D03*
%TO.P,C17,2*%
%TO.N,GND*%
X139500000Y-92060000D03*
%TD*%
D46*
%TO.P,U3,1,SDO/SA0*%
%TO.N,unconnected-(U3-SDO{slash}SA0-Pad1)*%
X146070000Y-96097500D03*
%TO.P,U3,2,SDX*%
%TO.N,unconnected-(U3-SDX-Pad2)*%
X145570000Y-96097500D03*
%TO.P,U3,3,SCX*%
%TO.N,unconnected-(U3-SCX-Pad3)*%
X145070000Y-96097500D03*
%TO.P,U3,4,INT1*%
%TO.N,/Accel_INT1*%
X144570000Y-96097500D03*
D47*
%TO.P,U3,5,VDDIO*%
%TO.N,/EPD_VDD*%
X144407500Y-96760000D03*
%TO.P,U3,6,GND*%
%TO.N,GND*%
X144407500Y-97260000D03*
%TO.P,U3,7,GND*%
X144407500Y-97760000D03*
D46*
%TO.P,U3,8,VDD*%
%TO.N,/EPD_VDD*%
X144570000Y-98422500D03*
%TO.P,U3,9,INT2*%
%TO.N,unconnected-(U3-INT2-Pad9)*%
X145070000Y-98422500D03*
%TO.P,U3,10,NC*%
%TO.N,unconnected-(U3-NC-Pad10)*%
X145570000Y-98422500D03*
%TO.P,U3,11,NC*%
%TO.N,unconnected-(U3-NC-Pad11)*%
X146070000Y-98422500D03*
D47*
%TO.P,U3,12,CS*%
%TO.N,/Accel_CS*%
X146232500Y-97760000D03*
%TO.P,U3,13,SCL*%
%TO.N,/Accel_SCL*%
X146232500Y-97260000D03*
%TO.P,U3,14,SDA*%
%TO.N,/Accel_SDA*%
X146232500Y-96760000D03*
%TD*%
D48*
%TO.P,PS1,1,IN*%
%TO.N,/VBUS*%
X141525000Y-102550000D03*
%TO.P,PS1,2,SYS*%
%TO.N,Net-(PS1-SYS)*%
X141075000Y-102550000D03*
%TO.P,PS1,3,LDO*%
%TO.N,/EPD_VDD*%
X140625000Y-102550000D03*
%TO.P,PS1,4,SD*%
%TO.N,/SD*%
X140175000Y-102550000D03*
%TO.P,PS1,5,CHG*%
%TO.N,/CHG*%
X139725000Y-102550000D03*
%TO.P,PS1,6,CEN*%
%TO.N,unconnected-(PS1-CEN-Pad6)*%
X139275000Y-102550000D03*
%TO.P,PS1,7,GND*%
%TO.N,GND*%
X139275000Y-105450000D03*
%TO.P,PS1,8,NTC*%
%TO.N,Net-(J3-Pin_3)*%
X139725000Y-105450000D03*
%TO.P,PS1,9,ISET*%
%TO.N,Net-(PS1-ISET)*%
X140175000Y-105450000D03*
%TO.P,PS1,10,BATMS*%
%TO.N,/BATMS*%
X140625000Y-105450000D03*
%TO.P,PS1,11,BATSNS*%
%TO.N,Net-(J3-Pin_1)*%
X141075000Y-105450000D03*
%TO.P,PS1,12,BAT*%
X141525000Y-105450000D03*
D49*
%TO.P,PS1,13,EP*%
%TO.N,GND*%
X140400000Y-104000000D03*
%TD*%
D50*
%TO.N,GND*%
X134750000Y-85450000D03*
X156500000Y-101300000D03*
X153700000Y-90700000D03*
X149277183Y-96650407D03*
X143900000Y-88370000D03*
X141900000Y-104000000D03*
X145450000Y-95080000D03*
X150300000Y-86000000D03*
X141300000Y-97000000D03*
X140670000Y-91380000D03*
X131390000Y-95560000D03*
X135800000Y-103140000D03*
X136900000Y-90800000D03*
X144650000Y-104800000D03*
X145160000Y-97500000D03*
X156700000Y-90500000D03*
X154300000Y-92600000D03*
D51*
%TO.N,/VBUS*%
X138600001Y-99399999D03*
X133950000Y-98650000D03*
X134800000Y-97151000D03*
X142699990Y-104600000D03*
X140447700Y-93002300D03*
D50*
%TO.N,/EPD_VDD*%
X145459897Y-96911210D03*
X146698823Y-95658541D03*
X140470000Y-101580000D03*
X144382487Y-83335777D03*
X139500000Y-91000000D03*
X142420000Y-96840000D03*
X136033821Y-88566183D03*
X147950000Y-97310000D03*
%TO.N,Net-(PS1-ISET)*%
X138600000Y-106400000D03*
X139780000Y-106640000D03*
%TO.N,/CSB*%
X150495725Y-94497477D03*
X144010000Y-84960000D03*
%TO.N,/DC*%
X143022574Y-83822781D03*
X151854094Y-94491921D03*
%TO.N,/RST_N*%
X152689703Y-97880000D03*
X143219998Y-86600002D03*
%TO.N,/BUSY*%
X142425001Y-84095001D03*
X151180000Y-94510000D03*
%TO.N,/RESR*%
X138760002Y-84580000D03*
X140174822Y-84574822D03*
%TO.N,/BATMS*%
X141010000Y-106300000D03*
X149370000Y-98005000D03*
%TO.N,/NRST*%
X148420000Y-101360000D03*
X146270000Y-99310000D03*
X146803864Y-96300000D03*
%TO.N,/SWDIO*%
X150484857Y-100715737D03*
%TO.N,/SWDCLK*%
X150045439Y-100236765D03*
%TO.N,/BTN_1*%
X153070000Y-93980000D03*
X135200000Y-89099990D03*
%TO.N,/BTN_4*%
X151570000Y-100530000D03*
X135800000Y-104200000D03*
%TO.N,Net-(JP1-A)*%
X143080000Y-92680000D03*
%TO.N,/TXD*%
X152239992Y-98410000D03*
%TO.N,Net-(JP1-B)*%
X146003805Y-91703805D03*
X145280000Y-94220000D03*
%TO.N,/RXD*%
X151570000Y-98500010D03*
%TO.N,/Accel_INT1*%
X150037434Y-99549007D03*
X144100000Y-95700004D03*
%TO.N,/EPD_MOSI*%
X149775380Y-94448885D03*
X143901008Y-86608992D03*
%TO.N,/EPD_SPICL*%
X152560000Y-94530000D03*
X143738845Y-83535723D03*
%TO.N,Net-(J1-Pin_16)*%
X143170028Y-84939986D03*
%TO.N,/VIB*%
X149255876Y-102785876D03*
X150598102Y-101355799D03*
%TO.N,/Accel_CS*%
X146670000Y-98680000D03*
X152190000Y-100120000D03*
%TD*%
D52*
%TO.N,GND*%
X148935000Y-94880000D02*
X148970000Y-94845000D01*
D53*
X144820000Y-97230000D02*
X144890000Y-97230000D01*
X149060000Y-100489449D02*
X150410551Y-101840000D01*
D52*
X150060000Y-93767035D02*
X150060000Y-93460000D01*
D53*
X157010000Y-93460000D02*
X157010000Y-93980000D01*
X148933000Y-94804000D02*
X148857000Y-94880000D01*
X148857000Y-94880000D02*
X148530000Y-94880000D01*
X149060000Y-93787000D02*
X149136000Y-93863000D01*
X143419264Y-87770000D02*
X142960000Y-87770000D01*
X149060000Y-93777000D02*
X149060000Y-93460000D01*
D52*
X142000000Y-85740000D02*
X142000000Y-86810000D01*
D53*
X138085000Y-91273000D02*
X139073000Y-91273000D01*
X137146000Y-99350000D02*
X138049000Y-100253000D01*
X152310000Y-101840000D02*
X153130000Y-101020000D01*
D52*
X148530000Y-94880000D02*
X148935000Y-94880000D01*
D53*
X149060000Y-99000000D02*
X149060000Y-100489449D01*
X157610000Y-98480000D02*
X157610000Y-99000000D01*
X154600000Y-98480000D02*
X157610000Y-98480000D01*
D52*
X142000000Y-86810000D02*
X142960000Y-87770000D01*
X149060000Y-93855000D02*
X149060000Y-93460000D01*
D53*
X150060000Y-93787000D02*
X150060000Y-93460000D01*
X149060000Y-93460000D02*
X149060000Y-93787000D01*
X139073000Y-91273000D02*
X139637000Y-91837000D01*
X157010000Y-98480000D02*
X157010000Y-99000000D01*
D52*
X149095000Y-93900000D02*
X149927035Y-93900000D01*
X148970000Y-94040000D02*
X148910000Y-93980000D01*
D53*
X149984000Y-93863000D02*
X150060000Y-93787000D01*
D52*
X149927035Y-93900000D02*
X150060000Y-93767035D01*
X148935000Y-93980000D02*
X149060000Y-93855000D01*
D53*
X155810000Y-99000000D02*
X155810000Y-98480000D01*
X143120000Y-88370000D02*
X142600000Y-88890000D01*
D52*
X149060000Y-93460000D02*
X149060000Y-93865000D01*
D53*
X154600000Y-98480000D02*
X154600000Y-93980000D01*
X157610000Y-99000000D02*
X155210000Y-99000000D01*
X150410551Y-101840000D02*
X152310000Y-101840000D01*
X136408000Y-92950000D02*
X137537000Y-91821000D01*
X155210000Y-98480000D02*
X155210000Y-99000000D01*
X157610000Y-93980000D02*
X154600000Y-93980000D01*
X155210000Y-93460000D02*
X155210000Y-93980000D01*
D52*
X149060000Y-93865000D02*
X149095000Y-93900000D01*
D53*
X148530000Y-93980000D02*
X148857000Y-93980000D01*
X155810000Y-93460000D02*
X155810000Y-93980000D01*
X139275000Y-104981009D02*
X140256009Y-104000000D01*
X148857000Y-93980000D02*
X149060000Y-93777000D01*
X148933000Y-94056000D02*
X148933000Y-94804000D01*
X144890000Y-97230000D02*
X145160000Y-97500000D01*
X144320000Y-97730000D02*
X144820000Y-97230000D01*
X142600000Y-88890000D02*
X142600000Y-89225000D01*
X156410000Y-93460000D02*
X156410000Y-93980000D01*
X157610000Y-93460000D02*
X155210000Y-93460000D01*
D52*
X148910000Y-93980000D02*
X148530000Y-93980000D01*
D53*
X148857000Y-93980000D02*
X148933000Y-94056000D01*
X137537000Y-91821000D02*
X138085000Y-91273000D01*
X144800000Y-86389264D02*
X143419264Y-87770000D01*
X139275000Y-105450000D02*
X139275000Y-104981009D01*
X145450000Y-94780000D02*
X145450000Y-95080000D01*
X156410000Y-98480000D02*
X156410000Y-99000000D01*
X146300000Y-93930000D02*
X145450000Y-94780000D01*
X138049000Y-93091000D02*
X138469000Y-93091000D01*
D52*
X148970000Y-94845000D02*
X148970000Y-94040000D01*
D53*
X148775000Y-108380000D02*
X148755000Y-108400000D01*
X138469000Y-93091000D02*
X139500000Y-92060000D01*
X136201000Y-99350000D02*
X137146000Y-99350000D01*
X144800000Y-85740000D02*
X144800000Y-86389264D01*
D52*
X148530000Y-93980000D02*
X148935000Y-93980000D01*
D53*
X143900000Y-88370000D02*
X143120000Y-88370000D01*
X157610000Y-93460000D02*
X157610000Y-93980000D01*
%TO.N,/D-*%
X138049000Y-94411000D02*
X137210000Y-95250000D01*
X135140000Y-95511000D02*
X135401000Y-95250000D01*
X136201000Y-96250000D02*
X135351000Y-96250000D01*
X135140000Y-96039000D02*
X135140000Y-95511000D01*
X135351000Y-96250000D02*
X135140000Y-96039000D01*
X137210000Y-95250000D02*
X136201000Y-95250000D01*
X138049000Y-94411000D02*
X138049000Y-94851000D01*
X135401000Y-95250000D02*
X136201000Y-95250000D01*
X138049000Y-94851000D02*
X140400000Y-97202000D01*
X140400000Y-97202000D02*
X140400000Y-99100000D01*
D52*
%TO.N,/VBUS*%
X134800000Y-94271000D02*
X134800000Y-97151000D01*
X141332300Y-93002300D02*
X140447700Y-93002300D01*
D53*
X133950000Y-98650000D02*
X134350000Y-98250000D01*
D52*
X135321000Y-93750000D02*
X134800000Y-94271000D01*
X135891000Y-98240000D02*
X136201000Y-98550000D01*
X134360000Y-98240000D02*
X135891000Y-98240000D01*
X133950000Y-98650000D02*
X134360000Y-98240000D01*
X136201000Y-98550000D02*
X137666000Y-98550000D01*
X142699990Y-104600000D02*
X142699990Y-103690010D01*
X138515999Y-99399999D02*
X138049000Y-98933000D01*
X136201000Y-93750000D02*
X135321000Y-93750000D01*
X137666000Y-98550000D02*
X138049000Y-98933000D01*
X140447700Y-93002300D02*
X141400000Y-93954600D01*
X142625000Y-103650000D02*
X141525000Y-102550000D01*
D53*
X142700000Y-103630000D02*
X142700000Y-104599990D01*
X142700000Y-104599990D02*
X142699990Y-104600000D01*
D52*
X141400000Y-93954600D02*
X141400000Y-94700000D01*
X138600001Y-99399999D02*
X138515999Y-99399999D01*
D53*
%TO.N,/D+*%
X138049000Y-96701000D02*
X138000000Y-96750000D01*
X137051000Y-96750000D02*
X136201000Y-96750000D01*
X137103000Y-96698000D02*
X137051000Y-96750000D01*
X138049000Y-96012000D02*
X138049000Y-96701000D01*
X136201000Y-96750000D02*
X138000000Y-96750000D01*
X137103000Y-95848000D02*
X137103000Y-96698000D01*
X137005000Y-95750000D02*
X137103000Y-95848000D01*
X138401000Y-96701000D02*
X139900000Y-98200000D01*
X138049000Y-96701000D02*
X138401000Y-96701000D01*
X139900000Y-98200000D02*
X139900000Y-99100000D01*
X136201000Y-95750000D02*
X137005000Y-95750000D01*
%TO.N,Net-(P1-CC2)*%
X133200000Y-98050000D02*
X133200000Y-99800000D01*
X133200000Y-99800000D02*
X134980000Y-101580000D01*
X134980000Y-101580000D02*
X135380000Y-101580000D01*
X133424000Y-97826000D02*
X133200000Y-98050000D01*
X136125000Y-97826000D02*
X133424000Y-97826000D01*
%TO.N,Net-(P1-CC1)*%
X136201000Y-94750000D02*
X137003000Y-94750000D01*
X137003000Y-94750000D02*
X137621000Y-94132000D01*
X137621000Y-92757000D02*
X138557000Y-91821000D01*
X137621000Y-94132000D02*
X137621000Y-92757000D01*
%TO.N,Net-(J1-Pin_5)*%
X146590000Y-84475000D02*
X145200000Y-83085000D01*
X148595000Y-84565000D02*
X147689264Y-84565000D01*
X147599264Y-84475000D02*
X146590000Y-84475000D01*
X145200000Y-83085000D02*
X145200000Y-82460000D01*
X149100000Y-85070000D02*
X148595000Y-84565000D01*
X147689264Y-84565000D02*
X147599264Y-84475000D01*
D52*
%TO.N,Net-(D5-A)*%
X147850000Y-92600000D02*
X148750000Y-91700000D01*
X146850000Y-92600000D02*
X147850000Y-92600000D01*
X150700000Y-89750000D02*
X148750000Y-91700000D01*
%TO.N,/VGH*%
X145600000Y-87030000D02*
X144860000Y-87770000D01*
X145600000Y-85740000D02*
X145600000Y-87030000D01*
X144860000Y-89070000D02*
X144450000Y-89480000D01*
X144860000Y-87770000D02*
X144860000Y-89070000D01*
%TO.N,Net-(D7-A)*%
X144450000Y-90900000D02*
X143790000Y-90240000D01*
X141150000Y-88150000D02*
X138750000Y-85750000D01*
X144450000Y-92780000D02*
X144450000Y-90900000D01*
X143790000Y-90240000D02*
X142010000Y-90240000D01*
X148335000Y-90015000D02*
X148800000Y-89550000D01*
X142010000Y-90240000D02*
X141000000Y-89230000D01*
X146885000Y-90015000D02*
X148335000Y-90015000D01*
X144450000Y-92450000D02*
X146885000Y-90015000D01*
%TO.N,/VGL*%
X146450000Y-87550000D02*
X146450000Y-88900000D01*
X146000000Y-86330000D02*
X146450000Y-86780000D01*
X146450000Y-86780000D02*
X146450000Y-87550000D01*
X146000000Y-85740000D02*
X146000000Y-86330000D01*
X146450000Y-88900000D02*
X146850000Y-89300000D01*
D53*
%TO.N,Net-(J3-Pin_3)*%
X139065000Y-106667000D02*
X139725000Y-106007000D01*
X139065000Y-107800000D02*
X139065000Y-106667000D01*
X139725000Y-106007000D02*
X139725000Y-105450000D01*
%TO.N,/VCOM*%
X147781569Y-83428000D02*
X146402486Y-83428000D01*
X146000000Y-83025514D02*
X146000000Y-82460000D01*
X146402486Y-83428000D02*
X146000000Y-83025514D01*
X148070000Y-83139569D02*
X147781569Y-83428000D01*
%TO.N,Net-(J1-Pin_3)*%
X146578528Y-84030000D02*
X145600000Y-83051472D01*
X148080000Y-84030000D02*
X146578528Y-84030000D01*
X145600000Y-83051472D02*
X145600000Y-82460000D01*
%TO.N,Net-(J1-Pin_7)*%
X147475000Y-84775000D02*
X146465736Y-84775000D01*
X148082000Y-85070000D02*
X147770000Y-85070000D01*
X144800000Y-83109264D02*
X144800000Y-82460000D01*
X146465736Y-84775000D02*
X144800000Y-83109264D01*
X147770000Y-85070000D02*
X147475000Y-84775000D01*
D52*
%TO.N,/EPD_VDD*%
X148530000Y-93055000D02*
X148565000Y-93020000D01*
D53*
X142580000Y-96840000D02*
X143300000Y-96120000D01*
X142420000Y-96840000D02*
X142580000Y-96840000D01*
D52*
X149200000Y-101990000D02*
X149830000Y-102620000D01*
X143910000Y-96730000D02*
X143300000Y-96120000D01*
X140470000Y-101580000D02*
X140625000Y-101735000D01*
X147670000Y-94430000D02*
X148530000Y-94430000D01*
X146698823Y-95658541D02*
X147300000Y-95057364D01*
X139500000Y-89975000D02*
X139500000Y-91000000D01*
X137925000Y-89100000D02*
X136920000Y-89100000D01*
X141825000Y-101535000D02*
X142560000Y-100800000D01*
D53*
X143860000Y-98400000D02*
X143300000Y-98960000D01*
D52*
X148530000Y-94430000D02*
X148125000Y-94430000D01*
X144080000Y-98400000D02*
X144500000Y-98400000D01*
X145278687Y-96730000D02*
X144320000Y-96730000D01*
X144520000Y-101100000D02*
X144220000Y-100800000D01*
X142420000Y-96840000D02*
X142505000Y-96840000D01*
X136587638Y-89120000D02*
X136033821Y-88566183D01*
X144320000Y-96730000D02*
X143840000Y-96730000D01*
X148090000Y-93495000D02*
X148125000Y-93460000D01*
X147300000Y-94800000D02*
X147670000Y-94430000D01*
X138275000Y-88750000D02*
X139500000Y-89975000D01*
X146698823Y-95658541D02*
X146790948Y-95750666D01*
D53*
X137905000Y-89120000D02*
X136587638Y-89120000D01*
D52*
X149560000Y-93255000D02*
X149560000Y-93460000D01*
X136900000Y-88100000D02*
X137625000Y-88100000D01*
X146790948Y-95750666D02*
X147406019Y-95750666D01*
X136900000Y-89120000D02*
X136587638Y-89120000D01*
X143840000Y-96730000D02*
X143805000Y-96765000D01*
X148125000Y-93460000D02*
X148530000Y-93460000D01*
X136900000Y-88100000D02*
X136500004Y-88100000D01*
X136500004Y-88100000D02*
X136033821Y-88566183D01*
X144399936Y-83318328D02*
X144382487Y-83335777D01*
X146684197Y-100525000D02*
X148149197Y-101990000D01*
D53*
X144500000Y-98400000D02*
X143860000Y-98400000D01*
D52*
X137625000Y-88100000D02*
X138275000Y-88750000D01*
X144320000Y-96730000D02*
X143910000Y-96730000D01*
X148149197Y-101990000D02*
X149200000Y-101990000D01*
X143805000Y-98125000D02*
X144080000Y-98400000D01*
X145459897Y-96911210D02*
X145278687Y-96730000D01*
X144220000Y-100800000D02*
X142560000Y-100800000D01*
X148090000Y-94395000D02*
X148090000Y-93495000D01*
X148565000Y-93020000D02*
X149325000Y-93020000D01*
X144520000Y-101100000D02*
X145095000Y-100525000D01*
X147950000Y-97310000D02*
X147890000Y-97310000D01*
X148125000Y-94430000D02*
X148090000Y-94395000D01*
X145095000Y-100525000D02*
X146684197Y-100525000D01*
X143805000Y-96765000D02*
X143805000Y-98125000D01*
X144399936Y-82460064D02*
X144399936Y-83318328D01*
X140625000Y-101735000D02*
X140625000Y-102550000D01*
X144500000Y-98400000D02*
X143785000Y-98400000D01*
X142505000Y-96840000D02*
X143225000Y-96120000D01*
X147300000Y-95057364D02*
X147300000Y-94800000D01*
X149325000Y-93020000D02*
X149560000Y-93255000D01*
X147300000Y-94800000D02*
X146300000Y-94800000D01*
X140470000Y-101580000D02*
X140515000Y-101535000D01*
X143785000Y-98400000D02*
X143225000Y-98960000D01*
X140515000Y-101535000D02*
X141825000Y-101535000D01*
X148530000Y-93460000D02*
X148530000Y-93055000D01*
X149830000Y-102620000D02*
X149830000Y-103212500D01*
X147890000Y-97310000D02*
X147500000Y-97700000D01*
X149830000Y-103212500D02*
X149537500Y-103505000D01*
D53*
%TO.N,/CHG*%
X137760000Y-103000000D02*
X139000000Y-101760000D01*
X139000000Y-101760000D02*
X139510000Y-101760000D01*
X139510000Y-101760000D02*
X139725000Y-101975000D01*
X139725000Y-101975000D02*
X139725000Y-102550000D01*
%TO.N,Net-(PS1-ISET)*%
X139780000Y-106640000D02*
X140175000Y-106245000D01*
X140175000Y-106245000D02*
X140175000Y-105450000D01*
X138190000Y-106400000D02*
X138600000Y-106400000D01*
X137860000Y-106070000D02*
X138190000Y-106400000D01*
%TO.N,/CSB*%
X144010000Y-84960000D02*
X144010000Y-85105000D01*
X150560000Y-93460000D02*
X150560000Y-94433202D01*
X150560000Y-94433202D02*
X150495725Y-94497477D01*
X144000000Y-85115000D02*
X144000000Y-85740000D01*
X144010000Y-85105000D02*
X144000000Y-85115000D01*
%TO.N,/DC*%
X151570000Y-94207827D02*
X151570000Y-93460000D01*
X143600000Y-82460000D02*
X143600000Y-83002815D01*
X151854094Y-94491921D02*
X151570000Y-94207827D01*
X143022574Y-83580241D02*
X143022574Y-83822781D01*
X143600000Y-83002815D02*
X143022574Y-83580241D01*
%TO.N,/RST_N*%
X143238246Y-86600002D02*
X143219998Y-86600002D01*
X143600000Y-86238248D02*
X143238246Y-86600002D01*
X151370000Y-97880000D02*
X152689703Y-97880000D01*
X143600000Y-85740000D02*
X143600000Y-86238248D01*
X150770000Y-98480000D02*
X151370000Y-97880000D01*
X148530000Y-98480000D02*
X150770000Y-98480000D01*
%TO.N,/BUSY*%
X151060000Y-94390000D02*
X151060000Y-93460000D01*
X143200000Y-82973603D02*
X142425001Y-83748602D01*
X143200000Y-82460000D02*
X143200000Y-82973603D01*
X151180000Y-94510000D02*
X151060000Y-94390000D01*
X142425001Y-83748602D02*
X142425001Y-84095001D01*
%TO.N,Net-(J1-Pin_19)*%
X139950000Y-84100000D02*
X138985000Y-85065000D01*
X142400000Y-82460000D02*
X142400000Y-83091000D01*
X138985000Y-85065000D02*
X137935000Y-85065000D01*
X142400000Y-83091000D02*
X141391000Y-84100000D01*
X141391000Y-84100000D02*
X139950000Y-84100000D01*
X137935000Y-85065000D02*
X136900000Y-86100000D01*
%TO.N,/RESR*%
X138806000Y-84580000D02*
X138760002Y-84580000D01*
X136910000Y-85100000D02*
X137430000Y-84580000D01*
X140174822Y-84574822D02*
X141774822Y-84574822D01*
X138100000Y-83720000D02*
X138883000Y-84503000D01*
X138883000Y-84503000D02*
X138806000Y-84580000D01*
X142400000Y-85200000D02*
X142400000Y-85740000D01*
X141774822Y-84574822D02*
X142400000Y-85200000D01*
X137430000Y-84580000D02*
X138760002Y-84580000D01*
%TO.N,/GDR*%
X140125000Y-83550000D02*
X139955000Y-83720000D01*
X139955000Y-83720000D02*
X139400000Y-83720000D01*
X142000000Y-82460000D02*
X142000000Y-83061080D01*
X142000000Y-83061080D02*
X141511080Y-83550000D01*
X141511080Y-83550000D02*
X140125000Y-83550000D01*
%TO.N,/BATMS*%
X149345000Y-98030000D02*
X149370000Y-98005000D01*
X141010000Y-106300000D02*
X140625000Y-105915000D01*
X148530000Y-98030000D02*
X149345000Y-98030000D01*
X140625000Y-105915000D02*
X140625000Y-105450000D01*
%TO.N,Net-(U1-V3)*%
X139900000Y-94700000D02*
X139500000Y-94300000D01*
X139500000Y-94300000D02*
X139500000Y-93020000D01*
%TO.N,Net-(PS1-SYS)*%
X141075000Y-101948000D02*
X141075000Y-102550000D01*
X141148000Y-101875000D02*
X141075000Y-101948000D01*
X144520000Y-102100000D02*
X144295000Y-101875000D01*
X144295000Y-101875000D02*
X141148000Y-101875000D01*
%TO.N,Net-(D2-A)*%
X141240000Y-101100000D02*
X138442500Y-101100000D01*
X138442500Y-101100000D02*
X137760000Y-101782500D01*
X141540000Y-100800000D02*
X141240000Y-101100000D01*
%TO.N,/NRST*%
X148232858Y-95780000D02*
X148530000Y-95780000D01*
X146803864Y-96300000D02*
X146843864Y-96260000D01*
X146370000Y-99310000D02*
X145570000Y-99310000D01*
X146843864Y-96260000D02*
X147752858Y-96260000D01*
X147752858Y-96260000D02*
X148232858Y-95780000D01*
X148420000Y-101360000D02*
X146370000Y-99310000D01*
%TO.N,/SWDIO*%
X151060000Y-99000000D02*
X151060000Y-100140594D01*
X151060000Y-100140594D02*
X150484857Y-100715737D01*
%TO.N,/SWDCLK*%
X150560000Y-99000000D02*
X150560000Y-99722204D01*
X150560000Y-99722204D02*
X150045439Y-100236765D01*
%TO.N,/Accel_SDA*%
X147590000Y-96750000D02*
X148460000Y-96750000D01*
X147376685Y-96800000D02*
X146250000Y-96800000D01*
X148460000Y-96750000D02*
X148530000Y-96680000D01*
%TO.N,/BTN_2*%
X152570000Y-93460000D02*
X152570000Y-93133000D01*
X152570000Y-93133000D02*
X155375080Y-90327920D01*
X155375080Y-90327920D02*
X155375080Y-89492558D01*
%TO.N,/BTN_1*%
X134199990Y-90100000D02*
X135200000Y-89099990D01*
X132832362Y-90100000D02*
X134199990Y-90100000D01*
X132124920Y-89392558D02*
X132832362Y-90100000D01*
X153070000Y-93460000D02*
X153070000Y-93980000D01*
%TO.N,/BTN_3*%
X151075736Y-103120000D02*
X148530000Y-100574264D01*
X155375080Y-102507442D02*
X154762522Y-103120000D01*
X148530000Y-100574264D02*
X148530000Y-99000000D01*
X154762522Y-103120000D02*
X151075736Y-103120000D01*
%TO.N,/BTN_4*%
X151570000Y-100058246D02*
X151570000Y-100530000D01*
X135800000Y-104200000D02*
X135267638Y-104200000D01*
X152070000Y-99000000D02*
X152070000Y-99558246D01*
X152070000Y-99558246D02*
X151570000Y-100058246D01*
X135267638Y-104200000D02*
X134075080Y-105392558D01*
%TO.N,Net-(U1-~{RTS})*%
X141400000Y-99900000D02*
X141400000Y-99100000D01*
X144420000Y-99500000D02*
X143892000Y-100028000D01*
X143892000Y-100028000D02*
X141528000Y-100028000D01*
X141528000Y-100028000D02*
X141400000Y-99900000D01*
%TO.N,Net-(D9-K)*%
X147815000Y-107035000D02*
X148250000Y-106600000D01*
X147592500Y-105942500D02*
X148250000Y-106600000D01*
X147662500Y-104455000D02*
X147662500Y-105272500D01*
X148250000Y-106600000D02*
X148250000Y-107810000D01*
X147662500Y-105272500D02*
X148250000Y-105860000D01*
X146150000Y-105942500D02*
X147592500Y-105942500D01*
X148250000Y-107810000D02*
X147660000Y-108400000D01*
X148250000Y-105860000D02*
X148250000Y-106600000D01*
%TO.N,Net-(U2-PB1)*%
X153570000Y-99249264D02*
X153570000Y-99000000D01*
X153130000Y-100060000D02*
X153360000Y-99830000D01*
X153360000Y-99459264D02*
X153570000Y-99249264D01*
X153360000Y-99830000D02*
X153360000Y-99459264D01*
%TO.N,Net-(U2-PB0)*%
X154070000Y-99000000D02*
X154070000Y-100060000D01*
X154070000Y-100060000D02*
X154090000Y-100080000D01*
%TO.N,Net-(U2-PB2)*%
X154600000Y-99000000D02*
X154600000Y-99327000D01*
X155468000Y-99538000D02*
X156000000Y-100070000D01*
X154600000Y-99327000D02*
X154811000Y-99538000D01*
X154811000Y-99538000D02*
X155468000Y-99538000D01*
%TO.N,Net-(D6-A)*%
X142600000Y-92030000D02*
X142600000Y-90970000D01*
%TO.N,Net-(JP1-A)*%
X143080000Y-92680000D02*
X144400000Y-94000000D01*
%TO.N,/TXD*%
X152570000Y-99000000D02*
X152570000Y-98740008D01*
X152570000Y-98740008D02*
X152239992Y-98410000D01*
%TO.N,Net-(JP1-B)*%
X144500000Y-95000000D02*
X145500000Y-94000000D01*
X145500000Y-92207610D02*
X146003805Y-91703805D01*
X145500000Y-94000000D02*
X145500000Y-92207610D01*
%TO.N,/RXD*%
X151570000Y-99000000D02*
X151570000Y-98500010D01*
%TO.N,Net-(U1-TNOW)*%
X141900000Y-93620000D02*
X141900000Y-94700000D01*
X142500000Y-93020000D02*
X141900000Y-93620000D01*
%TO.N,Net-(U1-TXD)*%
X141200000Y-95900000D02*
X140900000Y-95600000D01*
X143500000Y-94000000D02*
X142800000Y-94700000D01*
X140900000Y-95600000D02*
X140900000Y-94700000D01*
X142800000Y-94700000D02*
X142800000Y-95200000D01*
X142800000Y-95200000D02*
X142100000Y-95900000D01*
X142100000Y-95900000D02*
X141200000Y-95900000D01*
%TO.N,Net-(U1-RXD)*%
X140400000Y-95741791D02*
X140400000Y-94700000D01*
X140862209Y-96204000D02*
X140400000Y-95741791D01*
X142246000Y-96204000D02*
X140862209Y-96204000D01*
X143450000Y-95000000D02*
X142246000Y-96204000D01*
%TO.N,Net-(U2-ANT_IN)*%
X154070000Y-93460000D02*
X154600000Y-93460000D01*
%TO.N,Net-(J3-Pin_1)*%
X143180000Y-107660000D02*
X141805000Y-107660000D01*
X141075000Y-105450000D02*
X141525000Y-105450000D01*
X141525000Y-105450000D02*
X141525000Y-107660000D01*
X141805000Y-107660000D02*
X141665000Y-107800000D01*
%TO.N,/Accel_INT1*%
X144500000Y-96060000D02*
X144140004Y-95700004D01*
X150060000Y-99526441D02*
X150037434Y-99549007D01*
X150060000Y-99000000D02*
X150060000Y-99526441D01*
X144140004Y-95700004D02*
X144100000Y-95700004D01*
%TO.N,/EPD_MOSI*%
X144400000Y-86365000D02*
X144400000Y-85740000D01*
X143901008Y-86608992D02*
X144156008Y-86608992D01*
X148534593Y-97125407D02*
X149714452Y-97125407D01*
X149714452Y-97125407D02*
X149775380Y-97064479D01*
X149775380Y-97064479D02*
X149775380Y-94448885D01*
X144156008Y-86608992D02*
X144400000Y-86365000D01*
%TO.N,/EPD_SPICL*%
X144000000Y-83046512D02*
X143738845Y-83307667D01*
X152070000Y-93833265D02*
X152070000Y-93460000D01*
X143738845Y-83307667D02*
X143738845Y-83535723D01*
X144000000Y-82460000D02*
X144000000Y-83046512D01*
X152560000Y-94530000D02*
X152560000Y-94323265D01*
X152560000Y-94323265D02*
X152070000Y-93833265D01*
%TO.N,Net-(J1-Pin_16)*%
X143200000Y-84969958D02*
X143170028Y-84939986D01*
X143200000Y-85740000D02*
X143200000Y-84969958D01*
%TO.N,/Accel_SCL*%
X146840858Y-97488858D02*
X146840858Y-98105704D01*
X148100000Y-98160000D02*
X148100000Y-97835000D01*
X148100000Y-97835000D02*
X148355000Y-97580000D01*
X147410000Y-98850000D02*
X148100000Y-98160000D01*
X148355000Y-97580000D02*
X148530000Y-97580000D01*
X146840858Y-98105704D02*
X147410000Y-98674846D01*
X146582000Y-97230000D02*
X146840858Y-97488858D01*
X146180000Y-97230000D02*
X146582000Y-97230000D01*
%TO.N,/VIB*%
X147662500Y-102555000D02*
X149025000Y-102555000D01*
X150330000Y-101325736D02*
X150568039Y-101325736D01*
X150568039Y-101325736D02*
X150598102Y-101355799D01*
X149560000Y-99000000D02*
X149560000Y-100555736D01*
X149560000Y-100555736D02*
X150330000Y-101325736D01*
X149025000Y-102555000D02*
X149255876Y-102785876D01*
%TO.N,Net-(R1-Pad2)*%
X137860000Y-105070000D02*
X136850000Y-106080000D01*
%TO.N,/Accel_CS*%
X146670000Y-98680000D02*
X146520000Y-98530000D01*
X146520000Y-98530000D02*
X146520000Y-98047500D01*
X146520000Y-98047500D02*
X146232500Y-97760000D01*
X153070000Y-99000000D02*
X153070000Y-99240000D01*
X153070000Y-99240000D02*
X152190000Y-100120000D01*
%TD*%
%TA.AperFunction,Conductor*%
%TO.N,GND*%
G36*
X140113257Y-81895796D02*
G01*
X140171119Y-81934959D01*
X140198623Y-81999187D01*
X140199500Y-82013908D01*
X140199500Y-83200500D01*
X140179815Y-83267539D01*
X140127011Y-83313294D01*
X140091886Y-83320935D01*
X140092122Y-83322118D01*
X140080146Y-83324500D01*
X140080145Y-83324500D01*
X140080144Y-83324500D01*
X140080141Y-83324501D01*
X139997268Y-83358827D01*
X139997262Y-83358831D01*
X139976937Y-83379156D01*
X139915613Y-83412640D01*
X139845921Y-83407654D01*
X139789989Y-83365782D01*
X139767639Y-83315663D01*
X139766767Y-83311278D01*
X139733504Y-83261496D01*
X139733503Y-83261495D01*
X139683724Y-83228234D01*
X139683717Y-83228231D01*
X139639822Y-83219500D01*
X139639820Y-83219500D01*
X139160180Y-83219500D01*
X139160178Y-83219500D01*
X139116282Y-83228231D01*
X139116275Y-83228234D01*
X139066496Y-83261495D01*
X139066495Y-83261496D01*
X139033234Y-83311275D01*
X139033231Y-83311282D01*
X139024500Y-83355177D01*
X139024500Y-84026233D01*
X139004815Y-84093272D01*
X138952011Y-84139027D01*
X138882853Y-84148971D01*
X138819297Y-84119946D01*
X138812819Y-84113914D01*
X138511819Y-83812914D01*
X138478334Y-83751591D01*
X138475500Y-83725233D01*
X138475500Y-83355177D01*
X138466768Y-83311282D01*
X138466767Y-83311281D01*
X138466767Y-83311278D01*
X138433504Y-83261496D01*
X138433503Y-83261495D01*
X138383724Y-83228234D01*
X138383717Y-83228231D01*
X138339822Y-83219500D01*
X138339820Y-83219500D01*
X137860180Y-83219500D01*
X137860178Y-83219500D01*
X137816282Y-83228231D01*
X137816275Y-83228234D01*
X137766496Y-83261495D01*
X137766495Y-83261496D01*
X137733234Y-83311275D01*
X137733231Y-83311282D01*
X137724500Y-83355177D01*
X137724500Y-83355180D01*
X137724500Y-84084820D01*
X137724500Y-84084822D01*
X137724499Y-84084822D01*
X137733231Y-84128717D01*
X137733232Y-84128721D01*
X137733233Y-84128722D01*
X137755208Y-84161611D01*
X137776086Y-84228286D01*
X137757602Y-84295666D01*
X137705623Y-84342357D01*
X137652106Y-84354500D01*
X137489297Y-84354500D01*
X137489289Y-84354499D01*
X137474855Y-84354499D01*
X137385145Y-84354499D01*
X137385143Y-84354499D01*
X137335011Y-84375265D01*
X137302266Y-84388828D01*
X137302262Y-84388831D01*
X137238829Y-84452265D01*
X137047912Y-84643181D01*
X136986589Y-84676666D01*
X136960231Y-84679500D01*
X136672384Y-84679500D01*
X136672361Y-84679502D01*
X136648501Y-84682269D01*
X136642364Y-84683939D01*
X136572508Y-84682541D01*
X136514497Y-84643599D01*
X136503084Y-84627408D01*
X136470738Y-84572714D01*
X136470731Y-84572705D01*
X136357294Y-84459268D01*
X136357285Y-84459261D01*
X136219191Y-84377593D01*
X136219188Y-84377591D01*
X136080001Y-84337153D01*
X136080000Y-84337154D01*
X136080000Y-85210000D01*
X136083681Y-85213681D01*
X136117166Y-85275004D01*
X136120000Y-85301362D01*
X136120000Y-86890000D01*
X136676000Y-86890000D01*
X136743039Y-86909685D01*
X136788794Y-86962489D01*
X136800000Y-87014000D01*
X136800000Y-87266000D01*
X136780315Y-87333039D01*
X136727511Y-87378794D01*
X136676000Y-87390000D01*
X135995496Y-87390000D01*
X136037968Y-87536195D01*
X136120278Y-87675374D01*
X136120285Y-87675383D01*
X136234621Y-87789719D01*
X136236227Y-87790965D01*
X136237162Y-87792260D01*
X136240138Y-87795236D01*
X136239657Y-87795716D01*
X136277132Y-87847608D01*
X136280920Y-87917375D01*
X136247905Y-87976623D01*
X136097976Y-88126552D01*
X136036653Y-88160037D01*
X136029693Y-88161344D01*
X135908519Y-88180535D01*
X135833158Y-88218934D01*
X135795479Y-88238133D01*
X135795478Y-88238134D01*
X135795473Y-88238137D01*
X135705775Y-88327835D01*
X135705772Y-88327840D01*
X135648173Y-88440881D01*
X135648173Y-88440882D01*
X135628329Y-88566179D01*
X135628329Y-88566186D01*
X135643103Y-88659468D01*
X135634148Y-88728761D01*
X135589152Y-88782213D01*
X135522400Y-88802852D01*
X135455087Y-88784127D01*
X135446506Y-88777313D01*
X135446241Y-88777679D01*
X135438345Y-88771943D01*
X135438342Y-88771940D01*
X135325304Y-88714344D01*
X135325303Y-88714343D01*
X135325300Y-88714342D01*
X135200003Y-88694498D01*
X135199997Y-88694498D01*
X135074699Y-88714342D01*
X135074698Y-88714342D01*
X135004916Y-88749899D01*
X134961658Y-88771940D01*
X134961657Y-88771941D01*
X134961652Y-88771944D01*
X134871954Y-88861642D01*
X134871951Y-88861647D01*
X134871950Y-88861648D01*
X134858271Y-88888494D01*
X134814352Y-88974688D01*
X134814352Y-88974689D01*
X134794508Y-89099986D01*
X134794508Y-89099992D01*
X134796463Y-89112339D01*
X134787505Y-89181632D01*
X134761670Y-89219413D01*
X134142904Y-89838181D01*
X134081581Y-89871666D01*
X134055223Y-89874500D01*
X133416890Y-89874500D01*
X133349851Y-89854815D01*
X133304096Y-89802011D01*
X133294152Y-89732853D01*
X133308832Y-89689677D01*
X133311092Y-89685661D01*
X133329117Y-89644696D01*
X133329119Y-89644692D01*
X133330425Y-89584834D01*
X133321013Y-89560630D01*
X133308726Y-89529033D01*
X133308724Y-89529030D01*
X133277776Y-89496701D01*
X133277768Y-89496694D01*
X131860937Y-88504619D01*
X131860936Y-88504618D01*
X131860934Y-88504617D01*
X131819962Y-88486589D01*
X131819960Y-88486588D01*
X131819958Y-88486588D01*
X131760109Y-88485282D01*
X131760105Y-88485283D01*
X131760104Y-88485283D01*
X131739373Y-88493345D01*
X131704300Y-88506984D01*
X131704299Y-88506985D01*
X131671971Y-88537932D01*
X131671964Y-88537940D01*
X131138749Y-89299451D01*
X131138747Y-89299454D01*
X131120722Y-89340419D01*
X131120720Y-89340428D01*
X131119414Y-89400276D01*
X131119416Y-89400285D01*
X131141113Y-89456082D01*
X131141115Y-89456085D01*
X131172063Y-89488414D01*
X131172071Y-89488421D01*
X132203009Y-90210291D01*
X132588906Y-90480499D01*
X132629878Y-90498527D01*
X132649830Y-90498962D01*
X132689730Y-90499833D01*
X132689730Y-90499832D01*
X132689736Y-90499833D01*
X132745537Y-90478133D01*
X132777872Y-90447179D01*
X132826048Y-90378377D01*
X132880625Y-90334752D01*
X132927623Y-90325500D01*
X134140693Y-90325500D01*
X134140701Y-90325501D01*
X134155135Y-90325501D01*
X134244843Y-90325501D01*
X134244845Y-90325501D01*
X134303450Y-90301225D01*
X134327726Y-90291170D01*
X134391160Y-90227736D01*
X134391160Y-90227735D01*
X134408598Y-90210297D01*
X134408600Y-90210294D01*
X135080577Y-89538316D01*
X135141898Y-89504833D01*
X135187651Y-89503526D01*
X135200000Y-89505482D01*
X135262652Y-89495559D01*
X135325300Y-89485637D01*
X135325301Y-89485637D01*
X135325302Y-89485636D01*
X135325304Y-89485636D01*
X135438342Y-89428040D01*
X135528050Y-89338332D01*
X135585646Y-89225294D01*
X135585646Y-89225292D01*
X135585647Y-89225291D01*
X135585647Y-89225290D01*
X135605492Y-89099993D01*
X135605492Y-89099988D01*
X135592827Y-89020026D01*
X135590717Y-89006704D01*
X135599671Y-88937412D01*
X135644667Y-88883960D01*
X135711419Y-88863320D01*
X135778733Y-88882045D01*
X135787314Y-88888859D01*
X135787580Y-88888494D01*
X135795474Y-88894228D01*
X135795479Y-88894233D01*
X135908517Y-88951829D01*
X136029698Y-88971022D01*
X136092829Y-89000949D01*
X136097978Y-89005813D01*
X136302445Y-89210281D01*
X136335930Y-89271604D01*
X136330946Y-89341296D01*
X136289074Y-89397229D01*
X136277887Y-89404693D01*
X136234624Y-89430279D01*
X136234616Y-89430285D01*
X136120285Y-89544616D01*
X136120278Y-89544625D01*
X136037968Y-89683804D01*
X135995496Y-89830000D01*
X136676000Y-89830000D01*
X136743039Y-89849685D01*
X136788794Y-89902489D01*
X136800000Y-89954000D01*
X136800000Y-90080000D01*
X136926000Y-90080000D01*
X136993039Y-90099685D01*
X137038794Y-90152489D01*
X137050000Y-90204000D01*
X137050000Y-90858790D01*
X137089826Y-90895607D01*
X137088406Y-90897142D01*
X137117841Y-90926157D01*
X137133182Y-90994322D01*
X137109235Y-91059960D01*
X137072560Y-91093095D01*
X137009711Y-91130264D01*
X137009705Y-91130268D01*
X136896268Y-91243705D01*
X136896264Y-91243711D01*
X136838134Y-91342003D01*
X136787064Y-91389686D01*
X136718323Y-91402189D01*
X136653733Y-91375543D01*
X136619343Y-91329666D01*
X136618954Y-91329875D01*
X136617598Y-91327338D01*
X136616837Y-91326323D01*
X136616085Y-91324507D01*
X136616080Y-91324498D01*
X136533951Y-91201584D01*
X136533948Y-91201580D01*
X136429419Y-91097051D01*
X136429415Y-91097048D01*
X136385415Y-91067648D01*
X136340610Y-91014036D01*
X136331903Y-90944711D01*
X136362058Y-90881683D01*
X136421501Y-90844964D01*
X136488901Y-90845470D01*
X136529086Y-90857144D01*
X136550000Y-90858789D01*
X136550000Y-90330000D01*
X135995496Y-90330000D01*
X136037968Y-90476195D01*
X136120278Y-90615374D01*
X136120285Y-90615383D01*
X136234619Y-90729717D01*
X136238034Y-90732366D01*
X136240025Y-90735123D01*
X136240138Y-90735236D01*
X136240119Y-90735254D01*
X136278940Y-90789009D01*
X136282730Y-90858776D01*
X136248198Y-90919516D01*
X136186310Y-90951945D01*
X136137841Y-90951962D01*
X136024920Y-90929500D01*
X136024918Y-90929500D01*
X135077082Y-90929500D01*
X135077080Y-90929500D01*
X134932092Y-90958340D01*
X134932082Y-90958343D01*
X134795511Y-91014912D01*
X134795498Y-91014919D01*
X134672584Y-91097048D01*
X134672580Y-91097051D01*
X134568051Y-91201580D01*
X134568048Y-91201584D01*
X134485919Y-91324498D01*
X134485912Y-91324511D01*
X134429343Y-91461082D01*
X134429340Y-91461092D01*
X134400500Y-91606079D01*
X134400500Y-91606082D01*
X134400500Y-91753918D01*
X134400500Y-91753920D01*
X134400499Y-91753920D01*
X134429340Y-91898907D01*
X134429343Y-91898917D01*
X134485912Y-92035488D01*
X134485919Y-92035501D01*
X134568048Y-92158415D01*
X134568051Y-92158419D01*
X134672580Y-92262948D01*
X134672584Y-92262951D01*
X134795498Y-92345080D01*
X134795511Y-92345087D01*
X134908324Y-92391815D01*
X134962728Y-92435655D01*
X134984793Y-92501949D01*
X134967514Y-92569649D01*
X134916377Y-92617260D01*
X134892968Y-92626150D01*
X134827814Y-92643608D01*
X134827812Y-92643608D01*
X134827812Y-92643609D01*
X134713686Y-92709500D01*
X134713683Y-92709502D01*
X134620502Y-92802683D01*
X134620500Y-92802686D01*
X134554608Y-92916812D01*
X134548848Y-92938310D01*
X134520500Y-93044108D01*
X134520500Y-93175892D01*
X134528835Y-93206999D01*
X134554608Y-93303187D01*
X134568366Y-93327016D01*
X134620500Y-93417314D01*
X134713686Y-93510500D01*
X134827814Y-93576392D01*
X134850116Y-93582367D01*
X134909775Y-93618732D01*
X134940304Y-93681579D01*
X134932009Y-93750955D01*
X134905702Y-93789823D01*
X134574917Y-94120608D01*
X134542519Y-94198825D01*
X134542520Y-94198826D01*
X134534500Y-94218186D01*
X134534500Y-96599685D01*
X134514815Y-96666724D01*
X134485987Y-96698060D01*
X134407381Y-96758377D01*
X134407380Y-96758378D01*
X134407379Y-96758379D01*
X134371605Y-96805000D01*
X134319137Y-96873377D01*
X134263671Y-97007287D01*
X134263670Y-97007291D01*
X134244750Y-97150999D01*
X134244750Y-97151000D01*
X134263670Y-97294708D01*
X134263671Y-97294712D01*
X134319314Y-97429048D01*
X134326783Y-97498517D01*
X134295507Y-97560996D01*
X134235418Y-97596648D01*
X134204753Y-97600500D01*
X133483297Y-97600500D01*
X133483289Y-97600499D01*
X133468855Y-97600499D01*
X133379146Y-97600499D01*
X133379143Y-97600499D01*
X133333626Y-97619354D01*
X133333625Y-97619354D01*
X133296266Y-97634827D01*
X133008830Y-97922263D01*
X133008830Y-97922265D01*
X132974499Y-98005144D01*
X132974499Y-98109288D01*
X132974500Y-98109297D01*
X132974500Y-99745142D01*
X132974499Y-99745156D01*
X132974499Y-99844857D01*
X132987324Y-99875816D01*
X132989744Y-99881658D01*
X133000864Y-99908504D01*
X133008830Y-99927736D01*
X133089700Y-100008606D01*
X133089706Y-100008611D01*
X134781759Y-101700664D01*
X134781762Y-101700668D01*
X134788830Y-101707736D01*
X134852264Y-101771170D01*
X134908383Y-101794415D01*
X134962785Y-101838255D01*
X134974364Y-101858889D01*
X134989346Y-101892819D01*
X135005384Y-101929141D01*
X135080859Y-102004616D01*
X135080862Y-102004617D01*
X135080863Y-102004618D01*
X135178499Y-102047729D01*
X135178500Y-102047729D01*
X135178502Y-102047730D01*
X135202377Y-102050500D01*
X135557622Y-102050499D01*
X135573539Y-102048653D01*
X135581490Y-102047731D01*
X135581490Y-102047730D01*
X135581498Y-102047730D01*
X135581504Y-102047726D01*
X135587626Y-102046062D01*
X135657482Y-102047455D01*
X135715496Y-102086393D01*
X135726915Y-102102590D01*
X135759264Y-102157288D01*
X135759268Y-102157294D01*
X135872705Y-102270731D01*
X135872714Y-102270738D01*
X136010805Y-102352404D01*
X136150000Y-102392844D01*
X136150000Y-101704000D01*
X136169685Y-101636961D01*
X136222489Y-101591206D01*
X136274000Y-101580000D01*
X136526000Y-101580000D01*
X136593039Y-101599685D01*
X136638794Y-101652489D01*
X136650000Y-101704000D01*
X136650000Y-102392843D01*
X136789194Y-102352404D01*
X136927285Y-102270738D01*
X136927290Y-102270734D01*
X137004092Y-102193932D01*
X137065415Y-102160447D01*
X137135107Y-102165431D01*
X137191041Y-102207302D01*
X137192995Y-102210501D01*
X137193111Y-102210419D01*
X137199081Y-102218781D01*
X137286217Y-102305917D01*
X137286218Y-102305917D01*
X137286220Y-102305919D01*
X137396933Y-102360043D01*
X137468705Y-102370500D01*
X137771233Y-102370499D01*
X137838271Y-102390183D01*
X137884026Y-102442987D01*
X137893970Y-102512146D01*
X137864945Y-102575701D01*
X137858913Y-102582180D01*
X137707912Y-102733181D01*
X137646589Y-102766666D01*
X137620232Y-102769500D01*
X137468706Y-102769500D01*
X137396932Y-102779957D01*
X137286217Y-102834082D01*
X137199082Y-102921217D01*
X137148729Y-103024218D01*
X137144957Y-103031933D01*
X137134500Y-103103705D01*
X137134500Y-103103709D01*
X137134500Y-103103710D01*
X137134500Y-103611293D01*
X137144957Y-103683067D01*
X137199082Y-103793782D01*
X137286217Y-103880917D01*
X137286218Y-103880917D01*
X137286220Y-103880919D01*
X137396933Y-103935043D01*
X137468705Y-103945500D01*
X138051294Y-103945499D01*
X138123067Y-103935043D01*
X138233780Y-103880919D01*
X138320919Y-103793780D01*
X138375043Y-103683067D01*
X138385500Y-103611295D01*
X138385499Y-103103706D01*
X138375043Y-103031933D01*
X138320919Y-102921220D01*
X138320916Y-102921217D01*
X138320916Y-102921216D01*
X138314948Y-102912856D01*
X138317939Y-102910720D01*
X138293498Y-102865960D01*
X138298482Y-102796268D01*
X138326981Y-102751923D01*
X138787819Y-102291084D01*
X138849142Y-102257600D01*
X138918834Y-102262584D01*
X138974767Y-102304456D01*
X138999184Y-102369920D01*
X138999500Y-102378766D01*
X138999500Y-102924246D01*
X138979815Y-102991285D01*
X138974766Y-102998557D01*
X138896649Y-103102906D01*
X138896645Y-103102913D01*
X138846403Y-103237620D01*
X138846401Y-103237627D01*
X138840000Y-103297155D01*
X138840000Y-103750000D01*
X141960000Y-103750000D01*
X141960000Y-103659836D01*
X141979685Y-103592797D01*
X142032489Y-103547042D01*
X142101647Y-103537098D01*
X142165203Y-103566123D01*
X142171681Y-103572155D01*
X142273181Y-103673655D01*
X142306666Y-103734978D01*
X142309500Y-103761335D01*
X142309500Y-103863364D01*
X142309502Y-103863388D01*
X142312317Y-103887659D01*
X142312318Y-103887662D01*
X142356186Y-103987015D01*
X142359697Y-103990526D01*
X142393182Y-104051849D01*
X142388198Y-104121541D01*
X142347504Y-104176582D01*
X142316991Y-104199996D01*
X142307369Y-104207379D01*
X142266891Y-104260131D01*
X142219128Y-104322376D01*
X142198561Y-104372031D01*
X142154720Y-104426434D01*
X142088426Y-104448499D01*
X142020727Y-104431220D01*
X141973116Y-104380083D01*
X141960000Y-104324578D01*
X141960000Y-104250000D01*
X138840000Y-104250000D01*
X138840000Y-104545415D01*
X138820315Y-104612454D01*
X138798468Y-104635920D01*
X138799085Y-104636537D01*
X138792808Y-104642814D01*
X138706649Y-104757906D01*
X138706645Y-104757913D01*
X138656403Y-104892620D01*
X138656401Y-104892627D01*
X138650000Y-104952155D01*
X138650000Y-105325000D01*
X139151000Y-105325000D01*
X139218039Y-105344685D01*
X139263794Y-105397489D01*
X139275000Y-105449000D01*
X139275000Y-105451000D01*
X139255315Y-105518039D01*
X139202511Y-105563794D01*
X139151000Y-105575000D01*
X138650000Y-105575000D01*
X138650000Y-105880682D01*
X138630315Y-105947721D01*
X138577511Y-105993476D01*
X138545397Y-106003156D01*
X138473896Y-106014480D01*
X138404602Y-106005524D01*
X138351151Y-105960527D01*
X138331175Y-105895922D01*
X138330705Y-105895950D01*
X138330594Y-105894044D01*
X138330512Y-105893776D01*
X138330502Y-105892439D01*
X138330499Y-105892392D01*
X138330499Y-105892378D01*
X138327730Y-105868502D01*
X138320839Y-105852895D01*
X138284619Y-105770864D01*
X138284617Y-105770861D01*
X138284616Y-105770859D01*
X138209141Y-105695384D01*
X138173881Y-105679815D01*
X138159428Y-105673433D01*
X138106053Y-105628346D01*
X138085526Y-105561560D01*
X138104365Y-105494278D01*
X138156589Y-105447862D01*
X138159344Y-105446603D01*
X138209141Y-105424616D01*
X138284616Y-105349141D01*
X138327730Y-105251498D01*
X138330500Y-105227623D01*
X138330499Y-104872378D01*
X138327730Y-104848502D01*
X138327730Y-104848501D01*
X138284619Y-104750864D01*
X138284617Y-104750861D01*
X138284616Y-104750859D01*
X138209141Y-104675384D01*
X138209138Y-104675383D01*
X138209136Y-104675381D01*
X138111500Y-104632270D01*
X138111501Y-104632270D01*
X138087624Y-104629500D01*
X137668705Y-104629500D01*
X137601666Y-104609815D01*
X137561973Y-104568620D01*
X137540740Y-104532717D01*
X137540731Y-104532705D01*
X137427294Y-104419268D01*
X137427285Y-104419261D01*
X137289191Y-104337593D01*
X137289188Y-104337592D01*
X137135130Y-104292834D01*
X137100000Y-104290068D01*
X137100000Y-104936000D01*
X137080315Y-105003039D01*
X137027511Y-105048794D01*
X136976000Y-105060000D01*
X136850000Y-105060000D01*
X136850000Y-105186000D01*
X136830315Y-105253039D01*
X136777511Y-105298794D01*
X136726000Y-105310000D01*
X136037156Y-105310000D01*
X136077595Y-105449194D01*
X136159261Y-105587285D01*
X136159268Y-105587294D01*
X136272705Y-105700731D01*
X136272714Y-105700738D01*
X136327408Y-105733084D01*
X136375092Y-105784153D01*
X136387595Y-105852895D01*
X136383939Y-105872364D01*
X136382270Y-105878496D01*
X136379500Y-105902375D01*
X136379500Y-106257615D01*
X136379502Y-106257638D01*
X136382269Y-106281495D01*
X136382269Y-106281498D01*
X136425380Y-106379135D01*
X136425383Y-106379139D01*
X136425384Y-106379141D01*
X136500859Y-106454616D01*
X136500862Y-106454617D01*
X136500863Y-106454618D01*
X136598499Y-106497729D01*
X136598500Y-106497729D01*
X136598502Y-106497730D01*
X136622377Y-106500500D01*
X137077622Y-106500499D01*
X137101498Y-106497730D01*
X137199135Y-106454619D01*
X137199136Y-106454618D01*
X137199141Y-106454616D01*
X137272319Y-106381438D01*
X137333642Y-106347953D01*
X137403334Y-106352937D01*
X137447681Y-106381438D01*
X137510859Y-106444616D01*
X137510862Y-106444617D01*
X137510863Y-106444618D01*
X137608499Y-106487729D01*
X137608500Y-106487729D01*
X137608502Y-106487730D01*
X137632377Y-106490500D01*
X137910231Y-106490499D01*
X137977270Y-106510183D01*
X137997912Y-106526818D01*
X138062266Y-106591172D01*
X138126365Y-106617721D01*
X138145145Y-106625500D01*
X138207746Y-106625500D01*
X138274785Y-106645185D01*
X138295422Y-106661814D01*
X138361658Y-106728050D01*
X138414474Y-106754961D01*
X138465269Y-106802935D01*
X138482064Y-106870756D01*
X138461281Y-106934335D01*
X138423232Y-106991279D01*
X138423231Y-106991282D01*
X138414500Y-107035177D01*
X138414500Y-107035180D01*
X138414500Y-108564820D01*
X138414500Y-108564822D01*
X138414499Y-108564822D01*
X138423231Y-108608717D01*
X138423234Y-108608724D01*
X138438256Y-108631206D01*
X138456496Y-108658504D01*
X138506278Y-108691767D01*
X138506281Y-108691767D01*
X138506282Y-108691768D01*
X138550177Y-108700500D01*
X139301392Y-108700500D01*
X139368431Y-108720185D01*
X139414186Y-108772989D01*
X139417574Y-108781167D01*
X139421649Y-108792092D01*
X139507809Y-108907187D01*
X139507812Y-108907190D01*
X139622906Y-108993350D01*
X139622913Y-108993354D01*
X139757620Y-109043596D01*
X139757627Y-109043598D01*
X139817155Y-109049999D01*
X139817172Y-109050000D01*
X140115000Y-109050000D01*
X140115000Y-106894470D01*
X140128515Y-106838176D01*
X140165646Y-106765304D01*
X140166422Y-106760405D01*
X140185492Y-106640003D01*
X140185492Y-106639998D01*
X140183537Y-106627655D01*
X140192491Y-106558362D01*
X140218326Y-106520578D01*
X140366170Y-106372736D01*
X140378660Y-106342580D01*
X140422498Y-106288179D01*
X140488791Y-106266112D01*
X140556491Y-106283389D01*
X140604103Y-106334525D01*
X140615694Y-106370634D01*
X140624353Y-106425301D01*
X140627369Y-106434583D01*
X140624998Y-106435353D01*
X140635282Y-106490111D01*
X140615000Y-106540080D01*
X140615000Y-109050000D01*
X140912828Y-109050000D01*
X140912844Y-109049999D01*
X140972372Y-109043598D01*
X140972379Y-109043596D01*
X141107086Y-108993354D01*
X141107093Y-108993350D01*
X141222187Y-108907190D01*
X141222190Y-108907187D01*
X141308350Y-108792092D01*
X141312426Y-108781167D01*
X141354297Y-108725233D01*
X141419761Y-108700816D01*
X141428608Y-108700500D01*
X142179821Y-108700500D01*
X142221807Y-108692148D01*
X142291399Y-108698375D01*
X142346577Y-108741237D01*
X142369822Y-108807127D01*
X142370000Y-108813756D01*
X142370000Y-108824621D01*
X142370001Y-108824647D01*
X142372854Y-108860910D01*
X142417969Y-109016196D01*
X142500278Y-109155374D01*
X142500285Y-109155383D01*
X142614616Y-109269714D01*
X142614625Y-109269721D01*
X142753804Y-109352031D01*
X142909089Y-109397145D01*
X142930000Y-109398789D01*
X143430000Y-109398789D01*
X143450910Y-109397145D01*
X143606195Y-109352031D01*
X143745374Y-109269721D01*
X143745383Y-109269714D01*
X143859714Y-109155383D01*
X143859721Y-109155374D01*
X143942031Y-109016195D01*
X143984504Y-108870000D01*
X143430000Y-108870000D01*
X143430000Y-109398789D01*
X142930000Y-109398789D01*
X142930000Y-108744000D01*
X142949685Y-108676961D01*
X143002489Y-108631206D01*
X143054000Y-108620000D01*
X143180000Y-108620000D01*
X143180000Y-108494000D01*
X143199685Y-108426961D01*
X143252489Y-108381206D01*
X143304000Y-108370000D01*
X143984504Y-108370000D01*
X143961804Y-108291863D01*
X145425001Y-108291863D01*
X145427733Y-108326578D01*
X145470906Y-108475181D01*
X145470907Y-108475184D01*
X145549682Y-108608385D01*
X145549688Y-108608394D01*
X145659105Y-108717811D01*
X145659114Y-108717817D01*
X145792315Y-108796592D01*
X145792318Y-108796593D01*
X145924998Y-108835141D01*
X145925000Y-108835140D01*
X146375000Y-108835140D01*
X146375001Y-108835141D01*
X146507681Y-108796593D01*
X146507684Y-108796592D01*
X146640885Y-108717817D01*
X146640894Y-108717811D01*
X146750311Y-108608394D01*
X146750317Y-108608385D01*
X146829092Y-108475184D01*
X146829093Y-108475181D01*
X146872265Y-108326584D01*
X146872267Y-108326573D01*
X146874999Y-108291859D01*
X146875000Y-108291846D01*
X146875000Y-108267500D01*
X146375000Y-108267500D01*
X146375000Y-108835140D01*
X145925000Y-108835140D01*
X145925000Y-108267500D01*
X145425001Y-108267500D01*
X145425001Y-108291863D01*
X143961804Y-108291863D01*
X143942031Y-108223804D01*
X143859721Y-108084625D01*
X143859714Y-108084616D01*
X143745383Y-107970285D01*
X143745374Y-107970278D01*
X143701378Y-107944259D01*
X143653694Y-107893189D01*
X143640499Y-107837531D01*
X143640499Y-107793140D01*
X145425000Y-107793140D01*
X145425000Y-107817500D01*
X145925000Y-107817500D01*
X146375000Y-107817500D01*
X146874999Y-107817500D01*
X146874999Y-107793158D01*
X146874998Y-107793136D01*
X146872266Y-107758421D01*
X146829093Y-107609818D01*
X146829092Y-107609815D01*
X146750317Y-107476614D01*
X146750311Y-107476605D01*
X146640894Y-107367188D01*
X146640885Y-107367182D01*
X146507684Y-107288407D01*
X146507683Y-107288406D01*
X146375000Y-107249857D01*
X146375000Y-107817500D01*
X145925000Y-107817500D01*
X145925000Y-107249857D01*
X145792316Y-107288406D01*
X145792315Y-107288407D01*
X145659114Y-107367182D01*
X145659105Y-107367188D01*
X145549688Y-107476605D01*
X145549682Y-107476614D01*
X145470907Y-107609815D01*
X145470906Y-107609818D01*
X145427734Y-107758415D01*
X145427732Y-107758426D01*
X145425000Y-107793140D01*
X143640499Y-107793140D01*
X143640499Y-107476628D01*
X143637682Y-107452338D01*
X143593813Y-107352984D01*
X143517016Y-107276187D01*
X143517014Y-107276186D01*
X143417663Y-107232318D01*
X143393373Y-107229500D01*
X142966634Y-107229500D01*
X142966611Y-107229502D01*
X142942340Y-107232317D01*
X142942337Y-107232318D01*
X142842984Y-107276186D01*
X142766189Y-107352981D01*
X142766188Y-107352983D01*
X142766187Y-107352984D01*
X142762829Y-107360587D01*
X142717745Y-107413962D01*
X142650959Y-107434490D01*
X142649396Y-107434500D01*
X142439500Y-107434500D01*
X142372461Y-107414815D01*
X142326706Y-107362011D01*
X142315500Y-107310500D01*
X142315500Y-107035177D01*
X142306768Y-106991282D01*
X142306767Y-106991279D01*
X142306767Y-106991278D01*
X142273504Y-106941496D01*
X142262787Y-106934335D01*
X142223724Y-106908234D01*
X142223717Y-106908231D01*
X142179822Y-106899500D01*
X142179820Y-106899500D01*
X141874500Y-106899500D01*
X141807461Y-106879815D01*
X141761706Y-106827011D01*
X141750500Y-106775500D01*
X141750500Y-106058097D01*
X141770185Y-105991058D01*
X141771398Y-105989206D01*
X141791767Y-105958722D01*
X141800500Y-105914820D01*
X141800500Y-105729094D01*
X145774500Y-105729094D01*
X145774500Y-106155897D01*
X145789760Y-106232618D01*
X145789761Y-106232620D01*
X145815739Y-106271498D01*
X145847888Y-106319612D01*
X145934883Y-106377740D01*
X145934886Y-106377740D01*
X145934887Y-106377741D01*
X145973241Y-106385370D01*
X146011599Y-106393000D01*
X146288400Y-106392999D01*
X146365117Y-106377740D01*
X146452112Y-106319612D01*
X146510240Y-106232617D01*
X146510240Y-106232616D01*
X146516593Y-106223109D01*
X146570205Y-106178304D01*
X146619695Y-106168000D01*
X147447733Y-106168000D01*
X147514772Y-106187685D01*
X147535414Y-106204319D01*
X147563181Y-106232086D01*
X147596666Y-106293409D01*
X147599500Y-106319767D01*
X147599500Y-106941334D01*
X147590061Y-106988786D01*
X147589500Y-106990139D01*
X147589499Y-106990146D01*
X147589499Y-107079855D01*
X147590059Y-107081207D01*
X147599500Y-107128664D01*
X147599500Y-107364820D01*
X147599500Y-107364822D01*
X147599499Y-107364822D01*
X147608231Y-107408717D01*
X147608234Y-107408724D01*
X147640744Y-107457379D01*
X147641496Y-107458504D01*
X147691278Y-107491767D01*
X147691281Y-107491767D01*
X147691282Y-107491768D01*
X147735177Y-107500500D01*
X147735180Y-107500500D01*
X147900500Y-107500500D01*
X147967539Y-107520185D01*
X148013294Y-107572989D01*
X148024500Y-107624500D01*
X148024500Y-107665232D01*
X148004815Y-107732271D01*
X147988181Y-107752913D01*
X147837913Y-107903181D01*
X147776590Y-107936666D01*
X147750232Y-107939500D01*
X147476634Y-107939500D01*
X147476611Y-107939502D01*
X147452340Y-107942317D01*
X147452337Y-107942318D01*
X147352984Y-107986186D01*
X147276187Y-108062983D01*
X147232318Y-108162335D01*
X147232318Y-108162337D01*
X147229500Y-108186625D01*
X147229500Y-108613365D01*
X147229502Y-108613388D01*
X147232317Y-108637659D01*
X147232318Y-108637662D01*
X147276186Y-108737015D01*
X147276187Y-108737016D01*
X147352984Y-108813813D01*
X147452338Y-108857682D01*
X147476627Y-108860500D01*
X147837527Y-108860499D01*
X147904566Y-108880183D01*
X147944259Y-108921378D01*
X147970278Y-108965374D01*
X147970285Y-108965383D01*
X148084616Y-109079714D01*
X148084625Y-109079721D01*
X148223804Y-109162031D01*
X148370000Y-109204504D01*
X148370000Y-109204503D01*
X148870000Y-109204503D01*
X149016195Y-109162031D01*
X149155374Y-109079721D01*
X149155383Y-109079714D01*
X149269714Y-108965383D01*
X149269721Y-108965374D01*
X149352031Y-108826195D01*
X149352033Y-108826190D01*
X149397144Y-108670918D01*
X149397145Y-108670912D01*
X149398790Y-108650000D01*
X148870000Y-108650000D01*
X148870000Y-109204503D01*
X148370000Y-109204503D01*
X148370000Y-108524000D01*
X148389685Y-108456961D01*
X148442489Y-108411206D01*
X148494000Y-108400000D01*
X148620000Y-108400000D01*
X148620000Y-108274000D01*
X148639685Y-108206961D01*
X148692489Y-108161206D01*
X148744000Y-108150000D01*
X149398790Y-108150000D01*
X149397144Y-108129082D01*
X149397144Y-108129080D01*
X149353832Y-107980000D01*
X149349548Y-107976783D01*
X149307756Y-107920789D01*
X149300000Y-107877622D01*
X149300000Y-107850000D01*
X149800000Y-107850000D01*
X150097828Y-107850000D01*
X150097844Y-107849999D01*
X150157372Y-107843598D01*
X150157379Y-107843596D01*
X150292086Y-107793354D01*
X150292093Y-107793350D01*
X150407187Y-107707190D01*
X150407190Y-107707187D01*
X150493350Y-107592093D01*
X150493354Y-107592086D01*
X150543596Y-107457379D01*
X150543598Y-107457372D01*
X150549999Y-107397844D01*
X150550000Y-107397827D01*
X150550000Y-106850000D01*
X149800000Y-106850000D01*
X149800000Y-107850000D01*
X149300000Y-107850000D01*
X149300000Y-106350000D01*
X149800000Y-106350000D01*
X150550000Y-106350000D01*
X150550000Y-105802172D01*
X150549999Y-105802155D01*
X150543598Y-105742627D01*
X150543596Y-105742620D01*
X150493354Y-105607913D01*
X150493350Y-105607906D01*
X150407190Y-105492812D01*
X150407187Y-105492809D01*
X150292093Y-105406649D01*
X150292086Y-105406645D01*
X150157379Y-105356403D01*
X150157372Y-105356401D01*
X150097844Y-105350000D01*
X149800000Y-105350000D01*
X149800000Y-106350000D01*
X149300000Y-106350000D01*
X149300000Y-105350000D01*
X149002155Y-105350000D01*
X148942627Y-105356401D01*
X148942620Y-105356403D01*
X148807913Y-105406645D01*
X148807906Y-105406649D01*
X148692812Y-105492809D01*
X148692809Y-105492812D01*
X148606649Y-105607907D01*
X148602574Y-105618833D01*
X148560703Y-105674767D01*
X148495239Y-105699184D01*
X148486392Y-105699500D01*
X148459768Y-105699500D01*
X148392729Y-105679815D01*
X148372087Y-105663181D01*
X147924319Y-105215413D01*
X147890834Y-105154090D01*
X147888000Y-105127732D01*
X147888000Y-105117643D01*
X151968501Y-105117643D01*
X151973064Y-105261354D01*
X152017925Y-105397951D01*
X152099457Y-105516378D01*
X152144562Y-105555776D01*
X152144568Y-105555781D01*
X152675233Y-105927357D01*
X152675234Y-105927357D01*
X153076737Y-105353951D01*
X153076736Y-105353950D01*
X152175670Y-104723016D01*
X152175669Y-104723016D01*
X152033527Y-104926018D01*
X152033521Y-104926027D01*
X152004611Y-104978477D01*
X152004610Y-104978480D01*
X151968501Y-105117643D01*
X147888000Y-105117643D01*
X147888000Y-105029499D01*
X147907685Y-104962460D01*
X147960489Y-104916705D01*
X148012000Y-104905499D01*
X148294856Y-104905499D01*
X148294864Y-104905499D01*
X148294879Y-104905497D01*
X148294882Y-104905497D01*
X148319987Y-104902586D01*
X148319988Y-104902585D01*
X148319991Y-104902585D01*
X148422765Y-104857206D01*
X148502206Y-104777765D01*
X148547585Y-104674991D01*
X148550500Y-104649865D01*
X148550499Y-104260136D01*
X148547934Y-104238015D01*
X148547586Y-104235012D01*
X148547585Y-104235010D01*
X148547585Y-104235009D01*
X148502206Y-104132235D01*
X148422765Y-104052794D01*
X148420625Y-104051849D01*
X148319992Y-104007415D01*
X148294865Y-104004500D01*
X147030143Y-104004500D01*
X147030117Y-104004502D01*
X147005012Y-104007413D01*
X147005008Y-104007415D01*
X146902235Y-104052793D01*
X146822794Y-104132234D01*
X146777415Y-104235006D01*
X146777415Y-104235008D01*
X146774500Y-104260131D01*
X146774500Y-104649856D01*
X146774502Y-104649882D01*
X146777413Y-104674987D01*
X146777415Y-104674991D01*
X146822793Y-104777764D01*
X146822794Y-104777765D01*
X146902235Y-104857206D01*
X147005009Y-104902585D01*
X147030135Y-104905500D01*
X147313001Y-104905499D01*
X147380039Y-104925183D01*
X147425794Y-104977987D01*
X147437000Y-105029499D01*
X147437000Y-105217642D01*
X147436999Y-105217656D01*
X147436999Y-105317357D01*
X147449569Y-105347701D01*
X147449569Y-105347702D01*
X147449570Y-105347702D01*
X147449570Y-105347703D01*
X147471330Y-105400236D01*
X147471331Y-105400237D01*
X147552200Y-105481106D01*
X147552206Y-105481111D01*
X147576414Y-105505319D01*
X147609899Y-105566642D01*
X147604915Y-105636334D01*
X147563043Y-105692267D01*
X147497579Y-105716684D01*
X147488733Y-105717000D01*
X146619695Y-105717000D01*
X146552656Y-105697315D01*
X146516593Y-105661891D01*
X146494179Y-105628346D01*
X146452112Y-105565388D01*
X146365117Y-105507260D01*
X146365115Y-105507259D01*
X146365112Y-105507258D01*
X146288404Y-105492000D01*
X146011601Y-105492000D01*
X145934881Y-105507260D01*
X145934879Y-105507261D01*
X145847888Y-105565388D01*
X145789760Y-105652383D01*
X145789758Y-105652387D01*
X145774500Y-105729094D01*
X141800500Y-105729094D01*
X141800500Y-105075754D01*
X141820185Y-105008715D01*
X141825234Y-105001443D01*
X141903350Y-104897093D01*
X141903354Y-104897086D01*
X141946654Y-104780993D01*
X141988525Y-104725059D01*
X142053989Y-104700642D01*
X142122262Y-104715493D01*
X142171668Y-104764898D01*
X142177397Y-104776874D01*
X142219127Y-104877622D01*
X142219128Y-104877624D01*
X142219129Y-104877625D01*
X142307369Y-104992621D01*
X142422365Y-105080861D01*
X142556281Y-105136330D01*
X142683270Y-105153048D01*
X142699989Y-105155250D01*
X142699990Y-105155250D01*
X142699991Y-105155250D01*
X142714967Y-105153278D01*
X142843699Y-105136330D01*
X142977615Y-105080861D01*
X143092611Y-104992621D01*
X143180851Y-104877625D01*
X143236320Y-104743709D01*
X143255240Y-104600000D01*
X143252358Y-104578114D01*
X143263122Y-104509082D01*
X143309500Y-104456825D01*
X143376769Y-104437938D01*
X143409891Y-104442852D01*
X143450000Y-104454504D01*
X143450000Y-104454503D01*
X143950000Y-104454503D01*
X144096195Y-104412031D01*
X144235374Y-104329721D01*
X144235383Y-104329714D01*
X144349714Y-104215383D01*
X144349721Y-104215374D01*
X144432031Y-104076195D01*
X144432033Y-104076190D01*
X144477144Y-103920918D01*
X144477145Y-103920912D01*
X144478790Y-103900000D01*
X143950000Y-103900000D01*
X143950000Y-104454503D01*
X143450000Y-104454503D01*
X143450000Y-102845494D01*
X143950000Y-102845494D01*
X143950000Y-103400000D01*
X144478790Y-103400000D01*
X144477145Y-103379089D01*
X144432031Y-103223804D01*
X144349721Y-103084625D01*
X144349714Y-103084616D01*
X144235383Y-102970285D01*
X144235374Y-102970278D01*
X144096193Y-102887967D01*
X144096190Y-102887965D01*
X143950001Y-102845493D01*
X143950000Y-102845494D01*
X143450000Y-102845494D01*
X143449998Y-102845493D01*
X143303809Y-102887965D01*
X143303806Y-102887967D01*
X143164625Y-102970278D01*
X143164616Y-102970285D01*
X143050285Y-103084616D01*
X143050276Y-103084627D01*
X143024258Y-103128622D01*
X142973188Y-103176305D01*
X142917527Y-103189500D01*
X142591336Y-103189500D01*
X142524297Y-103169815D01*
X142503655Y-103153181D01*
X141836819Y-102486345D01*
X141803334Y-102425022D01*
X141800500Y-102398664D01*
X141800500Y-102224500D01*
X141820185Y-102157461D01*
X141872989Y-102111706D01*
X141924500Y-102100500D01*
X143965501Y-102100500D01*
X144032540Y-102120185D01*
X144078295Y-102172989D01*
X144089501Y-102224500D01*
X144089501Y-102313365D01*
X144089502Y-102313388D01*
X144092317Y-102337659D01*
X144092318Y-102337662D01*
X144136186Y-102437015D01*
X144136187Y-102437016D01*
X144212984Y-102513813D01*
X144312338Y-102557682D01*
X144336627Y-102560500D01*
X144697527Y-102560499D01*
X144764566Y-102580183D01*
X144804259Y-102621378D01*
X144830278Y-102665374D01*
X144830285Y-102665383D01*
X144944616Y-102779714D01*
X144944625Y-102779721D01*
X145083804Y-102862031D01*
X145230000Y-102904504D01*
X145230000Y-102904503D01*
X145730000Y-102904503D01*
X145876195Y-102862031D01*
X146015374Y-102779721D01*
X146015383Y-102779714D01*
X146129714Y-102665383D01*
X146129721Y-102665374D01*
X146212031Y-102526195D01*
X146212033Y-102526190D01*
X146257144Y-102370918D01*
X146257145Y-102370912D01*
X146258790Y-102350000D01*
X145730000Y-102350000D01*
X145730000Y-102904503D01*
X145230000Y-102904503D01*
X145230000Y-101850000D01*
X145730000Y-101850000D01*
X146258790Y-101850000D01*
X146257145Y-101829089D01*
X146212032Y-101673805D01*
X146205715Y-101663125D01*
X146188530Y-101595402D01*
X146205715Y-101536875D01*
X146212031Y-101526195D01*
X146257145Y-101370910D01*
X146258790Y-101350000D01*
X145730000Y-101350000D01*
X145730000Y-101850000D01*
X145230000Y-101850000D01*
X145230000Y-100914500D01*
X145249685Y-100847461D01*
X145302489Y-100801706D01*
X145354000Y-100790500D01*
X145619138Y-100790500D01*
X145686177Y-100810185D01*
X145706819Y-100826819D01*
X145730000Y-100850000D01*
X146258790Y-100850000D01*
X146276977Y-100830326D01*
X146336939Y-100794461D01*
X146368031Y-100790500D01*
X146522861Y-100790500D01*
X146589900Y-100810185D01*
X146610542Y-100826819D01*
X147676542Y-101892819D01*
X147710027Y-101954142D01*
X147705043Y-102023834D01*
X147663171Y-102079767D01*
X147597707Y-102104184D01*
X147588861Y-102104500D01*
X147030143Y-102104500D01*
X147030117Y-102104502D01*
X147005012Y-102107413D01*
X147005008Y-102107415D01*
X146902235Y-102152793D01*
X146822794Y-102232234D01*
X146777415Y-102335006D01*
X146777415Y-102335008D01*
X146774500Y-102360131D01*
X146774500Y-102749856D01*
X146774502Y-102749882D01*
X146777413Y-102774987D01*
X146777415Y-102774991D01*
X146822793Y-102877764D01*
X146822794Y-102877765D01*
X146902235Y-102957206D01*
X147005009Y-103002585D01*
X147030135Y-103005500D01*
X148294864Y-103005499D01*
X148294879Y-103005497D01*
X148294882Y-103005497D01*
X148319987Y-103002586D01*
X148319988Y-103002585D01*
X148319991Y-103002585D01*
X148422765Y-102957206D01*
X148502206Y-102877765D01*
X148503509Y-102874815D01*
X148512517Y-102854414D01*
X148557603Y-102801037D01*
X148624389Y-102780510D01*
X148625951Y-102780500D01*
X148743626Y-102780500D01*
X148810665Y-102800185D01*
X148856420Y-102852989D01*
X148866099Y-102885102D01*
X148870228Y-102911177D01*
X148870229Y-102911179D01*
X148873348Y-102917300D01*
X148886242Y-102985969D01*
X148859963Y-103050709D01*
X148812948Y-103087025D01*
X148777234Y-103102794D01*
X148697794Y-103182234D01*
X148652415Y-103285006D01*
X148652415Y-103285008D01*
X148649500Y-103310131D01*
X148649500Y-103699856D01*
X148649502Y-103699882D01*
X148652413Y-103724987D01*
X148652415Y-103724991D01*
X148697793Y-103827764D01*
X148697794Y-103827765D01*
X148777235Y-103907206D01*
X148880009Y-103952585D01*
X148905135Y-103955500D01*
X150169864Y-103955499D01*
X150169879Y-103955497D01*
X150169882Y-103955497D01*
X150194987Y-103952586D01*
X150194988Y-103952585D01*
X150194991Y-103952585D01*
X150297765Y-103907206D01*
X150377206Y-103827765D01*
X150422585Y-103724991D01*
X150425500Y-103699865D01*
X150425499Y-103310136D01*
X150423994Y-103297155D01*
X150422586Y-103285012D01*
X150422585Y-103285010D01*
X150422585Y-103285009D01*
X150377206Y-103182235D01*
X150297765Y-103102794D01*
X150194991Y-103057415D01*
X150186943Y-103055225D01*
X150127424Y-103018629D01*
X150097138Y-102955664D01*
X150095500Y-102935575D01*
X150095500Y-102758031D01*
X150115185Y-102690992D01*
X150167989Y-102645237D01*
X150237147Y-102635293D01*
X150300703Y-102664318D01*
X150307169Y-102670339D01*
X150601655Y-102964825D01*
X150884565Y-103247735D01*
X150948002Y-103311172D01*
X151012101Y-103337721D01*
X151030881Y-103345500D01*
X153876614Y-103345500D01*
X153943653Y-103365185D01*
X153989408Y-103417989D01*
X153999352Y-103487147D01*
X153970327Y-103550703D01*
X153964295Y-103557181D01*
X153959493Y-103561982D01*
X153959488Y-103561988D01*
X153887017Y-103687511D01*
X153887016Y-103687515D01*
X153849500Y-103827525D01*
X153849500Y-103972475D01*
X153877291Y-104076190D01*
X153887017Y-104112488D01*
X153940639Y-104205364D01*
X153957112Y-104273264D01*
X153934259Y-104339291D01*
X153879338Y-104382482D01*
X153809785Y-104389123D01*
X153762128Y-104368939D01*
X153234356Y-103999389D01*
X153181907Y-103970478D01*
X153042739Y-103934370D01*
X152899030Y-103938932D01*
X152762435Y-103983793D01*
X152644006Y-104065326D01*
X152644005Y-104065327D01*
X152604611Y-104110427D01*
X152462459Y-104313440D01*
X153466739Y-105016646D01*
X153510363Y-105071223D01*
X153517556Y-105140722D01*
X153497190Y-105189344D01*
X153424919Y-105292557D01*
X153424919Y-105292558D01*
X153528132Y-105364828D01*
X153571757Y-105419405D01*
X153578951Y-105488903D01*
X153558584Y-105537527D01*
X153084810Y-106214144D01*
X153615497Y-106585736D01*
X153618304Y-106587486D01*
X153617605Y-106588606D01*
X153663080Y-106634418D01*
X153677681Y-106702745D01*
X153653023Y-106768119D01*
X153637002Y-106785593D01*
X153285982Y-107101654D01*
X153281046Y-107105870D01*
X152691957Y-107582905D01*
X152686806Y-107586857D01*
X152073575Y-108032396D01*
X152068225Y-108036073D01*
X151432512Y-108448910D01*
X151426977Y-108452302D01*
X150770530Y-108831301D01*
X150764825Y-108834399D01*
X150089431Y-109178530D01*
X150083571Y-109181325D01*
X149391101Y-109489632D01*
X149385104Y-109492116D01*
X148677443Y-109763762D01*
X148671323Y-109765929D01*
X147950424Y-110000164D01*
X147944199Y-110002008D01*
X147212016Y-110198195D01*
X147205704Y-110199710D01*
X146464270Y-110357306D01*
X146457887Y-110358489D01*
X145709228Y-110477066D01*
X145702792Y-110477914D01*
X144948921Y-110557149D01*
X144942449Y-110557658D01*
X144185493Y-110597329D01*
X144179003Y-110597499D01*
X143420997Y-110597499D01*
X143414507Y-110597329D01*
X142657550Y-110557658D01*
X142651078Y-110557149D01*
X141897207Y-110477914D01*
X141890771Y-110477066D01*
X141142112Y-110358489D01*
X141135729Y-110357306D01*
X140394295Y-110199710D01*
X140387983Y-110198195D01*
X139655800Y-110002008D01*
X139649575Y-110000164D01*
X138928676Y-109765929D01*
X138922556Y-109763762D01*
X138214895Y-109492116D01*
X138208898Y-109489632D01*
X137516428Y-109181325D01*
X137510568Y-109178530D01*
X136835174Y-108834399D01*
X136829469Y-108831301D01*
X136173022Y-108452302D01*
X136167487Y-108448910D01*
X136109428Y-108411206D01*
X135531765Y-108036067D01*
X135526424Y-108032396D01*
X135462821Y-107986186D01*
X134913192Y-107586856D01*
X134908042Y-107582905D01*
X134318953Y-107105870D01*
X134314017Y-107101654D01*
X133750710Y-106594450D01*
X133746001Y-106589981D01*
X133666603Y-106510583D01*
X133633118Y-106449260D01*
X133638102Y-106379568D01*
X133679974Y-106323635D01*
X133745438Y-106299218D01*
X133751579Y-106298932D01*
X133766948Y-106298596D01*
X133770122Y-106298527D01*
X133811094Y-106280499D01*
X135033421Y-105424616D01*
X135227928Y-105288421D01*
X135227929Y-105288420D01*
X135227932Y-105288418D01*
X135258885Y-105256084D01*
X135260669Y-105251498D01*
X135269952Y-105227624D01*
X135280585Y-105200282D01*
X135279279Y-105140424D01*
X135261251Y-105099453D01*
X135084468Y-104846981D01*
X135062142Y-104780777D01*
X135079152Y-104713009D01*
X135098358Y-104688183D01*
X135322395Y-104464146D01*
X135383717Y-104430663D01*
X135453409Y-104435647D01*
X135497754Y-104464146D01*
X135561658Y-104528050D01*
X135674696Y-104585646D01*
X135674697Y-104585646D01*
X135674699Y-104585647D01*
X135799997Y-104605492D01*
X135800000Y-104605492D01*
X135800002Y-104605492D01*
X135917887Y-104586821D01*
X135987181Y-104595776D01*
X136040633Y-104640772D01*
X136061272Y-104707523D01*
X136056362Y-104743888D01*
X136037155Y-104809999D01*
X136037155Y-104810000D01*
X136600000Y-104810000D01*
X136600000Y-104290068D01*
X136599999Y-104290068D01*
X136564869Y-104292834D01*
X136564868Y-104292834D01*
X136410811Y-104337592D01*
X136410806Y-104337594D01*
X136387042Y-104351648D01*
X136319318Y-104368829D01*
X136253056Y-104346669D01*
X136209294Y-104292202D01*
X136201450Y-104225517D01*
X136205492Y-104200000D01*
X136205492Y-104199997D01*
X136205492Y-104199996D01*
X136185647Y-104074699D01*
X136185647Y-104074698D01*
X136174005Y-104051849D01*
X136128050Y-103961658D01*
X136128046Y-103961654D01*
X136128045Y-103961652D01*
X136038347Y-103871954D01*
X136038344Y-103871952D01*
X136038342Y-103871950D01*
X135925304Y-103814354D01*
X135925303Y-103814353D01*
X135925300Y-103814352D01*
X135800003Y-103794508D01*
X135799997Y-103794508D01*
X135674699Y-103814352D01*
X135674698Y-103814352D01*
X135599337Y-103852751D01*
X135561658Y-103871950D01*
X135561657Y-103871951D01*
X135561656Y-103871951D01*
X135533608Y-103900000D01*
X135495425Y-103938182D01*
X135434105Y-103971666D01*
X135407746Y-103974500D01*
X135326935Y-103974500D01*
X135326927Y-103974499D01*
X135312493Y-103974499D01*
X135222784Y-103974499D01*
X135222781Y-103974499D01*
X135192565Y-103987015D01*
X135192566Y-103987016D01*
X135143319Y-104007415D01*
X135139900Y-104008831D01*
X135076467Y-104072265D01*
X134855284Y-104293447D01*
X134793961Y-104326932D01*
X134724269Y-104321948D01*
X134700984Y-104310350D01*
X134695703Y-104306986D01*
X134695698Y-104306984D01*
X134695697Y-104306983D01*
X134639896Y-104285283D01*
X134639894Y-104285283D01*
X134639890Y-104285282D01*
X134580041Y-104286588D01*
X134580038Y-104286588D01*
X134580038Y-104286589D01*
X134539066Y-104304617D01*
X134539065Y-104304617D01*
X134539062Y-104304619D01*
X133122231Y-105296694D01*
X133122223Y-105296701D01*
X133091275Y-105329030D01*
X133091273Y-105329033D01*
X133069576Y-105384830D01*
X133069574Y-105384839D01*
X133070880Y-105444687D01*
X133070882Y-105444696D01*
X133088907Y-105485660D01*
X133088908Y-105485662D01*
X133088909Y-105485663D01*
X133293090Y-105777264D01*
X133315417Y-105843470D01*
X133298407Y-105911237D01*
X133247459Y-105959050D01*
X133178749Y-105971728D01*
X133114093Y-105945246D01*
X133099365Y-105931359D01*
X132698345Y-105485982D01*
X132694129Y-105481046D01*
X132311643Y-105008715D01*
X132217089Y-104891951D01*
X132213142Y-104886806D01*
X131767591Y-104273558D01*
X131763938Y-104268242D01*
X131624547Y-104053599D01*
X131604544Y-103986657D01*
X131623910Y-103919525D01*
X131676495Y-103873519D01*
X131732478Y-103862129D01*
X131842740Y-103865629D01*
X131981907Y-103829521D01*
X132034356Y-103800610D01*
X132562128Y-103431060D01*
X132628334Y-103408733D01*
X132696102Y-103425743D01*
X132743915Y-103476691D01*
X132756593Y-103545401D01*
X132740639Y-103594634D01*
X132687018Y-103687507D01*
X132687017Y-103687510D01*
X132687016Y-103687515D01*
X132649500Y-103827525D01*
X132649500Y-103972475D01*
X132677291Y-104076190D01*
X132687017Y-104112488D01*
X132759488Y-104238011D01*
X132759490Y-104238013D01*
X132759491Y-104238015D01*
X132861985Y-104340509D01*
X132861986Y-104340510D01*
X132861988Y-104340511D01*
X132987511Y-104412982D01*
X132987512Y-104412982D01*
X132987515Y-104412984D01*
X133127525Y-104450500D01*
X133127528Y-104450500D01*
X133272472Y-104450500D01*
X133272475Y-104450500D01*
X133412485Y-104412984D01*
X133538015Y-104340509D01*
X133640509Y-104238015D01*
X133712984Y-104112485D01*
X133750500Y-103972475D01*
X133750500Y-103827525D01*
X133712984Y-103687515D01*
X133712979Y-103687507D01*
X133640511Y-103561988D01*
X133640506Y-103561982D01*
X133538017Y-103459493D01*
X133538011Y-103459488D01*
X133412488Y-103387017D01*
X133412489Y-103387017D01*
X133382901Y-103379089D01*
X133272475Y-103349500D01*
X133127525Y-103349500D01*
X133079609Y-103362338D01*
X133009762Y-103360676D01*
X132951899Y-103321514D01*
X132924395Y-103257285D01*
X132935981Y-103188383D01*
X132976395Y-103140989D01*
X133505266Y-102770669D01*
X133505274Y-102770663D01*
X133550382Y-102731262D01*
X133631914Y-102612835D01*
X133676775Y-102476238D01*
X133681338Y-102332527D01*
X133645229Y-102193364D01*
X133645228Y-102193361D01*
X133616318Y-102140911D01*
X133616312Y-102140902D01*
X133474169Y-101937900D01*
X133474168Y-101937900D01*
X132469888Y-102641106D01*
X132403682Y-102663433D01*
X132335915Y-102646423D01*
X132297190Y-102610654D01*
X132224920Y-102507441D01*
X132224919Y-102507441D01*
X132121706Y-102579712D01*
X132055500Y-102602039D01*
X131987733Y-102585029D01*
X131949008Y-102549261D01*
X131475233Y-101872642D01*
X130944565Y-102244221D01*
X130899457Y-102283620D01*
X130856084Y-102346621D01*
X130801854Y-102390676D01*
X130732415Y-102398420D01*
X130669813Y-102367392D01*
X130643464Y-102332598D01*
X130633664Y-102313365D01*
X130621468Y-102289428D01*
X130618682Y-102283588D01*
X130310365Y-101591097D01*
X130308193Y-101585853D01*
X131884809Y-101585853D01*
X131884809Y-101585854D01*
X132286312Y-102159259D01*
X133187380Y-101528324D01*
X133045228Y-101325311D01*
X133005834Y-101280211D01*
X133005833Y-101280210D01*
X132887404Y-101198677D01*
X132750807Y-101153816D01*
X132750811Y-101153816D01*
X132607099Y-101149254D01*
X132467929Y-101185362D01*
X132415486Y-101214270D01*
X131884809Y-101585853D01*
X130308193Y-101585853D01*
X130307883Y-101585104D01*
X130305922Y-101579996D01*
X130036232Y-100877431D01*
X130034070Y-100871323D01*
X129878952Y-100393920D01*
X130320499Y-100393920D01*
X130349340Y-100538907D01*
X130349343Y-100538917D01*
X130405912Y-100675488D01*
X130405919Y-100675501D01*
X130488048Y-100798415D01*
X130488051Y-100798419D01*
X130592580Y-100902948D01*
X130592584Y-100902951D01*
X130715498Y-100985080D01*
X130715511Y-100985087D01*
X130852082Y-101041656D01*
X130852087Y-101041658D01*
X130852091Y-101041658D01*
X130852092Y-101041659D01*
X130997079Y-101070500D01*
X130997082Y-101070500D01*
X131744920Y-101070500D01*
X131842984Y-101050993D01*
X131889913Y-101041658D01*
X132002708Y-100994937D01*
X132026488Y-100985087D01*
X132026488Y-100985086D01*
X132026495Y-100985084D01*
X132149416Y-100902951D01*
X132253951Y-100798416D01*
X132336084Y-100675495D01*
X132392658Y-100538913D01*
X132409748Y-100453000D01*
X132421500Y-100393920D01*
X132421500Y-100246079D01*
X132392659Y-100101092D01*
X132392658Y-100101091D01*
X132392658Y-100101087D01*
X132388550Y-100091170D01*
X132336087Y-99964511D01*
X132336080Y-99964498D01*
X132253951Y-99841584D01*
X132253948Y-99841580D01*
X132149419Y-99737051D01*
X132149415Y-99737048D01*
X132026501Y-99654919D01*
X132026488Y-99654912D01*
X131889917Y-99598343D01*
X131889907Y-99598340D01*
X131744920Y-99569500D01*
X131744918Y-99569500D01*
X130997082Y-99569500D01*
X130997080Y-99569500D01*
X130852092Y-99598340D01*
X130852082Y-99598343D01*
X130715511Y-99654912D01*
X130715498Y-99654919D01*
X130592584Y-99737048D01*
X130592580Y-99737051D01*
X130488051Y-99841580D01*
X130488048Y-99841584D01*
X130405919Y-99964498D01*
X130405912Y-99964511D01*
X130349343Y-100101082D01*
X130349340Y-100101092D01*
X130320500Y-100246079D01*
X130320500Y-100246082D01*
X130320500Y-100393918D01*
X130320500Y-100393920D01*
X130320499Y-100393920D01*
X129878952Y-100393920D01*
X129799827Y-100150400D01*
X129797998Y-100144224D01*
X129601800Y-99412001D01*
X129600289Y-99405704D01*
X129599076Y-99399999D01*
X129458362Y-98737989D01*
X129442693Y-98664270D01*
X129441510Y-98657887D01*
X129417453Y-98506000D01*
X129322928Y-97909196D01*
X129322089Y-97902824D01*
X129242848Y-97148896D01*
X129242343Y-97142474D01*
X129202671Y-96385492D01*
X129202501Y-96379002D01*
X129202501Y-95620997D01*
X129202671Y-95614507D01*
X129205095Y-95568252D01*
X129242343Y-94857522D01*
X129242847Y-94851106D01*
X129322089Y-94097170D01*
X129322928Y-94090808D01*
X129441510Y-93342109D01*
X129442693Y-93335729D01*
X129450666Y-93298219D01*
X129600294Y-92594271D01*
X129601798Y-92588007D01*
X129798001Y-91855765D01*
X129799824Y-91849609D01*
X129830915Y-91753920D01*
X130320499Y-91753920D01*
X130349340Y-91898907D01*
X130349343Y-91898917D01*
X130405912Y-92035488D01*
X130405919Y-92035501D01*
X130488048Y-92158415D01*
X130488051Y-92158419D01*
X130592580Y-92262948D01*
X130592584Y-92262951D01*
X130715498Y-92345080D01*
X130715511Y-92345087D01*
X130852082Y-92401656D01*
X130852087Y-92401658D01*
X130852091Y-92401658D01*
X130852092Y-92401659D01*
X130997079Y-92430500D01*
X130997082Y-92430500D01*
X131744920Y-92430500D01*
X131842462Y-92411096D01*
X131889913Y-92401658D01*
X132026495Y-92345084D01*
X132149416Y-92262951D01*
X132253951Y-92158416D01*
X132336084Y-92035495D01*
X132392658Y-91898913D01*
X132413252Y-91795384D01*
X132421500Y-91753920D01*
X132421500Y-91606079D01*
X132392659Y-91461092D01*
X132392658Y-91461091D01*
X132392658Y-91461087D01*
X132371615Y-91410285D01*
X132336087Y-91324511D01*
X132336080Y-91324498D01*
X132253951Y-91201584D01*
X132253948Y-91201580D01*
X132149419Y-91097051D01*
X132149415Y-91097048D01*
X132026501Y-91014919D01*
X132026488Y-91014912D01*
X131889917Y-90958343D01*
X131889907Y-90958340D01*
X131744920Y-90929500D01*
X131744918Y-90929500D01*
X130997082Y-90929500D01*
X130997080Y-90929500D01*
X130852092Y-90958340D01*
X130852082Y-90958343D01*
X130715511Y-91014912D01*
X130715498Y-91014919D01*
X130592584Y-91097048D01*
X130592580Y-91097051D01*
X130488051Y-91201580D01*
X130488048Y-91201584D01*
X130405919Y-91324498D01*
X130405912Y-91324511D01*
X130349343Y-91461082D01*
X130349340Y-91461092D01*
X130320500Y-91606079D01*
X130320500Y-91606082D01*
X130320500Y-91753918D01*
X130320500Y-91753920D01*
X130320499Y-91753920D01*
X129830915Y-91753920D01*
X130034078Y-91128652D01*
X130036228Y-91122580D01*
X130307889Y-90414878D01*
X130310359Y-90408915D01*
X130618689Y-89716396D01*
X130621453Y-89710600D01*
X130965608Y-89035158D01*
X130968689Y-89029485D01*
X131347718Y-88372987D01*
X131351067Y-88367522D01*
X131763949Y-87731739D01*
X131767579Y-87726458D01*
X132213161Y-87113168D01*
X132217075Y-87108066D01*
X132534897Y-86715588D01*
X132592382Y-86675879D01*
X132662213Y-86673551D01*
X132722217Y-86709346D01*
X132749070Y-86754935D01*
X132768085Y-86812834D01*
X132849617Y-86931262D01*
X132894725Y-86970662D01*
X133423605Y-87340989D01*
X133467229Y-87395566D01*
X133474422Y-87465065D01*
X133442900Y-87527419D01*
X133382670Y-87562833D01*
X133320390Y-87562339D01*
X133272475Y-87549500D01*
X133127525Y-87549500D01*
X132998993Y-87583940D01*
X132987511Y-87587017D01*
X132861988Y-87659488D01*
X132861982Y-87659493D01*
X132759493Y-87761982D01*
X132759488Y-87761988D01*
X132687017Y-87887511D01*
X132687016Y-87887515D01*
X132649500Y-88027525D01*
X132649500Y-88172475D01*
X132682324Y-88294973D01*
X132687017Y-88312488D01*
X132759488Y-88438011D01*
X132759490Y-88438013D01*
X132759491Y-88438015D01*
X132861985Y-88540509D01*
X132861986Y-88540510D01*
X132861988Y-88540511D01*
X132987511Y-88612982D01*
X132987512Y-88612982D01*
X132987515Y-88612984D01*
X133127525Y-88650500D01*
X133127528Y-88650500D01*
X133272472Y-88650500D01*
X133272475Y-88650500D01*
X133412485Y-88612984D01*
X133538015Y-88540509D01*
X133640509Y-88438015D01*
X133712984Y-88312485D01*
X133750500Y-88172475D01*
X133750500Y-88027525D01*
X133712984Y-87887515D01*
X133712981Y-87887510D01*
X133659360Y-87794635D01*
X133642887Y-87726735D01*
X133665739Y-87660708D01*
X133720661Y-87617517D01*
X133790214Y-87610876D01*
X133837871Y-87631060D01*
X134365643Y-88000610D01*
X134418092Y-88029521D01*
X134557259Y-88065628D01*
X134700969Y-88061067D01*
X134837564Y-88016206D01*
X134955993Y-87934673D01*
X134955994Y-87934672D01*
X134995388Y-87889572D01*
X134995395Y-87889564D01*
X135137541Y-87686558D01*
X135137540Y-87686557D01*
X134133261Y-86983353D01*
X134089636Y-86928776D01*
X134082443Y-86859278D01*
X134102809Y-86810654D01*
X134175079Y-86707441D01*
X134087399Y-86646047D01*
X134523261Y-86646047D01*
X134523262Y-86646048D01*
X135424328Y-87276981D01*
X135566478Y-87073971D01*
X135595388Y-87021522D01*
X135600137Y-87003220D01*
X135620000Y-86970041D01*
X135620000Y-86100000D01*
X135616319Y-86096319D01*
X135582834Y-86034996D01*
X135580000Y-86008638D01*
X135580000Y-85400000D01*
X135060069Y-85400000D01*
X135062832Y-85435122D01*
X135062833Y-85435128D01*
X135107592Y-85589188D01*
X135107593Y-85589191D01*
X135126872Y-85621790D01*
X135144055Y-85689514D01*
X135139217Y-85719505D01*
X135092855Y-85879086D01*
X135092854Y-85879092D01*
X135090000Y-85915355D01*
X135090000Y-85950139D01*
X135070315Y-86017178D01*
X135017511Y-86062933D01*
X134948353Y-86072877D01*
X134940671Y-86069837D01*
X134924764Y-86072641D01*
X134523261Y-86646047D01*
X134087399Y-86646047D01*
X134071867Y-86635171D01*
X134028242Y-86580594D01*
X134021048Y-86511096D01*
X134041415Y-86462472D01*
X134515188Y-85785854D01*
X133984502Y-85414263D01*
X133981696Y-85412514D01*
X133982386Y-85411406D01*
X133936887Y-85365524D01*
X133922322Y-85297189D01*
X133947014Y-85231828D01*
X133962988Y-85214413D01*
X134312179Y-84900000D01*
X135060069Y-84900000D01*
X135580000Y-84900000D01*
X135580000Y-84337154D01*
X135579998Y-84337153D01*
X135440811Y-84377591D01*
X135440808Y-84377593D01*
X135302714Y-84459261D01*
X135302705Y-84459268D01*
X135189268Y-84572705D01*
X135189261Y-84572714D01*
X135107593Y-84710808D01*
X135107592Y-84710811D01*
X135062833Y-84864871D01*
X135062832Y-84864877D01*
X135060069Y-84900000D01*
X134312179Y-84900000D01*
X134314025Y-84898338D01*
X134318953Y-84894129D01*
X134328237Y-84886611D01*
X134908066Y-84417075D01*
X134913168Y-84413161D01*
X135526458Y-83967579D01*
X135531739Y-83963949D01*
X136167522Y-83551067D01*
X136172987Y-83547718D01*
X136829485Y-83168689D01*
X136835158Y-83165608D01*
X137510600Y-82821453D01*
X137516396Y-82818689D01*
X138208915Y-82510359D01*
X138214878Y-82507889D01*
X138922580Y-82236228D01*
X138928652Y-82234078D01*
X139649609Y-81999824D01*
X139655765Y-81998001D01*
X140043407Y-81894133D01*
X140113257Y-81895796D01*
G37*
%TD.AperFunction*%
%TA.AperFunction,Conductor*%
G36*
X149986658Y-82775526D02*
G01*
X150065633Y-82810688D01*
X150083572Y-82818675D01*
X150089414Y-82821461D01*
X150388789Y-82974000D01*
X150764825Y-83165600D01*
X150770530Y-83168698D01*
X151426995Y-83547708D01*
X151432494Y-83551078D01*
X152068242Y-83963938D01*
X152073558Y-83967591D01*
X152686806Y-84413142D01*
X152691951Y-84417089D01*
X152772914Y-84482652D01*
X153281046Y-84894129D01*
X153285982Y-84898345D01*
X153637003Y-85214406D01*
X153673652Y-85273893D01*
X153672321Y-85343750D01*
X153633435Y-85401798D01*
X153618140Y-85412250D01*
X153618305Y-85412514D01*
X153615489Y-85414269D01*
X153084810Y-85785853D01*
X153558584Y-86462472D01*
X153580911Y-86528679D01*
X153563901Y-86596446D01*
X153528133Y-86635171D01*
X153424919Y-86707442D01*
X153497190Y-86810655D01*
X153519517Y-86876861D01*
X153502507Y-86944628D01*
X153466738Y-86983353D01*
X152462458Y-87686557D01*
X152604611Y-87889572D01*
X152644005Y-87934672D01*
X152644006Y-87934673D01*
X152762435Y-88016206D01*
X152899032Y-88061067D01*
X152899028Y-88061067D01*
X153042740Y-88065629D01*
X153181907Y-88029521D01*
X153234356Y-88000610D01*
X153762128Y-87631060D01*
X153828334Y-87608733D01*
X153896102Y-87625743D01*
X153943915Y-87676691D01*
X153956593Y-87745401D01*
X153940639Y-87794634D01*
X153887018Y-87887507D01*
X153887017Y-87887510D01*
X153884742Y-87896000D01*
X153849500Y-88027525D01*
X153849500Y-88172475D01*
X153882324Y-88294973D01*
X153887017Y-88312488D01*
X153959488Y-88438011D01*
X153959490Y-88438013D01*
X153959491Y-88438015D01*
X154061985Y-88540509D01*
X154061986Y-88540510D01*
X154061988Y-88540511D01*
X154187511Y-88612982D01*
X154187512Y-88612982D01*
X154187515Y-88612984D01*
X154327525Y-88650500D01*
X154327528Y-88650500D01*
X154472472Y-88650500D01*
X154472475Y-88650500D01*
X154612485Y-88612984D01*
X154738015Y-88540509D01*
X154840509Y-88438015D01*
X154912984Y-88312485D01*
X154950500Y-88172475D01*
X154950500Y-88027525D01*
X154912984Y-87887515D01*
X154912979Y-87887507D01*
X154840511Y-87761988D01*
X154840506Y-87761982D01*
X154738017Y-87659493D01*
X154738011Y-87659488D01*
X154612488Y-87587017D01*
X154612489Y-87587017D01*
X154601006Y-87583940D01*
X154472475Y-87549500D01*
X154327525Y-87549500D01*
X154279609Y-87562338D01*
X154209762Y-87560676D01*
X154151899Y-87521514D01*
X154124395Y-87457285D01*
X154135981Y-87388383D01*
X154176395Y-87340989D01*
X154705266Y-86970669D01*
X154705274Y-86970663D01*
X154750382Y-86931262D01*
X154831912Y-86812837D01*
X154850928Y-86754936D01*
X154890547Y-86697385D01*
X154954991Y-86670390D01*
X155023800Y-86682522D01*
X155065103Y-86715589D01*
X155315669Y-87025013D01*
X155382905Y-87108042D01*
X155386856Y-87113192D01*
X155803431Y-87686558D01*
X155832396Y-87726424D01*
X155836067Y-87731765D01*
X156233737Y-88344123D01*
X156248910Y-88367487D01*
X156252302Y-88373022D01*
X156631301Y-89029469D01*
X156634399Y-89035174D01*
X156978530Y-89710568D01*
X156981325Y-89716428D01*
X157289632Y-90408898D01*
X157292116Y-90414895D01*
X157563762Y-91122556D01*
X157565929Y-91128676D01*
X157800164Y-91849575D01*
X157802008Y-91855800D01*
X157998195Y-92587983D01*
X157999710Y-92594295D01*
X158009523Y-92640461D01*
X158004207Y-92710128D01*
X157962070Y-92765862D01*
X157896491Y-92789967D01*
X157874977Y-92789531D01*
X157832844Y-92785000D01*
X157785000Y-92785000D01*
X157785000Y-93336000D01*
X157765315Y-93403039D01*
X157712511Y-93448794D01*
X157661000Y-93460000D01*
X157610000Y-93460000D01*
X157610000Y-93511000D01*
X157590315Y-93578039D01*
X157537511Y-93623794D01*
X157486000Y-93635000D01*
X156881362Y-93635000D01*
X156814323Y-93615315D01*
X156807727Y-93610000D01*
X155334000Y-93610000D01*
X155266961Y-93590315D01*
X155221206Y-93537511D01*
X155210000Y-93486000D01*
X155210000Y-93460000D01*
X155184000Y-93460000D01*
X155116961Y-93440315D01*
X155071206Y-93387511D01*
X155060000Y-93336000D01*
X155060000Y-93310000D01*
X155360000Y-93310000D01*
X155660000Y-93310000D01*
X155960000Y-93310000D01*
X156260000Y-93310000D01*
X156560000Y-93310000D01*
X156814410Y-93310000D01*
X156855004Y-93287834D01*
X156857426Y-93287573D01*
X156860000Y-93285000D01*
X157160000Y-93285000D01*
X157435000Y-93285000D01*
X157435000Y-92785000D01*
X157387155Y-92785000D01*
X157327623Y-92791401D01*
X157326006Y-92791784D01*
X157324070Y-92791784D01*
X157319913Y-92792231D01*
X157319865Y-92791784D01*
X157275135Y-92791784D01*
X157275087Y-92792231D01*
X157270930Y-92791784D01*
X157268994Y-92791784D01*
X157267376Y-92791401D01*
X157207844Y-92785000D01*
X157160000Y-92785000D01*
X157160000Y-93285000D01*
X156860000Y-93285000D01*
X156860000Y-92785000D01*
X156812155Y-92785000D01*
X156752624Y-92791401D01*
X156745073Y-92793186D01*
X156744734Y-92791754D01*
X156683630Y-92796119D01*
X156668350Y-92791632D01*
X156667375Y-92791401D01*
X156607844Y-92785000D01*
X156560000Y-92785000D01*
X156560000Y-93310000D01*
X156260000Y-93310000D01*
X156260000Y-92785000D01*
X156212155Y-92785000D01*
X156152624Y-92791401D01*
X156145073Y-92793186D01*
X156144734Y-92791754D01*
X156083630Y-92796119D01*
X156068350Y-92791632D01*
X156067375Y-92791401D01*
X156007844Y-92785000D01*
X155960000Y-92785000D01*
X155960000Y-93310000D01*
X155660000Y-93310000D01*
X155660000Y-92785000D01*
X155612155Y-92785000D01*
X155552624Y-92791401D01*
X155545073Y-92793186D01*
X155544734Y-92791754D01*
X155483630Y-92796119D01*
X155468350Y-92791632D01*
X155467375Y-92791401D01*
X155407844Y-92785000D01*
X155360000Y-92785000D01*
X155360000Y-93310000D01*
X155060000Y-93310000D01*
X155060000Y-92785000D01*
X155012155Y-92785000D01*
X154952627Y-92791401D01*
X154952620Y-92791403D01*
X154817913Y-92841645D01*
X154817906Y-92841649D01*
X154702812Y-92927809D01*
X154702809Y-92927812D01*
X154616649Y-93042907D01*
X154612574Y-93053833D01*
X154570703Y-93109767D01*
X154505239Y-93134184D01*
X154496392Y-93134500D01*
X154435178Y-93134500D01*
X154391278Y-93143232D01*
X154382453Y-93146888D01*
X154312983Y-93154357D01*
X154287547Y-93146888D01*
X154278720Y-93143232D01*
X154262347Y-93139975D01*
X154200436Y-93107590D01*
X154170357Y-93061691D01*
X154163351Y-93042907D01*
X154077190Y-92927812D01*
X154077187Y-92927809D01*
X153962093Y-92841649D01*
X153962086Y-92841645D01*
X153827379Y-92791403D01*
X153827372Y-92791401D01*
X153767844Y-92785000D01*
X153720000Y-92785000D01*
X153720000Y-93948192D01*
X153711189Y-93978196D01*
X153718977Y-93995914D01*
X153720000Y-94011807D01*
X153720000Y-94135000D01*
X153767828Y-94135000D01*
X153767837Y-94134999D01*
X153787741Y-94132859D01*
X153856501Y-94145262D01*
X153907640Y-94192871D01*
X153925000Y-94256148D01*
X153925000Y-94305000D01*
X154475000Y-94305000D01*
X154475000Y-94104000D01*
X154494685Y-94036961D01*
X154547489Y-93991206D01*
X154599000Y-93980000D01*
X154600000Y-93980000D01*
X154600000Y-93979000D01*
X154619685Y-93911961D01*
X154672489Y-93866206D01*
X154724000Y-93855000D01*
X155039410Y-93855000D01*
X155080004Y-93832834D01*
X155106362Y-93830000D01*
X157486000Y-93830000D01*
X157553039Y-93849685D01*
X157598794Y-93902489D01*
X157610000Y-93954000D01*
X157610000Y-94006000D01*
X157590315Y-94073039D01*
X157537511Y-94118794D01*
X157486000Y-94130000D01*
X155106362Y-94130000D01*
X155039323Y-94110315D01*
X155032727Y-94105000D01*
X154725000Y-94105000D01*
X154725000Y-98355000D01*
X155039410Y-98355000D01*
X155080004Y-98332834D01*
X155106362Y-98330000D01*
X157486000Y-98330000D01*
X157553039Y-98349685D01*
X157598794Y-98402489D01*
X157610000Y-98454000D01*
X157610000Y-98506000D01*
X157590315Y-98573039D01*
X157537511Y-98618794D01*
X157486000Y-98630000D01*
X157160000Y-98630000D01*
X157160000Y-98850000D01*
X157486000Y-98850000D01*
X157553039Y-98869685D01*
X157598794Y-98922489D01*
X157610000Y-98974000D01*
X157610000Y-99026000D01*
X157590315Y-99093039D01*
X157537511Y-99138794D01*
X157486000Y-99150000D01*
X157210000Y-99150000D01*
X157210000Y-100874503D01*
X157363687Y-100829855D01*
X157364117Y-100831336D01*
X157424621Y-100823861D01*
X157487587Y-100854144D01*
X157524185Y-100913662D01*
X157522796Y-100983518D01*
X157520301Y-100990662D01*
X157292116Y-101585104D01*
X157289632Y-101591101D01*
X156981325Y-102283571D01*
X156978530Y-102289431D01*
X156634399Y-102964825D01*
X156631301Y-102970530D01*
X156252302Y-103626977D01*
X156248910Y-103632512D01*
X155836073Y-104268225D01*
X155832396Y-104273575D01*
X155386857Y-104886806D01*
X155382905Y-104891957D01*
X155065104Y-105284409D01*
X155007617Y-105324120D01*
X154937786Y-105326448D01*
X154877782Y-105290653D01*
X154850929Y-105245063D01*
X154831914Y-105187165D01*
X154750382Y-105068737D01*
X154705274Y-105029337D01*
X154176394Y-104659010D01*
X154132770Y-104604433D01*
X154125577Y-104534934D01*
X154157099Y-104472580D01*
X154217329Y-104437166D01*
X154279609Y-104437660D01*
X154327525Y-104450500D01*
X154327527Y-104450500D01*
X154472472Y-104450500D01*
X154472475Y-104450500D01*
X154612485Y-104412984D01*
X154738015Y-104340509D01*
X154840509Y-104238015D01*
X154912984Y-104112485D01*
X154950500Y-103972475D01*
X154950500Y-103827525D01*
X154912984Y-103687515D01*
X154912979Y-103687507D01*
X154840511Y-103561988D01*
X154840506Y-103561982D01*
X154808950Y-103530426D01*
X154775465Y-103469103D01*
X154780449Y-103399411D01*
X154822321Y-103343478D01*
X154849164Y-103328191D01*
X154865982Y-103321225D01*
X154890258Y-103311170D01*
X154953692Y-103247736D01*
X154953692Y-103247735D01*
X154971130Y-103230297D01*
X154971132Y-103230294D01*
X155057908Y-103143517D01*
X155119229Y-103110034D01*
X155188921Y-103115018D01*
X155216708Y-103129623D01*
X155739066Y-103495383D01*
X155780038Y-103513411D01*
X155799990Y-103513846D01*
X155839890Y-103514717D01*
X155839890Y-103514716D01*
X155839896Y-103514717D01*
X155895697Y-103493017D01*
X155928032Y-103462063D01*
X155971902Y-103399411D01*
X156213410Y-103054501D01*
X156461251Y-102700547D01*
X156479279Y-102659576D01*
X156480585Y-102599718D01*
X156465334Y-102560499D01*
X156458886Y-102543917D01*
X156458884Y-102543914D01*
X156427936Y-102511585D01*
X156427928Y-102511578D01*
X155011097Y-101519503D01*
X155011096Y-101519502D01*
X155011094Y-101519501D01*
X154970122Y-101501473D01*
X154970120Y-101501472D01*
X154970118Y-101501472D01*
X154910269Y-101500166D01*
X154910265Y-101500167D01*
X154910264Y-101500167D01*
X154871200Y-101515358D01*
X154854460Y-101521868D01*
X154854459Y-101521869D01*
X154822131Y-101552816D01*
X154822124Y-101552824D01*
X154288909Y-102314335D01*
X154288907Y-102314338D01*
X154270882Y-102355303D01*
X154270880Y-102355312D01*
X154269574Y-102415160D01*
X154269576Y-102415169D01*
X154291273Y-102470966D01*
X154291275Y-102470969D01*
X154322223Y-102503298D01*
X154322231Y-102503305D01*
X154558761Y-102668925D01*
X154602386Y-102723502D01*
X154609579Y-102793000D01*
X154578057Y-102855355D01*
X154517827Y-102890769D01*
X154487638Y-102894500D01*
X151220504Y-102894500D01*
X151153465Y-102874815D01*
X151132823Y-102858181D01*
X148791819Y-100517177D01*
X148758334Y-100455854D01*
X148755500Y-100429496D01*
X148755500Y-99799000D01*
X148775185Y-99731961D01*
X148827989Y-99686206D01*
X148879500Y-99675000D01*
X148910000Y-99675000D01*
X148910000Y-99124000D01*
X148929685Y-99056961D01*
X148982489Y-99011206D01*
X149034000Y-99000000D01*
X149086000Y-99000000D01*
X149153039Y-99019685D01*
X149198794Y-99072489D01*
X149210000Y-99124000D01*
X149210000Y-99675000D01*
X149210500Y-99675000D01*
X149277539Y-99694685D01*
X149323294Y-99747489D01*
X149334500Y-99799000D01*
X149334500Y-100500878D01*
X149334499Y-100500892D01*
X149334499Y-100510881D01*
X149334499Y-100600591D01*
X149351232Y-100640988D01*
X149354802Y-100649605D01*
X149354802Y-100649606D01*
X149368829Y-100683471D01*
X149368830Y-100683472D01*
X149432264Y-100746906D01*
X149432265Y-100746906D01*
X150202264Y-101516906D01*
X150202267Y-101516907D01*
X150212421Y-101523692D01*
X150210753Y-101526187D01*
X150250434Y-101558153D01*
X150259068Y-101572585D01*
X150268557Y-101591206D01*
X150270053Y-101594142D01*
X150270056Y-101594146D01*
X150359754Y-101683844D01*
X150359756Y-101683845D01*
X150359760Y-101683849D01*
X150472798Y-101741445D01*
X150472799Y-101741445D01*
X150472801Y-101741446D01*
X150598099Y-101761291D01*
X150598102Y-101761291D01*
X150598105Y-101761291D01*
X150723402Y-101741446D01*
X150723403Y-101741446D01*
X150723404Y-101741445D01*
X150723406Y-101741445D01*
X150836444Y-101683849D01*
X150926152Y-101594141D01*
X150983748Y-101481103D01*
X150983748Y-101481101D01*
X150983749Y-101481100D01*
X150983749Y-101481099D01*
X151003594Y-101355802D01*
X151003594Y-101355795D01*
X150990005Y-101270000D01*
X152325496Y-101270000D01*
X152367968Y-101416195D01*
X152450278Y-101555374D01*
X152450285Y-101555383D01*
X152564616Y-101669714D01*
X152564625Y-101669721D01*
X152703804Y-101752031D01*
X152859089Y-101797145D01*
X152880000Y-101798789D01*
X153380000Y-101798789D01*
X153400910Y-101797145D01*
X153556195Y-101752031D01*
X153695374Y-101669721D01*
X153695383Y-101669714D01*
X153809714Y-101555383D01*
X153809721Y-101555374D01*
X153892031Y-101416195D01*
X153934504Y-101270000D01*
X153380000Y-101270000D01*
X153380000Y-101798789D01*
X152880000Y-101798789D01*
X152880000Y-101270000D01*
X152325496Y-101270000D01*
X150990005Y-101270000D01*
X150983749Y-101230498D01*
X150983749Y-101230497D01*
X150975481Y-101214270D01*
X150926152Y-101117457D01*
X150926148Y-101117453D01*
X150926147Y-101117451D01*
X150859689Y-101050993D01*
X150826204Y-100989670D01*
X150831188Y-100919978D01*
X150836880Y-100907028D01*
X150870503Y-100841041D01*
X150874226Y-100817539D01*
X150884843Y-100750499D01*
X150890349Y-100715737D01*
X150888393Y-100703391D01*
X150897346Y-100634102D01*
X150923182Y-100596315D01*
X150968496Y-100551001D01*
X151029817Y-100517518D01*
X151099509Y-100522502D01*
X151155442Y-100564374D01*
X151178648Y-100619284D01*
X151184353Y-100655301D01*
X151184353Y-100655302D01*
X151184354Y-100655304D01*
X151241950Y-100768342D01*
X151241952Y-100768344D01*
X151241954Y-100768347D01*
X151331652Y-100858045D01*
X151331654Y-100858046D01*
X151331658Y-100858050D01*
X151444696Y-100915646D01*
X151444697Y-100915646D01*
X151444699Y-100915647D01*
X151569997Y-100935492D01*
X151570000Y-100935492D01*
X151570003Y-100935492D01*
X151695300Y-100915647D01*
X151695301Y-100915647D01*
X151695302Y-100915646D01*
X151695304Y-100915646D01*
X151808342Y-100858050D01*
X151898050Y-100768342D01*
X151955646Y-100655304D01*
X151962040Y-100614931D01*
X151991968Y-100551799D01*
X152051278Y-100514867D01*
X152103911Y-100511857D01*
X152189998Y-100525492D01*
X152189999Y-100525492D01*
X152189999Y-100525491D01*
X152190000Y-100525492D01*
X152213504Y-100521769D01*
X152282797Y-100530723D01*
X152336249Y-100575718D01*
X152356890Y-100642469D01*
X152351980Y-100678836D01*
X152325495Y-100770000D01*
X153934504Y-100770000D01*
X153913904Y-100699094D01*
X153914104Y-100629224D01*
X153952047Y-100570554D01*
X154015685Y-100541711D01*
X154032971Y-100540499D01*
X154267527Y-100540499D01*
X154334566Y-100560184D01*
X154374259Y-100601378D01*
X154400278Y-100645374D01*
X154400285Y-100645383D01*
X154514616Y-100759714D01*
X154514625Y-100759721D01*
X154653804Y-100842031D01*
X154800000Y-100884504D01*
X154800000Y-100204000D01*
X154819685Y-100136961D01*
X154872489Y-100091206D01*
X154924000Y-100080000D01*
X155176000Y-100080000D01*
X155243039Y-100099685D01*
X155288794Y-100152489D01*
X155300000Y-100204000D01*
X155300000Y-100884503D01*
X155446195Y-100842031D01*
X155585374Y-100759721D01*
X155585383Y-100759714D01*
X155699714Y-100645383D01*
X155699721Y-100645374D01*
X155731652Y-100591380D01*
X155782720Y-100543696D01*
X155838381Y-100530499D01*
X156177527Y-100530499D01*
X156244566Y-100550184D01*
X156284259Y-100591378D01*
X156310278Y-100635374D01*
X156310285Y-100635383D01*
X156424616Y-100749714D01*
X156424625Y-100749721D01*
X156563804Y-100832031D01*
X156710000Y-100874504D01*
X156710000Y-99150000D01*
X155334000Y-99150000D01*
X155266961Y-99130315D01*
X155221206Y-99077511D01*
X155210000Y-99026000D01*
X155210000Y-98974000D01*
X155229685Y-98906961D01*
X155282489Y-98861206D01*
X155334000Y-98850000D01*
X156860000Y-98850000D01*
X156860000Y-98630000D01*
X155106362Y-98630000D01*
X155039323Y-98610315D01*
X155032727Y-98605000D01*
X153925000Y-98605000D01*
X153906806Y-98623193D01*
X153905315Y-98628273D01*
X153852511Y-98674028D01*
X153783353Y-98683972D01*
X153776810Y-98682852D01*
X153734820Y-98674500D01*
X153405180Y-98674500D01*
X153405178Y-98674500D01*
X153349300Y-98685615D01*
X153348718Y-98682690D01*
X153297967Y-98688140D01*
X153286572Y-98684794D01*
X153234822Y-98674500D01*
X153234820Y-98674500D01*
X152905180Y-98674500D01*
X152905179Y-98674500D01*
X152895752Y-98676375D01*
X152826161Y-98670146D01*
X152770984Y-98627282D01*
X152764432Y-98615534D01*
X152690671Y-98541773D01*
X152690664Y-98541767D01*
X152678320Y-98529423D01*
X152644835Y-98468100D01*
X152643529Y-98422342D01*
X152645484Y-98410000D01*
X152645484Y-98409997D01*
X152645484Y-98400241D01*
X152649007Y-98400241D01*
X152655662Y-98348594D01*
X152700637Y-98295125D01*
X152749797Y-98275974D01*
X152815007Y-98265646D01*
X152928045Y-98208050D01*
X152933260Y-98202835D01*
X153925000Y-98202835D01*
X153929183Y-98241748D01*
X153929183Y-98268252D01*
X153925000Y-98307164D01*
X153925000Y-98355000D01*
X154475000Y-98355000D01*
X154475000Y-98155000D01*
X153925000Y-98155000D01*
X153925000Y-98202835D01*
X152933260Y-98202835D01*
X153017753Y-98118342D01*
X153075349Y-98005304D01*
X153075349Y-98005301D01*
X153079779Y-97996608D01*
X153081037Y-97997249D01*
X153114621Y-97948133D01*
X153149784Y-97927943D01*
X153162084Y-97923355D01*
X153162093Y-97923350D01*
X153277187Y-97837190D01*
X153277190Y-97837187D01*
X153340336Y-97752835D01*
X153925000Y-97752835D01*
X153929183Y-97791748D01*
X153929183Y-97818252D01*
X153925000Y-97857164D01*
X153925000Y-97905000D01*
X154475000Y-97905000D01*
X154475000Y-97705000D01*
X153925000Y-97705000D01*
X153925000Y-97752835D01*
X153340336Y-97752835D01*
X153363350Y-97722093D01*
X153363354Y-97722086D01*
X153413596Y-97587379D01*
X153413598Y-97587372D01*
X153419999Y-97527844D01*
X153420000Y-97527827D01*
X153420000Y-97430000D01*
X150770000Y-97430000D01*
X150770000Y-97980000D01*
X150772865Y-97982865D01*
X150806350Y-98044188D01*
X150801366Y-98113880D01*
X150772867Y-98158226D01*
X150712915Y-98218180D01*
X150651592Y-98251666D01*
X150625232Y-98254500D01*
X149881161Y-98254500D01*
X149814122Y-98234815D01*
X149768367Y-98182011D01*
X149758423Y-98112853D01*
X149758687Y-98111103D01*
X149758973Y-98109297D01*
X149775492Y-98005000D01*
X149775491Y-98004997D01*
X149776340Y-97999640D01*
X149806269Y-97936505D01*
X149865581Y-97899573D01*
X149935443Y-97900571D01*
X149973126Y-97919771D01*
X149977910Y-97923352D01*
X149977913Y-97923354D01*
X150112620Y-97973596D01*
X150112627Y-97973598D01*
X150172155Y-97979999D01*
X150172172Y-97980000D01*
X150270000Y-97980000D01*
X150270000Y-97302835D01*
X153925000Y-97302835D01*
X153929183Y-97341748D01*
X153929183Y-97368252D01*
X153925000Y-97407164D01*
X153925000Y-97455000D01*
X154475000Y-97455000D01*
X154475000Y-97255000D01*
X153925000Y-97255000D01*
X153925000Y-97302835D01*
X150270000Y-97302835D01*
X150270000Y-96930000D01*
X150770000Y-96930000D01*
X151320000Y-96930000D01*
X151820000Y-96930000D01*
X152370000Y-96930000D01*
X152870000Y-96930000D01*
X153420000Y-96930000D01*
X153420000Y-96852835D01*
X153925000Y-96852835D01*
X153929183Y-96891748D01*
X153929183Y-96918252D01*
X153925000Y-96957164D01*
X153925000Y-97005000D01*
X154475000Y-97005000D01*
X154475000Y-96805000D01*
X153925000Y-96805000D01*
X153925000Y-96852835D01*
X153420000Y-96852835D01*
X153420000Y-96832172D01*
X153419999Y-96832155D01*
X153413598Y-96772627D01*
X153413597Y-96772624D01*
X153404538Y-96748335D01*
X153399552Y-96678644D01*
X153404538Y-96661665D01*
X153413597Y-96637375D01*
X153413598Y-96637372D01*
X153419999Y-96577844D01*
X153420000Y-96577827D01*
X153420000Y-96480000D01*
X152870000Y-96480000D01*
X152870000Y-96930000D01*
X152370000Y-96930000D01*
X152370000Y-96480000D01*
X151820000Y-96480000D01*
X151820000Y-96930000D01*
X151320000Y-96930000D01*
X151320000Y-96480000D01*
X150770000Y-96480000D01*
X150770000Y-96930000D01*
X150270000Y-96930000D01*
X150270000Y-96402835D01*
X153925000Y-96402835D01*
X153929183Y-96441748D01*
X153929183Y-96468252D01*
X153925000Y-96507164D01*
X153925000Y-96555000D01*
X154475000Y-96555000D01*
X154475000Y-96355000D01*
X153925000Y-96355000D01*
X153925000Y-96402835D01*
X150270000Y-96402835D01*
X150270000Y-95980000D01*
X150770000Y-95980000D01*
X151320000Y-95980000D01*
X151820000Y-95980000D01*
X152370000Y-95980000D01*
X152870000Y-95980000D01*
X153420000Y-95980000D01*
X153420000Y-95952835D01*
X153925000Y-95952835D01*
X153929183Y-95991748D01*
X153929183Y-96018252D01*
X153925000Y-96057164D01*
X153925000Y-96105000D01*
X154475000Y-96105000D01*
X154475000Y-95905000D01*
X153925000Y-95905000D01*
X153925000Y-95952835D01*
X153420000Y-95952835D01*
X153420000Y-95882172D01*
X153419999Y-95882155D01*
X153413598Y-95822627D01*
X153413597Y-95822624D01*
X153404538Y-95798335D01*
X153399552Y-95728644D01*
X153404538Y-95711665D01*
X153413597Y-95687375D01*
X153413598Y-95687372D01*
X153419999Y-95627844D01*
X153420000Y-95627827D01*
X153420000Y-95530000D01*
X152870000Y-95530000D01*
X152870000Y-95980000D01*
X152370000Y-95980000D01*
X152370000Y-95530000D01*
X151820000Y-95530000D01*
X151820000Y-95980000D01*
X151320000Y-95980000D01*
X151320000Y-95530000D01*
X150770000Y-95530000D01*
X150770000Y-95980000D01*
X150270000Y-95980000D01*
X150270000Y-95502835D01*
X153925000Y-95502835D01*
X153929183Y-95541748D01*
X153929183Y-95568252D01*
X153925000Y-95607164D01*
X153925000Y-95655000D01*
X154475000Y-95655000D01*
X154475000Y-95455000D01*
X153925000Y-95455000D01*
X153925000Y-95502835D01*
X150270000Y-95502835D01*
X150270000Y-95404000D01*
X150289685Y-95336961D01*
X150342489Y-95291206D01*
X150394000Y-95280000D01*
X150520000Y-95280000D01*
X150520000Y-95154000D01*
X150539685Y-95086961D01*
X150579068Y-95052835D01*
X153925000Y-95052835D01*
X153929183Y-95091748D01*
X153929183Y-95118252D01*
X153925000Y-95157164D01*
X153925000Y-95205000D01*
X154475000Y-95205000D01*
X154475000Y-95005000D01*
X153925000Y-95005000D01*
X153925000Y-95052835D01*
X150579068Y-95052835D01*
X150592489Y-95041206D01*
X150644000Y-95030000D01*
X153420000Y-95030000D01*
X153420000Y-94932172D01*
X153419999Y-94932155D01*
X153413598Y-94872627D01*
X153413596Y-94872620D01*
X153363354Y-94737913D01*
X153363350Y-94737906D01*
X153277190Y-94622812D01*
X153277187Y-94622809D01*
X153250505Y-94602835D01*
X153925000Y-94602835D01*
X153929183Y-94641748D01*
X153929183Y-94668252D01*
X153925000Y-94707164D01*
X153925000Y-94755000D01*
X154475000Y-94755000D01*
X154475000Y-94555000D01*
X153925000Y-94555000D01*
X153925000Y-94602835D01*
X153250505Y-94602835D01*
X153199044Y-94564311D01*
X153157173Y-94508378D01*
X153152189Y-94438686D01*
X153185675Y-94377363D01*
X153217056Y-94354562D01*
X153308342Y-94308050D01*
X153398050Y-94218342D01*
X153455646Y-94105304D01*
X153455646Y-94105302D01*
X153455647Y-94105301D01*
X153455647Y-94105300D01*
X153473527Y-93992410D01*
X153477543Y-93983937D01*
X153477023Y-93983127D01*
X153473527Y-93967590D01*
X153455647Y-93854698D01*
X153455646Y-93854695D01*
X153433515Y-93811260D01*
X153420000Y-93754966D01*
X153420000Y-92785000D01*
X153416132Y-92781132D01*
X153382647Y-92719809D01*
X153387631Y-92650117D01*
X153416128Y-92605775D01*
X155485374Y-90536530D01*
X155485377Y-90536528D01*
X155502815Y-90519090D01*
X155502816Y-90519090D01*
X155566250Y-90455656D01*
X155566250Y-90455654D01*
X155566252Y-90455653D01*
X155584893Y-90410647D01*
X155600580Y-90372775D01*
X155600580Y-90132286D01*
X155620265Y-90065247D01*
X155653457Y-90030711D01*
X155661578Y-90025025D01*
X156140504Y-89689677D01*
X156427928Y-89488421D01*
X156427929Y-89488420D01*
X156427932Y-89488418D01*
X156458885Y-89456084D01*
X156480585Y-89400282D01*
X156480518Y-89397229D01*
X156479279Y-89340428D01*
X156479279Y-89340424D01*
X156478361Y-89338337D01*
X156461252Y-89299454D01*
X156461250Y-89299451D01*
X155928035Y-88537940D01*
X155928028Y-88537932D01*
X155895700Y-88506985D01*
X155895699Y-88506984D01*
X155895697Y-88506983D01*
X155839896Y-88485283D01*
X155839894Y-88485283D01*
X155839890Y-88485282D01*
X155780041Y-88486588D01*
X155780038Y-88486588D01*
X155780038Y-88486589D01*
X155739066Y-88504617D01*
X155739065Y-88504617D01*
X155739062Y-88504619D01*
X154322231Y-89496694D01*
X154322223Y-89496701D01*
X154291275Y-89529030D01*
X154291273Y-89529033D01*
X154269576Y-89584830D01*
X154269574Y-89584839D01*
X154270880Y-89644687D01*
X154270882Y-89644696D01*
X154288907Y-89685661D01*
X154288909Y-89685664D01*
X154809721Y-90429462D01*
X154832048Y-90495668D01*
X154815038Y-90563435D01*
X154795827Y-90588266D01*
X153211681Y-92172413D01*
X153150358Y-92205898D01*
X153080666Y-92200914D01*
X153024733Y-92159042D01*
X153000316Y-92093578D01*
X153000000Y-92084732D01*
X153000000Y-91950000D01*
X152300000Y-91950000D01*
X152300000Y-92799999D01*
X152306346Y-92806345D01*
X152351772Y-92819684D01*
X152397527Y-92872488D01*
X152407471Y-92941646D01*
X152383651Y-92993802D01*
X152385613Y-92995113D01*
X152378829Y-93005264D01*
X152369614Y-93027511D01*
X152368774Y-93029539D01*
X152364178Y-93040636D01*
X152356942Y-93058102D01*
X152313099Y-93112503D01*
X152246803Y-93134565D01*
X152240912Y-93134382D01*
X152240912Y-93134500D01*
X151905178Y-93134500D01*
X151849300Y-93145615D01*
X151848718Y-93142690D01*
X151797967Y-93148140D01*
X151786572Y-93144794D01*
X151734822Y-93134500D01*
X151734820Y-93134500D01*
X151405180Y-93134500D01*
X151405178Y-93134500D01*
X151349300Y-93145615D01*
X151349016Y-93144191D01*
X151292974Y-93150212D01*
X151270211Y-93143528D01*
X151224822Y-93134500D01*
X151224820Y-93134500D01*
X150895180Y-93134500D01*
X150895178Y-93134500D01*
X150839300Y-93145615D01*
X150838718Y-93142690D01*
X150787967Y-93148140D01*
X150776572Y-93144793D01*
X150752347Y-93139975D01*
X150690436Y-93107590D01*
X150660357Y-93061691D01*
X150653351Y-93042907D01*
X150567190Y-92927812D01*
X150567187Y-92927809D01*
X150452093Y-92841649D01*
X150452086Y-92841645D01*
X150317379Y-92791403D01*
X150317372Y-92791401D01*
X150257844Y-92785000D01*
X150210000Y-92785000D01*
X150210000Y-93336000D01*
X150190315Y-93403039D01*
X150137511Y-93448794D01*
X150086000Y-93460000D01*
X150034000Y-93460000D01*
X149966961Y-93440315D01*
X149921206Y-93387511D01*
X149910000Y-93336000D01*
X149910000Y-92785000D01*
X149862155Y-92785000D01*
X149802627Y-92791401D01*
X149802620Y-92791403D01*
X149667913Y-92841645D01*
X149660132Y-92845895D01*
X149659072Y-92843954D01*
X149605078Y-92864089D01*
X149536806Y-92849232D01*
X149508559Y-92828085D01*
X149475395Y-92794921D01*
X149475394Y-92794920D01*
X149377812Y-92754500D01*
X149377811Y-92754500D01*
X148512189Y-92754500D01*
X148512188Y-92754500D01*
X148512184Y-92754501D01*
X148475975Y-92769500D01*
X148475972Y-92769502D01*
X148414606Y-92794919D01*
X148304922Y-92904603D01*
X148304917Y-92904611D01*
X148278997Y-92967189D01*
X148264500Y-93002186D01*
X148264500Y-93070500D01*
X148244815Y-93137539D01*
X148192011Y-93183294D01*
X148140500Y-93194500D01*
X148072189Y-93194500D01*
X148072187Y-93194500D01*
X148072185Y-93194501D01*
X148015025Y-93218177D01*
X148015023Y-93218178D01*
X148005479Y-93222131D01*
X147936010Y-93229598D01*
X147873531Y-93198322D01*
X147870348Y-93195250D01*
X147865383Y-93190285D01*
X147865374Y-93190278D01*
X147726195Y-93107968D01*
X147719033Y-93104869D01*
X147719780Y-93103142D01*
X147669403Y-93070970D01*
X147640197Y-93007497D01*
X147649943Y-92938310D01*
X147695547Y-92885376D01*
X147762530Y-92865501D01*
X147762884Y-92865500D01*
X147902811Y-92865500D01*
X147902812Y-92865500D01*
X148000394Y-92825080D01*
X148345529Y-92479943D01*
X148406848Y-92446461D01*
X148451079Y-92444922D01*
X148489364Y-92450500D01*
X148489370Y-92450500D01*
X149010630Y-92450500D01*
X149010636Y-92450500D01*
X149083625Y-92439866D01*
X149161785Y-92401656D01*
X149196210Y-92384827D01*
X149284827Y-92296210D01*
X149336683Y-92190135D01*
X149339866Y-92183625D01*
X149348652Y-92123322D01*
X151100001Y-92123322D01*
X151110144Y-92222607D01*
X151163452Y-92383481D01*
X151163457Y-92383492D01*
X151252424Y-92527728D01*
X151252427Y-92527732D01*
X151372267Y-92647572D01*
X151372271Y-92647575D01*
X151516507Y-92736542D01*
X151516518Y-92736547D01*
X151677393Y-92789855D01*
X151776683Y-92799999D01*
X151800000Y-92799998D01*
X151800000Y-91950000D01*
X151100001Y-91950000D01*
X151100001Y-92123322D01*
X149348652Y-92123322D01*
X149350500Y-92110636D01*
X149350500Y-91526335D01*
X149370185Y-91459296D01*
X149386814Y-91438658D01*
X149548782Y-91276690D01*
X151100000Y-91276690D01*
X151100000Y-91450000D01*
X151800000Y-91450000D01*
X152300000Y-91450000D01*
X152999999Y-91450000D01*
X152999999Y-91276692D01*
X152999998Y-91276676D01*
X152989855Y-91177392D01*
X152936547Y-91016518D01*
X152936542Y-91016507D01*
X152847575Y-90872271D01*
X152847572Y-90872267D01*
X152727732Y-90752427D01*
X152727728Y-90752424D01*
X152583492Y-90663457D01*
X152583481Y-90663452D01*
X152422606Y-90610144D01*
X152323322Y-90600000D01*
X152300000Y-90600000D01*
X152300000Y-91450000D01*
X151800000Y-91450000D01*
X151800000Y-90599999D01*
X151776693Y-90600000D01*
X151776674Y-90600001D01*
X151677392Y-90610144D01*
X151516518Y-90663452D01*
X151516507Y-90663457D01*
X151372271Y-90752424D01*
X151372267Y-90752427D01*
X151252427Y-90872267D01*
X151252424Y-90872271D01*
X151163457Y-91016507D01*
X151163452Y-91016518D01*
X151110144Y-91177393D01*
X151100001Y-91276676D01*
X151100000Y-91276690D01*
X149548782Y-91276690D01*
X150363656Y-90461816D01*
X150424977Y-90428333D01*
X150451326Y-90425499D01*
X150981518Y-90425499D01*
X151075304Y-90410646D01*
X151188342Y-90353050D01*
X151278050Y-90263342D01*
X151335646Y-90150304D01*
X151335646Y-90150302D01*
X151335647Y-90150301D01*
X151348723Y-90067736D01*
X151350500Y-90056519D01*
X151350499Y-89043482D01*
X151335646Y-88949696D01*
X151278050Y-88836658D01*
X151278046Y-88836654D01*
X151278045Y-88836652D01*
X151188347Y-88746954D01*
X151188344Y-88746952D01*
X151188342Y-88746950D01*
X151085400Y-88694498D01*
X151075301Y-88689352D01*
X150981524Y-88674500D01*
X150418482Y-88674500D01*
X150340166Y-88686904D01*
X150324696Y-88689354D01*
X150211658Y-88746950D01*
X150211657Y-88746951D01*
X150211652Y-88746954D01*
X150121954Y-88836652D01*
X150121951Y-88836657D01*
X150121950Y-88836658D01*
X150109217Y-88861648D01*
X150064352Y-88949698D01*
X150049500Y-89043475D01*
X150049500Y-89973663D01*
X150029815Y-90040702D01*
X150013181Y-90061344D01*
X149154471Y-90920053D01*
X149093148Y-90953538D01*
X149048914Y-90955076D01*
X149010636Y-90949500D01*
X148489364Y-90949500D01*
X148416375Y-90960134D01*
X148416373Y-90960134D01*
X148416371Y-90960135D01*
X148303789Y-91015172D01*
X148215172Y-91103789D01*
X148160135Y-91216371D01*
X148160134Y-91216373D01*
X148160134Y-91216375D01*
X148149500Y-91289364D01*
X148149500Y-91289369D01*
X148149500Y-91873664D01*
X148129815Y-91940703D01*
X148113181Y-91961345D01*
X147784345Y-92290180D01*
X147723022Y-92323665D01*
X147653330Y-92318681D01*
X147597397Y-92276809D01*
X147585264Y-92256960D01*
X147534825Y-92153787D01*
X147446210Y-92065172D01*
X147333628Y-92010135D01*
X147333626Y-92010134D01*
X147333625Y-92010134D01*
X147260636Y-91999500D01*
X146504759Y-91999500D01*
X146437720Y-91979815D01*
X146391965Y-91927011D01*
X146382021Y-91857853D01*
X146386829Y-91837180D01*
X146389449Y-91829112D01*
X146389451Y-91829109D01*
X146402060Y-91749500D01*
X146409297Y-91703808D01*
X146409297Y-91703801D01*
X146389452Y-91578504D01*
X146389452Y-91578503D01*
X146384866Y-91569502D01*
X146331855Y-91465463D01*
X146331851Y-91465459D01*
X146331850Y-91465457D01*
X146242152Y-91375759D01*
X146242148Y-91375756D01*
X146242147Y-91375755D01*
X146239561Y-91374437D01*
X146167369Y-91337653D01*
X146116574Y-91289679D01*
X146099779Y-91221857D01*
X146122317Y-91155723D01*
X146135977Y-91139495D01*
X146958655Y-90316819D01*
X147019978Y-90283334D01*
X147046336Y-90280500D01*
X148187746Y-90280500D01*
X148254785Y-90300185D01*
X148275428Y-90316820D01*
X148311653Y-90353046D01*
X148311655Y-90353047D01*
X148311658Y-90353050D01*
X148421265Y-90408898D01*
X148424698Y-90410647D01*
X148518475Y-90425499D01*
X148518481Y-90425500D01*
X149081518Y-90425499D01*
X149175304Y-90410646D01*
X149288342Y-90353050D01*
X149378050Y-90263342D01*
X149435646Y-90150304D01*
X149435646Y-90150302D01*
X149435647Y-90150301D01*
X149448723Y-90067736D01*
X149450500Y-90056519D01*
X149450499Y-89043482D01*
X149435646Y-88949696D01*
X149378050Y-88836658D01*
X149378046Y-88836654D01*
X149378045Y-88836652D01*
X149288347Y-88746954D01*
X149288343Y-88746951D01*
X149288342Y-88746950D01*
X149267219Y-88736187D01*
X149208793Y-88706417D01*
X149157998Y-88658443D01*
X149141203Y-88590621D01*
X149163741Y-88524487D01*
X149177410Y-88508250D01*
X149192316Y-88493344D01*
X149284357Y-88344123D01*
X149284358Y-88344119D01*
X149339505Y-88177697D01*
X149339506Y-88177690D01*
X149349999Y-88074986D01*
X149350000Y-88074973D01*
X149350000Y-87800000D01*
X147350001Y-87800000D01*
X147350001Y-88074986D01*
X147360494Y-88177697D01*
X147415641Y-88344119D01*
X147415643Y-88344123D01*
X147507684Y-88493345D01*
X147572855Y-88558516D01*
X147606340Y-88619839D01*
X147606118Y-88622930D01*
X147659119Y-88634460D01*
X147664789Y-88637753D01*
X147780875Y-88709356D01*
X147780880Y-88709358D01*
X147947302Y-88764505D01*
X147947309Y-88764506D01*
X148050014Y-88774999D01*
X148050986Y-88774999D01*
X148051191Y-88775059D01*
X148053169Y-88775160D01*
X148053160Y-88775320D01*
X148053162Y-88775321D01*
X148053159Y-88775344D01*
X148053144Y-88775632D01*
X148118030Y-88794667D01*
X148163798Y-88847460D01*
X148173758Y-88916616D01*
X148166325Y-88940078D01*
X148167369Y-88940417D01*
X148164352Y-88949698D01*
X148149500Y-89043475D01*
X148149500Y-89043480D01*
X148149500Y-89043481D01*
X148149500Y-89365500D01*
X148149501Y-89625500D01*
X148129817Y-89692539D01*
X148077013Y-89738294D01*
X148025501Y-89749500D01*
X147716359Y-89749500D01*
X147649320Y-89729815D01*
X147603565Y-89677011D01*
X147593621Y-89607853D01*
X147593654Y-89607624D01*
X147600500Y-89560636D01*
X147600500Y-89039364D01*
X147589866Y-88966375D01*
X147581712Y-88949696D01*
X147534827Y-88853789D01*
X147512011Y-88830973D01*
X147478526Y-88769650D01*
X147478721Y-88766912D01*
X147430714Y-88757598D01*
X147333626Y-88710134D01*
X147323198Y-88708614D01*
X147260636Y-88699500D01*
X147260630Y-88699500D01*
X146839500Y-88699500D01*
X146772461Y-88679815D01*
X146726706Y-88627011D01*
X146715500Y-88575500D01*
X146715500Y-88533943D01*
X146735185Y-88466904D01*
X146787989Y-88421149D01*
X146820104Y-88411469D01*
X146825304Y-88410646D01*
X146938342Y-88353050D01*
X147028050Y-88263342D01*
X147085646Y-88150304D01*
X147085646Y-88150302D01*
X147085647Y-88150301D01*
X147099057Y-88065628D01*
X147100500Y-88056519D01*
X147100499Y-87043482D01*
X147085646Y-86949696D01*
X147028050Y-86836658D01*
X147028046Y-86836654D01*
X147028045Y-86836652D01*
X146938347Y-86746954D01*
X146938344Y-86746952D01*
X146938342Y-86746950D01*
X146860802Y-86707441D01*
X146825301Y-86689352D01*
X146757594Y-86678629D01*
X146694459Y-86648700D01*
X146689311Y-86643837D01*
X146607655Y-86562181D01*
X146574170Y-86500858D01*
X146579154Y-86431166D01*
X146621026Y-86375233D01*
X146686490Y-86350816D01*
X146695336Y-86350500D01*
X147205759Y-86350500D01*
X147272798Y-86370185D01*
X147315676Y-86419669D01*
X147315997Y-86419480D01*
X147317038Y-86421241D01*
X147318553Y-86422989D01*
X147319559Y-86425249D01*
X147319968Y-86426196D01*
X147402278Y-86565374D01*
X147402285Y-86565383D01*
X147413890Y-86576988D01*
X147447375Y-86638311D01*
X147442391Y-86708003D01*
X147431749Y-86729763D01*
X147415643Y-86755875D01*
X147415642Y-86755877D01*
X147360494Y-86922302D01*
X147360493Y-86922309D01*
X147350000Y-87025013D01*
X147350000Y-87300000D01*
X149349999Y-87300000D01*
X149349999Y-87025028D01*
X149349998Y-87025013D01*
X149339491Y-86922164D01*
X149346891Y-86882356D01*
X151968501Y-86882356D01*
X152004610Y-87021519D01*
X152004611Y-87021522D01*
X152033521Y-87073972D01*
X152033527Y-87073981D01*
X152175669Y-87276982D01*
X152175670Y-87276982D01*
X153076736Y-86646048D01*
X153076737Y-86646047D01*
X152675234Y-86072642D01*
X152144565Y-86444221D01*
X152099457Y-86483621D01*
X152017925Y-86602048D01*
X151973064Y-86738645D01*
X151968501Y-86882356D01*
X149346891Y-86882356D01*
X149352260Y-86853471D01*
X149400141Y-86802587D01*
X149428255Y-86790485D01*
X149526195Y-86762031D01*
X149665374Y-86679721D01*
X149665383Y-86679714D01*
X149779714Y-86565383D01*
X149779721Y-86565374D01*
X149862031Y-86426195D01*
X149904504Y-86280000D01*
X148206000Y-86280000D01*
X148138961Y-86260315D01*
X148093206Y-86207511D01*
X148082000Y-86156000D01*
X148082000Y-85904000D01*
X148101685Y-85836961D01*
X148154489Y-85791206D01*
X148206000Y-85780000D01*
X149904504Y-85780000D01*
X149862031Y-85633804D01*
X149779721Y-85494625D01*
X149779714Y-85494616D01*
X149665383Y-85380285D01*
X149665374Y-85380278D01*
X149621378Y-85354259D01*
X149573694Y-85303189D01*
X149560499Y-85247531D01*
X149560499Y-84886628D01*
X149557682Y-84862338D01*
X149550664Y-84846445D01*
X149541593Y-84777169D01*
X149571416Y-84713984D01*
X149576418Y-84708678D01*
X149689717Y-84595379D01*
X149689721Y-84595374D01*
X149772031Y-84456195D01*
X149772033Y-84456190D01*
X149817144Y-84300918D01*
X149817145Y-84300912D01*
X149818790Y-84280000D01*
X149164000Y-84280000D01*
X149096961Y-84260315D01*
X149051206Y-84207511D01*
X149040000Y-84156000D01*
X149040000Y-83904000D01*
X149059685Y-83836961D01*
X149112489Y-83791206D01*
X149164000Y-83780000D01*
X149818790Y-83780000D01*
X149817145Y-83759089D01*
X149772031Y-83603804D01*
X149770290Y-83599780D01*
X149769866Y-83596352D01*
X149769855Y-83596312D01*
X149769861Y-83596310D01*
X149761727Y-83530437D01*
X149765013Y-83515933D01*
X149807144Y-83370918D01*
X149807145Y-83370912D01*
X149808790Y-83350000D01*
X149154000Y-83350000D01*
X149086961Y-83330315D01*
X149041206Y-83277511D01*
X149030000Y-83226000D01*
X149030000Y-82974000D01*
X149049685Y-82906961D01*
X149102489Y-82861206D01*
X149154000Y-82850000D01*
X149808790Y-82850000D01*
X149826924Y-82830384D01*
X149826972Y-82830156D01*
X149829587Y-82827502D01*
X149845607Y-82810174D01*
X149846163Y-82810688D01*
X149876024Y-82780400D01*
X149944190Y-82765062D01*
X149986658Y-82775526D01*
G37*
%TD.AperFunction*%
%TA.AperFunction,Conductor*%
G36*
X138936120Y-92710605D02*
G01*
X138978620Y-92735739D01*
X139026304Y-92786807D01*
X139039500Y-92842471D01*
X139039500Y-93203365D01*
X139039502Y-93203388D01*
X139042317Y-93227659D01*
X139042318Y-93227662D01*
X139086186Y-93327015D01*
X139162984Y-93403813D01*
X139200586Y-93420416D01*
X139253963Y-93465502D01*
X139274490Y-93532288D01*
X139274500Y-93533850D01*
X139274500Y-94245142D01*
X139274499Y-94245156D01*
X139274499Y-94344855D01*
X139294489Y-94393114D01*
X139294488Y-94393114D01*
X139308829Y-94427734D01*
X139308831Y-94427737D01*
X139389700Y-94508606D01*
X139389706Y-94508611D01*
X139563181Y-94682086D01*
X139596666Y-94743409D01*
X139599500Y-94769767D01*
X139599500Y-95414820D01*
X139599500Y-95414822D01*
X139599499Y-95414822D01*
X139608231Y-95458717D01*
X139608234Y-95458724D01*
X139635814Y-95500000D01*
X139641496Y-95508504D01*
X139691278Y-95541767D01*
X139691281Y-95541767D01*
X139691282Y-95541768D01*
X139735177Y-95550500D01*
X140050500Y-95550500D01*
X140117539Y-95570185D01*
X140163294Y-95622989D01*
X140174500Y-95674500D01*
X140174500Y-95686933D01*
X140174499Y-95686947D01*
X140174499Y-95696936D01*
X140174499Y-95786646D01*
X140191521Y-95827739D01*
X140200175Y-95848633D01*
X140208829Y-95869526D01*
X140289700Y-95950397D01*
X140289706Y-95950402D01*
X140663968Y-96324664D01*
X140663971Y-96324668D01*
X140734475Y-96395172D01*
X140798574Y-96421721D01*
X140817354Y-96429500D01*
X141977320Y-96429500D01*
X142044359Y-96449185D01*
X142090114Y-96501989D01*
X142100058Y-96571147D01*
X142087804Y-96609793D01*
X142073753Y-96637372D01*
X142034353Y-96714696D01*
X142034352Y-96714699D01*
X142014508Y-96839996D01*
X142014508Y-96840003D01*
X142034352Y-96965300D01*
X142034352Y-96965301D01*
X142045259Y-96986706D01*
X142091950Y-97078342D01*
X142091952Y-97078344D01*
X142091954Y-97078347D01*
X142181652Y-97168045D01*
X142181654Y-97168046D01*
X142181658Y-97168050D01*
X142294696Y-97225646D01*
X142317058Y-97229187D01*
X142380192Y-97259116D01*
X142416738Y-97317066D01*
X142462969Y-97476197D01*
X142462969Y-97476198D01*
X142463377Y-97476887D01*
X142463531Y-97477496D01*
X142466066Y-97483353D01*
X142465120Y-97483762D01*
X142480554Y-97544612D01*
X142465364Y-97596343D01*
X142466066Y-97596647D01*
X142463607Y-97602328D01*
X142463377Y-97603113D01*
X142462969Y-97603801D01*
X142462968Y-97603804D01*
X142420496Y-97750000D01*
X142975000Y-97750000D01*
X142975000Y-97204000D01*
X142994685Y-97136961D01*
X143047489Y-97091206D01*
X143099000Y-97080000D01*
X143351000Y-97080000D01*
X143418039Y-97099685D01*
X143463794Y-97152489D01*
X143475000Y-97204000D01*
X143475000Y-97876000D01*
X143455315Y-97943039D01*
X143402511Y-97988794D01*
X143351000Y-98000000D01*
X143225000Y-98000000D01*
X143225000Y-98126000D01*
X143205315Y-98193039D01*
X143152511Y-98238794D01*
X143101000Y-98250000D01*
X142420495Y-98250000D01*
X142419241Y-98251669D01*
X142419168Y-98277263D01*
X142428744Y-98287187D01*
X142437947Y-98310069D01*
X142462969Y-98396196D01*
X142545278Y-98535374D01*
X142545285Y-98535383D01*
X142659616Y-98649714D01*
X142659625Y-98649721D01*
X142703619Y-98675738D01*
X142751304Y-98726806D01*
X142764500Y-98782471D01*
X142764500Y-99143365D01*
X142764502Y-99143388D01*
X142767317Y-99167659D01*
X142767318Y-99167662D01*
X142811186Y-99267015D01*
X142811187Y-99267016D01*
X142887984Y-99343813D01*
X142987338Y-99387682D01*
X143011627Y-99390500D01*
X143438372Y-99390499D01*
X143462662Y-99387682D01*
X143562016Y-99343813D01*
X143638813Y-99267016D01*
X143682682Y-99167662D01*
X143685500Y-99143373D01*
X143685499Y-98944766D01*
X143705183Y-98877727D01*
X143721809Y-98857095D01*
X143877087Y-98701816D01*
X143938410Y-98668334D01*
X143964767Y-98665500D01*
X144027189Y-98665500D01*
X144132812Y-98665500D01*
X144144445Y-98665500D01*
X144211484Y-98685185D01*
X144250873Y-98730642D01*
X144251524Y-98730208D01*
X144254984Y-98735387D01*
X144257239Y-98737989D01*
X144258203Y-98740205D01*
X144275625Y-98766279D01*
X144310911Y-98819089D01*
X144310912Y-98819089D01*
X144310913Y-98819091D01*
X144319547Y-98827725D01*
X144316393Y-98830878D01*
X144345836Y-98866181D01*
X144354473Y-98935515D01*
X144324255Y-98998512D01*
X144264775Y-99035171D01*
X144239248Y-99039349D01*
X144236626Y-99039500D01*
X144212340Y-99042317D01*
X144212337Y-99042318D01*
X144112984Y-99086186D01*
X144036187Y-99162983D01*
X143992318Y-99262335D01*
X143992318Y-99262337D01*
X143989500Y-99286625D01*
X143989500Y-99560232D01*
X143969815Y-99627271D01*
X143953185Y-99647908D01*
X143834912Y-99766182D01*
X143773592Y-99799666D01*
X143747233Y-99802500D01*
X142324500Y-99802500D01*
X142257461Y-99782815D01*
X142211706Y-99730011D01*
X142200500Y-99678500D01*
X142200500Y-98385180D01*
X142200499Y-98385177D01*
X142197253Y-98368857D01*
X142198872Y-98350760D01*
X142197079Y-98349230D01*
X142191767Y-98341280D01*
X142191767Y-98341278D01*
X142158504Y-98291496D01*
X142158502Y-98291495D01*
X142158502Y-98291494D01*
X142108724Y-98258234D01*
X142108717Y-98258231D01*
X142064822Y-98249500D01*
X142064820Y-98249500D01*
X141735180Y-98249500D01*
X141735178Y-98249500D01*
X141679300Y-98260615D01*
X141678718Y-98257690D01*
X141627967Y-98263140D01*
X141616572Y-98259793D01*
X141592347Y-98254975D01*
X141530436Y-98222590D01*
X141500357Y-98176691D01*
X141493351Y-98157907D01*
X141407190Y-98042812D01*
X141407187Y-98042809D01*
X141292093Y-97956649D01*
X141292086Y-97956645D01*
X141157379Y-97906403D01*
X141157372Y-97906401D01*
X141097844Y-97900000D01*
X141050000Y-97900000D01*
X141050000Y-100300000D01*
X141053453Y-100303453D01*
X141108732Y-100319685D01*
X141154487Y-100372489D01*
X141164431Y-100441647D01*
X141155127Y-100474087D01*
X141122270Y-100548499D01*
X141119500Y-100572375D01*
X141119500Y-100572377D01*
X141119500Y-100719945D01*
X141119501Y-100750499D01*
X141099817Y-100817539D01*
X141047013Y-100863294D01*
X140995501Y-100874500D01*
X138818950Y-100874500D01*
X138751911Y-100854815D01*
X138706156Y-100802011D01*
X138696212Y-100732853D01*
X138702768Y-100707167D01*
X138742596Y-100600379D01*
X138742598Y-100600372D01*
X138748999Y-100540844D01*
X138749000Y-100540827D01*
X138749000Y-100453000D01*
X137349000Y-100453000D01*
X137349000Y-100540844D01*
X137355401Y-100600372D01*
X137355403Y-100600379D01*
X137405645Y-100735086D01*
X137405649Y-100735093D01*
X137491809Y-100850187D01*
X137491812Y-100850190D01*
X137606906Y-100936350D01*
X137606915Y-100936355D01*
X137655077Y-100954318D01*
X137711011Y-100996188D01*
X137735429Y-101061652D01*
X137720578Y-101129925D01*
X137671173Y-101179331D01*
X137611746Y-101194500D01*
X137468706Y-101194500D01*
X137396931Y-101204957D01*
X137305281Y-101249762D01*
X137236408Y-101261520D01*
X137172111Y-101234177D01*
X137132805Y-101176412D01*
X137131745Y-101172954D01*
X137122406Y-101140807D01*
X137040738Y-101002714D01*
X137040731Y-101002705D01*
X136927294Y-100889268D01*
X136927285Y-100889261D01*
X136789191Y-100807593D01*
X136789190Y-100807592D01*
X136718783Y-100787137D01*
X136659898Y-100749530D01*
X136630692Y-100686058D01*
X136638817Y-100620611D01*
X136672658Y-100538913D01*
X136689748Y-100453000D01*
X136701500Y-100393920D01*
X136701500Y-100246079D01*
X136682028Y-100148192D01*
X136688255Y-100078601D01*
X136731117Y-100023423D01*
X136797007Y-100000178D01*
X136803645Y-100000000D01*
X136898828Y-100000000D01*
X136898844Y-99999999D01*
X136958372Y-99993598D01*
X136958379Y-99993596D01*
X137093086Y-99943354D01*
X137093089Y-99943352D01*
X137150688Y-99900234D01*
X137216152Y-99875816D01*
X137284426Y-99890667D01*
X137333831Y-99940072D01*
X137349000Y-99999500D01*
X137349000Y-100053000D01*
X138749000Y-100053000D01*
X138749000Y-100016991D01*
X138768685Y-99949952D01*
X138821489Y-99904197D01*
X138825470Y-99902463D01*
X138877626Y-99880860D01*
X138992622Y-99792620D01*
X139080862Y-99677624D01*
X139136331Y-99543708D01*
X139155251Y-99399999D01*
X139136331Y-99256290D01*
X139084378Y-99130862D01*
X139080863Y-99122376D01*
X139080862Y-99122375D01*
X139080862Y-99122374D01*
X138992622Y-99007378D01*
X138877626Y-98919138D01*
X138877625Y-98919137D01*
X138877623Y-98919136D01*
X138743713Y-98863670D01*
X138743711Y-98863669D01*
X138743710Y-98863669D01*
X138653702Y-98851819D01*
X138600002Y-98844749D01*
X138599997Y-98844749D01*
X138539684Y-98852689D01*
X138470649Y-98841923D01*
X138418394Y-98795543D01*
X138399500Y-98729750D01*
X138399500Y-98678177D01*
X138390768Y-98634282D01*
X138390767Y-98634281D01*
X138390767Y-98634278D01*
X138357504Y-98584496D01*
X138357503Y-98584495D01*
X138307724Y-98551234D01*
X138307717Y-98551231D01*
X138263822Y-98542500D01*
X138263820Y-98542500D01*
X138085336Y-98542500D01*
X138018297Y-98522815D01*
X137997655Y-98506181D01*
X137816394Y-98324920D01*
X137781728Y-98310561D01*
X137727324Y-98266719D01*
X137721318Y-98248675D01*
X137700663Y-98269332D01*
X137641236Y-98284500D01*
X137125500Y-98284500D01*
X137058461Y-98264815D01*
X137012706Y-98212011D01*
X137001500Y-98160500D01*
X137001500Y-98085177D01*
X136990385Y-98029300D01*
X136993311Y-98028717D01*
X136987855Y-97977987D01*
X136991203Y-97966583D01*
X137001500Y-97914822D01*
X137001500Y-97619844D01*
X137349000Y-97619844D01*
X137355401Y-97679372D01*
X137355403Y-97679379D01*
X137405645Y-97814086D01*
X137405649Y-97814093D01*
X137491809Y-97929187D01*
X137491812Y-97929190D01*
X137606906Y-98015350D01*
X137606913Y-98015354D01*
X137684569Y-98044318D01*
X137740503Y-98086189D01*
X137748756Y-98108317D01*
X137773677Y-98085116D01*
X137829181Y-98072000D01*
X137849000Y-98072000D01*
X137849000Y-97532000D01*
X137349000Y-97532000D01*
X137349000Y-97619844D01*
X137001500Y-97619844D01*
X137001500Y-97585177D01*
X136990385Y-97529300D01*
X136993311Y-97528717D01*
X136987855Y-97477987D01*
X136991203Y-97466583D01*
X137001500Y-97414822D01*
X137001500Y-97099500D01*
X137021185Y-97032461D01*
X137073989Y-96986706D01*
X137125500Y-96975500D01*
X137225000Y-96975500D01*
X137292039Y-96995185D01*
X137337794Y-97047989D01*
X137349000Y-97099500D01*
X137349000Y-97132000D01*
X137925000Y-97132000D01*
X137992039Y-97151685D01*
X138037794Y-97204489D01*
X138049000Y-97256000D01*
X138049000Y-97332000D01*
X138125000Y-97332000D01*
X138192039Y-97351685D01*
X138237794Y-97404489D01*
X138249000Y-97456000D01*
X138249000Y-98072000D01*
X138296828Y-98072000D01*
X138296844Y-98071999D01*
X138356372Y-98065598D01*
X138356379Y-98065596D01*
X138491086Y-98015354D01*
X138491093Y-98015350D01*
X138606187Y-97929190D01*
X138606190Y-97929187D01*
X138692350Y-97814093D01*
X138692354Y-97814086D01*
X138742596Y-97679379D01*
X138742598Y-97679373D01*
X138745751Y-97650051D01*
X138772489Y-97585500D01*
X138829882Y-97545652D01*
X138899707Y-97543159D01*
X138956721Y-97575626D01*
X139583077Y-98201982D01*
X139616562Y-98263305D01*
X139611578Y-98332997D01*
X139609956Y-98337119D01*
X139608231Y-98341281D01*
X139599500Y-98385177D01*
X139599500Y-98385180D01*
X139599500Y-99814820D01*
X139599500Y-99814822D01*
X139599499Y-99814822D01*
X139608231Y-99858717D01*
X139608234Y-99858724D01*
X139632423Y-99894925D01*
X139641496Y-99908504D01*
X139691278Y-99941767D01*
X139691281Y-99941767D01*
X139691282Y-99941768D01*
X139735177Y-99950500D01*
X139735180Y-99950500D01*
X140064822Y-99950500D01*
X140120700Y-99939385D01*
X140121282Y-99942311D01*
X140172013Y-99936855D01*
X140183411Y-99940202D01*
X140191277Y-99941766D01*
X140191278Y-99941767D01*
X140207650Y-99945023D01*
X140269561Y-99977407D01*
X140299641Y-100023305D01*
X140306648Y-100042092D01*
X140392809Y-100157187D01*
X140392812Y-100157190D01*
X140507906Y-100243350D01*
X140507913Y-100243354D01*
X140642620Y-100293596D01*
X140642627Y-100293598D01*
X140702155Y-100299999D01*
X140702172Y-100300000D01*
X140750000Y-100300000D01*
X140750000Y-97900000D01*
X140749500Y-97900000D01*
X140682461Y-97880315D01*
X140636706Y-97827511D01*
X140625500Y-97776000D01*
X140625500Y-97261297D01*
X140625501Y-97261288D01*
X140625501Y-97157146D01*
X140625500Y-97157142D01*
X140595584Y-97084919D01*
X140595584Y-97084918D01*
X140591170Y-97074264D01*
X140558184Y-97041278D01*
X140527736Y-97010830D01*
X140527734Y-97010829D01*
X140520668Y-97003763D01*
X140520668Y-97003762D01*
X140520664Y-97003759D01*
X138396979Y-94880074D01*
X138363494Y-94818751D01*
X138368478Y-94749059D01*
X138381554Y-94723509D01*
X138390767Y-94709722D01*
X138395242Y-94687227D01*
X138399500Y-94665822D01*
X138399500Y-94156177D01*
X138390768Y-94112282D01*
X138390767Y-94112281D01*
X138390767Y-94112278D01*
X138357504Y-94062496D01*
X138330064Y-94044161D01*
X138285260Y-93990550D01*
X138276553Y-93921225D01*
X138306708Y-93858197D01*
X138355624Y-93824878D01*
X138491084Y-93774355D01*
X138491093Y-93774350D01*
X138606187Y-93688190D01*
X138606190Y-93688187D01*
X138692350Y-93573093D01*
X138692354Y-93573086D01*
X138742596Y-93438379D01*
X138742598Y-93438372D01*
X138748999Y-93378844D01*
X138749000Y-93378827D01*
X138749000Y-93291000D01*
X137970500Y-93291000D01*
X137903461Y-93271315D01*
X137857706Y-93218511D01*
X137846500Y-93167000D01*
X137846500Y-93015000D01*
X137866185Y-92947961D01*
X137918989Y-92902206D01*
X137970500Y-92891000D01*
X138749000Y-92891000D01*
X138749000Y-92817337D01*
X138768685Y-92750298D01*
X138821489Y-92704543D01*
X138890647Y-92694599D01*
X138936120Y-92710605D01*
G37*
%TD.AperFunction*%
%TA.AperFunction,Conductor*%
G36*
X137571703Y-98835185D02*
G01*
X137592345Y-98851819D01*
X137662181Y-98921655D01*
X137695666Y-98982978D01*
X137698500Y-99009336D01*
X137698500Y-99187820D01*
X137698500Y-99187822D01*
X137698499Y-99187822D01*
X137707231Y-99231717D01*
X137707234Y-99231724D01*
X137740495Y-99281503D01*
X137740496Y-99281504D01*
X137767933Y-99299837D01*
X137812739Y-99353449D01*
X137821446Y-99422774D01*
X137791292Y-99485801D01*
X137742376Y-99519121D01*
X137606913Y-99569645D01*
X137606910Y-99569647D01*
X137549311Y-99612766D01*
X137483846Y-99637183D01*
X137415573Y-99622331D01*
X137366168Y-99572926D01*
X137351000Y-99513499D01*
X137351000Y-99500000D01*
X136325000Y-99500000D01*
X136257961Y-99480315D01*
X136212206Y-99427511D01*
X136201000Y-99376000D01*
X136201000Y-99024000D01*
X136220685Y-98956961D01*
X136273489Y-98911206D01*
X136325000Y-98900000D01*
X137351000Y-98900000D01*
X137367420Y-98883579D01*
X137370685Y-98872461D01*
X137423489Y-98826706D01*
X137475000Y-98815500D01*
X137504664Y-98815500D01*
X137571703Y-98835185D01*
G37*
%TD.AperFunction*%
%TA.AperFunction,Conductor*%
G36*
X145726609Y-97306154D02*
G01*
X145766869Y-97363259D01*
X145771116Y-97379070D01*
X145783307Y-97440359D01*
X145783310Y-97440365D01*
X145783809Y-97441112D01*
X145784395Y-97442986D01*
X145787982Y-97451644D01*
X145787206Y-97451965D01*
X145804685Y-97507791D01*
X145786198Y-97575170D01*
X145783809Y-97578888D01*
X145783310Y-97579634D01*
X145783307Y-97579640D01*
X145769500Y-97649055D01*
X145769500Y-97835500D01*
X145749815Y-97902539D01*
X145697011Y-97948294D01*
X145645500Y-97959500D01*
X145459056Y-97959500D01*
X145389640Y-97973307D01*
X145378356Y-97977982D01*
X145377863Y-97976793D01*
X145323520Y-97993802D01*
X145256142Y-97975310D01*
X145228091Y-97951580D01*
X145213551Y-97935000D01*
X144531500Y-97935000D01*
X144464461Y-97915315D01*
X144418706Y-97862511D01*
X144407500Y-97811000D01*
X144407500Y-97709000D01*
X144427185Y-97641961D01*
X144479989Y-97596206D01*
X144531500Y-97585000D01*
X145213549Y-97585000D01*
X145213549Y-97584999D01*
X145205807Y-97526184D01*
X145205807Y-97493815D01*
X145217223Y-97407099D01*
X145245489Y-97343203D01*
X145303813Y-97304731D01*
X145359559Y-97300811D01*
X145459894Y-97316702D01*
X145459897Y-97316702D01*
X145459900Y-97316702D01*
X145585197Y-97296857D01*
X145585198Y-97296857D01*
X145585199Y-97296856D01*
X145585201Y-97296856D01*
X145593201Y-97292779D01*
X145661868Y-97279880D01*
X145726609Y-97306154D01*
G37*
%TD.AperFunction*%
%TA.AperFunction,Conductor*%
G36*
X149410203Y-94634411D02*
G01*
X149439482Y-94671826D01*
X149447330Y-94687227D01*
X149513562Y-94753459D01*
X149547046Y-94814780D01*
X149549880Y-94841139D01*
X149549880Y-96775907D01*
X149530195Y-96842946D01*
X149477391Y-96888701D01*
X149425880Y-96899907D01*
X149169385Y-96899907D01*
X149102346Y-96880222D01*
X149056591Y-96827418D01*
X149046647Y-96758260D01*
X149070119Y-96701595D01*
X149148352Y-96597089D01*
X149148354Y-96597086D01*
X149198596Y-96462379D01*
X149198598Y-96462372D01*
X149204999Y-96402844D01*
X149205000Y-96402827D01*
X149205000Y-96355000D01*
X148654000Y-96355000D01*
X148586961Y-96335315D01*
X148541206Y-96282511D01*
X148530000Y-96231000D01*
X148530000Y-96229000D01*
X148549685Y-96161961D01*
X148602489Y-96116206D01*
X148654000Y-96105000D01*
X149205000Y-96105000D01*
X149205000Y-96057172D01*
X149204999Y-96057155D01*
X149198598Y-95997627D01*
X149198596Y-95997620D01*
X149148354Y-95862913D01*
X149148350Y-95862906D01*
X149062190Y-95747812D01*
X149062187Y-95747809D01*
X148939989Y-95656331D01*
X148941528Y-95654274D01*
X148901675Y-95614407D01*
X148886836Y-95546131D01*
X148911264Y-95480671D01*
X148940952Y-95454956D01*
X148939989Y-95453669D01*
X149062187Y-95362190D01*
X149062190Y-95362187D01*
X149148350Y-95247093D01*
X149148354Y-95247086D01*
X149198596Y-95112379D01*
X149198598Y-95112372D01*
X149204999Y-95052844D01*
X149205000Y-95052827D01*
X149205000Y-95005000D01*
X148655000Y-95005000D01*
X148641819Y-95018181D01*
X148580496Y-95051666D01*
X148554138Y-95054500D01*
X148529000Y-95054500D01*
X148461961Y-95034815D01*
X148416206Y-94982011D01*
X148405000Y-94930500D01*
X148405000Y-94829500D01*
X148424685Y-94762461D01*
X148477489Y-94716706D01*
X148529000Y-94705500D01*
X148554138Y-94705500D01*
X148621177Y-94725185D01*
X148641819Y-94741819D01*
X148655000Y-94755000D01*
X149205000Y-94755000D01*
X149205000Y-94728124D01*
X149224685Y-94661085D01*
X149277489Y-94615330D01*
X149346647Y-94605386D01*
X149410203Y-94634411D01*
G37*
%TD.AperFunction*%
%TA.AperFunction,Conductor*%
G36*
X145699383Y-94469522D02*
G01*
X145732048Y-94487723D01*
X145734620Y-94489718D01*
X145778619Y-94515738D01*
X145826304Y-94566806D01*
X145839500Y-94622471D01*
X145839500Y-94983365D01*
X145839502Y-94983388D01*
X145842317Y-95007659D01*
X145842318Y-95007662D01*
X145886186Y-95107015D01*
X145886187Y-95107016D01*
X145962984Y-95183813D01*
X146062338Y-95227682D01*
X146086627Y-95230500D01*
X146265234Y-95230499D01*
X146332273Y-95250183D01*
X146378028Y-95302987D01*
X146387972Y-95372145D01*
X146372561Y-95410157D01*
X146375204Y-95411504D01*
X146370774Y-95420197D01*
X146370773Y-95420199D01*
X146364383Y-95432741D01*
X146313175Y-95533239D01*
X146310160Y-95542521D01*
X146308159Y-95541871D01*
X146283702Y-95593449D01*
X146224387Y-95630374D01*
X146187034Y-95633614D01*
X146187034Y-95634500D01*
X145959056Y-95634500D01*
X145889640Y-95648307D01*
X145889634Y-95648310D01*
X145888888Y-95648809D01*
X145887013Y-95649395D01*
X145878356Y-95652982D01*
X145878034Y-95652206D01*
X145822209Y-95669685D01*
X145754830Y-95651198D01*
X145751112Y-95648809D01*
X145750365Y-95648310D01*
X145750359Y-95648307D01*
X145680944Y-95634500D01*
X145680942Y-95634500D01*
X145459058Y-95634500D01*
X145459056Y-95634500D01*
X145389640Y-95648307D01*
X145389634Y-95648310D01*
X145388888Y-95648809D01*
X145387013Y-95649395D01*
X145378356Y-95652982D01*
X145378034Y-95652206D01*
X145322209Y-95669685D01*
X145254830Y-95651198D01*
X145251112Y-95648809D01*
X145250365Y-95648310D01*
X145250359Y-95648307D01*
X145180944Y-95634500D01*
X145180942Y-95634500D01*
X144959058Y-95634500D01*
X144959053Y-95634500D01*
X144895413Y-95647159D01*
X144825821Y-95640932D01*
X144770644Y-95598069D01*
X144747400Y-95532179D01*
X144763468Y-95464182D01*
X144791739Y-95433464D01*
X144791016Y-95432741D01*
X144819757Y-95404000D01*
X144874616Y-95349141D01*
X144917730Y-95251498D01*
X144920500Y-95227623D01*
X144920499Y-94949765D01*
X144940183Y-94882727D01*
X144956813Y-94862090D01*
X145160577Y-94658326D01*
X145221898Y-94624843D01*
X145267651Y-94623536D01*
X145280000Y-94625492D01*
X145354314Y-94613722D01*
X145405300Y-94605647D01*
X145405301Y-94605647D01*
X145405302Y-94605646D01*
X145405304Y-94605646D01*
X145518342Y-94548050D01*
X145568368Y-94498024D01*
X145629691Y-94464538D01*
X145699383Y-94469522D01*
G37*
%TD.AperFunction*%
%TA.AperFunction,Conductor*%
G36*
X147243039Y-93609685D02*
G01*
X147288794Y-93662489D01*
X147300000Y-93714000D01*
X147300000Y-93966000D01*
X147280315Y-94033039D01*
X147227511Y-94078794D01*
X147176000Y-94090000D01*
X146424000Y-94090000D01*
X146356961Y-94070315D01*
X146311206Y-94017511D01*
X146300000Y-93966000D01*
X146300000Y-93714000D01*
X146319685Y-93646961D01*
X146372489Y-93601206D01*
X146424000Y-93590000D01*
X147176000Y-93590000D01*
X147243039Y-93609685D01*
G37*
%TD.AperFunction*%
%TA.AperFunction,Conductor*%
G36*
X137338539Y-92819685D02*
G01*
X137384294Y-92872489D01*
X137395500Y-92924000D01*
X137395500Y-92977138D01*
X137375815Y-93044177D01*
X137323011Y-93089932D01*
X137270362Y-93097502D01*
X137270362Y-93100000D01*
X136325000Y-93100000D01*
X136257961Y-93080315D01*
X136212206Y-93027511D01*
X136201000Y-92976000D01*
X136201000Y-92924000D01*
X136220685Y-92856961D01*
X136273489Y-92811206D01*
X136325000Y-92800000D01*
X137271500Y-92800000D01*
X137338539Y-92819685D01*
G37*
%TD.AperFunction*%
%TA.AperFunction,Conductor*%
G36*
X138317539Y-85310185D02*
G01*
X138363294Y-85362989D01*
X138374500Y-85414500D01*
X138374500Y-86084820D01*
X138374500Y-86084822D01*
X138374499Y-86084822D01*
X138383231Y-86128717D01*
X138383232Y-86128721D01*
X138383233Y-86128722D01*
X138416496Y-86178504D01*
X138466278Y-86211767D01*
X138466281Y-86211767D01*
X138466282Y-86211768D01*
X138510177Y-86220500D01*
X138510180Y-86220500D01*
X138793664Y-86220500D01*
X138860703Y-86240185D01*
X138881345Y-86256819D01*
X140183181Y-87558655D01*
X140216666Y-87619978D01*
X140219500Y-87646336D01*
X140219500Y-90614820D01*
X140219500Y-90614822D01*
X140219499Y-90614822D01*
X140228231Y-90658717D01*
X140228234Y-90658724D01*
X140252879Y-90695608D01*
X140261496Y-90708504D01*
X140311278Y-90741767D01*
X140311281Y-90741767D01*
X140311282Y-90741768D01*
X140355177Y-90750500D01*
X140355180Y-90750500D01*
X141584822Y-90750500D01*
X141628717Y-90741768D01*
X141628717Y-90741767D01*
X141628722Y-90741767D01*
X141678504Y-90708504D01*
X141711230Y-90659524D01*
X141764841Y-90614720D01*
X141834165Y-90606011D01*
X141897193Y-90636165D01*
X141933913Y-90695608D01*
X141937037Y-90746288D01*
X141934500Y-90763705D01*
X141934500Y-91271300D01*
X141935284Y-91276676D01*
X141925468Y-91345852D01*
X141879810Y-91398740D01*
X141812806Y-91418548D01*
X141777985Y-91413625D01*
X141740912Y-91402854D01*
X141720000Y-91401209D01*
X141720000Y-92056000D01*
X141700315Y-92123039D01*
X141647511Y-92168794D01*
X141596000Y-92180000D01*
X141470000Y-92180000D01*
X141470000Y-92306000D01*
X141450315Y-92373039D01*
X141397511Y-92418794D01*
X141346000Y-92430000D01*
X140655873Y-92430000D01*
X140621763Y-92455457D01*
X140562413Y-92462152D01*
X140447702Y-92447050D01*
X140447695Y-92447050D01*
X140445636Y-92447321D01*
X140443898Y-92447050D01*
X140439572Y-92447050D01*
X140439572Y-92446375D01*
X140376601Y-92436554D01*
X140324346Y-92390173D01*
X140305462Y-92322904D01*
X140306903Y-92313194D01*
X140304505Y-92310000D01*
X139624000Y-92310000D01*
X139556961Y-92290315D01*
X139511206Y-92237511D01*
X139500000Y-92186000D01*
X139500000Y-91934000D01*
X139501175Y-91930000D01*
X140665496Y-91930000D01*
X141220000Y-91930000D01*
X141220000Y-91401210D01*
X141219999Y-91401209D01*
X141199087Y-91402854D01*
X141199081Y-91402855D01*
X141043809Y-91447966D01*
X141043804Y-91447968D01*
X140904625Y-91530278D01*
X140904616Y-91530285D01*
X140790285Y-91644616D01*
X140790278Y-91644625D01*
X140707968Y-91783804D01*
X140665496Y-91930000D01*
X139501175Y-91930000D01*
X139519685Y-91866961D01*
X139572489Y-91821206D01*
X139624000Y-91810000D01*
X140304504Y-91810000D01*
X140262031Y-91663804D01*
X140179721Y-91524625D01*
X140179714Y-91524616D01*
X140065383Y-91410285D01*
X140065374Y-91410278D01*
X139919480Y-91323997D01*
X139920650Y-91322017D01*
X139875835Y-91284720D01*
X139854821Y-91218085D01*
X139868312Y-91159323D01*
X139885646Y-91125304D01*
X139885647Y-91125300D01*
X139905492Y-91000003D01*
X139905492Y-90999996D01*
X139885647Y-90874699D01*
X139885647Y-90874698D01*
X139871630Y-90847189D01*
X139828050Y-90761658D01*
X139828046Y-90761654D01*
X139828045Y-90761652D01*
X139801819Y-90735426D01*
X139768334Y-90674103D01*
X139765500Y-90647745D01*
X139765500Y-89922190D01*
X139765499Y-89922187D01*
X139756516Y-89900500D01*
X139725080Y-89824606D01*
X138956819Y-89056345D01*
X138923334Y-88995022D01*
X138920500Y-88968664D01*
X138920500Y-86885177D01*
X138911768Y-86841282D01*
X138911767Y-86841281D01*
X138911767Y-86841278D01*
X138878504Y-86791496D01*
X138850058Y-86772489D01*
X138828724Y-86758234D01*
X138828717Y-86758231D01*
X138784822Y-86749500D01*
X138784820Y-86749500D01*
X137636128Y-86749500D01*
X137569089Y-86729815D01*
X137529396Y-86688621D01*
X137479721Y-86604625D01*
X137479714Y-86604616D01*
X137365383Y-86490285D01*
X137365374Y-86490278D01*
X137321378Y-86464259D01*
X137273694Y-86413189D01*
X137260499Y-86357531D01*
X137260499Y-86109765D01*
X137280184Y-86042727D01*
X137296813Y-86022090D01*
X137992086Y-85326819D01*
X138053409Y-85293334D01*
X138079767Y-85290500D01*
X138250500Y-85290500D01*
X138317539Y-85310185D01*
G37*
%TD.AperFunction*%
%TA.AperFunction,Conductor*%
G36*
X139125703Y-89976623D02*
G01*
X139132181Y-89982655D01*
X139198181Y-90048655D01*
X139231666Y-90109978D01*
X139234500Y-90136336D01*
X139234500Y-90647745D01*
X139214815Y-90714784D01*
X139198181Y-90735426D01*
X139171954Y-90761652D01*
X139171951Y-90761657D01*
X139171950Y-90761658D01*
X139158014Y-90789009D01*
X139114352Y-90874698D01*
X139114352Y-90874699D01*
X139094508Y-90999996D01*
X139094508Y-91000003D01*
X139114352Y-91125300D01*
X139114352Y-91125301D01*
X139116881Y-91130264D01*
X139129853Y-91155723D01*
X139131688Y-91159323D01*
X139144584Y-91227992D01*
X139118308Y-91292733D01*
X139079587Y-91322420D01*
X139080520Y-91323997D01*
X138969408Y-91389708D01*
X138901684Y-91406891D01*
X138856200Y-91396410D01*
X138758500Y-91353270D01*
X138758501Y-91353270D01*
X138734623Y-91350500D01*
X138379384Y-91350500D01*
X138379361Y-91350502D01*
X138355501Y-91353269D01*
X138349364Y-91354939D01*
X138279508Y-91353541D01*
X138221497Y-91314599D01*
X138210084Y-91298408D01*
X138177738Y-91243714D01*
X138177731Y-91243705D01*
X138064294Y-91130268D01*
X138064285Y-91130261D01*
X137926191Y-91048593D01*
X137926188Y-91048591D01*
X137787000Y-91008153D01*
X137787000Y-91697000D01*
X137767315Y-91764039D01*
X137714511Y-91809794D01*
X137663000Y-91821000D01*
X137411000Y-91821000D01*
X137343961Y-91801315D01*
X137298206Y-91748511D01*
X137287000Y-91697000D01*
X137287000Y-91008154D01*
X137262495Y-90989755D01*
X137220703Y-90933761D01*
X137215819Y-90864062D01*
X137249391Y-90802787D01*
X137273826Y-90783862D01*
X137366062Y-90729314D01*
X137433786Y-90712131D01*
X137498072Y-90732943D01*
X137511278Y-90741767D01*
X137511281Y-90741767D01*
X137511282Y-90741768D01*
X137555177Y-90750500D01*
X137758488Y-90750500D01*
X137764811Y-90752356D01*
X137771066Y-90750501D01*
X137771420Y-90750500D01*
X138784822Y-90750500D01*
X138828717Y-90741768D01*
X138828717Y-90741767D01*
X138828722Y-90741767D01*
X138878504Y-90708504D01*
X138911767Y-90658722D01*
X138920390Y-90615374D01*
X138920500Y-90614822D01*
X138920500Y-90070336D01*
X138940185Y-90003297D01*
X138992989Y-89957542D01*
X139062147Y-89947598D01*
X139125703Y-89976623D01*
G37*
%TD.AperFunction*%
%TA.AperFunction,Conductor*%
G36*
X144207643Y-86983599D02*
G01*
X144247900Y-87040705D01*
X144250893Y-87110510D01*
X144241014Y-87136998D01*
X144224353Y-87169695D01*
X144224352Y-87169698D01*
X144209500Y-87263475D01*
X144209500Y-88276517D01*
X144217628Y-88327835D01*
X144224354Y-88370304D01*
X144281950Y-88483342D01*
X144281952Y-88483344D01*
X144281954Y-88483347D01*
X144371652Y-88573045D01*
X144371654Y-88573046D01*
X144371658Y-88573050D01*
X144484696Y-88630646D01*
X144489893Y-88631469D01*
X144553029Y-88661396D01*
X144589963Y-88720706D01*
X144594500Y-88753943D01*
X144594500Y-88755500D01*
X144574815Y-88822539D01*
X144522011Y-88868294D01*
X144470500Y-88879500D01*
X144039364Y-88879500D01*
X143966375Y-88890134D01*
X143966374Y-88890134D01*
X143966370Y-88890135D01*
X143960297Y-88893104D01*
X143891424Y-88904859D01*
X143827128Y-88877511D01*
X143787825Y-88819745D01*
X143785991Y-88749899D01*
X143800306Y-88716603D01*
X143894353Y-88564130D01*
X143894358Y-88564119D01*
X143949505Y-88397697D01*
X143949506Y-88397690D01*
X143959999Y-88294986D01*
X143960000Y-88294973D01*
X143960000Y-88020000D01*
X143084000Y-88020000D01*
X143016961Y-88000315D01*
X142971206Y-87947511D01*
X142960000Y-87896000D01*
X142960000Y-87644000D01*
X142979685Y-87576961D01*
X143032489Y-87531206D01*
X143084000Y-87520000D01*
X143959999Y-87520000D01*
X143959999Y-87245028D01*
X143959998Y-87245013D01*
X143949505Y-87142303D01*
X143948351Y-87136908D01*
X143953567Y-87067233D01*
X143995623Y-87011439D01*
X144018024Y-86999871D01*
X144017615Y-86999069D01*
X144026310Y-86994638D01*
X144026312Y-86994638D01*
X144074235Y-86970219D01*
X144142902Y-86957323D01*
X144207643Y-86983599D01*
G37*
%TD.AperFunction*%
%TA.AperFunction,Conductor*%
G36*
X142040670Y-86719685D02*
G01*
X142086425Y-86772489D01*
X142096369Y-86841647D01*
X142079169Y-86889097D01*
X142025646Y-86975869D01*
X142025641Y-86975880D01*
X141970494Y-87142302D01*
X141970493Y-87142309D01*
X141967858Y-87168104D01*
X141941461Y-87232796D01*
X141884281Y-87272947D01*
X141814470Y-87275810D01*
X141754193Y-87240475D01*
X141722588Y-87178162D01*
X141720500Y-87155501D01*
X141720500Y-86885177D01*
X141713143Y-86848192D01*
X141719370Y-86778600D01*
X141762233Y-86723423D01*
X141828123Y-86700178D01*
X141834760Y-86700000D01*
X141973631Y-86700000D01*
X142040670Y-86719685D01*
G37*
%TD.AperFunction*%
%TD*%
M02*
