%TF.GenerationSoftware,KiCad,Pcbnew,10.0.3*%
%TF.CreationDate,2026-07-19T10:29:48+10:00*%
%TF.ProjectId,epaper-smart-watch,65706170-6572-42d7-936d-6172742d7761,rev?*%
%TF.SameCoordinates,Original*%
%TF.FileFunction,Copper,L4,Bot*%
%TF.FilePolarity,Positive*%
%FSLAX46Y46*%
G04 Gerber Fmt 4.6, Leading zero omitted, Abs format (unit mm)*
G04 Created by KiCad (PCBNEW 10.0.3) date 2026-07-19 10:29:48*
%MOMM*%
%LPD*%
G01*
G04 APERTURE LIST*
G04 Aperture macros list*
%AMRoundRect*
0 Rectangle with rounded corners*
0 $1 Rounding radius*
0 $2 $3 $4 $5 $6 $7 $8 $9 X,Y pos of 4 corners*
0 Add a 4 corners polygon primitive as box body*
4,1,4,$2,$3,$4,$5,$6,$7,$8,$9,$2,$3,0*
0 Add four circle primitives for the rounded corners*
1,1,$1+$1,$2,$3*
1,1,$1+$1,$4,$5*
1,1,$1+$1,$6,$7*
1,1,$1+$1,$8,$9*
0 Add four rect primitives between the rounded corners*
20,1,$1+$1,$2,$3,$4,$5,0*
20,1,$1+$1,$4,$5,$6,$7,0*
20,1,$1+$1,$6,$7,$8,$9,0*
20,1,$1+$1,$8,$9,$2,$3,0*%
%AMFreePoly0*
4,1,23,0.550000,-0.750000,0.000000,-0.750000,0.000000,-0.745722,-0.065263,-0.745722,-0.191342,-0.711940,-0.304381,-0.646677,-0.396677,-0.554381,-0.461940,-0.441342,-0.495722,-0.315263,-0.495722,-0.250000,-0.500000,-0.250000,-0.500000,0.250000,-0.495722,0.250000,-0.495722,0.315263,-0.461940,0.441342,-0.396677,0.554381,-0.304381,0.646677,-0.191342,0.711940,-0.065263,0.745722,0.000000,0.745722,
0.000000,0.750000,0.550000,0.750000,0.550000,-0.750000,0.550000,-0.750000,$1*%
%AMFreePoly1*
4,1,23,0.000000,0.745722,0.065263,0.745722,0.191342,0.711940,0.304381,0.646677,0.396677,0.554381,0.461940,0.441342,0.495722,0.315263,0.495722,0.250000,0.500000,0.250000,0.500000,-0.250000,0.495722,-0.250000,0.495722,-0.315263,0.461940,-0.441342,0.396677,-0.554381,0.304381,-0.646677,0.191342,-0.711940,0.065263,-0.745722,0.000000,-0.745722,0.000000,-0.750000,-0.550000,-0.750000,
-0.550000,0.750000,0.000000,0.750000,0.000000,0.745722,0.000000,0.745722,$1*%
G04 Aperture macros list end*
%TA.AperFunction,EtchedComponent*%
%ADD10C,0.000000*%
%TD*%
%TA.AperFunction,ComponentPad*%
%ADD11O,1.700000X1.000000*%
%TD*%
%TA.AperFunction,ComponentPad*%
%ADD12O,2.100000X1.000000*%
%TD*%
%TA.AperFunction,SMDPad,CuDef*%
%ADD13C,1.000000*%
%TD*%
%TA.AperFunction,SMDPad,CuDef*%
%ADD14RoundRect,0.200000X0.200000X1.250000X-0.200000X1.250000X-0.200000X-1.250000X0.200000X-1.250000X0*%
%TD*%
%TA.AperFunction,SMDPad,CuDef*%
%ADD15RoundRect,0.250000X0.650000X1.650000X-0.650000X1.650000X-0.650000X-1.650000X0.650000X-1.650000X0*%
%TD*%
%TA.AperFunction,SMDPad,CuDef*%
%ADD16FreePoly0,270.000000*%
%TD*%
%TA.AperFunction,SMDPad,CuDef*%
%ADD17R,1.500000X1.000000*%
%TD*%
%TA.AperFunction,SMDPad,CuDef*%
%ADD18FreePoly1,270.000000*%
%TD*%
%TA.AperFunction,SMDPad,CuDef*%
%ADD19R,1.000000X1.500000*%
%TD*%
%TA.AperFunction,SMDPad,CuDef*%
%ADD20FreePoly0,0.000000*%
%TD*%
%TA.AperFunction,SMDPad,CuDef*%
%ADD21FreePoly1,0.000000*%
%TD*%
%TA.AperFunction,ViaPad*%
%ADD22C,0.600000*%
%TD*%
%TA.AperFunction,ViaPad*%
%ADD23C,0.450000*%
%TD*%
%TA.AperFunction,ViaPad*%
%ADD24C,0.500000*%
%TD*%
%TA.AperFunction,Conductor*%
%ADD25C,0.150000*%
%TD*%
%TA.AperFunction,Conductor*%
%ADD26C,0.200000*%
%TD*%
G04 APERTURE END LIST*
D10*
%TA.AperFunction,EtchedComponent*%
%TO.C,JP2*%
G36*
X160700000Y-105400000D02*
G01*
X160100000Y-105400000D01*
X160100000Y-104900000D01*
X160700000Y-104900000D01*
X160700000Y-105400000D01*
G37*
%TD.AperFunction*%
%TA.AperFunction,EtchedComponent*%
%TO.C,JP1*%
G36*
X141900000Y-102200000D02*
G01*
X141400000Y-102200000D01*
X141400000Y-101600000D01*
X141900000Y-101600000D01*
X141900000Y-102200000D01*
G37*
%TD.AperFunction*%
%TD*%
D11*
%TO.P,P1,SH,SHIELD_SH*%
%TO.N,GND*%
X167644362Y-108020000D03*
D12*
X171644362Y-108020000D03*
D11*
X167644362Y-96780000D03*
D12*
X171644362Y-96780000D03*
%TD*%
D13*
%TO.P,J14,1,Pin_1_1*%
%TO.N,/EPD_RST_N*%
X142000000Y-97600000D03*
%TD*%
%TO.P,J7,1,Pin_1_1*%
%TO.N,/EPD_VCOM*%
X135100000Y-96200000D03*
%TD*%
%TO.P,J12,1,Pin_1_1*%
%TO.N,/EPD_CSB*%
X150000000Y-89400000D03*
%TD*%
%TO.P,J4,1,Pin_1_1*%
%TO.N,Net-(IC2-SHPACT)*%
X154100000Y-98200000D03*
%TD*%
D14*
%TO.P,SWD1,1,Pin_1_1*%
%TO.N,unconnected-(SWD1-Pin_1-Pad1)*%
X156300000Y-111900000D03*
%TO.P,SWD1,2,Pin_2_2*%
%TO.N,/NRST*%
X154800000Y-111900000D03*
%TO.P,SWD1,3,Pin_3_3*%
%TO.N,/SWDIO*%
X153300000Y-111900000D03*
%TO.P,SWD1,4,Pin_4_4*%
%TO.N,GND*%
X151800000Y-111900000D03*
%TO.P,SWD1,5,Pin_5_5*%
%TO.N,/SWDCLK*%
X150300000Y-111900000D03*
%TO.P,SWD1,6,Pin_6_6*%
%TO.N,+3V0*%
X148800000Y-111900000D03*
D15*
%TO.P,SWD1,MP*%
%TO.N,N/C*%
X158900000Y-116600000D03*
X146200000Y-116600000D03*
%TD*%
D16*
%TO.P,JP2,1,A_1*%
%TO.N,Net-(JP2-A)*%
X160400000Y-104500000D03*
D17*
%TO.P,JP2,2,C_2*%
%TO.N,Net-(IC2-NTC)*%
X160400000Y-105800000D03*
D18*
%TO.P,JP2,3,B_3*%
%TO.N,Net-(J5-Pin_2)*%
X160400000Y-107100000D03*
%TD*%
D13*
%TO.P,J13,1,Pin_1_1*%
%TO.N,/EPD_DC*%
X142100000Y-107400000D03*
%TD*%
%TO.P,J10,1,Pin_1_1*%
%TO.N,/EPD_MOSI*%
X144000000Y-98600000D03*
%TD*%
D19*
%TO.P,J5,1,Pin_1_1*%
%TO.N,Net-(IC2-VBAT)*%
X155400000Y-107100000D03*
%TO.P,J5,2,Pin_2_2*%
%TO.N,Net-(J5-Pin_2)*%
X156700000Y-107100000D03*
%TO.P,J5,3,Pin_3_3*%
%TO.N,GND*%
X158000000Y-107100000D03*
%TD*%
D13*
%TO.P,J15,1,Pin_1_1*%
%TO.N,/EPD_BUSY*%
X146600000Y-89000000D03*
%TD*%
%TO.P,J16,1,Pin_1_1*%
%TO.N,Net-(J16-Pin_1)*%
X158800000Y-94600000D03*
%TD*%
%TO.P,J17,1,Pin_1_1*%
%TO.N,Net-(J17-Pin_1)*%
X157000000Y-95700000D03*
%TD*%
%TO.P,J11,1,Pin_1_1*%
%TO.N,/EPD_SPICL*%
X133800000Y-104100000D03*
%TD*%
%TO.P,J9,1,Pin_1_1*%
%TO.N,/EPD_VGH*%
X139800000Y-99500000D03*
%TD*%
D19*
%TO.P,M1,1,+_1*%
%TO.N,/VSYS*%
X164550000Y-110400000D03*
%TO.P,M1,2,-_2*%
%TO.N,Net-(D9-A)*%
X163250000Y-110400000D03*
%TD*%
D13*
%TO.P,J8,1,Pin_1_1*%
%TO.N,/EPD_VGL*%
X140600000Y-95000000D03*
%TD*%
D20*
%TO.P,JP1,1,A_1*%
%TO.N,GND*%
X141000000Y-101900000D03*
D19*
%TO.P,JP1,2,C_2*%
%TO.N,Net-(J6-Pin_16)*%
X142300000Y-101900000D03*
D21*
%TO.P,JP1,3,B_3*%
%TO.N,+3V0*%
X143600000Y-101900000D03*
%TD*%
D13*
%TO.P,J18,1,Pin_1_1*%
%TO.N,Net-(J18-Pin_1)*%
X159200000Y-96700000D03*
%TD*%
D22*
%TO.N,GND*%
X156750500Y-119238631D03*
X148750500Y-119238631D03*
X160750500Y-117238631D03*
X156750500Y-117238631D03*
X160750500Y-115238631D03*
X154750500Y-115238631D03*
X150750500Y-115238631D03*
X142750500Y-115238631D03*
X158750500Y-113238631D03*
X166750500Y-111238631D03*
X172750500Y-109238631D03*
X170750500Y-109238631D03*
X168750500Y-109238631D03*
X166750500Y-109238631D03*
X156750500Y-109238631D03*
X166750500Y-107238631D03*
X156750500Y-101238631D03*
X172750500Y-97238631D03*
X170750500Y-97238631D03*
X168750500Y-97238631D03*
X166750500Y-97238631D03*
X166750500Y-95238631D03*
X164750500Y-95238631D03*
X166750500Y-93238631D03*
X164750500Y-93238631D03*
X162750500Y-93238631D03*
X160750500Y-93238631D03*
X138750500Y-93238631D03*
X162750500Y-91238631D03*
X160750500Y-91238631D03*
X162750500Y-89238631D03*
X160750500Y-89238631D03*
X146750500Y-87238631D03*
D23*
X156400000Y-85500000D03*
X150000000Y-90275003D03*
X161700000Y-104100000D03*
X152600000Y-104700000D03*
X156400000Y-87400000D03*
X158400000Y-93100000D03*
X149000000Y-103700000D03*
X145900000Y-106100000D03*
X136600000Y-107800000D03*
X155501196Y-97770866D03*
X138200000Y-111700000D03*
X138600000Y-94800000D03*
X150200000Y-108300000D03*
D24*
X148700500Y-117181150D03*
D23*
X149700000Y-95500000D03*
X144700000Y-112700000D03*
X138600000Y-95700000D03*
D24*
X152900000Y-114900000D03*
D23*
X139400000Y-111000000D03*
X159600000Y-94000000D03*
X143600000Y-105000000D03*
X150300000Y-102500000D03*
X141400000Y-100900000D03*
X164743217Y-103925285D03*
X152619302Y-91044300D03*
X155450002Y-96125002D03*
X138500000Y-99000000D03*
%TO.N,Net-(P1-D+-PadA6)*%
X165782789Y-102656998D03*
X165500000Y-101650000D03*
%TO.N,/D+*%
X160411372Y-102000000D03*
X154688407Y-96614534D03*
%TO.N,/D-*%
X153900000Y-95444720D03*
X160400000Y-102650000D03*
%TO.N,+3V0*%
X133100000Y-109000000D03*
X151150000Y-104300000D03*
X140400000Y-108300000D03*
X151113039Y-108313039D03*
X135173995Y-101600000D03*
X152400000Y-99100000D03*
X142328662Y-100069846D03*
X145900000Y-108400000D03*
X148300000Y-107800000D03*
X150250000Y-105100000D03*
X147450000Y-103900000D03*
X141600000Y-94400000D03*
X145400000Y-90000000D03*
X152050000Y-102152929D03*
%TO.N,/FLASH_CS*%
X153600000Y-93800000D03*
X156313838Y-91957526D03*
%TO.N,/VIB*%
X166000000Y-108800000D03*
X153654256Y-96892393D03*
%TO.N,/BATC_ALRT*%
X150300000Y-95400000D03*
X150500000Y-97400000D03*
%TO.N,/EPD_VCOM*%
X134100000Y-97300000D03*
%TO.N,/EPD_VGL*%
X140600000Y-95000000D03*
%TO.N,/EPD_VGH*%
X139777746Y-99575000D03*
%TO.N,Net-(J6-Pin_5)*%
X135290040Y-100186206D03*
X134300000Y-107300000D03*
%TO.N,/EPD_MOSI*%
X152862403Y-89524998D03*
X138132201Y-101676707D03*
%TO.N,/EPD_SPICL*%
X152224900Y-88425131D03*
X135220421Y-102198203D03*
%TO.N,/EPD_CSB*%
X151681914Y-89451956D03*
X138570137Y-102096485D03*
X139188285Y-97668894D03*
%TO.N,/EPD_DC*%
X154400000Y-89500000D03*
X134760991Y-102584114D03*
%TO.N,/EPD_RST_N*%
X152278420Y-89387275D03*
X138210429Y-102576707D03*
%TO.N,/EPD_BUSY*%
X146392207Y-88965002D03*
X135600000Y-103100000D03*
%TO.N,Net-(J6-Pin_16)*%
X138203576Y-103176671D03*
%TO.N,/EPD_RESR*%
X144450000Y-103674589D03*
X138395032Y-103750000D03*
%TO.N,/EPD_LIGHT_PWR_NEG*%
X142800000Y-106000000D03*
X138280459Y-104726128D03*
%TO.N,/FLASH_IO1*%
X151993007Y-94025377D03*
X156956983Y-90425002D03*
%TO.N,/FLASH_IO2*%
X152893007Y-93882907D03*
X157400000Y-91900000D03*
%TO.N,/FLASH_IO0*%
X154838799Y-91057526D03*
X158023661Y-89086932D03*
%TO.N,/FLASH_CLK*%
X151083750Y-89405025D03*
X157426092Y-89140917D03*
%TO.N,/FLASH_IO3*%
X156816827Y-89087890D03*
X151775001Y-94700001D03*
%TO.N,/VSYS*%
X154318326Y-100948383D03*
X157378383Y-98516987D03*
X140900000Y-109000000D03*
X157350000Y-104500000D03*
X145864645Y-108998957D03*
X159906250Y-108893750D03*
%TO.N,Net-(D6-A)*%
X144200000Y-112000000D03*
X144800000Y-107400000D03*
%TO.N,/CHGR_MODE*%
X154768607Y-99206169D03*
X153762403Y-89501200D03*
%TO.N,Net-(IC2-VBAT)*%
X153750000Y-105586395D03*
%TO.N,Net-(U3-PH3-BOOT0)*%
X145350000Y-97200000D03*
X149700000Y-93700000D03*
%TO.N,/CHGR_ISET*%
X156284471Y-96545244D03*
X154800000Y-95100000D03*
%TO.N,Net-(IC2-SHPACT)*%
X155355919Y-99083419D03*
%TO.N,Net-(D2-K)*%
X156951696Y-98090301D03*
X154356279Y-100349941D03*
%TO.N,Net-(D1-K)*%
X154300000Y-101548106D03*
X157800000Y-96500000D03*
%TO.N,/CHGR_SHPHLD*%
X154083757Y-102549707D03*
X155000000Y-93800000D03*
%TO.N,Net-(IC2-NTC)*%
X155300000Y-103700000D03*
%TO.N,/VUSB*%
X161500000Y-95100000D03*
X156700000Y-94400000D03*
%TO.N,/EPD_LIGHT*%
X146900000Y-103200000D03*
X143700000Y-109900000D03*
X147949403Y-91855850D03*
%TO.N,Net-(JP2-A)*%
X160900000Y-103800000D03*
%TO.N,/I2C_SCL*%
X148150000Y-97520470D03*
X149400000Y-101300000D03*
X149300000Y-97500000D03*
%TO.N,/BTN_2*%
X145600000Y-87400000D03*
X148631985Y-91985604D03*
%TO.N,/ACCL_INT2*%
X148342912Y-92513240D03*
X148318012Y-107099732D03*
%TO.N,/NRST*%
X145950000Y-107000000D03*
X154800000Y-109200000D03*
X147360586Y-91977936D03*
%TO.N,/ACCL_INT1*%
X148150000Y-93752253D03*
X148300000Y-106500000D03*
%TO.N,/BTN_4*%
X151100000Y-97500000D03*
X163700000Y-114900000D03*
%TO.N,/BTN_1*%
X144500000Y-115800000D03*
X151400000Y-96633656D03*
%TO.N,/BTN_3*%
X152154588Y-96698402D03*
X159200000Y-86900000D03*
%TO.N,/SWDIO*%
X152743199Y-97493199D03*
%TO.N,/SWDCLK*%
X153054310Y-96900627D03*
%TO.N,Net-(J18-Pin_1)*%
X156000000Y-94200000D03*
%TO.N,Net-(J17-Pin_1)*%
X154415022Y-93666570D03*
%TO.N,Net-(J16-Pin_1)*%
X156000000Y-93516395D03*
%TO.N,/SND*%
X151856722Y-92888867D03*
X157837895Y-114475032D03*
%TO.N,Net-(D9-A)*%
X163200000Y-111500000D03*
%TD*%
%TO.N,Net-(P1-D+-PadA6)*%
D25*
X165782789Y-101882789D02*
X165550000Y-101650000D01*
X165782789Y-102656998D02*
X165782789Y-101882789D01*
X165550000Y-101650000D02*
X165500000Y-101650000D01*
%TO.N,/D+*%
D26*
X159326791Y-101137149D02*
X159411645Y-101222002D01*
X159609635Y-100005779D02*
X159694487Y-100090631D01*
X159411645Y-101222002D02*
X159643246Y-101453603D01*
X158761107Y-99157251D02*
X158845959Y-99242103D01*
X156225000Y-98035357D02*
X157714589Y-99524946D01*
X158054001Y-99524947D02*
X158421695Y-99157250D01*
X158845959Y-99581515D02*
X158478262Y-99949209D01*
X158902529Y-100373475D02*
X159270223Y-100005778D01*
X159643246Y-101453603D02*
X160189643Y-102000000D01*
X156225000Y-97800000D02*
X156225000Y-98035357D01*
X158478263Y-100288621D02*
X158563117Y-100373474D01*
X160189643Y-102000000D02*
X160411372Y-102000000D01*
X155039534Y-96614534D02*
X156225000Y-97800000D01*
X159694487Y-100430043D02*
X159326790Y-100797737D01*
X154688407Y-96614534D02*
X155039534Y-96614534D01*
X158421695Y-99157250D02*
G75*
G02*
X158761107Y-99157251I169705J-169750D01*
G01*
X158478262Y-99949209D02*
G75*
G03*
X158478277Y-100288607I169738J-169691D01*
G01*
X157714589Y-99524946D02*
G75*
G03*
X158054005Y-99524951I169711J169746D01*
G01*
X159270223Y-100005778D02*
G75*
G02*
X159609607Y-100005807I169677J-169722D01*
G01*
X159326790Y-100797737D02*
G75*
G03*
X159326833Y-101137106I169710J-169663D01*
G01*
X158845959Y-99242103D02*
G75*
G02*
X158845950Y-99581506I-169659J-169697D01*
G01*
X158563117Y-100373474D02*
G75*
G03*
X158902505Y-100373452I169683J169674D01*
G01*
X159694487Y-100090631D02*
G75*
G02*
X159694450Y-100430006I-169687J-169669D01*
G01*
%TO.N,/D-*%
X154129256Y-95673976D02*
X154129256Y-97070678D01*
X153900000Y-95444720D02*
X154129256Y-95673976D01*
X156150000Y-98650000D02*
X160150000Y-102650000D01*
X155708578Y-98650000D02*
X156150000Y-98650000D01*
X154129256Y-97070678D02*
X155708578Y-98650000D01*
X160150000Y-102650000D02*
X160400000Y-102650000D01*
%TO.N,+3V0*%
D25*
X136200000Y-102500000D02*
X135300000Y-101600000D01*
X148300000Y-107800000D02*
X149675000Y-109175000D01*
X133100000Y-109000000D02*
X133236397Y-109000000D01*
X148800000Y-110626078D02*
X151113039Y-108313039D01*
X133236397Y-109000000D02*
X136200000Y-106036397D01*
X150251078Y-109175000D02*
X151113039Y-108313039D01*
X149675000Y-109175000D02*
X150251078Y-109175000D01*
X135300000Y-101600000D02*
X135173995Y-101600000D01*
X136200000Y-106036397D02*
X136200000Y-102500000D01*
X143600000Y-101341184D02*
X142328662Y-100069846D01*
%TO.N,/FLASH_CS*%
X155246364Y-93025000D02*
X154375000Y-93025000D01*
X156313838Y-91957526D02*
X155246364Y-93025000D01*
X154375000Y-93025000D02*
X153600000Y-93800000D01*
%TO.N,/BATC_ALRT*%
X150300000Y-95400000D02*
X150395064Y-95495064D01*
X150395064Y-95495064D02*
X150395064Y-97295064D01*
X150395064Y-97295064D02*
X150500000Y-97400000D01*
%TO.N,/EPD_VCOM*%
X135000000Y-96200000D02*
X134100000Y-97100000D01*
X134100000Y-97100000D02*
X134100000Y-97300000D01*
%TO.N,/EPD_MOSI*%
X152862403Y-89676247D02*
X152862403Y-89524998D01*
X147597747Y-94202253D02*
X144559200Y-97240800D01*
X144000000Y-98600000D02*
X144900000Y-99500000D01*
X137713082Y-102095826D02*
X138132201Y-101676707D01*
X144559200Y-98040800D02*
X144000000Y-98600000D01*
X138179355Y-104276128D02*
X137713082Y-103809855D01*
X144900000Y-99500000D02*
X144900000Y-103900000D01*
X137713082Y-103809855D02*
X137713082Y-102095826D01*
X144900000Y-103900000D02*
X144523872Y-104276128D01*
X147597747Y-94202253D02*
X148336397Y-94202253D01*
X144559200Y-97240800D02*
X144559200Y-98040800D01*
X144523872Y-104276128D02*
X138179355Y-104276128D01*
X148336397Y-94202253D02*
X152862403Y-89676247D01*
%TO.N,/EPD_SPICL*%
X134675736Y-100800000D02*
X135312643Y-100800000D01*
X135312643Y-100800000D02*
X139094444Y-97018199D01*
X134632736Y-103092256D02*
X134200000Y-102659520D01*
X135220421Y-102764091D02*
X135220421Y-102198203D01*
X134200000Y-101275736D02*
X134675736Y-100800000D01*
X134892256Y-103092256D02*
X134632736Y-103092256D01*
X139618199Y-97018199D02*
X148211266Y-88425131D01*
X134200000Y-102659520D02*
X134200000Y-101275736D01*
X133884512Y-104100000D02*
X133800000Y-104100000D01*
X134892256Y-103092256D02*
X133884512Y-104100000D01*
X139094444Y-97018199D02*
X139618199Y-97018199D01*
X148211266Y-88425131D02*
X152224900Y-88425131D01*
X134892256Y-103092256D02*
X135220421Y-102764091D01*
%TO.N,/EPD_CSB*%
X151681914Y-89468086D02*
X149775000Y-91375000D01*
X138837868Y-101828754D02*
X138570137Y-102096485D01*
X151233871Y-89899999D02*
X151681914Y-89451956D01*
X151681914Y-89451956D02*
X151681914Y-89468086D01*
X150499999Y-89899999D02*
X151233871Y-89899999D01*
X146825000Y-91375000D02*
X138837868Y-99362132D01*
X138837868Y-99362132D02*
X138837868Y-101828754D01*
X150000000Y-89400000D02*
X150499999Y-89899999D01*
X149775000Y-91375000D02*
X146825000Y-91375000D01*
%TO.N,/EPD_DC*%
X145200000Y-104836397D02*
X143486397Y-106550000D01*
X143486397Y-106550000D02*
X139467934Y-106550000D01*
X151708126Y-92401066D02*
X145200000Y-98909191D01*
X137000000Y-104082066D02*
X137000000Y-102663603D01*
X143486397Y-106550000D02*
X142950000Y-106550000D01*
X154400000Y-89899999D02*
X151898933Y-92401066D01*
X151898933Y-92401066D02*
X151708126Y-92401066D01*
X139467934Y-106550000D02*
X137000000Y-104082066D01*
X137000000Y-102663603D02*
X135486397Y-101150000D01*
X134500000Y-102323123D02*
X134760991Y-102584114D01*
X154400000Y-89500000D02*
X154400000Y-89899999D01*
X145200000Y-98909191D02*
X145200000Y-104836397D01*
X134500000Y-101400000D02*
X134500000Y-102323123D01*
X134750000Y-101150000D02*
X134500000Y-101400000D01*
X135486397Y-101150000D02*
X134750000Y-101150000D01*
X142950000Y-106550000D02*
X142100000Y-107400000D01*
%TO.N,/EPD_RST_N*%
X142751103Y-98151103D02*
X147938966Y-92963240D01*
X139200000Y-102300000D02*
X139200000Y-101702206D01*
X152278420Y-89527472D02*
X152278420Y-89387275D01*
X138210429Y-102576707D02*
X138923293Y-102576707D01*
X148842652Y-92963240D02*
X152278420Y-89527472D01*
X138923293Y-102576707D02*
X139200000Y-102300000D01*
X142551103Y-98151103D02*
X142751103Y-98151103D01*
X142000000Y-97600000D02*
X142551103Y-98151103D01*
X139200000Y-101702206D02*
X142751103Y-98151103D01*
X147938966Y-92963240D02*
X148842652Y-92963240D01*
%TO.N,Net-(J6-Pin_16)*%
X142300000Y-102800000D02*
X141923329Y-103176671D01*
X141923329Y-103176671D02*
X138203576Y-103176671D01*
X142300000Y-101900000D02*
X142300000Y-102800000D01*
%TO.N,/EPD_RESR*%
X144445173Y-103668430D02*
X144445173Y-103655290D01*
X144450000Y-103673257D02*
X144445173Y-103668430D01*
X144314883Y-103525000D02*
X138620032Y-103525000D01*
X144445173Y-103655290D02*
X144314883Y-103525000D01*
X138620032Y-103525000D02*
X138395032Y-103750000D01*
X144450000Y-103674589D02*
X144450000Y-103673257D01*
%TO.N,/EPD_LIGHT_PWR_NEG*%
X138280459Y-104726128D02*
X141526128Y-104726128D01*
X141526128Y-104726128D02*
X142800000Y-106000000D01*
%TO.N,/FLASH_IO1*%
X152606385Y-93411999D02*
X151993007Y-94025377D01*
X156956983Y-90425002D02*
X155099262Y-90425002D01*
X155099262Y-90425002D02*
X154916738Y-90607526D01*
X154916738Y-90607526D02*
X154541002Y-90607526D01*
X152606385Y-92542143D02*
X152606385Y-93411999D01*
X154541002Y-90607526D02*
X152606385Y-92542143D01*
%TO.N,/FLASH_IO2*%
X152893007Y-93882907D02*
X152893007Y-93806993D01*
X157007526Y-91507526D02*
X157400000Y-91900000D01*
X153775000Y-91999695D02*
X154267169Y-91507526D01*
X153775000Y-92925000D02*
X153775000Y-91999695D01*
X154267169Y-91507526D02*
X157007526Y-91507526D01*
X152893007Y-93806993D02*
X153775000Y-92925000D01*
%TO.N,/FLASH_IO0*%
X154891002Y-91057526D02*
X154838799Y-91057526D01*
X157143270Y-90875112D02*
X155073416Y-90875112D01*
X155073416Y-90875112D02*
X154891002Y-91057526D01*
X157406983Y-89904412D02*
X157406983Y-90611399D01*
X158023661Y-89287734D02*
X157406983Y-89904412D01*
X158023661Y-89086932D02*
X158023661Y-89287734D01*
X157406983Y-90611399D02*
X157143270Y-90875112D01*
%TO.N,/FLASH_CLK*%
X157003224Y-88637890D02*
X152648538Y-88637890D01*
X157426092Y-89140917D02*
X157426092Y-89060758D01*
X152411297Y-88875131D02*
X151613644Y-88875131D01*
X157426092Y-89060758D02*
X157003224Y-88637890D01*
X152648538Y-88637890D02*
X152411297Y-88875131D01*
X151613644Y-88875131D02*
X151083750Y-89405025D01*
%TO.N,/FLASH_IO3*%
X154424264Y-90300000D02*
X154800000Y-90300000D01*
X151775001Y-94700001D02*
X151502590Y-94427590D01*
X154800000Y-90300000D02*
X156012110Y-89087890D01*
X151502590Y-93879396D02*
X152306385Y-93075601D01*
X152306385Y-93075601D02*
X152306385Y-92417879D01*
X151502590Y-94427590D02*
X151502590Y-93879396D01*
X152306385Y-92417879D02*
X154424264Y-90300000D01*
X156012110Y-89087890D02*
X156816827Y-89087890D01*
%TO.N,/VSYS*%
X159906250Y-108893750D02*
X163693750Y-108893750D01*
X163693750Y-108893750D02*
X164550000Y-109750000D01*
%TO.N,Net-(D6-A)*%
X144200000Y-112000000D02*
X144800000Y-111400000D01*
X144800000Y-111400000D02*
X144800000Y-107400000D01*
%TO.N,Net-(IC2-VBAT)*%
X155263602Y-107100000D02*
X155400000Y-107100000D01*
X153750000Y-105586395D02*
X153750000Y-105586398D01*
X153750000Y-105586398D02*
X155263602Y-107100000D01*
%TO.N,Net-(U3-PH3-BOOT0)*%
X145350000Y-97200000D02*
X145400000Y-97200000D01*
X149700000Y-93713940D02*
X149700000Y-93700000D01*
X148909688Y-94504253D02*
X149700000Y-93713940D01*
X148095747Y-94504253D02*
X148909688Y-94504253D01*
X145400000Y-97200000D02*
X148095747Y-94504253D01*
%TO.N,Net-(IC2-SHPACT)*%
X154699999Y-98599999D02*
X154872499Y-98599999D01*
X154872499Y-98599999D02*
X155355919Y-99083419D01*
X154300000Y-98200000D02*
X154699999Y-98599999D01*
%TO.N,Net-(IC2-NTC)*%
X157300000Y-105200000D02*
X159100000Y-105200000D01*
X155700000Y-104100000D02*
X156200000Y-104100000D01*
X159100000Y-105200000D02*
X159600000Y-105700000D01*
X160300000Y-105700000D02*
X160400000Y-105800000D01*
X159600000Y-105700000D02*
X160300000Y-105700000D01*
X155300000Y-103700000D02*
X155700000Y-104100000D01*
X156200000Y-104100000D02*
X157300000Y-105200000D01*
%TO.N,Net-(JP2-A)*%
X160400000Y-104500000D02*
X160400000Y-104300000D01*
X160400000Y-104300000D02*
X160900000Y-103800000D01*
%TO.N,/I2C_SCL*%
X149400000Y-101300000D02*
X149300000Y-101200000D01*
X149300000Y-97500000D02*
X148170470Y-97500000D01*
X149300000Y-101200000D02*
X149300000Y-97500000D01*
X148170470Y-97500000D02*
X148150000Y-97520470D01*
%TO.N,/NRST*%
X145950000Y-107000000D02*
X146800000Y-107850000D01*
X146800000Y-112100000D02*
X148500000Y-113800000D01*
X153900000Y-113800000D02*
X154800000Y-112900000D01*
X148500000Y-113800000D02*
X153900000Y-113800000D01*
X146800000Y-107850000D02*
X146800000Y-112100000D01*
X154800000Y-111000000D02*
X154800000Y-109200000D01*
%TO.N,/SWDIO*%
X152743199Y-97627666D02*
X153300000Y-98184467D01*
X152743199Y-97493199D02*
X152743199Y-97627666D01*
X153300000Y-98184467D02*
X153300000Y-111900000D01*
%TO.N,/SWDCLK*%
X152700000Y-96900000D02*
X153053683Y-96900000D01*
X152200000Y-97661397D02*
X152200000Y-97400000D01*
X151600000Y-98261397D02*
X152200000Y-97661397D01*
X153053683Y-96900000D02*
X153054310Y-96900627D01*
X152200000Y-97400000D02*
X152700000Y-96900000D01*
X150300000Y-111900000D02*
X150300000Y-110450000D01*
X150300000Y-110450000D02*
X151600000Y-109150000D01*
X151600000Y-109150000D02*
X151600000Y-98261397D01*
%TO.N,Net-(J18-Pin_1)*%
X156000000Y-94336397D02*
X156563603Y-94900000D01*
X157400000Y-94900000D02*
X159200000Y-96700000D01*
X156563603Y-94900000D02*
X157400000Y-94900000D01*
X156000000Y-94200000D02*
X156000000Y-94336397D01*
%TO.N,Net-(J17-Pin_1)*%
X156120077Y-95700000D02*
X157000000Y-95700000D01*
X154512077Y-93763625D02*
X154512077Y-94092000D01*
X154512077Y-94092000D02*
X156120077Y-95700000D01*
X154415022Y-93666570D02*
X154512077Y-93763625D01*
%TO.N,Net-(J16-Pin_1)*%
X158100000Y-93900000D02*
X158800000Y-94600000D01*
X156000000Y-93516395D02*
X156383605Y-93900000D01*
X156383605Y-93900000D02*
X158100000Y-93900000D01*
%TO.N,/SND*%
X157837895Y-114662105D02*
X157837895Y-114475032D01*
X151712538Y-92851066D02*
X146100000Y-98463603D01*
X155400000Y-117100000D02*
X157837895Y-114662105D01*
X142300000Y-111200000D02*
X145400000Y-114300000D01*
X142300000Y-109000000D02*
X142300000Y-111200000D01*
X150200000Y-117100000D02*
X155400000Y-117100000D01*
X146100000Y-98463603D02*
X146100000Y-105200000D01*
X146100000Y-105200000D02*
X142300000Y-109000000D01*
X147400000Y-114300000D02*
X150200000Y-117100000D01*
X151856722Y-92888867D02*
X151818921Y-92851066D01*
X145400000Y-114300000D02*
X147400000Y-114300000D01*
X151818921Y-92851066D02*
X151712538Y-92851066D01*
%TO.N,Net-(D9-A)*%
X163250000Y-111450000D02*
X163200000Y-111500000D01*
X163250000Y-110400000D02*
X163250000Y-111450000D01*
%TO.N,Net-(J5-Pin_2)*%
X157650000Y-108400000D02*
X156700000Y-107450000D01*
X159000000Y-108400000D02*
X157650000Y-108400000D01*
X160400000Y-107100000D02*
X160300000Y-107100000D01*
X160300000Y-107100000D02*
X159000000Y-108400000D01*
%TD*%
%TA.AperFunction,Conductor*%
%TO.N,GND*%
G36*
X147404719Y-114623624D02*
G01*
X150008829Y-117227734D01*
X150008830Y-117227736D01*
X150072264Y-117291170D01*
X150096539Y-117301225D01*
X150155145Y-117325501D01*
X150155146Y-117325501D01*
X150259289Y-117325501D01*
X150259297Y-117325500D01*
X155355143Y-117325500D01*
X155355145Y-117325501D01*
X155444855Y-117325501D01*
X155503460Y-117301225D01*
X155527736Y-117291170D01*
X155591170Y-117227736D01*
X155591170Y-117227735D01*
X155608608Y-117210297D01*
X155608610Y-117210294D01*
X157637821Y-115181082D01*
X157699142Y-115147599D01*
X157768834Y-115152583D01*
X157824767Y-115194455D01*
X157849184Y-115259919D01*
X157849500Y-115268765D01*
X157849500Y-118281517D01*
X157860292Y-118349657D01*
X157864354Y-118375304D01*
X157921950Y-118488342D01*
X157921952Y-118488344D01*
X157921954Y-118488347D01*
X158011652Y-118578045D01*
X158011654Y-118578046D01*
X158011658Y-118578050D01*
X158124694Y-118635645D01*
X158124698Y-118635647D01*
X158218475Y-118650499D01*
X158218481Y-118650500D01*
X159581518Y-118650499D01*
X159581522Y-118650498D01*
X159581666Y-118650487D01*
X159581723Y-118650499D01*
X159586390Y-118650499D01*
X159586390Y-118651479D01*
X159595969Y-118653490D01*
X159610461Y-118651577D01*
X159629477Y-118660527D01*
X159650044Y-118664846D01*
X159660453Y-118675106D01*
X159673679Y-118681331D01*
X159684837Y-118699141D01*
X159699804Y-118713893D01*
X159703013Y-118728151D01*
X159710775Y-118740539D01*
X159710533Y-118761554D01*
X159715149Y-118782057D01*
X159710139Y-118795788D01*
X159709972Y-118810404D01*
X159698407Y-118827952D01*
X159691205Y-118847696D01*
X159678876Y-118857587D01*
X159671524Y-118868744D01*
X159641616Y-118887483D01*
X159531343Y-118936319D01*
X159526038Y-118938523D01*
X158762898Y-119235026D01*
X158757498Y-119236981D01*
X157981465Y-119497822D01*
X157975980Y-119499525D01*
X157188716Y-119724147D01*
X157183158Y-119725595D01*
X156386299Y-119913530D01*
X156380680Y-119914718D01*
X155576023Y-120065543D01*
X155570354Y-120066471D01*
X154759521Y-120179881D01*
X154753817Y-120180544D01*
X153938646Y-120256282D01*
X153932916Y-120256681D01*
X153115091Y-120294593D01*
X153109349Y-120294726D01*
X152290651Y-120294726D01*
X152284909Y-120294593D01*
X151467083Y-120256681D01*
X151461353Y-120256282D01*
X150646182Y-120180544D01*
X150640478Y-120179881D01*
X149829645Y-120066471D01*
X149823976Y-120065543D01*
X149019319Y-119914718D01*
X149013700Y-119913530D01*
X148216841Y-119725595D01*
X148211283Y-119724147D01*
X147424019Y-119499525D01*
X147418534Y-119497822D01*
X146642501Y-119236981D01*
X146637101Y-119235026D01*
X145873961Y-118938523D01*
X145868665Y-118936323D01*
X145759275Y-118887878D01*
X145705949Y-118842733D01*
X145685495Y-118775924D01*
X145704408Y-118708663D01*
X145756682Y-118662304D01*
X145809483Y-118650499D01*
X146881518Y-118650499D01*
X146975304Y-118635646D01*
X147088342Y-118578050D01*
X147178050Y-118488342D01*
X147235646Y-118375304D01*
X147235646Y-118375302D01*
X147235647Y-118375301D01*
X147250499Y-118281524D01*
X147250500Y-118281519D01*
X147250499Y-114918482D01*
X147235646Y-114824696D01*
X147206552Y-114767596D01*
X147193657Y-114698931D01*
X147219933Y-114634191D01*
X147277039Y-114593933D01*
X147346845Y-114590941D01*
X147404719Y-114623624D01*
G37*
%TD.AperFunction*%
%TA.AperFunction,Conductor*%
G36*
X155570381Y-84933532D02*
G01*
X155575996Y-84934451D01*
X156380705Y-85085286D01*
X156386274Y-85086463D01*
X157051563Y-85243368D01*
X157183158Y-85274404D01*
X157188716Y-85275852D01*
X157975980Y-85500474D01*
X157981465Y-85502177D01*
X158757512Y-85763023D01*
X158762883Y-85764967D01*
X159526052Y-86061482D01*
X159531327Y-86063674D01*
X160279906Y-86395191D01*
X160285097Y-86397635D01*
X161017528Y-86763464D01*
X161022581Y-86766135D01*
X161530765Y-87050091D01*
X161737294Y-87165492D01*
X161742241Y-87168409D01*
X162437685Y-87600425D01*
X162442471Y-87603553D01*
X163045028Y-88017727D01*
X163117178Y-88067320D01*
X163121833Y-88070681D01*
X163701717Y-88510155D01*
X163774315Y-88565174D01*
X163778805Y-88568743D01*
X164406435Y-89091873D01*
X164407705Y-89092931D01*
X164412024Y-89096704D01*
X165015985Y-89649460D01*
X165020109Y-89653414D01*
X165597829Y-90233547D01*
X165601764Y-90237687D01*
X165639237Y-90278975D01*
X165655774Y-90297196D01*
X165686252Y-90360068D01*
X165677901Y-90429436D01*
X165633371Y-90483278D01*
X165588144Y-90502148D01*
X165408170Y-90537947D01*
X165408160Y-90537950D01*
X165226092Y-90613364D01*
X165226079Y-90613371D01*
X165062218Y-90722860D01*
X165062214Y-90722863D01*
X164922863Y-90862214D01*
X164922860Y-90862218D01*
X164813371Y-91026079D01*
X164813364Y-91026092D01*
X164737950Y-91208160D01*
X164737947Y-91208170D01*
X164699500Y-91401456D01*
X164699500Y-91401459D01*
X164699500Y-91421750D01*
X164699500Y-91598541D01*
X164699500Y-91598543D01*
X164699499Y-91598543D01*
X164737947Y-91791829D01*
X164737950Y-91791839D01*
X164813364Y-91973907D01*
X164813371Y-91973920D01*
X164922860Y-92137781D01*
X164922863Y-92137785D01*
X165062214Y-92277136D01*
X165062218Y-92277139D01*
X165226079Y-92386628D01*
X165226092Y-92386635D01*
X165408160Y-92462049D01*
X165408165Y-92462051D01*
X165408169Y-92462051D01*
X165408170Y-92462052D01*
X165601456Y-92500500D01*
X165601459Y-92500500D01*
X165798543Y-92500500D01*
X165932196Y-92473914D01*
X165991835Y-92462051D01*
X166173914Y-92386632D01*
X166337782Y-92277139D01*
X166477139Y-92137782D01*
X166586632Y-91973914D01*
X166662051Y-91791835D01*
X166662052Y-91791827D01*
X166663050Y-91788540D01*
X166664045Y-91787021D01*
X166664382Y-91786208D01*
X166664536Y-91786271D01*
X166701343Y-91730098D01*
X166765153Y-91701637D01*
X166834220Y-91712192D01*
X166880850Y-91750042D01*
X167172634Y-92138404D01*
X167175977Y-92143075D01*
X167341898Y-92386632D01*
X167621230Y-92796666D01*
X167636910Y-92819682D01*
X167640026Y-92824492D01*
X167842043Y-93152734D01*
X168069150Y-93521745D01*
X168072046Y-93526705D01*
X168468408Y-94243056D01*
X168471071Y-94248144D01*
X168832038Y-94978441D01*
X168833159Y-94980769D01*
X168834355Y-94983321D01*
X168846886Y-95013574D01*
X168849982Y-95016670D01*
X168851873Y-95020705D01*
X168851946Y-95020805D01*
X168851948Y-95020807D01*
X168851949Y-95020808D01*
X168878149Y-95044837D01*
X168903288Y-95069976D01*
X168907429Y-95071691D01*
X168910734Y-95074722D01*
X168944136Y-95086895D01*
X168976980Y-95100500D01*
X168981463Y-95100500D01*
X168985675Y-95102035D01*
X168985677Y-95102034D01*
X168985678Y-95102035D01*
X169010908Y-95100944D01*
X169018509Y-95100615D01*
X169023864Y-95100500D01*
X173519862Y-95100500D01*
X173586901Y-95120185D01*
X173632656Y-95172989D01*
X173643862Y-95224500D01*
X173643862Y-97525500D01*
X173624177Y-97592539D01*
X173571373Y-97638294D01*
X173519862Y-97649500D01*
X167204478Y-97649500D01*
X167130787Y-97680024D01*
X167074386Y-97736425D01*
X167043862Y-97810116D01*
X167043862Y-106889883D01*
X167068998Y-106950567D01*
X167074386Y-106963574D01*
X167130788Y-107019976D01*
X167204480Y-107050500D01*
X173519862Y-107050500D01*
X173586901Y-107070185D01*
X173632656Y-107122989D01*
X173643862Y-107174500D01*
X173643862Y-109775500D01*
X173624177Y-109842539D01*
X173571373Y-109888294D01*
X173519862Y-109899500D01*
X169021193Y-109899500D01*
X168985675Y-109897965D01*
X168981463Y-109899500D01*
X168976980Y-109899500D01*
X168946602Y-109912082D01*
X168941614Y-109914023D01*
X168910729Y-109925279D01*
X168910249Y-109925570D01*
X168910250Y-109925571D01*
X168904860Y-109928844D01*
X168903764Y-109929705D01*
X168903289Y-109930022D01*
X168880045Y-109953265D01*
X168876183Y-109956964D01*
X168851949Y-109979190D01*
X168851613Y-109979650D01*
X168851610Y-109979653D01*
X168847888Y-109984732D01*
X168847204Y-109985948D01*
X168846887Y-109986421D01*
X168835432Y-110014076D01*
X168832034Y-110021565D01*
X168471071Y-110751855D01*
X168468408Y-110756943D01*
X168072046Y-111473294D01*
X168069150Y-111478254D01*
X167640033Y-112175497D01*
X167636910Y-112180317D01*
X167175977Y-112856924D01*
X167172634Y-112861595D01*
X166880850Y-113249957D01*
X166824844Y-113291730D01*
X166755143Y-113296593D01*
X166693879Y-113263001D01*
X166664431Y-113213771D01*
X166664382Y-113213792D01*
X166664242Y-113213454D01*
X166663051Y-113211463D01*
X166662049Y-113208160D01*
X166586635Y-113026092D01*
X166586628Y-113026079D01*
X166477139Y-112862218D01*
X166477136Y-112862214D01*
X166337785Y-112722863D01*
X166337781Y-112722860D01*
X166173920Y-112613371D01*
X166173907Y-112613364D01*
X165991839Y-112537950D01*
X165991829Y-112537947D01*
X165798543Y-112499500D01*
X165798541Y-112499500D01*
X165601459Y-112499500D01*
X165601457Y-112499500D01*
X165408170Y-112537947D01*
X165408160Y-112537950D01*
X165226092Y-112613364D01*
X165226079Y-112613371D01*
X165062218Y-112722860D01*
X165062214Y-112722863D01*
X164922863Y-112862214D01*
X164922860Y-112862218D01*
X164813371Y-113026079D01*
X164813364Y-113026092D01*
X164737950Y-113208160D01*
X164737947Y-113208170D01*
X164699500Y-113401456D01*
X164699500Y-113401459D01*
X164699500Y-113421750D01*
X164699500Y-113598541D01*
X164699500Y-113598543D01*
X164699499Y-113598543D01*
X164737947Y-113791829D01*
X164737950Y-113791839D01*
X164813364Y-113973907D01*
X164813371Y-113973920D01*
X164922860Y-114137781D01*
X164922863Y-114137785D01*
X165062214Y-114277136D01*
X165062218Y-114277139D01*
X165226079Y-114386628D01*
X165226092Y-114386635D01*
X165339393Y-114433565D01*
X165408165Y-114462051D01*
X165588143Y-114497851D01*
X165594470Y-114501160D01*
X165601612Y-114501325D01*
X165625024Y-114517143D01*
X165650054Y-114530236D01*
X165653587Y-114536441D01*
X165659507Y-114540441D01*
X165670649Y-114566404D01*
X165684628Y-114590951D01*
X165684245Y-114598082D01*
X165687063Y-114604647D01*
X165682400Y-114632511D01*
X165680889Y-114660721D01*
X165676431Y-114668190D01*
X165675533Y-114673558D01*
X165655774Y-114702803D01*
X165601776Y-114762300D01*
X165597818Y-114766463D01*
X165020120Y-115346574D01*
X165015974Y-115350549D01*
X164412031Y-115903289D01*
X164407705Y-115907068D01*
X163778811Y-116431251D01*
X163774315Y-116434825D01*
X163121834Y-116929317D01*
X163117178Y-116932679D01*
X162442493Y-117396431D01*
X162437685Y-117399574D01*
X161742241Y-117831590D01*
X161737294Y-117834507D01*
X161022593Y-118233857D01*
X161017516Y-118236541D01*
X160285103Y-118602361D01*
X160279906Y-118604808D01*
X159957957Y-118747387D01*
X159888689Y-118756535D01*
X159825471Y-118726781D01*
X159788375Y-118667573D01*
X159789178Y-118597708D01*
X159820063Y-118546328D01*
X159878050Y-118488342D01*
X159935646Y-118375304D01*
X159935646Y-118375302D01*
X159935647Y-118375301D01*
X159950499Y-118281524D01*
X159950500Y-118281519D01*
X159950499Y-116427525D01*
X160949500Y-116427525D01*
X160949500Y-116572475D01*
X160970407Y-116650500D01*
X160987017Y-116712488D01*
X161059488Y-116838011D01*
X161059490Y-116838013D01*
X161059491Y-116838015D01*
X161161985Y-116940509D01*
X161161986Y-116940510D01*
X161161988Y-116940511D01*
X161287511Y-117012982D01*
X161287512Y-117012982D01*
X161287515Y-117012984D01*
X161427525Y-117050500D01*
X161427528Y-117050500D01*
X161572472Y-117050500D01*
X161572475Y-117050500D01*
X161712485Y-117012984D01*
X161838015Y-116940509D01*
X161940509Y-116838015D01*
X162012984Y-116712485D01*
X162050500Y-116572475D01*
X162050500Y-116427525D01*
X162012984Y-116287515D01*
X161946565Y-116172475D01*
X161940511Y-116161988D01*
X161940506Y-116161982D01*
X161838017Y-116059493D01*
X161838011Y-116059488D01*
X161712488Y-115987017D01*
X161712489Y-115987017D01*
X161701006Y-115983940D01*
X161572475Y-115949500D01*
X161427525Y-115949500D01*
X161298993Y-115983940D01*
X161287511Y-115987017D01*
X161161988Y-116059488D01*
X161161982Y-116059493D01*
X161059493Y-116161982D01*
X161059488Y-116161988D01*
X160987017Y-116287511D01*
X160987016Y-116287515D01*
X160949500Y-116427525D01*
X159950499Y-116427525D01*
X159950499Y-114918482D01*
X159950499Y-114918481D01*
X159950499Y-114918477D01*
X159941528Y-114861836D01*
X159941527Y-114861835D01*
X159939742Y-114850565D01*
X163324500Y-114850565D01*
X163324500Y-114949435D01*
X163350090Y-115044938D01*
X163399525Y-115130562D01*
X163469438Y-115200475D01*
X163555062Y-115249910D01*
X163650565Y-115275500D01*
X163650567Y-115275500D01*
X163749432Y-115275500D01*
X163749435Y-115275500D01*
X163844938Y-115249910D01*
X163930562Y-115200475D01*
X164000475Y-115130562D01*
X164049910Y-115044938D01*
X164075500Y-114949435D01*
X164075500Y-114850565D01*
X164049910Y-114755062D01*
X164000475Y-114669438D01*
X163930562Y-114599525D01*
X163844938Y-114550090D01*
X163749435Y-114524500D01*
X163650565Y-114524500D01*
X163555062Y-114550090D01*
X163555060Y-114550091D01*
X163555059Y-114550091D01*
X163469436Y-114599526D01*
X163399526Y-114669436D01*
X163350091Y-114755059D01*
X163350091Y-114755060D01*
X163350090Y-114755062D01*
X163324500Y-114850565D01*
X159939742Y-114850565D01*
X159935646Y-114824696D01*
X159878050Y-114711658D01*
X159878046Y-114711654D01*
X159878045Y-114711652D01*
X159788347Y-114621954D01*
X159788344Y-114621952D01*
X159788342Y-114621950D01*
X159711517Y-114582805D01*
X159675301Y-114564352D01*
X159581524Y-114549500D01*
X158337395Y-114549500D01*
X158270356Y-114529815D01*
X158224601Y-114477011D01*
X158215149Y-114433565D01*
X158214456Y-114433657D01*
X158213395Y-114425599D01*
X158213395Y-114425597D01*
X158187805Y-114330094D01*
X158138370Y-114244470D01*
X158068457Y-114174557D01*
X157982833Y-114125122D01*
X157887330Y-114099532D01*
X157788460Y-114099532D01*
X157692957Y-114125122D01*
X157692955Y-114125123D01*
X157692954Y-114125123D01*
X157607331Y-114174558D01*
X157537421Y-114244468D01*
X157487986Y-114330091D01*
X157487986Y-114330092D01*
X157487985Y-114330094D01*
X157462395Y-114425597D01*
X157462395Y-114524467D01*
X157482120Y-114598082D01*
X157484912Y-114608501D01*
X157483249Y-114678351D01*
X157452818Y-114728275D01*
X155342914Y-116838181D01*
X155281591Y-116871666D01*
X155255233Y-116874500D01*
X150344767Y-116874500D01*
X150277728Y-116854815D01*
X150257086Y-116838181D01*
X147613361Y-114194456D01*
X147591170Y-114172265D01*
X147591170Y-114172264D01*
X147527736Y-114108830D01*
X147501054Y-114097778D01*
X147444855Y-114074499D01*
X147355145Y-114074499D01*
X147340711Y-114074499D01*
X147340703Y-114074500D01*
X145544767Y-114074500D01*
X145477728Y-114054815D01*
X145457086Y-114038181D01*
X143991271Y-112572366D01*
X143957786Y-112511043D01*
X143962770Y-112441351D01*
X144004642Y-112385418D01*
X144070106Y-112361001D01*
X144111040Y-112364909D01*
X144150565Y-112375500D01*
X144150568Y-112375500D01*
X144249432Y-112375500D01*
X144249435Y-112375500D01*
X144344938Y-112349910D01*
X144430562Y-112300475D01*
X144500475Y-112230562D01*
X144549910Y-112144938D01*
X144575500Y-112049435D01*
X144575500Y-111994766D01*
X144595185Y-111927727D01*
X144611819Y-111907085D01*
X144749468Y-111769436D01*
X144910294Y-111608610D01*
X144910297Y-111608608D01*
X144927735Y-111591170D01*
X144927736Y-111591170D01*
X144991170Y-111527736D01*
X144991170Y-111527734D01*
X144991172Y-111527733D01*
X145013720Y-111473294D01*
X145025500Y-111444855D01*
X145025500Y-108949522D01*
X145489145Y-108949522D01*
X145489145Y-109048392D01*
X145514735Y-109143895D01*
X145514736Y-109143896D01*
X145514736Y-109143897D01*
X145518208Y-109149910D01*
X145564170Y-109229519D01*
X145634083Y-109299432D01*
X145719707Y-109348867D01*
X145815210Y-109374457D01*
X145815212Y-109374457D01*
X145914077Y-109374457D01*
X145914080Y-109374457D01*
X146009583Y-109348867D01*
X146095207Y-109299432D01*
X146165120Y-109229519D01*
X146214555Y-109143895D01*
X146240145Y-109048392D01*
X146240145Y-108949522D01*
X146214555Y-108854019D01*
X146175183Y-108785825D01*
X146158711Y-108717927D01*
X146181563Y-108651900D01*
X146194888Y-108636148D01*
X146200475Y-108630562D01*
X146249910Y-108544938D01*
X146275500Y-108449435D01*
X146275500Y-108350565D01*
X146249910Y-108255062D01*
X146200475Y-108169438D01*
X146130562Y-108099525D01*
X146044938Y-108050090D01*
X145949435Y-108024500D01*
X145850565Y-108024500D01*
X145755062Y-108050090D01*
X145755060Y-108050091D01*
X145755059Y-108050091D01*
X145669436Y-108099526D01*
X145599526Y-108169436D01*
X145550091Y-108255059D01*
X145550091Y-108255060D01*
X145550090Y-108255062D01*
X145524500Y-108350565D01*
X145524500Y-108449435D01*
X145550090Y-108544938D01*
X145550091Y-108544939D01*
X145550091Y-108544940D01*
X145589460Y-108613129D01*
X145605933Y-108681029D01*
X145583080Y-108747056D01*
X145569758Y-108762806D01*
X145564172Y-108768392D01*
X145514736Y-108854016D01*
X145514736Y-108854017D01*
X145514735Y-108854019D01*
X145489145Y-108949522D01*
X145025500Y-108949522D01*
X145025500Y-107756899D01*
X145045185Y-107689860D01*
X145061819Y-107669218D01*
X145081127Y-107649910D01*
X145100475Y-107630562D01*
X145149910Y-107544938D01*
X145175500Y-107449435D01*
X145175500Y-107350565D01*
X145149910Y-107255062D01*
X145100475Y-107169438D01*
X145030562Y-107099525D01*
X144945648Y-107050500D01*
X144944940Y-107050091D01*
X144944939Y-107050090D01*
X144855753Y-107026193D01*
X144796093Y-106989827D01*
X144765564Y-106926980D01*
X144773859Y-106857605D01*
X144800163Y-106818741D01*
X146227734Y-105391170D01*
X146227736Y-105391170D01*
X146291170Y-105327736D01*
X146325466Y-105244938D01*
X146325501Y-105244854D01*
X146325501Y-105155145D01*
X146325501Y-105145156D01*
X146325500Y-105145142D01*
X146325500Y-105050565D01*
X149874500Y-105050565D01*
X149874500Y-105149435D01*
X149900090Y-105244938D01*
X149949525Y-105330562D01*
X150019438Y-105400475D01*
X150105062Y-105449910D01*
X150200565Y-105475500D01*
X150200567Y-105475500D01*
X150299432Y-105475500D01*
X150299435Y-105475500D01*
X150394938Y-105449910D01*
X150480562Y-105400475D01*
X150550475Y-105330562D01*
X150599910Y-105244938D01*
X150625500Y-105149435D01*
X150625500Y-105050565D01*
X150599910Y-104955062D01*
X150550475Y-104869438D01*
X150480562Y-104799525D01*
X150394938Y-104750090D01*
X150299435Y-104724500D01*
X150200565Y-104724500D01*
X150105062Y-104750090D01*
X150105060Y-104750091D01*
X150105059Y-104750091D01*
X150019436Y-104799526D01*
X149949526Y-104869436D01*
X149900091Y-104955059D01*
X149900091Y-104955060D01*
X149900090Y-104955062D01*
X149874500Y-105050565D01*
X146325500Y-105050565D01*
X146325500Y-103418710D01*
X146345185Y-103351671D01*
X146397989Y-103305916D01*
X146467147Y-103295972D01*
X146530703Y-103324997D01*
X146556885Y-103356708D01*
X146599525Y-103430562D01*
X146669438Y-103500475D01*
X146755062Y-103549910D01*
X146850565Y-103575500D01*
X146850567Y-103575500D01*
X146949433Y-103575500D01*
X146949435Y-103575500D01*
X146961142Y-103572363D01*
X147030990Y-103574024D01*
X147088853Y-103613185D01*
X147116359Y-103677413D01*
X147104774Y-103746316D01*
X147100629Y-103754127D01*
X147100093Y-103755055D01*
X147100090Y-103755060D01*
X147100090Y-103755062D01*
X147074500Y-103850565D01*
X147074500Y-103949435D01*
X147100090Y-104044938D01*
X147100091Y-104044939D01*
X147100091Y-104044940D01*
X147103064Y-104050089D01*
X147149525Y-104130562D01*
X147219438Y-104200475D01*
X147305062Y-104249910D01*
X147400565Y-104275500D01*
X147400567Y-104275500D01*
X147499432Y-104275500D01*
X147499435Y-104275500D01*
X147594938Y-104249910D01*
X147680562Y-104200475D01*
X147750475Y-104130562D01*
X147799910Y-104044938D01*
X147825500Y-103949435D01*
X147825500Y-103850565D01*
X147799910Y-103755062D01*
X147750475Y-103669438D01*
X147680562Y-103599525D01*
X147594938Y-103550090D01*
X147499435Y-103524500D01*
X147400565Y-103524500D01*
X147400563Y-103524500D01*
X147388852Y-103527638D01*
X147319002Y-103525973D01*
X147261141Y-103486808D01*
X147233639Y-103422578D01*
X147245229Y-103353677D01*
X147249367Y-103345877D01*
X147249910Y-103344938D01*
X147275500Y-103249435D01*
X147275500Y-103150565D01*
X147249910Y-103055062D01*
X147200475Y-102969438D01*
X147130562Y-102899525D01*
X147044938Y-102850090D01*
X146949435Y-102824500D01*
X146850565Y-102824500D01*
X146755062Y-102850090D01*
X146755060Y-102850091D01*
X146755059Y-102850091D01*
X146669436Y-102899526D01*
X146599527Y-102969435D01*
X146599525Y-102969437D01*
X146599525Y-102969438D01*
X146563118Y-103032498D01*
X146556887Y-103043290D01*
X146506319Y-103091505D01*
X146437712Y-103104727D01*
X146372848Y-103078759D01*
X146332320Y-103021845D01*
X146325500Y-102981289D01*
X146325500Y-98608370D01*
X146345185Y-98541331D01*
X146361819Y-98520689D01*
X146963430Y-97919078D01*
X147580149Y-97302358D01*
X147641470Y-97268875D01*
X147711162Y-97273859D01*
X147767095Y-97315731D01*
X147791512Y-97381195D01*
X147787602Y-97422134D01*
X147774500Y-97471035D01*
X147774500Y-97569905D01*
X147800090Y-97665408D01*
X147800091Y-97665409D01*
X147800091Y-97665410D01*
X147813337Y-97688352D01*
X147849525Y-97751032D01*
X147919438Y-97820945D01*
X148005062Y-97870380D01*
X148100565Y-97895970D01*
X148100567Y-97895970D01*
X148199432Y-97895970D01*
X148199435Y-97895970D01*
X148294938Y-97870380D01*
X148380562Y-97820945D01*
X148439688Y-97761819D01*
X148501011Y-97728334D01*
X148527369Y-97725500D01*
X148943100Y-97725500D01*
X148972540Y-97734144D01*
X149002527Y-97740668D01*
X149007542Y-97744422D01*
X149010139Y-97745185D01*
X149030781Y-97761819D01*
X149038181Y-97769219D01*
X149071666Y-97830542D01*
X149074500Y-97856900D01*
X149074500Y-101079556D01*
X149057889Y-101141553D01*
X149050091Y-101155059D01*
X149050091Y-101155060D01*
X149050090Y-101155062D01*
X149024500Y-101250565D01*
X149024500Y-101349435D01*
X149050090Y-101444938D01*
X149099525Y-101530562D01*
X149169438Y-101600475D01*
X149255062Y-101649910D01*
X149350565Y-101675500D01*
X149350567Y-101675500D01*
X149449432Y-101675500D01*
X149449435Y-101675500D01*
X149544938Y-101649910D01*
X149630562Y-101600475D01*
X149700475Y-101530562D01*
X149749910Y-101444938D01*
X149775500Y-101349435D01*
X149775500Y-101250565D01*
X149749910Y-101155062D01*
X149700475Y-101069438D01*
X149630562Y-100999525D01*
X149627600Y-100997815D01*
X149587499Y-100974662D01*
X149539284Y-100924095D01*
X149525500Y-100867276D01*
X149525500Y-97856899D01*
X149545185Y-97789860D01*
X149561819Y-97769218D01*
X149581129Y-97749908D01*
X149600475Y-97730562D01*
X149649910Y-97644938D01*
X149675500Y-97549435D01*
X149675500Y-97450565D01*
X149649910Y-97355062D01*
X149600475Y-97269438D01*
X149530562Y-97199525D01*
X149444938Y-97150090D01*
X149349435Y-97124500D01*
X149250565Y-97124500D01*
X149155062Y-97150090D01*
X149155060Y-97150091D01*
X149155059Y-97150091D01*
X149069436Y-97199526D01*
X149030780Y-97238182D01*
X148969457Y-97271667D01*
X148943100Y-97274500D01*
X148486429Y-97274500D01*
X148419390Y-97254815D01*
X148398748Y-97238181D01*
X148380563Y-97219996D01*
X148380562Y-97219995D01*
X148294938Y-97170560D01*
X148199435Y-97144970D01*
X148100565Y-97144970D01*
X148051664Y-97158073D01*
X147981814Y-97156410D01*
X147923952Y-97117247D01*
X147896448Y-97053018D01*
X147908035Y-96984116D01*
X147931887Y-96950620D01*
X149740957Y-95141550D01*
X149802278Y-95108067D01*
X149871970Y-95113051D01*
X149927903Y-95154923D01*
X149952320Y-95220387D01*
X149948411Y-95261326D01*
X149924500Y-95350565D01*
X149924500Y-95449435D01*
X149950090Y-95544938D01*
X149999525Y-95630562D01*
X150069438Y-95700475D01*
X150107566Y-95722488D01*
X150155779Y-95773052D01*
X150169564Y-95829873D01*
X150169564Y-97188106D01*
X150152952Y-97250104D01*
X150150092Y-97255057D01*
X150150090Y-97255060D01*
X150150090Y-97255062D01*
X150124500Y-97350565D01*
X150124500Y-97449435D01*
X150150090Y-97544938D01*
X150150091Y-97544939D01*
X150150091Y-97544940D01*
X150157982Y-97558608D01*
X150199525Y-97630562D01*
X150269438Y-97700475D01*
X150355062Y-97749910D01*
X150450565Y-97775500D01*
X150450567Y-97775500D01*
X150549432Y-97775500D01*
X150549435Y-97775500D01*
X150644938Y-97749910D01*
X150672807Y-97733819D01*
X150740705Y-97717346D01*
X150806732Y-97740197D01*
X150822488Y-97753525D01*
X150869438Y-97800475D01*
X150955062Y-97849910D01*
X151050565Y-97875500D01*
X151050567Y-97875500D01*
X151149432Y-97875500D01*
X151149435Y-97875500D01*
X151244938Y-97849910D01*
X151330562Y-97800475D01*
X151400475Y-97730562D01*
X151449910Y-97644938D01*
X151475500Y-97549435D01*
X151475500Y-97450565D01*
X151449910Y-97355062D01*
X151400475Y-97269438D01*
X151351874Y-97220837D01*
X151318389Y-97159514D01*
X151323373Y-97089822D01*
X151365245Y-97033889D01*
X151430709Y-97009472D01*
X151439555Y-97009156D01*
X151449432Y-97009156D01*
X151449435Y-97009156D01*
X151544938Y-96983566D01*
X151630562Y-96934131D01*
X151659912Y-96904780D01*
X151721232Y-96871296D01*
X151790924Y-96876280D01*
X151846858Y-96918150D01*
X151853241Y-96927828D01*
X151854112Y-96928963D01*
X151854113Y-96928964D01*
X151924026Y-96998877D01*
X152009650Y-97048312D01*
X152009651Y-97048312D01*
X152011161Y-97049184D01*
X152059376Y-97099752D01*
X152072598Y-97168359D01*
X152046630Y-97233223D01*
X152036842Y-97244251D01*
X152008832Y-97272260D01*
X152008828Y-97272267D01*
X152002463Y-97287635D01*
X151974499Y-97355145D01*
X151974499Y-97459288D01*
X151974500Y-97459297D01*
X151974500Y-97516629D01*
X151954815Y-97583668D01*
X151938181Y-97604310D01*
X151408831Y-98133659D01*
X151408829Y-98133662D01*
X151399930Y-98155143D01*
X151399931Y-98155144D01*
X151374499Y-98216539D01*
X151374499Y-98320685D01*
X151374500Y-98320694D01*
X151374500Y-103809808D01*
X151354815Y-103876847D01*
X151302011Y-103922602D01*
X151232853Y-103932546D01*
X151218410Y-103929584D01*
X151207722Y-103926720D01*
X151199435Y-103924500D01*
X151100565Y-103924500D01*
X151005062Y-103950090D01*
X151005060Y-103950091D01*
X151005059Y-103950091D01*
X150919436Y-103999526D01*
X150849526Y-104069436D01*
X150800091Y-104155059D01*
X150800091Y-104155060D01*
X150800090Y-104155062D01*
X150774500Y-104250565D01*
X150774500Y-104349435D01*
X150800090Y-104444938D01*
X150849525Y-104530562D01*
X150919438Y-104600475D01*
X151005062Y-104649910D01*
X151100565Y-104675500D01*
X151100567Y-104675500D01*
X151199432Y-104675500D01*
X151199435Y-104675500D01*
X151218408Y-104670416D01*
X151288256Y-104672079D01*
X151346119Y-104711241D01*
X151373623Y-104775470D01*
X151374500Y-104790191D01*
X151374500Y-107832751D01*
X151354815Y-107899790D01*
X151302011Y-107945545D01*
X151232853Y-107955489D01*
X151218407Y-107952526D01*
X151184366Y-107943405D01*
X151162474Y-107937539D01*
X151063604Y-107937539D01*
X150968101Y-107963129D01*
X150968099Y-107963130D01*
X150968098Y-107963130D01*
X150882475Y-108012565D01*
X150812565Y-108082475D01*
X150763130Y-108168098D01*
X150763130Y-108168099D01*
X150763129Y-108168101D01*
X150737539Y-108263604D01*
X150737539Y-108263606D01*
X150737539Y-108318271D01*
X150717854Y-108385310D01*
X150701220Y-108405952D01*
X150193992Y-108913181D01*
X150132669Y-108946666D01*
X150106311Y-108949500D01*
X149819767Y-108949500D01*
X149752728Y-108929815D01*
X149732086Y-108913181D01*
X148711819Y-107892914D01*
X148678334Y-107831591D01*
X148675500Y-107805233D01*
X148675500Y-107750567D01*
X148675500Y-107750565D01*
X148649910Y-107655062D01*
X148600475Y-107569438D01*
X148577590Y-107546553D01*
X148544105Y-107485230D01*
X148549089Y-107415538D01*
X148577590Y-107371191D01*
X148595602Y-107353179D01*
X148618487Y-107330294D01*
X148667922Y-107244670D01*
X148693512Y-107149167D01*
X148693512Y-107050297D01*
X148667922Y-106954794D01*
X148618487Y-106869170D01*
X148618485Y-106869168D01*
X148618484Y-106869166D01*
X148613538Y-106862720D01*
X148616183Y-106860690D01*
X148590128Y-106812973D01*
X148595112Y-106743281D01*
X148603903Y-106724624D01*
X148649910Y-106644938D01*
X148675500Y-106549435D01*
X148675500Y-106450565D01*
X148649910Y-106355062D01*
X148600475Y-106269438D01*
X148530562Y-106199525D01*
X148444938Y-106150090D01*
X148349435Y-106124500D01*
X148250565Y-106124500D01*
X148155062Y-106150090D01*
X148155060Y-106150091D01*
X148155059Y-106150091D01*
X148069436Y-106199526D01*
X147999526Y-106269436D01*
X147950091Y-106355059D01*
X147950091Y-106355060D01*
X147950090Y-106355062D01*
X147924500Y-106450565D01*
X147924500Y-106549435D01*
X147950090Y-106644938D01*
X147950091Y-106644939D01*
X147950091Y-106644940D01*
X147999527Y-106730565D01*
X148004474Y-106737012D01*
X148001827Y-106739042D01*
X148027882Y-106786757D01*
X148022898Y-106856449D01*
X148014104Y-106875113D01*
X147968104Y-106954789D01*
X147968102Y-106954792D01*
X147968102Y-106954794D01*
X147942512Y-107050297D01*
X147942512Y-107149167D01*
X147968102Y-107244670D01*
X147968103Y-107244671D01*
X147968103Y-107244672D01*
X148017538Y-107330295D01*
X148040422Y-107353179D01*
X148073907Y-107414502D01*
X148068923Y-107484194D01*
X148040422Y-107528541D01*
X147999526Y-107569436D01*
X147950091Y-107655059D01*
X147950091Y-107655060D01*
X147950090Y-107655062D01*
X147924500Y-107750565D01*
X147924500Y-107849435D01*
X147950090Y-107944938D01*
X147950091Y-107944939D01*
X147950091Y-107944940D01*
X147953065Y-107950091D01*
X147999525Y-108030562D01*
X148069438Y-108100475D01*
X148155062Y-108149910D01*
X148250565Y-108175500D01*
X148250567Y-108175500D01*
X148305233Y-108175500D01*
X148372272Y-108195185D01*
X148392914Y-108211819D01*
X149483829Y-109302734D01*
X149483830Y-109302736D01*
X149547264Y-109366170D01*
X149547599Y-109366309D01*
X149556442Y-109375127D01*
X149567626Y-109395542D01*
X149582560Y-109413399D01*
X149584098Y-109425610D01*
X149590011Y-109436404D01*
X149588382Y-109459625D01*
X149591291Y-109482721D01*
X149585983Y-109493825D01*
X149585122Y-109506103D01*
X149571197Y-109524756D01*
X149561159Y-109545759D01*
X149556562Y-109550610D01*
X148843992Y-110263181D01*
X148782669Y-110296666D01*
X148756311Y-110299500D01*
X148566739Y-110299500D01*
X148498608Y-110309426D01*
X148393514Y-110360803D01*
X148310803Y-110443514D01*
X148259426Y-110548608D01*
X148249500Y-110616739D01*
X148249500Y-112931233D01*
X148229815Y-112998272D01*
X148177011Y-113044027D01*
X148107853Y-113053971D01*
X148044297Y-113024946D01*
X148037819Y-113018914D01*
X147061819Y-112042914D01*
X147028334Y-111981591D01*
X147025500Y-111955233D01*
X147025500Y-107909297D01*
X147025501Y-107909288D01*
X147025501Y-107805147D01*
X147025500Y-107805144D01*
X147004790Y-107755145D01*
X146991170Y-107722264D01*
X146958766Y-107689860D01*
X146927736Y-107658830D01*
X146927734Y-107658829D01*
X146920668Y-107651763D01*
X146920668Y-107651762D01*
X146920664Y-107651759D01*
X146361819Y-107092914D01*
X146328334Y-107031591D01*
X146325500Y-107005233D01*
X146325500Y-106950567D01*
X146325500Y-106950565D01*
X146299910Y-106855062D01*
X146250475Y-106769438D01*
X146180562Y-106699525D01*
X146094938Y-106650090D01*
X145999435Y-106624500D01*
X145900565Y-106624500D01*
X145805062Y-106650090D01*
X145805060Y-106650091D01*
X145805059Y-106650091D01*
X145719436Y-106699526D01*
X145649526Y-106769436D01*
X145600091Y-106855059D01*
X145600091Y-106855060D01*
X145600090Y-106855062D01*
X145574500Y-106950565D01*
X145574500Y-107049435D01*
X145600090Y-107144938D01*
X145600091Y-107144939D01*
X145600091Y-107144940D01*
X145605933Y-107155059D01*
X145649525Y-107230562D01*
X145719438Y-107300475D01*
X145805062Y-107349910D01*
X145900565Y-107375500D01*
X145900567Y-107375500D01*
X145955233Y-107375500D01*
X146022272Y-107395185D01*
X146042914Y-107411819D01*
X146538181Y-107907086D01*
X146571666Y-107968409D01*
X146574500Y-107994767D01*
X146574500Y-112055142D01*
X146574499Y-112055145D01*
X146574499Y-112144855D01*
X146588203Y-112177938D01*
X146594527Y-112193205D01*
X146608830Y-112227736D01*
X146689700Y-112308606D01*
X146689706Y-112308611D01*
X148308829Y-113927734D01*
X148308830Y-113927736D01*
X148372264Y-113991170D01*
X148394789Y-114000500D01*
X148455145Y-114025501D01*
X148455146Y-114025501D01*
X148559289Y-114025501D01*
X148559297Y-114025500D01*
X153855143Y-114025500D01*
X153855145Y-114025501D01*
X153944855Y-114025501D01*
X154005211Y-114000500D01*
X154027736Y-113991170D01*
X154091170Y-113927736D01*
X154091170Y-113927735D01*
X154108608Y-113910297D01*
X154108610Y-113910294D01*
X154482085Y-113536819D01*
X154543408Y-113503334D01*
X154569766Y-113500500D01*
X155033261Y-113500500D01*
X155055971Y-113497191D01*
X155101393Y-113490573D01*
X155206483Y-113439198D01*
X155289198Y-113356483D01*
X155340573Y-113251393D01*
X155350500Y-113183260D01*
X155350500Y-110616740D01*
X155350500Y-110616739D01*
X155749500Y-110616739D01*
X155749500Y-113183260D01*
X155759426Y-113251391D01*
X155810803Y-113356485D01*
X155893514Y-113439196D01*
X155893515Y-113439196D01*
X155893517Y-113439198D01*
X155998607Y-113490573D01*
X156011332Y-113492427D01*
X156066739Y-113500500D01*
X156066740Y-113500500D01*
X156533261Y-113500500D01*
X156555971Y-113497191D01*
X156601393Y-113490573D01*
X156706483Y-113439198D01*
X156789198Y-113356483D01*
X156840573Y-113251393D01*
X156850500Y-113183260D01*
X156850500Y-110616740D01*
X156840573Y-110548607D01*
X156789198Y-110443517D01*
X156789196Y-110443515D01*
X156789196Y-110443514D01*
X156706485Y-110360803D01*
X156601391Y-110309426D01*
X156533261Y-110299500D01*
X156533260Y-110299500D01*
X156066740Y-110299500D01*
X156066739Y-110299500D01*
X155998608Y-110309426D01*
X155893514Y-110360803D01*
X155810803Y-110443514D01*
X155759426Y-110548608D01*
X155749500Y-110616739D01*
X155350500Y-110616739D01*
X155340573Y-110548607D01*
X155289198Y-110443517D01*
X155289196Y-110443515D01*
X155289196Y-110443514D01*
X155206482Y-110360800D01*
X155095040Y-110306320D01*
X155043457Y-110259192D01*
X155025500Y-110194920D01*
X155025500Y-109556899D01*
X155045185Y-109489860D01*
X155061819Y-109469218D01*
X155071412Y-109459625D01*
X155100475Y-109430562D01*
X155149910Y-109344938D01*
X155175500Y-109249435D01*
X155175500Y-109150565D01*
X155149910Y-109055062D01*
X155100475Y-108969438D01*
X155030562Y-108899525D01*
X154944938Y-108850090D01*
X154923385Y-108844315D01*
X159530750Y-108844315D01*
X159530750Y-108943185D01*
X159556340Y-109038688D01*
X159556341Y-109038689D01*
X159556341Y-109038690D01*
X159568233Y-109059288D01*
X159605775Y-109124312D01*
X159675688Y-109194225D01*
X159761312Y-109243660D01*
X159856815Y-109269250D01*
X159856817Y-109269250D01*
X159955682Y-109269250D01*
X159955685Y-109269250D01*
X160051188Y-109243660D01*
X160136812Y-109194225D01*
X160156141Y-109174895D01*
X160175470Y-109155568D01*
X160236793Y-109122083D01*
X160263150Y-109119250D01*
X163548983Y-109119250D01*
X163578423Y-109127894D01*
X163608410Y-109134418D01*
X163613425Y-109138172D01*
X163616022Y-109138935D01*
X163636663Y-109155568D01*
X163768914Y-109287819D01*
X163802399Y-109349142D01*
X163797415Y-109418834D01*
X163755543Y-109474767D01*
X163690079Y-109499184D01*
X163681233Y-109499500D01*
X162735178Y-109499500D01*
X162691282Y-109508231D01*
X162691275Y-109508234D01*
X162641496Y-109541495D01*
X162641495Y-109541496D01*
X162608234Y-109591275D01*
X162608231Y-109591282D01*
X162599500Y-109635177D01*
X162599500Y-109635180D01*
X162599500Y-111164820D01*
X162599500Y-111164822D01*
X162599499Y-111164822D01*
X162608231Y-111208717D01*
X162608234Y-111208724D01*
X162639776Y-111255930D01*
X162641496Y-111258504D01*
X162691278Y-111291767D01*
X162691281Y-111291767D01*
X162691282Y-111291768D01*
X162728305Y-111299133D01*
X162790216Y-111331518D01*
X162824790Y-111392234D01*
X162824049Y-111442309D01*
X162825561Y-111442509D01*
X162824500Y-111450563D01*
X162824500Y-111450565D01*
X162824500Y-111549435D01*
X162850090Y-111644938D01*
X162850091Y-111644939D01*
X162850091Y-111644940D01*
X162853065Y-111650091D01*
X162899525Y-111730562D01*
X162969438Y-111800475D01*
X163055062Y-111849910D01*
X163150565Y-111875500D01*
X163150567Y-111875500D01*
X163249432Y-111875500D01*
X163249435Y-111875500D01*
X163344938Y-111849910D01*
X163430562Y-111800475D01*
X163500475Y-111730562D01*
X163549910Y-111644938D01*
X163575500Y-111549435D01*
X163575500Y-111450565D01*
X163575499Y-111450563D01*
X163574439Y-111442509D01*
X163577457Y-111442111D01*
X163578782Y-111386731D01*
X163617950Y-111328873D01*
X163670301Y-111303384D01*
X163683438Y-111300500D01*
X163764820Y-111300500D01*
X163808722Y-111291767D01*
X163850563Y-111263809D01*
X163873411Y-111258794D01*
X163885869Y-111259661D01*
X163897786Y-111255930D01*
X163920065Y-111262041D01*
X163943112Y-111263646D01*
X163953122Y-111271109D01*
X163965167Y-111274414D01*
X163968867Y-111276792D01*
X163981929Y-111285520D01*
X163991278Y-111291767D01*
X163991282Y-111291768D01*
X164035177Y-111300500D01*
X164035180Y-111300500D01*
X165064822Y-111300500D01*
X165108717Y-111291768D01*
X165108717Y-111291767D01*
X165108722Y-111291767D01*
X165158504Y-111258504D01*
X165191767Y-111208722D01*
X165200500Y-111164820D01*
X165200500Y-109635180D01*
X165200500Y-109635177D01*
X165191768Y-109591282D01*
X165191767Y-109591281D01*
X165191767Y-109591278D01*
X165158504Y-109541496D01*
X165133451Y-109524756D01*
X165108724Y-109508234D01*
X165108717Y-109508231D01*
X165064822Y-109499500D01*
X165064820Y-109499500D01*
X164669768Y-109499500D01*
X164602729Y-109479815D01*
X164582087Y-109463181D01*
X164268814Y-109149908D01*
X163902360Y-108783455D01*
X163902359Y-108783453D01*
X163869471Y-108750565D01*
X165624500Y-108750565D01*
X165624500Y-108849435D01*
X165650090Y-108944938D01*
X165650091Y-108944939D01*
X165650091Y-108944940D01*
X165652738Y-108949524D01*
X165699525Y-109030562D01*
X165769438Y-109100475D01*
X165855062Y-109149910D01*
X165950565Y-109175500D01*
X165950567Y-109175500D01*
X166049432Y-109175500D01*
X166049435Y-109175500D01*
X166144938Y-109149910D01*
X166230562Y-109100475D01*
X166300475Y-109030562D01*
X166349910Y-108944938D01*
X166375500Y-108849435D01*
X166375500Y-108750565D01*
X166349910Y-108655062D01*
X166300475Y-108569438D01*
X166230562Y-108499525D01*
X166144938Y-108450090D01*
X166049435Y-108424500D01*
X165950565Y-108424500D01*
X165855062Y-108450090D01*
X165855060Y-108450091D01*
X165855059Y-108450091D01*
X165769436Y-108499526D01*
X165699526Y-108569436D01*
X165650091Y-108655059D01*
X165650091Y-108655060D01*
X165650090Y-108655062D01*
X165624500Y-108750565D01*
X163869471Y-108750565D01*
X163821487Y-108702581D01*
X163821486Y-108702580D01*
X163787588Y-108688539D01*
X163738605Y-108668249D01*
X163648895Y-108668249D01*
X163634461Y-108668249D01*
X163634453Y-108668250D01*
X160263150Y-108668250D01*
X160196111Y-108648565D01*
X160175470Y-108631932D01*
X160136813Y-108593276D01*
X160136812Y-108593275D01*
X160051188Y-108543840D01*
X159955685Y-108518250D01*
X159856815Y-108518250D01*
X159761312Y-108543840D01*
X159761310Y-108543841D01*
X159761309Y-108543841D01*
X159675686Y-108593276D01*
X159605776Y-108663186D01*
X159556341Y-108748809D01*
X159556341Y-108748810D01*
X159556340Y-108748812D01*
X159530750Y-108844315D01*
X154923385Y-108844315D01*
X154849435Y-108824500D01*
X154750565Y-108824500D01*
X154655062Y-108850090D01*
X154655060Y-108850091D01*
X154655059Y-108850091D01*
X154569436Y-108899526D01*
X154499526Y-108969436D01*
X154450091Y-109055059D01*
X154450091Y-109055060D01*
X154450090Y-109055062D01*
X154424500Y-109150565D01*
X154424500Y-109249435D01*
X154450090Y-109344938D01*
X154450091Y-109344939D01*
X154450091Y-109344940D01*
X154457982Y-109358608D01*
X154482169Y-109400501D01*
X154499526Y-109430563D01*
X154538181Y-109469218D01*
X154571666Y-109530541D01*
X154574500Y-109556899D01*
X154574500Y-110194920D01*
X154554815Y-110261959D01*
X154504960Y-110306320D01*
X154393517Y-110360800D01*
X154310803Y-110443514D01*
X154259426Y-110548608D01*
X154249500Y-110616739D01*
X154249500Y-113080233D01*
X154229815Y-113147272D01*
X154213185Y-113167909D01*
X154131138Y-113249957D01*
X154055531Y-113325564D01*
X153994208Y-113359048D01*
X153924516Y-113354064D01*
X153868583Y-113312192D01*
X153844166Y-113246728D01*
X153845145Y-113220007D01*
X153850500Y-113183260D01*
X153850500Y-110616740D01*
X153840573Y-110548607D01*
X153789198Y-110443517D01*
X153789196Y-110443515D01*
X153789196Y-110443514D01*
X153706482Y-110360800D01*
X153595040Y-110306320D01*
X153543457Y-110259192D01*
X153525500Y-110194920D01*
X153525500Y-106076586D01*
X153545185Y-106009547D01*
X153597989Y-105963792D01*
X153660376Y-105953064D01*
X153671146Y-105954012D01*
X153700565Y-105961895D01*
X153760677Y-105961895D01*
X153766106Y-105962373D01*
X153793770Y-105973211D01*
X153822269Y-105981580D01*
X153829025Y-105987024D01*
X153831160Y-105987861D01*
X153832692Y-105989979D01*
X153842911Y-105998214D01*
X154713181Y-106868484D01*
X154746666Y-106929807D01*
X154749500Y-106956165D01*
X154749500Y-107864820D01*
X154749500Y-107864822D01*
X154749499Y-107864822D01*
X154758231Y-107908717D01*
X154758234Y-107908724D01*
X154789481Y-107955489D01*
X154791496Y-107958504D01*
X154841278Y-107991767D01*
X154841281Y-107991767D01*
X154841282Y-107991768D01*
X154885177Y-108000500D01*
X154885180Y-108000500D01*
X155914822Y-108000500D01*
X155958717Y-107991768D01*
X155958717Y-107991767D01*
X155958722Y-107991767D01*
X155981110Y-107976807D01*
X156047786Y-107955930D01*
X156115167Y-107974414D01*
X156118867Y-107976792D01*
X156141275Y-107991765D01*
X156141278Y-107991767D01*
X156141282Y-107991768D01*
X156185177Y-108000500D01*
X156185180Y-108000500D01*
X156880233Y-108000500D01*
X156947272Y-108020185D01*
X156967914Y-108036819D01*
X157458829Y-108527734D01*
X157458830Y-108527736D01*
X157522264Y-108591170D01*
X157544729Y-108600475D01*
X157605145Y-108625501D01*
X157605146Y-108625501D01*
X157709289Y-108625501D01*
X157709297Y-108625500D01*
X158955143Y-108625500D01*
X158955145Y-108625501D01*
X159044855Y-108625501D01*
X159105271Y-108600475D01*
X159127736Y-108591170D01*
X159191170Y-108527736D01*
X159191170Y-108527735D01*
X159208608Y-108510297D01*
X159208610Y-108510294D01*
X159934318Y-107784585D01*
X159995639Y-107751102D01*
X160039766Y-107750709D01*
X160039903Y-107749671D01*
X160043925Y-107750200D01*
X160043927Y-107750201D01*
X160084174Y-107755500D01*
X160084180Y-107755500D01*
X160715820Y-107755500D01*
X160715826Y-107755500D01*
X160756073Y-107750201D01*
X160883240Y-107716126D01*
X160920743Y-107700592D01*
X161034757Y-107634766D01*
X161066962Y-107610054D01*
X161066969Y-107610047D01*
X161066971Y-107610046D01*
X161160046Y-107516971D01*
X161160047Y-107516969D01*
X161160054Y-107516962D01*
X161184766Y-107484757D01*
X161250592Y-107370743D01*
X161266126Y-107333240D01*
X161300201Y-107206073D01*
X161305500Y-107165826D01*
X161305500Y-106550000D01*
X161284667Y-106472250D01*
X161280442Y-106456481D01*
X161284455Y-106455405D01*
X161274875Y-106415948D01*
X161289663Y-106371066D01*
X161287094Y-106370002D01*
X161291764Y-106358726D01*
X161291767Y-106358722D01*
X161296950Y-106332666D01*
X161300500Y-106314822D01*
X161300500Y-105285177D01*
X161291768Y-105241282D01*
X161291767Y-105241281D01*
X161291767Y-105241278D01*
X161291765Y-105241275D01*
X161287094Y-105229998D01*
X161289922Y-105228826D01*
X161274756Y-105180390D01*
X161284041Y-105144483D01*
X161280442Y-105143519D01*
X161286135Y-105122271D01*
X161305500Y-105050000D01*
X161305500Y-104434174D01*
X161300201Y-104393927D01*
X161266126Y-104266760D01*
X161250592Y-104229257D01*
X161203969Y-104148504D01*
X161187497Y-104080606D01*
X161203969Y-104024508D01*
X161249910Y-103944938D01*
X161275500Y-103849435D01*
X161275500Y-103750565D01*
X161249910Y-103655062D01*
X161200475Y-103569438D01*
X161130562Y-103499525D01*
X161044938Y-103450090D01*
X160949435Y-103424500D01*
X160850565Y-103424500D01*
X160755062Y-103450090D01*
X160755060Y-103450091D01*
X160755059Y-103450091D01*
X160669436Y-103499526D01*
X160599526Y-103569436D01*
X160550091Y-103655059D01*
X160550091Y-103655060D01*
X160550090Y-103655062D01*
X160524500Y-103750565D01*
X160524500Y-103750567D01*
X160523957Y-103752594D01*
X160487592Y-103812254D01*
X160424745Y-103842783D01*
X160404182Y-103844500D01*
X160084167Y-103844500D01*
X160043933Y-103849798D01*
X160043927Y-103849799D01*
X159916752Y-103883876D01*
X159879268Y-103899402D01*
X159879257Y-103899407D01*
X159879257Y-103899408D01*
X159860468Y-103910256D01*
X159765249Y-103965230D01*
X159765240Y-103965236D01*
X159733030Y-103989952D01*
X159733029Y-103989954D01*
X159639954Y-104083029D01*
X159639952Y-104083030D01*
X159615236Y-104115240D01*
X159615230Y-104115249D01*
X159549409Y-104229254D01*
X159549402Y-104229268D01*
X159533876Y-104266752D01*
X159499799Y-104393927D01*
X159499798Y-104393933D01*
X159494500Y-104434167D01*
X159494500Y-104976231D01*
X159474815Y-105043270D01*
X159422011Y-105089025D01*
X159352853Y-105098969D01*
X159289297Y-105069944D01*
X159282819Y-105063912D01*
X159227737Y-105008830D01*
X159203457Y-104998772D01*
X159203457Y-104998771D01*
X159144858Y-104974500D01*
X159144856Y-104974499D01*
X159144855Y-104974499D01*
X159055145Y-104974499D01*
X159040711Y-104974499D01*
X159040703Y-104974500D01*
X157705899Y-104974500D01*
X157638860Y-104954815D01*
X157593105Y-104902011D01*
X157583161Y-104832853D01*
X157612186Y-104769297D01*
X157618218Y-104762819D01*
X157630947Y-104750090D01*
X157650475Y-104730562D01*
X157699910Y-104644938D01*
X157725500Y-104549435D01*
X157725500Y-104450565D01*
X157699910Y-104355062D01*
X157650475Y-104269438D01*
X157580562Y-104199525D01*
X157494938Y-104150090D01*
X157399435Y-104124500D01*
X157300565Y-104124500D01*
X157205062Y-104150090D01*
X157205060Y-104150091D01*
X157205059Y-104150091D01*
X157119436Y-104199526D01*
X157049526Y-104269436D01*
X156998121Y-104358470D01*
X156947553Y-104406685D01*
X156878946Y-104419906D01*
X156814082Y-104393937D01*
X156803054Y-104384149D01*
X156413196Y-103994291D01*
X156391170Y-103972265D01*
X156391170Y-103972264D01*
X156327736Y-103908830D01*
X156303417Y-103898757D01*
X156286787Y-103891868D01*
X156244857Y-103874499D01*
X156244855Y-103874499D01*
X156155145Y-103874499D01*
X156140711Y-103874499D01*
X156140703Y-103874500D01*
X155844768Y-103874500D01*
X155815327Y-103865855D01*
X155785341Y-103859332D01*
X155780325Y-103855577D01*
X155777729Y-103854815D01*
X155757087Y-103838181D01*
X155711819Y-103792913D01*
X155678334Y-103731590D01*
X155675500Y-103705232D01*
X155675500Y-103650567D01*
X155675500Y-103650565D01*
X155649910Y-103555062D01*
X155600475Y-103469438D01*
X155530562Y-103399525D01*
X155444938Y-103350090D01*
X155349435Y-103324500D01*
X155250565Y-103324500D01*
X155155062Y-103350090D01*
X155155060Y-103350091D01*
X155155059Y-103350091D01*
X155069436Y-103399526D01*
X154999526Y-103469436D01*
X154950091Y-103555059D01*
X154950091Y-103555060D01*
X154950090Y-103555062D01*
X154924500Y-103650565D01*
X154924500Y-103749435D01*
X154950090Y-103844938D01*
X154950091Y-103844939D01*
X154950091Y-103844940D01*
X154952686Y-103849435D01*
X154999525Y-103930562D01*
X155069438Y-104000475D01*
X155155062Y-104049910D01*
X155250565Y-104075500D01*
X155250567Y-104075500D01*
X155305232Y-104075500D01*
X155372271Y-104095185D01*
X155392913Y-104111819D01*
X155572266Y-104291172D01*
X155636365Y-104317721D01*
X155655145Y-104325500D01*
X155744854Y-104325500D01*
X156055233Y-104325500D01*
X156122272Y-104345185D01*
X156142914Y-104361819D01*
X157108829Y-105327734D01*
X157108830Y-105327736D01*
X157172264Y-105391170D01*
X157193582Y-105400000D01*
X157255145Y-105425501D01*
X157255148Y-105425501D01*
X157359289Y-105425501D01*
X157359297Y-105425500D01*
X158955233Y-105425500D01*
X159022272Y-105445185D01*
X159042914Y-105461819D01*
X159408829Y-105827734D01*
X159408830Y-105827736D01*
X159463183Y-105882089D01*
X159478284Y-105909746D01*
X159496666Y-105943410D01*
X159499500Y-105969768D01*
X159499500Y-106314820D01*
X159499500Y-106314822D01*
X159499499Y-106314822D01*
X159508231Y-106358717D01*
X159512906Y-106370002D01*
X159510077Y-106371173D01*
X159525243Y-106419616D01*
X159515966Y-106455518D01*
X159519558Y-106456481D01*
X159494500Y-106550000D01*
X159494500Y-107165832D01*
X159499798Y-107206066D01*
X159499799Y-107206073D01*
X159533085Y-107330294D01*
X159533876Y-107333247D01*
X159549402Y-107370731D01*
X159549409Y-107370746D01*
X159560743Y-107390376D01*
X159577216Y-107458276D01*
X159554363Y-107524303D01*
X159541037Y-107540057D01*
X159211681Y-107869413D01*
X159150358Y-107902898D01*
X159080666Y-107897914D01*
X159024733Y-107856042D01*
X159000316Y-107790578D01*
X159000000Y-107781732D01*
X159000000Y-107350000D01*
X158124000Y-107350000D01*
X158056961Y-107330315D01*
X158011206Y-107277511D01*
X158000000Y-107226000D01*
X158000000Y-107100000D01*
X157874000Y-107100000D01*
X157806961Y-107080315D01*
X157761206Y-107027511D01*
X157750000Y-106976000D01*
X157750000Y-106850000D01*
X158250000Y-106850000D01*
X159000000Y-106850000D01*
X159000000Y-106302172D01*
X158999999Y-106302155D01*
X158993598Y-106242627D01*
X158993596Y-106242620D01*
X158943354Y-106107913D01*
X158943350Y-106107906D01*
X158857190Y-105992812D01*
X158857187Y-105992809D01*
X158742093Y-105906649D01*
X158742086Y-105906645D01*
X158607379Y-105856403D01*
X158607372Y-105856401D01*
X158547844Y-105850000D01*
X158250000Y-105850000D01*
X158250000Y-106850000D01*
X157750000Y-106850000D01*
X157750000Y-105850000D01*
X157452155Y-105850000D01*
X157392627Y-105856401D01*
X157392620Y-105856403D01*
X157257913Y-105906645D01*
X157257906Y-105906649D01*
X157142812Y-105992809D01*
X157142809Y-105992812D01*
X157056649Y-106107907D01*
X157052574Y-106118833D01*
X157010703Y-106174767D01*
X156945239Y-106199184D01*
X156936392Y-106199500D01*
X156185178Y-106199500D01*
X156141282Y-106208231D01*
X156141279Y-106208232D01*
X156118889Y-106223193D01*
X156052211Y-106244069D01*
X155984831Y-106225583D01*
X155981111Y-106223193D01*
X155958722Y-106208233D01*
X155958721Y-106208232D01*
X155958720Y-106208232D01*
X155958717Y-106208231D01*
X155914822Y-106199500D01*
X155914820Y-106199500D01*
X154885180Y-106199500D01*
X154885178Y-106199500D01*
X154841282Y-106208231D01*
X154841275Y-106208234D01*
X154835645Y-106211996D01*
X154768967Y-106232870D01*
X154701588Y-106214382D01*
X154679079Y-106196571D01*
X154161819Y-105679311D01*
X154128334Y-105617988D01*
X154125500Y-105591630D01*
X154125500Y-105536962D01*
X154125500Y-105536960D01*
X154099910Y-105441457D01*
X154050475Y-105355833D01*
X153980562Y-105285920D01*
X153894938Y-105236485D01*
X153799435Y-105210895D01*
X153700565Y-105210895D01*
X153681590Y-105215979D01*
X153611740Y-105214314D01*
X153553879Y-105175149D01*
X153526376Y-105110920D01*
X153525500Y-105096203D01*
X153525500Y-102796551D01*
X153545185Y-102729512D01*
X153597989Y-102683757D01*
X153667147Y-102673813D01*
X153730703Y-102702838D01*
X153756886Y-102734549D01*
X153783282Y-102780269D01*
X153853195Y-102850182D01*
X153938819Y-102899617D01*
X154034322Y-102925207D01*
X154034324Y-102925207D01*
X154133189Y-102925207D01*
X154133192Y-102925207D01*
X154228695Y-102899617D01*
X154314319Y-102850182D01*
X154384232Y-102780269D01*
X154433667Y-102694645D01*
X154459257Y-102599142D01*
X154459257Y-102500272D01*
X154433667Y-102404769D01*
X154384232Y-102319145D01*
X154314319Y-102249232D01*
X154228695Y-102199797D01*
X154133192Y-102174207D01*
X154034322Y-102174207D01*
X153938819Y-102199797D01*
X153938817Y-102199798D01*
X153938816Y-102199798D01*
X153853193Y-102249233D01*
X153783282Y-102319144D01*
X153756886Y-102364863D01*
X153706319Y-102413078D01*
X153637711Y-102426300D01*
X153572847Y-102400332D01*
X153532319Y-102343417D01*
X153525500Y-102302862D01*
X153525500Y-101498671D01*
X153924500Y-101498671D01*
X153924500Y-101597541D01*
X153950090Y-101693044D01*
X153999525Y-101778668D01*
X154069438Y-101848581D01*
X154155062Y-101898016D01*
X154250565Y-101923606D01*
X154250567Y-101923606D01*
X154349432Y-101923606D01*
X154349435Y-101923606D01*
X154444938Y-101898016D01*
X154530562Y-101848581D01*
X154600475Y-101778668D01*
X154649910Y-101693044D01*
X154675500Y-101597541D01*
X154675500Y-101498671D01*
X154649910Y-101403168D01*
X154604025Y-101323693D01*
X154587552Y-101255796D01*
X154610404Y-101189769D01*
X154614005Y-101185513D01*
X154613852Y-101185395D01*
X154618798Y-101178948D01*
X154618801Y-101178945D01*
X154668236Y-101093321D01*
X154693826Y-100997818D01*
X154693826Y-100898948D01*
X154668236Y-100803445D01*
X154630004Y-100737226D01*
X154613531Y-100669328D01*
X154636383Y-100603301D01*
X154649702Y-100587554D01*
X154656754Y-100580503D01*
X154706189Y-100494879D01*
X154731779Y-100399376D01*
X154731779Y-100300506D01*
X154706189Y-100205003D01*
X154656754Y-100119379D01*
X154586841Y-100049466D01*
X154501217Y-100000031D01*
X154405714Y-99974441D01*
X154306844Y-99974441D01*
X154211341Y-100000031D01*
X154211339Y-100000032D01*
X154211338Y-100000032D01*
X154125715Y-100049467D01*
X154055805Y-100119377D01*
X154006370Y-100205000D01*
X154006370Y-100205001D01*
X154006369Y-100205003D01*
X153980779Y-100300506D01*
X153980779Y-100399376D01*
X154006369Y-100494879D01*
X154044600Y-100561098D01*
X154061073Y-100628995D01*
X154038221Y-100695022D01*
X154024898Y-100710774D01*
X154017851Y-100717820D01*
X153968417Y-100803442D01*
X153968417Y-100803443D01*
X153968416Y-100803445D01*
X153942826Y-100898948D01*
X153942826Y-100997818D01*
X153968416Y-101093321D01*
X154014301Y-101172796D01*
X154030773Y-101240692D01*
X154007921Y-101306719D01*
X154004321Y-101310977D01*
X154004474Y-101311094D01*
X153999527Y-101317540D01*
X153950091Y-101403165D01*
X153950091Y-101403166D01*
X153950090Y-101403168D01*
X153924500Y-101498671D01*
X153525500Y-101498671D01*
X153525500Y-98830468D01*
X153545185Y-98763429D01*
X153597989Y-98717674D01*
X153667147Y-98707730D01*
X153718391Y-98727366D01*
X153791867Y-98776461D01*
X153791875Y-98776466D01*
X153818692Y-98787574D01*
X153910256Y-98825501D01*
X153910260Y-98825501D01*
X153910261Y-98825502D01*
X154035928Y-98850500D01*
X154035931Y-98850500D01*
X154164071Y-98850500D01*
X154264774Y-98830468D01*
X154289744Y-98825501D01*
X154300618Y-98820997D01*
X154370087Y-98813527D01*
X154432567Y-98844801D01*
X154468220Y-98904890D01*
X154465727Y-98974715D01*
X154455459Y-98997557D01*
X154418698Y-99061228D01*
X154418698Y-99061229D01*
X154418697Y-99061231D01*
X154393107Y-99156734D01*
X154393107Y-99255604D01*
X154418697Y-99351107D01*
X154418698Y-99351108D01*
X154418698Y-99351109D01*
X154428194Y-99367556D01*
X154468132Y-99436731D01*
X154538045Y-99506644D01*
X154623669Y-99556079D01*
X154719172Y-99581669D01*
X154719174Y-99581669D01*
X154818039Y-99581669D01*
X154818042Y-99581669D01*
X154913545Y-99556079D01*
X154999169Y-99506644D01*
X155055900Y-99449912D01*
X155117219Y-99416430D01*
X155186911Y-99421414D01*
X155205573Y-99430207D01*
X155210981Y-99433329D01*
X155306484Y-99458919D01*
X155306486Y-99458919D01*
X155405351Y-99458919D01*
X155405354Y-99458919D01*
X155500857Y-99433329D01*
X155586481Y-99383894D01*
X155656394Y-99313981D01*
X155705829Y-99228357D01*
X155731419Y-99132854D01*
X155731419Y-99033984D01*
X155731419Y-99025857D01*
X155734618Y-99025857D01*
X155734938Y-99023799D01*
X155732502Y-99006853D01*
X155740201Y-98989993D01*
X155743053Y-98971678D01*
X155754414Y-98958870D01*
X155761527Y-98943297D01*
X155777120Y-98933276D01*
X155789420Y-98919411D01*
X155806193Y-98914591D01*
X155820305Y-98905523D01*
X155855240Y-98900500D01*
X155994877Y-98900500D01*
X156061916Y-98920185D01*
X156082558Y-98936819D01*
X159937636Y-102791897D01*
X160008103Y-102862364D01*
X160100172Y-102900500D01*
X160100173Y-102900500D01*
X160110317Y-102904702D01*
X160150545Y-102931582D01*
X160169438Y-102950475D01*
X160255062Y-102999910D01*
X160350565Y-103025500D01*
X160350567Y-103025500D01*
X160449432Y-103025500D01*
X160449435Y-103025500D01*
X160544938Y-102999910D01*
X160630562Y-102950475D01*
X160700475Y-102880562D01*
X160749910Y-102794938D01*
X160775500Y-102699435D01*
X160775500Y-102600565D01*
X160749910Y-102505062D01*
X160700475Y-102419438D01*
X160699404Y-102418367D01*
X160698788Y-102417240D01*
X160695526Y-102412988D01*
X160696189Y-102412479D01*
X160665919Y-102357044D01*
X160670903Y-102287352D01*
X160699404Y-102243005D01*
X160704571Y-102237838D01*
X160711847Y-102230562D01*
X160761282Y-102144938D01*
X160786872Y-102049435D01*
X160786872Y-101950565D01*
X160761282Y-101855062D01*
X160711847Y-101769438D01*
X160641934Y-101699525D01*
X160556310Y-101650090D01*
X160460807Y-101624500D01*
X160361937Y-101624500D01*
X160361935Y-101624500D01*
X160278452Y-101646869D01*
X160208603Y-101645206D01*
X160158679Y-101614775D01*
X160144469Y-101600565D01*
X165124500Y-101600565D01*
X165124500Y-101699435D01*
X165150090Y-101794938D01*
X165150091Y-101794939D01*
X165150091Y-101794940D01*
X165154756Y-101803020D01*
X165199525Y-101880562D01*
X165269438Y-101950475D01*
X165355062Y-101999910D01*
X165450565Y-102025500D01*
X165450569Y-102025500D01*
X165450834Y-102025571D01*
X165450936Y-102025557D01*
X165451157Y-102025658D01*
X165458416Y-102027603D01*
X165458088Y-102028823D01*
X165482074Y-102039777D01*
X165513368Y-102053620D01*
X165513791Y-102054262D01*
X165514492Y-102054582D01*
X165532994Y-102083373D01*
X165551841Y-102111943D01*
X165551988Y-102112928D01*
X165552266Y-102113360D01*
X165557289Y-102148295D01*
X165557289Y-102300098D01*
X165537604Y-102367137D01*
X165520971Y-102387778D01*
X165482315Y-102426434D01*
X165432880Y-102512057D01*
X165432880Y-102512058D01*
X165432879Y-102512060D01*
X165407289Y-102607563D01*
X165407289Y-102706433D01*
X165432879Y-102801936D01*
X165482314Y-102887560D01*
X165552227Y-102957473D01*
X165637851Y-103006908D01*
X165733354Y-103032498D01*
X165733356Y-103032498D01*
X165832221Y-103032498D01*
X165832224Y-103032498D01*
X165927727Y-103006908D01*
X166013351Y-102957473D01*
X166083264Y-102887560D01*
X166132699Y-102801936D01*
X166158289Y-102706433D01*
X166158289Y-102607563D01*
X166132699Y-102512060D01*
X166083264Y-102426436D01*
X166069307Y-102412479D01*
X166044607Y-102387778D01*
X166011122Y-102326455D01*
X166008289Y-102300098D01*
X166008289Y-101837935D01*
X166008287Y-101837930D01*
X165973961Y-101755055D01*
X165911819Y-101692913D01*
X165878334Y-101631590D01*
X165875500Y-101605232D01*
X165875500Y-101600567D01*
X165875500Y-101600565D01*
X165849910Y-101505062D01*
X165800475Y-101419438D01*
X165730562Y-101349525D01*
X165644938Y-101300090D01*
X165549435Y-101274500D01*
X165450565Y-101274500D01*
X165355062Y-101300090D01*
X165355060Y-101300091D01*
X165355059Y-101300091D01*
X165269436Y-101349526D01*
X165199526Y-101419436D01*
X165150091Y-101505059D01*
X165150091Y-101505060D01*
X165150090Y-101505062D01*
X165124500Y-101600565D01*
X160144469Y-101600565D01*
X159599027Y-101055123D01*
X159565542Y-100993800D01*
X159570526Y-100924108D01*
X159599025Y-100879761D01*
X159892953Y-100585837D01*
X159917280Y-100561511D01*
X159981855Y-100449663D01*
X160015282Y-100324912D01*
X160015282Y-100195762D01*
X159981855Y-100071011D01*
X159917280Y-99959163D01*
X159871618Y-99913502D01*
X159840385Y-99882269D01*
X159751532Y-99793415D01*
X159751531Y-99793414D01*
X159744464Y-99786347D01*
X159744457Y-99786341D01*
X159741104Y-99782988D01*
X159741102Y-99782986D01*
X159631898Y-99719937D01*
X159629257Y-99718412D01*
X159629256Y-99718411D01*
X159629255Y-99718411D01*
X159504505Y-99684985D01*
X159504503Y-99684984D01*
X159504502Y-99684984D01*
X159375353Y-99684984D01*
X159297855Y-99705749D01*
X159228005Y-99704085D01*
X159170143Y-99664922D01*
X159142640Y-99600693D01*
X159145987Y-99553884D01*
X159166754Y-99476384D01*
X159166754Y-99347234D01*
X159133327Y-99222483D01*
X159068752Y-99110635D01*
X159023090Y-99064974D01*
X158991857Y-99033741D01*
X158903004Y-98944887D01*
X158903003Y-98944886D01*
X158895936Y-98937819D01*
X158895929Y-98937813D01*
X158892576Y-98934460D01*
X158892574Y-98934458D01*
X158780727Y-98869883D01*
X158655977Y-98836457D01*
X158655975Y-98836456D01*
X158655974Y-98836456D01*
X158526825Y-98836456D01*
X158402079Y-98869880D01*
X158309145Y-98923535D01*
X158290229Y-98934456D01*
X158244567Y-98980117D01*
X158213334Y-99011350D01*
X157971975Y-99252709D01*
X157910652Y-99286194D01*
X157840960Y-99281210D01*
X157796613Y-99252709D01*
X157566254Y-99022350D01*
X157532769Y-98961027D01*
X157537753Y-98891335D01*
X157579625Y-98835402D01*
X157591926Y-98827287D01*
X157608945Y-98817462D01*
X157678858Y-98747549D01*
X157728293Y-98661925D01*
X157753883Y-98566422D01*
X157753883Y-98467552D01*
X157728293Y-98372049D01*
X157678858Y-98286425D01*
X157608945Y-98216512D01*
X157523321Y-98167077D01*
X157427818Y-98141487D01*
X157427815Y-98141487D01*
X157419967Y-98139384D01*
X157420697Y-98136657D01*
X157369324Y-98113921D01*
X157330862Y-98055590D01*
X157329364Y-98048699D01*
X157329299Y-98048717D01*
X157327196Y-98040868D01*
X157327196Y-98040866D01*
X157301606Y-97945363D01*
X157252171Y-97859739D01*
X157182258Y-97789826D01*
X157096634Y-97740391D01*
X157001131Y-97714801D01*
X156902261Y-97714801D01*
X156806758Y-97740391D01*
X156806756Y-97740392D01*
X156806755Y-97740392D01*
X156721132Y-97789827D01*
X156686871Y-97824088D01*
X156625548Y-97857573D01*
X156555856Y-97852587D01*
X156499923Y-97810715D01*
X156477573Y-97760596D01*
X156475500Y-97750175D01*
X156475500Y-97750172D01*
X156437364Y-97658103D01*
X156366897Y-97587636D01*
X155181431Y-96402170D01*
X155171190Y-96397928D01*
X155089363Y-96364034D01*
X155089362Y-96364034D01*
X155020306Y-96364034D01*
X154953267Y-96344349D01*
X154932625Y-96327715D01*
X154918970Y-96314060D01*
X154918969Y-96314059D01*
X154833345Y-96264624D01*
X154737842Y-96239034D01*
X154638972Y-96239034D01*
X154543469Y-96264624D01*
X154543468Y-96264624D01*
X154535849Y-96266666D01*
X154466000Y-96265003D01*
X154408137Y-96225840D01*
X154380633Y-96161612D01*
X154379756Y-96146891D01*
X154379756Y-95624149D01*
X154379755Y-95624146D01*
X154368000Y-95595766D01*
X154341620Y-95532079D01*
X154311819Y-95502278D01*
X154278334Y-95440955D01*
X154275500Y-95414597D01*
X154275500Y-95403898D01*
X154295185Y-95336859D01*
X154347989Y-95291104D01*
X154417147Y-95281160D01*
X154480703Y-95310185D01*
X154497878Y-95328415D01*
X154499524Y-95330560D01*
X154499525Y-95330562D01*
X154569438Y-95400475D01*
X154655062Y-95449910D01*
X154750565Y-95475500D01*
X154750567Y-95475500D01*
X154849432Y-95475500D01*
X154849435Y-95475500D01*
X154944938Y-95449910D01*
X155030562Y-95400475D01*
X155100475Y-95330562D01*
X155140925Y-95260499D01*
X155191491Y-95212285D01*
X155260098Y-95199062D01*
X155324963Y-95225030D01*
X155335990Y-95234818D01*
X155668161Y-95566990D01*
X155992341Y-95891170D01*
X155992343Y-95891172D01*
X156056442Y-95917721D01*
X156075222Y-95925500D01*
X156164931Y-95925500D01*
X156204695Y-95925500D01*
X156271734Y-95945185D01*
X156317489Y-95997989D01*
X156327433Y-96067147D01*
X156298408Y-96130703D01*
X156239630Y-96168477D01*
X156236788Y-96169275D01*
X156235038Y-96169744D01*
X156235036Y-96169744D01*
X156141813Y-96194723D01*
X156139533Y-96195334D01*
X156139530Y-96195335D01*
X156053907Y-96244770D01*
X155983997Y-96314680D01*
X155934562Y-96400303D01*
X155934562Y-96400304D01*
X155934561Y-96400306D01*
X155908971Y-96495809D01*
X155908971Y-96594679D01*
X155934561Y-96690182D01*
X155934562Y-96690183D01*
X155934562Y-96690184D01*
X155945327Y-96708830D01*
X155983996Y-96775806D01*
X156053909Y-96845719D01*
X156139533Y-96895154D01*
X156235036Y-96920744D01*
X156235038Y-96920744D01*
X156333903Y-96920744D01*
X156333906Y-96920744D01*
X156429409Y-96895154D01*
X156515033Y-96845719D01*
X156584946Y-96775806D01*
X156634381Y-96690182D01*
X156659971Y-96594679D01*
X156659971Y-96495809D01*
X156654753Y-96476335D01*
X156656414Y-96406488D01*
X156695576Y-96348625D01*
X156759803Y-96321119D01*
X156804141Y-96325021D01*
X156804282Y-96324313D01*
X156935928Y-96350500D01*
X156935931Y-96350500D01*
X157064071Y-96350500D01*
X157151135Y-96333181D01*
X157189744Y-96325501D01*
X157259196Y-96296732D01*
X157328664Y-96289264D01*
X157391144Y-96320539D01*
X157426796Y-96380628D01*
X157426424Y-96443382D01*
X157424500Y-96450560D01*
X157424500Y-96450565D01*
X157424500Y-96549435D01*
X157450090Y-96644938D01*
X157499525Y-96730562D01*
X157569438Y-96800475D01*
X157655062Y-96849910D01*
X157750565Y-96875500D01*
X157750567Y-96875500D01*
X157849432Y-96875500D01*
X157849435Y-96875500D01*
X157944938Y-96849910D01*
X158030562Y-96800475D01*
X158100475Y-96730562D01*
X158149910Y-96644938D01*
X158175500Y-96549435D01*
X158175500Y-96450565D01*
X158149910Y-96355062D01*
X158100475Y-96269438D01*
X158030562Y-96199525D01*
X157944938Y-96150090D01*
X157849435Y-96124500D01*
X157750565Y-96124500D01*
X157750560Y-96124500D01*
X157743382Y-96126424D01*
X157737448Y-96126282D01*
X157732113Y-96128888D01*
X157702915Y-96125458D01*
X157673532Y-96124758D01*
X157668616Y-96121430D01*
X157662720Y-96120738D01*
X157640010Y-96102067D01*
X157615672Y-96085593D01*
X157613335Y-96080137D01*
X157608749Y-96076366D01*
X157599740Y-96048385D01*
X157588170Y-96021364D01*
X157588685Y-96014050D01*
X157587336Y-96009859D01*
X157589989Y-95995552D01*
X157591452Y-95974806D01*
X157593572Y-95966827D01*
X157625501Y-95889744D01*
X157650500Y-95764069D01*
X157650500Y-95752573D01*
X157654658Y-95736925D01*
X157664720Y-95720338D01*
X157670185Y-95701728D01*
X157682466Y-95691085D01*
X157690898Y-95677188D01*
X157708330Y-95668674D01*
X157722989Y-95655973D01*
X157739075Y-95653660D01*
X157753681Y-95646527D01*
X157772946Y-95648789D01*
X157792147Y-95646029D01*
X157806932Y-95652781D01*
X157823074Y-95654677D01*
X157838057Y-95666995D01*
X157855703Y-95675054D01*
X157862170Y-95681076D01*
X158283781Y-96102686D01*
X158283780Y-96102686D01*
X158550137Y-96369042D01*
X158583622Y-96430365D01*
X158578638Y-96500056D01*
X158577019Y-96504171D01*
X158574500Y-96510252D01*
X158574497Y-96510261D01*
X158549500Y-96635928D01*
X158549500Y-96635931D01*
X158549500Y-96764069D01*
X158549500Y-96764071D01*
X158549499Y-96764071D01*
X158574497Y-96889738D01*
X158574499Y-96889744D01*
X158623533Y-97008124D01*
X158623538Y-97008133D01*
X158694723Y-97114668D01*
X158694726Y-97114672D01*
X158785327Y-97205273D01*
X158785331Y-97205276D01*
X158891866Y-97276461D01*
X158891875Y-97276466D01*
X158914064Y-97285657D01*
X159010256Y-97325501D01*
X159010260Y-97325501D01*
X159010261Y-97325502D01*
X159135928Y-97350500D01*
X159135931Y-97350500D01*
X159264071Y-97350500D01*
X159349305Y-97333545D01*
X159389744Y-97325501D01*
X159508127Y-97276465D01*
X159614669Y-97205276D01*
X159705276Y-97114669D01*
X159776465Y-97008127D01*
X159825501Y-96889744D01*
X159834732Y-96843340D01*
X159850500Y-96764071D01*
X159850500Y-96635928D01*
X159825502Y-96510261D01*
X159825501Y-96510260D01*
X159825501Y-96510256D01*
X159776465Y-96391873D01*
X159776464Y-96391872D01*
X159776461Y-96391866D01*
X159705276Y-96285331D01*
X159705273Y-96285327D01*
X159614672Y-96194726D01*
X159614668Y-96194723D01*
X159508133Y-96123538D01*
X159508124Y-96123533D01*
X159389744Y-96074499D01*
X159389738Y-96074497D01*
X159264071Y-96049500D01*
X159264069Y-96049500D01*
X159135931Y-96049500D01*
X159135929Y-96049500D01*
X159010261Y-96074497D01*
X159010252Y-96074500D01*
X159004171Y-96077019D01*
X158934701Y-96084485D01*
X158872223Y-96053207D01*
X158869042Y-96050137D01*
X157608610Y-94789705D01*
X157591170Y-94772264D01*
X157527736Y-94708830D01*
X157527735Y-94708829D01*
X157503457Y-94698772D01*
X157503457Y-94698771D01*
X157444858Y-94674500D01*
X157444856Y-94674499D01*
X157444855Y-94674499D01*
X157355145Y-94674499D01*
X157340711Y-94674499D01*
X157340703Y-94674500D01*
X157176794Y-94674500D01*
X157109755Y-94654815D01*
X157064000Y-94602011D01*
X157054056Y-94532853D01*
X157057019Y-94518407D01*
X157061824Y-94500473D01*
X157075500Y-94449435D01*
X157075500Y-94350565D01*
X157057019Y-94281593D01*
X157058682Y-94211743D01*
X157097845Y-94153881D01*
X157162073Y-94126377D01*
X157176794Y-94125500D01*
X157955233Y-94125500D01*
X157984673Y-94134144D01*
X158014660Y-94140668D01*
X158019675Y-94144422D01*
X158022272Y-94145185D01*
X158042914Y-94161819D01*
X158150137Y-94269042D01*
X158183622Y-94330365D01*
X158178638Y-94400057D01*
X158177019Y-94404171D01*
X158174500Y-94410252D01*
X158174497Y-94410261D01*
X158149500Y-94535928D01*
X158149500Y-94535931D01*
X158149500Y-94664069D01*
X158149500Y-94664071D01*
X158149499Y-94664071D01*
X158174497Y-94789738D01*
X158174499Y-94789744D01*
X158223533Y-94908124D01*
X158223538Y-94908133D01*
X158294723Y-95014668D01*
X158294726Y-95014672D01*
X158385327Y-95105273D01*
X158385331Y-95105276D01*
X158491866Y-95176461D01*
X158491872Y-95176464D01*
X158491873Y-95176465D01*
X158610256Y-95225501D01*
X158610260Y-95225501D01*
X158610261Y-95225502D01*
X158735928Y-95250500D01*
X158735931Y-95250500D01*
X158864071Y-95250500D01*
X158948615Y-95233682D01*
X158989744Y-95225501D01*
X159108127Y-95176465D01*
X159214669Y-95105276D01*
X159269380Y-95050565D01*
X161124500Y-95050565D01*
X161124500Y-95149435D01*
X161150090Y-95244938D01*
X161199525Y-95330562D01*
X161269438Y-95400475D01*
X161355062Y-95449910D01*
X161450565Y-95475500D01*
X161450567Y-95475500D01*
X161549432Y-95475500D01*
X161549435Y-95475500D01*
X161644938Y-95449910D01*
X161730562Y-95400475D01*
X161800475Y-95330562D01*
X161849910Y-95244938D01*
X161875500Y-95149435D01*
X161875500Y-95050565D01*
X161849910Y-94955062D01*
X161800475Y-94869438D01*
X161730562Y-94799525D01*
X161644938Y-94750090D01*
X161549435Y-94724500D01*
X161450565Y-94724500D01*
X161355062Y-94750090D01*
X161355060Y-94750091D01*
X161355059Y-94750091D01*
X161269436Y-94799526D01*
X161199526Y-94869436D01*
X161150091Y-94955059D01*
X161150091Y-94955060D01*
X161150090Y-94955062D01*
X161124500Y-95050565D01*
X159269380Y-95050565D01*
X159305276Y-95014669D01*
X159313075Y-95002996D01*
X159332753Y-94973548D01*
X159332753Y-94973547D01*
X159376461Y-94908133D01*
X159376461Y-94908132D01*
X159376465Y-94908127D01*
X159425501Y-94789744D01*
X159441596Y-94708830D01*
X159450500Y-94664071D01*
X159450500Y-94535928D01*
X159425502Y-94410261D01*
X159425501Y-94410260D01*
X159425501Y-94410256D01*
X159387574Y-94318692D01*
X159376466Y-94291875D01*
X159376461Y-94291866D01*
X159305276Y-94185331D01*
X159305273Y-94185327D01*
X159214672Y-94094726D01*
X159214668Y-94094723D01*
X159108133Y-94023538D01*
X159108124Y-94023533D01*
X158989744Y-93974499D01*
X158989738Y-93974497D01*
X158864071Y-93949500D01*
X158864069Y-93949500D01*
X158735931Y-93949500D01*
X158735929Y-93949500D01*
X158610261Y-93974497D01*
X158610252Y-93974500D01*
X158604171Y-93977019D01*
X158584296Y-93979154D01*
X158565569Y-93986140D01*
X158550269Y-93982811D01*
X158534701Y-93984485D01*
X158516826Y-93975536D01*
X158497296Y-93971288D01*
X158475000Y-93954597D01*
X158472223Y-93953207D01*
X158469042Y-93950137D01*
X158308610Y-93789705D01*
X158291170Y-93772264D01*
X158227736Y-93708830D01*
X158227735Y-93708829D01*
X158203457Y-93698772D01*
X158203457Y-93698771D01*
X158144858Y-93674500D01*
X158144856Y-93674499D01*
X158144855Y-93674499D01*
X158055145Y-93674499D01*
X158040711Y-93674499D01*
X158040703Y-93674500D01*
X156528373Y-93674500D01*
X156498932Y-93665855D01*
X156468946Y-93659332D01*
X156463930Y-93655577D01*
X156461334Y-93654815D01*
X156440692Y-93638181D01*
X156411819Y-93609308D01*
X156378334Y-93547985D01*
X156375500Y-93521627D01*
X156375500Y-93466962D01*
X156375500Y-93466960D01*
X156349910Y-93371457D01*
X156300475Y-93285833D01*
X156230562Y-93215920D01*
X156144938Y-93166485D01*
X156049435Y-93140895D01*
X155950565Y-93140895D01*
X155855062Y-93166485D01*
X155855060Y-93166486D01*
X155855059Y-93166486D01*
X155769436Y-93215921D01*
X155699526Y-93285831D01*
X155650091Y-93371454D01*
X155650091Y-93371455D01*
X155650090Y-93371457D01*
X155624500Y-93466960D01*
X155624500Y-93565830D01*
X155650090Y-93661333D01*
X155677512Y-93708830D01*
X155699526Y-93746958D01*
X155723084Y-93770516D01*
X155756569Y-93831839D01*
X155751585Y-93901531D01*
X155723086Y-93945877D01*
X155699525Y-93969438D01*
X155650091Y-94055059D01*
X155650091Y-94055060D01*
X155650090Y-94055062D01*
X155624500Y-94150565D01*
X155624500Y-94249435D01*
X155650090Y-94344938D01*
X155699525Y-94430562D01*
X155769438Y-94500475D01*
X155855062Y-94549910D01*
X155876988Y-94555785D01*
X155932577Y-94587879D01*
X156372432Y-95027734D01*
X156372433Y-95027736D01*
X156435867Y-95091170D01*
X156444655Y-95094810D01*
X156462137Y-95102051D01*
X156476919Y-95114568D01*
X156485912Y-95128218D01*
X156498644Y-95138477D01*
X156504741Y-95156794D01*
X156515361Y-95172912D01*
X156515547Y-95189258D01*
X156520711Y-95204771D01*
X156515937Y-95223473D01*
X156516158Y-95242777D01*
X156507475Y-95256631D01*
X156503433Y-95272471D01*
X156498014Y-95280203D01*
X156498108Y-95280266D01*
X156423538Y-95391866D01*
X156423533Y-95391875D01*
X156421015Y-95397956D01*
X156408471Y-95413519D01*
X156400168Y-95431703D01*
X156386995Y-95440168D01*
X156377172Y-95452358D01*
X156358206Y-95458669D01*
X156341390Y-95469477D01*
X156313822Y-95473440D01*
X156310877Y-95474421D01*
X156306455Y-95474500D01*
X156264845Y-95474500D01*
X156197806Y-95454815D01*
X156177164Y-95438181D01*
X155094869Y-94355886D01*
X155061384Y-94294563D01*
X155066368Y-94224871D01*
X155108240Y-94168938D01*
X155138032Y-94154471D01*
X155137431Y-94153019D01*
X155144929Y-94149912D01*
X155144938Y-94149910D01*
X155230562Y-94100475D01*
X155300475Y-94030562D01*
X155349910Y-93944938D01*
X155375500Y-93849435D01*
X155375500Y-93750565D01*
X155349910Y-93655062D01*
X155300475Y-93569438D01*
X155230562Y-93499525D01*
X155200012Y-93481886D01*
X155151797Y-93431321D01*
X155138575Y-93362714D01*
X155164543Y-93297849D01*
X155221457Y-93257321D01*
X155230389Y-93254601D01*
X155245934Y-93250501D01*
X155291219Y-93250501D01*
X155362852Y-93220829D01*
X155374100Y-93216170D01*
X155437534Y-93152736D01*
X155437534Y-93152735D01*
X155454972Y-93135297D01*
X155454974Y-93135294D01*
X156220923Y-92369345D01*
X156282246Y-92335860D01*
X156308604Y-92333026D01*
X156363270Y-92333026D01*
X156363273Y-92333026D01*
X156458776Y-92307436D01*
X156544400Y-92258001D01*
X156614313Y-92188088D01*
X156663748Y-92102464D01*
X156689338Y-92006961D01*
X156689338Y-91908091D01*
X156684254Y-91889117D01*
X156684849Y-91864124D01*
X156681291Y-91839379D01*
X156685666Y-91829798D01*
X156685917Y-91819270D01*
X156699929Y-91798565D01*
X156710316Y-91775823D01*
X156719175Y-91770129D01*
X156725079Y-91761407D01*
X156748062Y-91751565D01*
X156769094Y-91738049D01*
X156784949Y-91735769D01*
X156789308Y-91733903D01*
X156804029Y-91733026D01*
X156862759Y-91733026D01*
X156929798Y-91752711D01*
X156950440Y-91769345D01*
X156988181Y-91807086D01*
X157021666Y-91868409D01*
X157024500Y-91894767D01*
X157024500Y-91949435D01*
X157050090Y-92044938D01*
X157050091Y-92044939D01*
X157050091Y-92044940D01*
X157060120Y-92062311D01*
X157099525Y-92130562D01*
X157169438Y-92200475D01*
X157255062Y-92249910D01*
X157350565Y-92275500D01*
X157350567Y-92275500D01*
X157449432Y-92275500D01*
X157449435Y-92275500D01*
X157544938Y-92249910D01*
X157630562Y-92200475D01*
X157700475Y-92130562D01*
X157749910Y-92044938D01*
X157775500Y-91949435D01*
X157775500Y-91850565D01*
X157749910Y-91755062D01*
X157700475Y-91669438D01*
X157630562Y-91599525D01*
X157544938Y-91550090D01*
X157449435Y-91524500D01*
X157394767Y-91524500D01*
X157365326Y-91515855D01*
X157335340Y-91509332D01*
X157330324Y-91505577D01*
X157327728Y-91504815D01*
X157307086Y-91488181D01*
X157216136Y-91397231D01*
X157198696Y-91379790D01*
X157135262Y-91316356D01*
X157135261Y-91316355D01*
X157128123Y-91309217D01*
X157094639Y-91247893D01*
X157099623Y-91178202D01*
X157141495Y-91122268D01*
X157177266Y-91106316D01*
X157176840Y-91105287D01*
X157188123Y-91100613D01*
X157188125Y-91100613D01*
X157246730Y-91076337D01*
X157271006Y-91066282D01*
X157334440Y-91002848D01*
X157334440Y-91002847D01*
X157351878Y-90985409D01*
X157351880Y-90985406D01*
X157534717Y-90802569D01*
X157534719Y-90802569D01*
X157598153Y-90739135D01*
X157612373Y-90704804D01*
X157632484Y-90656253D01*
X157632484Y-90566544D01*
X157632484Y-90556555D01*
X157632483Y-90556541D01*
X157632483Y-90049179D01*
X157652168Y-89982140D01*
X157668802Y-89961498D01*
X157930775Y-89699526D01*
X158214831Y-89415470D01*
X158214831Y-89415469D01*
X158215876Y-89414425D01*
X158241558Y-89394718D01*
X158254223Y-89387407D01*
X158324136Y-89317494D01*
X158373571Y-89231870D01*
X158399161Y-89136367D01*
X158399161Y-89037497D01*
X158373571Y-88941994D01*
X158324136Y-88856370D01*
X158254223Y-88786457D01*
X158168599Y-88737022D01*
X158073096Y-88711432D01*
X157974226Y-88711432D01*
X157878723Y-88737022D01*
X157878721Y-88737023D01*
X157878720Y-88737023D01*
X157793097Y-88786458D01*
X157776209Y-88803346D01*
X157714885Y-88836830D01*
X157645194Y-88831844D01*
X157643983Y-88831385D01*
X157634932Y-88827900D01*
X157571030Y-88791007D01*
X157475527Y-88765417D01*
X157472615Y-88765417D01*
X157459826Y-88760494D01*
X157443111Y-88747706D01*
X157416692Y-88732453D01*
X157211835Y-88527596D01*
X157211833Y-88527593D01*
X157130960Y-88446720D01*
X157084619Y-88427525D01*
X160949500Y-88427525D01*
X160949500Y-88572475D01*
X160981465Y-88691768D01*
X160987017Y-88712488D01*
X161059488Y-88838011D01*
X161059490Y-88838013D01*
X161059491Y-88838015D01*
X161161985Y-88940509D01*
X161161986Y-88940510D01*
X161161988Y-88940511D01*
X161287511Y-89012982D01*
X161287512Y-89012982D01*
X161287515Y-89012984D01*
X161427525Y-89050500D01*
X161427528Y-89050500D01*
X161572472Y-89050500D01*
X161572475Y-89050500D01*
X161712485Y-89012984D01*
X161838015Y-88940509D01*
X161940509Y-88838015D01*
X162012984Y-88712485D01*
X162050500Y-88572475D01*
X162050500Y-88427525D01*
X162012984Y-88287515D01*
X161982064Y-88233961D01*
X161940511Y-88161988D01*
X161940506Y-88161982D01*
X161838017Y-88059493D01*
X161838011Y-88059488D01*
X161712488Y-87987017D01*
X161712489Y-87987017D01*
X161701006Y-87983940D01*
X161572475Y-87949500D01*
X161427525Y-87949500D01*
X161298993Y-87983940D01*
X161287511Y-87987017D01*
X161161988Y-88059488D01*
X161161982Y-88059493D01*
X161059493Y-88161982D01*
X161059488Y-88161988D01*
X160987017Y-88287511D01*
X160987016Y-88287515D01*
X160949500Y-88427525D01*
X157084619Y-88427525D01*
X157084619Y-88427524D01*
X157084617Y-88427524D01*
X157048079Y-88412389D01*
X156958369Y-88412389D01*
X156943935Y-88412389D01*
X156943927Y-88412390D01*
X152705380Y-88412390D01*
X152638341Y-88392705D01*
X152592586Y-88339901D01*
X152585607Y-88320490D01*
X152574810Y-88280193D01*
X152525375Y-88194569D01*
X152455462Y-88124656D01*
X152455459Y-88124654D01*
X152452491Y-88122377D01*
X152450617Y-88119811D01*
X152449715Y-88118909D01*
X152449855Y-88118768D01*
X152411287Y-88065950D01*
X152407132Y-87996204D01*
X152441343Y-87935283D01*
X152503060Y-87902529D01*
X152527976Y-87900000D01*
X154875000Y-87900000D01*
X154875000Y-86850565D01*
X158824500Y-86850565D01*
X158824500Y-86949435D01*
X158850090Y-87044938D01*
X158850091Y-87044939D01*
X158850091Y-87044940D01*
X158853065Y-87050091D01*
X158899525Y-87130562D01*
X158969438Y-87200475D01*
X159055062Y-87249910D01*
X159150565Y-87275500D01*
X159150567Y-87275500D01*
X159249432Y-87275500D01*
X159249435Y-87275500D01*
X159344938Y-87249910D01*
X159430562Y-87200475D01*
X159500475Y-87130562D01*
X159549910Y-87044938D01*
X159575500Y-86949435D01*
X159575500Y-86850565D01*
X159549910Y-86755062D01*
X159500475Y-86669438D01*
X159430562Y-86599525D01*
X159344938Y-86550090D01*
X159249435Y-86524500D01*
X159150565Y-86524500D01*
X159055062Y-86550090D01*
X159055060Y-86550091D01*
X159055059Y-86550091D01*
X158969436Y-86599526D01*
X158899526Y-86669436D01*
X158850091Y-86755059D01*
X158850091Y-86755060D01*
X158850090Y-86755062D01*
X158824500Y-86850565D01*
X154875000Y-86850565D01*
X154875000Y-84978821D01*
X154894685Y-84911782D01*
X154947489Y-84866027D01*
X155016175Y-84856016D01*
X155570381Y-84933532D01*
G37*
%TD.AperFunction*%
%TA.AperFunction,Conductor*%
G36*
X147241505Y-85638154D02*
G01*
X147272964Y-85700541D01*
X147275000Y-85722918D01*
X147275000Y-87900000D01*
X151921824Y-87900000D01*
X151944267Y-87906590D01*
X151967564Y-87908744D01*
X151977169Y-87916251D01*
X151988863Y-87919685D01*
X152004180Y-87937362D01*
X152022615Y-87951770D01*
X152026636Y-87963278D01*
X152034618Y-87972489D01*
X152037947Y-87995642D01*
X152045665Y-88017727D01*
X152042827Y-88029580D01*
X152044562Y-88041647D01*
X152034843Y-88062927D01*
X152029397Y-88085677D01*
X152019049Y-88097511D01*
X152015537Y-88105203D01*
X152007663Y-88113485D01*
X151998556Y-88122220D01*
X151994338Y-88124656D01*
X151954796Y-88164197D01*
X151953839Y-88165116D01*
X151923950Y-88180638D01*
X151894357Y-88196798D01*
X151892439Y-88197004D01*
X151891833Y-88197319D01*
X151890584Y-88197203D01*
X151868000Y-88199631D01*
X148270563Y-88199631D01*
X148270555Y-88199630D01*
X148256121Y-88199630D01*
X148166412Y-88199630D01*
X148166411Y-88199630D01*
X148166407Y-88199631D01*
X148134698Y-88212766D01*
X148134697Y-88212767D01*
X148083529Y-88233961D01*
X148083528Y-88233962D01*
X148020095Y-88297396D01*
X147436283Y-88881207D01*
X147374960Y-88914692D01*
X147305268Y-88909708D01*
X147249335Y-88867836D01*
X147226984Y-88817712D01*
X147225502Y-88810260D01*
X147225501Y-88810258D01*
X147225501Y-88810256D01*
X147176465Y-88691873D01*
X147176464Y-88691872D01*
X147176461Y-88691866D01*
X147105276Y-88585331D01*
X147105273Y-88585327D01*
X147014672Y-88494726D01*
X147014668Y-88494723D01*
X146908133Y-88423538D01*
X146908124Y-88423533D01*
X146789744Y-88374499D01*
X146789738Y-88374497D01*
X146664071Y-88349500D01*
X146664069Y-88349500D01*
X146535931Y-88349500D01*
X146535929Y-88349500D01*
X146410261Y-88374497D01*
X146410255Y-88374499D01*
X146291875Y-88423533D01*
X146291866Y-88423538D01*
X146185331Y-88494723D01*
X146185327Y-88494726D01*
X146094726Y-88585327D01*
X146094723Y-88585331D01*
X146023538Y-88691866D01*
X146023533Y-88691875D01*
X145974499Y-88810255D01*
X145974497Y-88810261D01*
X145949500Y-88935928D01*
X145949500Y-88935931D01*
X145949500Y-89064069D01*
X145949500Y-89064071D01*
X145949499Y-89064071D01*
X145974497Y-89189738D01*
X145974499Y-89189744D01*
X146023533Y-89308124D01*
X146023538Y-89308133D01*
X146094723Y-89414668D01*
X146094726Y-89414672D01*
X146185327Y-89505273D01*
X146185331Y-89505276D01*
X146291866Y-89576461D01*
X146291872Y-89576464D01*
X146291873Y-89576465D01*
X146410256Y-89625501D01*
X146417713Y-89626984D01*
X146479624Y-89659365D01*
X146514202Y-89720079D01*
X146510466Y-89789848D01*
X146481208Y-89836283D01*
X142105363Y-94212128D01*
X142044040Y-94245613D01*
X141974348Y-94240629D01*
X141918415Y-94198757D01*
X141910296Y-94186449D01*
X141900475Y-94169438D01*
X141830562Y-94099525D01*
X141744938Y-94050090D01*
X141649435Y-94024500D01*
X141550565Y-94024500D01*
X141455062Y-94050090D01*
X141455060Y-94050091D01*
X141455059Y-94050091D01*
X141369436Y-94099526D01*
X141299526Y-94169436D01*
X141250091Y-94255059D01*
X141250091Y-94255060D01*
X141250090Y-94255062D01*
X141224500Y-94350565D01*
X141224500Y-94350567D01*
X141224500Y-94405192D01*
X141204815Y-94472231D01*
X141152011Y-94517986D01*
X141082853Y-94527930D01*
X141019297Y-94498905D01*
X141015827Y-94495674D01*
X141014668Y-94494723D01*
X140908133Y-94423538D01*
X140908124Y-94423533D01*
X140789744Y-94374499D01*
X140789738Y-94374497D01*
X140664071Y-94349500D01*
X140664069Y-94349500D01*
X140535931Y-94349500D01*
X140535929Y-94349500D01*
X140410261Y-94374497D01*
X140410255Y-94374499D01*
X140291875Y-94423533D01*
X140291866Y-94423538D01*
X140185331Y-94494723D01*
X140185329Y-94494725D01*
X140094726Y-94585327D01*
X140094723Y-94585331D01*
X140023538Y-94691866D01*
X140023533Y-94691875D01*
X139974499Y-94810255D01*
X139974497Y-94810261D01*
X139949500Y-94935928D01*
X139949500Y-94935931D01*
X139949500Y-95064069D01*
X139949500Y-95064071D01*
X139949499Y-95064071D01*
X139974497Y-95189738D01*
X139974499Y-95189744D01*
X140023533Y-95308124D01*
X140023538Y-95308133D01*
X140094723Y-95414668D01*
X140094726Y-95414672D01*
X140185327Y-95505273D01*
X140185331Y-95505276D01*
X140291866Y-95576461D01*
X140291872Y-95576464D01*
X140291873Y-95576465D01*
X140410256Y-95625501D01*
X140410258Y-95625501D01*
X140410260Y-95625502D01*
X140414794Y-95626403D01*
X140417712Y-95626984D01*
X140479625Y-95659366D01*
X140514201Y-95720080D01*
X140510464Y-95789850D01*
X140481207Y-95836283D01*
X139561113Y-96756380D01*
X139499790Y-96789865D01*
X139473432Y-96792699D01*
X139049589Y-96792699D01*
X139049587Y-96792699D01*
X139049585Y-96792700D01*
X138966710Y-96827026D01*
X138966708Y-96827028D01*
X138903273Y-96890464D01*
X135795402Y-99998334D01*
X135734079Y-100031819D01*
X135664387Y-100026835D01*
X135608454Y-99984963D01*
X135600340Y-99972663D01*
X135590515Y-99955644D01*
X135520602Y-99885731D01*
X135434978Y-99836296D01*
X135339475Y-99810706D01*
X135240605Y-99810706D01*
X135145102Y-99836296D01*
X135145100Y-99836297D01*
X135145099Y-99836297D01*
X135059476Y-99885732D01*
X134989566Y-99955642D01*
X134940131Y-100041265D01*
X134940131Y-100041266D01*
X134940130Y-100041268D01*
X134914540Y-100136771D01*
X134914540Y-100235641D01*
X134940130Y-100331144D01*
X134973245Y-100388502D01*
X134989718Y-100456399D01*
X134966866Y-100522426D01*
X134911945Y-100565617D01*
X134865858Y-100574500D01*
X134720590Y-100574500D01*
X134630881Y-100574500D01*
X134630879Y-100574500D01*
X134630877Y-100574501D01*
X134548002Y-100608827D01*
X134548000Y-100608829D01*
X134307688Y-100849142D01*
X134072265Y-101084565D01*
X134072264Y-101084566D01*
X134044048Y-101112782D01*
X134008829Y-101148000D01*
X134005197Y-101156768D01*
X134005198Y-101156769D01*
X133974499Y-101230880D01*
X133974499Y-101335024D01*
X133974500Y-101335033D01*
X133974500Y-102614662D01*
X133974499Y-102614665D01*
X133974499Y-102704375D01*
X133993643Y-102750592D01*
X133999506Y-102764747D01*
X133999507Y-102764750D01*
X134008829Y-102787255D01*
X134008830Y-102787256D01*
X134072264Y-102850690D01*
X134072265Y-102850690D01*
X134089705Y-102868130D01*
X134355909Y-103134334D01*
X134360247Y-103142279D01*
X134367495Y-103147705D01*
X134376729Y-103172464D01*
X134389394Y-103195657D01*
X134388748Y-103204686D01*
X134391912Y-103213169D01*
X134386295Y-103238989D01*
X134384410Y-103265349D01*
X134378591Y-103274402D01*
X134377060Y-103281442D01*
X134355909Y-103309696D01*
X134190715Y-103474890D01*
X134129392Y-103508375D01*
X134059700Y-103503391D01*
X134055597Y-103501776D01*
X133989744Y-103474499D01*
X133989738Y-103474497D01*
X133864071Y-103449500D01*
X133864069Y-103449500D01*
X133735931Y-103449500D01*
X133735929Y-103449500D01*
X133610261Y-103474497D01*
X133610255Y-103474499D01*
X133491875Y-103523533D01*
X133491866Y-103523538D01*
X133385331Y-103594723D01*
X133385327Y-103594726D01*
X133294726Y-103685327D01*
X133294723Y-103685331D01*
X133223538Y-103791866D01*
X133223533Y-103791875D01*
X133174499Y-103910255D01*
X133174497Y-103910261D01*
X133149500Y-104035928D01*
X133149500Y-104164070D01*
X133174497Y-104289738D01*
X133174499Y-104289744D01*
X133223533Y-104408124D01*
X133223538Y-104408133D01*
X133294723Y-104514668D01*
X133294726Y-104514672D01*
X133385327Y-104605273D01*
X133385331Y-104605276D01*
X133491866Y-104676461D01*
X133491872Y-104676464D01*
X133491873Y-104676465D01*
X133610256Y-104725501D01*
X133610260Y-104725501D01*
X133610261Y-104725502D01*
X133735928Y-104750500D01*
X133735931Y-104750500D01*
X133864071Y-104750500D01*
X133964301Y-104730562D01*
X133989744Y-104725501D01*
X134108127Y-104676465D01*
X134214669Y-104605276D01*
X134305276Y-104514669D01*
X134376465Y-104408127D01*
X134425501Y-104289744D01*
X134450500Y-104164069D01*
X134450500Y-104035931D01*
X134450500Y-104035928D01*
X134433066Y-103948286D01*
X134439293Y-103878695D01*
X134467000Y-103836415D01*
X135019990Y-103283426D01*
X135019992Y-103283426D01*
X135065692Y-103237725D01*
X135117882Y-103209229D01*
X135127009Y-103204245D01*
X135127010Y-103204245D01*
X135127012Y-103204244D01*
X135167872Y-103207167D01*
X135196701Y-103209229D01*
X135196702Y-103209229D01*
X135196703Y-103209230D01*
X135212605Y-103221135D01*
X135252635Y-103251100D01*
X135260753Y-103263407D01*
X135299525Y-103330562D01*
X135369438Y-103400475D01*
X135455062Y-103449910D01*
X135550565Y-103475500D01*
X135550567Y-103475500D01*
X135649432Y-103475500D01*
X135649435Y-103475500D01*
X135744938Y-103449910D01*
X135788502Y-103424758D01*
X135856399Y-103408286D01*
X135922426Y-103431138D01*
X135965617Y-103486059D01*
X135974500Y-103532146D01*
X135974500Y-105891629D01*
X135954815Y-105958668D01*
X135938181Y-105979310D01*
X134805362Y-107112128D01*
X134744039Y-107145613D01*
X134674347Y-107140629D01*
X134618414Y-107098757D01*
X134610300Y-107086457D01*
X134600475Y-107069438D01*
X134530562Y-106999525D01*
X134444938Y-106950090D01*
X134349435Y-106924500D01*
X134250565Y-106924500D01*
X134155062Y-106950090D01*
X134155060Y-106950091D01*
X134155059Y-106950091D01*
X134069436Y-106999526D01*
X133999526Y-107069436D01*
X133950091Y-107155059D01*
X133950091Y-107155060D01*
X133950090Y-107155062D01*
X133924500Y-107250565D01*
X133924500Y-107349435D01*
X133950090Y-107444938D01*
X133950091Y-107444939D01*
X133950091Y-107444940D01*
X133954791Y-107453080D01*
X133999525Y-107530562D01*
X134069438Y-107600475D01*
X134086447Y-107610295D01*
X134134662Y-107660859D01*
X134147886Y-107729466D01*
X134121919Y-107794331D01*
X134112128Y-107805362D01*
X133313276Y-108604214D01*
X133251953Y-108637699D01*
X133193503Y-108636308D01*
X133149435Y-108624500D01*
X133050565Y-108624500D01*
X132955062Y-108650090D01*
X132955060Y-108650091D01*
X132955059Y-108650091D01*
X132869436Y-108699526D01*
X132799526Y-108769436D01*
X132750091Y-108855059D01*
X132750091Y-108855060D01*
X132750090Y-108855062D01*
X132724500Y-108950565D01*
X132724500Y-109049435D01*
X132750090Y-109144938D01*
X132750091Y-109144939D01*
X132750091Y-109144940D01*
X132753339Y-109150565D01*
X132799525Y-109230562D01*
X132869438Y-109300475D01*
X132955062Y-109349910D01*
X133050565Y-109375500D01*
X133050567Y-109375500D01*
X133149432Y-109375500D01*
X133149435Y-109375500D01*
X133244938Y-109349910D01*
X133330562Y-109300475D01*
X133400475Y-109230562D01*
X133449910Y-109144938D01*
X133455784Y-109123011D01*
X133487877Y-109067423D01*
X134304735Y-108250565D01*
X140024500Y-108250565D01*
X140024500Y-108349435D01*
X140050090Y-108444938D01*
X140050091Y-108444939D01*
X140050091Y-108444940D01*
X140053065Y-108450091D01*
X140099525Y-108530562D01*
X140169438Y-108600475D01*
X140255062Y-108649910D01*
X140350565Y-108675500D01*
X140350567Y-108675500D01*
X140438986Y-108675500D01*
X140506025Y-108695185D01*
X140551780Y-108747989D01*
X140561724Y-108817147D01*
X140551451Y-108846827D01*
X140553201Y-108847552D01*
X140550090Y-108855060D01*
X140550090Y-108855062D01*
X140524500Y-108950565D01*
X140524500Y-109049435D01*
X140550090Y-109144938D01*
X140550091Y-109144939D01*
X140550091Y-109144940D01*
X140553339Y-109150565D01*
X140599525Y-109230562D01*
X140669438Y-109300475D01*
X140755062Y-109349910D01*
X140850565Y-109375500D01*
X140850567Y-109375500D01*
X140949432Y-109375500D01*
X140949435Y-109375500D01*
X141044938Y-109349910D01*
X141130562Y-109300475D01*
X141200475Y-109230562D01*
X141249910Y-109144938D01*
X141275500Y-109049435D01*
X141275500Y-108950565D01*
X141249910Y-108855062D01*
X141200475Y-108769438D01*
X141130562Y-108699525D01*
X141044938Y-108650090D01*
X140949435Y-108624500D01*
X140861014Y-108624500D01*
X140793975Y-108604815D01*
X140748220Y-108552011D01*
X140738276Y-108482853D01*
X140748548Y-108453172D01*
X140746799Y-108452448D01*
X140749904Y-108444947D01*
X140749910Y-108444938D01*
X140775500Y-108349435D01*
X140775500Y-108250565D01*
X140749910Y-108155062D01*
X140700475Y-108069438D01*
X140630562Y-107999525D01*
X140544938Y-107950090D01*
X140449435Y-107924500D01*
X140350565Y-107924500D01*
X140255062Y-107950090D01*
X140255060Y-107950091D01*
X140255059Y-107950091D01*
X140169436Y-107999526D01*
X140099526Y-108069436D01*
X140050091Y-108155059D01*
X140050091Y-108155060D01*
X140050090Y-108155062D01*
X140024500Y-108250565D01*
X134304735Y-108250565D01*
X136327734Y-106227567D01*
X136327736Y-106227567D01*
X136391170Y-106164133D01*
X136407586Y-106124500D01*
X136425501Y-106081251D01*
X136425501Y-105991542D01*
X136425501Y-105981553D01*
X136425500Y-105981539D01*
X136425500Y-102707370D01*
X136431738Y-102686124D01*
X136433318Y-102664036D01*
X136441390Y-102653252D01*
X136445185Y-102640331D01*
X136461918Y-102625831D01*
X136475190Y-102608103D01*
X136487810Y-102603395D01*
X136497989Y-102594576D01*
X136519906Y-102591424D01*
X136540654Y-102583686D01*
X136553814Y-102586548D01*
X136567147Y-102584632D01*
X136587290Y-102593831D01*
X136608927Y-102598538D01*
X136626652Y-102611806D01*
X136630703Y-102613657D01*
X136637181Y-102619689D01*
X136738181Y-102720689D01*
X136771666Y-102782012D01*
X136774500Y-102808370D01*
X136774500Y-104027208D01*
X136774499Y-104027222D01*
X136774499Y-104126923D01*
X136789887Y-104164070D01*
X136789889Y-104164073D01*
X136808829Y-104209801D01*
X136889700Y-104290672D01*
X136889706Y-104290677D01*
X139276763Y-106677734D01*
X139276764Y-106677736D01*
X139340198Y-106741170D01*
X139360309Y-106749500D01*
X139423080Y-106775501D01*
X139423081Y-106775501D01*
X139527223Y-106775501D01*
X139527231Y-106775500D01*
X141505192Y-106775500D01*
X141572231Y-106795185D01*
X141617986Y-106847989D01*
X141627930Y-106917147D01*
X141598905Y-106980703D01*
X141595674Y-106984172D01*
X141594723Y-106985331D01*
X141523538Y-107091866D01*
X141523533Y-107091875D01*
X141474499Y-107210255D01*
X141474497Y-107210261D01*
X141449500Y-107335928D01*
X141449500Y-107335931D01*
X141449500Y-107464069D01*
X141449500Y-107464071D01*
X141449499Y-107464071D01*
X141474497Y-107589738D01*
X141474499Y-107589744D01*
X141523533Y-107708124D01*
X141523538Y-107708133D01*
X141594723Y-107814668D01*
X141594726Y-107814672D01*
X141685327Y-107905273D01*
X141685331Y-107905276D01*
X141791866Y-107976461D01*
X141791872Y-107976464D01*
X141791873Y-107976465D01*
X141910256Y-108025501D01*
X141910260Y-108025501D01*
X141910261Y-108025502D01*
X142035928Y-108050500D01*
X142035931Y-108050500D01*
X142164071Y-108050500D01*
X142264301Y-108030562D01*
X142289744Y-108025501D01*
X142408127Y-107976465D01*
X142514669Y-107905276D01*
X142605276Y-107814669D01*
X142676465Y-107708127D01*
X142725501Y-107589744D01*
X142746291Y-107485230D01*
X142750500Y-107464071D01*
X142750500Y-107335928D01*
X142725502Y-107210260D01*
X142725501Y-107210258D01*
X142725501Y-107210256D01*
X142722982Y-107204176D01*
X142715513Y-107134709D01*
X142746786Y-107072229D01*
X142749803Y-107069101D01*
X143007087Y-106811816D01*
X143068409Y-106778334D01*
X143094767Y-106775500D01*
X143427100Y-106775500D01*
X143427108Y-106775501D01*
X143441542Y-106775501D01*
X143531249Y-106775501D01*
X143531252Y-106775501D01*
X143562637Y-106762500D01*
X143594021Y-106749501D01*
X143601130Y-106746555D01*
X143614133Y-106741170D01*
X143677567Y-106677736D01*
X143677567Y-106677735D01*
X143695005Y-106660297D01*
X143695007Y-106660294D01*
X145327734Y-105027567D01*
X145327736Y-105027567D01*
X145391170Y-104964133D01*
X145405390Y-104929802D01*
X145425501Y-104881251D01*
X145425501Y-104791542D01*
X145425501Y-104781553D01*
X145425500Y-104781539D01*
X145425500Y-99053958D01*
X145445185Y-98986919D01*
X145461819Y-98966277D01*
X145662819Y-98765277D01*
X145724142Y-98731792D01*
X145793834Y-98736776D01*
X145849767Y-98778648D01*
X145874184Y-98844112D01*
X145874500Y-98852958D01*
X145874500Y-105055232D01*
X145854815Y-105122271D01*
X145838181Y-105142913D01*
X142108830Y-108872263D01*
X142108830Y-108872265D01*
X142074499Y-108955144D01*
X142074499Y-109059288D01*
X142074500Y-109059297D01*
X142074500Y-111155142D01*
X142074499Y-111155145D01*
X142074499Y-111244855D01*
X142084682Y-111269438D01*
X142108830Y-111327736D01*
X142108831Y-111327737D01*
X142189700Y-111408606D01*
X142189706Y-111408611D01*
X145208829Y-114427734D01*
X145208830Y-114427736D01*
X145269671Y-114488577D01*
X145284981Y-114516617D01*
X145303154Y-114549898D01*
X145298170Y-114619590D01*
X145269670Y-114663936D01*
X145221954Y-114711652D01*
X145221951Y-114711657D01*
X145164352Y-114824698D01*
X145149500Y-114918475D01*
X145149500Y-118281517D01*
X145162001Y-118360450D01*
X145164354Y-118375304D01*
X145165500Y-118377553D01*
X145166068Y-118380580D01*
X145167369Y-118384582D01*
X145166851Y-118384750D01*
X145178395Y-118446221D01*
X145152117Y-118510961D01*
X145095010Y-118551217D01*
X145025205Y-118554209D01*
X144999606Y-118544777D01*
X144382483Y-118236541D01*
X144377406Y-118233857D01*
X143662705Y-117834507D01*
X143657758Y-117831590D01*
X142962314Y-117399574D01*
X142957518Y-117396439D01*
X142282821Y-116932679D01*
X142278165Y-116929317D01*
X141625684Y-116434825D01*
X141621188Y-116431251D01*
X141241343Y-116114650D01*
X141136814Y-116027525D01*
X142849500Y-116027525D01*
X142849500Y-116172475D01*
X142887016Y-116312485D01*
X142887017Y-116312488D01*
X142959488Y-116438011D01*
X142959490Y-116438013D01*
X142959491Y-116438015D01*
X143061985Y-116540509D01*
X143061986Y-116540510D01*
X143061988Y-116540511D01*
X143187511Y-116612982D01*
X143187512Y-116612982D01*
X143187515Y-116612984D01*
X143327525Y-116650500D01*
X143327528Y-116650500D01*
X143472472Y-116650500D01*
X143472475Y-116650500D01*
X143612485Y-116612984D01*
X143738015Y-116540509D01*
X143840509Y-116438015D01*
X143912984Y-116312485D01*
X143950500Y-116172475D01*
X143950500Y-116062011D01*
X143970185Y-115994972D01*
X144022989Y-115949217D01*
X144092147Y-115939273D01*
X144155703Y-115968298D01*
X144181884Y-116000008D01*
X144199525Y-116030562D01*
X144269438Y-116100475D01*
X144355062Y-116149910D01*
X144450565Y-116175500D01*
X144450567Y-116175500D01*
X144549432Y-116175500D01*
X144549435Y-116175500D01*
X144644938Y-116149910D01*
X144730562Y-116100475D01*
X144800475Y-116030562D01*
X144849910Y-115944938D01*
X144875500Y-115849435D01*
X144875500Y-115750565D01*
X144849910Y-115655062D01*
X144800475Y-115569438D01*
X144730562Y-115499525D01*
X144644938Y-115450090D01*
X144549435Y-115424500D01*
X144450565Y-115424500D01*
X144355062Y-115450090D01*
X144355060Y-115450091D01*
X144355059Y-115450091D01*
X144269436Y-115499526D01*
X144199526Y-115569436D01*
X144150091Y-115655059D01*
X144150091Y-115655060D01*
X144150090Y-115655062D01*
X144124500Y-115750565D01*
X144124500Y-115750567D01*
X144124500Y-115791096D01*
X144104815Y-115858135D01*
X144052011Y-115903890D01*
X143982853Y-115913834D01*
X143919297Y-115884809D01*
X143893113Y-115853097D01*
X143857316Y-115791096D01*
X143840509Y-115761985D01*
X143738015Y-115659491D01*
X143738013Y-115659490D01*
X143738011Y-115659488D01*
X143612488Y-115587017D01*
X143612489Y-115587017D01*
X143601006Y-115583940D01*
X143472475Y-115549500D01*
X143327525Y-115549500D01*
X143198993Y-115583940D01*
X143187511Y-115587017D01*
X143061988Y-115659488D01*
X143061982Y-115659493D01*
X142959493Y-115761982D01*
X142959488Y-115761988D01*
X142887017Y-115887511D01*
X142887016Y-115887515D01*
X142849500Y-116027525D01*
X141136814Y-116027525D01*
X140992294Y-115907068D01*
X140987968Y-115903289D01*
X140970733Y-115887515D01*
X140384015Y-115350540D01*
X140379879Y-115346574D01*
X139802169Y-114766451D01*
X139798236Y-114762313D01*
X139405956Y-114330091D01*
X139248016Y-114156069D01*
X139244256Y-114151729D01*
X139238264Y-114144479D01*
X139210729Y-114080264D01*
X139222282Y-114011356D01*
X139269256Y-113959633D01*
X139336736Y-113941517D01*
X139381295Y-113950921D01*
X139408165Y-113962051D01*
X139408169Y-113962051D01*
X139408170Y-113962052D01*
X139601456Y-114000500D01*
X139601459Y-114000500D01*
X139798543Y-114000500D01*
X139932196Y-113973914D01*
X139991835Y-113962051D01*
X140173914Y-113886632D01*
X140337782Y-113777139D01*
X140477139Y-113637782D01*
X140586632Y-113473914D01*
X140662051Y-113291835D01*
X140683648Y-113183259D01*
X140700500Y-113098543D01*
X140700500Y-112901456D01*
X140662052Y-112708170D01*
X140662051Y-112708169D01*
X140662051Y-112708165D01*
X140631765Y-112635048D01*
X140586635Y-112526092D01*
X140586628Y-112526079D01*
X140477139Y-112362218D01*
X140477136Y-112362214D01*
X140337785Y-112222863D01*
X140337781Y-112222860D01*
X140173920Y-112113371D01*
X140173907Y-112113364D01*
X139991839Y-112037950D01*
X139991829Y-112037947D01*
X139798543Y-111999500D01*
X139798541Y-111999500D01*
X139601459Y-111999500D01*
X139601457Y-111999500D01*
X139408170Y-112037947D01*
X139408160Y-112037950D01*
X139226092Y-112113364D01*
X139226079Y-112113371D01*
X139062218Y-112222860D01*
X139062214Y-112222863D01*
X138922863Y-112362214D01*
X138922860Y-112362218D01*
X138813371Y-112526079D01*
X138813364Y-112526092D01*
X138737950Y-112708160D01*
X138737947Y-112708170D01*
X138699500Y-112901456D01*
X138699500Y-113098543D01*
X138700097Y-113104606D01*
X138698540Y-113104759D01*
X138692983Y-113166743D01*
X138650110Y-113221912D01*
X138584216Y-113245145D01*
X138516222Y-113229065D01*
X138478465Y-113195807D01*
X138227364Y-112861594D01*
X138224022Y-112856924D01*
X138058104Y-112613371D01*
X137763075Y-112180296D01*
X137759979Y-112175518D01*
X137330847Y-111478251D01*
X137327953Y-111473294D01*
X137312218Y-111444855D01*
X136931586Y-110756934D01*
X136928928Y-110751855D01*
X136862144Y-110616740D01*
X136567931Y-110021497D01*
X136566840Y-110019232D01*
X136565650Y-110016693D01*
X136553114Y-109986426D01*
X136550016Y-109983328D01*
X136548127Y-109979296D01*
X136548050Y-109979191D01*
X136523817Y-109956966D01*
X136523816Y-109956965D01*
X136521848Y-109955160D01*
X136496712Y-109930024D01*
X136492570Y-109928308D01*
X136490507Y-109926416D01*
X136489265Y-109925277D01*
X136458370Y-109914017D01*
X136455863Y-109913104D01*
X136423020Y-109899500D01*
X136418537Y-109899500D01*
X136414325Y-109897965D01*
X136414322Y-109897964D01*
X136382588Y-109899336D01*
X136381490Y-109899384D01*
X136376136Y-109899500D01*
X132524500Y-109899500D01*
X132457461Y-109879815D01*
X132411706Y-109827011D01*
X132400500Y-109775500D01*
X132400500Y-97250565D01*
X133724500Y-97250565D01*
X133724500Y-97349435D01*
X133750090Y-97444938D01*
X133750091Y-97444939D01*
X133750091Y-97444940D01*
X133752686Y-97449435D01*
X133799525Y-97530562D01*
X133869438Y-97600475D01*
X133955062Y-97649910D01*
X134050565Y-97675500D01*
X134050567Y-97675500D01*
X134149432Y-97675500D01*
X134149435Y-97675500D01*
X134244938Y-97649910D01*
X134330562Y-97600475D01*
X134400475Y-97530562D01*
X134449910Y-97444938D01*
X134475500Y-97349435D01*
X134475500Y-97250565D01*
X134450250Y-97156331D01*
X134451913Y-97086484D01*
X134482342Y-97036561D01*
X134698332Y-96820571D01*
X134759653Y-96787088D01*
X134829345Y-96792072D01*
X134833463Y-96793693D01*
X134907839Y-96824500D01*
X134910256Y-96825501D01*
X134910260Y-96825501D01*
X134910261Y-96825502D01*
X135035928Y-96850500D01*
X135035931Y-96850500D01*
X135164071Y-96850500D01*
X135282067Y-96827028D01*
X135289744Y-96825501D01*
X135408127Y-96776465D01*
X135514669Y-96705276D01*
X135605276Y-96614669D01*
X135676465Y-96508127D01*
X135725501Y-96389744D01*
X135738376Y-96325021D01*
X135750500Y-96264071D01*
X135750500Y-96135928D01*
X135725502Y-96010261D01*
X135725501Y-96010260D01*
X135725501Y-96010256D01*
X135676465Y-95891873D01*
X135676464Y-95891872D01*
X135676461Y-95891866D01*
X135605276Y-95785331D01*
X135605273Y-95785327D01*
X135514672Y-95694726D01*
X135514668Y-95694723D01*
X135408133Y-95623538D01*
X135408124Y-95623533D01*
X135289744Y-95574499D01*
X135289738Y-95574497D01*
X135164071Y-95549500D01*
X135164069Y-95549500D01*
X135035931Y-95549500D01*
X135035929Y-95549500D01*
X134910261Y-95574497D01*
X134910255Y-95574499D01*
X134791875Y-95623533D01*
X134791866Y-95623538D01*
X134685331Y-95694723D01*
X134685327Y-95694726D01*
X134594726Y-95785327D01*
X134594723Y-95785331D01*
X134523538Y-95891866D01*
X134523533Y-95891875D01*
X134474499Y-96010255D01*
X134474497Y-96010261D01*
X134449500Y-96135928D01*
X134449500Y-96264073D01*
X134464363Y-96338794D01*
X134458136Y-96408385D01*
X134430427Y-96450666D01*
X134198006Y-96683088D01*
X133972265Y-96908829D01*
X133972264Y-96908830D01*
X133953266Y-96927828D01*
X133909683Y-96971410D01*
X133884010Y-96991110D01*
X133869439Y-96999523D01*
X133799525Y-97069438D01*
X133750091Y-97155059D01*
X133750091Y-97155060D01*
X133750090Y-97155062D01*
X133724500Y-97250565D01*
X132400500Y-97250565D01*
X132400500Y-95224500D01*
X132420185Y-95157461D01*
X132472989Y-95111706D01*
X132524500Y-95100500D01*
X136378807Y-95100500D01*
X136414325Y-95102035D01*
X136418537Y-95100500D01*
X136423020Y-95100500D01*
X136455863Y-95086895D01*
X136489266Y-95074722D01*
X136492567Y-95071693D01*
X136496704Y-95069980D01*
X136496706Y-95069978D01*
X136496712Y-95069976D01*
X136521850Y-95044837D01*
X136548051Y-95020808D01*
X136549943Y-95016744D01*
X136553114Y-95013574D01*
X136564568Y-94985918D01*
X136567955Y-94978451D01*
X136928941Y-94248117D01*
X136931577Y-94243082D01*
X137327965Y-93526683D01*
X137330836Y-93521767D01*
X137759992Y-92824461D01*
X137763062Y-92819722D01*
X138224037Y-92143053D01*
X138227349Y-92138425D01*
X138478466Y-91804190D01*
X138534470Y-91762420D01*
X138604171Y-91757557D01*
X138665435Y-91791149D01*
X138698813Y-91852531D01*
X138699162Y-91895301D01*
X138700097Y-91895394D01*
X138699500Y-91901456D01*
X138699500Y-91901459D01*
X138699500Y-91921750D01*
X138699500Y-92098541D01*
X138699500Y-92098543D01*
X138699499Y-92098543D01*
X138737947Y-92291829D01*
X138737950Y-92291839D01*
X138813364Y-92473907D01*
X138813371Y-92473920D01*
X138922860Y-92637781D01*
X138922863Y-92637785D01*
X139062214Y-92777136D01*
X139062218Y-92777139D01*
X139226079Y-92886628D01*
X139226092Y-92886635D01*
X139398136Y-92957897D01*
X139408165Y-92962051D01*
X139408169Y-92962051D01*
X139408170Y-92962052D01*
X139601456Y-93000500D01*
X139601459Y-93000500D01*
X139798543Y-93000500D01*
X139952602Y-92969855D01*
X139991835Y-92962051D01*
X140147886Y-92897413D01*
X140173907Y-92886635D01*
X140173907Y-92886634D01*
X140173914Y-92886632D01*
X140337782Y-92777139D01*
X140477139Y-92637782D01*
X140586632Y-92473914D01*
X140662051Y-92291835D01*
X140678350Y-92209896D01*
X140700500Y-92098543D01*
X140700500Y-91901456D01*
X140662052Y-91708170D01*
X140662051Y-91708169D01*
X140662051Y-91708165D01*
X140628857Y-91628026D01*
X140586635Y-91526092D01*
X140586628Y-91526079D01*
X140477139Y-91362218D01*
X140477136Y-91362214D01*
X140337785Y-91222863D01*
X140337781Y-91222860D01*
X140173920Y-91113371D01*
X140173907Y-91113364D01*
X139991839Y-91037950D01*
X139991829Y-91037947D01*
X139798543Y-90999500D01*
X139798541Y-90999500D01*
X139601459Y-90999500D01*
X139601457Y-90999500D01*
X139408170Y-91037947D01*
X139408160Y-91037950D01*
X139381295Y-91049078D01*
X139375975Y-91049649D01*
X139371544Y-91052646D01*
X139341604Y-91053344D01*
X139311826Y-91056545D01*
X139307042Y-91054150D01*
X139301694Y-91054275D01*
X139276128Y-91038675D01*
X139249347Y-91025269D01*
X139246617Y-91020668D01*
X139242051Y-91017882D01*
X139228977Y-90990936D01*
X139213696Y-90965179D01*
X139213887Y-90959832D01*
X139211552Y-90955020D01*
X139215121Y-90925286D01*
X139216191Y-90895354D01*
X139219412Y-90889539D01*
X139219880Y-90885648D01*
X139238264Y-90855520D01*
X139244256Y-90848270D01*
X139248005Y-90843942D01*
X139798256Y-90237663D01*
X139802148Y-90233569D01*
X140083975Y-89950565D01*
X145024500Y-89950565D01*
X145024500Y-90049435D01*
X145050090Y-90144938D01*
X145099525Y-90230562D01*
X145169438Y-90300475D01*
X145255062Y-90349910D01*
X145350565Y-90375500D01*
X145350567Y-90375500D01*
X145449432Y-90375500D01*
X145449435Y-90375500D01*
X145544938Y-90349910D01*
X145630562Y-90300475D01*
X145700475Y-90230562D01*
X145749910Y-90144938D01*
X145775500Y-90049435D01*
X145775500Y-89950565D01*
X145749910Y-89855062D01*
X145700475Y-89769438D01*
X145630562Y-89699525D01*
X145544938Y-89650090D01*
X145449435Y-89624500D01*
X145350565Y-89624500D01*
X145255062Y-89650090D01*
X145255060Y-89650091D01*
X145255059Y-89650091D01*
X145169436Y-89699526D01*
X145099526Y-89769436D01*
X145050091Y-89855059D01*
X145050091Y-89855060D01*
X145050090Y-89855062D01*
X145024500Y-89950565D01*
X140083975Y-89950565D01*
X140379911Y-89653393D01*
X140383992Y-89649480D01*
X140987996Y-89096685D01*
X140992265Y-89092955D01*
X141310717Y-88827525D01*
X142849500Y-88827525D01*
X142849500Y-88972475D01*
X142882269Y-89094770D01*
X142887017Y-89112488D01*
X142959488Y-89238011D01*
X142959490Y-89238013D01*
X142959491Y-89238015D01*
X143061985Y-89340509D01*
X143061986Y-89340510D01*
X143061988Y-89340511D01*
X143187511Y-89412982D01*
X143187512Y-89412982D01*
X143187515Y-89412984D01*
X143327525Y-89450500D01*
X143327528Y-89450500D01*
X143472472Y-89450500D01*
X143472475Y-89450500D01*
X143612485Y-89412984D01*
X143738015Y-89340509D01*
X143840509Y-89238015D01*
X143912984Y-89112485D01*
X143950500Y-88972475D01*
X143950500Y-88827525D01*
X143912984Y-88687515D01*
X143846565Y-88572475D01*
X143840511Y-88561988D01*
X143840506Y-88561982D01*
X143738017Y-88459493D01*
X143738011Y-88459488D01*
X143612488Y-88387017D01*
X143612489Y-88387017D01*
X143601006Y-88383940D01*
X143472475Y-88349500D01*
X143327525Y-88349500D01*
X143198993Y-88383940D01*
X143187511Y-88387017D01*
X143061988Y-88459488D01*
X143061982Y-88459493D01*
X142959493Y-88561982D01*
X142959488Y-88561988D01*
X142887017Y-88687511D01*
X142887016Y-88687515D01*
X142849500Y-88827525D01*
X141310717Y-88827525D01*
X141621214Y-88568726D01*
X141625657Y-88565194D01*
X142278186Y-88070666D01*
X142282798Y-88067335D01*
X142957548Y-87603540D01*
X142962271Y-87600452D01*
X143364528Y-87350565D01*
X145224500Y-87350565D01*
X145224500Y-87449435D01*
X145250090Y-87544938D01*
X145299525Y-87630562D01*
X145369438Y-87700475D01*
X145455062Y-87749910D01*
X145550565Y-87775500D01*
X145550567Y-87775500D01*
X145649432Y-87775500D01*
X145649435Y-87775500D01*
X145744938Y-87749910D01*
X145830562Y-87700475D01*
X145900475Y-87630562D01*
X145949910Y-87544938D01*
X145975500Y-87449435D01*
X145975500Y-87350565D01*
X145949910Y-87255062D01*
X145900475Y-87169438D01*
X145830562Y-87099525D01*
X145744938Y-87050090D01*
X145649435Y-87024500D01*
X145550565Y-87024500D01*
X145455062Y-87050090D01*
X145455060Y-87050091D01*
X145455059Y-87050091D01*
X145369436Y-87099526D01*
X145299526Y-87169436D01*
X145250091Y-87255059D01*
X145250091Y-87255060D01*
X145250090Y-87255062D01*
X145224500Y-87350565D01*
X143364528Y-87350565D01*
X143625763Y-87188283D01*
X143657758Y-87168409D01*
X143662688Y-87165501D01*
X144377436Y-86766125D01*
X144382453Y-86763473D01*
X145114918Y-86397627D01*
X145120071Y-86395201D01*
X145868687Y-86063667D01*
X145873931Y-86061488D01*
X146637129Y-85764962D01*
X146642473Y-85763028D01*
X147111493Y-85605379D01*
X147181310Y-85602680D01*
X147241505Y-85638154D01*
G37*
%TD.AperFunction*%
%TA.AperFunction,Conductor*%
G36*
X152491735Y-97785990D02*
G01*
X152496485Y-97786330D01*
X152504330Y-97790026D01*
X152507413Y-97791014D01*
X152512407Y-97793444D01*
X152512637Y-97793674D01*
X152598261Y-97843109D01*
X152634308Y-97852767D01*
X152644992Y-97857967D01*
X152678412Y-97881784D01*
X153038181Y-98241553D01*
X153071666Y-98302876D01*
X153074500Y-98329234D01*
X153074500Y-110194920D01*
X153054815Y-110261959D01*
X153004960Y-110306320D01*
X152893517Y-110360800D01*
X152810803Y-110443514D01*
X152759426Y-110548608D01*
X152749500Y-110616739D01*
X152749500Y-113183260D01*
X152759426Y-113251391D01*
X152810803Y-113356485D01*
X152817137Y-113362819D01*
X152850622Y-113424142D01*
X152845638Y-113493834D01*
X152803766Y-113549767D01*
X152738302Y-113574184D01*
X152729456Y-113574500D01*
X150870544Y-113574500D01*
X150803505Y-113554815D01*
X150757750Y-113502011D01*
X150747806Y-113432853D01*
X150776831Y-113369297D01*
X150782863Y-113362819D01*
X150789196Y-113356485D01*
X150789198Y-113356483D01*
X150840573Y-113251393D01*
X150850500Y-113183260D01*
X150850500Y-110616740D01*
X150840573Y-110548607D01*
X150789198Y-110443517D01*
X150789195Y-110443514D01*
X150789195Y-110443513D01*
X150783227Y-110435153D01*
X150786124Y-110433084D01*
X150761489Y-110387969D01*
X150766473Y-110318277D01*
X150794972Y-110273932D01*
X151710294Y-109358609D01*
X151710297Y-109358608D01*
X151727735Y-109341170D01*
X151727736Y-109341170D01*
X151791170Y-109277736D01*
X151818680Y-109211321D01*
X151825501Y-109194854D01*
X151825501Y-109105145D01*
X151825501Y-109095156D01*
X151825500Y-109095142D01*
X151825500Y-102643120D01*
X151845185Y-102576081D01*
X151897989Y-102530326D01*
X151967147Y-102520382D01*
X151981582Y-102523342D01*
X152000565Y-102528429D01*
X152000568Y-102528429D01*
X152099432Y-102528429D01*
X152099435Y-102528429D01*
X152194938Y-102502839D01*
X152280562Y-102453404D01*
X152350475Y-102383491D01*
X152399910Y-102297867D01*
X152425500Y-102202364D01*
X152425500Y-102103494D01*
X152399910Y-102007991D01*
X152350475Y-101922367D01*
X152280562Y-101852454D01*
X152194938Y-101803019D01*
X152099435Y-101777429D01*
X152000565Y-101777429D01*
X151981590Y-101782513D01*
X151911740Y-101780848D01*
X151853879Y-101741683D01*
X151826376Y-101677454D01*
X151825500Y-101662737D01*
X151825500Y-99318710D01*
X151845185Y-99251671D01*
X151897989Y-99205916D01*
X151967147Y-99195972D01*
X152030703Y-99224997D01*
X152056885Y-99256708D01*
X152099525Y-99330562D01*
X152169438Y-99400475D01*
X152255062Y-99449910D01*
X152350565Y-99475500D01*
X152350567Y-99475500D01*
X152449432Y-99475500D01*
X152449435Y-99475500D01*
X152544938Y-99449910D01*
X152630562Y-99400475D01*
X152700475Y-99330562D01*
X152749910Y-99244938D01*
X152775500Y-99149435D01*
X152775500Y-99050565D01*
X152749910Y-98955062D01*
X152700475Y-98869438D01*
X152630562Y-98799525D01*
X152544938Y-98750090D01*
X152449435Y-98724500D01*
X152350565Y-98724500D01*
X152255062Y-98750090D01*
X152255060Y-98750091D01*
X152255059Y-98750091D01*
X152169436Y-98799526D01*
X152099527Y-98869435D01*
X152099525Y-98869437D01*
X152099525Y-98869438D01*
X152060046Y-98937819D01*
X152056887Y-98943290D01*
X152006319Y-98991505D01*
X151937712Y-99004727D01*
X151872848Y-98978759D01*
X151832320Y-98921845D01*
X151825500Y-98881289D01*
X151825500Y-98406163D01*
X151845185Y-98339124D01*
X151861815Y-98318486D01*
X152310294Y-97870006D01*
X152310297Y-97870005D01*
X152327735Y-97852567D01*
X152327736Y-97852567D01*
X152365472Y-97814830D01*
X152386197Y-97803513D01*
X152404421Y-97788489D01*
X152416296Y-97787077D01*
X152426793Y-97781346D01*
X152450351Y-97783030D01*
X152473802Y-97780244D01*
X152491735Y-97785990D01*
G37*
%TD.AperFunction*%
%TA.AperFunction,Conductor*%
G36*
X144893835Y-104327585D02*
G01*
X144949768Y-104369457D01*
X144974184Y-104434922D01*
X144974500Y-104443766D01*
X144974500Y-104691630D01*
X144954815Y-104758669D01*
X144938181Y-104779311D01*
X143429311Y-106288181D01*
X143402383Y-106302884D01*
X143376565Y-106319477D01*
X143370364Y-106320368D01*
X143367988Y-106321666D01*
X143341630Y-106324500D01*
X143261014Y-106324500D01*
X143193975Y-106304815D01*
X143148220Y-106252011D01*
X143138276Y-106182853D01*
X143148548Y-106153172D01*
X143146799Y-106152448D01*
X143149904Y-106144947D01*
X143149910Y-106144938D01*
X143175500Y-106049435D01*
X143175500Y-105950565D01*
X143149910Y-105855062D01*
X143100475Y-105769438D01*
X143030562Y-105699525D01*
X142944938Y-105650090D01*
X142849435Y-105624500D01*
X142794767Y-105624500D01*
X142727728Y-105604815D01*
X142707086Y-105588181D01*
X141832214Y-104713309D01*
X141798729Y-104651986D01*
X141803713Y-104582294D01*
X141845585Y-104526361D01*
X141911049Y-104501944D01*
X141919895Y-104501628D01*
X144464575Y-104501628D01*
X144464583Y-104501629D01*
X144479017Y-104501629D01*
X144568724Y-104501629D01*
X144568727Y-104501629D01*
X144600112Y-104488628D01*
X144631496Y-104475629D01*
X144638605Y-104472683D01*
X144651608Y-104467298D01*
X144715042Y-104403864D01*
X144715042Y-104403863D01*
X144732473Y-104386432D01*
X144732476Y-104386427D01*
X144762822Y-104356081D01*
X144824144Y-104322599D01*
X144893835Y-104327585D01*
G37*
%TD.AperFunction*%
%TA.AperFunction,Conductor*%
G36*
X149608907Y-88670316D02*
G01*
X149654662Y-88723120D01*
X149664606Y-88792278D01*
X149635581Y-88855834D01*
X149610759Y-88877733D01*
X149585331Y-88894723D01*
X149585327Y-88894726D01*
X149494726Y-88985327D01*
X149494723Y-88985331D01*
X149423538Y-89091866D01*
X149423533Y-89091875D01*
X149374499Y-89210255D01*
X149374497Y-89210261D01*
X149349500Y-89335928D01*
X149349500Y-89335931D01*
X149349500Y-89464069D01*
X149349500Y-89464071D01*
X149349499Y-89464071D01*
X149374497Y-89589738D01*
X149374499Y-89589744D01*
X149423533Y-89708124D01*
X149423538Y-89708133D01*
X149494723Y-89814668D01*
X149494726Y-89814672D01*
X149585327Y-89905273D01*
X149585331Y-89905276D01*
X149691866Y-89976461D01*
X149691875Y-89976466D01*
X149718692Y-89987574D01*
X149810256Y-90025501D01*
X149810260Y-90025501D01*
X149810261Y-90025502D01*
X149935928Y-90050500D01*
X149935931Y-90050500D01*
X150064071Y-90050500D01*
X150178513Y-90027735D01*
X150189744Y-90025501D01*
X150195817Y-90022985D01*
X150265281Y-90015511D01*
X150308354Y-90031993D01*
X150320697Y-90039603D01*
X150372263Y-90091169D01*
X150455144Y-90125499D01*
X150460009Y-90125499D01*
X150478414Y-90136847D01*
X150495407Y-90155733D01*
X150515190Y-90171675D01*
X150518383Y-90181270D01*
X150525147Y-90188787D01*
X150529231Y-90213861D01*
X150537256Y-90237969D01*
X150534755Y-90247767D01*
X150536381Y-90257748D01*
X150526260Y-90281051D01*
X150519978Y-90305669D01*
X150509980Y-90318537D01*
X150508549Y-90321835D01*
X150506195Y-90323410D01*
X150501016Y-90330078D01*
X149717914Y-91113181D01*
X149656591Y-91146666D01*
X149630233Y-91149500D01*
X146869854Y-91149500D01*
X146780145Y-91149500D01*
X146780143Y-91149500D01*
X146780141Y-91149501D01*
X146697266Y-91183827D01*
X138646700Y-99234393D01*
X138646699Y-99234395D01*
X138646698Y-99234396D01*
X138637751Y-99255997D01*
X138612367Y-99317277D01*
X138612367Y-99406987D01*
X138612368Y-99406989D01*
X138612368Y-99431505D01*
X138612368Y-101326475D01*
X138592683Y-101393514D01*
X138539879Y-101439269D01*
X138470721Y-101449213D01*
X138407165Y-101420188D01*
X138400687Y-101414156D01*
X138362764Y-101376233D01*
X138362763Y-101376232D01*
X138277139Y-101326797D01*
X138181636Y-101301207D01*
X138082766Y-101301207D01*
X137987263Y-101326797D01*
X137987261Y-101326798D01*
X137987260Y-101326798D01*
X137901637Y-101376233D01*
X137831727Y-101446143D01*
X137782292Y-101531766D01*
X137782292Y-101531767D01*
X137782291Y-101531769D01*
X137756701Y-101627272D01*
X137756701Y-101627274D01*
X137756701Y-101681939D01*
X137748056Y-101711379D01*
X137741533Y-101741366D01*
X137737778Y-101746381D01*
X137737016Y-101748978D01*
X137720382Y-101769620D01*
X137585347Y-101904655D01*
X137585346Y-101904656D01*
X137567637Y-101922365D01*
X137521912Y-101968089D01*
X137518844Y-101975498D01*
X137518843Y-101975500D01*
X137487581Y-102050970D01*
X137487581Y-102155114D01*
X137487582Y-102155123D01*
X137487582Y-103754997D01*
X137487581Y-103755011D01*
X137487581Y-103854710D01*
X137506096Y-103899408D01*
X137506095Y-103899408D01*
X137521912Y-103937592D01*
X137522169Y-103937976D01*
X137522470Y-103938939D01*
X137526585Y-103948872D01*
X137525695Y-103949240D01*
X137543046Y-104004654D01*
X137524560Y-104072034D01*
X137472581Y-104118723D01*
X137403610Y-104129898D01*
X137339547Y-104102011D01*
X137331385Y-104094546D01*
X137261819Y-104024980D01*
X137228334Y-103963657D01*
X137225500Y-103937299D01*
X137225500Y-102722900D01*
X137225501Y-102722891D01*
X137225501Y-102618749D01*
X137225501Y-102618748D01*
X137201225Y-102560142D01*
X137199137Y-102555102D01*
X137191170Y-102535868D01*
X137191170Y-102535867D01*
X137127736Y-102472433D01*
X137120671Y-102465368D01*
X137120664Y-102465362D01*
X135695008Y-101039706D01*
X135677567Y-101022265D01*
X135677567Y-101022264D01*
X135631103Y-100975800D01*
X135609447Y-100936137D01*
X135597621Y-100914480D01*
X135602605Y-100844788D01*
X135631104Y-100800443D01*
X138643341Y-97788205D01*
X138704662Y-97754722D01*
X138774354Y-97759706D01*
X138830287Y-97801578D01*
X138838405Y-97813884D01*
X138887810Y-97899456D01*
X138957723Y-97969369D01*
X139043347Y-98018804D01*
X139138850Y-98044394D01*
X139138852Y-98044394D01*
X139237717Y-98044394D01*
X139237720Y-98044394D01*
X139333223Y-98018804D01*
X139418847Y-97969369D01*
X139488760Y-97899456D01*
X139538195Y-97813832D01*
X139563785Y-97718329D01*
X139563785Y-97619459D01*
X139538195Y-97523956D01*
X139488760Y-97438332D01*
X139488758Y-97438330D01*
X139484696Y-97431294D01*
X139487303Y-97429788D01*
X139467289Y-97378011D01*
X139481331Y-97309567D01*
X139530147Y-97259580D01*
X139567815Y-97245860D01*
X139579235Y-97243700D01*
X139663054Y-97243700D01*
X139721659Y-97219424D01*
X139745935Y-97209369D01*
X139809369Y-97145935D01*
X139809369Y-97145934D01*
X139826807Y-97128496D01*
X139826809Y-97128493D01*
X148268352Y-88686950D01*
X148329675Y-88653465D01*
X148356033Y-88650631D01*
X149541868Y-88650631D01*
X149608907Y-88670316D01*
G37*
%TD.AperFunction*%
%TA.AperFunction,Conductor*%
G36*
X144239597Y-97069630D02*
G01*
X144253033Y-97070591D01*
X144270758Y-97083860D01*
X144290901Y-97093059D01*
X144298184Y-97104391D01*
X144308966Y-97112463D01*
X144316703Y-97133207D01*
X144328676Y-97151837D01*
X144331827Y-97173757D01*
X144333383Y-97177927D01*
X144333698Y-97186771D01*
X144333699Y-97186772D01*
X144333699Y-97195944D01*
X144333699Y-97195945D01*
X144333699Y-97285655D01*
X144333699Y-97285656D01*
X144333700Y-97300096D01*
X144333700Y-97852039D01*
X144314015Y-97919078D01*
X144261211Y-97964833D01*
X144192053Y-97974777D01*
X144185508Y-97973656D01*
X144064071Y-97949500D01*
X144064069Y-97949500D01*
X143935931Y-97949500D01*
X143935929Y-97949500D01*
X143810261Y-97974497D01*
X143810255Y-97974499D01*
X143691875Y-98023533D01*
X143691866Y-98023538D01*
X143585331Y-98094723D01*
X143585327Y-98094726D01*
X143494726Y-98185327D01*
X143494723Y-98185331D01*
X143423538Y-98291866D01*
X143423533Y-98291875D01*
X143374499Y-98410255D01*
X143374497Y-98410261D01*
X143349500Y-98535928D01*
X143349500Y-98535931D01*
X143349500Y-98664069D01*
X143349500Y-98664071D01*
X143349499Y-98664071D01*
X143374497Y-98789738D01*
X143374499Y-98789744D01*
X143423533Y-98908124D01*
X143423538Y-98908133D01*
X143494723Y-99014668D01*
X143494726Y-99014672D01*
X143585327Y-99105273D01*
X143585331Y-99105276D01*
X143691866Y-99176461D01*
X143691872Y-99176464D01*
X143691873Y-99176465D01*
X143810256Y-99225501D01*
X143810260Y-99225501D01*
X143810261Y-99225502D01*
X143935928Y-99250500D01*
X143935931Y-99250500D01*
X144064071Y-99250500D01*
X144189739Y-99225502D01*
X144189739Y-99225501D01*
X144189744Y-99225501D01*
X144195816Y-99222985D01*
X144265282Y-99215511D01*
X144327764Y-99246781D01*
X144330957Y-99249862D01*
X144638181Y-99557086D01*
X144671666Y-99618409D01*
X144674500Y-99644767D01*
X144674500Y-103184397D01*
X144654815Y-103251436D01*
X144602011Y-103297191D01*
X144545071Y-103308278D01*
X144531510Y-103307683D01*
X144499435Y-103299089D01*
X144400565Y-103299089D01*
X144391404Y-103301543D01*
X144373439Y-103300756D01*
X144369762Y-103299499D01*
X144359738Y-103299499D01*
X144270028Y-103299499D01*
X144255594Y-103299499D01*
X144255586Y-103299500D01*
X142418766Y-103299500D01*
X142397520Y-103293261D01*
X142375433Y-103291682D01*
X142364649Y-103283609D01*
X142351727Y-103279815D01*
X142337228Y-103263083D01*
X142319499Y-103249811D01*
X142314791Y-103237188D01*
X142305972Y-103227011D01*
X142302820Y-103205095D01*
X142295082Y-103184347D01*
X142297944Y-103171185D01*
X142296028Y-103157853D01*
X142305226Y-103137711D01*
X142309933Y-103116074D01*
X142323204Y-103098345D01*
X142325053Y-103094297D01*
X142331066Y-103087838D01*
X142410295Y-103008608D01*
X142410299Y-103008606D01*
X142427735Y-102991170D01*
X142427736Y-102991170D01*
X142491170Y-102927736D01*
X142491170Y-102927734D01*
X142491172Y-102927733D01*
X142512166Y-102877048D01*
X142556006Y-102822644D01*
X142622300Y-102800579D01*
X142626727Y-102800500D01*
X142814822Y-102800500D01*
X142858717Y-102791768D01*
X142858717Y-102791767D01*
X142858722Y-102791767D01*
X142858726Y-102791764D01*
X142870002Y-102787094D01*
X142871174Y-102789924D01*
X142919596Y-102774756D01*
X142955517Y-102784039D01*
X142956481Y-102780442D01*
X142972250Y-102784667D01*
X143050000Y-102805500D01*
X143050002Y-102805500D01*
X143665820Y-102805500D01*
X143665826Y-102805500D01*
X143706073Y-102800201D01*
X143833240Y-102766126D01*
X143870743Y-102750592D01*
X143984757Y-102684766D01*
X144016962Y-102660054D01*
X144016969Y-102660047D01*
X144016971Y-102660046D01*
X144110046Y-102566971D01*
X144110047Y-102566969D01*
X144110054Y-102566962D01*
X144134766Y-102534757D01*
X144200592Y-102420743D01*
X144216126Y-102383240D01*
X144250201Y-102256073D01*
X144255500Y-102215826D01*
X144255500Y-101584174D01*
X144250201Y-101543927D01*
X144216126Y-101416760D01*
X144216123Y-101416752D01*
X144200597Y-101379268D01*
X144200594Y-101379262D01*
X144200592Y-101379257D01*
X144134766Y-101265243D01*
X144110054Y-101233038D01*
X144110050Y-101233034D01*
X144110047Y-101233030D01*
X144016969Y-101139952D01*
X144016964Y-101139948D01*
X144016962Y-101139946D01*
X143984757Y-101115234D01*
X143931640Y-101084567D01*
X143870745Y-101049409D01*
X143870731Y-101049402D01*
X143833247Y-101033876D01*
X143795778Y-101023836D01*
X143706073Y-100999799D01*
X143706068Y-100999798D01*
X143706066Y-100999798D01*
X143665832Y-100994500D01*
X143665826Y-100994500D01*
X143623584Y-100994500D01*
X143556545Y-100974815D01*
X143535903Y-100958181D01*
X142740481Y-100162759D01*
X142706996Y-100101436D01*
X142704162Y-100075078D01*
X142704162Y-100020413D01*
X142704162Y-100020411D01*
X142678572Y-99924908D01*
X142629137Y-99839284D01*
X142559224Y-99769371D01*
X142473600Y-99719936D01*
X142378097Y-99694346D01*
X142279227Y-99694346D01*
X142183724Y-99719936D01*
X142183722Y-99719937D01*
X142183721Y-99719937D01*
X142098098Y-99769372D01*
X142028188Y-99839282D01*
X141978753Y-99924905D01*
X141978753Y-99924906D01*
X141978752Y-99924908D01*
X141953162Y-100020411D01*
X141953162Y-100119281D01*
X141978752Y-100214784D01*
X142028187Y-100300408D01*
X142098100Y-100370321D01*
X142183724Y-100419756D01*
X142279227Y-100445346D01*
X142279229Y-100445346D01*
X142333895Y-100445346D01*
X142400934Y-100465031D01*
X142421576Y-100481665D01*
X142727729Y-100787819D01*
X142761214Y-100849142D01*
X142756230Y-100918834D01*
X142714358Y-100974767D01*
X142648894Y-100999184D01*
X142640048Y-100999500D01*
X141785178Y-100999500D01*
X141741282Y-101008231D01*
X141741275Y-101008234D01*
X141691496Y-101041495D01*
X141691495Y-101041496D01*
X141658234Y-101091275D01*
X141658231Y-101091282D01*
X141649500Y-101135177D01*
X141649500Y-101135180D01*
X141649500Y-102664820D01*
X141649500Y-102664822D01*
X141649499Y-102664822D01*
X141658231Y-102708717D01*
X141658232Y-102708720D01*
X141658233Y-102708722D01*
X141691347Y-102758281D01*
X141712225Y-102824958D01*
X141693740Y-102892338D01*
X141641762Y-102939028D01*
X141588245Y-102951171D01*
X139167097Y-102951171D01*
X139145852Y-102944932D01*
X139123767Y-102943354D01*
X139112982Y-102935280D01*
X139100058Y-102931486D01*
X139085559Y-102914753D01*
X139067832Y-102901484D01*
X139063123Y-102888861D01*
X139054303Y-102878682D01*
X139051152Y-102856768D01*
X139043413Y-102836021D01*
X139046276Y-102822857D01*
X139044359Y-102809524D01*
X139053557Y-102789383D01*
X139058263Y-102767747D01*
X139071533Y-102750019D01*
X139073384Y-102745968D01*
X139079399Y-102739506D01*
X139114463Y-102704443D01*
X139114463Y-102704441D01*
X139310294Y-102508610D01*
X139310297Y-102508608D01*
X139327735Y-102491170D01*
X139327736Y-102491170D01*
X139391170Y-102427736D01*
X139414360Y-102371750D01*
X139425501Y-102344854D01*
X139425501Y-102255145D01*
X139425500Y-102255142D01*
X139425500Y-101846972D01*
X139445185Y-101779933D01*
X139461814Y-101759296D01*
X142861397Y-98359712D01*
X142861400Y-98359711D01*
X142878838Y-98342273D01*
X142878839Y-98342273D01*
X142942273Y-98278839D01*
X142942273Y-98278838D01*
X142959711Y-98261400D01*
X142959712Y-98261397D01*
X144122018Y-97099091D01*
X144141451Y-97088480D01*
X144158187Y-97073979D01*
X144171519Y-97072061D01*
X144183341Y-97065607D01*
X144205427Y-97067186D01*
X144227345Y-97064035D01*
X144239597Y-97069630D01*
G37*
%TD.AperFunction*%
%TA.AperFunction,Conductor*%
G36*
X155012830Y-96944519D02*
G01*
X155028585Y-96957846D01*
X155938181Y-97867442D01*
X155971666Y-97928765D01*
X155974500Y-97955123D01*
X155974500Y-98085186D01*
X156012636Y-98177254D01*
X156023201Y-98187819D01*
X156033813Y-98207255D01*
X156048314Y-98223989D01*
X156050230Y-98237320D01*
X156056686Y-98249142D01*
X156055106Y-98271228D01*
X156058258Y-98293147D01*
X156052662Y-98305398D01*
X156051702Y-98318834D01*
X156038431Y-98336560D01*
X156029233Y-98356703D01*
X156017901Y-98363985D01*
X156009830Y-98374767D01*
X155989084Y-98382504D01*
X155970455Y-98394477D01*
X155948536Y-98397628D01*
X155944366Y-98399184D01*
X155935520Y-98399500D01*
X155863700Y-98399500D01*
X155796661Y-98379815D01*
X155776019Y-98363181D01*
X154614554Y-97201715D01*
X154581069Y-97140392D01*
X154586053Y-97070700D01*
X154627925Y-97014767D01*
X154693389Y-96990350D01*
X154702235Y-96990034D01*
X154737839Y-96990034D01*
X154737842Y-96990034D01*
X154833345Y-96964444D01*
X154878906Y-96938139D01*
X154946803Y-96921667D01*
X155012830Y-96944519D01*
G37*
%TD.AperFunction*%
%TA.AperFunction,Conductor*%
G36*
X153336695Y-89611493D02*
G01*
X153342738Y-89610916D01*
X153368750Y-89624325D01*
X153395923Y-89635204D01*
X153400824Y-89640860D01*
X153404841Y-89642931D01*
X153426658Y-89670674D01*
X153451234Y-89713240D01*
X153461928Y-89731762D01*
X153531841Y-89801675D01*
X153617465Y-89851110D01*
X153712968Y-89876700D01*
X153712970Y-89876700D01*
X153805032Y-89876700D01*
X153872071Y-89896385D01*
X153917826Y-89949189D01*
X153927770Y-90018347D01*
X153898745Y-90081903D01*
X153892713Y-90088381D01*
X151841847Y-92139247D01*
X151780524Y-92172732D01*
X151754166Y-92175566D01*
X151752980Y-92175566D01*
X151663271Y-92175566D01*
X151663269Y-92175566D01*
X151663267Y-92175567D01*
X151580392Y-92209893D01*
X150232007Y-93558278D01*
X150170684Y-93591763D01*
X150100992Y-93586779D01*
X150045059Y-93544907D01*
X150036945Y-93532607D01*
X150000475Y-93469438D01*
X149930562Y-93399525D01*
X149844940Y-93350091D01*
X149844939Y-93350090D01*
X149798056Y-93337528D01*
X149786235Y-93334360D01*
X149726576Y-93297995D01*
X149696047Y-93235148D01*
X149704342Y-93165773D01*
X149730647Y-93126907D01*
X152950114Y-89907439D01*
X153000071Y-89878599D01*
X152999831Y-89878019D01*
X153004241Y-89876192D01*
X153005708Y-89875345D01*
X153007341Y-89874908D01*
X153092965Y-89825473D01*
X153162878Y-89755560D01*
X153211887Y-89670672D01*
X153216278Y-89666485D01*
X153218264Y-89660749D01*
X153241267Y-89642658D01*
X153262451Y-89622460D01*
X153268412Y-89621310D01*
X153273185Y-89617558D01*
X153302314Y-89614776D01*
X153331058Y-89609236D01*
X153336695Y-89611493D01*
G37*
%TD.AperFunction*%
%TD*%
M02*
