%TF.GenerationSoftware,KiCad,Pcbnew,10.0.3*%
%TF.CreationDate,2026-07-21T14:30:20+10:00*%
%TF.ProjectId,epaper-smart-watch,65706170-6572-42d7-936d-6172742d7761,rev?*%
%TF.SameCoordinates,Original*%
%TF.FileFunction,Profile,NP*%
%FSLAX46Y46*%
G04 Gerber Fmt 4.6, Leading zero omitted, Abs format (unit mm)*
G04 Created by KiCad (PCBNEW 10.0.3) date 2026-07-21 14:30:20*
%MOMM*%
%LPD*%
G01*
G04 APERTURE LIST*
%TA.AperFunction,Profile*%
%ADD10C,0.100000*%
%TD*%
%TA.AperFunction,Profile*%
%ADD11C,0.250000*%
%TD*%
G04 APERTURE END LIST*
D10*
X132200000Y-94900000D02*
X132200000Y-110100000D01*
X136383138Y-94900000D02*
X132200000Y-94900000D01*
X136383138Y-94900000D02*
G75*
G02*
X169016862Y-94900000I16316862J-7599999D01*
G01*
X136383138Y-110100000D02*
X132200000Y-110100000D01*
X140500000Y-92000000D02*
G75*
G02*
X138900000Y-92000000I-800000J0D01*
G01*
X138900000Y-92000000D02*
G75*
G02*
X140500000Y-92000000I800000J0D01*
G01*
X140500000Y-113000000D02*
G75*
G02*
X138900000Y-113000000I-800000J0D01*
G01*
X138900000Y-113000000D02*
G75*
G02*
X140500000Y-113000000I800000J0D01*
G01*
X166500000Y-91500000D02*
G75*
G02*
X164900000Y-91500000I-800000J0D01*
G01*
X164900000Y-91500000D02*
G75*
G02*
X166500000Y-91500000I800000J0D01*
G01*
X166500000Y-113500000D02*
G75*
G02*
X164900000Y-113500000I-800000J0D01*
G01*
X164900000Y-113500000D02*
G75*
G02*
X166500000Y-113500000I800000J0D01*
G01*
X169016862Y-110100000D02*
G75*
G02*
X136383138Y-110100000I-16316862J7599999D01*
G01*
X169016862Y-110100000D02*
X173844362Y-110100000D01*
X173844362Y-94900000D02*
X169016862Y-94900000D01*
X173844362Y-94900000D02*
X173844362Y-97850000D01*
X173844362Y-106850000D02*
X173844362Y-110100000D01*
%TO.C,P1*%
D11*
X167244362Y-106850000D02*
X167244362Y-97850000D01*
X173844362Y-97850000D02*
X167244362Y-97850000D01*
X173844362Y-106850000D02*
X167244362Y-106850000D01*
%TD*%
M02*
