M48
; DRILL file KiCad 10.0.3 date 2026-07-19T10:29:48
; FORMAT={-:-/ absolute / inch / decimal}
; #@! TF.CreationDate,2026-07-19T10:29:48+10:00
; #@! TF.GenerationSoftware,Kicad,Pcbnew,10.0.3
; #@! TF.FileFunction,Plated,1,4,PTH
FMAT,2
INCH
; #@! TA.AperFunction,Plated,PTH,ViaDrill
T1C0.0079
; #@! TA.AperFunction,Plated,PTH,ViaDrill
T2C0.0118
; #@! TA.AperFunction,Plated,PTH,ComponentDrill
T3C0.0236
%
G90
G05
T1
X5.2402Y-4.2913
X5.2795Y-3.8307
X5.2874Y-4.2244
X5.3056Y-4.0387
X5.3218Y-4.0
X5.3236Y-4.0236
X5.3264Y-3.9443
X5.3386Y-4.0591
X5.378Y-4.2441
X5.4383Y-4.003
X5.4409Y-4.3976
X5.4411Y-4.0621
X5.4414Y-4.0385
X5.4441Y-4.1231
X5.4486Y-4.0846
X5.4528Y-3.8976
X5.4555Y-4.0195
X5.4567Y-3.7323
X5.4567Y-3.7677
X5.4799Y-3.8452
X5.4882Y-4.3701
X5.5031Y-3.9203
X5.5276Y-4.2638
X5.5354Y-3.7402
X5.5472Y-4.2913
X5.5669Y-3.9724
X5.5748Y-3.7165
X5.6035Y-3.9398
X5.622Y-4.1732
X5.6535Y-4.1339
X5.6575Y-4.3268
X5.6772Y-4.4094
X5.687Y-4.0817
X5.689Y-4.5591
X5.6969Y-4.437
X5.7008Y-4.2283
X5.7224Y-3.8268
X5.7244Y-3.5433
X5.7323Y-3.4409
X5.7427Y-4.2913
X5.7441Y-4.1772
X5.7441Y-4.2677
X5.7461Y-4.2126
X5.7635Y-3.5026
X5.7835Y-4.063
X5.8016Y-3.6212
X5.8051Y-4.0906
X5.8248Y-3.6164
X5.8327Y-3.691
X5.8327Y-3.8394
X5.8386Y-4.1929
X5.8386Y-4.2441
X5.8393Y-4.2165
X5.8403Y-3.6423
X5.8517Y-3.6215
X5.8544Y-4.6134
X5.8661Y-4.0827
X5.878Y-3.8386
X5.8819Y-3.9882
X5.8937Y-3.689
X5.8937Y-3.7598
X5.9055Y-3.5541
X5.9134Y-4.2638
X5.9154Y-4.1378
X5.9173Y-3.7559
X5.9173Y-4.0354
X5.9252Y-3.8346
X5.9482Y-3.5199
X5.9488Y-3.8386
X5.9493Y-4.2643
X5.9508Y-4.1063
X5.9606Y-3.8045
X5.9717Y-3.5217
X5.9754Y-3.7283
X5.9786Y-3.657
X5.984Y-3.7018
X5.9862Y-4.0218
X5.9903Y-3.807
X5.9931Y-3.4813
X5.9952Y-3.5192
X6.0Y-3.9016
X6.0079Y-4.122
X6.0086Y-3.5844
X6.0135Y-3.8383
X6.0182Y-3.5246
X6.0194Y-3.6962
X6.0197Y-4.5236
X6.0258Y-3.815
X6.0472Y-3.6929
X6.0494Y-3.8147
X6.0531Y-4.1569
X6.0536Y-3.5237
X6.0591Y-3.7577
X6.0663Y-4.0374
X6.0748Y-3.998
X6.0755Y-3.9743
X6.077Y-3.9508
X6.0787Y-3.5236
X6.0793Y-3.6877
X6.0901Y-3.8037
X6.0933Y-3.9058
X6.0945Y-3.7441
X6.0945Y-4.2992
X6.096Y-3.5849
X6.1024Y-3.6929
X6.1142Y-4.0827
X6.1164Y-3.9009
X6.1201Y-3.7844
X6.1221Y-3.8492
X6.1417Y-3.6817
X6.1417Y-3.7087
X6.1529Y-3.801
X6.1541Y-3.6204
X6.1575Y-3.3661
X6.1575Y-3.4409
X6.1693Y-3.7165
X6.1739Y-3.5074
X6.1792Y-3.8618
X6.1794Y-3.56
X6.1949Y-4.1142
X6.196Y-3.8786
X6.1969Y-3.6181
X6.1979Y-3.5095
X6.2126Y-3.7992
X6.2141Y-4.5069
X6.2214Y-3.5074
X6.2362Y-3.6654
X6.2677Y-3.4213
X6.2835Y-3.7008
X6.2955Y-4.2872
X6.315Y-4.0413
X6.3154Y-4.0157
X6.3346Y-4.0866
X6.3583Y-3.7441
X6.3661Y-4.0984
X6.4252Y-4.3898
X6.4449Y-4.5236
X6.486Y-4.0915
X6.5157Y-4.002
X6.5269Y-4.0416
X6.5354Y-4.2835
T2
X5.4626Y-3.6708
X5.6201Y-4.537
X5.7776Y-3.4346
X5.8563Y-4.6944
X5.9351Y-4.537
X6.0925Y-4.537
X6.1713Y-3.9858
X6.1713Y-4.3007
X6.1713Y-4.6157
X6.1713Y-4.6944
X6.25Y-4.4582
X6.3288Y-3.5133
X6.3288Y-3.5921
X6.3288Y-3.6708
X6.3288Y-4.537
X6.3288Y-4.6157
X6.4075Y-3.5133
X6.4075Y-3.5921
X6.4075Y-3.6708
X6.4862Y-3.6708
X6.4862Y-3.7496
X6.565Y-3.6708
X6.565Y-3.7496
X6.565Y-3.8283
X6.565Y-4.222
X6.565Y-4.3007
X6.565Y-4.3795
X6.6437Y-3.8283
X6.6437Y-4.3007
X6.7225Y-3.8283
X6.7225Y-4.3007
X6.8012Y-3.8283
X6.8012Y-4.3007
T3
G00X6.5903Y-3.8102
M15
G01X6.61Y-3.8102
M16
G05
G00X6.5903Y-4.2528
M15
G01X6.61Y-4.2528
M16
G05
G00X6.7399Y-3.8102
M15
G01X6.7754Y-3.8102
M16
G05
G00X6.7399Y-4.2528
M15
G01X6.7754Y-4.2528
M16
G05
M30
