%TF.GenerationSoftware,KiCad,Pcbnew,8.0.7*%
%TF.CreationDate,2025-01-11T23:39:27+09:00*%
%TF.ProjectId,epaper-smart-watch,65706170-6572-42d7-936d-6172742d7761,rev?*%
%TF.SameCoordinates,Original*%
%TF.FileFunction,Legend,Top*%
%TF.FilePolarity,Positive*%
%FSLAX46Y46*%
G04 Gerber Fmt 4.6, Leading zero omitted, Abs format (unit mm)*
G04 Created by KiCad (PCBNEW 8.0.7) date 2025-01-11 23:39:27*
%MOMM*%
%LPD*%
G01*
G04 APERTURE LIST*
G04 Aperture macros list*
%AMRoundRect*
0 Rectangle with rounded corners*
0 $1 Rounding radius*
0 $2 $3 $4 $5 $6 $7 $8 $9 X,Y pos of 4 corners*
0 Add a 4 corners polygon primitive as box body*
4,1,4,$2,$3,$4,$5,$6,$7,$8,$9,$2,$3,0*
0 Add four circle primitives for the rounded corners*
1,1,$1+$1,$2,$3*
1,1,$1+$1,$4,$5*
1,1,$1+$1,$6,$7*
1,1,$1+$1,$8,$9*
0 Add four rect primitives between the rounded corners*
20,1,$1+$1,$2,$3,$4,$5,0*
20,1,$1+$1,$4,$5,$6,$7,0*
20,1,$1+$1,$6,$7,$8,$9,0*
20,1,$1+$1,$8,$9,$2,$3,0*%
%AMRotRect*
0 Rectangle, with rotation*
0 The origin of the aperture is its center*
0 $1 length*
0 $2 width*
0 $3 Rotation angle, in degrees counterclockwise*
0 Add horizontal line*
21,1,$1,$2,0,0,$3*%
G04 Aperture macros list end*
%ADD10C,0.150000*%
%ADD11C,0.100000*%
%ADD12C,0.120000*%
%ADD13C,0.254000*%
%ADD14C,0.200000*%
%ADD15C,0.250000*%
%ADD16R,0.400000X0.480000*%
%ADD17RoundRect,0.140000X-0.140000X-0.170000X0.140000X-0.170000X0.140000X0.170000X-0.140000X0.170000X0*%
%ADD18C,0.700000*%
%ADD19O,2.000000X1.200000*%
%ADD20O,1.800000X1.200000*%
%ADD21R,1.300000X0.300000*%
%ADD22RoundRect,0.150000X-0.587500X-0.150000X0.587500X-0.150000X0.587500X0.150000X-0.587500X0.150000X0*%
%ADD23R,1.200000X3.700000*%
%ADD24R,0.700000X1.200000*%
%ADD25R,0.230000X0.920000*%
%ADD26RoundRect,0.250000X-0.250000X-0.475000X0.250000X-0.475000X0.250000X0.475000X-0.250000X0.475000X0*%
%ADD27RoundRect,0.135000X-0.185000X0.135000X-0.185000X-0.135000X0.185000X-0.135000X0.185000X0.135000X0*%
%ADD28RoundRect,0.135000X0.185000X-0.135000X0.185000X0.135000X-0.185000X0.135000X-0.185000X-0.135000X0*%
%ADD29RoundRect,0.140000X0.170000X-0.140000X0.170000X0.140000X-0.170000X0.140000X-0.170000X-0.140000X0*%
%ADD30RoundRect,0.140000X-0.170000X0.140000X-0.170000X-0.140000X0.170000X-0.140000X0.170000X0.140000X0*%
%ADD31RoundRect,0.135000X-0.135000X-0.185000X0.135000X-0.185000X0.135000X0.185000X-0.135000X0.185000X0*%
%ADD32RoundRect,0.218750X0.256250X-0.218750X0.256250X0.218750X-0.256250X0.218750X-0.256250X-0.218750X0*%
%ADD33RoundRect,0.225000X0.225000X0.375000X-0.225000X0.375000X-0.225000X-0.375000X0.225000X-0.375000X0*%
%ADD34R,0.300000X1.400000*%
%ADD35R,1.000000X1.500000*%
%ADD36RoundRect,0.140000X0.140000X0.170000X-0.140000X0.170000X-0.140000X-0.170000X0.140000X-0.170000X0*%
%ADD37RoundRect,0.135000X0.135000X0.185000X-0.135000X0.185000X-0.135000X-0.185000X0.135000X-0.185000X0*%
%ADD38R,0.450000X0.700000*%
%ADD39C,0.800000*%
%ADD40RotRect,0.900000X1.700000X55.000000*%
%ADD41RoundRect,0.218750X-0.256250X0.218750X-0.256250X-0.218750X0.256250X-0.218750X0.256250X0.218750X0*%
%ADD42RotRect,0.900000X1.700000X125.000000*%
%ADD43RoundRect,0.112500X-0.112500X0.187500X-0.112500X-0.187500X0.112500X-0.187500X0.112500X0.187500X0*%
%ADD44RoundRect,0.225000X0.375000X-0.225000X0.375000X0.225000X-0.375000X0.225000X-0.375000X-0.225000X0*%
%ADD45RoundRect,0.250000X0.250000X0.475000X-0.250000X0.475000X-0.250000X-0.475000X0.250000X-0.475000X0*%
%ADD46RotRect,0.900000X1.700000X305.000000*%
%ADD47RoundRect,0.225000X-0.375000X0.225000X-0.375000X-0.225000X0.375000X-0.225000X0.375000X0.225000X0*%
%ADD48RotRect,0.900000X1.700000X235.000000*%
%ADD49R,0.350000X0.350000*%
%ADD50R,0.300000X0.350000*%
%ADD51R,0.350000X0.250000*%
%ADD52R,0.300000X0.300000*%
%ADD53R,0.600000X0.600000*%
%ADD54RoundRect,0.087500X-0.087500X0.225000X-0.087500X-0.225000X0.087500X-0.225000X0.087500X0.225000X0*%
%ADD55RoundRect,0.087500X-0.225000X0.087500X-0.225000X-0.087500X0.225000X-0.087500X0.225000X0.087500X0*%
%ADD56R,0.250000X0.900000*%
%ADD57R,2.120000X1.310000*%
G04 APERTURE END LIST*
D10*
X137144819Y-105726666D02*
X136668628Y-106059999D01*
X137144819Y-106298094D02*
X136144819Y-106298094D01*
X136144819Y-106298094D02*
X136144819Y-105917142D01*
X136144819Y-105917142D02*
X136192438Y-105821904D01*
X136192438Y-105821904D02*
X136240057Y-105774285D01*
X136240057Y-105774285D02*
X136335295Y-105726666D01*
X136335295Y-105726666D02*
X136478152Y-105726666D01*
X136478152Y-105726666D02*
X136573390Y-105774285D01*
X136573390Y-105774285D02*
X136621009Y-105821904D01*
X136621009Y-105821904D02*
X136668628Y-105917142D01*
X136668628Y-105917142D02*
X136668628Y-106298094D01*
X137144819Y-104774285D02*
X137144819Y-105345713D01*
X137144819Y-105059999D02*
X136144819Y-105059999D01*
X136144819Y-105059999D02*
X136287676Y-105155237D01*
X136287676Y-105155237D02*
X136382914Y-105250475D01*
X136382914Y-105250475D02*
X136430533Y-105345713D01*
X136784819Y-103308094D02*
X135784819Y-103308094D01*
X135784819Y-103308094D02*
X135784819Y-103069999D01*
X135784819Y-103069999D02*
X135832438Y-102927142D01*
X135832438Y-102927142D02*
X135927676Y-102831904D01*
X135927676Y-102831904D02*
X136022914Y-102784285D01*
X136022914Y-102784285D02*
X136213390Y-102736666D01*
X136213390Y-102736666D02*
X136356247Y-102736666D01*
X136356247Y-102736666D02*
X136546723Y-102784285D01*
X136546723Y-102784285D02*
X136641961Y-102831904D01*
X136641961Y-102831904D02*
X136737200Y-102927142D01*
X136737200Y-102927142D02*
X136784819Y-103069999D01*
X136784819Y-103069999D02*
X136784819Y-103308094D01*
X135880057Y-102355713D02*
X135832438Y-102308094D01*
X135832438Y-102308094D02*
X135784819Y-102212856D01*
X135784819Y-102212856D02*
X135784819Y-101974761D01*
X135784819Y-101974761D02*
X135832438Y-101879523D01*
X135832438Y-101879523D02*
X135880057Y-101831904D01*
X135880057Y-101831904D02*
X135975295Y-101784285D01*
X135975295Y-101784285D02*
X136070533Y-101784285D01*
X136070533Y-101784285D02*
X136213390Y-101831904D01*
X136213390Y-101831904D02*
X136784819Y-102403332D01*
X136784819Y-102403332D02*
X136784819Y-101784285D01*
X144444819Y-90968094D02*
X143444819Y-90968094D01*
X143444819Y-90968094D02*
X143444819Y-90729999D01*
X143444819Y-90729999D02*
X143492438Y-90587142D01*
X143492438Y-90587142D02*
X143587676Y-90491904D01*
X143587676Y-90491904D02*
X143682914Y-90444285D01*
X143682914Y-90444285D02*
X143873390Y-90396666D01*
X143873390Y-90396666D02*
X144016247Y-90396666D01*
X144016247Y-90396666D02*
X144206723Y-90444285D01*
X144206723Y-90444285D02*
X144301961Y-90491904D01*
X144301961Y-90491904D02*
X144397200Y-90587142D01*
X144397200Y-90587142D02*
X144444819Y-90729999D01*
X144444819Y-90729999D02*
X144444819Y-90968094D01*
X143444819Y-89539523D02*
X143444819Y-89729999D01*
X143444819Y-89729999D02*
X143492438Y-89825237D01*
X143492438Y-89825237D02*
X143540057Y-89872856D01*
X143540057Y-89872856D02*
X143682914Y-89968094D01*
X143682914Y-89968094D02*
X143873390Y-90015713D01*
X143873390Y-90015713D02*
X144254342Y-90015713D01*
X144254342Y-90015713D02*
X144349580Y-89968094D01*
X144349580Y-89968094D02*
X144397200Y-89920475D01*
X144397200Y-89920475D02*
X144444819Y-89825237D01*
X144444819Y-89825237D02*
X144444819Y-89634761D01*
X144444819Y-89634761D02*
X144397200Y-89539523D01*
X144397200Y-89539523D02*
X144349580Y-89491904D01*
X144349580Y-89491904D02*
X144254342Y-89444285D01*
X144254342Y-89444285D02*
X144016247Y-89444285D01*
X144016247Y-89444285D02*
X143921009Y-89491904D01*
X143921009Y-89491904D02*
X143873390Y-89539523D01*
X143873390Y-89539523D02*
X143825771Y-89634761D01*
X143825771Y-89634761D02*
X143825771Y-89825237D01*
X143825771Y-89825237D02*
X143873390Y-89920475D01*
X143873390Y-89920475D02*
X143921009Y-89968094D01*
X143921009Y-89968094D02*
X144016247Y-90015713D01*
X148454819Y-107730594D02*
X147454819Y-107730594D01*
X147454819Y-107730594D02*
X147454819Y-107492499D01*
X147454819Y-107492499D02*
X147502438Y-107349642D01*
X147502438Y-107349642D02*
X147597676Y-107254404D01*
X147597676Y-107254404D02*
X147692914Y-107206785D01*
X147692914Y-107206785D02*
X147883390Y-107159166D01*
X147883390Y-107159166D02*
X148026247Y-107159166D01*
X148026247Y-107159166D02*
X148216723Y-107206785D01*
X148216723Y-107206785D02*
X148311961Y-107254404D01*
X148311961Y-107254404D02*
X148407200Y-107349642D01*
X148407200Y-107349642D02*
X148454819Y-107492499D01*
X148454819Y-107492499D02*
X148454819Y-107730594D01*
X148454819Y-106682975D02*
X148454819Y-106492499D01*
X148454819Y-106492499D02*
X148407200Y-106397261D01*
X148407200Y-106397261D02*
X148359580Y-106349642D01*
X148359580Y-106349642D02*
X148216723Y-106254404D01*
X148216723Y-106254404D02*
X148026247Y-106206785D01*
X148026247Y-106206785D02*
X147645295Y-106206785D01*
X147645295Y-106206785D02*
X147550057Y-106254404D01*
X147550057Y-106254404D02*
X147502438Y-106302023D01*
X147502438Y-106302023D02*
X147454819Y-106397261D01*
X147454819Y-106397261D02*
X147454819Y-106587737D01*
X147454819Y-106587737D02*
X147502438Y-106682975D01*
X147502438Y-106682975D02*
X147550057Y-106730594D01*
X147550057Y-106730594D02*
X147645295Y-106778213D01*
X147645295Y-106778213D02*
X147883390Y-106778213D01*
X147883390Y-106778213D02*
X147978628Y-106730594D01*
X147978628Y-106730594D02*
X148026247Y-106682975D01*
X148026247Y-106682975D02*
X148073866Y-106587737D01*
X148073866Y-106587737D02*
X148073866Y-106397261D01*
X148073866Y-106397261D02*
X148026247Y-106302023D01*
X148026247Y-106302023D02*
X147978628Y-106254404D01*
X147978628Y-106254404D02*
X147883390Y-106206785D01*
X146974819Y-98021904D02*
X147784342Y-98021904D01*
X147784342Y-98021904D02*
X147879580Y-97974285D01*
X147879580Y-97974285D02*
X147927200Y-97926666D01*
X147927200Y-97926666D02*
X147974819Y-97831428D01*
X147974819Y-97831428D02*
X147974819Y-97640952D01*
X147974819Y-97640952D02*
X147927200Y-97545714D01*
X147927200Y-97545714D02*
X147879580Y-97498095D01*
X147879580Y-97498095D02*
X147784342Y-97450476D01*
X147784342Y-97450476D02*
X146974819Y-97450476D01*
X146974819Y-97069523D02*
X146974819Y-96450476D01*
X146974819Y-96450476D02*
X147355771Y-96783809D01*
X147355771Y-96783809D02*
X147355771Y-96640952D01*
X147355771Y-96640952D02*
X147403390Y-96545714D01*
X147403390Y-96545714D02*
X147451009Y-96498095D01*
X147451009Y-96498095D02*
X147546247Y-96450476D01*
X147546247Y-96450476D02*
X147784342Y-96450476D01*
X147784342Y-96450476D02*
X147879580Y-96498095D01*
X147879580Y-96498095D02*
X147927200Y-96545714D01*
X147927200Y-96545714D02*
X147974819Y-96640952D01*
X147974819Y-96640952D02*
X147974819Y-96926666D01*
X147974819Y-96926666D02*
X147927200Y-97021904D01*
X147927200Y-97021904D02*
X147879580Y-97069523D01*
D11*
%TO.C,D1*%
X137649000Y-93151000D02*
X137649000Y-94351000D01*
X138049000Y-92651000D02*
X138049000Y-92651000D01*
X138149000Y-92651000D02*
X138149000Y-92651000D01*
X138449000Y-93151000D02*
X138449000Y-94351000D01*
X138049000Y-92651000D02*
G75*
G02*
X138149000Y-92651000I50000J0D01*
G01*
X138149000Y-92651000D02*
G75*
G02*
X138049000Y-92651000I-50000J0D01*
G01*
D12*
%TO.C,C21*%
X156372164Y-99710000D02*
X156587836Y-99710000D01*
X156372164Y-100430000D02*
X156587836Y-100430000D01*
D13*
%TO.C,P1*%
X128706000Y-91428000D02*
X128706000Y-100572000D01*
X128706000Y-100572000D02*
X130279000Y-100572000D01*
X130279000Y-91428000D02*
X128706000Y-91428000D01*
X132463000Y-100572000D02*
X134359000Y-100572000D01*
X134359000Y-91428000D02*
X132463000Y-91428000D01*
D12*
%TO.C,Q1*%
X148600000Y-101945000D02*
X146925000Y-101945000D01*
X148600000Y-101945000D02*
X149250000Y-101945000D01*
X148600000Y-105065000D02*
X147950000Y-105065000D01*
X148600000Y-105065000D02*
X149250000Y-105065000D01*
%TO.C,L1*%
X137570000Y-86650000D02*
X141570000Y-86650000D01*
X137570000Y-90850000D02*
X141570000Y-90850000D01*
%TO.C,J1*%
X140050000Y-81810000D02*
X140050000Y-86310000D01*
X140050000Y-86310000D02*
X140940000Y-86310000D01*
X141140000Y-81810000D02*
X140050000Y-81810000D01*
X146550000Y-81810000D02*
X147550000Y-81810000D01*
X147550000Y-81810000D02*
X147550000Y-86310000D01*
X147550000Y-86310000D02*
X146460000Y-86310000D01*
%TO.C,C4*%
X148442164Y-82740000D02*
X148657836Y-82740000D01*
X148442164Y-83460000D02*
X148657836Y-83460000D01*
%TO.C,C11*%
X149488748Y-88815000D02*
X150011252Y-88815000D01*
X149488748Y-90285000D02*
X150011252Y-90285000D01*
D11*
%TO.C,D4*%
X137649000Y-100193000D02*
X137649000Y-98993000D01*
X137949000Y-100693000D02*
X137949000Y-100693000D01*
X138049000Y-100693000D02*
X138049000Y-100693000D01*
X138449000Y-100193000D02*
X138449000Y-98993000D01*
X137949000Y-100693000D02*
G75*
G02*
X138049000Y-100693000I50000J0D01*
G01*
X138049000Y-100693000D02*
G75*
G02*
X137949000Y-100693000I-50000J0D01*
G01*
D12*
%TO.C,R2*%
X147030000Y-98186359D02*
X147030000Y-98493641D01*
X147790000Y-98186359D02*
X147790000Y-98493641D01*
%TO.C,R1*%
X137480000Y-105713641D02*
X137480000Y-105406359D01*
X138240000Y-105713641D02*
X138240000Y-105406359D01*
%TO.C,C15*%
X141110000Y-92767836D02*
X141110000Y-92552164D01*
X141830000Y-92767836D02*
X141830000Y-92552164D01*
%TO.C,C14*%
X144892164Y-100740000D02*
X145107836Y-100740000D01*
X144892164Y-101460000D02*
X145107836Y-101460000D01*
%TO.C,C25*%
X142865000Y-96492164D02*
X142865000Y-96707836D01*
X143585000Y-96492164D02*
X143585000Y-96707836D01*
%TO.C,C12*%
X142820000Y-108032164D02*
X142820000Y-108247836D01*
X143540000Y-108032164D02*
X143540000Y-108247836D01*
%TO.C,C16*%
X145940000Y-94427836D02*
X145940000Y-94212164D01*
X146660000Y-94427836D02*
X146660000Y-94212164D01*
%TO.C,C13*%
X143112164Y-103290000D02*
X143327836Y-103290000D01*
X143112164Y-104010000D02*
X143327836Y-104010000D01*
%TO.C,R15*%
X143856359Y-93620000D02*
X144163641Y-93620000D01*
X143856359Y-94380000D02*
X144163641Y-94380000D01*
%TO.C,D2*%
X137025000Y-101770000D02*
X137025000Y-104055000D01*
X137025000Y-104055000D02*
X138495000Y-104055000D01*
X138495000Y-104055000D02*
X138495000Y-101770000D01*
%TO.C,D5*%
X152760000Y-90700000D02*
X148750000Y-90700000D01*
X152760000Y-92700000D02*
X148750000Y-92700000D01*
X152760000Y-92700000D02*
X152760000Y-90700000D01*
D10*
%TO.C,U1*%
X139225000Y-95225000D02*
X139525000Y-95225000D01*
X139225000Y-98575000D02*
X139225000Y-95225000D01*
X139225000Y-98575000D02*
X139450000Y-98575000D01*
X139450000Y-98575000D02*
X139450000Y-99800000D01*
X142575000Y-95225000D02*
X142275000Y-95225000D01*
X142575000Y-98575000D02*
X142275000Y-98575000D01*
X142575000Y-98575000D02*
X142575000Y-95225000D01*
D12*
%TO.C,R9*%
X136470000Y-105723641D02*
X136470000Y-105416359D01*
X137230000Y-105723641D02*
X137230000Y-105416359D01*
%TO.C,J3*%
X138315000Y-106800000D02*
X142415000Y-106800000D01*
X138315000Y-108800000D02*
X138315000Y-106800000D01*
X141665000Y-106600000D02*
X141365000Y-106300000D01*
X141665000Y-106600000D02*
X141965000Y-106300000D01*
X141965000Y-106300000D02*
X141365000Y-106300000D01*
X142415000Y-106800000D02*
X142415000Y-108800000D01*
X142415000Y-108800000D02*
X138315000Y-108800000D01*
%TO.C,C8*%
X136457836Y-85790000D02*
X136242164Y-85790000D01*
X136457836Y-86510000D02*
X136242164Y-86510000D01*
%TO.C,C19*%
X152770000Y-100432164D02*
X152770000Y-100647836D01*
X153490000Y-100432164D02*
X153490000Y-100647836D01*
%TO.C,C2*%
X136440000Y-89492164D02*
X136440000Y-89707836D01*
X137160000Y-89492164D02*
X137160000Y-89707836D01*
%TO.C,C22*%
X144892164Y-101740000D02*
X145107836Y-101740000D01*
X144892164Y-102460000D02*
X145107836Y-102460000D01*
%TO.C,R3*%
X136043641Y-101200000D02*
X135736359Y-101200000D01*
X136043641Y-101960000D02*
X135736359Y-101960000D01*
%TO.C,C20*%
X154462164Y-99720000D02*
X154677836Y-99720000D01*
X154462164Y-100440000D02*
X154677836Y-100440000D01*
%TO.C,Q3*%
X137590000Y-84040000D02*
X137590000Y-85450000D01*
X138250000Y-85450000D02*
X137590000Y-85450000D01*
X139910000Y-85450000D02*
X139250000Y-85450000D01*
X139910000Y-85450000D02*
X139910000Y-83420000D01*
%TO.C,R14*%
X142080000Y-92833641D02*
X142080000Y-92526359D01*
X142840000Y-92833641D02*
X142840000Y-92526359D01*
%TO.C,SW1*%
X131106786Y-88648594D02*
X132999588Y-85945392D01*
X131192992Y-87305066D02*
X131217482Y-87932601D01*
X131192992Y-87305066D02*
X131766569Y-86485913D01*
X131217482Y-87932601D02*
X131479611Y-88116145D01*
X131352532Y-88820667D02*
X131106786Y-88648594D01*
X131766569Y-86485913D02*
X132364635Y-86294296D01*
X132364635Y-86294296D02*
X132626764Y-86477841D01*
X132999588Y-85945392D02*
X133245334Y-86117465D01*
X133154666Y-90082535D02*
X133400412Y-90254608D01*
X133400412Y-90254608D02*
X135293214Y-87551406D01*
X135293214Y-87551406D02*
X135047468Y-87379333D01*
%TO.C,D6*%
X141825000Y-88745000D02*
X141825000Y-91030000D01*
X143295000Y-88745000D02*
X141825000Y-88745000D01*
X143295000Y-91030000D02*
X143295000Y-88745000D01*
%TO.C,R4*%
X137893359Y-91441000D02*
X138200641Y-91441000D01*
X137893359Y-92201000D02*
X138200641Y-92201000D01*
%TO.C,C1*%
X136440000Y-87727836D02*
X136440000Y-87512164D01*
X137160000Y-87727836D02*
X137160000Y-87512164D01*
%TO.C,SW4*%
X131106786Y-103351406D02*
X131352532Y-103179333D01*
X131192992Y-104694934D02*
X131217482Y-104067399D01*
X131217482Y-104067399D02*
X131479611Y-103883855D01*
X131766569Y-105514087D02*
X131192992Y-104694934D01*
X131766569Y-105514087D02*
X132364635Y-105705704D01*
X132364635Y-105705704D02*
X132626764Y-105522159D01*
X132999588Y-106054608D02*
X131106786Y-103351406D01*
X133245334Y-105882535D02*
X132999588Y-106054608D01*
X133400412Y-101745392D02*
X133154666Y-101917465D01*
X135047468Y-104620667D02*
X135293214Y-104448594D01*
X135293214Y-104448594D02*
X133400412Y-101745392D01*
%TO.C,R16*%
X143836359Y-94620000D02*
X144143641Y-94620000D01*
X143836359Y-95380000D02*
X144143641Y-95380000D01*
D11*
%TO.C,D3*%
X137649000Y-97272000D02*
X137649000Y-96072000D01*
X137949000Y-97772000D02*
X137949000Y-97772000D01*
X138049000Y-97772000D02*
X138049000Y-97772000D01*
X138449000Y-97272000D02*
X138449000Y-96072000D01*
X137949000Y-97772000D02*
G75*
G02*
X138049000Y-97772000I50000J0D01*
G01*
X138049000Y-97772000D02*
G75*
G02*
X137949000Y-97772000I-50000J0D01*
G01*
D12*
%TO.C,C9*%
X146940000Y-94427836D02*
X146940000Y-94212164D01*
X147660000Y-94427836D02*
X147660000Y-94212164D01*
%TO.C,D9*%
X145300000Y-105382500D02*
X145300000Y-108042500D01*
X147000000Y-105382500D02*
X145300000Y-105382500D01*
X147000000Y-105382500D02*
X147000000Y-108042500D01*
%TO.C,D8*%
X145850000Y-93310000D02*
X145850000Y-89300000D01*
X145850000Y-93310000D02*
X147850000Y-93310000D01*
X147850000Y-93310000D02*
X147850000Y-89300000D01*
%TO.C,C3*%
X144171252Y-87035000D02*
X143648748Y-87035000D01*
X144171252Y-88505000D02*
X143648748Y-88505000D01*
%TO.C,M1*%
X147500000Y-105600000D02*
X150300000Y-105600000D01*
X147500000Y-107600000D02*
X147500000Y-105600000D01*
X150300000Y-105600000D02*
X150300000Y-107600000D01*
X150300000Y-107600000D02*
X147500000Y-107600000D01*
%TO.C,SW2*%
X152306786Y-87551406D02*
X154199588Y-90254608D01*
X152552532Y-87379333D02*
X152306786Y-87551406D01*
X154199588Y-90254608D02*
X154445334Y-90082535D01*
X154354666Y-86117465D02*
X154600412Y-85945392D01*
X154600412Y-85945392D02*
X156493214Y-88648594D01*
X155235365Y-86294296D02*
X154973236Y-86477841D01*
X155833431Y-86485913D02*
X155235365Y-86294296D01*
X155833431Y-86485913D02*
X156407008Y-87305066D01*
X156382518Y-87932601D02*
X156120389Y-88116145D01*
X156407008Y-87305066D02*
X156382518Y-87932601D01*
X156493214Y-88648594D02*
X156247468Y-88820667D01*
%TO.C,C24*%
X142865000Y-98587836D02*
X142865000Y-98372164D01*
X143585000Y-98587836D02*
X143585000Y-98372164D01*
%TO.C,C7*%
X147722000Y-85442164D02*
X147722000Y-85657836D01*
X148442000Y-85442164D02*
X148442000Y-85657836D01*
%TO.C,C23*%
X148032164Y-108040000D02*
X148247836Y-108040000D01*
X148032164Y-108760000D02*
X148247836Y-108760000D01*
%TO.C,R6*%
X136186359Y-84770000D02*
X136493641Y-84770000D01*
X136186359Y-85530000D02*
X136493641Y-85530000D01*
%TO.C,C18*%
X144792164Y-99140000D02*
X145007836Y-99140000D01*
X144792164Y-99860000D02*
X145007836Y-99860000D01*
%TO.C,D7*%
X143450000Y-88770000D02*
X143450000Y-92780000D01*
X145450000Y-88770000D02*
X143450000Y-88770000D01*
X145450000Y-88770000D02*
X145450000Y-92780000D01*
%TO.C,R7*%
X147026019Y-96107025D02*
X147026019Y-96414307D01*
X147786019Y-96107025D02*
X147786019Y-96414307D01*
%TO.C,C6*%
X148740000Y-85442164D02*
X148740000Y-85657836D01*
X149460000Y-85442164D02*
X149460000Y-85657836D01*
%TO.C,C10*%
X147138748Y-86815000D02*
X147661252Y-86815000D01*
X147138748Y-88285000D02*
X147661252Y-88285000D01*
%TO.C,C5*%
X148452164Y-83670000D02*
X148667836Y-83670000D01*
X148452164Y-84390000D02*
X148667836Y-84390000D01*
%TO.C,SW3*%
X152306786Y-104448594D02*
X152552532Y-104620667D01*
X154199588Y-101745392D02*
X152306786Y-104448594D01*
X154445334Y-101917465D02*
X154199588Y-101745392D01*
X154600412Y-106054608D02*
X154354666Y-105882535D01*
X155235365Y-105705704D02*
X154973236Y-105522159D01*
X155833431Y-105514087D02*
X155235365Y-105705704D01*
X156247468Y-103179333D02*
X156493214Y-103351406D01*
X156382518Y-104067399D02*
X156120389Y-103883855D01*
X156407008Y-104694934D02*
X155833431Y-105514087D01*
X156407008Y-104694934D02*
X156382518Y-104067399D01*
X156493214Y-103351406D02*
X154600412Y-106054608D01*
D10*
%TO.C,U2*%
X148070000Y-92980000D02*
X148070000Y-99480000D01*
X148070000Y-99480000D02*
X158040000Y-99480000D01*
X158070000Y-92980000D02*
X148070000Y-92980000D01*
X158070000Y-99480000D02*
X158070000Y-92980000D01*
D14*
X157970000Y-92660000D02*
G75*
G02*
X157770000Y-92660000I-100000J0D01*
G01*
X157770000Y-92660000D02*
G75*
G02*
X157970000Y-92660000I100000J0D01*
G01*
D12*
%TO.C,R5*%
X142203641Y-100420000D02*
X141896359Y-100420000D01*
X142203641Y-101180000D02*
X141896359Y-101180000D01*
%TO.C,C17*%
X139140000Y-92647836D02*
X139140000Y-92432164D01*
X139860000Y-92647836D02*
X139860000Y-92432164D01*
%TO.C,U3*%
X143960000Y-95650000D02*
X144135000Y-95650000D01*
X143960000Y-96325000D02*
X143960000Y-95650000D01*
X143960000Y-98195000D02*
X143960000Y-98870000D01*
X143960000Y-98870000D02*
X144135000Y-98870000D01*
X146680000Y-96325000D02*
X146680000Y-95950000D01*
X146680000Y-98195000D02*
X146680000Y-98870000D01*
X146680000Y-98870000D02*
X146505000Y-98870000D01*
X146870000Y-95790000D02*
X146680000Y-95650000D01*
X146870000Y-95510000D01*
X146870000Y-95790000D01*
G36*
X146870000Y-95790000D02*
G01*
X146680000Y-95650000D01*
X146870000Y-95510000D01*
X146870000Y-95790000D01*
G37*
D15*
%TO.C,PS1*%
X142275000Y-102100000D02*
G75*
G02*
X142025000Y-102100000I-125000J0D01*
G01*
X142025000Y-102100000D02*
G75*
G02*
X142275000Y-102100000I125000J0D01*
G01*
%TD*%
%LPC*%
D16*
%TO.C,D1*%
X138049000Y-93091000D03*
X138049000Y-94411000D03*
%TD*%
D17*
%TO.C,C21*%
X156000000Y-100070000D03*
X156960000Y-100070000D03*
%TD*%
D18*
%TO.C,P1*%
X135021000Y-93110000D03*
X135021000Y-98890000D03*
D19*
X135551000Y-91680000D03*
X135551000Y-100320000D03*
D20*
X131371000Y-91680000D03*
X131371000Y-100320000D03*
D21*
X136201000Y-92650000D03*
X136201000Y-93450000D03*
X136201000Y-94750000D03*
X136201000Y-95750000D03*
X136201000Y-96250000D03*
X136201000Y-97250000D03*
X136201000Y-98550000D03*
X136201000Y-99350000D03*
X136201000Y-99050000D03*
X136201000Y-98250000D03*
X136201000Y-97750000D03*
X136201000Y-96750000D03*
X136201000Y-95250000D03*
X136201000Y-94250000D03*
X136201000Y-93750000D03*
X136201000Y-92950000D03*
%TD*%
D22*
%TO.C,Q1*%
X147662500Y-102555000D03*
X147662500Y-104455000D03*
X149537500Y-103505000D03*
%TD*%
D23*
%TO.C,L1*%
X138170000Y-88750000D03*
X140970000Y-88750000D03*
%TD*%
D24*
%TO.C,J1*%
X140700000Y-82600000D03*
X140700000Y-85600000D03*
X146900000Y-82600000D03*
X146900000Y-85600000D03*
D25*
X146000000Y-82460000D03*
X146000000Y-85740000D03*
X145600000Y-82460000D03*
X145600000Y-85740000D03*
X145200000Y-82460000D03*
X145200000Y-85740000D03*
X144800000Y-82460000D03*
X144800000Y-85740000D03*
X144400000Y-82460000D03*
X144400000Y-85740000D03*
X144000000Y-82460000D03*
X144000000Y-85740000D03*
X143600000Y-82460000D03*
X143600000Y-85740000D03*
X143200000Y-82460000D03*
X143200000Y-85740000D03*
X142800000Y-82460000D03*
X142800000Y-85740000D03*
X142400000Y-82460000D03*
X142400000Y-85740000D03*
X142000000Y-82460000D03*
X142000000Y-85740000D03*
X141600000Y-82460000D03*
X141600000Y-85740000D03*
%TD*%
D17*
%TO.C,C4*%
X148070000Y-83100000D03*
X149030000Y-83100000D03*
%TD*%
D26*
%TO.C,C11*%
X148800000Y-89550000D03*
X150700000Y-89550000D03*
%TD*%
D16*
%TO.C,D4*%
X138049000Y-100253000D03*
X138049000Y-98933000D03*
%TD*%
D27*
%TO.C,R2*%
X147410000Y-97830000D03*
X147410000Y-98850000D03*
%TD*%
D28*
%TO.C,R1*%
X137860000Y-106070000D03*
X137860000Y-105050000D03*
%TD*%
D29*
%TO.C,C15*%
X141470000Y-93140000D03*
X141470000Y-92180000D03*
%TD*%
D17*
%TO.C,C14*%
X144520000Y-101100000D03*
X145480000Y-101100000D03*
%TD*%
D30*
%TO.C,C25*%
X143225000Y-96120000D03*
X143225000Y-97080000D03*
%TD*%
%TO.C,C12*%
X143180000Y-107660000D03*
X143180000Y-108620000D03*
%TD*%
D29*
%TO.C,C16*%
X146300000Y-94800000D03*
X146300000Y-93840000D03*
%TD*%
D17*
%TO.C,C13*%
X142740000Y-103650000D03*
X143700000Y-103650000D03*
%TD*%
D31*
%TO.C,R15*%
X143500000Y-94000000D03*
X144520000Y-94000000D03*
%TD*%
D32*
%TO.C,D2*%
X137760000Y-103357500D03*
X137760000Y-101782500D03*
%TD*%
D33*
%TO.C,D5*%
X152050000Y-91700000D03*
X148750000Y-91700000D03*
%TD*%
D34*
%TO.C,U1*%
X139900000Y-99100000D03*
X140400000Y-99100000D03*
X140900000Y-99100000D03*
X141400000Y-99100000D03*
X141900000Y-99100000D03*
X141900000Y-94700000D03*
X141400000Y-94700000D03*
X140900000Y-94700000D03*
X140400000Y-94700000D03*
X139900000Y-94700000D03*
%TD*%
D28*
%TO.C,R9*%
X136850000Y-106080000D03*
X136850000Y-105060000D03*
%TD*%
D35*
%TO.C,J3*%
X141665000Y-107800000D03*
X140365000Y-107800000D03*
X139065000Y-107800000D03*
%TD*%
D36*
%TO.C,C8*%
X136830000Y-86150000D03*
X135870000Y-86150000D03*
%TD*%
D30*
%TO.C,C19*%
X153130000Y-100060000D03*
X153130000Y-101020000D03*
%TD*%
%TO.C,C2*%
X136800000Y-89120000D03*
X136800000Y-90080000D03*
%TD*%
D17*
%TO.C,C22*%
X144520000Y-102100000D03*
X145480000Y-102100000D03*
%TD*%
D37*
%TO.C,R3*%
X136400000Y-101580000D03*
X135380000Y-101580000D03*
%TD*%
D17*
%TO.C,C20*%
X154090000Y-100080000D03*
X155050000Y-100080000D03*
%TD*%
D38*
%TO.C,Q3*%
X139400000Y-83720000D03*
X138100000Y-83720000D03*
X138750000Y-85720000D03*
%TD*%
D28*
%TO.C,R14*%
X142460000Y-93190000D03*
X142460000Y-92170000D03*
%TD*%
D39*
%TO.C,SW1*%
X133200000Y-88100000D03*
D40*
X132224920Y-89492558D03*
X134175080Y-86707442D03*
%TD*%
D41*
%TO.C,D6*%
X142560000Y-89442500D03*
X142560000Y-91017500D03*
%TD*%
D31*
%TO.C,R4*%
X137537000Y-91821000D03*
X138557000Y-91821000D03*
%TD*%
D29*
%TO.C,C1*%
X136800000Y-88100000D03*
X136800000Y-87140000D03*
%TD*%
D39*
%TO.C,SW4*%
X133200000Y-103900000D03*
D42*
X134175080Y-105292558D03*
X132224920Y-102507442D03*
%TD*%
D31*
%TO.C,R16*%
X143480000Y-95000000D03*
X144500000Y-95000000D03*
%TD*%
D16*
%TO.C,D3*%
X138049000Y-97332000D03*
X138049000Y-96012000D03*
%TD*%
D29*
%TO.C,C9*%
X147300000Y-94800000D03*
X147300000Y-93840000D03*
%TD*%
D43*
%TO.C,D9*%
X146150000Y-105942500D03*
X146150000Y-108042500D03*
%TD*%
D44*
%TO.C,D8*%
X146850000Y-92600000D03*
X146850000Y-89300000D03*
%TD*%
D45*
%TO.C,C3*%
X144860000Y-87770000D03*
X142960000Y-87770000D03*
%TD*%
D35*
%TO.C,M1*%
X148250000Y-106600000D03*
X149550000Y-106600000D03*
%TD*%
D39*
%TO.C,SW2*%
X154400000Y-88100000D03*
D46*
X153424920Y-86707442D03*
X155375080Y-89492558D03*
%TD*%
D29*
%TO.C,C24*%
X143225000Y-98960000D03*
X143225000Y-98000000D03*
%TD*%
D30*
%TO.C,C7*%
X148082000Y-85070000D03*
X148082000Y-86030000D03*
%TD*%
D17*
%TO.C,C23*%
X147660000Y-108400000D03*
X148620000Y-108400000D03*
%TD*%
D31*
%TO.C,R6*%
X135830000Y-85150000D03*
X136850000Y-85150000D03*
%TD*%
D17*
%TO.C,C18*%
X144420000Y-99500000D03*
X145380000Y-99500000D03*
%TD*%
D47*
%TO.C,D7*%
X144450000Y-89480000D03*
X144450000Y-92780000D03*
%TD*%
D27*
%TO.C,R7*%
X147406019Y-95750666D03*
X147406019Y-96770666D03*
%TD*%
D30*
%TO.C,C6*%
X149100000Y-85070000D03*
X149100000Y-86030000D03*
%TD*%
D26*
%TO.C,C10*%
X146450000Y-87550000D03*
X148350000Y-87550000D03*
%TD*%
D17*
%TO.C,C5*%
X148080000Y-84030000D03*
X149040000Y-84030000D03*
%TD*%
D39*
%TO.C,SW3*%
X154400000Y-103900000D03*
D48*
X155375080Y-102507442D03*
X153424920Y-105292558D03*
%TD*%
D49*
%TO.C,U2*%
X157610000Y-93460000D03*
D50*
X157010000Y-93460000D03*
X156410000Y-93460000D03*
X155810000Y-93460000D03*
X155210000Y-93460000D03*
X154600000Y-93460000D03*
X154070000Y-93460000D03*
X153570000Y-93460000D03*
X153070000Y-93460000D03*
X152570000Y-93460000D03*
X152070000Y-93460000D03*
X151570000Y-93460000D03*
X151060000Y-93460000D03*
X150560000Y-93460000D03*
X150060000Y-93460000D03*
X149560000Y-93460000D03*
X149060000Y-93460000D03*
D49*
X148530000Y-93460000D03*
D51*
X148530000Y-93980000D03*
X148530000Y-94430000D03*
X148530000Y-94880000D03*
X148530000Y-95330000D03*
X148530000Y-95780000D03*
X148530000Y-96230000D03*
X148530000Y-96680000D03*
X148530000Y-97130000D03*
X148530000Y-97580000D03*
X148530000Y-98030000D03*
X148530000Y-98480000D03*
D49*
X148530000Y-99000000D03*
D50*
X149060000Y-99000000D03*
X149560000Y-99000000D03*
X150060000Y-99000000D03*
X150560000Y-99000000D03*
X151060000Y-99000000D03*
X151570000Y-99000000D03*
X152070000Y-99000000D03*
X152570000Y-99000000D03*
X153070000Y-99000000D03*
X153570000Y-99000000D03*
X154070000Y-99000000D03*
X154600000Y-99000000D03*
X155210000Y-99000000D03*
X155810000Y-99000000D03*
X156410000Y-99000000D03*
X157010000Y-99000000D03*
X157610000Y-99000000D03*
D52*
X157610000Y-98480000D03*
X157010000Y-98480000D03*
X156410000Y-98480000D03*
X155810000Y-98480000D03*
X155210000Y-98480000D03*
D51*
X154600000Y-98480000D03*
X154600000Y-98030000D03*
X154600000Y-97580000D03*
X154600000Y-97130000D03*
X154600000Y-96680000D03*
X154600000Y-96230000D03*
X154600000Y-95780000D03*
X154600000Y-95330000D03*
X154600000Y-94880000D03*
X154600000Y-94430000D03*
X154600000Y-93980000D03*
D52*
X155210000Y-93980000D03*
X155810000Y-93980000D03*
X156410000Y-93980000D03*
X157010000Y-93980000D03*
X157610000Y-93980000D03*
D53*
X152620000Y-95280000D03*
X151570000Y-95280000D03*
X150520000Y-95280000D03*
X150520000Y-96230000D03*
X151570000Y-96230000D03*
X152620000Y-96230000D03*
X152620000Y-97180000D03*
X151570000Y-97180000D03*
X150520000Y-97180000D03*
%TD*%
D37*
%TO.C,R5*%
X142560000Y-100800000D03*
X141540000Y-100800000D03*
%TD*%
D29*
%TO.C,C17*%
X139500000Y-93020000D03*
X139500000Y-92060000D03*
%TD*%
D54*
%TO.C,U3*%
X146070000Y-96097500D03*
X145570000Y-96097500D03*
X145070000Y-96097500D03*
X144570000Y-96097500D03*
D55*
X144407500Y-96760000D03*
X144407500Y-97260000D03*
X144407500Y-97760000D03*
D54*
X144570000Y-98422500D03*
X145070000Y-98422500D03*
X145570000Y-98422500D03*
X146070000Y-98422500D03*
D55*
X146232500Y-97760000D03*
X146232500Y-97260000D03*
X146232500Y-96760000D03*
%TD*%
D56*
%TO.C,PS1*%
X141525000Y-102550000D03*
X141075000Y-102550000D03*
X140625000Y-102550000D03*
X140175000Y-102550000D03*
X139725000Y-102550000D03*
X139275000Y-102550000D03*
X139275000Y-105450000D03*
X139725000Y-105450000D03*
X140175000Y-105450000D03*
X140625000Y-105450000D03*
X141075000Y-105450000D03*
X141525000Y-105450000D03*
D57*
X140400000Y-104000000D03*
%TD*%
%LPD*%
M02*
