%TF.GenerationSoftware,KiCad,Pcbnew,10.0.3*%
%TF.CreationDate,2026-07-19T10:29:48+10:00*%
%TF.ProjectId,epaper-smart-watch,65706170-6572-42d7-936d-6172742d7761,rev?*%
%TF.SameCoordinates,Original*%
%TF.FileFunction,Legend,Bot*%
%TF.FilePolarity,Positive*%
%FSLAX46Y46*%
G04 Gerber Fmt 4.6, Leading zero omitted, Abs format (unit mm)*
G04 Created by KiCad (PCBNEW 10.0.3) date 2026-07-19 10:29:48*
%MOMM*%
%LPD*%
G01*
G04 APERTURE LIST*
G04 Aperture macros list*
%AMRoundRect*
0 Rectangle with rounded corners*
0 $1 Rounding radius*
0 $2 $3 $4 $5 $6 $7 $8 $9 X,Y pos of 4 corners*
0 Add a 4 corners polygon primitive as box body*
4,1,4,$2,$3,$4,$5,$6,$7,$8,$9,$2,$3,0*
0 Add four circle primitives for the rounded corners*
1,1,$1+$1,$2,$3*
1,1,$1+$1,$4,$5*
1,1,$1+$1,$6,$7*
1,1,$1+$1,$8,$9*
0 Add four rect primitives between the rounded corners*
20,1,$1+$1,$2,$3,$4,$5,0*
20,1,$1+$1,$4,$5,$6,$7,0*
20,1,$1+$1,$6,$7,$8,$9,0*
20,1,$1+$1,$8,$9,$2,$3,0*%
%AMFreePoly0*
4,1,23,0.550000,-0.750000,0.000000,-0.750000,0.000000,-0.745722,-0.065263,-0.745722,-0.191342,-0.711940,-0.304381,-0.646677,-0.396677,-0.554381,-0.461940,-0.441342,-0.495722,-0.315263,-0.495722,-0.250000,-0.500000,-0.250000,-0.500000,0.250000,-0.495722,0.250000,-0.495722,0.315263,-0.461940,0.441342,-0.396677,0.554381,-0.304381,0.646677,-0.191342,0.711940,-0.065263,0.745722,0.000000,0.745722,
0.000000,0.750000,0.550000,0.750000,0.550000,-0.750000,0.550000,-0.750000,$1*%
%AMFreePoly1*
4,1,23,0.000000,0.745722,0.065263,0.745722,0.191342,0.711940,0.304381,0.646677,0.396677,0.554381,0.461940,0.441342,0.495722,0.315263,0.495722,0.250000,0.500000,0.250000,0.500000,-0.250000,0.495722,-0.250000,0.495722,-0.315263,0.461940,-0.441342,0.396677,-0.554381,0.304381,-0.646677,0.191342,-0.711940,0.065263,-0.745722,0.000000,-0.745722,0.000000,-0.750000,-0.550000,-0.750000,
-0.550000,0.750000,0.000000,0.750000,0.000000,0.745722,0.000000,0.745722,$1*%
G04 Aperture macros list end*
%ADD10C,0.200000*%
%ADD11C,0.150000*%
%ADD12C,0.120000*%
%ADD13C,0.000000*%
%ADD14C,0.800000*%
%ADD15O,1.700000X1.000000*%
%ADD16O,2.100000X1.000000*%
%ADD17C,1.000000*%
%ADD18RoundRect,0.200000X0.200000X1.250000X-0.200000X1.250000X-0.200000X-1.250000X0.200000X-1.250000X0*%
%ADD19RoundRect,0.250000X0.650000X1.650000X-0.650000X1.650000X-0.650000X-1.650000X0.650000X-1.650000X0*%
%ADD20FreePoly0,270.000000*%
%ADD21R,1.500000X1.000000*%
%ADD22FreePoly1,270.000000*%
%ADD23R,1.000000X1.500000*%
%ADD24FreePoly0,0.000000*%
%ADD25FreePoly1,0.000000*%
G04 APERTURE END LIST*
D10*
X157044612Y-108967219D02*
X157044612Y-109681504D01*
X157044612Y-109681504D02*
X157092231Y-109824361D01*
X157092231Y-109824361D02*
X157187469Y-109919600D01*
X157187469Y-109919600D02*
X157330326Y-109967219D01*
X157330326Y-109967219D02*
X157425564Y-109967219D01*
X156092231Y-109967219D02*
X156568421Y-109967219D01*
X156568421Y-109967219D02*
X156568421Y-108967219D01*
X155187469Y-109871980D02*
X155235088Y-109919600D01*
X155235088Y-109919600D02*
X155377945Y-109967219D01*
X155377945Y-109967219D02*
X155473183Y-109967219D01*
X155473183Y-109967219D02*
X155616040Y-109919600D01*
X155616040Y-109919600D02*
X155711278Y-109824361D01*
X155711278Y-109824361D02*
X155758897Y-109729123D01*
X155758897Y-109729123D02*
X155806516Y-109538647D01*
X155806516Y-109538647D02*
X155806516Y-109395790D01*
X155806516Y-109395790D02*
X155758897Y-109205314D01*
X155758897Y-109205314D02*
X155711278Y-109110076D01*
X155711278Y-109110076D02*
X155616040Y-109014838D01*
X155616040Y-109014838D02*
X155473183Y-108967219D01*
X155473183Y-108967219D02*
X155377945Y-108967219D01*
X155377945Y-108967219D02*
X155235088Y-109014838D01*
X155235088Y-109014838D02*
X155187469Y-109062457D01*
X154473183Y-108967219D02*
X154473183Y-109681504D01*
X154473183Y-109681504D02*
X154520802Y-109824361D01*
X154520802Y-109824361D02*
X154616040Y-109919600D01*
X154616040Y-109919600D02*
X154758897Y-109967219D01*
X154758897Y-109967219D02*
X154854135Y-109967219D01*
X153520802Y-109967219D02*
X153996992Y-109967219D01*
X153996992Y-109967219D02*
X153996992Y-108967219D01*
X152616040Y-109871980D02*
X152663659Y-109919600D01*
X152663659Y-109919600D02*
X152806516Y-109967219D01*
X152806516Y-109967219D02*
X152901754Y-109967219D01*
X152901754Y-109967219D02*
X153044611Y-109919600D01*
X153044611Y-109919600D02*
X153139849Y-109824361D01*
X153139849Y-109824361D02*
X153187468Y-109729123D01*
X153187468Y-109729123D02*
X153235087Y-109538647D01*
X153235087Y-109538647D02*
X153235087Y-109395790D01*
X153235087Y-109395790D02*
X153187468Y-109205314D01*
X153187468Y-109205314D02*
X153139849Y-109110076D01*
X153139849Y-109110076D02*
X153044611Y-109014838D01*
X153044611Y-109014838D02*
X152901754Y-108967219D01*
X152901754Y-108967219D02*
X152806516Y-108967219D01*
X152806516Y-108967219D02*
X152663659Y-109014838D01*
X152663659Y-109014838D02*
X152616040Y-109062457D01*
X151901754Y-108967219D02*
X151901754Y-109681504D01*
X151901754Y-109681504D02*
X151949373Y-109824361D01*
X151949373Y-109824361D02*
X152044611Y-109919600D01*
X152044611Y-109919600D02*
X152187468Y-109967219D01*
X152187468Y-109967219D02*
X152282706Y-109967219D01*
X150949373Y-109967219D02*
X151425563Y-109967219D01*
X151425563Y-109967219D02*
X151425563Y-108967219D01*
X150044611Y-109871980D02*
X150092230Y-109919600D01*
X150092230Y-109919600D02*
X150235087Y-109967219D01*
X150235087Y-109967219D02*
X150330325Y-109967219D01*
X150330325Y-109967219D02*
X150473182Y-109919600D01*
X150473182Y-109919600D02*
X150568420Y-109824361D01*
X150568420Y-109824361D02*
X150616039Y-109729123D01*
X150616039Y-109729123D02*
X150663658Y-109538647D01*
X150663658Y-109538647D02*
X150663658Y-109395790D01*
X150663658Y-109395790D02*
X150616039Y-109205314D01*
X150616039Y-109205314D02*
X150568420Y-109110076D01*
X150568420Y-109110076D02*
X150473182Y-109014838D01*
X150473182Y-109014838D02*
X150330325Y-108967219D01*
X150330325Y-108967219D02*
X150235087Y-108967219D01*
X150235087Y-108967219D02*
X150092230Y-109014838D01*
X150092230Y-109014838D02*
X150044611Y-109062457D01*
X149330325Y-108967219D02*
X149330325Y-109681504D01*
X149330325Y-109681504D02*
X149377944Y-109824361D01*
X149377944Y-109824361D02*
X149473182Y-109919600D01*
X149473182Y-109919600D02*
X149616039Y-109967219D01*
X149616039Y-109967219D02*
X149711277Y-109967219D01*
X148377944Y-109967219D02*
X148854134Y-109967219D01*
X148854134Y-109967219D02*
X148854134Y-108967219D01*
X147473182Y-109871980D02*
X147520801Y-109919600D01*
X147520801Y-109919600D02*
X147663658Y-109967219D01*
X147663658Y-109967219D02*
X147758896Y-109967219D01*
X147758896Y-109967219D02*
X147901753Y-109919600D01*
X147901753Y-109919600D02*
X147996991Y-109824361D01*
X147996991Y-109824361D02*
X148044610Y-109729123D01*
X148044610Y-109729123D02*
X148092229Y-109538647D01*
X148092229Y-109538647D02*
X148092229Y-109395790D01*
X148092229Y-109395790D02*
X148044610Y-109205314D01*
X148044610Y-109205314D02*
X147996991Y-109110076D01*
X147996991Y-109110076D02*
X147901753Y-109014838D01*
X147901753Y-109014838D02*
X147758896Y-108967219D01*
X147758896Y-108967219D02*
X147663658Y-108967219D01*
X147663658Y-108967219D02*
X147520801Y-109014838D01*
X147520801Y-109014838D02*
X147473182Y-109062457D01*
D11*
X135433333Y-97254819D02*
X135433333Y-97969104D01*
X135433333Y-97969104D02*
X135480952Y-98111961D01*
X135480952Y-98111961D02*
X135576190Y-98207200D01*
X135576190Y-98207200D02*
X135719047Y-98254819D01*
X135719047Y-98254819D02*
X135814285Y-98254819D01*
X135052380Y-97254819D02*
X134385714Y-97254819D01*
X134385714Y-97254819D02*
X134814285Y-98254819D01*
X161754819Y-104866666D02*
X162469104Y-104866666D01*
X162469104Y-104866666D02*
X162611961Y-104819047D01*
X162611961Y-104819047D02*
X162707200Y-104723809D01*
X162707200Y-104723809D02*
X162754819Y-104580952D01*
X162754819Y-104580952D02*
X162754819Y-104485714D01*
X162754819Y-105342857D02*
X161754819Y-105342857D01*
X161754819Y-105342857D02*
X161754819Y-105723809D01*
X161754819Y-105723809D02*
X161802438Y-105819047D01*
X161802438Y-105819047D02*
X161850057Y-105866666D01*
X161850057Y-105866666D02*
X161945295Y-105914285D01*
X161945295Y-105914285D02*
X162088152Y-105914285D01*
X162088152Y-105914285D02*
X162183390Y-105866666D01*
X162183390Y-105866666D02*
X162231009Y-105819047D01*
X162231009Y-105819047D02*
X162278628Y-105723809D01*
X162278628Y-105723809D02*
X162278628Y-105342857D01*
X161850057Y-106295238D02*
X161802438Y-106342857D01*
X161802438Y-106342857D02*
X161754819Y-106438095D01*
X161754819Y-106438095D02*
X161754819Y-106676190D01*
X161754819Y-106676190D02*
X161802438Y-106771428D01*
X161802438Y-106771428D02*
X161850057Y-106819047D01*
X161850057Y-106819047D02*
X161945295Y-106866666D01*
X161945295Y-106866666D02*
X162040533Y-106866666D01*
X162040533Y-106866666D02*
X162183390Y-106819047D01*
X162183390Y-106819047D02*
X162754819Y-106247619D01*
X162754819Y-106247619D02*
X162754819Y-106866666D01*
X160854819Y-103485714D02*
X160854819Y-102914286D01*
X160854819Y-103200000D02*
X159854819Y-103200000D01*
X159854819Y-103200000D02*
X159997676Y-103104762D01*
X159997676Y-103104762D02*
X160092914Y-103009524D01*
X160092914Y-103009524D02*
X160140533Y-102914286D01*
X159854819Y-108066667D02*
X159854819Y-108685714D01*
X159854819Y-108685714D02*
X160235771Y-108352381D01*
X160235771Y-108352381D02*
X160235771Y-108495238D01*
X160235771Y-108495238D02*
X160283390Y-108590476D01*
X160283390Y-108590476D02*
X160331009Y-108638095D01*
X160331009Y-108638095D02*
X160426247Y-108685714D01*
X160426247Y-108685714D02*
X160664342Y-108685714D01*
X160664342Y-108685714D02*
X160759580Y-108638095D01*
X160759580Y-108638095D02*
X160807200Y-108590476D01*
X160807200Y-108590476D02*
X160854819Y-108495238D01*
X160854819Y-108495238D02*
X160854819Y-108209524D01*
X160854819Y-108209524D02*
X160807200Y-108114286D01*
X160807200Y-108114286D02*
X160759580Y-108066667D01*
X147409523Y-87006819D02*
X147409523Y-87721104D01*
X147409523Y-87721104D02*
X147457142Y-87863961D01*
X147457142Y-87863961D02*
X147552380Y-87959200D01*
X147552380Y-87959200D02*
X147695237Y-88006819D01*
X147695237Y-88006819D02*
X147790475Y-88006819D01*
X146409523Y-88006819D02*
X146980951Y-88006819D01*
X146695237Y-88006819D02*
X146695237Y-87006819D01*
X146695237Y-87006819D02*
X146790475Y-87149676D01*
X146790475Y-87149676D02*
X146885713Y-87244914D01*
X146885713Y-87244914D02*
X146980951Y-87292533D01*
X145504761Y-87006819D02*
X145980951Y-87006819D01*
X145980951Y-87006819D02*
X146028570Y-87483009D01*
X146028570Y-87483009D02*
X145980951Y-87435390D01*
X145980951Y-87435390D02*
X145885713Y-87387771D01*
X145885713Y-87387771D02*
X145647618Y-87387771D01*
X145647618Y-87387771D02*
X145552380Y-87435390D01*
X145552380Y-87435390D02*
X145504761Y-87483009D01*
X145504761Y-87483009D02*
X145457142Y-87578247D01*
X145457142Y-87578247D02*
X145457142Y-87816342D01*
X145457142Y-87816342D02*
X145504761Y-87911580D01*
X145504761Y-87911580D02*
X145552380Y-87959200D01*
X145552380Y-87959200D02*
X145647618Y-88006819D01*
X145647618Y-88006819D02*
X145885713Y-88006819D01*
X145885713Y-88006819D02*
X145980951Y-87959200D01*
X145980951Y-87959200D02*
X146028570Y-87911580D01*
X140133333Y-97506819D02*
X140133333Y-98221104D01*
X140133333Y-98221104D02*
X140180952Y-98363961D01*
X140180952Y-98363961D02*
X140276190Y-98459200D01*
X140276190Y-98459200D02*
X140419047Y-98506819D01*
X140419047Y-98506819D02*
X140514285Y-98506819D01*
X139609523Y-98506819D02*
X139419047Y-98506819D01*
X139419047Y-98506819D02*
X139323809Y-98459200D01*
X139323809Y-98459200D02*
X139276190Y-98411580D01*
X139276190Y-98411580D02*
X139180952Y-98268723D01*
X139180952Y-98268723D02*
X139133333Y-98078247D01*
X139133333Y-98078247D02*
X139133333Y-97697295D01*
X139133333Y-97697295D02*
X139180952Y-97602057D01*
X139180952Y-97602057D02*
X139228571Y-97554438D01*
X139228571Y-97554438D02*
X139323809Y-97506819D01*
X139323809Y-97506819D02*
X139514285Y-97506819D01*
X139514285Y-97506819D02*
X139609523Y-97554438D01*
X139609523Y-97554438D02*
X139657142Y-97602057D01*
X139657142Y-97602057D02*
X139704761Y-97697295D01*
X139704761Y-97697295D02*
X139704761Y-97935390D01*
X139704761Y-97935390D02*
X139657142Y-98030628D01*
X139657142Y-98030628D02*
X139609523Y-98078247D01*
X139609523Y-98078247D02*
X139514285Y-98125866D01*
X139514285Y-98125866D02*
X139323809Y-98125866D01*
X139323809Y-98125866D02*
X139228571Y-98078247D01*
X139228571Y-98078247D02*
X139180952Y-98030628D01*
X139180952Y-98030628D02*
X139133333Y-97935390D01*
X140933333Y-93006819D02*
X140933333Y-93721104D01*
X140933333Y-93721104D02*
X140980952Y-93863961D01*
X140980952Y-93863961D02*
X141076190Y-93959200D01*
X141076190Y-93959200D02*
X141219047Y-94006819D01*
X141219047Y-94006819D02*
X141314285Y-94006819D01*
X140314285Y-93435390D02*
X140409523Y-93387771D01*
X140409523Y-93387771D02*
X140457142Y-93340152D01*
X140457142Y-93340152D02*
X140504761Y-93244914D01*
X140504761Y-93244914D02*
X140504761Y-93197295D01*
X140504761Y-93197295D02*
X140457142Y-93102057D01*
X140457142Y-93102057D02*
X140409523Y-93054438D01*
X140409523Y-93054438D02*
X140314285Y-93006819D01*
X140314285Y-93006819D02*
X140123809Y-93006819D01*
X140123809Y-93006819D02*
X140028571Y-93054438D01*
X140028571Y-93054438D02*
X139980952Y-93102057D01*
X139980952Y-93102057D02*
X139933333Y-93197295D01*
X139933333Y-93197295D02*
X139933333Y-93244914D01*
X139933333Y-93244914D02*
X139980952Y-93340152D01*
X139980952Y-93340152D02*
X140028571Y-93387771D01*
X140028571Y-93387771D02*
X140123809Y-93435390D01*
X140123809Y-93435390D02*
X140314285Y-93435390D01*
X140314285Y-93435390D02*
X140409523Y-93483009D01*
X140409523Y-93483009D02*
X140457142Y-93530628D01*
X140457142Y-93530628D02*
X140504761Y-93625866D01*
X140504761Y-93625866D02*
X140504761Y-93816342D01*
X140504761Y-93816342D02*
X140457142Y-93911580D01*
X140457142Y-93911580D02*
X140409523Y-93959200D01*
X140409523Y-93959200D02*
X140314285Y-94006819D01*
X140314285Y-94006819D02*
X140123809Y-94006819D01*
X140123809Y-94006819D02*
X140028571Y-93959200D01*
X140028571Y-93959200D02*
X139980952Y-93911580D01*
X139980952Y-93911580D02*
X139933333Y-93816342D01*
X139933333Y-93816342D02*
X139933333Y-93625866D01*
X139933333Y-93625866D02*
X139980952Y-93530628D01*
X139980952Y-93530628D02*
X140028571Y-93483009D01*
X140028571Y-93483009D02*
X140123809Y-93435390D01*
X143133333Y-103154819D02*
X143133333Y-103869104D01*
X143133333Y-103869104D02*
X143180952Y-104011961D01*
X143180952Y-104011961D02*
X143276190Y-104107200D01*
X143276190Y-104107200D02*
X143419047Y-104154819D01*
X143419047Y-104154819D02*
X143514285Y-104154819D01*
X142657142Y-104154819D02*
X142657142Y-103154819D01*
X142657142Y-103154819D02*
X142276190Y-103154819D01*
X142276190Y-103154819D02*
X142180952Y-103202438D01*
X142180952Y-103202438D02*
X142133333Y-103250057D01*
X142133333Y-103250057D02*
X142085714Y-103345295D01*
X142085714Y-103345295D02*
X142085714Y-103488152D01*
X142085714Y-103488152D02*
X142133333Y-103583390D01*
X142133333Y-103583390D02*
X142180952Y-103631009D01*
X142180952Y-103631009D02*
X142276190Y-103678628D01*
X142276190Y-103678628D02*
X142657142Y-103678628D01*
X141133333Y-104154819D02*
X141704761Y-104154819D01*
X141419047Y-104154819D02*
X141419047Y-103154819D01*
X141419047Y-103154819D02*
X141514285Y-103297676D01*
X141514285Y-103297676D02*
X141609523Y-103392914D01*
X141609523Y-103392914D02*
X141704761Y-103440533D01*
X139414285Y-102354819D02*
X139985713Y-102354819D01*
X139699999Y-102354819D02*
X139699999Y-101354819D01*
X139699999Y-101354819D02*
X139795237Y-101497676D01*
X139795237Y-101497676D02*
X139890475Y-101592914D01*
X139890475Y-101592914D02*
X139985713Y-101640533D01*
X145233332Y-101354819D02*
X144614285Y-101354819D01*
X144614285Y-101354819D02*
X144947618Y-101735771D01*
X144947618Y-101735771D02*
X144804761Y-101735771D01*
X144804761Y-101735771D02*
X144709523Y-101783390D01*
X144709523Y-101783390D02*
X144661904Y-101831009D01*
X144661904Y-101831009D02*
X144614285Y-101926247D01*
X144614285Y-101926247D02*
X144614285Y-102164342D01*
X144614285Y-102164342D02*
X144661904Y-102259580D01*
X144661904Y-102259580D02*
X144709523Y-102307200D01*
X144709523Y-102307200D02*
X144804761Y-102354819D01*
X144804761Y-102354819D02*
X145090475Y-102354819D01*
X145090475Y-102354819D02*
X145185713Y-102307200D01*
X145185713Y-102307200D02*
X145233332Y-102259580D01*
%TO.C,J14*%
D12*
X142700000Y-97600000D02*
G75*
G02*
X141300000Y-97600000I-700000J0D01*
G01*
X141300000Y-97600000D02*
G75*
G02*
X142700000Y-97600000I700000J0D01*
G01*
%TO.C,J7*%
X135800000Y-96200000D02*
G75*
G02*
X134400000Y-96200000I-700000J0D01*
G01*
X134400000Y-96200000D02*
G75*
G02*
X135800000Y-96200000I700000J0D01*
G01*
%TO.C,J12*%
X150700000Y-89400000D02*
G75*
G02*
X149300000Y-89400000I-700000J0D01*
G01*
X149300000Y-89400000D02*
G75*
G02*
X150700000Y-89400000I700000J0D01*
G01*
%TO.C,J4*%
X154800000Y-98200000D02*
G75*
G02*
X153400000Y-98200000I-700000J0D01*
G01*
X153400000Y-98200000D02*
G75*
G02*
X154800000Y-98200000I700000J0D01*
G01*
%TO.C,SWD1*%
X145690000Y-112340000D02*
X148140000Y-112340000D01*
X145690000Y-114440000D02*
X145690000Y-112340000D01*
X145690000Y-120060000D02*
X145690000Y-118760000D01*
X156960000Y-112340000D02*
X156960000Y-110450000D01*
X159410000Y-112340000D02*
X156960000Y-112340000D01*
X159410000Y-114440000D02*
X159410000Y-112340000D01*
X159410000Y-118760000D02*
X159410000Y-120060000D01*
X159410000Y-120060000D02*
X145690000Y-120060000D01*
%TO.C,JP2*%
X159400000Y-104400000D02*
X159400000Y-107200000D01*
X160100000Y-107850000D02*
X160700000Y-107850000D01*
X160700000Y-103750000D02*
X160100000Y-103750000D01*
X161400000Y-107200000D02*
X161400000Y-104400000D01*
X159400000Y-104450000D02*
G75*
G02*
X160100000Y-103750000I699999J1D01*
G01*
X160100000Y-107850000D02*
G75*
G02*
X159400000Y-107150000I0J700000D01*
G01*
X160700000Y-103750000D02*
G75*
G02*
X161400000Y-104450000I1J-699999D01*
G01*
X161400000Y-107150000D02*
G75*
G02*
X160700000Y-107850000I-700000J0D01*
G01*
%TO.C,J13*%
X142800000Y-107400000D02*
G75*
G02*
X141400000Y-107400000I-700000J0D01*
G01*
X141400000Y-107400000D02*
G75*
G02*
X142800000Y-107400000I700000J0D01*
G01*
D13*
%TO.C,G\u002A\u002A\u002A*%
G36*
X150285714Y-99677131D02*
G01*
X150279999Y-99677110D01*
X150285195Y-99676243D01*
X150285714Y-99677131D01*
G37*
G36*
X148671910Y-99859118D02*
G01*
X148652491Y-99878537D01*
X148633072Y-99859118D01*
X148652491Y-99839698D01*
X148671910Y-99859118D01*
G37*
G36*
X149487507Y-100247496D02*
G01*
X149468088Y-100266915D01*
X149448669Y-100247496D01*
X149468088Y-100228077D01*
X149487507Y-100247496D01*
G37*
G36*
X150807996Y-100364010D02*
G01*
X150788577Y-100383429D01*
X150769158Y-100364010D01*
X150788577Y-100344591D01*
X150807996Y-100364010D01*
G37*
G36*
X151118699Y-100519362D02*
G01*
X151099280Y-100538781D01*
X151079861Y-100519362D01*
X151099280Y-100499943D01*
X151118699Y-100519362D01*
G37*
G36*
X151118699Y-100597038D02*
G01*
X151099280Y-100616457D01*
X151079861Y-100597038D01*
X151099280Y-100577619D01*
X151118699Y-100597038D01*
G37*
G36*
X151701268Y-100558200D02*
G01*
X151681849Y-100577619D01*
X151662430Y-100558200D01*
X151681849Y-100538781D01*
X151701268Y-100558200D01*
G37*
G36*
X151895458Y-101140768D02*
G01*
X151876039Y-101160187D01*
X151856620Y-101140768D01*
X151876039Y-101121350D01*
X151895458Y-101140768D01*
G37*
G36*
X151934296Y-100480524D02*
G01*
X151914877Y-100499943D01*
X151895458Y-100480524D01*
X151914877Y-100461105D01*
X151934296Y-100480524D01*
G37*
G36*
X151973133Y-100946579D02*
G01*
X151953715Y-100965998D01*
X151934296Y-100946579D01*
X151953715Y-100927160D01*
X151973133Y-100946579D01*
G37*
G36*
X151973133Y-101140768D02*
G01*
X151953715Y-101160187D01*
X151934296Y-101140768D01*
X151953715Y-101121350D01*
X151973133Y-101140768D01*
G37*
G36*
X152089647Y-101606824D02*
G01*
X152070228Y-101626242D01*
X152050809Y-101606824D01*
X152070228Y-101587405D01*
X152089647Y-101606824D01*
G37*
G36*
X152244999Y-100830065D02*
G01*
X152225580Y-100849484D01*
X152206161Y-100830065D01*
X152225580Y-100810646D01*
X152244999Y-100830065D01*
G37*
G36*
X152361513Y-101024255D02*
G01*
X152342094Y-101043674D01*
X152322675Y-101024255D01*
X152342094Y-101004836D01*
X152361513Y-101024255D01*
G37*
G36*
X152361513Y-101762175D02*
G01*
X152342094Y-101781594D01*
X152322675Y-101762175D01*
X152342094Y-101742756D01*
X152361513Y-101762175D01*
G37*
G36*
X152400351Y-101451472D02*
G01*
X152380932Y-101470891D01*
X152361513Y-101451472D01*
X152380932Y-101432053D01*
X152400351Y-101451472D01*
G37*
G36*
X152478027Y-101296120D02*
G01*
X152458608Y-101315539D01*
X152439189Y-101296120D01*
X152458608Y-101276701D01*
X152478027Y-101296120D01*
G37*
G36*
X152516865Y-100635876D02*
G01*
X152497446Y-100655294D01*
X152478027Y-100635876D01*
X152497446Y-100616457D01*
X152516865Y-100635876D01*
G37*
G36*
X152555703Y-99742603D02*
G01*
X152536284Y-99762022D01*
X152516865Y-99742603D01*
X152536284Y-99723184D01*
X152555703Y-99742603D01*
G37*
G36*
X152711054Y-100519362D02*
G01*
X152691636Y-100538781D01*
X152672217Y-100519362D01*
X152691636Y-100499943D01*
X152711054Y-100519362D01*
G37*
G36*
X152711054Y-101024255D02*
G01*
X152691636Y-101043674D01*
X152672217Y-101024255D01*
X152691636Y-101004836D01*
X152711054Y-101024255D01*
G37*
G36*
X152788730Y-100946579D02*
G01*
X152769311Y-100965998D01*
X152749892Y-100946579D01*
X152769311Y-100927160D01*
X152788730Y-100946579D01*
G37*
G36*
X153138272Y-100247496D02*
G01*
X153118853Y-100266915D01*
X153099434Y-100247496D01*
X153118853Y-100228077D01*
X153138272Y-100247496D01*
G37*
G36*
X153138272Y-101101931D02*
G01*
X153118853Y-101121350D01*
X153099434Y-101101931D01*
X153118853Y-101082512D01*
X153138272Y-101101931D01*
G37*
G36*
X153177110Y-101878689D02*
G01*
X153157691Y-101898108D01*
X153138272Y-101878689D01*
X153157691Y-101859270D01*
X153177110Y-101878689D01*
G37*
G36*
X153254785Y-101257282D02*
G01*
X153235366Y-101276701D01*
X153215947Y-101257282D01*
X153235366Y-101237863D01*
X153254785Y-101257282D01*
G37*
G36*
X153254785Y-101917527D02*
G01*
X153235366Y-101936946D01*
X153215947Y-101917527D01*
X153235366Y-101898108D01*
X153254785Y-101917527D01*
G37*
G36*
X153448975Y-101762175D02*
G01*
X153429556Y-101781594D01*
X153410137Y-101762175D01*
X153429556Y-101742756D01*
X153448975Y-101762175D01*
G37*
G36*
X153487813Y-101567986D02*
G01*
X153468394Y-101587405D01*
X153448975Y-101567986D01*
X153468394Y-101548567D01*
X153487813Y-101567986D01*
G37*
G36*
X153565489Y-102461258D02*
G01*
X153546070Y-102480677D01*
X153526651Y-102461258D01*
X153546070Y-102441839D01*
X153565489Y-102461258D01*
G37*
G36*
X153643165Y-101218444D02*
G01*
X153623746Y-101237863D01*
X153604327Y-101218444D01*
X153623746Y-101199025D01*
X153643165Y-101218444D01*
G37*
G36*
X153682002Y-101373796D02*
G01*
X153662584Y-101393215D01*
X153643165Y-101373796D01*
X153662584Y-101354377D01*
X153682002Y-101373796D01*
G37*
G36*
X153720840Y-100092145D02*
G01*
X153701421Y-100111564D01*
X153682002Y-100092145D01*
X153701421Y-100072726D01*
X153720840Y-100092145D01*
G37*
G36*
X153759678Y-101296120D02*
G01*
X153740259Y-101315539D01*
X153720840Y-101296120D01*
X153740259Y-101276701D01*
X153759678Y-101296120D01*
G37*
G36*
X153837354Y-100907741D02*
G01*
X153817935Y-100927160D01*
X153798516Y-100907741D01*
X153817935Y-100888322D01*
X153837354Y-100907741D01*
G37*
G36*
X153876192Y-100208658D02*
G01*
X153856773Y-100228077D01*
X153837354Y-100208658D01*
X153856773Y-100189239D01*
X153876192Y-100208658D01*
G37*
G36*
X154148058Y-100946579D02*
G01*
X154128639Y-100965998D01*
X154109220Y-100946579D01*
X154128639Y-100927160D01*
X154148058Y-100946579D01*
G37*
G36*
X154264571Y-100713551D02*
G01*
X154245152Y-100732970D01*
X154225733Y-100713551D01*
X154245152Y-100694132D01*
X154264571Y-100713551D01*
G37*
G36*
X154303409Y-100441686D02*
G01*
X154283990Y-100461105D01*
X154264571Y-100441686D01*
X154283990Y-100422267D01*
X154303409Y-100441686D01*
G37*
G36*
X154497599Y-100713551D02*
G01*
X154478180Y-100732970D01*
X154458761Y-100713551D01*
X154478180Y-100694132D01*
X154497599Y-100713551D01*
G37*
G36*
X154536437Y-100635876D02*
G01*
X154517018Y-100655294D01*
X154497599Y-100635876D01*
X154517018Y-100616457D01*
X154536437Y-100635876D01*
G37*
G36*
X154847140Y-101490310D02*
G01*
X154827721Y-101509729D01*
X154808302Y-101490310D01*
X154827721Y-101470891D01*
X154847140Y-101490310D01*
G37*
G36*
X155235519Y-100635876D02*
G01*
X155216100Y-100655294D01*
X155196681Y-100635876D01*
X155216100Y-100616457D01*
X155235519Y-100635876D01*
G37*
G36*
X155274357Y-100480524D02*
G01*
X155254938Y-100499943D01*
X155235519Y-100480524D01*
X155254938Y-100461105D01*
X155274357Y-100480524D01*
G37*
G36*
X155390871Y-101218444D02*
G01*
X155371452Y-101237863D01*
X155352033Y-101218444D01*
X155371452Y-101199025D01*
X155390871Y-101218444D01*
G37*
G36*
X155429709Y-100053307D02*
G01*
X155410290Y-100072726D01*
X155390871Y-100053307D01*
X155410290Y-100033888D01*
X155429709Y-100053307D01*
G37*
G36*
X155507385Y-100480524D02*
G01*
X155487966Y-100499943D01*
X155468547Y-100480524D01*
X155487966Y-100461105D01*
X155507385Y-100480524D01*
G37*
G36*
X155779250Y-102810800D02*
G01*
X155759831Y-102830219D01*
X155740412Y-102810800D01*
X155759831Y-102791381D01*
X155779250Y-102810800D01*
G37*
G36*
X155818088Y-100558200D02*
G01*
X155798669Y-100577619D01*
X155779250Y-100558200D01*
X155798669Y-100538781D01*
X155818088Y-100558200D01*
G37*
G36*
X156322981Y-100286334D02*
G01*
X156303562Y-100305753D01*
X156284143Y-100286334D01*
X156303562Y-100266915D01*
X156322981Y-100286334D01*
G37*
G36*
X156478333Y-99859118D02*
G01*
X156458914Y-99878537D01*
X156439495Y-99859118D01*
X156458914Y-99839698D01*
X156478333Y-99859118D01*
G37*
G36*
X156517171Y-100208658D02*
G01*
X156497752Y-100228077D01*
X156478333Y-100208658D01*
X156497752Y-100189239D01*
X156517171Y-100208658D01*
G37*
G36*
X148620126Y-99774968D02*
G01*
X148626202Y-99786650D01*
X148594234Y-99800860D01*
X148573674Y-99798057D01*
X148568342Y-99774968D01*
X148574035Y-99770320D01*
X148620126Y-99774968D01*
G37*
G36*
X148891992Y-99813806D02*
G01*
X148898068Y-99825488D01*
X148866100Y-99839698D01*
X148845539Y-99836895D01*
X148840208Y-99813806D01*
X148845900Y-99809158D01*
X148891992Y-99813806D01*
G37*
G36*
X151338781Y-100978944D02*
G01*
X151344857Y-100990626D01*
X151312889Y-101004836D01*
X151292328Y-101002033D01*
X151286997Y-100978944D01*
X151292689Y-100974296D01*
X151338781Y-100978944D01*
G37*
G36*
X151960187Y-100590565D02*
G01*
X151966264Y-100602246D01*
X151934296Y-100616457D01*
X151913735Y-100613654D01*
X151908404Y-100590565D01*
X151914096Y-100585916D01*
X151960187Y-100590565D01*
G37*
G36*
X152206161Y-99878537D02*
G01*
X152203358Y-99899097D01*
X152180269Y-99904428D01*
X152175621Y-99898736D01*
X152180269Y-99852644D01*
X152191951Y-99846568D01*
X152206161Y-99878537D01*
G37*
G36*
X152270891Y-101716864D02*
G01*
X152276967Y-101728546D01*
X152244999Y-101742756D01*
X152224438Y-101739953D01*
X152219107Y-101716864D01*
X152224799Y-101712216D01*
X152270891Y-101716864D01*
G37*
G36*
X152503919Y-100241023D02*
G01*
X152509995Y-100252705D01*
X152478027Y-100266915D01*
X152457466Y-100264112D01*
X152452135Y-100241023D01*
X152457827Y-100236375D01*
X152503919Y-100241023D01*
G37*
G36*
X152853460Y-101134295D02*
G01*
X152859536Y-101145977D01*
X152827568Y-101160187D01*
X152807008Y-101157385D01*
X152801676Y-101134295D01*
X152807369Y-101129647D01*
X152853460Y-101134295D01*
G37*
G36*
X153358353Y-101911054D02*
G01*
X153364429Y-101922736D01*
X153332461Y-101936946D01*
X153311901Y-101934143D01*
X153306569Y-101911054D01*
X153312262Y-101906406D01*
X153358353Y-101911054D01*
G37*
G36*
X153397191Y-101173133D02*
G01*
X153403267Y-101184815D01*
X153371299Y-101199025D01*
X153350738Y-101196223D01*
X153345407Y-101173133D01*
X153351100Y-101168485D01*
X153397191Y-101173133D01*
G37*
G36*
X153604327Y-101432053D02*
G01*
X153601524Y-101452614D01*
X153578435Y-101457945D01*
X153573787Y-101452252D01*
X153578435Y-101406161D01*
X153590116Y-101400085D01*
X153604327Y-101432053D01*
G37*
G36*
X153785570Y-100202185D02*
G01*
X153791646Y-100213867D01*
X153759678Y-100228077D01*
X153739118Y-100225275D01*
X153733786Y-100202185D01*
X153739479Y-100197537D01*
X153785570Y-100202185D01*
G37*
G36*
X153902084Y-100046834D02*
G01*
X153908160Y-100058515D01*
X153876192Y-100072726D01*
X153855631Y-100069923D01*
X153850300Y-100046834D01*
X153855992Y-100042186D01*
X153902084Y-100046834D01*
G37*
G36*
X154018598Y-101211971D02*
G01*
X154024674Y-101223653D01*
X153992706Y-101237863D01*
X153972145Y-101235060D01*
X153966814Y-101211971D01*
X153972506Y-101207323D01*
X154018598Y-101211971D01*
G37*
G36*
X154342247Y-100771808D02*
G01*
X154339444Y-100792369D01*
X154316355Y-100797700D01*
X154311707Y-100792008D01*
X154316355Y-100745916D01*
X154328036Y-100739840D01*
X154342247Y-100771808D01*
G37*
G36*
X154847140Y-100810646D02*
G01*
X154844337Y-100831207D01*
X154821248Y-100836538D01*
X154816600Y-100830846D01*
X154821248Y-100784754D01*
X154832930Y-100778678D01*
X154847140Y-100810646D01*
G37*
G36*
X154873032Y-101250809D02*
G01*
X154879108Y-101262491D01*
X154847140Y-101276701D01*
X154826579Y-101273898D01*
X154821248Y-101250809D01*
X154826941Y-101246161D01*
X154873032Y-101250809D01*
G37*
G36*
X155119006Y-100305753D02*
G01*
X155116203Y-100326314D01*
X155093114Y-100331645D01*
X155088465Y-100325953D01*
X155093114Y-100279861D01*
X155104795Y-100273785D01*
X155119006Y-100305753D01*
G37*
G36*
X155157843Y-100422267D02*
G01*
X155155041Y-100442828D01*
X155131952Y-100448159D01*
X155127303Y-100442467D01*
X155131952Y-100396375D01*
X155143633Y-100390299D01*
X155157843Y-100422267D01*
G37*
G36*
X155352033Y-100849484D02*
G01*
X155349230Y-100870045D01*
X155326141Y-100875376D01*
X155321493Y-100869684D01*
X155326141Y-100823592D01*
X155337823Y-100817516D01*
X155352033Y-100849484D01*
G37*
G36*
X155610953Y-100357537D02*
G01*
X155617029Y-100369219D01*
X155585061Y-100383429D01*
X155564500Y-100380626D01*
X155559169Y-100357537D01*
X155564861Y-100352889D01*
X155610953Y-100357537D01*
G37*
G36*
X155623898Y-100266915D02*
G01*
X155621096Y-100287476D01*
X155598007Y-100292807D01*
X155593358Y-100287115D01*
X155598007Y-100241023D01*
X155609688Y-100234947D01*
X155623898Y-100266915D01*
G37*
G36*
X156128791Y-100305753D02*
G01*
X156125989Y-100326314D01*
X156102900Y-100331645D01*
X156098251Y-100325953D01*
X156102900Y-100279861D01*
X156114581Y-100273785D01*
X156128791Y-100305753D01*
G37*
G36*
X156348873Y-99852644D02*
G01*
X156354949Y-99864326D01*
X156322981Y-99878537D01*
X156302420Y-99875733D01*
X156297089Y-99852644D01*
X156302781Y-99847996D01*
X156348873Y-99852644D01*
G37*
G36*
X152105132Y-100726604D02*
G01*
X152101372Y-100744698D01*
X152048119Y-100761332D01*
X151999279Y-100762133D01*
X151977189Y-100748303D01*
X152030147Y-100719403D01*
X152059054Y-100712555D01*
X152105132Y-100726604D01*
G37*
G36*
X153290340Y-101728451D02*
G01*
X153275801Y-101779010D01*
X153265823Y-101791849D01*
X153208900Y-101820432D01*
X153191680Y-101810071D01*
X153216726Y-101761237D01*
X153260200Y-101724302D01*
X153290340Y-101728451D01*
G37*
G36*
X155988010Y-100922165D02*
G01*
X156012278Y-100973045D01*
X156001916Y-100990265D01*
X155953082Y-100965219D01*
X155922125Y-100933486D01*
X155911660Y-100898317D01*
X155939794Y-100892245D01*
X155988010Y-100922165D01*
G37*
G36*
X148991595Y-99802353D02*
G01*
X149021452Y-99839698D01*
X149021006Y-99848487D01*
X149004325Y-99878537D01*
X148998095Y-99876749D01*
X148963195Y-99839698D01*
X148957126Y-99824654D01*
X148980321Y-99800860D01*
X148991595Y-99802353D01*
G37*
G36*
X149681696Y-102090006D02*
G01*
X149680204Y-102101279D01*
X149642858Y-102131136D01*
X149634069Y-102130691D01*
X149604020Y-102114009D01*
X149605807Y-102107779D01*
X149642858Y-102072879D01*
X149657903Y-102066811D01*
X149681696Y-102090006D01*
G37*
G36*
X151360708Y-100229570D02*
G01*
X151390565Y-100266915D01*
X151390119Y-100275705D01*
X151373438Y-100305753D01*
X151367208Y-100303966D01*
X151332308Y-100266915D01*
X151326239Y-100251871D01*
X151349435Y-100228077D01*
X151360708Y-100229570D01*
G37*
G36*
X151783916Y-99772893D02*
G01*
X151798363Y-99800860D01*
X151788849Y-99814483D01*
X151740402Y-99836626D01*
X151662430Y-99800860D01*
X151644951Y-99788209D01*
X151644198Y-99768379D01*
X151713270Y-99762617D01*
X151783916Y-99772893D01*
G37*
G36*
X151701268Y-101002544D02*
G01*
X151699776Y-101013817D01*
X151662430Y-101043674D01*
X151653641Y-101043228D01*
X151623592Y-101026547D01*
X151625379Y-101020317D01*
X151662430Y-100985417D01*
X151677474Y-100979348D01*
X151701268Y-101002544D01*
G37*
G36*
X151722931Y-101123097D02*
G01*
X151759525Y-101160187D01*
X151766759Y-101173938D01*
X151764109Y-101199025D01*
X151757281Y-101197278D01*
X151720687Y-101160187D01*
X151713453Y-101146437D01*
X151716103Y-101121350D01*
X151722931Y-101123097D01*
G37*
G36*
X151878283Y-101394963D02*
G01*
X151914877Y-101432053D01*
X151922111Y-101445804D01*
X151919461Y-101470891D01*
X151912632Y-101469143D01*
X151876039Y-101432053D01*
X151868805Y-101418302D01*
X151871454Y-101393215D01*
X151878283Y-101394963D01*
G37*
G36*
X152400351Y-100769516D02*
G01*
X152398859Y-100780789D01*
X152361513Y-100810646D01*
X152352724Y-100810201D01*
X152322675Y-100793519D01*
X152324462Y-100787289D01*
X152361513Y-100752389D01*
X152376558Y-100746321D01*
X152400351Y-100769516D01*
G37*
G36*
X152501384Y-101822219D02*
G01*
X152536284Y-101859270D01*
X152542352Y-101874314D01*
X152519157Y-101898108D01*
X152507884Y-101896615D01*
X152478027Y-101859270D01*
X152478472Y-101850481D01*
X152495154Y-101820432D01*
X152501384Y-101822219D01*
G37*
G36*
X152817184Y-100241758D02*
G01*
X152788241Y-100268040D01*
X152769824Y-100279075D01*
X152698413Y-100303720D01*
X152672217Y-100275180D01*
X152691038Y-100254815D01*
X152759112Y-100238061D01*
X152776781Y-100236924D01*
X152817184Y-100241758D01*
G37*
G36*
X152991901Y-100229570D02*
G01*
X153021758Y-100266915D01*
X153021313Y-100275705D01*
X153004631Y-100305753D01*
X152998401Y-100303966D01*
X152963501Y-100266915D01*
X152957432Y-100251871D01*
X152980628Y-100228077D01*
X152991901Y-100229570D01*
G37*
G36*
X153200466Y-101123137D02*
G01*
X153235366Y-101160187D01*
X153241435Y-101175232D01*
X153218240Y-101199025D01*
X153206966Y-101197533D01*
X153177110Y-101160187D01*
X153177555Y-101151398D01*
X153194236Y-101121350D01*
X153200466Y-101123137D01*
G37*
G36*
X153292621Y-100189960D02*
G01*
X153329327Y-100197979D01*
X153293623Y-100228077D01*
X153255533Y-100251904D01*
X153221913Y-100261990D01*
X153215947Y-100228077D01*
X153226299Y-100207629D01*
X153283914Y-100189834D01*
X153292621Y-100189960D01*
G37*
G36*
X153237611Y-99724932D02*
G01*
X153274204Y-99762022D01*
X153281438Y-99775773D01*
X153278789Y-99800860D01*
X153271960Y-99799113D01*
X153235366Y-99762022D01*
X153228132Y-99748272D01*
X153230782Y-99723184D01*
X153237611Y-99724932D01*
G37*
G36*
X153326831Y-100057729D02*
G01*
X153362408Y-100104308D01*
X153361817Y-100127907D01*
X153316288Y-100126854D01*
X153285904Y-100110211D01*
X153254785Y-100065334D01*
X153254884Y-100062454D01*
X153280011Y-100039802D01*
X153326831Y-100057729D01*
G37*
G36*
X153433494Y-99763809D02*
G01*
X153468394Y-99800860D01*
X153474462Y-99815905D01*
X153451267Y-99839698D01*
X153439994Y-99838206D01*
X153410137Y-99800860D01*
X153410582Y-99792071D01*
X153427264Y-99762022D01*
X153433494Y-99763809D01*
G37*
G36*
X153584908Y-100214033D02*
G01*
X153612795Y-100226609D01*
X153643165Y-100251652D01*
X153636726Y-100258606D01*
X153584908Y-100266915D01*
X153558126Y-100262677D01*
X153526651Y-100229296D01*
X153534898Y-100213225D01*
X153584908Y-100214033D01*
G37*
G36*
X154697640Y-100043755D02*
G01*
X154711207Y-100072726D01*
X154673247Y-100097568D01*
X154590109Y-100111564D01*
X154530585Y-100101697D01*
X154517018Y-100072726D01*
X154554978Y-100047883D01*
X154638116Y-100033888D01*
X154697640Y-100043755D01*
G37*
G36*
X154614113Y-99643216D02*
G01*
X154612620Y-99654490D01*
X154575275Y-99684346D01*
X154566485Y-99683901D01*
X154536437Y-99667220D01*
X154538224Y-99660990D01*
X154575275Y-99626090D01*
X154590319Y-99620021D01*
X154614113Y-99643216D01*
G37*
G36*
X155050613Y-100035016D02*
G01*
X155080168Y-100072726D01*
X155079039Y-100082009D01*
X155041330Y-100111564D01*
X155032046Y-100110435D01*
X155002492Y-100072726D01*
X155003620Y-100063442D01*
X155041330Y-100033888D01*
X155050613Y-100035016D01*
G37*
G36*
X155370563Y-100576881D02*
G01*
X155403944Y-100607160D01*
X155429709Y-100640631D01*
X155412174Y-100659493D01*
X155370810Y-100639268D01*
X155335880Y-100591544D01*
X155331305Y-100579229D01*
X155328457Y-100548544D01*
X155370563Y-100576881D01*
G37*
G36*
X155388726Y-100320285D02*
G01*
X155413313Y-100378936D01*
X155426384Y-100441686D01*
X155420708Y-100453351D01*
X155390871Y-100422267D01*
X155373697Y-100388662D01*
X155355358Y-100305753D01*
X155365202Y-100289805D01*
X155388726Y-100320285D01*
G37*
G36*
X155601400Y-100425316D02*
G01*
X155604480Y-100461105D01*
X155596508Y-100472728D01*
X155563350Y-100499943D01*
X155559474Y-100498933D01*
X155546223Y-100461105D01*
X155547803Y-100450460D01*
X155587353Y-100422267D01*
X155601400Y-100425316D01*
G37*
G36*
X155612734Y-100062171D02*
G01*
X155600596Y-100127099D01*
X155583410Y-100160090D01*
X155556046Y-100173170D01*
X155549620Y-100153188D01*
X155561758Y-100088261D01*
X155578943Y-100055269D01*
X155606308Y-100042189D01*
X155612734Y-100062171D01*
G37*
G36*
X155670099Y-101397453D02*
G01*
X155701574Y-101430834D01*
X155693327Y-101446905D01*
X155643317Y-101446098D01*
X155615430Y-101433522D01*
X155585061Y-101408479D01*
X155591500Y-101401524D01*
X155643317Y-101393215D01*
X155670099Y-101397453D01*
G37*
G36*
X156400657Y-100072726D02*
G01*
X156418967Y-100105995D01*
X156438305Y-100169820D01*
X156431431Y-100181488D01*
X156400657Y-100150402D01*
X156382346Y-100117132D01*
X156363008Y-100053307D01*
X156369883Y-100041639D01*
X156400657Y-100072726D01*
G37*
G36*
X150695264Y-100240561D02*
G01*
X150710901Y-100266915D01*
X150688610Y-100293124D01*
X150642696Y-100298557D01*
X150555549Y-100266915D01*
X150519249Y-100248509D01*
X150527631Y-100235611D01*
X150606389Y-100230807D01*
X150617441Y-100230685D01*
X150695264Y-100240561D01*
G37*
G36*
X153107540Y-101937480D02*
G01*
X153124507Y-101951677D01*
X153077728Y-101993968D01*
X153052094Y-102012353D01*
X152985085Y-102047667D01*
X152957662Y-102042007D01*
X152982920Y-101995203D01*
X153017377Y-101964658D01*
X153092193Y-101936946D01*
X153107540Y-101937480D01*
G37*
G36*
X154025224Y-101105716D02*
G01*
X153963577Y-101157077D01*
X153941954Y-101169131D01*
X153864162Y-101196446D01*
X153837657Y-101169897D01*
X153863637Y-101138202D01*
X153934752Y-101095875D01*
X153954464Y-101087450D01*
X154019552Y-101076914D01*
X154025224Y-101105716D01*
G37*
G36*
X150891413Y-100228113D02*
G01*
X150967435Y-100239546D01*
X150982766Y-100266915D01*
X150959064Y-100287386D01*
X150885672Y-100305753D01*
X150843518Y-100299881D01*
X150788577Y-100266915D01*
X150787547Y-100265067D01*
X150806725Y-100238419D01*
X150885672Y-100228077D01*
X150891413Y-100228113D01*
G37*
G36*
X154237716Y-99686778D02*
G01*
X154284182Y-99698341D01*
X154264571Y-99723184D01*
X154223403Y-99742868D01*
X154137767Y-99759719D01*
X154063337Y-99753158D01*
X154031544Y-99723184D01*
X154033939Y-99716182D01*
X154083564Y-99693705D01*
X154177186Y-99684941D01*
X154237716Y-99686778D01*
G37*
G36*
X155468547Y-101421109D02*
G01*
X155472126Y-101453669D01*
X155493480Y-101535681D01*
X155505834Y-101574052D01*
X155497685Y-101584197D01*
X155446597Y-101539135D01*
X155438085Y-101530939D01*
X155398856Y-101472989D01*
X155421664Y-101424563D01*
X155452357Y-101400577D01*
X155468547Y-101421109D01*
G37*
G36*
X149215400Y-99724795D02*
G01*
X149294979Y-99735739D01*
X149317931Y-99753616D01*
X149278647Y-99766047D01*
X149194774Y-99769915D01*
X149097192Y-99765704D01*
X149016329Y-99754784D01*
X148982614Y-99738524D01*
X148991149Y-99733828D01*
X149054611Y-99726197D01*
X149159676Y-99723184D01*
X149215400Y-99724795D01*
G37*
G36*
X151171402Y-100228215D02*
G01*
X151219346Y-100240352D01*
X151201468Y-100280198D01*
X151183201Y-100311834D01*
X151187003Y-100363191D01*
X151193318Y-100376830D01*
X151157537Y-100375818D01*
X151126044Y-100360958D01*
X151087291Y-100307505D01*
X151098556Y-100253027D01*
X151159445Y-100228077D01*
X151171402Y-100228215D01*
G37*
G36*
X155576918Y-100542645D02*
G01*
X155634117Y-100580379D01*
X155716195Y-100647166D01*
X155801559Y-100723880D01*
X155868614Y-100791396D01*
X155895764Y-100830588D01*
X155895302Y-100837046D01*
X155866113Y-100848153D01*
X155793932Y-100799791D01*
X155682155Y-100694132D01*
X155620094Y-100626913D01*
X155571520Y-100563791D01*
X155567469Y-100539832D01*
X155576918Y-100542645D01*
G37*
G36*
X151483472Y-100205688D02*
G01*
X151567288Y-100226023D01*
X151580263Y-100230059D01*
X151630269Y-100252607D01*
X151615102Y-100263577D01*
X151577802Y-100274621D01*
X151570878Y-100325613D01*
X151575882Y-100362358D01*
X151533825Y-100361448D01*
X151529663Y-100359701D01*
X151476009Y-100314161D01*
X151439293Y-100250856D01*
X151440150Y-100204384D01*
X151440405Y-100204155D01*
X151483472Y-100205688D01*
G37*
G36*
X155317791Y-99962535D02*
G01*
X155344784Y-99969238D01*
X155297848Y-99984070D01*
X155291966Y-99985610D01*
X155249382Y-100006811D01*
X155278429Y-100037226D01*
X155288428Y-100044185D01*
X155290907Y-100065312D01*
X155221054Y-100072131D01*
X155169980Y-100070749D01*
X155134904Y-100055527D01*
X155157843Y-100014469D01*
X155199172Y-99982631D01*
X155288822Y-99960717D01*
X155317791Y-99962535D01*
G37*
G36*
X148443758Y-99810091D02*
G01*
X148472159Y-99820033D01*
X148438883Y-99836716D01*
X148367943Y-99849718D01*
X148237888Y-99862029D01*
X148089341Y-99868011D01*
X148038038Y-99868631D01*
X147930567Y-99868965D01*
X147893831Y-99865428D01*
X147922605Y-99856060D01*
X148011666Y-99838906D01*
X148027347Y-99836106D01*
X148145475Y-99819895D01*
X148264718Y-99810102D01*
X148369378Y-99806807D01*
X148443758Y-99810091D01*
G37*
G36*
X152049409Y-100228239D02*
G01*
X152189830Y-100234732D01*
X152294581Y-100248809D01*
X152342679Y-100267862D01*
X152327951Y-100281149D01*
X152256746Y-100290788D01*
X152147190Y-100293938D01*
X152020597Y-100291149D01*
X151898279Y-100282969D01*
X151801548Y-100269948D01*
X151751717Y-100252634D01*
X151750878Y-100249739D01*
X151790156Y-100238721D01*
X151886343Y-100230992D01*
X152022625Y-100228077D01*
X152049409Y-100228239D01*
G37*
G36*
X152944082Y-99686844D02*
G01*
X153023627Y-99720102D01*
X153099434Y-99732463D01*
X153128162Y-99731596D01*
X153109143Y-99746970D01*
X153090172Y-99759781D01*
X153060596Y-99823516D01*
X153056750Y-99847317D01*
X153021758Y-99878537D01*
X153008840Y-99875934D01*
X152982920Y-99833047D01*
X152966501Y-99784958D01*
X152914954Y-99710882D01*
X152873571Y-99662309D01*
X152878218Y-99653011D01*
X152944082Y-99686844D01*
G37*
G36*
X150279999Y-99677110D02*
G01*
X150109669Y-99705538D01*
X150068448Y-99711975D01*
X149933557Y-99728204D01*
X149827338Y-99734583D01*
X149754079Y-99742799D01*
X149720534Y-99764947D01*
X149699382Y-99780828D01*
X149633005Y-99785142D01*
X149555449Y-99774405D01*
X149502281Y-99750904D01*
X149496625Y-99737404D01*
X149537940Y-99712938D01*
X149645397Y-99694400D01*
X149811290Y-99682069D01*
X150027912Y-99676222D01*
X150279999Y-99677110D01*
G37*
G36*
X156178931Y-99886705D02*
G01*
X156199298Y-99897550D01*
X156173477Y-99910392D01*
X156086739Y-99933626D01*
X155966271Y-99955299D01*
X155812577Y-99974573D01*
X155654727Y-99987177D01*
X155532746Y-99989054D01*
X155460304Y-99980076D01*
X155451070Y-99960116D01*
X155485570Y-99946775D01*
X155575722Y-99929675D01*
X155700944Y-99913327D01*
X155842557Y-99899294D01*
X155981880Y-99889139D01*
X156100231Y-99884421D01*
X156178931Y-99886705D01*
G37*
G36*
X154613203Y-100167983D02*
G01*
X154635834Y-100185514D01*
X154601317Y-100201469D01*
X154507736Y-100215028D01*
X154380211Y-100219048D01*
X154274325Y-100220340D01*
X154171428Y-100228345D01*
X154121743Y-100241446D01*
X154110429Y-100251189D01*
X154057318Y-100264583D01*
X154031544Y-100228077D01*
X154034881Y-100213758D01*
X154080091Y-100186245D01*
X154139341Y-100182480D01*
X154252373Y-100175209D01*
X154393548Y-100166079D01*
X154524326Y-100161522D01*
X154613203Y-100167983D01*
G37*
G36*
X155534706Y-101652455D02*
G01*
X155562604Y-101736498D01*
X155597869Y-101859807D01*
X155634756Y-102000218D01*
X155667520Y-102135566D01*
X155690415Y-102243684D01*
X155697696Y-102302410D01*
X155697034Y-102306106D01*
X155682884Y-102290690D01*
X155655628Y-102221062D01*
X155620922Y-102115308D01*
X155584427Y-101991517D01*
X155551799Y-101867777D01*
X155528698Y-101762175D01*
X155522194Y-101722916D01*
X155515246Y-101648390D01*
X155523250Y-101629390D01*
X155534706Y-101652455D01*
G37*
G36*
X153181551Y-99802767D02*
G01*
X153236728Y-99841901D01*
X153260680Y-99866654D01*
X153337509Y-99925993D01*
X153442919Y-99996514D01*
X153516939Y-100046498D01*
X153567451Y-100093690D01*
X153553188Y-100110826D01*
X153536127Y-100108908D01*
X153451353Y-100075252D01*
X153353094Y-100012762D01*
X153318898Y-99988181D01*
X153244325Y-99946739D01*
X153206699Y-99944795D01*
X153200769Y-99953476D01*
X153199859Y-99931817D01*
X153199753Y-99907829D01*
X153166307Y-99844431D01*
X153142885Y-99814168D01*
X153167050Y-99800860D01*
X153181551Y-99802767D01*
G37*
G36*
X155740434Y-102456678D02*
G01*
X155776318Y-102558353D01*
X155782305Y-102577134D01*
X155821831Y-102692913D01*
X155865596Y-102801587D01*
X155920980Y-102917757D01*
X155995361Y-103056019D01*
X156096118Y-103230974D01*
X156230629Y-103457221D01*
X156235759Y-103465794D01*
X156330016Y-103627772D01*
X156406789Y-103767826D01*
X156458301Y-103871235D01*
X156476777Y-103923276D01*
X156475683Y-103930321D01*
X156453695Y-103922373D01*
X156412797Y-103859423D01*
X156378658Y-103798448D01*
X156308821Y-103678071D01*
X156218810Y-103525619D01*
X156119751Y-103360052D01*
X156076301Y-103286472D01*
X155956620Y-103068059D01*
X155853291Y-102856819D01*
X155772684Y-102667320D01*
X155721169Y-102514133D01*
X155705117Y-102411824D01*
X155714580Y-102405296D01*
X155740434Y-102456678D01*
G37*
G36*
X154412175Y-99584783D02*
G01*
X154457741Y-99591652D01*
X154460791Y-99641327D01*
X154436637Y-99740891D01*
X154390171Y-99868827D01*
X154389728Y-99869895D01*
X154335299Y-99991669D01*
X154288933Y-100078468D01*
X154260623Y-100111564D01*
X154259637Y-100080188D01*
X154285276Y-99996358D01*
X154332128Y-99878457D01*
X154378940Y-99761459D01*
X154408856Y-99668480D01*
X154412929Y-99625569D01*
X154406563Y-99623459D01*
X154340893Y-99620868D01*
X154217050Y-99623881D01*
X154049597Y-99632000D01*
X153853096Y-99644727D01*
X153753787Y-99651786D01*
X153481931Y-99669625D01*
X153281544Y-99679970D01*
X153148174Y-99682948D01*
X153077371Y-99678686D01*
X153064683Y-99667313D01*
X153064822Y-99667180D01*
X153112623Y-99655265D01*
X153221915Y-99642084D01*
X153377262Y-99628475D01*
X153563230Y-99615277D01*
X153764385Y-99603328D01*
X153965292Y-99593465D01*
X154150515Y-99586528D01*
X154304621Y-99583355D01*
X154412175Y-99584783D01*
G37*
G36*
X150287558Y-99677137D02*
G01*
X150582519Y-99685091D01*
X150905091Y-99700362D01*
X151007596Y-99706585D01*
X151230954Y-99723441D01*
X151398595Y-99741009D01*
X151506891Y-99758272D01*
X151552213Y-99774209D01*
X151530933Y-99787805D01*
X151439422Y-99798039D01*
X151274051Y-99803894D01*
X151252407Y-99804292D01*
X151061074Y-99810739D01*
X150871040Y-99821406D01*
X150720493Y-99834204D01*
X150497057Y-99859118D01*
X150565141Y-99995050D01*
X150606258Y-100066025D01*
X150673116Y-100122100D01*
X150778867Y-100143036D01*
X150787858Y-100143728D01*
X150888958Y-100139401D01*
X150924510Y-100109153D01*
X150936063Y-100084710D01*
X150984413Y-100112930D01*
X151030305Y-100139731D01*
X151086240Y-100120720D01*
X151103236Y-100108066D01*
X151161729Y-100096754D01*
X151209390Y-100115140D01*
X151213279Y-100154471D01*
X151208966Y-100158367D01*
X151148077Y-100174063D01*
X151034456Y-100185081D01*
X150888499Y-100189239D01*
X150585206Y-100189239D01*
X150435201Y-99932741D01*
X150285714Y-99677131D01*
X150287558Y-99677137D01*
G37*
G36*
X154905406Y-100041125D02*
G01*
X154936032Y-100140217D01*
X154942332Y-100166644D01*
X154975866Y-100272662D01*
X155028247Y-100417431D01*
X155091198Y-100577619D01*
X155118366Y-100644492D01*
X155178854Y-100796565D01*
X155226526Y-100920751D01*
X155252892Y-100995126D01*
X155265273Y-101051216D01*
X155259325Y-101082512D01*
X155241268Y-101062510D01*
X155197995Y-100987026D01*
X155140295Y-100872739D01*
X155076861Y-100738211D01*
X155016386Y-100602003D01*
X154967564Y-100482677D01*
X154939089Y-100398794D01*
X154910206Y-100286334D01*
X154882544Y-100383429D01*
X154854883Y-100480524D01*
X154851011Y-100380193D01*
X154842362Y-100309000D01*
X154821585Y-100254306D01*
X154809974Y-100246830D01*
X154760203Y-100259884D01*
X154712864Y-100314101D01*
X154691788Y-100385410D01*
X154678278Y-100438039D01*
X154636707Y-100507439D01*
X154586898Y-100558301D01*
X154549424Y-100564714D01*
X154554749Y-100526477D01*
X154590042Y-100440433D01*
X154645929Y-100327390D01*
X154712354Y-100207621D01*
X154779259Y-100101397D01*
X154802042Y-100070258D01*
X154862245Y-100018177D01*
X154905406Y-100041125D01*
G37*
G36*
X152769066Y-99483929D02*
G01*
X152765811Y-99501285D01*
X152793823Y-99554550D01*
X152812692Y-99583196D01*
X152807477Y-99606671D01*
X152802802Y-99606199D01*
X152749602Y-99567605D01*
X152686281Y-99483701D01*
X152679499Y-99470738D01*
X152711054Y-99470738D01*
X152730473Y-99490157D01*
X152749892Y-99470738D01*
X152730473Y-99451319D01*
X152711054Y-99470738D01*
X152679499Y-99470738D01*
X152630964Y-99377966D01*
X152599661Y-99320635D01*
X152572401Y-99305161D01*
X152575536Y-99333888D01*
X152604307Y-99421105D01*
X152655255Y-99551132D01*
X152722671Y-99708637D01*
X152770727Y-99816409D01*
X152832559Y-99948689D01*
X152878419Y-100029086D01*
X152917848Y-100069697D01*
X152960390Y-100082619D01*
X153015590Y-100079951D01*
X153023350Y-100079260D01*
X153104772Y-100083911D01*
X153138272Y-100108463D01*
X153104118Y-100129023D01*
X153000984Y-100140919D01*
X152837277Y-100142102D01*
X152786864Y-100140665D01*
X152679189Y-100135061D01*
X152627680Y-100128017D01*
X152643088Y-100120720D01*
X152716380Y-100103820D01*
X152749892Y-100080604D01*
X152745711Y-100062424D01*
X152720666Y-99983032D01*
X152678046Y-99857950D01*
X152623669Y-99704514D01*
X152497446Y-99354224D01*
X152486378Y-99752313D01*
X152475310Y-100150402D01*
X152263059Y-100150402D01*
X152146079Y-100145824D01*
X152069444Y-100125326D01*
X152059807Y-100084029D01*
X152111840Y-100017243D01*
X152125331Y-100004190D01*
X152179488Y-99962676D01*
X152199995Y-99963298D01*
X152172532Y-100008193D01*
X152157305Y-100033134D01*
X152177640Y-100056150D01*
X152263345Y-100065210D01*
X152276317Y-100065539D01*
X152368932Y-100057944D01*
X152418084Y-100036615D01*
X152420196Y-100031153D01*
X152425303Y-99964970D01*
X152422879Y-99847385D01*
X152413231Y-99699687D01*
X152411150Y-99675775D01*
X152394227Y-99530476D01*
X152376457Y-99462652D01*
X152357864Y-99472402D01*
X152338167Y-99508656D01*
X152325405Y-99495111D01*
X152324427Y-99486258D01*
X152300878Y-99465647D01*
X152260788Y-99491530D01*
X152222950Y-99545764D01*
X152206161Y-99610207D01*
X152197794Y-99649238D01*
X152155865Y-99662608D01*
X152153216Y-99661753D01*
X152093804Y-99678222D01*
X152022834Y-99738461D01*
X151999795Y-99766157D01*
X151967933Y-99824368D01*
X151991627Y-99853388D01*
X152025569Y-99851190D01*
X152062765Y-99798173D01*
X152081960Y-99755547D01*
X152127466Y-99723184D01*
X152148784Y-99737271D01*
X152148637Y-99795136D01*
X152118323Y-99873905D01*
X152065105Y-99947465D01*
X152057000Y-99955448D01*
X152020292Y-99979374D01*
X152011971Y-99939567D01*
X151998946Y-99899945D01*
X151941407Y-99880468D01*
X151855440Y-99905116D01*
X151760375Y-99971442D01*
X151660128Y-100064347D01*
X151816299Y-100079241D01*
X151850844Y-100081531D01*
X151943763Y-100076001D01*
X151989155Y-100054301D01*
X151999116Y-100043422D01*
X152008905Y-100080497D01*
X152008571Y-100092756D01*
X151986162Y-100127369D01*
X151918205Y-100148019D01*
X151788653Y-100160539D01*
X151692146Y-100167124D01*
X151589165Y-100175641D01*
X151538499Y-100181896D01*
X151531305Y-100182622D01*
X151489913Y-100154048D01*
X151457795Y-100135960D01*
X151380817Y-100135724D01*
X151336502Y-100143567D01*
X151328257Y-100139090D01*
X151389870Y-100110576D01*
X151458885Y-100091203D01*
X151497737Y-100102958D01*
X151502013Y-100104290D01*
X151547022Y-100074359D01*
X151632425Y-100000252D01*
X151748212Y-99890967D01*
X151884371Y-99755501D01*
X151925358Y-99714051D01*
X152061415Y-99580404D01*
X152177391Y-99472328D01*
X152262084Y-99400012D01*
X152304292Y-99373643D01*
X152350983Y-99342373D01*
X152400714Y-99266839D01*
X152423425Y-99222902D01*
X152451140Y-99193426D01*
X152468052Y-99228001D01*
X152482109Y-99263840D01*
X152522005Y-99295967D01*
X152536805Y-99290166D01*
X152532743Y-99247420D01*
X152533314Y-99239118D01*
X152572518Y-99266259D01*
X152646383Y-99332150D01*
X152696002Y-99381419D01*
X152754227Y-99449406D01*
X152763396Y-99470738D01*
X152769066Y-99483929D01*
G37*
G36*
X157269437Y-99690421D02*
G01*
X157314320Y-99693452D01*
X157326455Y-99686295D01*
X157314267Y-99708633D01*
X157309036Y-99718221D01*
X157257989Y-99789614D01*
X157182551Y-99888185D01*
X157091962Y-100001641D01*
X156995459Y-100117692D01*
X156895214Y-100233081D01*
X156759599Y-100385865D01*
X156606683Y-100555818D01*
X156454270Y-100723024D01*
X156433845Y-100745317D01*
X156296683Y-100897926D01*
X156174979Y-101038012D01*
X156081296Y-101150869D01*
X156028200Y-101221789D01*
X155981611Y-101291658D01*
X155897388Y-101411714D01*
X155804860Y-101538857D01*
X155728983Y-101639358D01*
X155670042Y-101714166D01*
X155644037Y-101742756D01*
X155637485Y-101739409D01*
X155638867Y-101693680D01*
X155665467Y-101614392D01*
X155707320Y-101527250D01*
X155754460Y-101457957D01*
X155851676Y-101344391D01*
X155902461Y-101256783D01*
X155899116Y-101181086D01*
X155840324Y-101096135D01*
X155724768Y-100980770D01*
X155703501Y-100960265D01*
X155603910Y-100857354D01*
X155533857Y-100773514D01*
X155507385Y-100725253D01*
X155513686Y-100720600D01*
X155560820Y-100748127D01*
X155643987Y-100817295D01*
X155751167Y-100918572D01*
X155797410Y-100963994D01*
X155927375Y-101084764D01*
X156009578Y-101147472D01*
X156045723Y-101153217D01*
X156037520Y-101103101D01*
X156036865Y-101094512D01*
X156069643Y-101029346D01*
X156156646Y-100914968D01*
X156295637Y-100754148D01*
X156484376Y-100549661D01*
X156673341Y-100349400D01*
X156824921Y-100187996D01*
X156935597Y-100068633D01*
X157011779Y-99983979D01*
X157059875Y-99926706D01*
X157086295Y-99889482D01*
X157097446Y-99864978D01*
X157099739Y-99845863D01*
X157111999Y-99814529D01*
X157167706Y-99761280D01*
X157194364Y-99743416D01*
X157200495Y-99730210D01*
X157138577Y-99744416D01*
X157102291Y-99753449D01*
X156948650Y-99768041D01*
X156769617Y-99742771D01*
X156758129Y-99740348D01*
X156697795Y-99734205D01*
X156698269Y-99749474D01*
X156704527Y-99760602D01*
X156663404Y-99776367D01*
X156562336Y-99782598D01*
X156468069Y-99787205D01*
X156307864Y-99800837D01*
X156105310Y-99821405D01*
X155878434Y-99846804D01*
X155645261Y-99874932D01*
X155423816Y-99903685D01*
X155232123Y-99930958D01*
X155088208Y-99954648D01*
X155029105Y-99964332D01*
X154951608Y-99966279D01*
X154935816Y-99941800D01*
X154936289Y-99940718D01*
X154983381Y-99918974D01*
X155095890Y-99893891D01*
X155262403Y-99867591D01*
X155471506Y-99842197D01*
X155521335Y-99836746D01*
X155708312Y-99813995D01*
X155862439Y-99791676D01*
X155968891Y-99772107D01*
X156012845Y-99757603D01*
X156026518Y-99745852D01*
X156090520Y-99732094D01*
X156175265Y-99734597D01*
X156307999Y-99731651D01*
X156430741Y-99722525D01*
X156520932Y-99709101D01*
X156542731Y-99699257D01*
X156891639Y-99699257D01*
X156897478Y-99711415D01*
X156963807Y-99715613D01*
X156975868Y-99715357D01*
X157027453Y-99708633D01*
X157011615Y-99696270D01*
X156972202Y-99690026D01*
X156895101Y-99697709D01*
X156891639Y-99699257D01*
X156542731Y-99699257D01*
X156556009Y-99693261D01*
X156554003Y-99691106D01*
X156500962Y-99681863D01*
X156384440Y-99673322D01*
X156215993Y-99666012D01*
X156022908Y-99660882D01*
X156683041Y-99660882D01*
X156683642Y-99674140D01*
X156734016Y-99681280D01*
X156772191Y-99675061D01*
X156757480Y-99657816D01*
X156735021Y-99651611D01*
X156683041Y-99660882D01*
X156022908Y-99660882D01*
X156007175Y-99660464D01*
X155769541Y-99657207D01*
X155585506Y-99655783D01*
X155306160Y-99653535D01*
X155091696Y-99651368D01*
X154933860Y-99648855D01*
X154824395Y-99645570D01*
X154755046Y-99641087D01*
X154717558Y-99634977D01*
X154703676Y-99626815D01*
X154705143Y-99616175D01*
X154713706Y-99602628D01*
X154717620Y-99599092D01*
X154767610Y-99587118D01*
X154875480Y-99578584D01*
X155045175Y-99573412D01*
X155280645Y-99571522D01*
X155585835Y-99572832D01*
X155964695Y-99577263D01*
X156126313Y-99579644D01*
X156439560Y-99584923D01*
X156686777Y-99590475D01*
X156876041Y-99596815D01*
X157015426Y-99604459D01*
X157113007Y-99613921D01*
X157176861Y-99625719D01*
X157215062Y-99640366D01*
X157235686Y-99658378D01*
X157253258Y-99675061D01*
X157269437Y-99690421D01*
G37*
G36*
X150176040Y-100236015D02*
G01*
X150167001Y-100280559D01*
X150187034Y-100286059D01*
X150201695Y-100280133D01*
X150225427Y-100303461D01*
X150223796Y-100314889D01*
X150184148Y-100344591D01*
X150163539Y-100355556D01*
X150154050Y-100412557D01*
X150156196Y-100450110D01*
X150139099Y-100522083D01*
X150117406Y-100574736D01*
X150094033Y-100668059D01*
X150076774Y-100750415D01*
X150050551Y-100849817D01*
X150043125Y-100896801D01*
X150062162Y-100927160D01*
X150081566Y-100943683D01*
X150097392Y-101030318D01*
X150097011Y-101189188D01*
X150080466Y-101418055D01*
X150047796Y-101714681D01*
X150023367Y-101887864D01*
X149986214Y-102106568D01*
X149942825Y-102330226D01*
X149896773Y-102542489D01*
X149851633Y-102727006D01*
X149810978Y-102867424D01*
X149778382Y-102947394D01*
X149762669Y-102986117D01*
X149735759Y-103074945D01*
X149706237Y-103186316D01*
X149680151Y-103295940D01*
X149663551Y-103379527D01*
X149662484Y-103412787D01*
X149669781Y-103411592D01*
X149733005Y-103382382D01*
X149830441Y-103325086D01*
X149939158Y-103254456D01*
X150036225Y-103185240D01*
X150098712Y-103132188D01*
X150116048Y-103112235D01*
X150135134Y-103081679D01*
X150150695Y-103038655D01*
X150163411Y-102975013D01*
X150173965Y-102882605D01*
X150183037Y-102753285D01*
X150191309Y-102578904D01*
X150199462Y-102351315D01*
X150208177Y-102062368D01*
X150218136Y-101703918D01*
X150225477Y-101453421D01*
X150235688Y-101152548D01*
X150246423Y-100881753D01*
X150257225Y-100650553D01*
X150267641Y-100468462D01*
X150277220Y-100344997D01*
X150285508Y-100289673D01*
X150288304Y-100282805D01*
X150297854Y-100236600D01*
X150261156Y-100246470D01*
X150254109Y-100250012D01*
X150249296Y-100238783D01*
X150292315Y-100187033D01*
X150298467Y-100180724D01*
X150364490Y-100130215D01*
X150407704Y-100125542D01*
X150415851Y-100139747D01*
X150394377Y-100181642D01*
X150393846Y-100190779D01*
X150429848Y-100241708D01*
X150506313Y-100325139D01*
X150610273Y-100428961D01*
X150728761Y-100541063D01*
X150848810Y-100649335D01*
X150957453Y-100741667D01*
X151041723Y-100805947D01*
X151088652Y-100830065D01*
X151091679Y-100830207D01*
X151108990Y-100857036D01*
X151108573Y-100858776D01*
X151099280Y-100849484D01*
X151079861Y-100868903D01*
X151099280Y-100888322D01*
X151115182Y-100872421D01*
X151132109Y-100906698D01*
X151199885Y-100986293D01*
X151296488Y-101082377D01*
X151406546Y-101179587D01*
X151514691Y-101262557D01*
X151558568Y-101294925D01*
X151633003Y-101361977D01*
X151662433Y-101408206D01*
X151663382Y-101413006D01*
X151700148Y-101464723D01*
X151779619Y-101547448D01*
X151887111Y-101645661D01*
X152000495Y-101747115D01*
X152128935Y-101870017D01*
X152240548Y-101984752D01*
X152325152Y-102080321D01*
X152372563Y-102145728D01*
X152372597Y-102169974D01*
X152369973Y-102169593D01*
X152321547Y-102137928D01*
X152238294Y-102065373D01*
X152136588Y-101966075D01*
X152020678Y-101849208D01*
X151796963Y-101629960D01*
X151541849Y-101386013D01*
X151272216Y-101133442D01*
X151004942Y-100888322D01*
X150903430Y-100795766D01*
X150760107Y-100663335D01*
X150636968Y-100547611D01*
X150552837Y-100466170D01*
X150524075Y-100437715D01*
X150454799Y-100375760D01*
X150401779Y-100346324D01*
X150362883Y-100355857D01*
X150335977Y-100410807D01*
X150318929Y-100517625D01*
X150309607Y-100682760D01*
X150305876Y-100912660D01*
X150305606Y-101213776D01*
X150305912Y-101364110D01*
X150307164Y-101611671D01*
X150311301Y-101795676D01*
X150320767Y-101925541D01*
X150338004Y-102010681D01*
X150365455Y-102060511D01*
X150405561Y-102084448D01*
X150460766Y-102091905D01*
X150533511Y-102092298D01*
X150639475Y-102102015D01*
X150843322Y-102167899D01*
X151021604Y-102284013D01*
X151037903Y-102298424D01*
X151132402Y-102379413D01*
X151206974Y-102439649D01*
X151232501Y-102458281D01*
X151261881Y-102467943D01*
X151249492Y-102418204D01*
X151231087Y-102374040D01*
X151189676Y-102301120D01*
X151176165Y-102269237D01*
X151181854Y-102190633D01*
X151189196Y-102175001D01*
X151217752Y-102149562D01*
X151275323Y-102138061D01*
X151377974Y-102138665D01*
X151541775Y-102149538D01*
X151551572Y-102150288D01*
X151759455Y-102164722D01*
X151983703Y-102178109D01*
X152177439Y-102187640D01*
X152203611Y-102188879D01*
X152352728Y-102202381D01*
X152471671Y-102223414D01*
X152536690Y-102247987D01*
X152546151Y-102254207D01*
X152562282Y-102250921D01*
X152574658Y-102219372D01*
X152583865Y-102151322D01*
X152590491Y-102038538D01*
X152595124Y-101872783D01*
X152598350Y-101645823D01*
X152600756Y-101349423D01*
X152601689Y-101222346D01*
X152604729Y-100938525D01*
X152608475Y-100732010D01*
X152612790Y-100602540D01*
X152617532Y-100549849D01*
X152622563Y-100573674D01*
X152627743Y-100673752D01*
X152632933Y-100849818D01*
X152637992Y-101101609D01*
X152642782Y-101428861D01*
X152644680Y-101564017D01*
X152650230Y-101819046D01*
X152658676Y-102006963D01*
X152671474Y-102135104D01*
X152690083Y-102210805D01*
X152715962Y-102241404D01*
X152750567Y-102234236D01*
X152795357Y-102196637D01*
X152856581Y-102164428D01*
X152980152Y-102161283D01*
X153004863Y-102164568D01*
X153077434Y-102164035D01*
X153083239Y-102136354D01*
X153090961Y-102115557D01*
X153162250Y-102099967D01*
X153293877Y-102096722D01*
X153476661Y-102105950D01*
X153701421Y-102127777D01*
X153934449Y-102154825D01*
X153779097Y-102189682D01*
X153745127Y-102196969D01*
X153647903Y-102213791D01*
X153594617Y-102216675D01*
X153587044Y-102215971D01*
X153565489Y-102247650D01*
X153566573Y-102256896D01*
X153603108Y-102286488D01*
X153619416Y-102295616D01*
X153617515Y-102346977D01*
X153598429Y-102375161D01*
X153543454Y-102387953D01*
X153519625Y-102391144D01*
X153469547Y-102454656D01*
X153411865Y-102589232D01*
X153348416Y-102791076D01*
X153336545Y-102837622D01*
X153341311Y-102864759D01*
X153385116Y-102834868D01*
X153422587Y-102798632D01*
X153448975Y-102755049D01*
X153473083Y-102710307D01*
X153543687Y-102625729D01*
X153647521Y-102515747D01*
X153771200Y-102393240D01*
X153901340Y-102271089D01*
X154024555Y-102162173D01*
X154127461Y-102079373D01*
X154196672Y-102035567D01*
X154209515Y-102030475D01*
X154333714Y-101998038D01*
X154484414Y-101979087D01*
X154641008Y-101973575D01*
X154782889Y-101981457D01*
X154889449Y-102002686D01*
X154940080Y-102037218D01*
X154943554Y-102049837D01*
X154953802Y-102134492D01*
X154960961Y-102267308D01*
X154963654Y-102425597D01*
X154963654Y-102752543D01*
X155070458Y-102752688D01*
X155083903Y-102753256D01*
X155193717Y-102779470D01*
X155308234Y-102832680D01*
X155439205Y-102912528D01*
X155419711Y-102803407D01*
X155406683Y-102745089D01*
X155374302Y-102620671D01*
X155331071Y-102464899D01*
X155283949Y-102302173D01*
X155239894Y-102156894D01*
X155205862Y-102053460D01*
X155187988Y-101995119D01*
X155168022Y-101908770D01*
X155145054Y-101786565D01*
X155117295Y-101618216D01*
X155082953Y-101393433D01*
X155040237Y-101101931D01*
X155032454Y-101052144D01*
X155002071Y-100900765D01*
X154966378Y-100767340D01*
X154930325Y-100666458D01*
X154898862Y-100612710D01*
X154876940Y-100620683D01*
X154864092Y-100643226D01*
X154828240Y-100647260D01*
X154814230Y-100595717D01*
X154837296Y-100531273D01*
X154882942Y-100499943D01*
X154892156Y-100502463D01*
X154936571Y-100552737D01*
X154988884Y-100651371D01*
X155040126Y-100777046D01*
X155081329Y-100908447D01*
X155103524Y-101024255D01*
X155110198Y-101083666D01*
X155142317Y-101292065D01*
X155190456Y-101545380D01*
X155249810Y-101821936D01*
X155315573Y-102100056D01*
X155382942Y-102358064D01*
X155447111Y-102574284D01*
X155489721Y-102703765D01*
X155536231Y-102831767D01*
X155584844Y-102938886D01*
X155645227Y-103041111D01*
X155727048Y-103154434D01*
X155839975Y-103294846D01*
X155993675Y-103478336D01*
X156021080Y-103510954D01*
X156183910Y-103710568D01*
X156296942Y-103860842D01*
X156358693Y-103959691D01*
X156367682Y-104005028D01*
X156343511Y-104020842D01*
X156246257Y-104048772D01*
X156110504Y-104065037D01*
X155962932Y-104067254D01*
X155830224Y-104053040D01*
X155682155Y-104023492D01*
X155876345Y-103971335D01*
X155943591Y-103954527D01*
X156070597Y-103928866D01*
X156160801Y-103918429D01*
X156184548Y-103912757D01*
X156187080Y-103887777D01*
X156156423Y-103836196D01*
X156087234Y-103750844D01*
X155974169Y-103624549D01*
X155811885Y-103450139D01*
X155655718Y-103285059D01*
X155500504Y-103125927D01*
X155379408Y-103010661D01*
X155282688Y-102931442D01*
X155200597Y-102880452D01*
X155123393Y-102849871D01*
X155041330Y-102831882D01*
X154905397Y-102809729D01*
X154885978Y-102423944D01*
X154866559Y-102038160D01*
X154636171Y-102048953D01*
X154596781Y-102051077D01*
X154443599Y-102067948D01*
X154311304Y-102103310D01*
X154185843Y-102165457D01*
X154053160Y-102262682D01*
X153899204Y-102403278D01*
X153709918Y-102595539D01*
X153649556Y-102658058D01*
X153505673Y-102803307D01*
X153386306Y-102919027D01*
X153379171Y-102925944D01*
X153305631Y-102993007D01*
X153281947Y-103014604D01*
X153225902Y-103057919D01*
X153166533Y-103079656D01*
X153045002Y-103107263D01*
X152902450Y-103127923D01*
X152863549Y-103131961D01*
X152750367Y-103141601D01*
X152696282Y-103137377D01*
X152686784Y-103114992D01*
X152707361Y-103070148D01*
X152738373Y-103024408D01*
X152885825Y-103024408D01*
X152888835Y-103055053D01*
X152945912Y-103055449D01*
X153041177Y-103024408D01*
X153078720Y-103006902D01*
X153082405Y-102993007D01*
X153014340Y-102988300D01*
X152938713Y-102996382D01*
X152885825Y-103024408D01*
X152738373Y-103024408D01*
X152744459Y-103015431D01*
X152812988Y-102968443D01*
X153177110Y-102968443D01*
X153177488Y-102973873D01*
X153199969Y-102982425D01*
X153239075Y-102940731D01*
X153248525Y-102919027D01*
X153221948Y-102923605D01*
X153204695Y-102935594D01*
X153177110Y-102968443D01*
X152812988Y-102968443D01*
X152862647Y-102934393D01*
X153033679Y-102907894D01*
X153059145Y-102907629D01*
X153114259Y-102900360D01*
X153159472Y-102873587D01*
X153205759Y-102814725D01*
X153264094Y-102711190D01*
X153345453Y-102550398D01*
X153399137Y-102440503D01*
X153459903Y-102309097D01*
X153498508Y-102216362D01*
X153508304Y-102177519D01*
X153472201Y-102178032D01*
X153374307Y-102191707D01*
X153230629Y-102216582D01*
X153056898Y-102250125D01*
X153046632Y-102252196D01*
X152887007Y-102283734D01*
X152760224Y-102305096D01*
X152647931Y-102316666D01*
X152531774Y-102318829D01*
X152393400Y-102311966D01*
X152214457Y-102296463D01*
X151976591Y-102272701D01*
X151850269Y-102259790D01*
X151610298Y-102235350D01*
X151436631Y-102219664D01*
X151321528Y-102214230D01*
X151257248Y-102220548D01*
X151236051Y-102240115D01*
X151250195Y-102274429D01*
X151291941Y-102324989D01*
X151353547Y-102393292D01*
X151439271Y-102497067D01*
X151543668Y-102655039D01*
X151599115Y-102788780D01*
X151599415Y-102845252D01*
X151599632Y-102886304D01*
X151598118Y-102890089D01*
X151548035Y-102941693D01*
X151484522Y-102930139D01*
X151431951Y-102859347D01*
X151393365Y-102796576D01*
X151300977Y-102688669D01*
X151190271Y-102577772D01*
X151293752Y-102577772D01*
X151390124Y-102694286D01*
X151405384Y-102712747D01*
X151473335Y-102795228D01*
X151516206Y-102847696D01*
X151530562Y-102861765D01*
X151545916Y-102845252D01*
X151541581Y-102831119D01*
X151497032Y-102769977D01*
X151419834Y-102691843D01*
X151293752Y-102577772D01*
X151190271Y-102577772D01*
X151172025Y-102559494D01*
X151020567Y-102422986D01*
X150860664Y-102293081D01*
X150853669Y-102287754D01*
X150739744Y-102213262D01*
X150631492Y-102178531D01*
X150487751Y-102169974D01*
X150275778Y-102169974D01*
X150250836Y-102490387D01*
X150248846Y-102516437D01*
X150237169Y-102691461D01*
X150228879Y-102853294D01*
X150225660Y-102969841D01*
X150224172Y-103018531D01*
X150204741Y-103113287D01*
X150152269Y-103189831D01*
X150053532Y-103263342D01*
X149895305Y-103348995D01*
X149772093Y-103420439D01*
X149646809Y-103517668D01*
X149515940Y-103648096D01*
X149368246Y-103822988D01*
X149192489Y-104053613D01*
X149144737Y-104117225D01*
X149019473Y-104276240D01*
X148897353Y-104422003D01*
X148799156Y-104529378D01*
X148781120Y-104547429D01*
X148694082Y-104626966D01*
X148616059Y-104672335D01*
X148525842Y-104687861D01*
X148402221Y-104677872D01*
X148223987Y-104646693D01*
X148163279Y-104634230D01*
X148040120Y-104597655D01*
X147993960Y-104560403D01*
X148025024Y-104522875D01*
X148133537Y-104485474D01*
X148144806Y-104482720D01*
X148268642Y-104473143D01*
X148383034Y-104516835D01*
X148433540Y-104547187D01*
X148454215Y-104567521D01*
X148409754Y-104560739D01*
X148348988Y-104545699D01*
X148234984Y-104517538D01*
X148216629Y-104514023D01*
X148217425Y-104524285D01*
X148279910Y-104557061D01*
X148296877Y-104564657D01*
X148426792Y-104599069D01*
X148522653Y-104568856D01*
X148597453Y-104470477D01*
X148624182Y-104420611D01*
X148686201Y-104308078D01*
X148773096Y-104152149D01*
X148877396Y-103966222D01*
X148991626Y-103763699D01*
X149080360Y-103604024D01*
X149241927Y-103292050D01*
X149363265Y-103021604D01*
X149450381Y-102779800D01*
X149569457Y-102396519D01*
X149471586Y-102273537D01*
X149413622Y-102203523D01*
X149287182Y-102058273D01*
X149113016Y-101863821D01*
X148894753Y-101624146D01*
X148636021Y-101343222D01*
X148340449Y-101025028D01*
X148011666Y-100673539D01*
X147853431Y-100504206D01*
X147683148Y-100320283D01*
X147537085Y-100160665D01*
X147422529Y-100033385D01*
X147418086Y-100028288D01*
X147545611Y-100028288D01*
X147547147Y-100033887D01*
X147584177Y-100088116D01*
X147663171Y-100183440D01*
X147774164Y-100308216D01*
X147907191Y-100450799D01*
X148175590Y-100733161D01*
X148480601Y-101056258D01*
X148758708Y-101353334D01*
X149006029Y-101620142D01*
X149218681Y-101852434D01*
X149392781Y-102045965D01*
X149524444Y-102196484D01*
X149609789Y-102299747D01*
X149644931Y-102351504D01*
X149646082Y-102357429D01*
X149637653Y-102427490D01*
X149608057Y-102552031D01*
X149561376Y-102715374D01*
X149501691Y-102901837D01*
X149472869Y-102988503D01*
X149413017Y-103179660D01*
X149379403Y-103310457D01*
X149370082Y-103389489D01*
X149383105Y-103425353D01*
X149402287Y-103444402D01*
X149364756Y-103438421D01*
X149358042Y-103437074D01*
X149295701Y-103464505D01*
X149216743Y-103546197D01*
X149133473Y-103667143D01*
X149058198Y-103812333D01*
X149057518Y-103813866D01*
X149008963Y-103908425D01*
X148946038Y-104014775D01*
X148939577Y-104025087D01*
X148890570Y-104116894D01*
X148868938Y-104182428D01*
X148867071Y-104193132D01*
X148834403Y-104265205D01*
X148774735Y-104357198D01*
X148759909Y-104377404D01*
X148695949Y-104467792D01*
X148655929Y-104529378D01*
X148636362Y-104569223D01*
X148647426Y-104575348D01*
X148704163Y-104521444D01*
X148805622Y-104408458D01*
X148950849Y-104237331D01*
X149090885Y-104067447D01*
X149194670Y-103934889D01*
X149272080Y-103825015D01*
X149335728Y-103719901D01*
X149398229Y-103601621D01*
X149455465Y-103525690D01*
X149536727Y-103471281D01*
X149557841Y-103464171D01*
X149593781Y-103443219D01*
X149559485Y-103426014D01*
X149529591Y-103414537D01*
X149516014Y-103379840D01*
X149545540Y-103303908D01*
X149614842Y-103154013D01*
X149684185Y-102983027D01*
X149740325Y-102808761D01*
X149796222Y-102594541D01*
X149898894Y-102113124D01*
X149969622Y-101600379D01*
X149987263Y-101142201D01*
X149985985Y-101036128D01*
X149987812Y-100873108D01*
X149993948Y-100745622D01*
X150003654Y-100674713D01*
X150023442Y-100600904D01*
X150046620Y-100489900D01*
X150063945Y-100404161D01*
X150089600Y-100305420D01*
X150101785Y-100258654D01*
X150101821Y-100224696D01*
X150092433Y-100223489D01*
X150023299Y-100217208D01*
X149902922Y-100207319D01*
X149749663Y-100195352D01*
X149589087Y-100185168D01*
X149481064Y-100184916D01*
X149425530Y-100196519D01*
X149409831Y-100220927D01*
X149409820Y-100222683D01*
X149396102Y-100247881D01*
X149348800Y-100211433D01*
X149342425Y-100205668D01*
X149257281Y-100164843D01*
X149144901Y-100145445D01*
X149134667Y-100145072D01*
X149016057Y-100138645D01*
X148924357Y-100130456D01*
X148860525Y-100123414D01*
X148735708Y-100110763D01*
X148569604Y-100094500D01*
X148380626Y-100076452D01*
X148207695Y-100059743D01*
X148010981Y-100039852D01*
X147843811Y-100022029D01*
X147730091Y-100008762D01*
X147687930Y-100003966D01*
X147580976Y-100003092D01*
X147545611Y-100028288D01*
X147418086Y-100028288D01*
X147346769Y-99946476D01*
X147317093Y-99907971D01*
X147327052Y-99885228D01*
X147394769Y-99891717D01*
X147397984Y-99892554D01*
X147490678Y-99908714D01*
X147652918Y-99928788D01*
X147877170Y-99952040D01*
X148155903Y-99977734D01*
X148481584Y-100005135D01*
X148846681Y-100033508D01*
X149029854Y-100047323D01*
X149244915Y-100064110D01*
X149419812Y-100078822D01*
X149576636Y-100093445D01*
X149737479Y-100109966D01*
X149924433Y-100130368D01*
X149940584Y-100132129D01*
X150084055Y-100143107D01*
X150162656Y-100137211D01*
X150186589Y-100113796D01*
X150191002Y-100096434D01*
X150229573Y-100094707D01*
X150245465Y-100108806D01*
X150236450Y-100145547D01*
X150204251Y-100180577D01*
X150181800Y-100224696D01*
X150176040Y-100236015D01*
G37*
%TO.C,kibuzzard-6782824E*%
G36*
X151439153Y-104742261D02*
G01*
X151467263Y-104763586D01*
X151484711Y-104794604D01*
X151492950Y-104830468D01*
X151310720Y-104830468D01*
X151315567Y-104795088D01*
X151331076Y-104764555D01*
X151358216Y-104742746D01*
X151398927Y-104734507D01*
X151439153Y-104742261D01*
G37*
G36*
X151907328Y-104682649D02*
G01*
X151922837Y-104742746D01*
X151936407Y-104802358D01*
X151948523Y-104864393D01*
X151831237Y-104864393D01*
X151842869Y-104802358D01*
X151855954Y-104742746D01*
X151871463Y-104682649D01*
X151889396Y-104618190D01*
X151907328Y-104682649D01*
G37*
G36*
X154347069Y-104742261D02*
G01*
X154375179Y-104763586D01*
X154392627Y-104794604D01*
X154400866Y-104830468D01*
X154218636Y-104830468D01*
X154223483Y-104795088D01*
X154238992Y-104764555D01*
X154266132Y-104742746D01*
X154306843Y-104734507D01*
X154347069Y-104742261D01*
G37*
G36*
X155304258Y-104906558D02*
G01*
X155334791Y-104914797D01*
X155355631Y-104931276D01*
X155363386Y-104959385D01*
X155340122Y-105003489D01*
X155280026Y-105016574D01*
X155242223Y-105016090D01*
X155210236Y-105013667D01*
X155210236Y-104908982D01*
X155238345Y-104905589D01*
X155268394Y-104904135D01*
X155304258Y-104906558D01*
G37*
G36*
X153372917Y-104744684D02*
G01*
X153405389Y-104757770D01*
X153405389Y-105004943D01*
X153376795Y-105008820D01*
X153351108Y-105009789D01*
X153309428Y-105001914D01*
X153277441Y-104978287D01*
X153257085Y-104935759D01*
X153250300Y-104871179D01*
X153255510Y-104814717D01*
X153271140Y-104773279D01*
X153297433Y-104747835D01*
X153334630Y-104739353D01*
X153372917Y-104744684D01*
G37*
G36*
X154845777Y-104747835D02*
G01*
X154870979Y-104773279D01*
X154885518Y-104814717D01*
X154890365Y-104871179D01*
X154884670Y-104926671D01*
X154867586Y-104971017D01*
X154837901Y-105000096D01*
X154794404Y-105009789D01*
X154767263Y-105008820D01*
X154741092Y-105005912D01*
X154741092Y-104757770D01*
X154772110Y-104744684D01*
X154808943Y-104739353D01*
X154845777Y-104747835D01*
G37*
G36*
X150474331Y-104747713D02*
G01*
X150503774Y-104775702D01*
X150521585Y-104818957D01*
X150527522Y-104874087D01*
X150522069Y-104929337D01*
X150505712Y-104972956D01*
X150477239Y-105001308D01*
X150435438Y-105010759D01*
X150394606Y-105001308D01*
X150365163Y-104972956D01*
X150347352Y-104929337D01*
X150341415Y-104874087D01*
X150346867Y-104818957D01*
X150363224Y-104775702D01*
X150391698Y-104747713D01*
X150433499Y-104738384D01*
X150474331Y-104747713D01*
G37*
G36*
X156066455Y-105426267D02*
G01*
X155985680Y-105426267D01*
X155545615Y-105426267D01*
X155288749Y-105426267D01*
X154795373Y-105426267D01*
X154273887Y-105426267D01*
X153348200Y-105426267D01*
X152984711Y-105426267D01*
X151782772Y-105426267D01*
X151365971Y-105426267D01*
X150954985Y-105426267D01*
X150433499Y-105426267D01*
X149847069Y-105426267D01*
X149259670Y-105426267D01*
X149178895Y-105426267D01*
X148831302Y-105426267D01*
X148958281Y-105003004D01*
X149259670Y-105003004D01*
X149259670Y-105101873D01*
X149651270Y-105101873D01*
X149718152Y-105101873D01*
X149847069Y-105101873D01*
X149867546Y-105049773D01*
X149892142Y-104992342D01*
X149919404Y-104932245D01*
X149947877Y-104872148D01*
X149975987Y-104930427D01*
X150004097Y-104990888D01*
X150030268Y-105049410D01*
X150052562Y-105101873D01*
X150181480Y-105101873D01*
X150152885Y-105038868D01*
X150133014Y-105000581D01*
X150111205Y-104959385D01*
X150087820Y-104916130D01*
X150064028Y-104873117D01*
X150219282Y-104873117D01*
X150223160Y-104924854D01*
X150234791Y-104971502D01*
X150253450Y-105012576D01*
X150278410Y-105047592D01*
X150309307Y-105075944D01*
X150345777Y-105097027D01*
X150387336Y-105110112D01*
X150433499Y-105114474D01*
X150479662Y-105110112D01*
X150521221Y-105097027D01*
X150557812Y-105075944D01*
X150589072Y-105047592D01*
X150614396Y-105012576D01*
X150633176Y-104971502D01*
X150644807Y-104924854D01*
X150648685Y-104873117D01*
X150644686Y-104822108D01*
X150632691Y-104775702D01*
X150613547Y-104734749D01*
X150588103Y-104700096D01*
X150556722Y-104672229D01*
X150529331Y-104656962D01*
X150716536Y-104656962D01*
X150737861Y-104767463D01*
X150765486Y-104761647D01*
X150797958Y-104756316D01*
X150829945Y-104752923D01*
X150856116Y-104751954D01*
X150905551Y-104754377D01*
X150954985Y-104763586D01*
X150954985Y-105101873D01*
X151075179Y-105101873D01*
X151075179Y-104868271D01*
X151195373Y-104868271D01*
X151195858Y-104892503D01*
X151197312Y-104912859D01*
X151492950Y-104912859D01*
X151483741Y-104952721D01*
X151456116Y-104983133D01*
X151413951Y-105002398D01*
X151361124Y-105008820D01*
X151292788Y-105001066D01*
X151238022Y-104985557D01*
X151221544Y-105087334D01*
X151287457Y-105105266D01*
X151365971Y-105112536D01*
X151421100Y-105108780D01*
X151451177Y-105101873D01*
X151654824Y-105101873D01*
X151782772Y-105101873D01*
X151810882Y-104963263D01*
X151970817Y-104963263D01*
X151997958Y-105101873D01*
X152122029Y-105101873D01*
X152104930Y-105032180D01*
X152087754Y-104965007D01*
X152070501Y-104900355D01*
X152053169Y-104838222D01*
X152035761Y-104778610D01*
X152014133Y-104706609D01*
X151995845Y-104646300D01*
X152642546Y-104646300D01*
X152660599Y-104709668D01*
X152677925Y-104771825D01*
X152695252Y-104832649D01*
X152713305Y-104892019D01*
X152732328Y-104950056D01*
X152752562Y-105006881D01*
X152774250Y-105062374D01*
X152797635Y-105116413D01*
X152833984Y-105183295D01*
X152873725Y-105229337D01*
X152922190Y-105255993D01*
X152984711Y-105264717D01*
X153039476Y-105259870D01*
X153080672Y-105247269D01*
X153058378Y-105147431D01*
X153023967Y-105159547D01*
X152991496Y-105162940D01*
X152935276Y-105139676D01*
X152901350Y-105084426D01*
X152929783Y-105024814D01*
X152958216Y-104959709D01*
X152986649Y-104889111D01*
X152992197Y-104874087D01*
X153129137Y-104874087D01*
X153132772Y-104925823D01*
X153143677Y-104972471D01*
X153161609Y-105013303D01*
X153186326Y-105047592D01*
X153217586Y-105075096D01*
X153255147Y-105095573D01*
X153298765Y-105108295D01*
X153348200Y-105112536D01*
X153395211Y-105110839D01*
X153443192Y-105105751D01*
X153487780Y-105097996D01*
X153524614Y-105088303D01*
X153524614Y-104868271D01*
X154103289Y-104868271D01*
X154103774Y-104892503D01*
X154105228Y-104912859D01*
X154400866Y-104912859D01*
X154391657Y-104952721D01*
X154364032Y-104983133D01*
X154321867Y-105002398D01*
X154269040Y-105008820D01*
X154200704Y-105001066D01*
X154145938Y-104985557D01*
X154129460Y-105087334D01*
X154195373Y-105105266D01*
X154273887Y-105112536D01*
X154329016Y-105108780D01*
X154378087Y-105097511D01*
X154399134Y-105088303D01*
X154621867Y-105088303D01*
X154658459Y-105097996D01*
X154702320Y-105105751D01*
X154749331Y-105110839D01*
X154795373Y-105112536D01*
X154860693Y-105105535D01*
X154914490Y-105084534D01*
X154956762Y-105049531D01*
X154987188Y-105002358D01*
X155005443Y-104944846D01*
X155011528Y-104876994D01*
X155007293Y-104819805D01*
X155095858Y-104819805D01*
X155095858Y-105091211D01*
X155173402Y-105104781D01*
X155227925Y-105110597D01*
X155288749Y-105112536D01*
X155367748Y-105104781D01*
X155374607Y-105101873D01*
X155545615Y-105101873D01*
X155655147Y-105101873D01*
X155649331Y-104635637D01*
X155722998Y-104889595D01*
X155810236Y-104889595D01*
X155880995Y-104635637D01*
X155876148Y-105101873D01*
X155985680Y-105101873D01*
X155982651Y-105026752D01*
X155979379Y-104948723D01*
X155975866Y-104869482D01*
X155972110Y-104790726D01*
X155967869Y-104713424D01*
X155962901Y-104638545D01*
X155957207Y-104567544D01*
X155950785Y-104501873D01*
X155851916Y-104501873D01*
X155834953Y-104554216D01*
X155813143Y-104623036D01*
X155789880Y-104697673D01*
X155767586Y-104767463D01*
X155743354Y-104693311D01*
X155719121Y-104619644D01*
X155697796Y-104553246D01*
X155680349Y-104501873D01*
X155581480Y-104501873D01*
X155574816Y-104579418D01*
X155568394Y-104655024D01*
X155562578Y-104729297D01*
X155557732Y-104802843D01*
X155553733Y-104876267D01*
X155550462Y-104950177D01*
X155547796Y-105025177D01*
X155545615Y-105101873D01*
X155374607Y-105101873D01*
X155428329Y-105079095D01*
X155467101Y-105032568D01*
X155480672Y-104962293D01*
X155465163Y-104895411D01*
X155423483Y-104851793D01*
X155363386Y-104828045D01*
X155292627Y-104820775D01*
X155248765Y-104822713D01*
X155210236Y-104828529D01*
X155210236Y-104813990D01*
X155231560Y-104757285D01*
X155260639Y-104740201D01*
X155305228Y-104734507D01*
X155370656Y-104739353D01*
X155421544Y-104750985D01*
X155438022Y-104655024D01*
X155375017Y-104640969D01*
X155333580Y-104636243D01*
X155290688Y-104634668D01*
X155239194Y-104637940D01*
X155197150Y-104647754D01*
X155137538Y-104684587D01*
X155105551Y-104742746D01*
X155095858Y-104819805D01*
X155007293Y-104819805D01*
X155006412Y-104807905D01*
X154991065Y-104749262D01*
X154965486Y-104701066D01*
X154929891Y-104665255D01*
X154884495Y-104643769D01*
X154829299Y-104636607D01*
X154781803Y-104641938D01*
X154741092Y-104656962D01*
X154741092Y-104449531D01*
X154621867Y-104429175D01*
X154621867Y-105088303D01*
X154399134Y-105088303D01*
X154420736Y-105078852D01*
X154456601Y-105052923D01*
X154485316Y-105019846D01*
X154506520Y-104979741D01*
X154519606Y-104932487D01*
X154523967Y-104877964D01*
X154519363Y-104821502D01*
X154505551Y-104772309D01*
X154484226Y-104730508D01*
X154457085Y-104696219D01*
X154424856Y-104669442D01*
X154388265Y-104650177D01*
X154349008Y-104638545D01*
X154308782Y-104634668D01*
X154246961Y-104641292D01*
X154195911Y-104661162D01*
X154155631Y-104694280D01*
X154126552Y-104740107D01*
X154109105Y-104798104D01*
X154103289Y-104868271D01*
X153524614Y-104868271D01*
X153524614Y-104449531D01*
X153405389Y-104429175D01*
X153405389Y-104656962D01*
X153356924Y-104640969D01*
X153310397Y-104636607D01*
X153268475Y-104640847D01*
X153231883Y-104653570D01*
X153175179Y-104702035D01*
X153155187Y-104736566D01*
X153140769Y-104777156D01*
X153132045Y-104823198D01*
X153129137Y-104874087D01*
X152992197Y-104874087D01*
X153007489Y-104832679D01*
X153027360Y-104773400D01*
X153046261Y-104711274D01*
X153064194Y-104646300D01*
X152940122Y-104646300D01*
X152920252Y-104722875D01*
X152908741Y-104763586D01*
X152896504Y-104804297D01*
X152883539Y-104844644D01*
X152869848Y-104884264D01*
X152841253Y-104957447D01*
X152820898Y-104884264D01*
X152810478Y-104844765D01*
X152800543Y-104804781D01*
X152790971Y-104764434D01*
X152781641Y-104723844D01*
X152764678Y-104646300D01*
X152642546Y-104646300D01*
X151995845Y-104646300D01*
X151992869Y-104636486D01*
X151971968Y-104568240D01*
X151951431Y-104501873D01*
X151821544Y-104501873D01*
X151800250Y-104568786D01*
X151779016Y-104637697D01*
X151757843Y-104708608D01*
X151736730Y-104781518D01*
X151719961Y-104841634D01*
X151703386Y-104903728D01*
X151687005Y-104967799D01*
X151670817Y-105033847D01*
X151654824Y-105101873D01*
X151451177Y-105101873D01*
X151470171Y-105097511D01*
X151512820Y-105078852D01*
X151548685Y-105052923D01*
X151577400Y-105019846D01*
X151598604Y-104979741D01*
X151611690Y-104932487D01*
X151616051Y-104877964D01*
X151611447Y-104821502D01*
X151597635Y-104772309D01*
X151576310Y-104730508D01*
X151549169Y-104696219D01*
X151516940Y-104669442D01*
X151480349Y-104650177D01*
X151441092Y-104638545D01*
X151400866Y-104634668D01*
X151339045Y-104641292D01*
X151287995Y-104661162D01*
X151247715Y-104694280D01*
X151218636Y-104740107D01*
X151201189Y-104798104D01*
X151195373Y-104868271D01*
X151075179Y-104868271D01*
X151075179Y-104676348D01*
X151027077Y-104660597D01*
X150977764Y-104648238D01*
X150923604Y-104640242D01*
X150860963Y-104637576D01*
X150833337Y-104638545D01*
X150795050Y-104641938D01*
X150753854Y-104647754D01*
X150716536Y-104656962D01*
X150529331Y-104656962D01*
X150519767Y-104651631D01*
X150478329Y-104638909D01*
X150433499Y-104634668D01*
X150388063Y-104638909D01*
X150346746Y-104651631D01*
X150310155Y-104672229D01*
X150278895Y-104700096D01*
X150253572Y-104734749D01*
X150234791Y-104775702D01*
X150223160Y-104822108D01*
X150219282Y-104873117D01*
X150064028Y-104873117D01*
X150063224Y-104871663D01*
X150038507Y-104827439D01*
X150014759Y-104784910D01*
X150171786Y-104501873D01*
X150042869Y-104501873D01*
X149947877Y-104693796D01*
X149848038Y-104501873D01*
X149727845Y-104501873D01*
X149880995Y-104782003D01*
X149855066Y-104824652D01*
X149829622Y-104869240D01*
X149805268Y-104914192D01*
X149782610Y-104957931D01*
X149762134Y-104999612D01*
X149744323Y-105038384D01*
X149718152Y-105101873D01*
X149651270Y-105101873D01*
X149653693Y-105077641D01*
X149653208Y-105057285D01*
X149648725Y-105010759D01*
X149635276Y-104968109D01*
X149614921Y-104928973D01*
X149589719Y-104892988D01*
X149561124Y-104859789D01*
X149530591Y-104829014D01*
X149500058Y-104800056D01*
X149471463Y-104772309D01*
X149425906Y-104719967D01*
X149407974Y-104668594D01*
X149430268Y-104611889D01*
X149486488Y-104592019D01*
X149545615Y-104605589D01*
X149606681Y-104651146D01*
X149665809Y-104567786D01*
X149624008Y-104532406D01*
X149576148Y-104507689D01*
X149525381Y-104493150D01*
X149474856Y-104488303D01*
X149404097Y-104498965D01*
X149344000Y-104530952D01*
X149302320Y-104584749D01*
X149286811Y-104659870D01*
X149298442Y-104719482D01*
X149329460Y-104775217D01*
X149373079Y-104827560D01*
X149422513Y-104876025D01*
X149451593Y-104903650D01*
X149482610Y-104936607D01*
X149507328Y-104971017D01*
X149517505Y-105003004D01*
X149259670Y-105003004D01*
X148958281Y-105003004D01*
X149178895Y-104267625D01*
X149259670Y-104267625D01*
X155985680Y-104267625D01*
X156066455Y-104267625D01*
X156414048Y-104267625D01*
X156066455Y-105426267D01*
G37*
%TO.C,J10*%
D12*
X144700000Y-98600000D02*
G75*
G02*
X143300000Y-98600000I-700000J0D01*
G01*
X143300000Y-98600000D02*
G75*
G02*
X144700000Y-98600000I700000J0D01*
G01*
%TO.C,J5*%
X154650000Y-106100000D02*
X154650000Y-108100000D01*
X154650000Y-108100000D02*
X158750000Y-108100000D01*
X155100000Y-105600000D02*
X155700000Y-105600000D01*
X155400000Y-105900000D02*
X155100000Y-105600000D01*
X155400000Y-105900000D02*
X155700000Y-105600000D01*
X158750000Y-106100000D02*
X154650000Y-106100000D01*
X158750000Y-108100000D02*
X158750000Y-106100000D01*
%TO.C,J15*%
X147300000Y-89000000D02*
G75*
G02*
X145900000Y-89000000I-700000J0D01*
G01*
X145900000Y-89000000D02*
G75*
G02*
X147300000Y-89000000I700000J0D01*
G01*
%TO.C,J16*%
X159500000Y-94600000D02*
G75*
G02*
X158100000Y-94600000I-700000J0D01*
G01*
X158100000Y-94600000D02*
G75*
G02*
X159500000Y-94600000I700000J0D01*
G01*
%TO.C,J17*%
X157700000Y-95700000D02*
G75*
G02*
X156300000Y-95700000I-700000J0D01*
G01*
X156300000Y-95700000D02*
G75*
G02*
X157700000Y-95700000I700000J0D01*
G01*
%TO.C,J11*%
X134500000Y-104100000D02*
G75*
G02*
X133100000Y-104100000I-700000J0D01*
G01*
X133100000Y-104100000D02*
G75*
G02*
X134500000Y-104100000I700000J0D01*
G01*
%TO.C,J9*%
X140500000Y-99500000D02*
G75*
G02*
X139100000Y-99500000I-700000J0D01*
G01*
X139100000Y-99500000D02*
G75*
G02*
X140500000Y-99500000I700000J0D01*
G01*
%TO.C,M1*%
X162500000Y-109400000D02*
X162500000Y-111400000D01*
X162500000Y-111400000D02*
X165300000Y-111400000D01*
X165300000Y-109400000D02*
X162500000Y-109400000D01*
X165300000Y-111400000D02*
X165300000Y-109400000D01*
%TO.C,J8*%
X141300000Y-95000000D02*
G75*
G02*
X139900000Y-95000000I-700000J0D01*
G01*
X139900000Y-95000000D02*
G75*
G02*
X141300000Y-95000000I700000J0D01*
G01*
%TO.C,JP1*%
X140250000Y-101600000D02*
X140250000Y-102200000D01*
X140900000Y-102900000D02*
X143700000Y-102900000D01*
X143700000Y-100900000D02*
X140900000Y-100900000D01*
X144350000Y-102200000D02*
X144350000Y-101600000D01*
X140250000Y-101600000D02*
G75*
G02*
X140950000Y-100900000I699999J1D01*
G01*
X140950000Y-102900000D02*
G75*
G02*
X140250000Y-102200000I-1J699999D01*
G01*
X143650000Y-100900000D02*
G75*
G02*
X144350000Y-101600000I0J-700000D01*
G01*
X144350000Y-102200000D02*
G75*
G02*
X143650000Y-102900000I-700000J0D01*
G01*
%TO.C,J18*%
X159900000Y-96700000D02*
G75*
G02*
X158500000Y-96700000I-700000J0D01*
G01*
X158500000Y-96700000D02*
G75*
G02*
X159900000Y-96700000I700000J0D01*
G01*
%TD*%
%LPC*%
%TO.C,JP2*%
G36*
X159650000Y-105050000D02*
G01*
X161150000Y-105050000D01*
X161150000Y-106550000D01*
X159650000Y-106550000D01*
X159650000Y-105050000D01*
G37*
%TO.C,J5*%
G36*
X155900000Y-106350000D02*
G01*
X157500000Y-106350000D01*
X157500000Y-107850000D01*
X155900000Y-107850000D01*
X155900000Y-106350000D01*
G37*
%TO.C,M1*%
G36*
X163750000Y-109650000D02*
G01*
X164050000Y-109650000D01*
X164050000Y-111150000D01*
X163750000Y-111150000D01*
X163750000Y-109650000D01*
G37*
%TO.C,JP1*%
G36*
X141550000Y-101150000D02*
G01*
X143050000Y-101150000D01*
X143050000Y-102650000D01*
X141550000Y-102650000D01*
X141550000Y-101150000D01*
G37*
%TD*%
D14*
%TO.C,SW2*%
X143400000Y-116100000D03*
%TD*%
%TO.C,SW5*%
X161500000Y-116500000D03*
%TD*%
D15*
%TO.C,P1*%
X167644362Y-108020000D03*
D16*
X171644362Y-108020000D03*
D15*
X167644362Y-96780000D03*
D16*
X171644362Y-96780000D03*
%TD*%
D14*
%TO.C,SW3*%
X143400000Y-88900000D03*
%TD*%
%TO.C,SW4*%
X161500000Y-88500000D03*
%TD*%
D17*
%TO.C,J14*%
X142000000Y-97600000D03*
%TD*%
%TO.C,J7*%
X135100000Y-96200000D03*
%TD*%
%TO.C,J12*%
X150000000Y-89400000D03*
%TD*%
%TO.C,J4*%
X154100000Y-98200000D03*
%TD*%
D18*
%TO.C,SWD1*%
X156300000Y-111900000D03*
X154800000Y-111900000D03*
X153300000Y-111900000D03*
X151800000Y-111900000D03*
X150300000Y-111900000D03*
X148800000Y-111900000D03*
D19*
X158900000Y-116600000D03*
X146200000Y-116600000D03*
%TD*%
D20*
%TO.C,JP2*%
X160400000Y-104500000D03*
D21*
X160400000Y-105800000D03*
D22*
X160400000Y-107100000D03*
%TD*%
D17*
%TO.C,J13*%
X142100000Y-107400000D03*
%TD*%
%TO.C,J10*%
X144000000Y-98600000D03*
%TD*%
D23*
%TO.C,J5*%
X155400000Y-107100000D03*
X156700000Y-107100000D03*
X158000000Y-107100000D03*
%TD*%
D17*
%TO.C,J15*%
X146600000Y-89000000D03*
%TD*%
%TO.C,J16*%
X158800000Y-94600000D03*
%TD*%
%TO.C,J17*%
X157000000Y-95700000D03*
%TD*%
%TO.C,J11*%
X133800000Y-104100000D03*
%TD*%
%TO.C,J9*%
X139800000Y-99500000D03*
%TD*%
D23*
%TO.C,M1*%
X164550000Y-110400000D03*
X163250000Y-110400000D03*
%TD*%
D17*
%TO.C,J8*%
X140600000Y-95000000D03*
%TD*%
D24*
%TO.C,JP1*%
X141000000Y-101900000D03*
D23*
X142300000Y-101900000D03*
D25*
X143600000Y-101900000D03*
%TD*%
D17*
%TO.C,J18*%
X159200000Y-96700000D03*
%TD*%
%LPD*%
M02*
