%TF.GenerationSoftware,KiCad,Pcbnew,8.0.7*%
%TF.CreationDate,2025-01-11T23:39:27+09:00*%
%TF.ProjectId,epaper-smart-watch,65706170-6572-42d7-936d-6172742d7761,rev?*%
%TF.SameCoordinates,Original*%
%TF.FileFunction,Legend,Bot*%
%TF.FilePolarity,Positive*%
%FSLAX46Y46*%
G04 Gerber Fmt 4.6, Leading zero omitted, Abs format (unit mm)*
G04 Created by KiCad (PCBNEW 8.0.7) date 2025-01-11 23:39:27*
%MOMM*%
%LPD*%
G01*
G04 APERTURE LIST*
G04 Aperture macros list*
%AMRoundRect*
0 Rectangle with rounded corners*
0 $1 Rounding radius*
0 $2 $3 $4 $5 $6 $7 $8 $9 X,Y pos of 4 corners*
0 Add a 4 corners polygon primitive as box body*
4,1,4,$2,$3,$4,$5,$6,$7,$8,$9,$2,$3,0*
0 Add four circle primitives for the rounded corners*
1,1,$1+$1,$2,$3*
1,1,$1+$1,$4,$5*
1,1,$1+$1,$6,$7*
1,1,$1+$1,$8,$9*
0 Add four rect primitives between the rounded corners*
20,1,$1+$1,$2,$3,$4,$5,0*
20,1,$1+$1,$4,$5,$6,$7,0*
20,1,$1+$1,$6,$7,$8,$9,0*
20,1,$1+$1,$8,$9,$2,$3,0*%
%AMFreePoly0*
4,1,19,0.550000,-0.750000,0.000000,-0.750000,0.000000,-0.744911,-0.071157,-0.744911,-0.207708,-0.704816,-0.327430,-0.627875,-0.420627,-0.520320,-0.479746,-0.390866,-0.500000,-0.250000,-0.500000,0.250000,-0.479746,0.390866,-0.420627,0.520320,-0.327430,0.627875,-0.207708,0.704816,-0.071157,0.744911,0.000000,0.744911,0.000000,0.750000,0.550000,0.750000,0.550000,-0.750000,0.550000,-0.750000,
$1*%
%AMFreePoly1*
4,1,19,0.000000,0.744911,0.071157,0.744911,0.207708,0.704816,0.327430,0.627875,0.420627,0.520320,0.479746,0.390866,0.500000,0.250000,0.500000,-0.250000,0.479746,-0.390866,0.420627,-0.520320,0.327430,-0.627875,0.207708,-0.704816,0.071157,-0.744911,0.000000,-0.744911,0.000000,-0.750000,-0.550000,-0.750000,-0.550000,0.750000,0.000000,0.750000,0.000000,0.744911,0.000000,0.744911,
$1*%
G04 Aperture macros list end*
%ADD10C,0.150000*%
%ADD11C,0.000000*%
%ADD12C,0.120000*%
%ADD13C,0.700000*%
%ADD14O,2.000000X1.200000*%
%ADD15O,1.800000X1.200000*%
%ADD16C,0.800000*%
%ADD17RoundRect,0.200000X0.200000X1.250000X-0.200000X1.250000X-0.200000X-1.250000X0.200000X-1.250000X0*%
%ADD18RoundRect,0.250000X0.650000X1.650000X-0.650000X1.650000X-0.650000X-1.650000X0.650000X-1.650000X0*%
%ADD19FreePoly0,90.000000*%
%ADD20R,1.500000X1.000000*%
%ADD21FreePoly1,90.000000*%
%ADD22FreePoly0,270.000000*%
%ADD23FreePoly1,270.000000*%
G04 APERTURE END LIST*
D10*
X144954819Y-93685714D02*
X144954819Y-93114286D01*
X144954819Y-93400000D02*
X143954819Y-93400000D01*
X143954819Y-93400000D02*
X144097676Y-93304762D01*
X144097676Y-93304762D02*
X144192914Y-93209524D01*
X144192914Y-93209524D02*
X144240533Y-93114286D01*
X143954819Y-87866667D02*
X143954819Y-88485714D01*
X143954819Y-88485714D02*
X144335771Y-88152381D01*
X144335771Y-88152381D02*
X144335771Y-88295238D01*
X144335771Y-88295238D02*
X144383390Y-88390476D01*
X144383390Y-88390476D02*
X144431009Y-88438095D01*
X144431009Y-88438095D02*
X144526247Y-88485714D01*
X144526247Y-88485714D02*
X144764342Y-88485714D01*
X144764342Y-88485714D02*
X144859580Y-88438095D01*
X144859580Y-88438095D02*
X144907200Y-88390476D01*
X144907200Y-88390476D02*
X144954819Y-88295238D01*
X144954819Y-88295238D02*
X144954819Y-88009524D01*
X144954819Y-88009524D02*
X144907200Y-87914286D01*
X144907200Y-87914286D02*
X144859580Y-87866667D01*
X146554819Y-93066667D02*
X146554819Y-93685714D01*
X146554819Y-93685714D02*
X146935771Y-93352381D01*
X146935771Y-93352381D02*
X146935771Y-93495238D01*
X146935771Y-93495238D02*
X146983390Y-93590476D01*
X146983390Y-93590476D02*
X147031009Y-93638095D01*
X147031009Y-93638095D02*
X147126247Y-93685714D01*
X147126247Y-93685714D02*
X147364342Y-93685714D01*
X147364342Y-93685714D02*
X147459580Y-93638095D01*
X147459580Y-93638095D02*
X147507200Y-93590476D01*
X147507200Y-93590476D02*
X147554819Y-93495238D01*
X147554819Y-93495238D02*
X147554819Y-93209524D01*
X147554819Y-93209524D02*
X147507200Y-93114286D01*
X147507200Y-93114286D02*
X147459580Y-93066667D01*
X140854819Y-86285714D02*
X140854819Y-85714286D01*
X140854819Y-86000000D02*
X139854819Y-86000000D01*
X139854819Y-86000000D02*
X139997676Y-85904762D01*
X139997676Y-85904762D02*
X140092914Y-85809524D01*
X140092914Y-85809524D02*
X140140533Y-85714286D01*
X139854819Y-90866667D02*
X139854819Y-91485714D01*
X139854819Y-91485714D02*
X140235771Y-91152381D01*
X140235771Y-91152381D02*
X140235771Y-91295238D01*
X140235771Y-91295238D02*
X140283390Y-91390476D01*
X140283390Y-91390476D02*
X140331009Y-91438095D01*
X140331009Y-91438095D02*
X140426247Y-91485714D01*
X140426247Y-91485714D02*
X140664342Y-91485714D01*
X140664342Y-91485714D02*
X140759580Y-91438095D01*
X140759580Y-91438095D02*
X140807200Y-91390476D01*
X140807200Y-91390476D02*
X140854819Y-91295238D01*
X140854819Y-91295238D02*
X140854819Y-91009524D01*
X140854819Y-91009524D02*
X140807200Y-90914286D01*
X140807200Y-90914286D02*
X140759580Y-90866667D01*
D11*
%TO.C,kibuzzard-6782824E*%
G36*
X155729321Y-92893926D02*
G01*
X155729321Y-93387302D01*
X155729321Y-93908788D01*
X155729321Y-94834475D01*
X155729321Y-95197964D01*
X155729321Y-96399903D01*
X155729321Y-96816704D01*
X155729321Y-97227690D01*
X155729321Y-97749176D01*
X155729321Y-98335606D01*
X155729321Y-98923005D01*
X155729321Y-99003780D01*
X155729321Y-99351373D01*
X154570679Y-99003780D01*
X154570679Y-98923005D01*
X154570679Y-98707819D01*
X154791357Y-98707819D01*
X154802019Y-98778578D01*
X154834006Y-98838675D01*
X154887803Y-98880355D01*
X154962924Y-98895864D01*
X155022536Y-98884233D01*
X155078271Y-98853215D01*
X155130614Y-98809596D01*
X155179079Y-98760162D01*
X155206704Y-98731082D01*
X155239661Y-98700065D01*
X155274071Y-98675347D01*
X155306058Y-98665170D01*
X155306058Y-98923005D01*
X155404927Y-98923005D01*
X155404927Y-98531405D01*
X155380695Y-98528982D01*
X155360339Y-98529467D01*
X155313813Y-98533950D01*
X155271163Y-98547399D01*
X155232027Y-98567754D01*
X155196042Y-98592956D01*
X155162843Y-98621551D01*
X155132068Y-98652084D01*
X155103110Y-98682617D01*
X155075363Y-98711212D01*
X155023021Y-98756769D01*
X154971648Y-98774701D01*
X154914943Y-98752407D01*
X154895073Y-98696187D01*
X154908643Y-98637060D01*
X154954200Y-98575994D01*
X154870840Y-98516866D01*
X154835460Y-98558667D01*
X154810743Y-98606527D01*
X154796204Y-98657294D01*
X154791357Y-98707819D01*
X154570679Y-98707819D01*
X154570679Y-98010889D01*
X154804927Y-98010889D01*
X154804927Y-98139806D01*
X154996850Y-98234798D01*
X154804927Y-98334637D01*
X154804927Y-98454830D01*
X155085057Y-98301680D01*
X155127706Y-98327609D01*
X155172294Y-98353053D01*
X155217246Y-98377407D01*
X155260985Y-98400065D01*
X155302666Y-98420541D01*
X155341438Y-98438352D01*
X155404927Y-98464523D01*
X155404927Y-98335606D01*
X155352827Y-98315129D01*
X155295396Y-98290533D01*
X155235299Y-98263271D01*
X155175202Y-98234798D01*
X155233481Y-98206688D01*
X155293942Y-98178578D01*
X155352464Y-98152407D01*
X155404927Y-98130113D01*
X155404927Y-98001195D01*
X155341922Y-98029790D01*
X155303635Y-98049661D01*
X155262439Y-98071470D01*
X155219184Y-98094855D01*
X155174717Y-98119451D01*
X155130493Y-98144168D01*
X155087964Y-98167916D01*
X154804927Y-98010889D01*
X154570679Y-98010889D01*
X154570679Y-97749176D01*
X154937722Y-97749176D01*
X154941963Y-97794612D01*
X154954685Y-97835929D01*
X154975283Y-97872520D01*
X155003150Y-97903780D01*
X155037803Y-97929103D01*
X155078756Y-97947884D01*
X155125162Y-97959515D01*
X155176171Y-97963393D01*
X155227908Y-97959515D01*
X155274556Y-97947884D01*
X155315630Y-97929225D01*
X155350646Y-97904265D01*
X155378998Y-97873368D01*
X155400081Y-97836898D01*
X155413166Y-97795339D01*
X155417528Y-97749176D01*
X155413166Y-97703013D01*
X155400081Y-97661454D01*
X155378998Y-97624863D01*
X155350646Y-97593603D01*
X155315630Y-97568279D01*
X155274556Y-97549499D01*
X155227908Y-97537868D01*
X155176171Y-97533990D01*
X155125162Y-97537989D01*
X155078756Y-97549984D01*
X155037803Y-97569128D01*
X155003150Y-97594572D01*
X154975283Y-97625953D01*
X154954685Y-97662908D01*
X154941963Y-97704346D01*
X154937722Y-97749176D01*
X154570679Y-97749176D01*
X154570679Y-97321712D01*
X154940630Y-97321712D01*
X154941599Y-97349338D01*
X154944992Y-97387625D01*
X154950808Y-97428821D01*
X154960016Y-97466139D01*
X155070517Y-97444814D01*
X155064701Y-97417189D01*
X155059370Y-97384717D01*
X155055977Y-97352730D01*
X155055008Y-97326559D01*
X155057431Y-97277124D01*
X155066640Y-97227690D01*
X155404927Y-97227690D01*
X155404927Y-97107496D01*
X154979402Y-97107496D01*
X154963651Y-97155598D01*
X154951292Y-97204911D01*
X154943296Y-97259071D01*
X154940630Y-97321712D01*
X154570679Y-97321712D01*
X154570679Y-96781809D01*
X154937722Y-96781809D01*
X154944346Y-96843630D01*
X154964216Y-96894680D01*
X154997334Y-96934960D01*
X155043161Y-96964039D01*
X155101158Y-96981486D01*
X155171325Y-96987302D01*
X155195557Y-96986817D01*
X155215913Y-96985363D01*
X155215913Y-96689725D01*
X155255775Y-96698934D01*
X155286187Y-96726559D01*
X155305452Y-96768724D01*
X155311874Y-96821551D01*
X155304120Y-96889887D01*
X155288611Y-96944653D01*
X155390388Y-96961131D01*
X155408320Y-96895218D01*
X155415590Y-96816704D01*
X155411834Y-96761575D01*
X155400565Y-96712504D01*
X155381906Y-96669855D01*
X155355977Y-96633990D01*
X155322900Y-96605275D01*
X155282795Y-96584071D01*
X155235541Y-96570985D01*
X155181018Y-96566624D01*
X155124556Y-96571228D01*
X155075363Y-96585040D01*
X155033562Y-96606365D01*
X154999273Y-96633506D01*
X154972496Y-96665735D01*
X154953231Y-96702326D01*
X154941599Y-96741583D01*
X154937722Y-96781809D01*
X154570679Y-96781809D01*
X154570679Y-96231244D01*
X154804927Y-96231244D01*
X154804927Y-96361131D01*
X154871840Y-96382425D01*
X154940751Y-96403659D01*
X155011662Y-96424832D01*
X155084572Y-96445945D01*
X155144688Y-96462714D01*
X155206782Y-96479289D01*
X155270853Y-96495670D01*
X155336901Y-96511858D01*
X155404927Y-96527851D01*
X155404927Y-96399903D01*
X155266317Y-96371793D01*
X155266317Y-96211858D01*
X155404927Y-96184717D01*
X155404927Y-96060646D01*
X155335234Y-96077745D01*
X155268061Y-96094921D01*
X155203409Y-96112174D01*
X155141276Y-96129506D01*
X155081664Y-96146914D01*
X155009663Y-96168542D01*
X154939540Y-96189806D01*
X154871294Y-96210707D01*
X154804927Y-96231244D01*
X154570679Y-96231244D01*
X154570679Y-95118481D01*
X154949354Y-95118481D01*
X154949354Y-95242553D01*
X155025929Y-95262423D01*
X155066640Y-95273934D01*
X155107351Y-95286171D01*
X155147698Y-95299136D01*
X155187318Y-95312827D01*
X155260501Y-95341422D01*
X155187318Y-95361777D01*
X155147819Y-95372197D01*
X155107835Y-95382132D01*
X155067488Y-95391704D01*
X155026898Y-95401034D01*
X154949354Y-95417997D01*
X154949354Y-95540129D01*
X155012722Y-95522076D01*
X155074879Y-95504750D01*
X155135703Y-95487423D01*
X155195073Y-95469370D01*
X155253110Y-95450347D01*
X155309935Y-95430113D01*
X155365428Y-95408425D01*
X155419467Y-95385040D01*
X155486349Y-95348691D01*
X155532391Y-95308950D01*
X155559047Y-95260485D01*
X155567771Y-95197964D01*
X155562924Y-95143199D01*
X155550323Y-95102003D01*
X155450485Y-95124297D01*
X155462601Y-95158708D01*
X155465994Y-95191179D01*
X155442730Y-95247399D01*
X155387480Y-95281325D01*
X155327868Y-95252892D01*
X155262763Y-95224459D01*
X155192165Y-95196026D01*
X155135733Y-95175186D01*
X155076454Y-95155315D01*
X155014328Y-95136414D01*
X154949354Y-95118481D01*
X154570679Y-95118481D01*
X154570679Y-94777286D01*
X154732229Y-94777286D01*
X154960016Y-94777286D01*
X154944023Y-94825751D01*
X154939661Y-94872278D01*
X154943901Y-94914200D01*
X154956624Y-94950792D01*
X155005089Y-95007496D01*
X155039620Y-95027488D01*
X155080210Y-95041906D01*
X155126252Y-95050630D01*
X155177141Y-95053538D01*
X155228877Y-95049903D01*
X155275525Y-95038998D01*
X155316357Y-95021066D01*
X155350646Y-94996349D01*
X155378150Y-94965089D01*
X155398627Y-94927528D01*
X155411349Y-94883910D01*
X155415590Y-94834475D01*
X155413893Y-94787464D01*
X155408805Y-94739483D01*
X155401050Y-94694895D01*
X155391357Y-94658061D01*
X154752585Y-94658061D01*
X154732229Y-94777286D01*
X154570679Y-94777286D01*
X154570679Y-93873893D01*
X154937722Y-93873893D01*
X154944346Y-93935714D01*
X154964216Y-93986764D01*
X154997334Y-94027044D01*
X155043161Y-94056123D01*
X155101158Y-94073570D01*
X155171325Y-94079386D01*
X155195557Y-94078901D01*
X155215913Y-94077447D01*
X155215913Y-93781809D01*
X155255775Y-93791018D01*
X155286187Y-93818643D01*
X155305452Y-93860808D01*
X155311874Y-93913635D01*
X155304120Y-93981971D01*
X155288611Y-94036737D01*
X155390388Y-94053215D01*
X155408320Y-93987302D01*
X155415590Y-93908788D01*
X155411834Y-93853659D01*
X155400565Y-93804588D01*
X155381906Y-93761939D01*
X155355977Y-93726074D01*
X155322900Y-93697359D01*
X155282795Y-93676155D01*
X155235541Y-93663069D01*
X155181018Y-93658708D01*
X155124556Y-93663312D01*
X155075363Y-93677124D01*
X155033562Y-93698449D01*
X154999273Y-93725590D01*
X154972496Y-93757819D01*
X154953231Y-93794410D01*
X154941599Y-93833667D01*
X154937722Y-93873893D01*
X154570679Y-93873893D01*
X154570679Y-93560808D01*
X154732229Y-93560808D01*
X155391357Y-93560808D01*
X155401050Y-93524216D01*
X155408805Y-93480355D01*
X155413893Y-93433344D01*
X155415590Y-93387302D01*
X155408589Y-93321982D01*
X155387588Y-93268185D01*
X155352585Y-93225913D01*
X155305412Y-93195487D01*
X155247900Y-93177232D01*
X155180048Y-93171147D01*
X155110959Y-93176263D01*
X155052316Y-93191610D01*
X155004120Y-93217189D01*
X154968309Y-93252784D01*
X154946823Y-93298180D01*
X154939661Y-93353376D01*
X154944992Y-93400872D01*
X154960016Y-93441583D01*
X154752585Y-93441583D01*
X154732229Y-93560808D01*
X154570679Y-93560808D01*
X154570679Y-92891987D01*
X154937722Y-92891987D01*
X154940994Y-92943481D01*
X154950808Y-92985525D01*
X154987641Y-93045137D01*
X155045800Y-93077124D01*
X155122859Y-93086817D01*
X155394265Y-93086817D01*
X155407835Y-93009273D01*
X155413651Y-92954750D01*
X155415590Y-92893926D01*
X155407835Y-92814927D01*
X155382149Y-92754346D01*
X155335622Y-92715574D01*
X155265347Y-92702003D01*
X155198465Y-92717512D01*
X155154847Y-92759192D01*
X155131099Y-92819289D01*
X155123829Y-92890048D01*
X155125767Y-92933910D01*
X155131583Y-92972439D01*
X155117044Y-92972439D01*
X155060339Y-92951115D01*
X155043255Y-92922036D01*
X155037561Y-92877447D01*
X155042407Y-92812019D01*
X155054039Y-92761131D01*
X154958078Y-92744653D01*
X154944023Y-92807658D01*
X154939297Y-92849095D01*
X154937722Y-92891987D01*
X154570679Y-92891987D01*
X154570679Y-92231890D01*
X154804927Y-92231890D01*
X154804927Y-92330759D01*
X154857270Y-92347722D01*
X154926090Y-92369532D01*
X155000727Y-92392795D01*
X155070517Y-92415089D01*
X154996365Y-92439321D01*
X154922698Y-92463554D01*
X154856300Y-92484879D01*
X154804927Y-92502326D01*
X154804927Y-92601195D01*
X154882472Y-92607859D01*
X154958078Y-92614281D01*
X155032351Y-92620097D01*
X155105897Y-92624943D01*
X155179321Y-92628942D01*
X155253231Y-92632213D01*
X155328231Y-92634879D01*
X155404927Y-92637060D01*
X155404927Y-92527528D01*
X154938691Y-92533344D01*
X155192649Y-92459677D01*
X155192649Y-92372439D01*
X154938691Y-92301680D01*
X155404927Y-92306527D01*
X155404927Y-92196995D01*
X155329806Y-92200024D01*
X155251777Y-92203296D01*
X155172536Y-92206809D01*
X155093780Y-92210565D01*
X155016478Y-92214806D01*
X154941599Y-92219774D01*
X154870598Y-92225468D01*
X154804927Y-92231890D01*
X154570679Y-92231890D01*
X154570679Y-92196995D01*
X154570679Y-92116220D01*
X154570679Y-91768627D01*
X155729321Y-92116220D01*
X155729321Y-92196995D01*
X155729321Y-92637060D01*
X155729321Y-92893926D01*
G37*
G36*
X155232391Y-97660606D02*
G01*
X155276010Y-97676963D01*
X155304362Y-97705436D01*
X155313813Y-97747237D01*
X155304362Y-97788069D01*
X155276010Y-97817512D01*
X155232391Y-97835323D01*
X155177141Y-97841260D01*
X155122011Y-97835808D01*
X155078756Y-97819451D01*
X155050767Y-97790977D01*
X155041438Y-97749176D01*
X155050767Y-97708344D01*
X155078756Y-97678901D01*
X155122011Y-97661090D01*
X155177141Y-97655153D01*
X155232391Y-97660606D01*
G37*
G36*
X155311874Y-94805880D02*
G01*
X155312843Y-94831567D01*
X155304968Y-94873247D01*
X155281341Y-94905234D01*
X155238813Y-94925590D01*
X155174233Y-94932375D01*
X155117771Y-94927165D01*
X155076333Y-94911535D01*
X155050889Y-94885242D01*
X155042407Y-94848045D01*
X155047738Y-94809758D01*
X155060824Y-94777286D01*
X155307997Y-94777286D01*
X155311874Y-94805880D01*
G37*
G36*
X155229725Y-93298005D02*
G01*
X155274071Y-93315089D01*
X155303150Y-93344774D01*
X155312843Y-93388271D01*
X155311874Y-93415412D01*
X155308966Y-93441583D01*
X155060824Y-93441583D01*
X155047738Y-93410565D01*
X155042407Y-93373732D01*
X155050889Y-93336898D01*
X155076333Y-93311696D01*
X155117771Y-93297157D01*
X155174233Y-93292310D01*
X155229725Y-93298005D01*
G37*
G36*
X155167447Y-96351438D02*
G01*
X155105412Y-96339806D01*
X155045800Y-96326721D01*
X154985703Y-96311212D01*
X154921244Y-96293279D01*
X154985703Y-96275347D01*
X155045800Y-96259838D01*
X155105412Y-96246268D01*
X155167447Y-96234152D01*
X155167447Y-96351438D01*
G37*
G36*
X155133522Y-93964039D02*
G01*
X155098142Y-93959192D01*
X155067609Y-93943683D01*
X155045800Y-93916543D01*
X155037561Y-93875832D01*
X155045315Y-93835606D01*
X155066640Y-93807496D01*
X155097658Y-93790048D01*
X155133522Y-93781809D01*
X155133522Y-93964039D01*
G37*
G36*
X155133522Y-96871955D02*
G01*
X155098142Y-96867108D01*
X155067609Y-96851599D01*
X155045800Y-96824459D01*
X155037561Y-96783748D01*
X155045315Y-96743522D01*
X155066640Y-96715412D01*
X155097658Y-96697964D01*
X155133522Y-96689725D01*
X155133522Y-96871955D01*
G37*
G36*
X155306543Y-92842553D02*
G01*
X155319628Y-92902649D01*
X155319144Y-92940452D01*
X155316721Y-92972439D01*
X155212036Y-92972439D01*
X155208643Y-92944330D01*
X155207189Y-92914281D01*
X155209612Y-92878417D01*
X155217851Y-92847884D01*
X155234330Y-92827044D01*
X155262439Y-92819289D01*
X155306543Y-92842553D01*
G37*
%TO.C,G\u002A\u002A\u002A*%
G36*
X154323896Y-91839164D02*
G01*
X154351826Y-91936418D01*
X154368091Y-92072171D01*
X154370308Y-92219743D01*
X154356094Y-92352451D01*
X154326546Y-92500520D01*
X154274389Y-92306330D01*
X154257581Y-92239084D01*
X154231920Y-92112078D01*
X154221483Y-92021874D01*
X154215811Y-91998127D01*
X154190831Y-91995595D01*
X154139250Y-92026252D01*
X154053898Y-92095441D01*
X153927603Y-92208506D01*
X153753193Y-92370790D01*
X153588113Y-92526957D01*
X153428981Y-92682171D01*
X153313715Y-92803267D01*
X153234496Y-92899987D01*
X153183506Y-92982078D01*
X153152925Y-93059282D01*
X153134936Y-93141345D01*
X153112783Y-93277278D01*
X152726998Y-93296697D01*
X152341214Y-93316116D01*
X152352007Y-93546504D01*
X152354131Y-93585894D01*
X152371002Y-93739076D01*
X152406364Y-93871371D01*
X152468511Y-93996832D01*
X152565736Y-94129515D01*
X152706332Y-94283471D01*
X152898593Y-94472757D01*
X152961112Y-94533119D01*
X153106361Y-94677002D01*
X153222081Y-94796369D01*
X153228998Y-94803504D01*
X153296061Y-94877044D01*
X153317658Y-94900728D01*
X153360973Y-94956773D01*
X153382710Y-95016142D01*
X153410317Y-95137673D01*
X153430977Y-95280225D01*
X153435015Y-95319126D01*
X153444655Y-95432308D01*
X153440431Y-95486393D01*
X153418046Y-95495891D01*
X153373202Y-95475314D01*
X153318485Y-95438216D01*
X153237447Y-95320028D01*
X153213944Y-95168335D01*
X153291354Y-95168335D01*
X153299436Y-95243962D01*
X153327462Y-95296850D01*
X153358107Y-95293840D01*
X153358503Y-95236763D01*
X153327462Y-95141498D01*
X153309956Y-95103955D01*
X153296061Y-95100270D01*
X153291354Y-95168335D01*
X153213944Y-95168335D01*
X153210948Y-95148996D01*
X153210683Y-95123530D01*
X153203414Y-95068416D01*
X153176641Y-95023203D01*
X153117779Y-94976916D01*
X153041876Y-94934150D01*
X153222081Y-94934150D01*
X153226659Y-94960727D01*
X153238648Y-94977980D01*
X153271497Y-95005565D01*
X153276927Y-95005187D01*
X153285479Y-94982706D01*
X153243785Y-94943600D01*
X153222081Y-94934150D01*
X153041876Y-94934150D01*
X153014244Y-94918581D01*
X152853452Y-94837222D01*
X152743557Y-94783538D01*
X152612151Y-94722772D01*
X152519416Y-94684167D01*
X152480573Y-94674371D01*
X152481086Y-94710474D01*
X152494761Y-94808368D01*
X152519636Y-94952046D01*
X152553179Y-95125777D01*
X152555250Y-95136043D01*
X152586788Y-95295668D01*
X152608150Y-95422451D01*
X152619720Y-95534744D01*
X152621883Y-95650901D01*
X152615020Y-95789275D01*
X152599517Y-95968218D01*
X152575755Y-96206084D01*
X152562844Y-96332406D01*
X152538404Y-96572377D01*
X152522718Y-96746044D01*
X152517284Y-96861147D01*
X152523602Y-96925427D01*
X152543169Y-96946624D01*
X152577483Y-96932480D01*
X152628043Y-96890734D01*
X152630051Y-96888923D01*
X152880826Y-96888923D01*
X152997340Y-96792551D01*
X153015801Y-96777291D01*
X153098282Y-96709340D01*
X153150750Y-96666469D01*
X153164819Y-96652113D01*
X153148306Y-96636759D01*
X153134173Y-96641094D01*
X153073031Y-96685643D01*
X152994897Y-96762841D01*
X152880826Y-96888923D01*
X152630051Y-96888923D01*
X152696346Y-96829128D01*
X152800121Y-96743404D01*
X152958093Y-96639007D01*
X153091834Y-96583560D01*
X153148306Y-96583260D01*
X153189358Y-96583043D01*
X153193143Y-96584557D01*
X153244747Y-96634640D01*
X153233193Y-96698153D01*
X153162401Y-96750724D01*
X153099630Y-96789310D01*
X152991723Y-96881698D01*
X152862548Y-97010650D01*
X152726040Y-97162108D01*
X152596135Y-97322011D01*
X152590808Y-97329006D01*
X152516316Y-97442931D01*
X152481585Y-97551183D01*
X152473028Y-97694924D01*
X152473028Y-97906897D01*
X152793441Y-97931839D01*
X152819491Y-97933829D01*
X152994515Y-97945506D01*
X153156348Y-97953796D01*
X153272895Y-97957015D01*
X153321585Y-97958503D01*
X153416341Y-97977934D01*
X153492885Y-98030406D01*
X153566396Y-98129143D01*
X153652049Y-98287370D01*
X153723493Y-98410582D01*
X153820722Y-98535866D01*
X153951150Y-98666735D01*
X154126042Y-98814429D01*
X154356667Y-98990186D01*
X154420279Y-99037938D01*
X154579294Y-99163202D01*
X154725057Y-99285322D01*
X154832432Y-99383519D01*
X154850483Y-99401555D01*
X154930020Y-99488593D01*
X154975389Y-99566616D01*
X154990915Y-99656833D01*
X154980926Y-99780454D01*
X154949747Y-99958688D01*
X154937284Y-100019396D01*
X154900709Y-100142555D01*
X154863457Y-100188715D01*
X154825929Y-100157651D01*
X154788528Y-100049138D01*
X154785774Y-100037869D01*
X154776197Y-99914033D01*
X154819889Y-99799641D01*
X154850241Y-99749135D01*
X154870575Y-99728460D01*
X154863793Y-99772921D01*
X154848753Y-99833687D01*
X154820592Y-99947691D01*
X154817077Y-99966046D01*
X154827339Y-99965250D01*
X154860115Y-99902765D01*
X154867711Y-99885798D01*
X154902123Y-99755883D01*
X154871910Y-99660022D01*
X154773531Y-99585222D01*
X154723665Y-99558493D01*
X154611132Y-99496474D01*
X154455203Y-99409579D01*
X154269276Y-99305279D01*
X154066753Y-99191049D01*
X153907078Y-99102315D01*
X153595104Y-98940748D01*
X153324658Y-98819410D01*
X153082854Y-98732294D01*
X152699573Y-98613218D01*
X152576591Y-98711089D01*
X152506577Y-98769053D01*
X152361327Y-98895493D01*
X152166875Y-99069659D01*
X151927200Y-99287922D01*
X151646276Y-99546654D01*
X151328082Y-99842226D01*
X150976593Y-100171009D01*
X150807260Y-100329244D01*
X150623337Y-100499527D01*
X150463719Y-100645590D01*
X150336439Y-100760146D01*
X150249530Y-100835906D01*
X150211025Y-100865582D01*
X150188282Y-100855623D01*
X150194771Y-100787906D01*
X150195608Y-100784691D01*
X150211768Y-100691997D01*
X150222941Y-100601699D01*
X150306146Y-100601699D01*
X150331342Y-100637064D01*
X150336941Y-100635528D01*
X150391170Y-100598498D01*
X150486494Y-100519504D01*
X150611270Y-100408511D01*
X150753853Y-100275484D01*
X151036215Y-100007085D01*
X151359312Y-99702074D01*
X151656388Y-99423967D01*
X151923196Y-99176646D01*
X152155488Y-98963994D01*
X152349019Y-98789894D01*
X152499538Y-98658231D01*
X152602801Y-98572886D01*
X152654558Y-98537744D01*
X152660483Y-98536593D01*
X152730544Y-98545022D01*
X152855085Y-98574618D01*
X153018428Y-98621299D01*
X153204891Y-98680984D01*
X153291557Y-98709806D01*
X153482714Y-98769658D01*
X153613511Y-98803272D01*
X153692543Y-98812593D01*
X153728407Y-98799570D01*
X153747456Y-98780388D01*
X153741475Y-98817919D01*
X153740128Y-98824633D01*
X153767559Y-98886974D01*
X153849251Y-98965932D01*
X153970197Y-99049202D01*
X154115387Y-99124477D01*
X154116920Y-99125157D01*
X154211479Y-99173712D01*
X154317829Y-99236637D01*
X154328141Y-99243098D01*
X154419948Y-99292105D01*
X154485482Y-99313737D01*
X154496186Y-99315604D01*
X154568259Y-99348272D01*
X154660252Y-99407940D01*
X154680458Y-99422766D01*
X154770846Y-99486726D01*
X154832432Y-99526746D01*
X154872277Y-99546313D01*
X154878402Y-99535249D01*
X154824498Y-99478512D01*
X154711512Y-99377053D01*
X154540385Y-99231826D01*
X154370501Y-99091790D01*
X154237943Y-98988005D01*
X154128069Y-98910595D01*
X154022955Y-98846947D01*
X153904675Y-98784446D01*
X153828744Y-98727210D01*
X153774335Y-98645948D01*
X153767225Y-98624834D01*
X153746273Y-98588894D01*
X153729068Y-98623190D01*
X153717591Y-98653084D01*
X153682894Y-98666661D01*
X153606962Y-98637135D01*
X153457067Y-98567833D01*
X153286081Y-98498490D01*
X153111815Y-98442350D01*
X152897595Y-98386453D01*
X152416178Y-98283781D01*
X151903433Y-98213053D01*
X151445255Y-98195412D01*
X151339182Y-98196690D01*
X151176162Y-98194863D01*
X151048676Y-98188727D01*
X150977767Y-98179021D01*
X150903958Y-98159233D01*
X150792954Y-98136055D01*
X150707215Y-98118730D01*
X150608474Y-98093075D01*
X150561708Y-98080890D01*
X150527750Y-98080854D01*
X150526543Y-98090242D01*
X150520262Y-98159376D01*
X150510373Y-98279753D01*
X150498406Y-98433012D01*
X150488222Y-98593588D01*
X150487970Y-98701611D01*
X150499573Y-98757145D01*
X150523981Y-98772844D01*
X150525737Y-98772855D01*
X150550935Y-98786573D01*
X150514487Y-98833875D01*
X150508722Y-98840250D01*
X150467897Y-98925394D01*
X150448499Y-99037774D01*
X150448126Y-99048008D01*
X150441699Y-99166618D01*
X150433510Y-99258318D01*
X150426468Y-99322150D01*
X150413817Y-99446967D01*
X150397554Y-99613071D01*
X150379506Y-99802049D01*
X150362797Y-99974980D01*
X150342906Y-100171694D01*
X150325083Y-100338864D01*
X150311816Y-100452584D01*
X150307020Y-100494745D01*
X150306146Y-100601699D01*
X150222941Y-100601699D01*
X150231842Y-100529757D01*
X150255094Y-100305505D01*
X150280788Y-100026772D01*
X150308189Y-99701091D01*
X150336562Y-99335994D01*
X150350377Y-99152821D01*
X150367164Y-98937760D01*
X150381876Y-98762863D01*
X150396499Y-98606039D01*
X150413020Y-98445196D01*
X150433422Y-98258242D01*
X150435183Y-98242091D01*
X150446161Y-98098620D01*
X150440265Y-98020019D01*
X150416850Y-97996086D01*
X150399488Y-97991673D01*
X150397761Y-97953102D01*
X150411860Y-97937210D01*
X150448601Y-97946225D01*
X150483631Y-97978424D01*
X150527750Y-98000875D01*
X150539069Y-98006635D01*
X150583613Y-98015674D01*
X150589113Y-97995641D01*
X150583187Y-97980980D01*
X150606515Y-97957248D01*
X150617943Y-97958879D01*
X150647645Y-97998527D01*
X150658610Y-98019136D01*
X150715611Y-98028625D01*
X150753164Y-98026479D01*
X150825137Y-98043576D01*
X150877790Y-98065269D01*
X150971113Y-98088642D01*
X151053469Y-98105901D01*
X151152871Y-98132124D01*
X151199855Y-98139550D01*
X151230214Y-98120513D01*
X151246737Y-98101109D01*
X151333372Y-98085283D01*
X151492242Y-98085664D01*
X151721109Y-98102209D01*
X152017735Y-98134879D01*
X152190918Y-98159308D01*
X152409622Y-98196461D01*
X152633280Y-98239850D01*
X152845543Y-98285902D01*
X153030060Y-98331042D01*
X153170478Y-98371697D01*
X153250448Y-98404293D01*
X153289171Y-98420006D01*
X153377999Y-98446916D01*
X153489370Y-98476438D01*
X153598994Y-98502524D01*
X153682581Y-98519124D01*
X153715841Y-98520191D01*
X153714646Y-98512894D01*
X153685436Y-98449670D01*
X153628140Y-98352234D01*
X153557510Y-98243517D01*
X153488294Y-98146450D01*
X153435242Y-98083963D01*
X153415289Y-98066627D01*
X153384733Y-98047541D01*
X153341709Y-98031980D01*
X153278067Y-98019264D01*
X153185659Y-98008710D01*
X153056339Y-97999638D01*
X152881958Y-97991366D01*
X152654369Y-97983213D01*
X152365422Y-97974498D01*
X152006972Y-97964539D01*
X151756475Y-97957198D01*
X151455602Y-97946987D01*
X151184807Y-97936252D01*
X150953607Y-97925450D01*
X150771516Y-97915034D01*
X150648051Y-97905455D01*
X150592727Y-97897167D01*
X150585859Y-97894371D01*
X150539654Y-97884821D01*
X150549524Y-97921519D01*
X150553066Y-97928566D01*
X150541837Y-97933379D01*
X150490087Y-97890360D01*
X150483778Y-97884208D01*
X150433269Y-97818185D01*
X150428596Y-97774971D01*
X150442801Y-97766824D01*
X150484696Y-97788298D01*
X150493833Y-97788829D01*
X150544762Y-97752827D01*
X150628193Y-97676362D01*
X150732015Y-97572402D01*
X150844117Y-97453914D01*
X150952389Y-97333865D01*
X151044721Y-97225222D01*
X151109001Y-97140952D01*
X151133119Y-97094023D01*
X151133261Y-97090996D01*
X151160090Y-97073685D01*
X151161830Y-97074102D01*
X151152538Y-97083395D01*
X151171957Y-97102814D01*
X151191376Y-97083395D01*
X151175475Y-97067493D01*
X151209752Y-97050566D01*
X151289347Y-96982790D01*
X151385431Y-96886187D01*
X151482641Y-96776129D01*
X151565611Y-96667984D01*
X151597979Y-96624107D01*
X151665031Y-96549672D01*
X151711260Y-96520242D01*
X151716060Y-96519293D01*
X151767777Y-96482527D01*
X151850502Y-96403056D01*
X151948715Y-96295564D01*
X152050169Y-96182180D01*
X152173071Y-96053740D01*
X152287806Y-95942127D01*
X152383375Y-95857523D01*
X152448782Y-95810112D01*
X152473028Y-95810078D01*
X152472647Y-95812702D01*
X152440982Y-95861128D01*
X152368427Y-95944381D01*
X152269129Y-96046087D01*
X152152262Y-96161997D01*
X151933014Y-96385712D01*
X151689067Y-96640826D01*
X151436496Y-96910459D01*
X151191376Y-97177733D01*
X151098820Y-97279245D01*
X150966389Y-97422568D01*
X150850665Y-97545707D01*
X150769224Y-97629838D01*
X150740769Y-97658600D01*
X150678814Y-97727876D01*
X150649378Y-97780896D01*
X150658911Y-97819792D01*
X150713861Y-97846698D01*
X150820679Y-97863746D01*
X150985814Y-97873068D01*
X151215714Y-97876799D01*
X151516830Y-97877069D01*
X151667164Y-97876763D01*
X151914725Y-97875511D01*
X152098730Y-97871374D01*
X152228595Y-97861908D01*
X152313735Y-97844671D01*
X152363565Y-97817220D01*
X152387502Y-97777114D01*
X152394959Y-97721909D01*
X152395352Y-97649164D01*
X152405069Y-97543200D01*
X152470953Y-97339353D01*
X152587067Y-97161071D01*
X152601478Y-97144772D01*
X152682467Y-97050273D01*
X152742703Y-96975701D01*
X152761335Y-96950174D01*
X152770997Y-96920794D01*
X152721258Y-96933183D01*
X152677094Y-96951588D01*
X152604174Y-96992999D01*
X152572291Y-97006510D01*
X152493687Y-97000821D01*
X152478055Y-96993479D01*
X152452616Y-96964923D01*
X152441115Y-96907352D01*
X152441719Y-96804701D01*
X152452592Y-96640900D01*
X152453342Y-96631103D01*
X152467776Y-96423220D01*
X152481163Y-96198972D01*
X152490694Y-96005236D01*
X152491933Y-95979064D01*
X152505435Y-95829947D01*
X152526468Y-95711004D01*
X152551041Y-95645985D01*
X152557261Y-95636524D01*
X152553975Y-95620393D01*
X152522426Y-95608017D01*
X152454376Y-95598810D01*
X152341592Y-95592184D01*
X152175837Y-95587551D01*
X151948877Y-95584325D01*
X151652477Y-95581919D01*
X151525400Y-95580986D01*
X151241579Y-95577946D01*
X151035064Y-95574200D01*
X150905594Y-95569885D01*
X150852903Y-95565143D01*
X150876728Y-95560112D01*
X150976806Y-95554932D01*
X151152872Y-95549742D01*
X151404663Y-95544683D01*
X151731915Y-95539893D01*
X151867071Y-95537995D01*
X152122100Y-95532445D01*
X152310017Y-95523999D01*
X152438158Y-95511201D01*
X152513859Y-95492592D01*
X152544458Y-95466713D01*
X152537290Y-95432108D01*
X152499691Y-95387318D01*
X152467482Y-95326094D01*
X152464337Y-95202523D01*
X152467622Y-95177812D01*
X152467089Y-95105241D01*
X152439408Y-95099436D01*
X152418611Y-95091714D01*
X152403021Y-95020425D01*
X152399776Y-94888798D01*
X152409004Y-94706014D01*
X152430831Y-94481254D01*
X152457879Y-94248226D01*
X152492736Y-94403578D01*
X152500023Y-94437548D01*
X152516845Y-94534772D01*
X152519729Y-94588058D01*
X152519025Y-94595631D01*
X152550704Y-94617186D01*
X152559950Y-94616102D01*
X152589542Y-94579567D01*
X152598670Y-94563259D01*
X152650031Y-94565160D01*
X152678215Y-94584246D01*
X152691007Y-94639221D01*
X152694198Y-94663050D01*
X152757710Y-94713128D01*
X152892286Y-94770810D01*
X153094130Y-94834259D01*
X153140676Y-94846130D01*
X153167813Y-94841364D01*
X153137922Y-94797559D01*
X153101686Y-94760088D01*
X153058103Y-94733700D01*
X153013361Y-94709592D01*
X152928783Y-94638988D01*
X152818801Y-94535154D01*
X152696294Y-94411475D01*
X152574143Y-94281335D01*
X152465227Y-94158120D01*
X152382427Y-94055214D01*
X152338621Y-93986003D01*
X152333529Y-93973160D01*
X152301092Y-93848961D01*
X152282141Y-93698261D01*
X152276629Y-93541667D01*
X152284511Y-93399786D01*
X152305740Y-93293226D01*
X152340272Y-93242595D01*
X152352891Y-93239121D01*
X152437546Y-93228873D01*
X152570362Y-93221714D01*
X152728651Y-93219021D01*
X153055597Y-93219021D01*
X153055742Y-93112217D01*
X153056310Y-93098772D01*
X153082524Y-92988958D01*
X153135734Y-92874441D01*
X153215582Y-92743470D01*
X153106461Y-92762964D01*
X153048143Y-92775992D01*
X152923725Y-92808373D01*
X152767953Y-92851604D01*
X152605227Y-92898726D01*
X152459948Y-92942781D01*
X152356514Y-92976813D01*
X152298173Y-92994687D01*
X152211824Y-93014653D01*
X152089619Y-93037621D01*
X151921270Y-93065380D01*
X151696487Y-93099722D01*
X151404985Y-93142438D01*
X151355198Y-93150221D01*
X151203819Y-93180604D01*
X151070394Y-93216297D01*
X150969512Y-93252350D01*
X150915764Y-93283813D01*
X150923737Y-93305735D01*
X150946280Y-93318583D01*
X150950314Y-93354435D01*
X150898771Y-93368445D01*
X150834327Y-93345379D01*
X150802997Y-93299733D01*
X150805517Y-93290519D01*
X150855791Y-93246104D01*
X150954425Y-93193791D01*
X151080100Y-93142549D01*
X151211501Y-93101346D01*
X151327309Y-93079151D01*
X151386720Y-93072477D01*
X151595119Y-93040358D01*
X151848434Y-92992219D01*
X152124990Y-92932865D01*
X152403110Y-92867102D01*
X152661118Y-92799733D01*
X152877338Y-92735564D01*
X153006819Y-92692954D01*
X153134821Y-92646444D01*
X153241940Y-92597831D01*
X153344165Y-92537448D01*
X153457488Y-92455627D01*
X153597900Y-92342700D01*
X153781390Y-92189000D01*
X153814008Y-92161595D01*
X154013622Y-91998765D01*
X154163896Y-91885733D01*
X154262745Y-91823982D01*
X154308082Y-91814993D01*
X154323896Y-91839164D01*
G37*
G36*
X150011687Y-90868408D02*
G01*
X150021275Y-90873639D01*
X150092668Y-90924686D01*
X150191239Y-91000124D01*
X150304695Y-91090713D01*
X150420746Y-91187216D01*
X150536135Y-91287461D01*
X150688919Y-91423076D01*
X150858872Y-91575992D01*
X151026078Y-91728405D01*
X151048371Y-91748830D01*
X151200980Y-91885992D01*
X151341066Y-92007696D01*
X151453923Y-92101379D01*
X151524843Y-92154475D01*
X151594712Y-92201064D01*
X151714768Y-92285287D01*
X151841911Y-92377815D01*
X151942412Y-92453692D01*
X152017220Y-92512633D01*
X152045810Y-92538638D01*
X152042463Y-92545190D01*
X151996734Y-92543808D01*
X151917446Y-92517208D01*
X151830304Y-92475355D01*
X151761011Y-92428215D01*
X151647445Y-92330999D01*
X151559837Y-92280214D01*
X151484140Y-92283559D01*
X151399189Y-92342351D01*
X151283824Y-92457907D01*
X151263319Y-92479174D01*
X151160408Y-92578765D01*
X151076568Y-92648818D01*
X151028307Y-92675290D01*
X151023654Y-92668989D01*
X151051181Y-92621855D01*
X151120349Y-92538688D01*
X151221626Y-92431508D01*
X151267048Y-92385265D01*
X151387818Y-92255300D01*
X151450526Y-92173097D01*
X151456271Y-92136952D01*
X151406155Y-92145155D01*
X151397566Y-92145810D01*
X151332400Y-92113032D01*
X151218022Y-92026029D01*
X151057202Y-91887038D01*
X150852715Y-91698299D01*
X150652454Y-91509334D01*
X150491050Y-91357754D01*
X150371687Y-91247078D01*
X150287033Y-91170896D01*
X150229760Y-91122800D01*
X150192536Y-91096380D01*
X150168032Y-91085229D01*
X150148917Y-91082936D01*
X150117583Y-91070676D01*
X150064334Y-91014969D01*
X150046470Y-90988311D01*
X150033264Y-90982180D01*
X150047470Y-91044098D01*
X150056503Y-91080384D01*
X150071095Y-91234025D01*
X150045825Y-91413058D01*
X150043402Y-91424546D01*
X150037259Y-91484880D01*
X150052528Y-91484406D01*
X150063656Y-91478148D01*
X150079421Y-91519271D01*
X150085652Y-91620339D01*
X150090259Y-91714606D01*
X150103891Y-91874811D01*
X150124459Y-92077365D01*
X150149858Y-92304241D01*
X150177986Y-92537414D01*
X150206739Y-92758859D01*
X150234012Y-92950552D01*
X150257702Y-93094467D01*
X150267386Y-93153570D01*
X150269333Y-93231067D01*
X150244854Y-93246859D01*
X150243772Y-93246386D01*
X150222028Y-93199294D01*
X150196945Y-93086785D01*
X150170645Y-92920272D01*
X150145251Y-92711169D01*
X150139800Y-92661340D01*
X150117049Y-92474363D01*
X150094730Y-92320236D01*
X150075161Y-92213784D01*
X150060657Y-92169830D01*
X150048906Y-92156157D01*
X150035148Y-92092155D01*
X150037651Y-92007410D01*
X150034705Y-91874676D01*
X150025579Y-91751934D01*
X150012155Y-91661743D01*
X149996315Y-91626666D01*
X149994160Y-91628672D01*
X149984917Y-91681713D01*
X149976376Y-91798235D01*
X149969066Y-91966682D01*
X149963518Y-92175500D01*
X149960261Y-92413134D01*
X149958837Y-92597169D01*
X149956589Y-92876515D01*
X149954422Y-93090979D01*
X149951909Y-93248815D01*
X149948624Y-93358280D01*
X149944141Y-93427629D01*
X149938031Y-93465117D01*
X149929869Y-93478999D01*
X149919229Y-93477532D01*
X149905682Y-93468969D01*
X149902146Y-93465055D01*
X149890172Y-93415065D01*
X149881638Y-93307195D01*
X149876466Y-93137500D01*
X149874576Y-92902030D01*
X149875886Y-92596840D01*
X149880317Y-92217980D01*
X149882698Y-92056362D01*
X149887977Y-91743115D01*
X149893529Y-91495898D01*
X149895145Y-91447654D01*
X149954665Y-91447654D01*
X149963936Y-91499634D01*
X149977194Y-91499033D01*
X149984334Y-91448659D01*
X149978115Y-91410484D01*
X149960870Y-91425195D01*
X149954665Y-91447654D01*
X149895145Y-91447654D01*
X149899869Y-91306634D01*
X149905143Y-91210473D01*
X149993080Y-91210473D01*
X150000763Y-91287574D01*
X150002311Y-91291036D01*
X150014469Y-91285197D01*
X150018667Y-91218868D01*
X150018411Y-91206807D01*
X150011687Y-91155222D01*
X149999324Y-91171060D01*
X149993080Y-91210473D01*
X149905143Y-91210473D01*
X149907513Y-91167249D01*
X149916975Y-91069668D01*
X149928773Y-91005814D01*
X149943420Y-90967613D01*
X149961432Y-90946989D01*
X149978115Y-90929417D01*
X149993475Y-90913238D01*
X149996506Y-90868355D01*
X149989349Y-90856220D01*
X150011687Y-90868408D01*
G37*
G36*
X150432077Y-95078557D02*
G01*
X150443973Y-95181691D01*
X150445156Y-95345398D01*
X150443719Y-95395811D01*
X150438115Y-95503486D01*
X150431071Y-95554995D01*
X150423774Y-95539587D01*
X150406874Y-95466295D01*
X150383658Y-95432783D01*
X150365478Y-95436964D01*
X150286086Y-95462009D01*
X150161004Y-95504629D01*
X150007568Y-95559006D01*
X149657278Y-95685229D01*
X150055367Y-95696297D01*
X150453456Y-95707365D01*
X150453456Y-95919616D01*
X150448878Y-96036596D01*
X150428380Y-96113231D01*
X150387083Y-96122868D01*
X150320297Y-96070835D01*
X150307244Y-96057344D01*
X150265730Y-96003187D01*
X150266352Y-95982680D01*
X150311247Y-96010143D01*
X150336188Y-96025370D01*
X150359204Y-96005035D01*
X150368264Y-95919330D01*
X150368593Y-95906358D01*
X150360998Y-95813743D01*
X150339669Y-95764591D01*
X150334207Y-95762479D01*
X150268024Y-95757372D01*
X150150439Y-95759796D01*
X150002741Y-95769444D01*
X149978829Y-95771525D01*
X149833530Y-95788448D01*
X149765706Y-95806218D01*
X149775456Y-95824811D01*
X149811710Y-95844508D01*
X149798165Y-95857270D01*
X149789312Y-95858248D01*
X149768701Y-95881797D01*
X149794584Y-95921887D01*
X149848818Y-95959725D01*
X149913261Y-95976514D01*
X149952292Y-95984881D01*
X149965662Y-96026810D01*
X149964807Y-96029459D01*
X149981276Y-96088871D01*
X150041515Y-96159841D01*
X150069211Y-96182880D01*
X150127422Y-96214742D01*
X150156442Y-96191048D01*
X150154244Y-96157106D01*
X150101227Y-96119910D01*
X150058601Y-96100715D01*
X150026238Y-96055209D01*
X150040325Y-96033891D01*
X150098190Y-96034038D01*
X150176959Y-96064352D01*
X150250519Y-96117570D01*
X150258502Y-96125675D01*
X150282428Y-96162383D01*
X150242621Y-96170704D01*
X150202999Y-96183729D01*
X150183522Y-96241268D01*
X150208170Y-96327235D01*
X150274496Y-96422300D01*
X150367401Y-96522547D01*
X150382295Y-96366376D01*
X150384585Y-96331831D01*
X150379055Y-96238912D01*
X150357355Y-96193520D01*
X150346476Y-96183559D01*
X150383551Y-96173770D01*
X150395810Y-96174104D01*
X150430423Y-96196513D01*
X150451073Y-96264470D01*
X150463593Y-96394022D01*
X150470178Y-96490529D01*
X150478695Y-96593510D01*
X150484950Y-96644176D01*
X150485676Y-96651370D01*
X150457102Y-96692762D01*
X150439014Y-96724880D01*
X150438778Y-96801858D01*
X150446621Y-96846173D01*
X150442144Y-96854418D01*
X150413630Y-96792805D01*
X150394257Y-96723790D01*
X150406012Y-96684938D01*
X150407344Y-96680662D01*
X150377413Y-96635653D01*
X150303306Y-96550250D01*
X150194021Y-96434463D01*
X150058555Y-96298304D01*
X150017105Y-96257317D01*
X149883458Y-96121260D01*
X149775382Y-96005284D01*
X149703066Y-95920591D01*
X149676697Y-95878383D01*
X149645427Y-95831692D01*
X149569893Y-95781961D01*
X149525956Y-95759250D01*
X149496480Y-95731535D01*
X149531055Y-95714623D01*
X149566894Y-95700566D01*
X149599021Y-95660670D01*
X149593220Y-95645870D01*
X149550474Y-95649932D01*
X149542172Y-95649361D01*
X149569313Y-95610157D01*
X149635204Y-95536292D01*
X149684473Y-95486673D01*
X149724723Y-95452202D01*
X149754373Y-95452202D01*
X149773792Y-95471621D01*
X149793211Y-95452202D01*
X149773792Y-95432783D01*
X149754373Y-95452202D01*
X149724723Y-95452202D01*
X149752460Y-95428448D01*
X149773792Y-95419279D01*
X149786983Y-95413609D01*
X149804339Y-95416864D01*
X149857604Y-95388852D01*
X149886250Y-95369983D01*
X149909725Y-95375198D01*
X149909253Y-95379873D01*
X149870659Y-95433073D01*
X149786755Y-95496394D01*
X149681020Y-95551711D01*
X149623689Y-95583014D01*
X149608215Y-95610274D01*
X149636942Y-95607139D01*
X149724159Y-95578368D01*
X149854186Y-95527420D01*
X150011691Y-95460004D01*
X150119463Y-95411948D01*
X150251743Y-95350116D01*
X150332140Y-95304256D01*
X150372751Y-95264827D01*
X150385673Y-95222285D01*
X150383005Y-95167085D01*
X150382314Y-95159325D01*
X150386965Y-95077903D01*
X150411517Y-95044403D01*
X150432077Y-95078557D01*
G37*
G36*
X151385566Y-92923350D02*
G01*
X151365564Y-92941407D01*
X151290080Y-92984680D01*
X151175793Y-93042380D01*
X151041265Y-93105814D01*
X150905057Y-93166289D01*
X150785731Y-93215111D01*
X150701848Y-93243586D01*
X150589388Y-93272469D01*
X150686483Y-93300131D01*
X150783578Y-93327792D01*
X150683247Y-93331664D01*
X150612054Y-93340313D01*
X150557360Y-93361090D01*
X150549884Y-93372701D01*
X150562938Y-93422472D01*
X150617155Y-93469811D01*
X150688464Y-93490887D01*
X150741093Y-93504397D01*
X150810493Y-93545968D01*
X150861355Y-93595777D01*
X150867768Y-93633251D01*
X150829531Y-93627926D01*
X150743487Y-93592633D01*
X150630444Y-93536746D01*
X150510675Y-93470321D01*
X150404451Y-93403416D01*
X150373312Y-93380633D01*
X150321231Y-93320430D01*
X150344179Y-93277269D01*
X150443271Y-93246643D01*
X150469698Y-93240343D01*
X150575716Y-93206809D01*
X150720485Y-93154428D01*
X150880673Y-93091477D01*
X150947546Y-93064309D01*
X151099619Y-93003821D01*
X151223805Y-92956149D01*
X151298180Y-92929783D01*
X151354270Y-92917402D01*
X151385566Y-92923350D01*
G37*
G36*
X150090859Y-96651742D02*
G01*
X150101093Y-96743253D01*
X150106948Y-96908624D01*
X150107346Y-96930268D01*
X150113793Y-97121601D01*
X150124460Y-97311635D01*
X150137258Y-97462182D01*
X150162172Y-97685618D01*
X150298104Y-97617534D01*
X150369079Y-97576417D01*
X150425154Y-97509559D01*
X150446090Y-97403808D01*
X150446782Y-97394817D01*
X150442455Y-97293717D01*
X150412207Y-97258165D01*
X150387764Y-97246612D01*
X150415984Y-97198262D01*
X150442785Y-97152370D01*
X150423774Y-97096435D01*
X150411120Y-97079439D01*
X150399808Y-97020946D01*
X150418194Y-96973285D01*
X150457525Y-96969396D01*
X150461421Y-96973709D01*
X150477117Y-97034598D01*
X150488135Y-97148219D01*
X150492293Y-97294176D01*
X150492293Y-97597469D01*
X150235795Y-97747474D01*
X149980185Y-97896961D01*
X149980191Y-97895117D01*
X149988145Y-97600156D01*
X150003416Y-97277584D01*
X150009639Y-97175079D01*
X150026495Y-96951721D01*
X150044063Y-96784080D01*
X150061326Y-96675784D01*
X150077263Y-96630462D01*
X150090859Y-96651742D01*
G37*
G36*
X150043945Y-93746038D02*
G01*
X150171881Y-93792504D01*
X150172949Y-93792947D01*
X150294723Y-93847376D01*
X150381522Y-93893742D01*
X150414618Y-93922052D01*
X150383242Y-93923038D01*
X150299412Y-93897399D01*
X150181511Y-93850547D01*
X150064513Y-93803735D01*
X149971534Y-93773819D01*
X149928623Y-93769746D01*
X149926513Y-93776112D01*
X149923922Y-93841782D01*
X149926935Y-93965625D01*
X149935054Y-94133078D01*
X149947781Y-94329579D01*
X149954840Y-94428888D01*
X149972679Y-94700744D01*
X149983024Y-94901131D01*
X149986002Y-95034501D01*
X149981740Y-95105304D01*
X149970367Y-95117992D01*
X149970234Y-95117853D01*
X149958319Y-95070052D01*
X149945138Y-94960760D01*
X149931529Y-94805413D01*
X149918331Y-94619445D01*
X149906382Y-94418290D01*
X149896519Y-94217383D01*
X149889582Y-94032160D01*
X149886409Y-93878054D01*
X149887837Y-93770500D01*
X149894706Y-93724934D01*
X149944381Y-93721884D01*
X150043945Y-93746038D01*
G37*
G36*
X154233375Y-91706992D02*
G01*
X154225427Y-91728980D01*
X154162477Y-91769878D01*
X154101502Y-91804017D01*
X153981125Y-91873854D01*
X153828673Y-91963865D01*
X153663106Y-92062924D01*
X153589526Y-92106374D01*
X153371113Y-92226055D01*
X153159873Y-92329384D01*
X152970374Y-92409991D01*
X152817187Y-92461506D01*
X152714878Y-92477558D01*
X152708350Y-92468095D01*
X152759732Y-92442241D01*
X152861407Y-92406357D01*
X152880188Y-92400370D01*
X152995967Y-92360844D01*
X153104641Y-92317079D01*
X153220811Y-92261695D01*
X153359073Y-92187314D01*
X153534028Y-92086557D01*
X153760275Y-91952046D01*
X153768848Y-91946916D01*
X153930826Y-91852659D01*
X154070880Y-91775886D01*
X154174289Y-91724374D01*
X154226330Y-91705898D01*
X154233375Y-91706992D01*
G37*
G36*
X150413880Y-94629487D02*
G01*
X150411962Y-94646548D01*
X150378306Y-94731322D01*
X150315816Y-94829581D01*
X150291235Y-94863777D01*
X150249793Y-94938350D01*
X150247849Y-94975976D01*
X150256530Y-94981906D01*
X150234871Y-94982816D01*
X150210883Y-94982922D01*
X150147485Y-95016368D01*
X150117222Y-95039790D01*
X150103914Y-95015625D01*
X150105821Y-95001124D01*
X150144955Y-94945947D01*
X150169708Y-94921995D01*
X150229047Y-94845166D01*
X150299568Y-94739756D01*
X150349552Y-94665736D01*
X150396744Y-94615224D01*
X150413880Y-94629487D01*
G37*
G36*
X150504523Y-93581358D02*
G01*
X150518082Y-93674939D01*
X150522102Y-93802464D01*
X150523394Y-93908350D01*
X150531399Y-94011247D01*
X150544500Y-94060932D01*
X150554243Y-94072246D01*
X150567637Y-94125357D01*
X150531131Y-94151131D01*
X150516812Y-94147794D01*
X150489299Y-94102584D01*
X150485534Y-94043334D01*
X150478263Y-93930302D01*
X150469133Y-93789127D01*
X150464576Y-93658349D01*
X150471037Y-93569472D01*
X150488568Y-93546841D01*
X150504523Y-93581358D01*
G37*
G36*
X152609160Y-92485641D02*
G01*
X152593744Y-92499791D01*
X152524116Y-92527047D01*
X152418362Y-92561753D01*
X152294571Y-92598248D01*
X152170831Y-92630876D01*
X152065229Y-92653977D01*
X152025970Y-92660481D01*
X151951444Y-92667429D01*
X151932444Y-92659425D01*
X151955509Y-92647969D01*
X152039552Y-92620071D01*
X152162861Y-92584806D01*
X152303272Y-92547919D01*
X152438620Y-92515155D01*
X152546738Y-92492260D01*
X152605464Y-92484979D01*
X152609160Y-92485641D01*
G37*
G36*
X150008592Y-98073006D02*
G01*
X150015029Y-98114227D01*
X150031258Y-98249118D01*
X150037637Y-98355337D01*
X150045853Y-98428596D01*
X150068001Y-98462141D01*
X150083882Y-98483293D01*
X150088196Y-98549670D01*
X150077459Y-98627226D01*
X150053958Y-98680394D01*
X150040458Y-98686050D01*
X150015992Y-98644735D01*
X149997454Y-98537278D01*
X149985123Y-98371385D01*
X149979276Y-98154763D01*
X149980164Y-97902676D01*
X150008592Y-98073006D01*
G37*
G36*
X150213446Y-92009198D02*
G01*
X150236680Y-92095936D01*
X150258353Y-92216404D01*
X150277627Y-92370098D01*
X150290231Y-92527948D01*
X150292108Y-92649929D01*
X150283130Y-92722371D01*
X150263170Y-92731605D01*
X150249829Y-92697105D01*
X150232729Y-92606953D01*
X150216381Y-92481731D01*
X150202348Y-92340118D01*
X150192193Y-92200795D01*
X150187475Y-92082444D01*
X150189759Y-92003744D01*
X150200604Y-91983377D01*
X150213446Y-92009198D01*
G37*
G36*
X150139770Y-99743792D02*
G01*
X150152772Y-99814732D01*
X150165083Y-99944787D01*
X150171065Y-100093334D01*
X150171685Y-100144637D01*
X150172019Y-100252108D01*
X150168482Y-100288844D01*
X150159114Y-100260070D01*
X150141960Y-100171009D01*
X150139160Y-100155328D01*
X150122949Y-100037200D01*
X150113156Y-99917957D01*
X150109861Y-99813297D01*
X150113145Y-99738917D01*
X150123087Y-99710516D01*
X150139770Y-99743792D01*
G37*
G36*
X150584203Y-95854724D02*
G01*
X150593842Y-95925929D01*
X150596992Y-96035485D01*
X150594203Y-96162078D01*
X150586023Y-96284396D01*
X150573002Y-96381127D01*
X150555688Y-96430958D01*
X150552793Y-96431797D01*
X150541775Y-96392519D01*
X150534046Y-96296332D01*
X150531131Y-96160050D01*
X150531293Y-96133266D01*
X150537786Y-95992845D01*
X150551863Y-95888094D01*
X150570916Y-95839996D01*
X150584203Y-95854724D01*
G37*
G36*
X150050024Y-95073532D02*
G01*
X150062835Y-95092503D01*
X150126570Y-95122079D01*
X150150371Y-95125925D01*
X150181591Y-95160917D01*
X150178988Y-95173835D01*
X150136101Y-95199755D01*
X150088012Y-95216174D01*
X150013936Y-95267721D01*
X149965363Y-95309104D01*
X149956065Y-95304457D01*
X149989898Y-95238593D01*
X150023156Y-95159048D01*
X150035517Y-95083241D01*
X150034650Y-95054513D01*
X150050024Y-95073532D01*
G37*
G36*
X150566631Y-96567573D02*
G01*
X150577675Y-96604873D01*
X150628667Y-96611797D01*
X150665412Y-96606793D01*
X150664502Y-96648850D01*
X150662755Y-96653012D01*
X150617215Y-96706666D01*
X150553910Y-96743382D01*
X150507438Y-96742525D01*
X150507209Y-96742270D01*
X150508742Y-96699203D01*
X150529077Y-96615387D01*
X150533113Y-96602412D01*
X150555661Y-96552406D01*
X150566631Y-96567573D01*
G37*
G36*
X150287124Y-92884827D02*
G01*
X150288664Y-92890709D01*
X150309865Y-92933293D01*
X150340280Y-92904246D01*
X150347239Y-92894247D01*
X150368366Y-92891768D01*
X150375185Y-92961621D01*
X150373803Y-93012695D01*
X150358581Y-93047771D01*
X150317523Y-93024832D01*
X150285685Y-92983503D01*
X150263771Y-92893853D01*
X150265589Y-92864884D01*
X150272292Y-92837891D01*
X150287124Y-92884827D01*
G37*
G36*
X151140100Y-92287373D02*
G01*
X151151207Y-92316562D01*
X151102845Y-92388743D01*
X150997186Y-92500520D01*
X150929967Y-92562581D01*
X150866845Y-92611155D01*
X150842886Y-92615206D01*
X150845699Y-92605757D01*
X150883433Y-92548558D01*
X150950220Y-92466480D01*
X151026934Y-92381116D01*
X151094450Y-92314061D01*
X151133642Y-92286911D01*
X151140100Y-92287373D01*
G37*
G36*
X150069101Y-98904028D02*
G01*
X150072969Y-98987901D01*
X150068758Y-99085483D01*
X150057838Y-99166346D01*
X150041578Y-99200061D01*
X150036882Y-99191526D01*
X150029251Y-99128064D01*
X150026238Y-99022999D01*
X150027849Y-98967275D01*
X150038793Y-98887696D01*
X150056670Y-98864744D01*
X150069101Y-98904028D01*
G37*
G36*
X150583252Y-96981207D02*
G01*
X150614888Y-96999474D01*
X150666245Y-96995672D01*
X150679884Y-96989357D01*
X150678872Y-97025138D01*
X150664012Y-97056631D01*
X150610559Y-97095384D01*
X150556081Y-97084119D01*
X150531131Y-97023230D01*
X150531269Y-97011273D01*
X150543406Y-96963329D01*
X150583252Y-96981207D01*
G37*
G36*
X150590440Y-97223611D02*
G01*
X150608807Y-97297003D01*
X150602935Y-97339157D01*
X150569969Y-97394098D01*
X150568121Y-97395128D01*
X150541473Y-97375950D01*
X150531131Y-97297003D01*
X150531167Y-97291262D01*
X150542600Y-97215240D01*
X150569969Y-97199909D01*
X150590440Y-97223611D01*
G37*
G36*
X150026238Y-93918104D02*
G01*
X150045922Y-93959272D01*
X150062773Y-94044908D01*
X150056212Y-94119338D01*
X150026238Y-94151131D01*
X150019236Y-94148736D01*
X149996759Y-94099111D01*
X149987995Y-94005489D01*
X149989832Y-93944959D01*
X150001395Y-93898493D01*
X150026238Y-93918104D01*
G37*
G36*
X151887251Y-92684990D02*
G01*
X151842189Y-92736078D01*
X151833993Y-92744590D01*
X151776043Y-92783819D01*
X151727617Y-92761011D01*
X151703631Y-92730318D01*
X151724163Y-92714128D01*
X151756723Y-92710549D01*
X151838735Y-92689195D01*
X151877106Y-92676841D01*
X151887251Y-92684990D01*
G37*
G36*
X150596178Y-97494065D02*
G01*
X150601611Y-97539979D01*
X150569969Y-97627126D01*
X150551563Y-97663426D01*
X150538665Y-97655044D01*
X150533861Y-97576286D01*
X150533739Y-97565234D01*
X150543615Y-97487411D01*
X150569969Y-97471774D01*
X150596178Y-97494065D01*
G37*
G36*
X152297022Y-95104947D02*
G01*
X152315407Y-95130581D01*
X152350721Y-95197590D01*
X152345061Y-95225013D01*
X152298257Y-95199755D01*
X152267712Y-95165298D01*
X152240000Y-95090482D01*
X152240534Y-95075135D01*
X152254731Y-95058168D01*
X152297022Y-95104947D01*
G37*
G36*
X151460131Y-94219098D02*
G01*
X151472185Y-94240721D01*
X151499500Y-94318513D01*
X151472951Y-94345018D01*
X151441256Y-94319038D01*
X151398929Y-94247923D01*
X151390504Y-94228211D01*
X151379968Y-94163123D01*
X151408770Y-94157451D01*
X151460131Y-94219098D01*
G37*
G36*
X150151541Y-99161669D02*
G01*
X150181591Y-99178350D01*
X150179803Y-99184580D01*
X150142752Y-99219480D01*
X150127708Y-99225549D01*
X150103914Y-99202354D01*
X150105407Y-99191080D01*
X150142752Y-99161223D01*
X150151541Y-99161669D01*
G37*
G36*
X152404333Y-98502471D02*
G01*
X152434190Y-98539817D01*
X152433745Y-98548606D01*
X152417063Y-98578655D01*
X152410833Y-98576868D01*
X152375933Y-98539817D01*
X152369865Y-98524772D01*
X152393060Y-98500979D01*
X152404333Y-98502471D01*
G37*
G36*
X150578759Y-96792556D02*
G01*
X150608807Y-96809237D01*
X150607020Y-96815467D01*
X150569969Y-96850367D01*
X150554925Y-96856436D01*
X150531131Y-96833240D01*
X150532624Y-96821967D01*
X150569969Y-96792110D01*
X150578759Y-96792556D01*
G37*
G36*
X150117537Y-96393826D02*
G01*
X150139680Y-96442273D01*
X150103914Y-96520245D01*
X150091263Y-96537724D01*
X150071433Y-96538477D01*
X150065671Y-96469405D01*
X150075947Y-96398759D01*
X150103914Y-96384312D01*
X150117537Y-96393826D01*
G37*
G36*
X151316871Y-96482899D02*
G01*
X151346728Y-96520245D01*
X151346282Y-96529034D01*
X151329601Y-96559083D01*
X151323371Y-96557296D01*
X151288471Y-96520245D01*
X151282402Y-96505201D01*
X151305598Y-96481407D01*
X151316871Y-96482899D01*
G37*
G36*
X151502079Y-96418566D02*
G01*
X151500332Y-96425394D01*
X151463241Y-96461988D01*
X151449491Y-96469222D01*
X151424404Y-96466572D01*
X151426151Y-96459744D01*
X151463241Y-96423150D01*
X151476992Y-96415916D01*
X151502079Y-96418566D01*
G37*
G36*
X151773945Y-96263214D02*
G01*
X151772197Y-96270043D01*
X151735107Y-96306636D01*
X151721356Y-96313870D01*
X151696269Y-96311221D01*
X151698017Y-96304392D01*
X151735107Y-96267798D01*
X151748858Y-96260564D01*
X151773945Y-96263214D01*
G37*
G36*
X151083843Y-95783816D02*
G01*
X151113700Y-95821162D01*
X151113255Y-95829951D01*
X151096573Y-95860000D01*
X151090343Y-95858213D01*
X151055443Y-95821162D01*
X151049375Y-95806117D01*
X151072570Y-95782324D01*
X151083843Y-95783816D01*
G37*
G36*
X152201162Y-95663518D02*
G01*
X152199669Y-95674791D01*
X152162324Y-95704648D01*
X152153535Y-95704203D01*
X152123486Y-95687521D01*
X152125273Y-95681291D01*
X152162324Y-95646391D01*
X152177368Y-95640323D01*
X152201162Y-95663518D01*
G37*
G36*
X150571094Y-95394434D02*
G01*
X150582129Y-95412851D01*
X150606774Y-95484262D01*
X150578234Y-95510458D01*
X150557869Y-95491637D01*
X150541115Y-95423563D01*
X150539978Y-95405894D01*
X150544812Y-95365491D01*
X150571094Y-95394434D01*
G37*
G36*
X150578759Y-95161362D02*
G01*
X150608807Y-95178044D01*
X150607020Y-95184274D01*
X150569969Y-95219174D01*
X150554925Y-95225243D01*
X150531131Y-95202047D01*
X150532624Y-95190774D01*
X150569969Y-95160917D01*
X150578759Y-95161362D01*
G37*
G36*
X151502079Y-94964435D02*
G01*
X151500587Y-94975709D01*
X151463241Y-95005565D01*
X151454452Y-95005120D01*
X151424404Y-94988439D01*
X151426191Y-94982209D01*
X151463241Y-94947309D01*
X151478286Y-94941240D01*
X151502079Y-94964435D01*
G37*
G36*
X150531131Y-94889052D02*
G01*
X150554958Y-94927142D01*
X150565044Y-94960762D01*
X150531131Y-94966728D01*
X150510683Y-94956376D01*
X150492888Y-94898761D01*
X150493014Y-94890054D01*
X150501033Y-94853348D01*
X150531131Y-94889052D01*
G37*
G36*
X150103914Y-94903886D02*
G01*
X150102167Y-94910715D01*
X150065076Y-94947309D01*
X150051326Y-94954543D01*
X150026238Y-94951893D01*
X150027986Y-94945064D01*
X150065076Y-94908471D01*
X150078827Y-94901237D01*
X150103914Y-94903886D01*
G37*
G36*
X150430961Y-94820858D02*
G01*
X150429908Y-94866387D01*
X150413265Y-94896771D01*
X150368388Y-94927890D01*
X150365508Y-94927791D01*
X150342856Y-94902664D01*
X150360783Y-94855844D01*
X150407362Y-94820267D01*
X150430961Y-94820858D01*
G37*
G36*
X150142752Y-94731408D02*
G01*
X150141260Y-94742681D01*
X150103914Y-94772538D01*
X150095125Y-94772093D01*
X150065076Y-94755411D01*
X150066863Y-94749181D01*
X150103914Y-94714281D01*
X150118959Y-94708213D01*
X150142752Y-94731408D01*
G37*
G36*
X150561660Y-94545949D02*
G01*
X150569969Y-94597767D01*
X150565731Y-94624549D01*
X150532350Y-94656024D01*
X150516279Y-94647777D01*
X150517087Y-94597767D01*
X150529663Y-94569880D01*
X150554706Y-94539510D01*
X150561660Y-94545949D01*
G37*
G36*
X150400622Y-93509428D02*
G01*
X150414618Y-93592566D01*
X150404751Y-93652090D01*
X150375780Y-93665657D01*
X150350937Y-93627697D01*
X150336942Y-93544559D01*
X150346809Y-93485035D01*
X150375780Y-93471468D01*
X150400622Y-93509428D01*
G37*
G36*
X149957544Y-93570055D02*
G01*
X149987400Y-93607400D01*
X149986955Y-93616190D01*
X149970274Y-93646238D01*
X149964044Y-93644451D01*
X149929144Y-93607400D01*
X149923075Y-93592356D01*
X149946270Y-93568562D01*
X149957544Y-93570055D01*
G37*
G36*
X150385063Y-93103636D02*
G01*
X150414618Y-93141345D01*
X150413489Y-93150629D01*
X150375780Y-93180183D01*
X150366496Y-93179055D01*
X150336942Y-93141345D01*
X150338070Y-93132062D01*
X150375780Y-93102507D01*
X150385063Y-93103636D01*
G37*
G36*
X150962547Y-92770501D02*
G01*
X150942322Y-92811865D01*
X150894598Y-92846795D01*
X150882283Y-92851370D01*
X150851598Y-92854218D01*
X150879935Y-92812112D01*
X150910214Y-92778731D01*
X150943685Y-92752966D01*
X150962547Y-92770501D01*
G37*
G36*
X150756405Y-92761967D02*
G01*
X150725321Y-92791804D01*
X150691716Y-92808978D01*
X150608807Y-92827317D01*
X150592859Y-92817473D01*
X150623339Y-92793949D01*
X150681990Y-92769362D01*
X150744740Y-92756291D01*
X150756405Y-92761967D01*
G37*
G36*
X150775782Y-92586167D02*
G01*
X150802997Y-92619325D01*
X150801987Y-92623201D01*
X150764159Y-92636452D01*
X150753514Y-92634872D01*
X150725321Y-92595322D01*
X150728370Y-92581275D01*
X150764159Y-92578195D01*
X150775782Y-92586167D01*
G37*
G36*
X150430153Y-92582079D02*
G01*
X150463144Y-92599265D01*
X150476224Y-92626629D01*
X150456242Y-92633055D01*
X150391315Y-92620917D01*
X150358323Y-92603732D01*
X150345243Y-92576367D01*
X150365225Y-92569941D01*
X150430153Y-92582079D01*
G37*
G36*
X151749959Y-92489348D02*
G01*
X151749152Y-92539358D01*
X151736576Y-92567245D01*
X151711533Y-92597614D01*
X151704578Y-92591175D01*
X151696269Y-92539358D01*
X151700507Y-92512576D01*
X151733888Y-92481101D01*
X151749959Y-92489348D01*
G37*
G36*
X150484542Y-91751244D02*
G01*
X150453456Y-91782018D01*
X150420186Y-91800329D01*
X150356361Y-91819667D01*
X150344693Y-91812792D01*
X150375780Y-91782018D01*
X150409049Y-91763708D01*
X150472874Y-91744370D01*
X150484542Y-91751244D01*
G37*
G36*
X151047752Y-96081303D02*
G01*
X151064386Y-96134556D01*
X151065187Y-96183396D01*
X151051357Y-96205486D01*
X151022457Y-96152528D01*
X151015609Y-96123621D01*
X151029658Y-96077543D01*
X151047752Y-96081303D01*
G37*
G36*
X152082064Y-94906874D02*
G01*
X152094903Y-94916852D01*
X152123486Y-94973775D01*
X152113125Y-94990995D01*
X152064291Y-94965949D01*
X152027356Y-94922475D01*
X152031505Y-94892335D01*
X152082064Y-94906874D01*
G37*
G36*
X151293319Y-92180759D02*
G01*
X151268273Y-92229593D01*
X151236540Y-92260550D01*
X151201371Y-92271015D01*
X151195299Y-92242881D01*
X151225219Y-92194665D01*
X151276099Y-92170397D01*
X151293319Y-92180759D01*
G37*
G36*
X150103914Y-99588441D02*
G01*
X150101111Y-99609001D01*
X150078022Y-99614333D01*
X150073374Y-99608640D01*
X150078022Y-99562549D01*
X150089704Y-99556473D01*
X150103914Y-99588441D01*
G37*
G36*
X150142752Y-99316575D02*
G01*
X150139949Y-99337136D01*
X150116860Y-99342467D01*
X150112212Y-99336775D01*
X150116860Y-99290683D01*
X150128542Y-99284607D01*
X150142752Y-99316575D01*
G37*
G36*
X151307890Y-96869786D02*
G01*
X151305087Y-96890347D01*
X151281998Y-96895678D01*
X151277350Y-96889986D01*
X151281998Y-96843894D01*
X151293680Y-96837818D01*
X151307890Y-96869786D01*
G37*
G36*
X150919511Y-96248379D02*
G01*
X150916708Y-96268940D01*
X150893619Y-96274271D01*
X150888970Y-96268579D01*
X150893619Y-96222488D01*
X150905300Y-96216411D01*
X150919511Y-96248379D01*
G37*
G36*
X150202151Y-95979317D02*
G01*
X150207482Y-96002406D01*
X150201790Y-96007054D01*
X150155698Y-96002406D01*
X150149622Y-95990724D01*
X150181591Y-95976514D01*
X150202151Y-95979317D01*
G37*
G36*
X152045810Y-95937676D02*
G01*
X152043007Y-95958237D01*
X152019918Y-95963568D01*
X152015270Y-95957876D01*
X152019918Y-95911784D01*
X152031600Y-95905708D01*
X152045810Y-95937676D01*
G37*
G36*
X150569969Y-95704648D02*
G01*
X150567166Y-95725209D01*
X150544077Y-95730540D01*
X150539429Y-95724848D01*
X150544077Y-95678756D01*
X150555759Y-95672680D01*
X150569969Y-95704648D01*
G37*
G36*
X151463241Y-95355107D02*
G01*
X151460439Y-95375667D01*
X151437349Y-95380999D01*
X151432701Y-95375306D01*
X151437349Y-95329215D01*
X151449031Y-95323139D01*
X151463241Y-95355107D01*
G37*
G36*
X152240000Y-94850214D02*
G01*
X152237197Y-94870774D01*
X152214108Y-94876106D01*
X152209460Y-94870413D01*
X152214108Y-94824322D01*
X152225790Y-94818246D01*
X152240000Y-94850214D01*
G37*
G36*
X151502079Y-94811376D02*
G01*
X151499277Y-94831937D01*
X151476187Y-94837268D01*
X151471539Y-94831575D01*
X151476187Y-94785484D01*
X151487869Y-94779408D01*
X151502079Y-94811376D01*
G37*
G36*
X151755668Y-94581151D02*
G01*
X151760999Y-94604240D01*
X151755306Y-94608888D01*
X151709215Y-94604240D01*
X151703139Y-94592559D01*
X151735107Y-94578348D01*
X151755668Y-94581151D01*
G37*
G36*
X150531131Y-94422997D02*
G01*
X150528329Y-94443557D01*
X150505239Y-94448889D01*
X150500591Y-94443196D01*
X150505239Y-94397105D01*
X150516921Y-94391029D01*
X150531131Y-94422997D01*
G37*
G36*
X150375780Y-94306483D02*
G01*
X150372977Y-94327044D01*
X150349888Y-94332375D01*
X150345240Y-94326683D01*
X150349888Y-94280591D01*
X150361569Y-94274515D01*
X150375780Y-94306483D01*
G37*
G36*
X151540917Y-94189969D02*
G01*
X151538114Y-94210530D01*
X151515025Y-94215861D01*
X151510377Y-94210169D01*
X151515025Y-94164077D01*
X151526707Y-94158001D01*
X151540917Y-94189969D01*
G37*
G36*
X151095423Y-93843231D02*
G01*
X151100754Y-93866320D01*
X151095062Y-93870968D01*
X151048970Y-93866320D01*
X151042894Y-93854639D01*
X151074862Y-93840428D01*
X151095423Y-93843231D01*
G37*
G36*
X151579755Y-93335535D02*
G01*
X151576952Y-93356096D01*
X151553863Y-93361427D01*
X151549215Y-93355734D01*
X151553863Y-93309643D01*
X151565545Y-93303567D01*
X151579755Y-93335535D01*
G37*
G36*
X151134261Y-93338338D02*
G01*
X151139592Y-93361427D01*
X151133900Y-93366075D01*
X151087808Y-93361427D01*
X151081732Y-93349745D01*
X151113700Y-93335535D01*
X151134261Y-93338338D01*
G37*
G36*
X150629368Y-93066472D02*
G01*
X150634699Y-93089561D01*
X150629007Y-93094210D01*
X150582915Y-93089561D01*
X150576839Y-93077880D01*
X150608807Y-93063669D01*
X150629368Y-93066472D01*
G37*
G36*
X150745882Y-93027634D02*
G01*
X150751213Y-93050723D01*
X150745521Y-93055372D01*
X150699429Y-93050723D01*
X150693353Y-93039042D01*
X150725321Y-93024832D01*
X150745882Y-93027634D01*
G37*
G36*
X151173099Y-92833445D02*
G01*
X151178430Y-92856534D01*
X151172738Y-92861182D01*
X151126646Y-92856534D01*
X151120570Y-92844852D01*
X151152538Y-92830642D01*
X151173099Y-92833445D01*
G37*
G36*
X150686483Y-92597614D02*
G01*
X150683680Y-92618175D01*
X150660591Y-92623506D01*
X150655943Y-92617814D01*
X150660591Y-92571722D01*
X150672273Y-92565646D01*
X150686483Y-92597614D01*
G37*
G36*
X150590530Y-92561579D02*
G01*
X150595861Y-92584668D01*
X150590169Y-92589317D01*
X150544077Y-92584668D01*
X150538001Y-92572987D01*
X150569969Y-92558777D01*
X150590530Y-92561579D01*
G37*
G36*
X150629368Y-92056686D02*
G01*
X150634699Y-92079775D01*
X150629007Y-92084424D01*
X150582915Y-92079775D01*
X150576839Y-92068094D01*
X150608807Y-92053884D01*
X150629368Y-92056686D01*
G37*
G36*
X150181591Y-91859694D02*
G01*
X150178787Y-91880255D01*
X150155698Y-91885586D01*
X150151050Y-91879894D01*
X150155698Y-91833802D01*
X150167380Y-91827726D01*
X150181591Y-91859694D01*
G37*
G36*
X150181591Y-99530184D02*
G01*
X150162172Y-99549603D01*
X150142752Y-99530184D01*
X150162172Y-99510765D01*
X150181591Y-99530184D01*
G37*
G36*
X150569969Y-98714587D02*
G01*
X150550550Y-98734006D01*
X150531131Y-98714587D01*
X150550550Y-98695168D01*
X150569969Y-98714587D01*
G37*
G36*
X150686483Y-97394098D02*
G01*
X150667064Y-97413517D01*
X150647645Y-97394098D01*
X150667064Y-97374679D01*
X150686483Y-97394098D01*
G37*
G36*
X150919511Y-97083395D02*
G01*
X150900092Y-97102814D01*
X150880673Y-97083395D01*
X150900092Y-97063976D01*
X150919511Y-97083395D01*
G37*
G36*
X150841835Y-97083395D02*
G01*
X150822416Y-97102814D01*
X150802997Y-97083395D01*
X150822416Y-97063976D01*
X150841835Y-97083395D01*
G37*
G36*
X150880673Y-96500826D02*
G01*
X150861254Y-96520245D01*
X150841835Y-96500826D01*
X150861254Y-96481407D01*
X150880673Y-96500826D01*
G37*
G36*
X151463241Y-96306636D02*
G01*
X151443822Y-96326055D01*
X151424404Y-96306636D01*
X151443822Y-96287217D01*
X151463241Y-96306636D01*
G37*
G36*
X150802997Y-96267798D02*
G01*
X150783578Y-96287217D01*
X150764159Y-96267798D01*
X150783578Y-96248379D01*
X150802997Y-96267798D01*
G37*
G36*
X151463241Y-96228960D02*
G01*
X151443822Y-96248379D01*
X151424404Y-96228960D01*
X151443822Y-96209542D01*
X151463241Y-96228960D01*
G37*
G36*
X151269052Y-96228960D02*
G01*
X151249633Y-96248379D01*
X151230214Y-96228960D01*
X151249633Y-96209542D01*
X151269052Y-96228960D01*
G37*
G36*
X151929296Y-96112447D02*
G01*
X151909878Y-96131866D01*
X151890459Y-96112447D01*
X151909878Y-96093028D01*
X151929296Y-96112447D01*
G37*
G36*
X151152538Y-95957095D02*
G01*
X151133119Y-95976514D01*
X151113700Y-95957095D01*
X151133119Y-95937676D01*
X151152538Y-95957095D01*
G37*
G36*
X152084648Y-95840581D02*
G01*
X152065229Y-95860000D01*
X152045810Y-95840581D01*
X152065229Y-95821162D01*
X152084648Y-95840581D01*
G37*
G36*
X151346728Y-95840581D02*
G01*
X151327309Y-95860000D01*
X151307890Y-95840581D01*
X151327309Y-95821162D01*
X151346728Y-95840581D01*
G37*
G36*
X151773945Y-95801743D02*
G01*
X151754526Y-95821162D01*
X151735107Y-95801743D01*
X151754526Y-95782324D01*
X151773945Y-95801743D01*
G37*
G36*
X151618593Y-95724067D02*
G01*
X151599174Y-95743486D01*
X151579755Y-95724067D01*
X151599174Y-95704648D01*
X151618593Y-95724067D01*
G37*
G36*
X150958348Y-95685229D02*
G01*
X150938930Y-95704648D01*
X150919511Y-95685229D01*
X150938930Y-95665810D01*
X150958348Y-95685229D01*
G37*
G36*
X150065076Y-95646391D02*
G01*
X150045657Y-95665810D01*
X150026238Y-95646391D01*
X150045657Y-95626972D01*
X150065076Y-95646391D01*
G37*
G36*
X151346728Y-95491039D02*
G01*
X151327309Y-95510458D01*
X151307890Y-95491039D01*
X151327309Y-95471621D01*
X151346728Y-95491039D01*
G37*
G36*
X150841835Y-95491039D02*
G01*
X150822416Y-95510458D01*
X150802997Y-95491039D01*
X150822416Y-95471621D01*
X150841835Y-95491039D01*
G37*
G36*
X151269052Y-95413364D02*
G01*
X151249633Y-95432783D01*
X151230214Y-95413364D01*
X151249633Y-95393945D01*
X151269052Y-95413364D01*
G37*
G36*
X151424404Y-95063822D02*
G01*
X151404985Y-95083241D01*
X151385566Y-95063822D01*
X151404985Y-95044403D01*
X151424404Y-95063822D01*
G37*
G36*
X150569969Y-95063822D02*
G01*
X150550550Y-95083241D01*
X150531131Y-95063822D01*
X150550550Y-95044403D01*
X150569969Y-95063822D01*
G37*
G36*
X152201162Y-95024984D02*
G01*
X152181743Y-95044403D01*
X152162324Y-95024984D01*
X152181743Y-95005565D01*
X152201162Y-95024984D01*
G37*
G36*
X152240000Y-94947309D02*
G01*
X152220581Y-94966728D01*
X152201162Y-94947309D01*
X152220581Y-94927890D01*
X152240000Y-94947309D01*
G37*
G36*
X151579755Y-94947309D02*
G01*
X151560336Y-94966728D01*
X151540917Y-94947309D01*
X151560336Y-94927890D01*
X151579755Y-94947309D01*
G37*
G36*
X152084648Y-94753119D02*
G01*
X152065229Y-94772538D01*
X152045810Y-94753119D01*
X152065229Y-94733700D01*
X152084648Y-94753119D01*
G37*
G36*
X151890459Y-94714281D02*
G01*
X151871040Y-94733700D01*
X151851621Y-94714281D01*
X151871040Y-94694862D01*
X151890459Y-94714281D01*
G37*
G36*
X152783731Y-94636605D02*
G01*
X152764312Y-94656024D01*
X152744893Y-94636605D01*
X152764312Y-94617186D01*
X152783731Y-94636605D01*
G37*
G36*
X151540917Y-94558929D02*
G01*
X151521498Y-94578348D01*
X151502079Y-94558929D01*
X151521498Y-94539510D01*
X151540917Y-94558929D01*
G37*
G36*
X151696269Y-94520091D02*
G01*
X151676850Y-94539510D01*
X151657431Y-94520091D01*
X151676850Y-94500673D01*
X151696269Y-94520091D01*
G37*
G36*
X150414618Y-94481254D02*
G01*
X150395199Y-94500673D01*
X150375780Y-94481254D01*
X150395199Y-94461835D01*
X150414618Y-94481254D01*
G37*
G36*
X151618593Y-94442416D02*
G01*
X151599174Y-94461835D01*
X151579755Y-94442416D01*
X151599174Y-94422997D01*
X151618593Y-94442416D01*
G37*
G36*
X151230214Y-94364740D02*
G01*
X151210795Y-94384159D01*
X151191376Y-94364740D01*
X151210795Y-94345321D01*
X151230214Y-94364740D01*
G37*
G36*
X150531131Y-94325902D02*
G01*
X150511712Y-94345321D01*
X150492293Y-94325902D01*
X150511712Y-94306483D01*
X150531131Y-94325902D01*
G37*
G36*
X151269052Y-94054036D02*
G01*
X151249633Y-94073455D01*
X151230214Y-94054036D01*
X151249633Y-94034617D01*
X151269052Y-94054036D01*
G37*
G36*
X151036024Y-93937523D02*
G01*
X151016605Y-93956942D01*
X150997186Y-93937523D01*
X151016605Y-93918104D01*
X151036024Y-93937523D01*
G37*
G36*
X150764159Y-93898685D02*
G01*
X150744740Y-93918104D01*
X150725321Y-93898685D01*
X150744740Y-93879266D01*
X150764159Y-93898685D01*
G37*
G36*
X151036024Y-93704495D02*
G01*
X151016605Y-93723914D01*
X150997186Y-93704495D01*
X151016605Y-93685076D01*
X151036024Y-93704495D01*
G37*
G36*
X150958348Y-93665657D02*
G01*
X150938930Y-93685076D01*
X150919511Y-93665657D01*
X150938930Y-93646238D01*
X150958348Y-93665657D01*
G37*
G36*
X151812783Y-93354954D02*
G01*
X151793364Y-93374373D01*
X151773945Y-93354954D01*
X151793364Y-93335535D01*
X151812783Y-93354954D01*
G37*
G36*
X150958348Y-92966575D02*
G01*
X150938930Y-92985994D01*
X150919511Y-92966575D01*
X150938930Y-92947156D01*
X150958348Y-92966575D01*
G37*
G36*
X150802997Y-92927737D02*
G01*
X150783578Y-92947156D01*
X150764159Y-92927737D01*
X150783578Y-92908318D01*
X150802997Y-92927737D01*
G37*
G36*
X151540917Y-92811223D02*
G01*
X151521498Y-92830642D01*
X151502079Y-92811223D01*
X151521498Y-92791804D01*
X151540917Y-92811223D01*
G37*
G36*
X150375780Y-92772385D02*
G01*
X150356361Y-92791804D01*
X150336942Y-92772385D01*
X150356361Y-92752966D01*
X150375780Y-92772385D01*
G37*
G36*
X150802997Y-92694709D02*
G01*
X150783578Y-92714128D01*
X150764159Y-92694709D01*
X150783578Y-92675290D01*
X150802997Y-92694709D01*
G37*
G36*
X153133273Y-92422844D02*
G01*
X153113854Y-92442263D01*
X153094435Y-92422844D01*
X153113854Y-92403425D01*
X153133273Y-92422844D01*
G37*
G36*
X150880673Y-92384006D02*
G01*
X150861254Y-92403425D01*
X150841835Y-92384006D01*
X150861254Y-92364587D01*
X150880673Y-92384006D01*
G37*
G36*
X150608807Y-91879113D02*
G01*
X150589388Y-91898532D01*
X150569969Y-91879113D01*
X150589388Y-91859694D01*
X150608807Y-91879113D01*
G37*
G36*
X150181591Y-91723761D02*
G01*
X150162172Y-91743180D01*
X150142752Y-91723761D01*
X150162172Y-91704342D01*
X150181591Y-91723761D01*
G37*
G36*
X150531131Y-91684923D02*
G01*
X150511712Y-91704342D01*
X150492293Y-91684923D01*
X150511712Y-91665504D01*
X150531131Y-91684923D01*
G37*
G36*
X149980164Y-97902676D02*
G01*
X149979297Y-97897480D01*
X149980185Y-97896961D01*
X149980164Y-97902676D01*
G37*
D12*
%TO.C,SWD1*%
X136690000Y-102240000D02*
X139140000Y-102240000D01*
X136690000Y-104340000D02*
X136690000Y-102240000D01*
X136690000Y-109960000D02*
X136690000Y-108660000D01*
X147960000Y-102240000D02*
X147960000Y-100350000D01*
X150410000Y-102240000D02*
X147960000Y-102240000D01*
X150410000Y-104340000D02*
X150410000Y-102240000D01*
X150410000Y-108660000D02*
X150410000Y-109960000D01*
X150410000Y-109960000D02*
X136690000Y-109960000D01*
%TO.C,JP2*%
X143500000Y-89400000D02*
X143500000Y-92200000D01*
X144200000Y-92850000D02*
X144800000Y-92850000D01*
X144800000Y-88750000D02*
X144200000Y-88750000D01*
X145500000Y-92200000D02*
X145500000Y-89400000D01*
X143500000Y-89450000D02*
G75*
G02*
X144200000Y-88750000I700000J0D01*
G01*
X144200000Y-92850000D02*
G75*
G02*
X143500000Y-92150000I-1J699999D01*
G01*
X144800000Y-88750000D02*
G75*
G02*
X145500000Y-89450000I0J-700000D01*
G01*
X145500000Y-92150000D02*
G75*
G02*
X144800000Y-92850000I-699999J-1D01*
G01*
%TO.C,JP1*%
X146100000Y-89400000D02*
X146100000Y-92200000D01*
X146800000Y-92850000D02*
X147400000Y-92850000D01*
X147400000Y-88750000D02*
X146800000Y-88750000D01*
X148100000Y-92200000D02*
X148100000Y-89400000D01*
X146100000Y-89450000D02*
G75*
G02*
X146800000Y-88750000I699999J1D01*
G01*
X146800000Y-92850000D02*
G75*
G02*
X146100000Y-92150000I0J700000D01*
G01*
X147400000Y-88750000D02*
G75*
G02*
X148100000Y-89450000I1J-699999D01*
G01*
X148100000Y-92150000D02*
G75*
G02*
X147400000Y-92850000I-700000J0D01*
G01*
%TO.C,JP3*%
X139400000Y-87200000D02*
X139400000Y-90000000D01*
X140100000Y-90650000D02*
X140700000Y-90650000D01*
X140700000Y-86550000D02*
X140100000Y-86550000D01*
X141400000Y-90000000D02*
X141400000Y-87200000D01*
X139400000Y-87250000D02*
G75*
G02*
X140100000Y-86550000I699999J1D01*
G01*
X140100000Y-90650000D02*
G75*
G02*
X139400000Y-89950000I0J700000D01*
G01*
X140700000Y-86550000D02*
G75*
G02*
X141400000Y-87250000I1J-699999D01*
G01*
X141400000Y-89950000D02*
G75*
G02*
X140700000Y-90650000I-700000J0D01*
G01*
%TD*%
%LPC*%
D13*
%TO.C,P1*%
X135021000Y-93110000D03*
X135021000Y-98890000D03*
D14*
X135551000Y-91680000D03*
X135551000Y-100320000D03*
D15*
X131371000Y-91680000D03*
X131371000Y-100320000D03*
%TD*%
D16*
%TO.C,SW1*%
X133200000Y-88100000D03*
%TD*%
%TO.C,SW4*%
X133200000Y-103900000D03*
%TD*%
%TO.C,SW2*%
X154400000Y-88100000D03*
%TD*%
%TO.C,SW3*%
X154400000Y-103900000D03*
%TD*%
D17*
%TO.C,SWD1*%
X147300000Y-101800000D03*
X145800000Y-101800000D03*
X144300000Y-101800000D03*
X142800000Y-101800000D03*
X141300000Y-101800000D03*
X139800000Y-101800000D03*
D18*
X149900000Y-106500000D03*
X137200000Y-106500000D03*
%TD*%
D19*
%TO.C,JP2*%
X144500000Y-92100000D03*
D20*
X144500000Y-90800000D03*
D21*
X144500000Y-89500000D03*
%TD*%
D22*
%TO.C,JP1*%
X147100000Y-89500000D03*
D20*
X147100000Y-90800000D03*
D23*
X147100000Y-92100000D03*
%TD*%
D22*
%TO.C,JP3*%
X140400000Y-87300000D03*
D20*
X140400000Y-88600000D03*
D23*
X140400000Y-89900000D03*
%TD*%
%LPD*%
M02*
