%TF.GenerationSoftware,KiCad,Pcbnew,10.0.3*%
%TF.CreationDate,2026-07-21T14:30:20+10:00*%
%TF.ProjectId,epaper-smart-watch,65706170-6572-42d7-936d-6172742d7761,rev?*%
%TF.SameCoordinates,Original*%
%TF.FileFunction,Copper,L4,Bot*%
%TF.FilePolarity,Positive*%
%FSLAX46Y46*%
G04 Gerber Fmt 4.6, Leading zero omitted, Abs format (unit mm)*
G04 Created by KiCad (PCBNEW 10.0.3) date 2026-07-21 14:30:20*
%MOMM*%
%LPD*%
G01*
G04 APERTURE LIST*
G04 Aperture macros list*
%AMRoundRect*
0 Rectangle with rounded corners*
0 $1 Rounding radius*
0 $2 $3 $4 $5 $6 $7 $8 $9 X,Y pos of 4 corners*
0 Add a 4 corners polygon primitive as box body*
4,1,4,$2,$3,$4,$5,$6,$7,$8,$9,$2,$3,0*
0 Add four circle primitives for the rounded corners*
1,1,$1+$1,$2,$3*
1,1,$1+$1,$4,$5*
1,1,$1+$1,$6,$7*
1,1,$1+$1,$8,$9*
0 Add four rect primitives between the rounded corners*
20,1,$1+$1,$2,$3,$4,$5,0*
20,1,$1+$1,$4,$5,$6,$7,0*
20,1,$1+$1,$6,$7,$8,$9,0*
20,1,$1+$1,$8,$9,$2,$3,0*%
%AMFreePoly0*
4,1,23,0.550000,-0.750000,0.000000,-0.750000,0.000000,-0.745722,-0.065263,-0.745722,-0.191342,-0.711940,-0.304381,-0.646677,-0.396677,-0.554381,-0.461940,-0.441342,-0.495722,-0.315263,-0.495722,-0.250000,-0.500000,-0.250000,-0.500000,0.250000,-0.495722,0.250000,-0.495722,0.315263,-0.461940,0.441342,-0.396677,0.554381,-0.304381,0.646677,-0.191342,0.711940,-0.065263,0.745722,0.000000,0.745722,
0.000000,0.750000,0.550000,0.750000,0.550000,-0.750000,0.550000,-0.750000,$1*%
%AMFreePoly1*
4,1,23,0.000000,0.745722,0.065263,0.745722,0.191342,0.711940,0.304381,0.646677,0.396677,0.554381,0.461940,0.441342,0.495722,0.315263,0.495722,0.250000,0.500000,0.250000,0.500000,-0.250000,0.495722,-0.250000,0.495722,-0.315263,0.461940,-0.441342,0.396677,-0.554381,0.304381,-0.646677,0.191342,-0.711940,0.065263,-0.745722,0.000000,-0.745722,0.000000,-0.750000,-0.550000,-0.750000,
-0.550000,0.750000,0.000000,0.750000,0.000000,0.745722,0.000000,0.745722,$1*%
G04 Aperture macros list end*
%TA.AperFunction,EtchedComponent*%
%ADD10C,0.000000*%
%TD*%
%TA.AperFunction,ComponentPad*%
%ADD11O,1.700000X1.000000*%
%TD*%
%TA.AperFunction,ComponentPad*%
%ADD12O,2.100000X1.000000*%
%TD*%
%TA.AperFunction,SMDPad,CuDef*%
%ADD13C,1.000000*%
%TD*%
%TA.AperFunction,SMDPad,CuDef*%
%ADD14RoundRect,0.200000X0.200000X1.250000X-0.200000X1.250000X-0.200000X-1.250000X0.200000X-1.250000X0*%
%TD*%
%TA.AperFunction,SMDPad,CuDef*%
%ADD15RoundRect,0.250000X0.650000X1.650000X-0.650000X1.650000X-0.650000X-1.650000X0.650000X-1.650000X0*%
%TD*%
%TA.AperFunction,SMDPad,CuDef*%
%ADD16FreePoly0,270.000000*%
%TD*%
%TA.AperFunction,SMDPad,CuDef*%
%ADD17R,1.500000X1.000000*%
%TD*%
%TA.AperFunction,SMDPad,CuDef*%
%ADD18FreePoly1,270.000000*%
%TD*%
%TA.AperFunction,SMDPad,CuDef*%
%ADD19R,1.000000X1.500000*%
%TD*%
%TA.AperFunction,SMDPad,CuDef*%
%ADD20FreePoly0,0.000000*%
%TD*%
%TA.AperFunction,SMDPad,CuDef*%
%ADD21FreePoly1,0.000000*%
%TD*%
%TA.AperFunction,ViaPad*%
%ADD22C,0.600000*%
%TD*%
%TA.AperFunction,ViaPad*%
%ADD23C,0.450000*%
%TD*%
%TA.AperFunction,ViaPad*%
%ADD24C,0.500000*%
%TD*%
%TA.AperFunction,Conductor*%
%ADD25C,0.200000*%
%TD*%
%TA.AperFunction,Conductor*%
%ADD26C,0.150000*%
%TD*%
G04 APERTURE END LIST*
D10*
%TA.AperFunction,EtchedComponent*%
%TO.C,JP2*%
G36*
X160700000Y-105400000D02*
G01*
X160100000Y-105400000D01*
X160100000Y-104900000D01*
X160700000Y-104900000D01*
X160700000Y-105400000D01*
G37*
%TD.AperFunction*%
%TA.AperFunction,EtchedComponent*%
%TO.C,JP1*%
G36*
X141900000Y-102200000D02*
G01*
X141400000Y-102200000D01*
X141400000Y-101600000D01*
X141900000Y-101600000D01*
X141900000Y-102200000D01*
G37*
%TD.AperFunction*%
%TD*%
D11*
%TO.P,P1,SH,SHIELD_SH*%
%TO.N,GND*%
X167644362Y-108020000D03*
D12*
X171644362Y-108020000D03*
D11*
X167644362Y-96780000D03*
D12*
X171644362Y-96780000D03*
%TD*%
D13*
%TO.P,J14,1,Pin_1_1*%
%TO.N,/EPD_RST_N*%
X142000000Y-97600000D03*
%TD*%
%TO.P,J7,1,Pin_1_1*%
%TO.N,/EPD_VCOM*%
X135100000Y-96200000D03*
%TD*%
%TO.P,J12,1,Pin_1_1*%
%TO.N,/EPD_CSB*%
X150000000Y-89400000D03*
%TD*%
%TO.P,J4,1,Pin_1_1*%
%TO.N,Net-(IC2-SHPACT)*%
X155700000Y-100400000D03*
%TD*%
D14*
%TO.P,SWD1,1,Pin_1_1*%
%TO.N,unconnected-(SWD1-Pin_1-Pad1)*%
X156300000Y-111900000D03*
%TO.P,SWD1,2,Pin_2_2*%
%TO.N,/NRST*%
X154800000Y-111900000D03*
%TO.P,SWD1,3,Pin_3_3*%
%TO.N,/SWDIO*%
X153300000Y-111900000D03*
%TO.P,SWD1,4,Pin_4_4*%
%TO.N,GND*%
X151800000Y-111900000D03*
%TO.P,SWD1,5,Pin_5_5*%
%TO.N,/SWDCLK*%
X150300000Y-111900000D03*
%TO.P,SWD1,6,Pin_6_6*%
%TO.N,+3V0*%
X148800000Y-111900000D03*
D15*
%TO.P,SWD1,MP*%
%TO.N,N/C*%
X158900000Y-116600000D03*
X146200000Y-116600000D03*
%TD*%
D16*
%TO.P,JP2,1,A_1*%
%TO.N,Net-(JP2-A)*%
X160400000Y-104500000D03*
D17*
%TO.P,JP2,2,C_2*%
%TO.N,Net-(IC2-NTC)*%
X160400000Y-105800000D03*
D18*
%TO.P,JP2,3,B_3*%
%TO.N,Net-(J5-Pin_2)*%
X160400000Y-107100000D03*
%TD*%
D13*
%TO.P,J13,1,Pin_1_1*%
%TO.N,/EPD_DC*%
X142100000Y-107400000D03*
%TD*%
%TO.P,J10,1,Pin_1_1*%
%TO.N,/EPD_MOSI*%
X144000000Y-98600000D03*
%TD*%
D19*
%TO.P,J5,1,Pin_1_1*%
%TO.N,Net-(IC2-VBAT)*%
X155400000Y-107100000D03*
%TO.P,J5,2,Pin_2_2*%
%TO.N,Net-(J5-Pin_2)*%
X156700000Y-107100000D03*
%TO.P,J5,3,Pin_3_3*%
%TO.N,GND*%
X158000000Y-107100000D03*
%TD*%
D13*
%TO.P,J15,1,Pin_1_1*%
%TO.N,/EPD_BUSY*%
X146600000Y-89000000D03*
%TD*%
%TO.P,J16,1,Pin_1_1*%
%TO.N,Net-(J16-Pin_1)*%
X158800000Y-94600000D03*
%TD*%
%TO.P,J17,1,Pin_1_1*%
%TO.N,Net-(J17-Pin_1)*%
X157000000Y-95700000D03*
%TD*%
%TO.P,J11,1,Pin_1_1*%
%TO.N,/EPD_SPICL*%
X133900000Y-99600000D03*
%TD*%
%TO.P,J9,1,Pin_1_1*%
%TO.N,/EPD_VGH*%
X139800000Y-99500000D03*
%TD*%
D19*
%TO.P,M1,1,+_1*%
%TO.N,/VSYS*%
X164550000Y-110400000D03*
%TO.P,M1,2,-_2*%
%TO.N,Net-(D9-A)*%
X163250000Y-110400000D03*
%TD*%
D13*
%TO.P,J8,1,Pin_1_1*%
%TO.N,/EPD_VGL*%
X140600000Y-95000000D03*
%TD*%
D20*
%TO.P,JP1,1,A_1*%
%TO.N,GND*%
X141000000Y-101900000D03*
D19*
%TO.P,JP1,2,C_2*%
%TO.N,Net-(J6-Pin_16)*%
X142300000Y-101900000D03*
D21*
%TO.P,JP1,3,B_3*%
%TO.N,+3V0*%
X143600000Y-101900000D03*
%TD*%
D13*
%TO.P,J18,1,Pin_1_1*%
%TO.N,Net-(J18-Pin_1)*%
X159200000Y-96700000D03*
%TD*%
D22*
%TO.N,GND*%
X166750500Y-111238631D03*
X166750500Y-107238631D03*
D23*
X150000000Y-90275003D03*
D22*
X142750500Y-111238631D03*
X154750500Y-117238631D03*
D23*
X161700000Y-104100000D03*
D22*
X146750500Y-87238631D03*
D23*
X152600000Y-104700000D03*
D22*
X160750500Y-89238631D03*
X138750500Y-93238631D03*
X160750500Y-117238631D03*
D23*
X156400000Y-87400000D03*
X158400000Y-93100000D03*
D22*
X160750500Y-93238631D03*
X154750500Y-115238631D03*
D23*
X149200000Y-103700000D03*
X136600000Y-107800000D03*
D22*
X152750500Y-117238631D03*
X162750500Y-93238631D03*
X156750500Y-101238631D03*
X142750500Y-89238631D03*
X150750500Y-115238631D03*
D23*
X138200000Y-111700000D03*
D22*
X162750500Y-91238631D03*
X166750500Y-109238631D03*
X164750500Y-93238631D03*
D23*
X150200000Y-108300000D03*
D22*
X160750500Y-91238631D03*
D24*
X148700500Y-117181150D03*
D22*
X156750500Y-117238631D03*
D23*
X149700000Y-95500000D03*
X144700000Y-112700000D03*
D22*
X164750500Y-95238631D03*
D24*
X152900000Y-115000032D03*
D23*
X139400000Y-111000000D03*
D22*
X148750500Y-109238631D03*
D23*
X159600000Y-94000000D03*
D22*
X160750500Y-115238631D03*
X168750500Y-97238631D03*
D23*
X143600000Y-105000000D03*
D22*
X166750500Y-95238631D03*
X166750500Y-97238631D03*
X172750500Y-97238631D03*
X156750500Y-119238631D03*
X172750500Y-109238631D03*
X158750500Y-113238631D03*
X156750500Y-109238631D03*
X142750500Y-115238631D03*
X156750500Y-115238631D03*
X166750500Y-93238631D03*
D23*
X156400000Y-85500000D03*
D22*
X148750500Y-119238631D03*
X170750500Y-109238631D03*
X162750500Y-89238631D03*
D23*
X150300000Y-102500000D03*
D22*
X158750500Y-91238631D03*
D23*
X141400000Y-100900000D03*
X164743217Y-103925285D03*
X152619302Y-91044300D03*
X155450002Y-96125002D03*
D22*
X168750500Y-109238631D03*
D23*
X138750000Y-98922183D03*
D22*
X170750500Y-97238631D03*
D23*
%TO.N,Net-(P1-D+-PadA6)*%
X165782789Y-102656998D03*
X165500000Y-101650000D03*
%TO.N,/D+*%
X154952512Y-97263416D03*
X160411372Y-102000000D03*
%TO.N,/D-*%
X160400000Y-102650000D03*
X155447488Y-96768440D03*
%TO.N,+3V0*%
X134600000Y-108600000D03*
X151150000Y-104300000D03*
X140400000Y-108300000D03*
X132702145Y-101793788D03*
X151113039Y-108313039D03*
X152400000Y-99100000D03*
X142328662Y-100069846D03*
X139500000Y-94400000D03*
X148300000Y-107800000D03*
X156350001Y-96503896D03*
X150250000Y-105100000D03*
X147450000Y-103900000D03*
X159500000Y-98100000D03*
X141600000Y-94400000D03*
X145400000Y-90000000D03*
X152050000Y-102152929D03*
%TO.N,/FLASH_CS*%
X153574998Y-93800000D03*
X156313838Y-91957526D03*
%TO.N,/VIB*%
X166000000Y-108800000D03*
X153654256Y-96892393D03*
%TO.N,/BATC_ALRT*%
X150300000Y-95400000D03*
X150500000Y-97400000D03*
%TO.N,/EPD_VCOM*%
X134300000Y-96900000D03*
%TO.N,/EPD_VGL*%
X140728199Y-95128199D03*
%TO.N,/EPD_VGH*%
X139777746Y-99575000D03*
%TO.N,Net-(J6-Pin_5)*%
X133012899Y-100745344D03*
X135999516Y-97927688D03*
%TO.N,Net-(J6-Pin_7)*%
X137200000Y-95300000D03*
X133094363Y-101339790D03*
%TO.N,/EPD_MOSI*%
X152862403Y-89524998D03*
X138145946Y-101690452D03*
%TO.N,/EPD_SPICL*%
X152224900Y-88425131D03*
X133113642Y-102239790D03*
%TO.N,/EPD_CSB*%
X151681914Y-89451956D03*
X138579387Y-102105339D03*
X139188285Y-97668894D03*
%TO.N,/EPD_DC*%
X154400000Y-89500000D03*
X132964989Y-102821087D03*
%TO.N,/EPD_RST_N*%
X152278420Y-89387275D03*
X138209562Y-102590452D03*
%TO.N,/EPD_BUSY*%
X146392207Y-88965002D03*
X133164998Y-103386772D03*
%TO.N,Net-(J6-Pin_16)*%
X138203436Y-103190423D03*
%TO.N,Net-(J6-Pin_19)*%
X138200000Y-97100000D03*
X132991339Y-103961094D03*
%TO.N,/EPD_RESR*%
X144450000Y-103674589D03*
X138397796Y-103758074D03*
%TO.N,/EPD_GDR*%
X133200000Y-106700000D03*
X135693199Y-105856801D03*
%TO.N,/EPD_LIGHT_PWR_NEG*%
X142800000Y-106000000D03*
X138280459Y-104726128D03*
%TO.N,/FLASH_IO1*%
X151993934Y-93824633D03*
X156956983Y-90425002D03*
%TO.N,/FLASH_IO2*%
X152674998Y-93799999D03*
X157400000Y-91900000D03*
%TO.N,/FLASH_IO0*%
X154780330Y-91280330D03*
X158023661Y-89086932D03*
%TO.N,/FLASH_CLK*%
X151083750Y-89405025D03*
X157426092Y-89140917D03*
%TO.N,/FLASH_IO3*%
X156816827Y-89087890D03*
X151774999Y-94724633D03*
%TO.N,/VSYS*%
X154358101Y-100963294D03*
X157334315Y-98134481D03*
X140900000Y-109000000D03*
X157350000Y-104500000D03*
X145250000Y-108850000D03*
X159906250Y-108893750D03*
%TO.N,Net-(D6-A)*%
X144080000Y-112430000D03*
X144800000Y-107400000D03*
%TO.N,/CHGR_MODE*%
X154768607Y-99206169D03*
X153762403Y-89501200D03*
%TO.N,Net-(IC2-VBAT)*%
X153750000Y-105586395D03*
%TO.N,Net-(U3-PH3-BOOT0)*%
X145350000Y-97200000D03*
X149599873Y-93640155D03*
%TO.N,/CHGR_ISET*%
X154554256Y-98300000D03*
X154800000Y-95100000D03*
%TO.N,Net-(IC2-SHPACT)*%
X155355919Y-99083419D03*
%TO.N,Net-(D2-K)*%
X156686540Y-98080712D03*
X154356279Y-100349941D03*
%TO.N,Net-(D1-K)*%
X154400000Y-101561832D03*
X157800000Y-96500000D03*
%TO.N,/CHGR_SHPHLD*%
X154290346Y-94506667D03*
X153635313Y-100994998D03*
%TO.N,Net-(IC2-NTC)*%
X155300000Y-103700000D03*
%TO.N,/VUSB*%
X161500000Y-95100000D03*
X156700000Y-94400000D03*
%TO.N,/EPD_LIGHT*%
X146910000Y-103400000D03*
X143409067Y-109750000D03*
X147949403Y-91855850D03*
%TO.N,Net-(JP2-A)*%
X160900000Y-103800000D03*
%TO.N,/I2C_SCL*%
X148150000Y-97520470D03*
X149400000Y-101300000D03*
X149300000Y-97500000D03*
%TO.N,/BTN_2*%
X145600000Y-87400000D03*
X148631985Y-91985604D03*
%TO.N,/ACCL_INT2*%
X148342912Y-92513240D03*
X148318012Y-107099732D03*
%TO.N,/NRST*%
X146011798Y-108851803D03*
X154800000Y-109200000D03*
X147360586Y-91977936D03*
%TO.N,/ACCL_INT1*%
X148150000Y-93752253D03*
X148300000Y-106500000D03*
%TO.N,/BTN_4*%
X151100000Y-97500000D03*
X163700000Y-114900000D03*
%TO.N,/BTN_1*%
X144500000Y-115800000D03*
X151400000Y-96633656D03*
%TO.N,/BTN_3*%
X152090664Y-96631379D03*
X159200000Y-86900000D03*
%TO.N,/SWDIO*%
X152642860Y-97493199D03*
%TO.N,/SWDCLK*%
X153054310Y-96900627D03*
%TO.N,Net-(J18-Pin_1)*%
X156000000Y-94200000D03*
%TO.N,Net-(J17-Pin_1)*%
X154420057Y-93646149D03*
%TO.N,Net-(J16-Pin_1)*%
X156000000Y-93516395D03*
%TO.N,/SND*%
X151688601Y-92675000D03*
X157837895Y-114475032D03*
%TO.N,Net-(D9-A)*%
X163200000Y-111500000D03*
%TD*%
%TO.N,Net-(P1-D+-PadA6)*%
D25*
X165782789Y-102656998D02*
X165782789Y-101932789D01*
X165782789Y-101932789D02*
X165500000Y-101650000D01*
%TO.N,/D+*%
X160875000Y-102453248D02*
X160421752Y-102000000D01*
X160421752Y-102000000D02*
X160411372Y-102000000D01*
X155675000Y-98693198D02*
X160106802Y-103125000D01*
X154952512Y-97263416D02*
X155129289Y-97263416D01*
X160596752Y-103125000D02*
X160875000Y-102846752D01*
X155675000Y-97809127D02*
X155675000Y-98693198D01*
X155129289Y-97263416D02*
X155675000Y-97809127D01*
X160875000Y-102846752D02*
X160875000Y-102453248D01*
X160106802Y-103125000D02*
X160596752Y-103125000D01*
%TO.N,/D-*%
X158402702Y-99370291D02*
X158487554Y-99455143D01*
X159336082Y-100643083D02*
X158968385Y-101010777D01*
X155447488Y-96768440D02*
X155447488Y-96945217D01*
X159053240Y-101435042D02*
X159406336Y-101788138D01*
X156125000Y-97622729D02*
X156125000Y-98506802D01*
X160268198Y-102650000D02*
X160400000Y-102650000D01*
X158544124Y-100586515D02*
X158911818Y-100218818D01*
X157695596Y-99737987D02*
X158063290Y-99370290D01*
X156125000Y-98506802D02*
X157356184Y-99737986D01*
X159251230Y-100218819D02*
X159336082Y-100303671D01*
X155447488Y-96945217D02*
X156125000Y-97622729D01*
X158119858Y-100501661D02*
X158204712Y-100586514D01*
X158487554Y-99794555D02*
X158119857Y-100162249D01*
X158968386Y-101350189D02*
X159053240Y-101435042D01*
X159406336Y-101788138D02*
X160268198Y-102650000D01*
X157356184Y-99737986D02*
G75*
G03*
X157695606Y-99737997I169716J169686D01*
G01*
X158119857Y-100162249D02*
G75*
G03*
X158119812Y-100501706I169743J-169751D01*
G01*
X158911818Y-100218818D02*
G75*
G02*
X159251206Y-100218842I169682J-169682D01*
G01*
X158063290Y-99370290D02*
G75*
G02*
X158402706Y-99370286I169710J-169710D01*
G01*
X158204712Y-100586514D02*
G75*
G03*
X158544105Y-100586497I169688J169714D01*
G01*
X158487554Y-99455143D02*
G75*
G02*
X158487505Y-99794506I-169754J-169657D01*
G01*
X158968385Y-101010777D02*
G75*
G03*
X158968368Y-101350206I169715J-169723D01*
G01*
X159336082Y-100303671D02*
G75*
G02*
X159336105Y-100643106I-169682J-169729D01*
G01*
%TO.N,+3V0*%
D26*
X148300000Y-107800000D02*
X149675000Y-109175000D01*
X148800000Y-110626078D02*
X151113039Y-108313039D01*
X150251078Y-109175000D02*
X151113039Y-108313039D01*
X149675000Y-109175000D02*
X150251078Y-109175000D01*
X143600000Y-101341184D02*
X142328662Y-100069846D01*
%TO.N,/FLASH_CS*%
X155417472Y-91957526D02*
X153574998Y-93800000D01*
X156313838Y-91957526D02*
X155417472Y-91957526D01*
%TO.N,/BATC_ALRT*%
X150300000Y-95400000D02*
X150395064Y-95495064D01*
X150395064Y-95495064D02*
X150395064Y-97295064D01*
X150395064Y-97295064D02*
X150500000Y-97400000D01*
%TO.N,/EPD_VCOM*%
X135000000Y-96200000D02*
X134300000Y-96900000D01*
%TO.N,/EPD_MOSI*%
X144000000Y-98600000D02*
X144900000Y-99500000D01*
X138179355Y-104276128D02*
X137713082Y-103809855D01*
X152862403Y-89676247D02*
X152862403Y-89524998D01*
X137713082Y-102123316D02*
X138145946Y-101690452D01*
X144523872Y-104276128D02*
X138179355Y-104276128D01*
X147597747Y-94202253D02*
X144559200Y-97240800D01*
X144559200Y-98040800D02*
X144000000Y-98600000D01*
X137713082Y-103809855D02*
X137713082Y-102123316D01*
X144900000Y-99500000D02*
X144900000Y-103900000D01*
X144900000Y-103900000D02*
X144523872Y-104276128D01*
X147597747Y-94202253D02*
X148336397Y-94202253D01*
X144559200Y-97240800D02*
X144559200Y-98040800D01*
X148336397Y-94202253D02*
X152862403Y-89676247D01*
%TO.N,/EPD_SPICL*%
X133123348Y-102240517D02*
X133161889Y-102240517D01*
X133123348Y-102240517D02*
X133114369Y-102240517D01*
X135556321Y-100556321D02*
X133872125Y-102240517D01*
X135556321Y-100556321D02*
X135656321Y-100456321D01*
X133114369Y-102240517D02*
X133113642Y-102239790D01*
X133900000Y-99600000D02*
X134856321Y-100556321D01*
X133123348Y-102240517D02*
X133114369Y-102240517D01*
X139618199Y-97018199D02*
X139094444Y-97018199D01*
X152224900Y-88425131D02*
X148211266Y-88425131D01*
X133872125Y-102240517D02*
X133123348Y-102240517D01*
X148211266Y-88425131D02*
X139618199Y-97018199D01*
X133114369Y-102240517D02*
X133113642Y-102239790D01*
X139094444Y-97018199D02*
X135656321Y-100456321D01*
X134856321Y-100556321D02*
X135556321Y-100556321D01*
%TO.N,/EPD_CSB*%
X149775000Y-91375000D02*
X146825000Y-91375000D01*
X140525000Y-99800305D02*
X138837868Y-101487437D01*
X151681914Y-89451956D02*
X151681914Y-89468086D01*
X138837868Y-101846858D02*
X138579387Y-102105339D01*
X140100305Y-98099695D02*
X140100305Y-98775000D01*
X151233871Y-89899999D02*
X151681914Y-89451956D01*
X138837868Y-101487437D02*
X138837868Y-101846858D01*
X151681914Y-89468086D02*
X149775000Y-91375000D01*
X150499999Y-89899999D02*
X151233871Y-89899999D01*
X140100305Y-98775000D02*
X140525000Y-99199695D01*
X140525000Y-99199695D02*
X140525000Y-99800305D01*
X150000000Y-89400000D02*
X150499999Y-89899999D01*
X146825000Y-91375000D02*
X140100305Y-98099695D01*
%TO.N,/EPD_DC*%
X143486397Y-106550000D02*
X145200000Y-104836397D01*
X154400000Y-89899999D02*
X154400000Y-89500000D01*
X151503563Y-92223642D02*
X152076357Y-92223642D01*
X132968021Y-102824119D02*
X132964989Y-102821087D01*
X135742053Y-102824119D02*
X132968021Y-102824119D01*
X145200000Y-98675736D02*
X151239072Y-92636664D01*
X143486397Y-106550000D02*
X142950000Y-106550000D01*
X152076357Y-92223642D02*
X154400000Y-89899999D01*
X151239072Y-92636664D02*
X151239072Y-92488133D01*
X139467934Y-106550000D02*
X135742053Y-102824119D01*
X145200000Y-104836397D02*
X145200000Y-98675736D01*
X151239072Y-92488133D02*
X151503563Y-92223642D01*
X142950000Y-106550000D02*
X142100000Y-107400000D01*
X143486397Y-106550000D02*
X139467934Y-106550000D01*
%TO.N,/EPD_RST_N*%
X142751103Y-98151103D02*
X147938966Y-92963240D01*
X139200000Y-102300000D02*
X138909548Y-102590452D01*
X152278420Y-89527472D02*
X152278420Y-89387275D01*
X139200000Y-101702206D02*
X139200000Y-102300000D01*
X148842652Y-92963240D02*
X152278420Y-89527472D01*
X142551103Y-98151103D02*
X142751103Y-98151103D01*
X142000000Y-97600000D02*
X142551103Y-98151103D01*
X142751103Y-98151103D02*
X139200000Y-101702206D01*
X138909548Y-102590452D02*
X138209562Y-102590452D01*
X147938966Y-92963240D02*
X148842652Y-92963240D01*
%TO.N,Net-(J6-Pin_16)*%
X141923329Y-103176671D02*
X138217188Y-103176671D01*
X142300000Y-101900000D02*
X142300000Y-102800000D01*
X142300000Y-102800000D02*
X141923329Y-103176671D01*
X138217188Y-103176671D02*
X138203436Y-103190423D01*
%TO.N,/EPD_RESR*%
X138630870Y-103525000D02*
X138397796Y-103758074D01*
X144314883Y-103525000D02*
X138630870Y-103525000D01*
X144445173Y-103655290D02*
X144314883Y-103525000D01*
X144450000Y-103674589D02*
X144450000Y-103673257D01*
X144445173Y-103668430D02*
X144445173Y-103655290D01*
X144450000Y-103673257D02*
X144445173Y-103668430D01*
%TO.N,/EPD_GDR*%
X134850000Y-106700000D02*
X135693199Y-105856801D01*
X133200000Y-106700000D02*
X134850000Y-106700000D01*
%TO.N,/EPD_LIGHT_PWR_NEG*%
X138280459Y-104726128D02*
X141526128Y-104726128D01*
X141526128Y-104726128D02*
X142800000Y-106000000D01*
%TO.N,/FLASH_IO1*%
X153962132Y-91856435D02*
X151993934Y-93824633D01*
X153962132Y-91462131D02*
X153962132Y-91856435D01*
X154999261Y-90425002D02*
X153962132Y-91462131D01*
X156956983Y-90425002D02*
X154999261Y-90425002D01*
%TO.N,/FLASH_IO2*%
X157007526Y-91507526D02*
X155189532Y-91507526D01*
X152897059Y-93799999D02*
X152674998Y-93799999D01*
X155189532Y-91507526D02*
X152897059Y-93799999D01*
X157400000Y-91900000D02*
X157007526Y-91507526D01*
%TO.N,/FLASH_IO0*%
X154928460Y-91132200D02*
X156886182Y-91132200D01*
X158023661Y-89287734D02*
X158023661Y-89086932D01*
X156886182Y-91132200D02*
X157406983Y-90611399D01*
X157406983Y-89904412D02*
X158023661Y-89287734D01*
X157406983Y-90611399D02*
X157406983Y-89904412D01*
X154780330Y-91280330D02*
X154928460Y-91132200D01*
%TO.N,/FLASH_CLK*%
X157003224Y-88637890D02*
X152648538Y-88637890D01*
X157426092Y-89140917D02*
X157426092Y-89060758D01*
X152411297Y-88875131D02*
X151613644Y-88875131D01*
X157426092Y-89060758D02*
X157003224Y-88637890D01*
X152648538Y-88637890D02*
X152411297Y-88875131D01*
X151613644Y-88875131D02*
X151083750Y-89405025D01*
%TO.N,/FLASH_IO3*%
X151774999Y-94724633D02*
X151543934Y-94493568D01*
X151543934Y-93456065D02*
X155912109Y-89087890D01*
X155912109Y-89087890D02*
X156816827Y-89087890D01*
X151543934Y-94493568D02*
X151543934Y-93456065D01*
%TO.N,/VSYS*%
X159906250Y-108893750D02*
X163693750Y-108893750D01*
X163693750Y-108893750D02*
X164550000Y-109750000D01*
%TO.N,Net-(D6-A)*%
X144080000Y-112430000D02*
X144080000Y-112120000D01*
X144080000Y-112120000D02*
X144800000Y-111400000D01*
X144800000Y-111400000D02*
X144800000Y-107400000D01*
%TO.N,Net-(IC2-VBAT)*%
X155263602Y-107100000D02*
X155400000Y-107100000D01*
X153750000Y-105586395D02*
X153750000Y-105586398D01*
X153750000Y-105586398D02*
X155263602Y-107100000D01*
%TO.N,Net-(U3-PH3-BOOT0)*%
X149700000Y-93713940D02*
X149626215Y-93640155D01*
X145400000Y-97200000D02*
X148095747Y-94504253D01*
X148909688Y-94504253D02*
X149700000Y-93713940D01*
X149626215Y-93640155D02*
X149599873Y-93640155D01*
X148095747Y-94504253D02*
X148909688Y-94504253D01*
X145350000Y-97200000D02*
X145400000Y-97200000D01*
%TO.N,Net-(IC2-SHPACT)*%
X155700000Y-100400000D02*
X155700000Y-99427500D01*
X155700000Y-99427500D02*
X155355919Y-99083419D01*
%TO.N,Net-(IC2-NTC)*%
X157300000Y-105200000D02*
X159100000Y-105200000D01*
X155700000Y-104100000D02*
X156200000Y-104100000D01*
X159100000Y-105200000D02*
X159600000Y-105700000D01*
X160300000Y-105700000D02*
X160400000Y-105800000D01*
X159600000Y-105700000D02*
X160300000Y-105700000D01*
X155300000Y-103700000D02*
X155700000Y-104100000D01*
X156200000Y-104100000D02*
X157300000Y-105200000D01*
%TO.N,Net-(JP2-A)*%
X160400000Y-104500000D02*
X160400000Y-104300000D01*
X160400000Y-104300000D02*
X160900000Y-103800000D01*
%TO.N,/I2C_SCL*%
X149400000Y-101300000D02*
X149300000Y-101200000D01*
X149300000Y-97500000D02*
X148170470Y-97500000D01*
X149300000Y-101200000D02*
X149300000Y-97500000D01*
X148170470Y-97500000D02*
X148150000Y-97520470D01*
%TO.N,/NRST*%
X148500000Y-113800000D02*
X153900000Y-113800000D01*
X146800000Y-112100000D02*
X148500000Y-113800000D01*
X154800000Y-111000000D02*
X154800000Y-109200000D01*
X146011798Y-108851803D02*
X146800000Y-109640005D01*
X153900000Y-113800000D02*
X154800000Y-112900000D01*
X146800000Y-109640005D02*
X146800000Y-112100000D01*
%TO.N,/SWDIO*%
X153050000Y-97900339D02*
X153050000Y-111650000D01*
X153050000Y-111650000D02*
X153300000Y-111900000D01*
X152642860Y-97493199D02*
X153050000Y-97900339D01*
%TO.N,/SWDCLK*%
X152142860Y-97718537D02*
X152142860Y-97286092D01*
X152142860Y-97286092D02*
X152528325Y-96900627D01*
X151600000Y-98261397D02*
X152142860Y-97718537D01*
X152528325Y-96900627D02*
X153054310Y-96900627D01*
X151600000Y-109150000D02*
X151600000Y-98261397D01*
X150300000Y-111900000D02*
X150300000Y-110450000D01*
X150300000Y-110450000D02*
X151600000Y-109150000D01*
%TO.N,Net-(J18-Pin_1)*%
X156000000Y-94336397D02*
X156563603Y-94900000D01*
X157400000Y-94900000D02*
X159200000Y-96700000D01*
X156563603Y-94900000D02*
X157400000Y-94900000D01*
X156000000Y-94200000D02*
X156000000Y-94336397D01*
%TO.N,Net-(J17-Pin_1)*%
X154512077Y-93763625D02*
X154512077Y-94092000D01*
X154420057Y-93646149D02*
X154420057Y-93671605D01*
X154420057Y-93671605D02*
X154512077Y-93763625D01*
X154512077Y-94092000D02*
X156120077Y-95700000D01*
X156120077Y-95700000D02*
X157000000Y-95700000D01*
%TO.N,Net-(J16-Pin_1)*%
X158100000Y-93900000D02*
X158800000Y-94600000D01*
X156000000Y-93516395D02*
X156383605Y-93900000D01*
X156383605Y-93900000D02*
X158100000Y-93900000D01*
%TO.N,/SND*%
X159994264Y-107830000D02*
X160952378Y-107830000D01*
X160952378Y-107830000D02*
X162150000Y-106632378D01*
X157837895Y-114475032D02*
X157837895Y-109986369D01*
X155900002Y-95938605D02*
X155636399Y-95675002D01*
X155636399Y-95675002D02*
X152088971Y-95675002D01*
X151243934Y-93119667D02*
X151688601Y-92675000D01*
X156450000Y-97488109D02*
X155900002Y-96938111D01*
X162150000Y-102313769D02*
X157324340Y-97488109D01*
X162150000Y-106632378D02*
X162150000Y-102313769D01*
X151243934Y-94829965D02*
X151243934Y-93119667D01*
X157324340Y-97488109D02*
X156450000Y-97488109D01*
X155900002Y-96938111D02*
X155900002Y-95938605D01*
X152088971Y-95675002D02*
X151243934Y-94829965D01*
X157837895Y-109986369D02*
X159994264Y-107830000D01*
%TO.N,Net-(D9-A)*%
X163250000Y-111450000D02*
X163200000Y-111500000D01*
X163250000Y-110400000D02*
X163250000Y-111450000D01*
%TO.N,Net-(J5-Pin_2)*%
X157650000Y-108400000D02*
X156700000Y-107450000D01*
X159000000Y-108400000D02*
X157650000Y-108400000D01*
X160400000Y-107100000D02*
X160300000Y-107100000D01*
X160300000Y-107100000D02*
X159000000Y-108400000D01*
%TD*%
%TA.AperFunction,Conductor*%
%TO.N,GND*%
G36*
X150937768Y-93359387D02*
G01*
X150993701Y-93401259D01*
X151018118Y-93466723D01*
X151018434Y-93475569D01*
X151018434Y-94785107D01*
X151018433Y-94785110D01*
X151018433Y-94874820D01*
X151032230Y-94908127D01*
X151038546Y-94923377D01*
X151038547Y-94923378D01*
X151052763Y-94957700D01*
X151133634Y-95038571D01*
X151133640Y-95038576D01*
X151897800Y-95802736D01*
X151897801Y-95802738D01*
X151961235Y-95866172D01*
X151995566Y-95880392D01*
X152044117Y-95900503D01*
X152044118Y-95900503D01*
X152148260Y-95900503D01*
X152148268Y-95900502D01*
X155491632Y-95900502D01*
X155521072Y-95909146D01*
X155551059Y-95915670D01*
X155556074Y-95919424D01*
X155558671Y-95920187D01*
X155579313Y-95936821D01*
X155638183Y-95995691D01*
X155671668Y-96057014D01*
X155674502Y-96083372D01*
X155674502Y-96278922D01*
X155654817Y-96345961D01*
X155602013Y-96391716D01*
X155532855Y-96401660D01*
X155518411Y-96398697D01*
X155496927Y-96392940D01*
X155496923Y-96392940D01*
X155398053Y-96392940D01*
X155302550Y-96418530D01*
X155302548Y-96418531D01*
X155302547Y-96418531D01*
X155216924Y-96467966D01*
X155147014Y-96537876D01*
X155097579Y-96623499D01*
X155097579Y-96623500D01*
X155097578Y-96623502D01*
X155071988Y-96719005D01*
X155071988Y-96719007D01*
X155071988Y-96763916D01*
X155052303Y-96830955D01*
X154999499Y-96876710D01*
X154947988Y-96887916D01*
X154903077Y-96887916D01*
X154807574Y-96913506D01*
X154807572Y-96913507D01*
X154807571Y-96913507D01*
X154721948Y-96962942D01*
X154652038Y-97032852D01*
X154602603Y-97118475D01*
X154602603Y-97118476D01*
X154602602Y-97118478D01*
X154577012Y-97213981D01*
X154577012Y-97312851D01*
X154602602Y-97408354D01*
X154602603Y-97408355D01*
X154602603Y-97408356D01*
X154603700Y-97410256D01*
X154652037Y-97493978D01*
X154721950Y-97563891D01*
X154807574Y-97613326D01*
X154903077Y-97638916D01*
X154903079Y-97638916D01*
X155001945Y-97638916D01*
X155001947Y-97638916D01*
X155049978Y-97626046D01*
X155119826Y-97627707D01*
X155169749Y-97658137D01*
X155271319Y-97759706D01*
X155388181Y-97876568D01*
X155421666Y-97937891D01*
X155424500Y-97964249D01*
X155424500Y-98583919D01*
X155404815Y-98650958D01*
X155352011Y-98696713D01*
X155314288Y-98704919D01*
X155314544Y-98706858D01*
X155306486Y-98707918D01*
X155269186Y-98717913D01*
X155210981Y-98733509D01*
X155210979Y-98733510D01*
X155210978Y-98733510D01*
X155125357Y-98782944D01*
X155068628Y-98839673D01*
X155007304Y-98873157D01*
X154943994Y-98870357D01*
X154930863Y-98866257D01*
X154913545Y-98856259D01*
X154818042Y-98830669D01*
X154816867Y-98830669D01*
X154807328Y-98827691D01*
X154780280Y-98809651D01*
X154752526Y-98792734D01*
X154751381Y-98790377D01*
X154749201Y-98788923D01*
X154736202Y-98759130D01*
X154721998Y-98729887D01*
X154722309Y-98727284D01*
X154721261Y-98724882D01*
X154726433Y-98692789D01*
X154730293Y-98660512D01*
X154731961Y-98658490D01*
X154732379Y-98655903D01*
X154754082Y-98631700D01*
X154774779Y-98606634D01*
X154778839Y-98604092D01*
X154779025Y-98603885D01*
X154779284Y-98603813D01*
X154782237Y-98601964D01*
X154784818Y-98600475D01*
X154854731Y-98530562D01*
X154904166Y-98444938D01*
X154929756Y-98349435D01*
X154929756Y-98250565D01*
X154904166Y-98155062D01*
X154854731Y-98069438D01*
X154784818Y-97999525D01*
X154699194Y-97950090D01*
X154603691Y-97924500D01*
X154504821Y-97924500D01*
X154409318Y-97950090D01*
X154409316Y-97950091D01*
X154409315Y-97950091D01*
X154323692Y-97999526D01*
X154253782Y-98069436D01*
X154204347Y-98155059D01*
X154204347Y-98155060D01*
X154204346Y-98155062D01*
X154178756Y-98250565D01*
X154178756Y-98349435D01*
X154204346Y-98444938D01*
X154204347Y-98444939D01*
X154204347Y-98444940D01*
X154210561Y-98455703D01*
X154253781Y-98530562D01*
X154323694Y-98600475D01*
X154409318Y-98649910D01*
X154504821Y-98675500D01*
X154504823Y-98675500D01*
X154510675Y-98677068D01*
X154570335Y-98713433D01*
X154600864Y-98776280D01*
X154592569Y-98845656D01*
X154548084Y-98899534D01*
X154540594Y-98904221D01*
X154538673Y-98905330D01*
X154538043Y-98905695D01*
X154468133Y-98975605D01*
X154418698Y-99061228D01*
X154418698Y-99061229D01*
X154418697Y-99061231D01*
X154393107Y-99156734D01*
X154393107Y-99255604D01*
X154418697Y-99351107D01*
X154468132Y-99436731D01*
X154538045Y-99506644D01*
X154623669Y-99556079D01*
X154719172Y-99581669D01*
X154719174Y-99581669D01*
X154818039Y-99581669D01*
X154818042Y-99581669D01*
X154913545Y-99556079D01*
X154999169Y-99506644D01*
X155055900Y-99449912D01*
X155117219Y-99416430D01*
X155170109Y-99416468D01*
X155188909Y-99420585D01*
X155210981Y-99433329D01*
X155306484Y-99458919D01*
X155363919Y-99458919D01*
X155377031Y-99461791D01*
X155396375Y-99472389D01*
X155417539Y-99478604D01*
X155426415Y-99488848D01*
X155438306Y-99495363D01*
X155448850Y-99514739D01*
X155463294Y-99531408D01*
X155466871Y-99547854D01*
X155471704Y-99556734D01*
X155470975Y-99566718D01*
X155474500Y-99582919D01*
X155474500Y-99706455D01*
X155454815Y-99773494D01*
X155402011Y-99819249D01*
X155397956Y-99821015D01*
X155391875Y-99823533D01*
X155391866Y-99823538D01*
X155285331Y-99894723D01*
X155285327Y-99894726D01*
X155194726Y-99985327D01*
X155194723Y-99985331D01*
X155123538Y-100091866D01*
X155123533Y-100091875D01*
X155074499Y-100210255D01*
X155074497Y-100210261D01*
X155049500Y-100335928D01*
X155049500Y-100335931D01*
X155049500Y-100464069D01*
X155049500Y-100464071D01*
X155049499Y-100464071D01*
X155074497Y-100589738D01*
X155074499Y-100589744D01*
X155123533Y-100708124D01*
X155123538Y-100708133D01*
X155194723Y-100814668D01*
X155194726Y-100814672D01*
X155285327Y-100905273D01*
X155285331Y-100905276D01*
X155391866Y-100976461D01*
X155391872Y-100976464D01*
X155391873Y-100976465D01*
X155510256Y-101025501D01*
X155510260Y-101025501D01*
X155510261Y-101025502D01*
X155635928Y-101050500D01*
X155635931Y-101050500D01*
X155764071Y-101050500D01*
X155848615Y-101033682D01*
X155889744Y-101025501D01*
X156008127Y-100976465D01*
X156114669Y-100905276D01*
X156205276Y-100814669D01*
X156276465Y-100708127D01*
X156325501Y-100589744D01*
X156344371Y-100494880D01*
X156350500Y-100464071D01*
X156350500Y-100335928D01*
X156325502Y-100210261D01*
X156325501Y-100210260D01*
X156325501Y-100210256D01*
X156282017Y-100105276D01*
X156276466Y-100091875D01*
X156276461Y-100091866D01*
X156205276Y-99985331D01*
X156205273Y-99985327D01*
X156114672Y-99894726D01*
X156114668Y-99894723D01*
X156008133Y-99823538D01*
X156008124Y-99823533D01*
X156002044Y-99821015D01*
X155947642Y-99777172D01*
X155925579Y-99710877D01*
X155925500Y-99706455D01*
X155925500Y-99597321D01*
X155945185Y-99530282D01*
X155997989Y-99484527D01*
X156067147Y-99474583D01*
X156130703Y-99503608D01*
X156137181Y-99509640D01*
X159894438Y-103266897D01*
X159964905Y-103337364D01*
X160056974Y-103375500D01*
X160056976Y-103375500D01*
X160496893Y-103375500D01*
X160563932Y-103395185D01*
X160609687Y-103447989D01*
X160619631Y-103517147D01*
X160611239Y-103547469D01*
X160603827Y-103565135D01*
X160599525Y-103569438D01*
X160550090Y-103655062D01*
X160524500Y-103750565D01*
X160524500Y-103754233D01*
X160518528Y-103768469D01*
X160501576Y-103789311D01*
X160487592Y-103812254D01*
X160479863Y-103816008D01*
X160474442Y-103822674D01*
X160448910Y-103831044D01*
X160424745Y-103842783D01*
X160409124Y-103844087D01*
X160408049Y-103844440D01*
X160407283Y-103844241D01*
X160404182Y-103844500D01*
X160084167Y-103844500D01*
X160043933Y-103849798D01*
X160043927Y-103849799D01*
X159916752Y-103883876D01*
X159879268Y-103899402D01*
X159879259Y-103899407D01*
X159765249Y-103965230D01*
X159765240Y-103965236D01*
X159733030Y-103989952D01*
X159733029Y-103989954D01*
X159639954Y-104083029D01*
X159639952Y-104083030D01*
X159615236Y-104115240D01*
X159615230Y-104115249D01*
X159549409Y-104229254D01*
X159549402Y-104229268D01*
X159533876Y-104266752D01*
X159499799Y-104393927D01*
X159499798Y-104393933D01*
X159494500Y-104434167D01*
X159494500Y-104976231D01*
X159474815Y-105043270D01*
X159422011Y-105089025D01*
X159352853Y-105098969D01*
X159289297Y-105069944D01*
X159282819Y-105063912D01*
X159227737Y-105008830D01*
X159203457Y-104998772D01*
X159203457Y-104998771D01*
X159144858Y-104974500D01*
X159144856Y-104974499D01*
X159144855Y-104974499D01*
X159055145Y-104974499D01*
X159040711Y-104974499D01*
X159040703Y-104974500D01*
X157705899Y-104974500D01*
X157638860Y-104954815D01*
X157593105Y-104902011D01*
X157583161Y-104832853D01*
X157612186Y-104769297D01*
X157618218Y-104762819D01*
X157630947Y-104750090D01*
X157650475Y-104730562D01*
X157699910Y-104644938D01*
X157725500Y-104549435D01*
X157725500Y-104450565D01*
X157699910Y-104355062D01*
X157650475Y-104269438D01*
X157580562Y-104199525D01*
X157494938Y-104150090D01*
X157399435Y-104124500D01*
X157300565Y-104124500D01*
X157205062Y-104150090D01*
X157205060Y-104150091D01*
X157205059Y-104150091D01*
X157119436Y-104199526D01*
X157049526Y-104269436D01*
X156998121Y-104358470D01*
X156947553Y-104406685D01*
X156878946Y-104419906D01*
X156814082Y-104393937D01*
X156803054Y-104384149D01*
X156413987Y-103995082D01*
X156391170Y-103972265D01*
X156391170Y-103972264D01*
X156327736Y-103908830D01*
X156291764Y-103893930D01*
X156276184Y-103887476D01*
X156244857Y-103874499D01*
X156244855Y-103874499D01*
X156155145Y-103874499D01*
X156140711Y-103874499D01*
X156140703Y-103874500D01*
X155844768Y-103874500D01*
X155815327Y-103865855D01*
X155785341Y-103859332D01*
X155780325Y-103855577D01*
X155777729Y-103854815D01*
X155757087Y-103838181D01*
X155711819Y-103792913D01*
X155678334Y-103731590D01*
X155675500Y-103705232D01*
X155675500Y-103650567D01*
X155675500Y-103650565D01*
X155649910Y-103555062D01*
X155600475Y-103469438D01*
X155530562Y-103399525D01*
X155444938Y-103350090D01*
X155349435Y-103324500D01*
X155250565Y-103324500D01*
X155155062Y-103350090D01*
X155155060Y-103350091D01*
X155155059Y-103350091D01*
X155069436Y-103399526D01*
X154999526Y-103469436D01*
X154950091Y-103555059D01*
X154950091Y-103555060D01*
X154950090Y-103555062D01*
X154924500Y-103650565D01*
X154924500Y-103749435D01*
X154950090Y-103844938D01*
X154950091Y-103844939D01*
X154950091Y-103844940D01*
X154952686Y-103849435D01*
X154999525Y-103930562D01*
X155069438Y-104000475D01*
X155155062Y-104049910D01*
X155250565Y-104075500D01*
X155250567Y-104075500D01*
X155305232Y-104075500D01*
X155372271Y-104095185D01*
X155392913Y-104111819D01*
X155572266Y-104291172D01*
X155636365Y-104317721D01*
X155655145Y-104325500D01*
X155744854Y-104325500D01*
X156055233Y-104325500D01*
X156122272Y-104345185D01*
X156142914Y-104361819D01*
X157108829Y-105327734D01*
X157108830Y-105327736D01*
X157172264Y-105391170D01*
X157193582Y-105400000D01*
X157255145Y-105425501D01*
X157255148Y-105425501D01*
X157359289Y-105425501D01*
X157359297Y-105425500D01*
X158955233Y-105425500D01*
X159022272Y-105445185D01*
X159042914Y-105461819D01*
X159408829Y-105827734D01*
X159408830Y-105827736D01*
X159463183Y-105882089D01*
X159480805Y-105914363D01*
X159496666Y-105943410D01*
X159499500Y-105969768D01*
X159499500Y-106314820D01*
X159499500Y-106314822D01*
X159499499Y-106314822D01*
X159508231Y-106358717D01*
X159512906Y-106370002D01*
X159510077Y-106371173D01*
X159525243Y-106419616D01*
X159515966Y-106455518D01*
X159519558Y-106456481D01*
X159494500Y-106550000D01*
X159494500Y-107165832D01*
X159499798Y-107206066D01*
X159499799Y-107206073D01*
X159512926Y-107255062D01*
X159533876Y-107333247D01*
X159549402Y-107370731D01*
X159549409Y-107370746D01*
X159560743Y-107390376D01*
X159577216Y-107458276D01*
X159554363Y-107524303D01*
X159541037Y-107540057D01*
X159211681Y-107869413D01*
X159150358Y-107902898D01*
X159080666Y-107897914D01*
X159024733Y-107856042D01*
X159000316Y-107790578D01*
X159000000Y-107781732D01*
X159000000Y-107350000D01*
X158124000Y-107350000D01*
X158056961Y-107330315D01*
X158011206Y-107277511D01*
X158000000Y-107226000D01*
X158000000Y-107100000D01*
X157874000Y-107100000D01*
X157806961Y-107080315D01*
X157761206Y-107027511D01*
X157750000Y-106976000D01*
X157750000Y-106850000D01*
X158250000Y-106850000D01*
X159000000Y-106850000D01*
X159000000Y-106302172D01*
X158999999Y-106302155D01*
X158993598Y-106242627D01*
X158993596Y-106242620D01*
X158943354Y-106107913D01*
X158943350Y-106107906D01*
X158857190Y-105992812D01*
X158857187Y-105992809D01*
X158742093Y-105906649D01*
X158742086Y-105906645D01*
X158607379Y-105856403D01*
X158607372Y-105856401D01*
X158547844Y-105850000D01*
X158250000Y-105850000D01*
X158250000Y-106850000D01*
X157750000Y-106850000D01*
X157750000Y-105850000D01*
X157452155Y-105850000D01*
X157392627Y-105856401D01*
X157392620Y-105856403D01*
X157257913Y-105906645D01*
X157257906Y-105906649D01*
X157142812Y-105992809D01*
X157142809Y-105992812D01*
X157056649Y-106107907D01*
X157052574Y-106118833D01*
X157010703Y-106174767D01*
X156945239Y-106199184D01*
X156936392Y-106199500D01*
X156185178Y-106199500D01*
X156141282Y-106208231D01*
X156141279Y-106208232D01*
X156118889Y-106223193D01*
X156052211Y-106244069D01*
X155984831Y-106225583D01*
X155981111Y-106223193D01*
X155958722Y-106208233D01*
X155958721Y-106208232D01*
X155958720Y-106208232D01*
X155958717Y-106208231D01*
X155914822Y-106199500D01*
X155914820Y-106199500D01*
X154885180Y-106199500D01*
X154885178Y-106199500D01*
X154841282Y-106208231D01*
X154841275Y-106208234D01*
X154835645Y-106211996D01*
X154768967Y-106232870D01*
X154701588Y-106214382D01*
X154679079Y-106196571D01*
X154161819Y-105679311D01*
X154128334Y-105617988D01*
X154125500Y-105591630D01*
X154125500Y-105536962D01*
X154125500Y-105536960D01*
X154099910Y-105441457D01*
X154050475Y-105355833D01*
X153980562Y-105285920D01*
X153894938Y-105236485D01*
X153799435Y-105210895D01*
X153700565Y-105210895D01*
X153605062Y-105236485D01*
X153605060Y-105236486D01*
X153605059Y-105236486D01*
X153519436Y-105285921D01*
X153487181Y-105318177D01*
X153425858Y-105351662D01*
X153356166Y-105346678D01*
X153300233Y-105304806D01*
X153275816Y-105239342D01*
X153275500Y-105230496D01*
X153275500Y-101435623D01*
X153295185Y-101368584D01*
X153347989Y-101322829D01*
X153417147Y-101312885D01*
X153461496Y-101328235D01*
X153490375Y-101344908D01*
X153585878Y-101370498D01*
X153585880Y-101370498D01*
X153684745Y-101370498D01*
X153684748Y-101370498D01*
X153780251Y-101344908D01*
X153863039Y-101297110D01*
X153930936Y-101280637D01*
X153996963Y-101303489D01*
X154040154Y-101358409D01*
X154046796Y-101427963D01*
X154044812Y-101436589D01*
X154024500Y-101512395D01*
X154024500Y-101512397D01*
X154024500Y-101611267D01*
X154050090Y-101706770D01*
X154099525Y-101792394D01*
X154169438Y-101862307D01*
X154255062Y-101911742D01*
X154350565Y-101937332D01*
X154350567Y-101937332D01*
X154449432Y-101937332D01*
X154449435Y-101937332D01*
X154544938Y-101911742D01*
X154630562Y-101862307D01*
X154700475Y-101792394D01*
X154749910Y-101706770D01*
X154775500Y-101611267D01*
X154775500Y-101512397D01*
X154749910Y-101416894D01*
X154700475Y-101331270D01*
X154690895Y-101321690D01*
X154657410Y-101260367D01*
X154662394Y-101190675D01*
X154671189Y-101172009D01*
X154708011Y-101108232D01*
X154733601Y-101012729D01*
X154733601Y-100913859D01*
X154708011Y-100818356D01*
X154658576Y-100732732D01*
X154658572Y-100732728D01*
X154657181Y-100730915D01*
X154656481Y-100729104D01*
X154654512Y-100725694D01*
X154655043Y-100725386D01*
X154631988Y-100665745D01*
X154646027Y-100597301D01*
X154656140Y-100581564D01*
X154656750Y-100580506D01*
X154656754Y-100580503D01*
X154706189Y-100494879D01*
X154731779Y-100399376D01*
X154731779Y-100300506D01*
X154706189Y-100205003D01*
X154656754Y-100119379D01*
X154586841Y-100049466D01*
X154501217Y-100000031D01*
X154405714Y-99974441D01*
X154306844Y-99974441D01*
X154211341Y-100000031D01*
X154211339Y-100000032D01*
X154211338Y-100000032D01*
X154125715Y-100049467D01*
X154055805Y-100119377D01*
X154006370Y-100205000D01*
X154006370Y-100205001D01*
X154006369Y-100205003D01*
X153980779Y-100300506D01*
X153980779Y-100399376D01*
X154006369Y-100494879D01*
X154006370Y-100494880D01*
X154006370Y-100494881D01*
X154018126Y-100515243D01*
X154034599Y-100583144D01*
X154011746Y-100649170D01*
X153956825Y-100692361D01*
X153887271Y-100699002D01*
X153848741Y-100684630D01*
X153780251Y-100645088D01*
X153684748Y-100619498D01*
X153585878Y-100619498D01*
X153490375Y-100645088D01*
X153490373Y-100645089D01*
X153490372Y-100645089D01*
X153461500Y-100661759D01*
X153393600Y-100678232D01*
X153327573Y-100655379D01*
X153284382Y-100600458D01*
X153275500Y-100554372D01*
X153275500Y-97959636D01*
X153275501Y-97959627D01*
X153275501Y-97855485D01*
X153275501Y-97855484D01*
X153244332Y-97780237D01*
X153241170Y-97772603D01*
X153177736Y-97709169D01*
X153170671Y-97702104D01*
X153170664Y-97702098D01*
X153054679Y-97586113D01*
X153021194Y-97524790D01*
X153018360Y-97498432D01*
X153018360Y-97443766D01*
X153018360Y-97443764D01*
X153014263Y-97428474D01*
X153015926Y-97358628D01*
X153055088Y-97300765D01*
X153101945Y-97276608D01*
X153103740Y-97276127D01*
X153103745Y-97276127D01*
X153199248Y-97250537D01*
X153284872Y-97201102D01*
X153284873Y-97201100D01*
X153291910Y-97197038D01*
X153292545Y-97198138D01*
X153350022Y-97175911D01*
X153418469Y-97189942D01*
X153422354Y-97192093D01*
X153423690Y-97192864D01*
X153423694Y-97192868D01*
X153509318Y-97242303D01*
X153604821Y-97267893D01*
X153604823Y-97267893D01*
X153703688Y-97267893D01*
X153703691Y-97267893D01*
X153799194Y-97242303D01*
X153884818Y-97192868D01*
X153954731Y-97122955D01*
X154004166Y-97037331D01*
X154029756Y-96941828D01*
X154029756Y-96842958D01*
X154004166Y-96747455D01*
X153954731Y-96661831D01*
X153884818Y-96591918D01*
X153799194Y-96542483D01*
X153703691Y-96516893D01*
X153604821Y-96516893D01*
X153509318Y-96542483D01*
X153509316Y-96542484D01*
X153509315Y-96542484D01*
X153458849Y-96571621D01*
X153423694Y-96591918D01*
X153423692Y-96591919D01*
X153416656Y-96595982D01*
X153416022Y-96594884D01*
X153358521Y-96617110D01*
X153290077Y-96603067D01*
X153286212Y-96600926D01*
X153284872Y-96600152D01*
X153199248Y-96550717D01*
X153103745Y-96525127D01*
X153004875Y-96525127D01*
X152909372Y-96550717D01*
X152909370Y-96550718D01*
X152909369Y-96550718D01*
X152823746Y-96600153D01*
X152785090Y-96638809D01*
X152758159Y-96653514D01*
X152732345Y-96670104D01*
X152726145Y-96670995D01*
X152723767Y-96672294D01*
X152697410Y-96675127D01*
X152587622Y-96675127D01*
X152587614Y-96675126D01*
X152586280Y-96675126D01*
X152585317Y-96674843D01*
X152557548Y-96671425D01*
X152557544Y-96671424D01*
X152558646Y-96667011D01*
X152519241Y-96655441D01*
X152473486Y-96602637D01*
X152466505Y-96583219D01*
X152466164Y-96581946D01*
X152466164Y-96581944D01*
X152440574Y-96486441D01*
X152391139Y-96400817D01*
X152321226Y-96330904D01*
X152235602Y-96281469D01*
X152140099Y-96255879D01*
X152041229Y-96255879D01*
X151945726Y-96281469D01*
X151945724Y-96281470D01*
X151945723Y-96281470D01*
X151860102Y-96330904D01*
X151831873Y-96359133D01*
X151770549Y-96392617D01*
X151700858Y-96387631D01*
X151656512Y-96359131D01*
X151630563Y-96333182D01*
X151630562Y-96333181D01*
X151544938Y-96283746D01*
X151449435Y-96258156D01*
X151350565Y-96258156D01*
X151255062Y-96283746D01*
X151255060Y-96283747D01*
X151255059Y-96283747D01*
X151169436Y-96333182D01*
X151099526Y-96403092D01*
X151050091Y-96488715D01*
X151050091Y-96488716D01*
X151050090Y-96488718D01*
X151024500Y-96584221D01*
X151024500Y-96683091D01*
X151050090Y-96778594D01*
X151050091Y-96778595D01*
X151050091Y-96778596D01*
X151062175Y-96799526D01*
X151098210Y-96861941D01*
X151099526Y-96864219D01*
X151148126Y-96912819D01*
X151181611Y-96974142D01*
X151176627Y-97043834D01*
X151134755Y-97099767D01*
X151095918Y-97119318D01*
X151078561Y-97124500D01*
X151050565Y-97124500D01*
X150955062Y-97150090D01*
X150914600Y-97173450D01*
X150900665Y-97177611D01*
X150879679Y-97177705D01*
X150859290Y-97182652D01*
X150845447Y-97177860D01*
X150830796Y-97177927D01*
X150813092Y-97166662D01*
X150793263Y-97159799D01*
X150777511Y-97146474D01*
X150730562Y-97099525D01*
X150682563Y-97071812D01*
X150634348Y-97021245D01*
X150620564Y-96964426D01*
X150620564Y-95628992D01*
X150637178Y-95566990D01*
X150649910Y-95544938D01*
X150675500Y-95449435D01*
X150675500Y-95350565D01*
X150649910Y-95255062D01*
X150600475Y-95169438D01*
X150530562Y-95099525D01*
X150444938Y-95050090D01*
X150349435Y-95024500D01*
X150250565Y-95024500D01*
X150155062Y-95050090D01*
X150155060Y-95050091D01*
X150155059Y-95050091D01*
X150069436Y-95099526D01*
X149999526Y-95169436D01*
X149950091Y-95255059D01*
X149950091Y-95255060D01*
X149950090Y-95255062D01*
X149924500Y-95350565D01*
X149924500Y-95449435D01*
X149950090Y-95544938D01*
X149999525Y-95630562D01*
X150069438Y-95700475D01*
X150107566Y-95722488D01*
X150155779Y-95773052D01*
X150169564Y-95829873D01*
X150169564Y-97188106D01*
X150152952Y-97250104D01*
X150150092Y-97255057D01*
X150150090Y-97255060D01*
X150150090Y-97255062D01*
X150124500Y-97350565D01*
X150124500Y-97449435D01*
X150150090Y-97544938D01*
X150150091Y-97544939D01*
X150150091Y-97544940D01*
X150163337Y-97567882D01*
X150199525Y-97630562D01*
X150269438Y-97700475D01*
X150355062Y-97749910D01*
X150450565Y-97775500D01*
X150450567Y-97775500D01*
X150549432Y-97775500D01*
X150549435Y-97775500D01*
X150644938Y-97749910D01*
X150672807Y-97733819D01*
X150740705Y-97717346D01*
X150806732Y-97740197D01*
X150822488Y-97753525D01*
X150869438Y-97800475D01*
X150955062Y-97849910D01*
X151050565Y-97875500D01*
X151050567Y-97875500D01*
X151149432Y-97875500D01*
X151149435Y-97875500D01*
X151244938Y-97849910D01*
X151330562Y-97800475D01*
X151400475Y-97730562D01*
X151449910Y-97644938D01*
X151475500Y-97549435D01*
X151475500Y-97450565D01*
X151449910Y-97355062D01*
X151400475Y-97269438D01*
X151351874Y-97220837D01*
X151318389Y-97159514D01*
X151323373Y-97089822D01*
X151365245Y-97033889D01*
X151430709Y-97009472D01*
X151439555Y-97009156D01*
X151449432Y-97009156D01*
X151449435Y-97009156D01*
X151544938Y-96983566D01*
X151630562Y-96934131D01*
X151658791Y-96905901D01*
X151720110Y-96872418D01*
X151789802Y-96877402D01*
X151818736Y-96892819D01*
X151826977Y-96898729D01*
X151860102Y-96931854D01*
X151927107Y-96970539D01*
X151932079Y-96974105D01*
X151949969Y-96997012D01*
X151970029Y-97018051D01*
X151971217Y-97024219D01*
X151975085Y-97029171D01*
X151977751Y-97058121D01*
X151983251Y-97086658D01*
X151980916Y-97092488D01*
X151981493Y-97098746D01*
X151968085Y-97124539D01*
X151957283Y-97151523D01*
X151953125Y-97156207D01*
X151951689Y-97158356D01*
X151941634Y-97182629D01*
X151941634Y-97182631D01*
X151934636Y-97199526D01*
X151917359Y-97241235D01*
X151917359Y-97345380D01*
X151917360Y-97345389D01*
X151917360Y-97573769D01*
X151897675Y-97640808D01*
X151881041Y-97661450D01*
X151408830Y-98133660D01*
X151408830Y-98133662D01*
X151374499Y-98216541D01*
X151374499Y-98320685D01*
X151374500Y-98320694D01*
X151374500Y-103809808D01*
X151354815Y-103876847D01*
X151302011Y-103922602D01*
X151232853Y-103932546D01*
X151218410Y-103929584D01*
X151207722Y-103926720D01*
X151199435Y-103924500D01*
X151100565Y-103924500D01*
X151005062Y-103950090D01*
X151005060Y-103950091D01*
X151005059Y-103950091D01*
X150919436Y-103999526D01*
X150849526Y-104069436D01*
X150800091Y-104155059D01*
X150800091Y-104155060D01*
X150800090Y-104155062D01*
X150774500Y-104250565D01*
X150774500Y-104349435D01*
X150800090Y-104444938D01*
X150849525Y-104530562D01*
X150919438Y-104600475D01*
X151005062Y-104649910D01*
X151100565Y-104675500D01*
X151100567Y-104675500D01*
X151199432Y-104675500D01*
X151199435Y-104675500D01*
X151218408Y-104670416D01*
X151288256Y-104672079D01*
X151346119Y-104711241D01*
X151373623Y-104775470D01*
X151374500Y-104790191D01*
X151374500Y-107832751D01*
X151354815Y-107899790D01*
X151302011Y-107945545D01*
X151232853Y-107955489D01*
X151218407Y-107952526D01*
X151190087Y-107944938D01*
X151162474Y-107937539D01*
X151063604Y-107937539D01*
X150968101Y-107963129D01*
X150968099Y-107963130D01*
X150968098Y-107963130D01*
X150882475Y-108012565D01*
X150812565Y-108082475D01*
X150763130Y-108168098D01*
X150763130Y-108168099D01*
X150763129Y-108168101D01*
X150737539Y-108263604D01*
X150737539Y-108263606D01*
X150737539Y-108318271D01*
X150717854Y-108385310D01*
X150701220Y-108405952D01*
X150193992Y-108913181D01*
X150132669Y-108946666D01*
X150106311Y-108949500D01*
X149819767Y-108949500D01*
X149752728Y-108929815D01*
X149732086Y-108913181D01*
X148711819Y-107892914D01*
X148678334Y-107831591D01*
X148675500Y-107805233D01*
X148675500Y-107750567D01*
X148675500Y-107750565D01*
X148649910Y-107655062D01*
X148600475Y-107569438D01*
X148577590Y-107546553D01*
X148544105Y-107485230D01*
X148549089Y-107415538D01*
X148577590Y-107371191D01*
X148595602Y-107353179D01*
X148618487Y-107330294D01*
X148667922Y-107244670D01*
X148693512Y-107149167D01*
X148693512Y-107050297D01*
X148667922Y-106954794D01*
X148618487Y-106869170D01*
X148618485Y-106869168D01*
X148618484Y-106869166D01*
X148613538Y-106862720D01*
X148616183Y-106860690D01*
X148590128Y-106812973D01*
X148595112Y-106743281D01*
X148603903Y-106724624D01*
X148649910Y-106644938D01*
X148675500Y-106549435D01*
X148675500Y-106450565D01*
X148649910Y-106355062D01*
X148600475Y-106269438D01*
X148530562Y-106199525D01*
X148444938Y-106150090D01*
X148349435Y-106124500D01*
X148250565Y-106124500D01*
X148155062Y-106150090D01*
X148155060Y-106150091D01*
X148155059Y-106150091D01*
X148069436Y-106199526D01*
X147999526Y-106269436D01*
X147950091Y-106355059D01*
X147950091Y-106355060D01*
X147950090Y-106355062D01*
X147924500Y-106450565D01*
X147924500Y-106549435D01*
X147950090Y-106644938D01*
X147950091Y-106644939D01*
X147950091Y-106644940D01*
X147999527Y-106730565D01*
X148004474Y-106737012D01*
X148001827Y-106739042D01*
X148027882Y-106786757D01*
X148022898Y-106856449D01*
X148014104Y-106875113D01*
X147968104Y-106954789D01*
X147968102Y-106954792D01*
X147968102Y-106954794D01*
X147942512Y-107050297D01*
X147942512Y-107149167D01*
X147968102Y-107244670D01*
X147968103Y-107244671D01*
X147968103Y-107244672D01*
X148017538Y-107330295D01*
X148040422Y-107353179D01*
X148073907Y-107414502D01*
X148068923Y-107484194D01*
X148040422Y-107528541D01*
X147999526Y-107569436D01*
X147950091Y-107655059D01*
X147950091Y-107655060D01*
X147950090Y-107655062D01*
X147924500Y-107750565D01*
X147924500Y-107849435D01*
X147950090Y-107944938D01*
X147950091Y-107944939D01*
X147950091Y-107944940D01*
X147953065Y-107950091D01*
X147999525Y-108030562D01*
X148069438Y-108100475D01*
X148155062Y-108149910D01*
X148250565Y-108175500D01*
X148250567Y-108175500D01*
X148305233Y-108175500D01*
X148372272Y-108195185D01*
X148392914Y-108211819D01*
X149483829Y-109302734D01*
X149483830Y-109302736D01*
X149547264Y-109366170D01*
X149547599Y-109366309D01*
X149556442Y-109375127D01*
X149567626Y-109395542D01*
X149582560Y-109413399D01*
X149584098Y-109425610D01*
X149590011Y-109436404D01*
X149588382Y-109459625D01*
X149591291Y-109482721D01*
X149585983Y-109493825D01*
X149585122Y-109506103D01*
X149571197Y-109524756D01*
X149561159Y-109545759D01*
X149556562Y-109550610D01*
X148843992Y-110263181D01*
X148782669Y-110296666D01*
X148756311Y-110299500D01*
X148566739Y-110299500D01*
X148498608Y-110309426D01*
X148393514Y-110360803D01*
X148310803Y-110443514D01*
X148259426Y-110548608D01*
X148249500Y-110616739D01*
X148249500Y-112931233D01*
X148229815Y-112998272D01*
X148177011Y-113044027D01*
X148107853Y-113053971D01*
X148044297Y-113024946D01*
X148037819Y-113018914D01*
X147061819Y-112042914D01*
X147028334Y-111981591D01*
X147025500Y-111955233D01*
X147025500Y-109699302D01*
X147025501Y-109699293D01*
X147025501Y-109595151D01*
X147025501Y-109595150D01*
X146991170Y-109512270D01*
X146991170Y-109512269D01*
X146927736Y-109448835D01*
X146920671Y-109441770D01*
X146920664Y-109441764D01*
X146423617Y-108944717D01*
X146390132Y-108883394D01*
X146387298Y-108857036D01*
X146387298Y-108802370D01*
X146387298Y-108802368D01*
X146361708Y-108706865D01*
X146312273Y-108621241D01*
X146242360Y-108551328D01*
X146156736Y-108501893D01*
X146061233Y-108476303D01*
X145962363Y-108476303D01*
X145866860Y-108501893D01*
X145866858Y-108501894D01*
X145866857Y-108501894D01*
X145781236Y-108551328D01*
X145719481Y-108613083D01*
X145658157Y-108646567D01*
X145588466Y-108641582D01*
X145544119Y-108613082D01*
X145480563Y-108549526D01*
X145480562Y-108549525D01*
X145394938Y-108500090D01*
X145299435Y-108474500D01*
X145200565Y-108474500D01*
X145181590Y-108479584D01*
X145111740Y-108477919D01*
X145053879Y-108438754D01*
X145026376Y-108374525D01*
X145025500Y-108359808D01*
X145025500Y-107756899D01*
X145045185Y-107689860D01*
X145061819Y-107669218D01*
X145075978Y-107655059D01*
X145100475Y-107630562D01*
X145149910Y-107544938D01*
X145175500Y-107449435D01*
X145175500Y-107350565D01*
X145149910Y-107255062D01*
X145100475Y-107169438D01*
X145030562Y-107099525D01*
X144944938Y-107050090D01*
X144849435Y-107024500D01*
X144750565Y-107024500D01*
X144655062Y-107050090D01*
X144655060Y-107050091D01*
X144655059Y-107050091D01*
X144569436Y-107099526D01*
X144499526Y-107169436D01*
X144450091Y-107255059D01*
X144450091Y-107255060D01*
X144450090Y-107255062D01*
X144424500Y-107350565D01*
X144424500Y-107449435D01*
X144450090Y-107544938D01*
X144450091Y-107544939D01*
X144450091Y-107544940D01*
X144499526Y-107630563D01*
X144538181Y-107669218D01*
X144571666Y-107730541D01*
X144574500Y-107756899D01*
X144574500Y-111255232D01*
X144554815Y-111322271D01*
X144538181Y-111342913D01*
X143888830Y-111992263D01*
X143888830Y-111992265D01*
X143854499Y-112075144D01*
X143852117Y-112087122D01*
X143850477Y-112086795D01*
X143834814Y-112140141D01*
X143818180Y-112160783D01*
X143779526Y-112199436D01*
X143730091Y-112285059D01*
X143730091Y-112285060D01*
X143730090Y-112285062D01*
X143704500Y-112380565D01*
X143704500Y-112479435D01*
X143730090Y-112574938D01*
X143779525Y-112660562D01*
X143849438Y-112730475D01*
X143935062Y-112779910D01*
X144030565Y-112805500D01*
X144030567Y-112805500D01*
X144129432Y-112805500D01*
X144129435Y-112805500D01*
X144224938Y-112779910D01*
X144310562Y-112730475D01*
X144380475Y-112660562D01*
X144429910Y-112574938D01*
X144455500Y-112479435D01*
X144455500Y-112380565D01*
X144429910Y-112285062D01*
X144405717Y-112243158D01*
X144389245Y-112175262D01*
X144412097Y-112109235D01*
X144425419Y-112093485D01*
X144927734Y-111591170D01*
X144927736Y-111591170D01*
X144991170Y-111527736D01*
X145012676Y-111475815D01*
X145025501Y-111444854D01*
X145025501Y-111355145D01*
X145025501Y-111345156D01*
X145025500Y-111345142D01*
X145025500Y-109340191D01*
X145045185Y-109273152D01*
X145097989Y-109227397D01*
X145167147Y-109217453D01*
X145181582Y-109220413D01*
X145200565Y-109225500D01*
X145200568Y-109225500D01*
X145299432Y-109225500D01*
X145299435Y-109225500D01*
X145394938Y-109199910D01*
X145480562Y-109150475D01*
X145542319Y-109088717D01*
X145603638Y-109055235D01*
X145673330Y-109060219D01*
X145717678Y-109088720D01*
X145781236Y-109152278D01*
X145866860Y-109201713D01*
X145962363Y-109227303D01*
X145962365Y-109227303D01*
X146017031Y-109227303D01*
X146084070Y-109246988D01*
X146104712Y-109263622D01*
X146538181Y-109697091D01*
X146571666Y-109758414D01*
X146574500Y-109784772D01*
X146574500Y-112055142D01*
X146574499Y-112055145D01*
X146574499Y-112144855D01*
X146582784Y-112164855D01*
X146589643Y-112181414D01*
X146608830Y-112227736D01*
X146689700Y-112308606D01*
X146689706Y-112308611D01*
X148308829Y-113927734D01*
X148308830Y-113927736D01*
X148372264Y-113991170D01*
X148394789Y-114000500D01*
X148455145Y-114025501D01*
X148455146Y-114025501D01*
X148559289Y-114025501D01*
X148559297Y-114025500D01*
X153855143Y-114025500D01*
X153855145Y-114025501D01*
X153944855Y-114025501D01*
X154005211Y-114000500D01*
X154027736Y-113991170D01*
X154091170Y-113927736D01*
X154091170Y-113927735D01*
X154108608Y-113910297D01*
X154108610Y-113910294D01*
X154482085Y-113536819D01*
X154543408Y-113503334D01*
X154569766Y-113500500D01*
X155033261Y-113500500D01*
X155055971Y-113497191D01*
X155101393Y-113490573D01*
X155206483Y-113439198D01*
X155289198Y-113356483D01*
X155340573Y-113251393D01*
X155350500Y-113183260D01*
X155350500Y-110616740D01*
X155350500Y-110616739D01*
X155749500Y-110616739D01*
X155749500Y-113183260D01*
X155759426Y-113251391D01*
X155810803Y-113356485D01*
X155893514Y-113439196D01*
X155893515Y-113439196D01*
X155893517Y-113439198D01*
X155998607Y-113490573D01*
X156011332Y-113492427D01*
X156066739Y-113500500D01*
X156066740Y-113500500D01*
X156533261Y-113500500D01*
X156555971Y-113497191D01*
X156601393Y-113490573D01*
X156706483Y-113439198D01*
X156789198Y-113356483D01*
X156840573Y-113251393D01*
X156850500Y-113183260D01*
X156850500Y-110616740D01*
X156840573Y-110548607D01*
X156789198Y-110443517D01*
X156789196Y-110443515D01*
X156789196Y-110443514D01*
X156706485Y-110360803D01*
X156601391Y-110309426D01*
X156533261Y-110299500D01*
X156533260Y-110299500D01*
X156066740Y-110299500D01*
X156066739Y-110299500D01*
X155998608Y-110309426D01*
X155893514Y-110360803D01*
X155810803Y-110443514D01*
X155759426Y-110548608D01*
X155749500Y-110616739D01*
X155350500Y-110616739D01*
X155340573Y-110548607D01*
X155289198Y-110443517D01*
X155289196Y-110443515D01*
X155289196Y-110443514D01*
X155206482Y-110360800D01*
X155095040Y-110306320D01*
X155043457Y-110259192D01*
X155025500Y-110194920D01*
X155025500Y-109556899D01*
X155045185Y-109489860D01*
X155061819Y-109469218D01*
X155071412Y-109459625D01*
X155100475Y-109430562D01*
X155149910Y-109344938D01*
X155175500Y-109249435D01*
X155175500Y-109150565D01*
X155149910Y-109055062D01*
X155100475Y-108969438D01*
X155030562Y-108899525D01*
X154944938Y-108850090D01*
X154849435Y-108824500D01*
X154750565Y-108824500D01*
X154655062Y-108850090D01*
X154655060Y-108850091D01*
X154655059Y-108850091D01*
X154569436Y-108899526D01*
X154499526Y-108969436D01*
X154450091Y-109055059D01*
X154450091Y-109055060D01*
X154450090Y-109055062D01*
X154424500Y-109150565D01*
X154424500Y-109249435D01*
X154450090Y-109344938D01*
X154450091Y-109344939D01*
X154450091Y-109344940D01*
X154457982Y-109358608D01*
X154482169Y-109400501D01*
X154499526Y-109430563D01*
X154538181Y-109469218D01*
X154571666Y-109530541D01*
X154574500Y-109556899D01*
X154574500Y-110194920D01*
X154554815Y-110261959D01*
X154504960Y-110306320D01*
X154393517Y-110360800D01*
X154310803Y-110443514D01*
X154259426Y-110548608D01*
X154249500Y-110616739D01*
X154249500Y-113080233D01*
X154229815Y-113147272D01*
X154213185Y-113167909D01*
X154131138Y-113249957D01*
X154055531Y-113325564D01*
X153994208Y-113359048D01*
X153924516Y-113354064D01*
X153868583Y-113312192D01*
X153844166Y-113246728D01*
X153845145Y-113220007D01*
X153850500Y-113183260D01*
X153850500Y-110616740D01*
X153840573Y-110548607D01*
X153789198Y-110443517D01*
X153789196Y-110443515D01*
X153789196Y-110443514D01*
X153706485Y-110360803D01*
X153601391Y-110309426D01*
X153533261Y-110299500D01*
X153533260Y-110299500D01*
X153399500Y-110299500D01*
X153332461Y-110279815D01*
X153286706Y-110227011D01*
X153275500Y-110175500D01*
X153275500Y-105942294D01*
X153295185Y-105875255D01*
X153347989Y-105829500D01*
X153417147Y-105819556D01*
X153480703Y-105848581D01*
X153487181Y-105854613D01*
X153519438Y-105886870D01*
X153605062Y-105936305D01*
X153700565Y-105961895D01*
X153700567Y-105961895D01*
X153755230Y-105961895D01*
X153822269Y-105981580D01*
X153842911Y-105998214D01*
X154713181Y-106868484D01*
X154746666Y-106929807D01*
X154749500Y-106956165D01*
X154749500Y-107864820D01*
X154749500Y-107864822D01*
X154749499Y-107864822D01*
X154758231Y-107908717D01*
X154758234Y-107908724D01*
X154790983Y-107957736D01*
X154791496Y-107958504D01*
X154841278Y-107991767D01*
X154841281Y-107991767D01*
X154841282Y-107991768D01*
X154885177Y-108000500D01*
X154885180Y-108000500D01*
X155914822Y-108000500D01*
X155958717Y-107991768D01*
X155958717Y-107991767D01*
X155958722Y-107991767D01*
X155981110Y-107976807D01*
X156047786Y-107955930D01*
X156115167Y-107974414D01*
X156118867Y-107976792D01*
X156141275Y-107991765D01*
X156141278Y-107991767D01*
X156141282Y-107991768D01*
X156185177Y-108000500D01*
X156185180Y-108000500D01*
X156880233Y-108000500D01*
X156947272Y-108020185D01*
X156967914Y-108036819D01*
X157458829Y-108527734D01*
X157458830Y-108527736D01*
X157522264Y-108591170D01*
X157544729Y-108600475D01*
X157605145Y-108625501D01*
X157605146Y-108625501D01*
X157709289Y-108625501D01*
X157709297Y-108625500D01*
X158580496Y-108625500D01*
X158647535Y-108645185D01*
X158693290Y-108697989D01*
X158703234Y-108767147D01*
X158674209Y-108830703D01*
X158668177Y-108837181D01*
X157646725Y-109858632D01*
X157646725Y-109858634D01*
X157612394Y-109941513D01*
X157612394Y-110045657D01*
X157612395Y-110045666D01*
X157612395Y-114118132D01*
X157592710Y-114185171D01*
X157576077Y-114205812D01*
X157537421Y-114244468D01*
X157487986Y-114330091D01*
X157487986Y-114330092D01*
X157487985Y-114330094D01*
X157462395Y-114425597D01*
X157462395Y-114524467D01*
X157487985Y-114619970D01*
X157487986Y-114619971D01*
X157487986Y-114619972D01*
X157501232Y-114642914D01*
X157537420Y-114705594D01*
X157607333Y-114775507D01*
X157692957Y-114824942D01*
X157757594Y-114842261D01*
X157817253Y-114878624D01*
X157847783Y-114941471D01*
X157849500Y-114962035D01*
X157849500Y-118281517D01*
X157860292Y-118349657D01*
X157864354Y-118375304D01*
X157921950Y-118488342D01*
X157921952Y-118488344D01*
X157921954Y-118488347D01*
X158011652Y-118578045D01*
X158011654Y-118578046D01*
X158011658Y-118578050D01*
X158124694Y-118635645D01*
X158124698Y-118635647D01*
X158218475Y-118650499D01*
X158218481Y-118650500D01*
X159581518Y-118650499D01*
X159581522Y-118650498D01*
X159581666Y-118650487D01*
X159581723Y-118650499D01*
X159586390Y-118650499D01*
X159586390Y-118651479D01*
X159595969Y-118653490D01*
X159610461Y-118651577D01*
X159629477Y-118660527D01*
X159650044Y-118664846D01*
X159660453Y-118675106D01*
X159673679Y-118681331D01*
X159684837Y-118699141D01*
X159699804Y-118713893D01*
X159703013Y-118728151D01*
X159710775Y-118740539D01*
X159710533Y-118761554D01*
X159715149Y-118782057D01*
X159710139Y-118795788D01*
X159709972Y-118810404D01*
X159698407Y-118827952D01*
X159691205Y-118847696D01*
X159678876Y-118857587D01*
X159671524Y-118868744D01*
X159641616Y-118887483D01*
X159531343Y-118936319D01*
X159526038Y-118938523D01*
X158762898Y-119235026D01*
X158757498Y-119236981D01*
X157981465Y-119497822D01*
X157975980Y-119499525D01*
X157188716Y-119724147D01*
X157183158Y-119725595D01*
X156386299Y-119913530D01*
X156380680Y-119914718D01*
X155576023Y-120065543D01*
X155570354Y-120066471D01*
X154759521Y-120179881D01*
X154753817Y-120180544D01*
X153938646Y-120256282D01*
X153932916Y-120256681D01*
X153115091Y-120294593D01*
X153109349Y-120294726D01*
X152290651Y-120294726D01*
X152284909Y-120294593D01*
X151467083Y-120256681D01*
X151461353Y-120256282D01*
X150646182Y-120180544D01*
X150640478Y-120179881D01*
X149829645Y-120066471D01*
X149823976Y-120065543D01*
X149019319Y-119914718D01*
X149013700Y-119913530D01*
X148216841Y-119725595D01*
X148211283Y-119724147D01*
X147424019Y-119499525D01*
X147418534Y-119497822D01*
X146642501Y-119236981D01*
X146637101Y-119235026D01*
X145873961Y-118938523D01*
X145868665Y-118936323D01*
X145759275Y-118887878D01*
X145705949Y-118842733D01*
X145685495Y-118775924D01*
X145704408Y-118708663D01*
X145756682Y-118662304D01*
X145809483Y-118650499D01*
X146881518Y-118650499D01*
X146975304Y-118635646D01*
X147088342Y-118578050D01*
X147178050Y-118488342D01*
X147235646Y-118375304D01*
X147235646Y-118375302D01*
X147235647Y-118375301D01*
X147250499Y-118281524D01*
X147250500Y-118281519D01*
X147250499Y-114918482D01*
X147235646Y-114824696D01*
X147178050Y-114711658D01*
X147178046Y-114711654D01*
X147178045Y-114711652D01*
X147088347Y-114621954D01*
X147088344Y-114621952D01*
X147088342Y-114621950D01*
X147011517Y-114582805D01*
X146975301Y-114564352D01*
X146881524Y-114549500D01*
X145518482Y-114549500D01*
X145437519Y-114562323D01*
X145424696Y-114564354D01*
X145311658Y-114621950D01*
X145311657Y-114621951D01*
X145311652Y-114621954D01*
X145221954Y-114711652D01*
X145221951Y-114711657D01*
X145164352Y-114824698D01*
X145149500Y-114918475D01*
X145149500Y-118281517D01*
X145162001Y-118360450D01*
X145164354Y-118375304D01*
X145165500Y-118377553D01*
X145166068Y-118380580D01*
X145167369Y-118384582D01*
X145166851Y-118384750D01*
X145178395Y-118446221D01*
X145152117Y-118510961D01*
X145095010Y-118551217D01*
X145025205Y-118554209D01*
X144999606Y-118544777D01*
X144382483Y-118236541D01*
X144377406Y-118233857D01*
X143662705Y-117834507D01*
X143657758Y-117831590D01*
X142962314Y-117399574D01*
X142957518Y-117396439D01*
X142282821Y-116932679D01*
X142278165Y-116929317D01*
X141625684Y-116434825D01*
X141621188Y-116431251D01*
X141224334Y-116100473D01*
X140992290Y-115907065D01*
X140987968Y-115903289D01*
X140912163Y-115833911D01*
X140821096Y-115750565D01*
X144124500Y-115750565D01*
X144124500Y-115849435D01*
X144150090Y-115944938D01*
X144199525Y-116030562D01*
X144269438Y-116100475D01*
X144355062Y-116149910D01*
X144450565Y-116175500D01*
X144450567Y-116175500D01*
X144549432Y-116175500D01*
X144549435Y-116175500D01*
X144644938Y-116149910D01*
X144730562Y-116100475D01*
X144800475Y-116030562D01*
X144849910Y-115944938D01*
X144875500Y-115849435D01*
X144875500Y-115750565D01*
X144849910Y-115655062D01*
X144800475Y-115569438D01*
X144730562Y-115499525D01*
X144644938Y-115450090D01*
X144549435Y-115424500D01*
X144450565Y-115424500D01*
X144355062Y-115450090D01*
X144355060Y-115450091D01*
X144355059Y-115450091D01*
X144269436Y-115499526D01*
X144199526Y-115569436D01*
X144150091Y-115655059D01*
X144150091Y-115655060D01*
X144150090Y-115655062D01*
X144124500Y-115750565D01*
X140821096Y-115750565D01*
X140384015Y-115350540D01*
X140379879Y-115346574D01*
X139802169Y-114766451D01*
X139798236Y-114762313D01*
X139405956Y-114330091D01*
X139248016Y-114156069D01*
X139244256Y-114151729D01*
X139238264Y-114144479D01*
X139210729Y-114080264D01*
X139222282Y-114011356D01*
X139269256Y-113959633D01*
X139336736Y-113941517D01*
X139381295Y-113950921D01*
X139408165Y-113962051D01*
X139408169Y-113962051D01*
X139408170Y-113962052D01*
X139601456Y-114000500D01*
X139601459Y-114000500D01*
X139798543Y-114000500D01*
X139932196Y-113973914D01*
X139991835Y-113962051D01*
X140173914Y-113886632D01*
X140337782Y-113777139D01*
X140477139Y-113637782D01*
X140586632Y-113473914D01*
X140662051Y-113291835D01*
X140683648Y-113183259D01*
X140700500Y-113098543D01*
X140700500Y-112901456D01*
X140662052Y-112708170D01*
X140662051Y-112708169D01*
X140662051Y-112708165D01*
X140642334Y-112660563D01*
X140586635Y-112526092D01*
X140586628Y-112526079D01*
X140477139Y-112362218D01*
X140477136Y-112362214D01*
X140337785Y-112222863D01*
X140337781Y-112222860D01*
X140173920Y-112113371D01*
X140173907Y-112113364D01*
X139991839Y-112037950D01*
X139991829Y-112037947D01*
X139798543Y-111999500D01*
X139798541Y-111999500D01*
X139601459Y-111999500D01*
X139601457Y-111999500D01*
X139408170Y-112037947D01*
X139408160Y-112037950D01*
X139226092Y-112113364D01*
X139226079Y-112113371D01*
X139062218Y-112222860D01*
X139062214Y-112222863D01*
X138922863Y-112362214D01*
X138922860Y-112362218D01*
X138813371Y-112526079D01*
X138813364Y-112526092D01*
X138737950Y-112708160D01*
X138737947Y-112708170D01*
X138699500Y-112901456D01*
X138699500Y-113098543D01*
X138700097Y-113104606D01*
X138698540Y-113104759D01*
X138692983Y-113166743D01*
X138650110Y-113221912D01*
X138584216Y-113245145D01*
X138516222Y-113229065D01*
X138478465Y-113195807D01*
X138227364Y-112861594D01*
X138224022Y-112856924D01*
X138171557Y-112779910D01*
X137763075Y-112180296D01*
X137759979Y-112175518D01*
X137330847Y-111478251D01*
X137327953Y-111473294D01*
X137312216Y-111444852D01*
X136931586Y-110756934D01*
X136928928Y-110751855D01*
X136862144Y-110616740D01*
X136567931Y-110021497D01*
X136566840Y-110019232D01*
X136565650Y-110016693D01*
X136553114Y-109986426D01*
X136550016Y-109983328D01*
X136548127Y-109979296D01*
X136548050Y-109979191D01*
X136523817Y-109956966D01*
X136523816Y-109956965D01*
X136521848Y-109955160D01*
X136496712Y-109930024D01*
X136492570Y-109928308D01*
X136490507Y-109926416D01*
X136489265Y-109925277D01*
X136458370Y-109914017D01*
X136455863Y-109913104D01*
X136423020Y-109899500D01*
X136418537Y-109899500D01*
X136414325Y-109897965D01*
X136414322Y-109897964D01*
X136382588Y-109899336D01*
X136381490Y-109899384D01*
X136376136Y-109899500D01*
X132524500Y-109899500D01*
X132515814Y-109896949D01*
X132506853Y-109898238D01*
X132482812Y-109887259D01*
X132457461Y-109879815D01*
X132451533Y-109872974D01*
X132443297Y-109869213D01*
X132429007Y-109846978D01*
X132411706Y-109827011D01*
X132409418Y-109816496D01*
X132405523Y-109810435D01*
X132400500Y-109775500D01*
X132400500Y-109700565D01*
X143033567Y-109700565D01*
X143033567Y-109799435D01*
X143059157Y-109894938D01*
X143108592Y-109980562D01*
X143178505Y-110050475D01*
X143264129Y-110099910D01*
X143359632Y-110125500D01*
X143359634Y-110125500D01*
X143458499Y-110125500D01*
X143458502Y-110125500D01*
X143554005Y-110099910D01*
X143639629Y-110050475D01*
X143709542Y-109980562D01*
X143758977Y-109894938D01*
X143784567Y-109799435D01*
X143784567Y-109700565D01*
X143758977Y-109605062D01*
X143709542Y-109519438D01*
X143639629Y-109449525D01*
X143554005Y-109400090D01*
X143458502Y-109374500D01*
X143359632Y-109374500D01*
X143264129Y-109400090D01*
X143264127Y-109400091D01*
X143264126Y-109400091D01*
X143178503Y-109449526D01*
X143108593Y-109519436D01*
X143059158Y-109605059D01*
X143059158Y-109605060D01*
X143059157Y-109605062D01*
X143033567Y-109700565D01*
X132400500Y-109700565D01*
X132400500Y-108550565D01*
X134224500Y-108550565D01*
X134224500Y-108649435D01*
X134250090Y-108744938D01*
X134299525Y-108830562D01*
X134369438Y-108900475D01*
X134455062Y-108949910D01*
X134550565Y-108975500D01*
X134550567Y-108975500D01*
X134649432Y-108975500D01*
X134649435Y-108975500D01*
X134744938Y-108949910D01*
X134830562Y-108900475D01*
X134900475Y-108830562D01*
X134949910Y-108744938D01*
X134975500Y-108649435D01*
X134975500Y-108550565D01*
X134949910Y-108455062D01*
X134900475Y-108369438D01*
X134830562Y-108299525D01*
X134745761Y-108250565D01*
X140024500Y-108250565D01*
X140024500Y-108349435D01*
X140050090Y-108444938D01*
X140050091Y-108444939D01*
X140050091Y-108444940D01*
X140053065Y-108450091D01*
X140099525Y-108530562D01*
X140169438Y-108600475D01*
X140255062Y-108649910D01*
X140350565Y-108675500D01*
X140350567Y-108675500D01*
X140438986Y-108675500D01*
X140506025Y-108695185D01*
X140551780Y-108747989D01*
X140561724Y-108817147D01*
X140551451Y-108846827D01*
X140553201Y-108847552D01*
X140550090Y-108855060D01*
X140550090Y-108855062D01*
X140524500Y-108950565D01*
X140524500Y-109049435D01*
X140550090Y-109144938D01*
X140550091Y-109144939D01*
X140550091Y-109144940D01*
X140554328Y-109152278D01*
X140599525Y-109230562D01*
X140669438Y-109300475D01*
X140755062Y-109349910D01*
X140850565Y-109375500D01*
X140850567Y-109375500D01*
X140949432Y-109375500D01*
X140949435Y-109375500D01*
X141044938Y-109349910D01*
X141130562Y-109300475D01*
X141200475Y-109230562D01*
X141249910Y-109144938D01*
X141275500Y-109049435D01*
X141275500Y-108950565D01*
X141249910Y-108855062D01*
X141200475Y-108769438D01*
X141130562Y-108699525D01*
X141044938Y-108650090D01*
X140949435Y-108624500D01*
X140861014Y-108624500D01*
X140793975Y-108604815D01*
X140748220Y-108552011D01*
X140738276Y-108482853D01*
X140748548Y-108453172D01*
X140746799Y-108452448D01*
X140749904Y-108444947D01*
X140749910Y-108444938D01*
X140775500Y-108349435D01*
X140775500Y-108250565D01*
X140749910Y-108155062D01*
X140700475Y-108069438D01*
X140630562Y-107999525D01*
X140544938Y-107950090D01*
X140449435Y-107924500D01*
X140350565Y-107924500D01*
X140255062Y-107950090D01*
X140255060Y-107950091D01*
X140255059Y-107950091D01*
X140169436Y-107999526D01*
X140099526Y-108069436D01*
X140050091Y-108155059D01*
X140050091Y-108155060D01*
X140050090Y-108155062D01*
X140024500Y-108250565D01*
X134745761Y-108250565D01*
X134744938Y-108250090D01*
X134649435Y-108224500D01*
X134550565Y-108224500D01*
X134455062Y-108250090D01*
X134455060Y-108250091D01*
X134455059Y-108250091D01*
X134369436Y-108299526D01*
X134299526Y-108369436D01*
X134250091Y-108455059D01*
X134250091Y-108455060D01*
X134250090Y-108455062D01*
X134224500Y-108550565D01*
X132400500Y-108550565D01*
X132400500Y-106650565D01*
X132824500Y-106650565D01*
X132824500Y-106749435D01*
X132850090Y-106844938D01*
X132850091Y-106844939D01*
X132850091Y-106844940D01*
X132856736Y-106856449D01*
X132899525Y-106930562D01*
X132969438Y-107000475D01*
X133055062Y-107049910D01*
X133150565Y-107075500D01*
X133150567Y-107075500D01*
X133249432Y-107075500D01*
X133249435Y-107075500D01*
X133344938Y-107049910D01*
X133430562Y-107000475D01*
X133456244Y-106974793D01*
X133469220Y-106961818D01*
X133530543Y-106928333D01*
X133556900Y-106925500D01*
X134805143Y-106925500D01*
X134805145Y-106925501D01*
X134894855Y-106925501D01*
X134953460Y-106901225D01*
X134977736Y-106891170D01*
X135041170Y-106827736D01*
X135041170Y-106827735D01*
X135058608Y-106810297D01*
X135058609Y-106810294D01*
X135600285Y-106268620D01*
X135661608Y-106235135D01*
X135687966Y-106232301D01*
X135742631Y-106232301D01*
X135742634Y-106232301D01*
X135838137Y-106206711D01*
X135923761Y-106157276D01*
X135993674Y-106087363D01*
X136043109Y-106001739D01*
X136068699Y-105906236D01*
X136068699Y-105807366D01*
X136043109Y-105711863D01*
X135993674Y-105626239D01*
X135923761Y-105556326D01*
X135838137Y-105506891D01*
X135742634Y-105481301D01*
X135643764Y-105481301D01*
X135548261Y-105506891D01*
X135548259Y-105506892D01*
X135548258Y-105506892D01*
X135462635Y-105556327D01*
X135392725Y-105626237D01*
X135343290Y-105711860D01*
X135343290Y-105711861D01*
X135343289Y-105711863D01*
X135317699Y-105807366D01*
X135317699Y-105807368D01*
X135317699Y-105862032D01*
X135298014Y-105929071D01*
X135281379Y-105949713D01*
X134898429Y-106332666D01*
X134792914Y-106438181D01*
X134731591Y-106471666D01*
X134705233Y-106474500D01*
X133556900Y-106474500D01*
X133489861Y-106454815D01*
X133469220Y-106438182D01*
X133430563Y-106399526D01*
X133430562Y-106399525D01*
X133344938Y-106350090D01*
X133249435Y-106324500D01*
X133150565Y-106324500D01*
X133055062Y-106350090D01*
X133055060Y-106350091D01*
X133055059Y-106350091D01*
X132969436Y-106399526D01*
X132899526Y-106469436D01*
X132850091Y-106555059D01*
X132850091Y-106555060D01*
X132850090Y-106555062D01*
X132824500Y-106650565D01*
X132400500Y-106650565D01*
X132400500Y-104147767D01*
X132420185Y-104080728D01*
X132472989Y-104034973D01*
X132542147Y-104025029D01*
X132605703Y-104054054D01*
X132639062Y-104100317D01*
X132641429Y-104106032D01*
X132690864Y-104191656D01*
X132760777Y-104261569D01*
X132846401Y-104311004D01*
X132941904Y-104336594D01*
X132941906Y-104336594D01*
X133040771Y-104336594D01*
X133040774Y-104336594D01*
X133136277Y-104311004D01*
X133221901Y-104261569D01*
X133291814Y-104191656D01*
X133341249Y-104106032D01*
X133366839Y-104010529D01*
X133366839Y-103911659D01*
X133343237Y-103823575D01*
X133344900Y-103753729D01*
X133384062Y-103695866D01*
X133389197Y-103692301D01*
X133389114Y-103692193D01*
X133395555Y-103687249D01*
X133395560Y-103687247D01*
X133465473Y-103617334D01*
X133514908Y-103531710D01*
X133540498Y-103436207D01*
X133540498Y-103337337D01*
X133514908Y-103241834D01*
X133511318Y-103235617D01*
X133494848Y-103167717D01*
X133517700Y-103101691D01*
X133572622Y-103058501D01*
X133618707Y-103049619D01*
X135597286Y-103049619D01*
X135664325Y-103069304D01*
X135684966Y-103085937D01*
X137501039Y-104902011D01*
X139276763Y-106677735D01*
X139340200Y-106741172D01*
X139385933Y-106760114D01*
X139423079Y-106775500D01*
X141505192Y-106775500D01*
X141572231Y-106795185D01*
X141617986Y-106847989D01*
X141627930Y-106917147D01*
X141598905Y-106980703D01*
X141595674Y-106984172D01*
X141594723Y-106985331D01*
X141523538Y-107091866D01*
X141523533Y-107091875D01*
X141474499Y-107210255D01*
X141474497Y-107210261D01*
X141449500Y-107335928D01*
X141449500Y-107335931D01*
X141449500Y-107464069D01*
X141449500Y-107464071D01*
X141449499Y-107464071D01*
X141474497Y-107589738D01*
X141474499Y-107589744D01*
X141523533Y-107708124D01*
X141523538Y-107708133D01*
X141594723Y-107814668D01*
X141594726Y-107814672D01*
X141685327Y-107905273D01*
X141685331Y-107905276D01*
X141791866Y-107976461D01*
X141791872Y-107976464D01*
X141791873Y-107976465D01*
X141910256Y-108025501D01*
X141910260Y-108025501D01*
X141910261Y-108025502D01*
X142035928Y-108050500D01*
X142035931Y-108050500D01*
X142164071Y-108050500D01*
X142264301Y-108030562D01*
X142289744Y-108025501D01*
X142408127Y-107976465D01*
X142514669Y-107905276D01*
X142605276Y-107814669D01*
X142676465Y-107708127D01*
X142725501Y-107589744D01*
X142750500Y-107464069D01*
X142750500Y-107335931D01*
X142750500Y-107335928D01*
X142725502Y-107210260D01*
X142725501Y-107210258D01*
X142725501Y-107210256D01*
X142722982Y-107204176D01*
X142715513Y-107134709D01*
X142746786Y-107072229D01*
X142749803Y-107069101D01*
X143007087Y-106811816D01*
X143068409Y-106778334D01*
X143094767Y-106775500D01*
X143427100Y-106775500D01*
X143427108Y-106775501D01*
X143441542Y-106775501D01*
X143531249Y-106775501D01*
X143531252Y-106775501D01*
X143562715Y-106762468D01*
X143594178Y-106749436D01*
X143601231Y-106746513D01*
X143614133Y-106741170D01*
X143677567Y-106677736D01*
X143677567Y-106677735D01*
X143695005Y-106660297D01*
X143695007Y-106660294D01*
X145304736Y-105050565D01*
X149874500Y-105050565D01*
X149874500Y-105149435D01*
X149900090Y-105244938D01*
X149949525Y-105330562D01*
X150019438Y-105400475D01*
X150105062Y-105449910D01*
X150200565Y-105475500D01*
X150200567Y-105475500D01*
X150299432Y-105475500D01*
X150299435Y-105475500D01*
X150394938Y-105449910D01*
X150480562Y-105400475D01*
X150550475Y-105330562D01*
X150599910Y-105244938D01*
X150625500Y-105149435D01*
X150625500Y-105050565D01*
X150599910Y-104955062D01*
X150550475Y-104869438D01*
X150480562Y-104799525D01*
X150394938Y-104750090D01*
X150299435Y-104724500D01*
X150200565Y-104724500D01*
X150105062Y-104750090D01*
X150105060Y-104750091D01*
X150105059Y-104750091D01*
X150019436Y-104799526D01*
X149949526Y-104869436D01*
X149900091Y-104955059D01*
X149900091Y-104955060D01*
X149900090Y-104955062D01*
X149874500Y-105050565D01*
X145304736Y-105050565D01*
X145327734Y-105027567D01*
X145327736Y-105027567D01*
X145391170Y-104964133D01*
X145405390Y-104929802D01*
X145425501Y-104881251D01*
X145425501Y-104791542D01*
X145425501Y-104781553D01*
X145425500Y-104781539D01*
X145425500Y-103350565D01*
X146534500Y-103350565D01*
X146534500Y-103449435D01*
X146560090Y-103544938D01*
X146560091Y-103544939D01*
X146560091Y-103544940D01*
X146563065Y-103550091D01*
X146609525Y-103630562D01*
X146679438Y-103700475D01*
X146765062Y-103749910D01*
X146860565Y-103775500D01*
X146860567Y-103775500D01*
X146950500Y-103775500D01*
X147017539Y-103795185D01*
X147063294Y-103847989D01*
X147074500Y-103899500D01*
X147074500Y-103949435D01*
X147100090Y-104044938D01*
X147100091Y-104044939D01*
X147100091Y-104044940D01*
X147103064Y-104050089D01*
X147149525Y-104130562D01*
X147219438Y-104200475D01*
X147305062Y-104249910D01*
X147400565Y-104275500D01*
X147400567Y-104275500D01*
X147499432Y-104275500D01*
X147499435Y-104275500D01*
X147594938Y-104249910D01*
X147680562Y-104200475D01*
X147750475Y-104130562D01*
X147799910Y-104044938D01*
X147825500Y-103949435D01*
X147825500Y-103850565D01*
X147799910Y-103755062D01*
X147750475Y-103669438D01*
X147680562Y-103599525D01*
X147594938Y-103550090D01*
X147499435Y-103524500D01*
X147409500Y-103524500D01*
X147342461Y-103504815D01*
X147296706Y-103452011D01*
X147285500Y-103400500D01*
X147285500Y-103350567D01*
X147285500Y-103350565D01*
X147259910Y-103255062D01*
X147210475Y-103169438D01*
X147140562Y-103099525D01*
X147054938Y-103050090D01*
X146959435Y-103024500D01*
X146860565Y-103024500D01*
X146765062Y-103050090D01*
X146765060Y-103050091D01*
X146765059Y-103050091D01*
X146679436Y-103099526D01*
X146609526Y-103169436D01*
X146560091Y-103255059D01*
X146560091Y-103255060D01*
X146560090Y-103255062D01*
X146534500Y-103350565D01*
X145425500Y-103350565D01*
X145425500Y-98820503D01*
X145445185Y-98753464D01*
X145461819Y-98732822D01*
X146723606Y-97471035D01*
X147774500Y-97471035D01*
X147774500Y-97569905D01*
X147800090Y-97665408D01*
X147800091Y-97665409D01*
X147800091Y-97665410D01*
X147813337Y-97688352D01*
X147849525Y-97751032D01*
X147919438Y-97820945D01*
X148005062Y-97870380D01*
X148100565Y-97895970D01*
X148100567Y-97895970D01*
X148199432Y-97895970D01*
X148199435Y-97895970D01*
X148294938Y-97870380D01*
X148380562Y-97820945D01*
X148439688Y-97761819D01*
X148501011Y-97728334D01*
X148527369Y-97725500D01*
X148943100Y-97725500D01*
X148972540Y-97734144D01*
X149002527Y-97740668D01*
X149007542Y-97744422D01*
X149010139Y-97745185D01*
X149030781Y-97761819D01*
X149038181Y-97769219D01*
X149071666Y-97830542D01*
X149074500Y-97856900D01*
X149074500Y-101079556D01*
X149057889Y-101141553D01*
X149050091Y-101155059D01*
X149050091Y-101155060D01*
X149050090Y-101155062D01*
X149024500Y-101250565D01*
X149024500Y-101349435D01*
X149050090Y-101444938D01*
X149050091Y-101444939D01*
X149050091Y-101444940D01*
X149058727Y-101459898D01*
X149099525Y-101530562D01*
X149169438Y-101600475D01*
X149255062Y-101649910D01*
X149350565Y-101675500D01*
X149350567Y-101675500D01*
X149449432Y-101675500D01*
X149449435Y-101675500D01*
X149544938Y-101649910D01*
X149630562Y-101600475D01*
X149700475Y-101530562D01*
X149749910Y-101444938D01*
X149775500Y-101349435D01*
X149775500Y-101250565D01*
X149749910Y-101155062D01*
X149700475Y-101069438D01*
X149630562Y-100999525D01*
X149629971Y-100999184D01*
X149587499Y-100974662D01*
X149539284Y-100924095D01*
X149525500Y-100867276D01*
X149525500Y-97856899D01*
X149545185Y-97789860D01*
X149561819Y-97769218D01*
X149581129Y-97749908D01*
X149600475Y-97730562D01*
X149649910Y-97644938D01*
X149675500Y-97549435D01*
X149675500Y-97450565D01*
X149649910Y-97355062D01*
X149600475Y-97269438D01*
X149530562Y-97199525D01*
X149444938Y-97150090D01*
X149349435Y-97124500D01*
X149250565Y-97124500D01*
X149155062Y-97150090D01*
X149155060Y-97150091D01*
X149155059Y-97150091D01*
X149069436Y-97199526D01*
X149030780Y-97238182D01*
X148969457Y-97271667D01*
X148943100Y-97274500D01*
X148486429Y-97274500D01*
X148419390Y-97254815D01*
X148398748Y-97238181D01*
X148380563Y-97219996D01*
X148380562Y-97219995D01*
X148294938Y-97170560D01*
X148199435Y-97144970D01*
X148100565Y-97144970D01*
X148005062Y-97170560D01*
X148005060Y-97170561D01*
X148005059Y-97170561D01*
X147919436Y-97219996D01*
X147849526Y-97289906D01*
X147800091Y-97375529D01*
X147800091Y-97375530D01*
X147800090Y-97375532D01*
X147774500Y-97471035D01*
X146723606Y-97471035D01*
X150806753Y-93387888D01*
X150868076Y-93354403D01*
X150937768Y-93359387D01*
G37*
%TD.AperFunction*%
%TA.AperFunction,Conductor*%
G36*
X155570381Y-84933532D02*
G01*
X155575996Y-84934451D01*
X156380705Y-85085286D01*
X156386274Y-85086463D01*
X157051563Y-85243368D01*
X157183158Y-85274404D01*
X157188716Y-85275852D01*
X157975980Y-85500474D01*
X157981465Y-85502177D01*
X158757512Y-85763023D01*
X158762883Y-85764967D01*
X159526052Y-86061482D01*
X159531327Y-86063674D01*
X160279906Y-86395191D01*
X160285097Y-86397635D01*
X161017528Y-86763464D01*
X161022581Y-86766135D01*
X161530765Y-87050091D01*
X161737294Y-87165492D01*
X161742241Y-87168409D01*
X162437685Y-87600425D01*
X162442471Y-87603553D01*
X163045028Y-88017727D01*
X163117178Y-88067320D01*
X163121833Y-88070681D01*
X163724729Y-88527595D01*
X163774315Y-88565174D01*
X163778805Y-88568743D01*
X164406435Y-89091873D01*
X164407705Y-89092931D01*
X164412024Y-89096704D01*
X165015985Y-89649460D01*
X165020109Y-89653414D01*
X165597829Y-90233547D01*
X165601764Y-90237687D01*
X165639237Y-90278975D01*
X165655774Y-90297196D01*
X165686252Y-90360068D01*
X165677901Y-90429436D01*
X165633371Y-90483278D01*
X165588144Y-90502148D01*
X165408170Y-90537947D01*
X165408160Y-90537950D01*
X165226092Y-90613364D01*
X165226079Y-90613371D01*
X165062218Y-90722860D01*
X165062214Y-90722863D01*
X164922863Y-90862214D01*
X164922860Y-90862218D01*
X164813371Y-91026079D01*
X164813364Y-91026092D01*
X164737950Y-91208160D01*
X164737947Y-91208170D01*
X164699500Y-91401456D01*
X164699500Y-91401459D01*
X164699500Y-91421750D01*
X164699500Y-91598541D01*
X164699500Y-91598543D01*
X164699499Y-91598543D01*
X164737947Y-91791829D01*
X164737950Y-91791839D01*
X164813364Y-91973907D01*
X164813371Y-91973920D01*
X164922860Y-92137781D01*
X164922863Y-92137785D01*
X165062214Y-92277136D01*
X165062218Y-92277139D01*
X165226079Y-92386628D01*
X165226092Y-92386635D01*
X165377002Y-92449143D01*
X165408165Y-92462051D01*
X165408169Y-92462051D01*
X165408170Y-92462052D01*
X165601456Y-92500500D01*
X165601459Y-92500500D01*
X165798543Y-92500500D01*
X165932196Y-92473914D01*
X165991835Y-92462051D01*
X166173914Y-92386632D01*
X166337782Y-92277139D01*
X166477139Y-92137782D01*
X166586632Y-91973914D01*
X166590131Y-91965468D01*
X166619194Y-91895301D01*
X166662051Y-91791835D01*
X166662052Y-91791827D01*
X166663050Y-91788540D01*
X166664045Y-91787021D01*
X166664382Y-91786208D01*
X166664536Y-91786271D01*
X166701343Y-91730098D01*
X166765153Y-91701637D01*
X166834220Y-91712192D01*
X166880850Y-91750042D01*
X167172634Y-92138404D01*
X167175977Y-92143075D01*
X167341898Y-92386632D01*
X167604474Y-92772070D01*
X167636910Y-92819682D01*
X167640026Y-92824492D01*
X167835898Y-93142749D01*
X168069150Y-93521745D01*
X168072046Y-93526705D01*
X168468408Y-94243056D01*
X168471071Y-94248144D01*
X168832038Y-94978441D01*
X168833159Y-94980769D01*
X168834355Y-94983321D01*
X168846886Y-95013574D01*
X168849982Y-95016670D01*
X168851873Y-95020705D01*
X168851946Y-95020805D01*
X168851948Y-95020807D01*
X168851949Y-95020808D01*
X168878149Y-95044837D01*
X168903288Y-95069976D01*
X168907429Y-95071691D01*
X168910734Y-95074722D01*
X168944136Y-95086895D01*
X168976980Y-95100500D01*
X168981463Y-95100500D01*
X168985675Y-95102035D01*
X168985677Y-95102034D01*
X168985678Y-95102035D01*
X169010908Y-95100944D01*
X169018509Y-95100615D01*
X169023864Y-95100500D01*
X173519862Y-95100500D01*
X173586901Y-95120185D01*
X173632656Y-95172989D01*
X173643862Y-95224500D01*
X173643862Y-97525500D01*
X173624177Y-97592539D01*
X173571373Y-97638294D01*
X173519862Y-97649500D01*
X167204478Y-97649500D01*
X167130787Y-97680024D01*
X167074386Y-97736425D01*
X167043862Y-97810116D01*
X167043862Y-106889883D01*
X167046253Y-106895655D01*
X167074386Y-106963574D01*
X167130788Y-107019976D01*
X167204480Y-107050500D01*
X173519862Y-107050500D01*
X173586901Y-107070185D01*
X173632656Y-107122989D01*
X173643862Y-107174500D01*
X173643862Y-109775500D01*
X173624177Y-109842539D01*
X173571373Y-109888294D01*
X173519862Y-109899500D01*
X169021193Y-109899500D01*
X168985675Y-109897965D01*
X168981463Y-109899500D01*
X168976980Y-109899500D01*
X168946602Y-109912082D01*
X168941614Y-109914023D01*
X168910729Y-109925279D01*
X168910249Y-109925570D01*
X168910250Y-109925571D01*
X168904860Y-109928844D01*
X168903764Y-109929705D01*
X168903289Y-109930022D01*
X168880045Y-109953265D01*
X168876183Y-109956964D01*
X168851949Y-109979190D01*
X168851613Y-109979650D01*
X168851610Y-109979653D01*
X168847888Y-109984732D01*
X168847204Y-109985948D01*
X168846887Y-109986421D01*
X168835432Y-110014076D01*
X168832034Y-110021565D01*
X168471071Y-110751855D01*
X168468408Y-110756943D01*
X168072046Y-111473294D01*
X168069150Y-111478254D01*
X167640033Y-112175497D01*
X167636910Y-112180317D01*
X167175977Y-112856924D01*
X167172634Y-112861595D01*
X166880850Y-113249957D01*
X166824844Y-113291730D01*
X166755143Y-113296593D01*
X166693879Y-113263001D01*
X166664431Y-113213771D01*
X166664382Y-113213792D01*
X166664242Y-113213454D01*
X166663051Y-113211463D01*
X166662049Y-113208160D01*
X166586635Y-113026092D01*
X166586628Y-113026079D01*
X166477139Y-112862218D01*
X166477136Y-112862214D01*
X166337785Y-112722863D01*
X166337781Y-112722860D01*
X166173920Y-112613371D01*
X166173907Y-112613364D01*
X165991839Y-112537950D01*
X165991829Y-112537947D01*
X165798543Y-112499500D01*
X165798541Y-112499500D01*
X165601459Y-112499500D01*
X165601457Y-112499500D01*
X165408170Y-112537947D01*
X165408160Y-112537950D01*
X165226092Y-112613364D01*
X165226079Y-112613371D01*
X165062218Y-112722860D01*
X165062214Y-112722863D01*
X164922863Y-112862214D01*
X164922860Y-112862218D01*
X164813371Y-113026079D01*
X164813364Y-113026092D01*
X164737950Y-113208160D01*
X164737947Y-113208170D01*
X164699500Y-113401456D01*
X164699500Y-113401459D01*
X164699500Y-113421750D01*
X164699500Y-113598541D01*
X164699500Y-113598543D01*
X164699499Y-113598543D01*
X164737947Y-113791829D01*
X164737950Y-113791839D01*
X164813364Y-113973907D01*
X164813371Y-113973920D01*
X164922860Y-114137781D01*
X164922863Y-114137785D01*
X165062214Y-114277136D01*
X165062218Y-114277139D01*
X165226079Y-114386628D01*
X165226092Y-114386635D01*
X165320161Y-114425599D01*
X165408165Y-114462051D01*
X165588143Y-114497851D01*
X165594470Y-114501160D01*
X165601612Y-114501325D01*
X165625024Y-114517143D01*
X165650054Y-114530236D01*
X165653587Y-114536441D01*
X165659507Y-114540441D01*
X165670649Y-114566404D01*
X165684628Y-114590951D01*
X165684245Y-114598082D01*
X165687063Y-114604647D01*
X165682400Y-114632511D01*
X165680889Y-114660721D01*
X165676431Y-114668190D01*
X165675533Y-114673558D01*
X165655774Y-114702803D01*
X165601776Y-114762300D01*
X165597818Y-114766463D01*
X165020120Y-115346574D01*
X165015974Y-115350549D01*
X164412031Y-115903289D01*
X164407705Y-115907068D01*
X163778811Y-116431251D01*
X163774315Y-116434825D01*
X163121834Y-116929317D01*
X163117178Y-116932679D01*
X162442493Y-117396431D01*
X162437685Y-117399574D01*
X161742241Y-117831590D01*
X161737294Y-117834507D01*
X161022593Y-118233857D01*
X161017516Y-118236541D01*
X160285103Y-118602361D01*
X160279906Y-118604808D01*
X159957957Y-118747387D01*
X159888689Y-118756535D01*
X159825471Y-118726781D01*
X159788375Y-118667573D01*
X159789178Y-118597708D01*
X159820063Y-118546328D01*
X159878050Y-118488342D01*
X159935646Y-118375304D01*
X159935646Y-118375302D01*
X159935647Y-118375301D01*
X159950499Y-118281524D01*
X159950500Y-118281519D01*
X159950499Y-114918482D01*
X159950499Y-114918481D01*
X159950499Y-114918477D01*
X159941528Y-114861836D01*
X159941527Y-114861835D01*
X159939742Y-114850565D01*
X163324500Y-114850565D01*
X163324500Y-114949435D01*
X163350090Y-115044938D01*
X163399525Y-115130562D01*
X163469438Y-115200475D01*
X163555062Y-115249910D01*
X163650565Y-115275500D01*
X163650567Y-115275500D01*
X163749432Y-115275500D01*
X163749435Y-115275500D01*
X163844938Y-115249910D01*
X163930562Y-115200475D01*
X164000475Y-115130562D01*
X164049910Y-115044938D01*
X164075500Y-114949435D01*
X164075500Y-114850565D01*
X164049910Y-114755062D01*
X164000475Y-114669438D01*
X163930562Y-114599525D01*
X163844938Y-114550090D01*
X163749435Y-114524500D01*
X163650565Y-114524500D01*
X163555062Y-114550090D01*
X163555060Y-114550091D01*
X163555059Y-114550091D01*
X163469436Y-114599526D01*
X163399526Y-114669436D01*
X163350091Y-114755059D01*
X163350091Y-114755060D01*
X163350090Y-114755062D01*
X163324500Y-114850565D01*
X159939742Y-114850565D01*
X159935646Y-114824696D01*
X159878050Y-114711658D01*
X159878046Y-114711654D01*
X159878045Y-114711652D01*
X159788347Y-114621954D01*
X159788344Y-114621952D01*
X159788342Y-114621950D01*
X159711517Y-114582805D01*
X159675301Y-114564352D01*
X159581524Y-114549500D01*
X158337395Y-114549500D01*
X158270356Y-114529815D01*
X158224601Y-114477011D01*
X158215149Y-114433565D01*
X158214456Y-114433657D01*
X158213395Y-114425599D01*
X158213395Y-114425597D01*
X158187805Y-114330094D01*
X158138370Y-114244470D01*
X158138368Y-114244468D01*
X158099713Y-114205812D01*
X158066228Y-114144489D01*
X158063395Y-114118132D01*
X158063395Y-110131136D01*
X158083080Y-110064097D01*
X158099714Y-110043455D01*
X159070898Y-109072271D01*
X159319070Y-108824099D01*
X159380392Y-108790615D01*
X159450084Y-108795599D01*
X159506017Y-108837471D01*
X159530434Y-108902935D01*
X159530750Y-108911781D01*
X159530750Y-108943185D01*
X159556340Y-109038688D01*
X159556341Y-109038689D01*
X159556341Y-109038690D01*
X159565893Y-109055235D01*
X159605775Y-109124312D01*
X159675688Y-109194225D01*
X159761312Y-109243660D01*
X159856815Y-109269250D01*
X159856817Y-109269250D01*
X159955682Y-109269250D01*
X159955685Y-109269250D01*
X160051188Y-109243660D01*
X160136812Y-109194225D01*
X160156141Y-109174895D01*
X160175470Y-109155568D01*
X160236793Y-109122083D01*
X160263150Y-109119250D01*
X163548983Y-109119250D01*
X163578423Y-109127894D01*
X163608410Y-109134418D01*
X163613425Y-109138172D01*
X163616022Y-109138935D01*
X163636663Y-109155568D01*
X163768914Y-109287819D01*
X163802399Y-109349142D01*
X163797415Y-109418834D01*
X163755543Y-109474767D01*
X163690079Y-109499184D01*
X163681233Y-109499500D01*
X162735178Y-109499500D01*
X162691282Y-109508231D01*
X162691275Y-109508234D01*
X162641496Y-109541495D01*
X162641495Y-109541496D01*
X162608234Y-109591275D01*
X162608231Y-109591282D01*
X162599500Y-109635177D01*
X162599500Y-109635180D01*
X162599500Y-111164820D01*
X162599500Y-111164822D01*
X162599499Y-111164822D01*
X162608231Y-111208717D01*
X162608234Y-111208724D01*
X162639776Y-111255930D01*
X162641496Y-111258504D01*
X162691278Y-111291767D01*
X162691281Y-111291767D01*
X162691282Y-111291768D01*
X162728305Y-111299133D01*
X162790216Y-111331518D01*
X162824790Y-111392234D01*
X162824049Y-111442309D01*
X162825561Y-111442509D01*
X162824500Y-111450563D01*
X162824500Y-111450565D01*
X162824500Y-111549435D01*
X162850090Y-111644938D01*
X162899525Y-111730562D01*
X162969438Y-111800475D01*
X163055062Y-111849910D01*
X163150565Y-111875500D01*
X163150567Y-111875500D01*
X163249432Y-111875500D01*
X163249435Y-111875500D01*
X163344938Y-111849910D01*
X163430562Y-111800475D01*
X163500475Y-111730562D01*
X163549910Y-111644938D01*
X163575500Y-111549435D01*
X163575500Y-111450565D01*
X163575499Y-111450563D01*
X163574439Y-111442509D01*
X163577457Y-111442111D01*
X163578782Y-111386731D01*
X163617950Y-111328873D01*
X163670301Y-111303384D01*
X163683438Y-111300500D01*
X163764820Y-111300500D01*
X163808722Y-111291767D01*
X163850563Y-111263809D01*
X163873411Y-111258794D01*
X163885869Y-111259661D01*
X163897786Y-111255930D01*
X163920065Y-111262041D01*
X163943112Y-111263646D01*
X163953122Y-111271109D01*
X163965167Y-111274414D01*
X163968867Y-111276792D01*
X163991275Y-111291765D01*
X163991278Y-111291767D01*
X163991282Y-111291768D01*
X164035177Y-111300500D01*
X164035180Y-111300500D01*
X165064822Y-111300500D01*
X165108717Y-111291768D01*
X165108717Y-111291767D01*
X165108722Y-111291767D01*
X165158504Y-111258504D01*
X165191767Y-111208722D01*
X165200500Y-111164820D01*
X165200500Y-109635180D01*
X165200500Y-109635177D01*
X165191768Y-109591282D01*
X165191767Y-109591281D01*
X165191767Y-109591278D01*
X165158504Y-109541496D01*
X165114764Y-109512270D01*
X165108724Y-109508234D01*
X165108717Y-109508231D01*
X165064822Y-109499500D01*
X165064820Y-109499500D01*
X164669768Y-109499500D01*
X164602729Y-109479815D01*
X164582087Y-109463181D01*
X164268814Y-109149908D01*
X163902360Y-108783455D01*
X163902359Y-108783453D01*
X163869471Y-108750565D01*
X165624500Y-108750565D01*
X165624500Y-108849435D01*
X165650090Y-108944938D01*
X165650091Y-108944939D01*
X165650091Y-108944940D01*
X165653339Y-108950565D01*
X165699525Y-109030562D01*
X165769438Y-109100475D01*
X165855062Y-109149910D01*
X165950565Y-109175500D01*
X165950567Y-109175500D01*
X166049432Y-109175500D01*
X166049435Y-109175500D01*
X166144938Y-109149910D01*
X166230562Y-109100475D01*
X166300475Y-109030562D01*
X166349910Y-108944938D01*
X166375500Y-108849435D01*
X166375500Y-108750565D01*
X166349910Y-108655062D01*
X166300475Y-108569438D01*
X166230562Y-108499525D01*
X166144938Y-108450090D01*
X166049435Y-108424500D01*
X165950565Y-108424500D01*
X165855062Y-108450090D01*
X165855060Y-108450091D01*
X165855059Y-108450091D01*
X165769436Y-108499526D01*
X165699526Y-108569436D01*
X165650091Y-108655059D01*
X165650091Y-108655060D01*
X165650090Y-108655062D01*
X165624500Y-108750565D01*
X163869471Y-108750565D01*
X163821487Y-108702581D01*
X163821486Y-108702580D01*
X163787588Y-108688539D01*
X163738605Y-108668249D01*
X163648895Y-108668249D01*
X163634461Y-108668249D01*
X163634453Y-108668250D01*
X160263150Y-108668250D01*
X160196111Y-108648565D01*
X160175470Y-108631932D01*
X160136813Y-108593276D01*
X160136812Y-108593275D01*
X160051188Y-108543840D01*
X159955685Y-108518250D01*
X159924282Y-108518250D01*
X159857243Y-108498565D01*
X159811488Y-108445761D01*
X159801544Y-108376603D01*
X159830569Y-108313047D01*
X159836601Y-108306569D01*
X160051351Y-108091819D01*
X160112674Y-108058334D01*
X160139032Y-108055500D01*
X160907521Y-108055500D01*
X160907523Y-108055501D01*
X160997233Y-108055501D01*
X161057439Y-108030562D01*
X161080114Y-108021170D01*
X161143548Y-107957736D01*
X161143548Y-107957735D01*
X161160986Y-107940297D01*
X161160988Y-107940294D01*
X162260294Y-106840988D01*
X162260297Y-106840986D01*
X162277735Y-106823548D01*
X162277736Y-106823548D01*
X162341170Y-106760114D01*
X162341170Y-106760112D01*
X162341172Y-106760111D01*
X162358335Y-106718673D01*
X162375500Y-106677233D01*
X162375500Y-102358626D01*
X162375501Y-102358624D01*
X162375501Y-102268915D01*
X162355390Y-102220364D01*
X162341170Y-102186033D01*
X162277736Y-102122599D01*
X162270671Y-102115534D01*
X162270664Y-102115528D01*
X161755701Y-101600565D01*
X165124500Y-101600565D01*
X165124500Y-101699435D01*
X165150090Y-101794938D01*
X165150091Y-101794939D01*
X165150091Y-101794940D01*
X165154756Y-101803020D01*
X165199525Y-101880562D01*
X165269438Y-101950475D01*
X165355062Y-101999910D01*
X165440383Y-102022771D01*
X165464159Y-102037264D01*
X165489492Y-102048833D01*
X165493582Y-102055198D01*
X165500043Y-102059136D01*
X165512210Y-102084183D01*
X165527266Y-102107611D01*
X165528811Y-102118358D01*
X165530572Y-102121983D01*
X165532289Y-102142546D01*
X165532289Y-102325099D01*
X165512604Y-102392138D01*
X165495970Y-102412780D01*
X165482315Y-102426434D01*
X165432880Y-102512057D01*
X165432880Y-102512058D01*
X165432879Y-102512060D01*
X165407289Y-102607563D01*
X165407289Y-102706433D01*
X165432879Y-102801936D01*
X165482314Y-102887560D01*
X165552227Y-102957473D01*
X165637851Y-103006908D01*
X165733354Y-103032498D01*
X165733356Y-103032498D01*
X165832221Y-103032498D01*
X165832224Y-103032498D01*
X165927727Y-103006908D01*
X166013351Y-102957473D01*
X166083264Y-102887560D01*
X166132699Y-102801936D01*
X166158289Y-102706433D01*
X166158289Y-102607563D01*
X166132699Y-102512060D01*
X166083264Y-102426436D01*
X166069608Y-102412780D01*
X166036123Y-102351457D01*
X166033289Y-102325099D01*
X166033289Y-101882962D01*
X166033288Y-101882959D01*
X166024733Y-101862305D01*
X165995153Y-101790892D01*
X165924686Y-101720425D01*
X165911819Y-101707558D01*
X165878334Y-101646235D01*
X165875500Y-101619877D01*
X165875500Y-101600567D01*
X165875500Y-101600565D01*
X165849910Y-101505062D01*
X165800475Y-101419438D01*
X165730562Y-101349525D01*
X165644938Y-101300090D01*
X165549435Y-101274500D01*
X165450565Y-101274500D01*
X165355062Y-101300090D01*
X165355060Y-101300091D01*
X165355059Y-101300091D01*
X165269436Y-101349526D01*
X165199526Y-101419436D01*
X165150091Y-101505059D01*
X165150091Y-101505060D01*
X165150090Y-101505062D01*
X165124500Y-101600565D01*
X161755701Y-101600565D01*
X158205701Y-98050565D01*
X159124500Y-98050565D01*
X159124500Y-98149435D01*
X159150090Y-98244938D01*
X159199525Y-98330562D01*
X159269438Y-98400475D01*
X159355062Y-98449910D01*
X159450565Y-98475500D01*
X159450567Y-98475500D01*
X159549432Y-98475500D01*
X159549435Y-98475500D01*
X159644938Y-98449910D01*
X159730562Y-98400475D01*
X159800475Y-98330562D01*
X159849910Y-98244938D01*
X159875500Y-98149435D01*
X159875500Y-98050565D01*
X159849910Y-97955062D01*
X159800475Y-97869438D01*
X159730562Y-97799525D01*
X159644938Y-97750090D01*
X159549435Y-97724500D01*
X159450565Y-97724500D01*
X159355062Y-97750090D01*
X159355060Y-97750091D01*
X159355059Y-97750091D01*
X159269436Y-97799526D01*
X159199526Y-97869436D01*
X159150091Y-97955059D01*
X159150091Y-97955060D01*
X159150090Y-97955062D01*
X159124500Y-98050565D01*
X158205701Y-98050565D01*
X157538014Y-97382878D01*
X157515510Y-97360374D01*
X157515510Y-97360373D01*
X157452076Y-97296939D01*
X157420865Y-97284011D01*
X157404876Y-97277388D01*
X157404875Y-97277387D01*
X157369195Y-97262608D01*
X157279485Y-97262608D01*
X157265051Y-97262608D01*
X157265043Y-97262609D01*
X156594767Y-97262609D01*
X156565326Y-97253964D01*
X156535340Y-97247441D01*
X156530324Y-97243686D01*
X156527728Y-97242924D01*
X156507086Y-97226290D01*
X156362618Y-97081822D01*
X156329133Y-97020499D01*
X156334117Y-96950807D01*
X156375989Y-96894874D01*
X156418203Y-96874367D01*
X156494939Y-96853806D01*
X156580563Y-96804371D01*
X156650476Y-96734458D01*
X156699911Y-96648834D01*
X156725501Y-96553331D01*
X156725501Y-96459737D01*
X156745186Y-96392698D01*
X156797990Y-96346943D01*
X156867148Y-96336999D01*
X156873693Y-96338120D01*
X156935929Y-96350500D01*
X156935931Y-96350500D01*
X157064071Y-96350500D01*
X157162582Y-96330904D01*
X157189744Y-96325501D01*
X157259196Y-96296732D01*
X157328664Y-96289264D01*
X157391144Y-96320539D01*
X157426796Y-96380628D01*
X157426424Y-96443382D01*
X157424500Y-96450560D01*
X157424500Y-96450565D01*
X157424500Y-96549435D01*
X157450090Y-96644938D01*
X157450091Y-96644939D01*
X157450091Y-96644940D01*
X157455041Y-96653514D01*
X157499525Y-96730562D01*
X157569438Y-96800475D01*
X157655062Y-96849910D01*
X157750565Y-96875500D01*
X157750567Y-96875500D01*
X157849432Y-96875500D01*
X157849435Y-96875500D01*
X157944938Y-96849910D01*
X158030562Y-96800475D01*
X158100475Y-96730562D01*
X158149910Y-96644938D01*
X158175500Y-96549435D01*
X158175500Y-96450565D01*
X158149910Y-96355062D01*
X158100475Y-96269438D01*
X158030562Y-96199525D01*
X157944938Y-96150090D01*
X157849435Y-96124500D01*
X157750565Y-96124500D01*
X157750560Y-96124500D01*
X157743382Y-96126424D01*
X157737448Y-96126282D01*
X157732113Y-96128888D01*
X157702915Y-96125458D01*
X157673532Y-96124758D01*
X157668616Y-96121430D01*
X157662720Y-96120738D01*
X157640010Y-96102067D01*
X157615672Y-96085593D01*
X157613335Y-96080137D01*
X157608749Y-96076366D01*
X157599740Y-96048385D01*
X157588170Y-96021364D01*
X157588685Y-96014050D01*
X157587336Y-96009859D01*
X157589989Y-95995552D01*
X157591452Y-95974806D01*
X157593572Y-95966827D01*
X157625501Y-95889744D01*
X157650500Y-95764069D01*
X157650500Y-95752573D01*
X157654658Y-95736925D01*
X157664720Y-95720338D01*
X157670185Y-95701728D01*
X157682466Y-95691085D01*
X157690898Y-95677188D01*
X157708330Y-95668674D01*
X157722989Y-95655973D01*
X157739075Y-95653660D01*
X157753681Y-95646527D01*
X157772946Y-95648789D01*
X157792147Y-95646029D01*
X157806932Y-95652781D01*
X157823074Y-95654677D01*
X157838057Y-95666995D01*
X157855703Y-95675054D01*
X157862170Y-95681076D01*
X158283781Y-96102686D01*
X158283780Y-96102686D01*
X158550137Y-96369042D01*
X158583622Y-96430365D01*
X158578638Y-96500056D01*
X158577019Y-96504171D01*
X158574500Y-96510252D01*
X158574497Y-96510261D01*
X158549500Y-96635928D01*
X158549500Y-96635931D01*
X158549500Y-96764069D01*
X158549500Y-96764071D01*
X158549499Y-96764071D01*
X158574497Y-96889738D01*
X158574499Y-96889744D01*
X158623533Y-97008124D01*
X158623538Y-97008133D01*
X158694723Y-97114668D01*
X158694726Y-97114672D01*
X158785327Y-97205273D01*
X158785331Y-97205276D01*
X158891866Y-97276461D01*
X158891875Y-97276466D01*
X158914064Y-97285657D01*
X159010256Y-97325501D01*
X159010260Y-97325501D01*
X159010261Y-97325502D01*
X159135928Y-97350500D01*
X159135931Y-97350500D01*
X159264071Y-97350500D01*
X159348615Y-97333682D01*
X159389744Y-97325501D01*
X159508127Y-97276465D01*
X159614669Y-97205276D01*
X159705276Y-97114669D01*
X159776465Y-97008127D01*
X159825501Y-96889744D01*
X159834808Y-96842958D01*
X159850500Y-96764071D01*
X159850500Y-96635928D01*
X159825502Y-96510261D01*
X159825501Y-96510260D01*
X159825501Y-96510256D01*
X159776465Y-96391873D01*
X159776464Y-96391872D01*
X159776461Y-96391866D01*
X159705276Y-96285331D01*
X159705273Y-96285327D01*
X159614672Y-96194726D01*
X159614668Y-96194723D01*
X159508133Y-96123538D01*
X159508124Y-96123533D01*
X159389744Y-96074499D01*
X159389738Y-96074497D01*
X159264071Y-96049500D01*
X159264069Y-96049500D01*
X159135931Y-96049500D01*
X159135929Y-96049500D01*
X159010261Y-96074497D01*
X159010252Y-96074500D01*
X159004171Y-96077019D01*
X158934701Y-96084485D01*
X158872223Y-96053207D01*
X158869042Y-96050137D01*
X157608610Y-94789705D01*
X157591170Y-94772264D01*
X157527736Y-94708830D01*
X157527735Y-94708829D01*
X157503457Y-94698772D01*
X157503457Y-94698771D01*
X157444858Y-94674500D01*
X157444856Y-94674499D01*
X157444855Y-94674499D01*
X157355145Y-94674499D01*
X157340711Y-94674499D01*
X157340703Y-94674500D01*
X157176794Y-94674500D01*
X157109755Y-94654815D01*
X157064000Y-94602011D01*
X157054056Y-94532853D01*
X157057019Y-94518407D01*
X157061824Y-94500473D01*
X157075500Y-94449435D01*
X157075500Y-94350565D01*
X157057019Y-94281593D01*
X157058682Y-94211743D01*
X157097845Y-94153881D01*
X157162073Y-94126377D01*
X157176794Y-94125500D01*
X157955233Y-94125500D01*
X157984673Y-94134144D01*
X158014660Y-94140668D01*
X158019675Y-94144422D01*
X158022272Y-94145185D01*
X158042914Y-94161819D01*
X158150137Y-94269042D01*
X158183622Y-94330365D01*
X158178638Y-94400057D01*
X158177019Y-94404171D01*
X158174500Y-94410252D01*
X158174497Y-94410261D01*
X158149500Y-94535928D01*
X158149500Y-94535931D01*
X158149500Y-94664069D01*
X158149500Y-94664071D01*
X158149499Y-94664071D01*
X158174497Y-94789738D01*
X158174499Y-94789744D01*
X158223533Y-94908124D01*
X158223537Y-94908131D01*
X158294723Y-95014668D01*
X158294726Y-95014672D01*
X158385327Y-95105273D01*
X158385331Y-95105276D01*
X158491866Y-95176461D01*
X158491872Y-95176464D01*
X158491873Y-95176465D01*
X158610256Y-95225501D01*
X158610260Y-95225501D01*
X158610261Y-95225502D01*
X158735928Y-95250500D01*
X158735931Y-95250500D01*
X158864071Y-95250500D01*
X158948615Y-95233682D01*
X158989744Y-95225501D01*
X159108127Y-95176465D01*
X159214669Y-95105276D01*
X159269380Y-95050565D01*
X161124500Y-95050565D01*
X161124500Y-95149435D01*
X161150090Y-95244938D01*
X161199525Y-95330562D01*
X161269438Y-95400475D01*
X161355062Y-95449910D01*
X161450565Y-95475500D01*
X161450567Y-95475500D01*
X161549432Y-95475500D01*
X161549435Y-95475500D01*
X161644938Y-95449910D01*
X161730562Y-95400475D01*
X161800475Y-95330562D01*
X161849910Y-95244938D01*
X161875500Y-95149435D01*
X161875500Y-95050565D01*
X161849910Y-94955062D01*
X161800475Y-94869438D01*
X161730562Y-94799525D01*
X161644938Y-94750090D01*
X161549435Y-94724500D01*
X161450565Y-94724500D01*
X161355062Y-94750090D01*
X161355060Y-94750091D01*
X161355059Y-94750091D01*
X161269436Y-94799526D01*
X161199526Y-94869436D01*
X161150091Y-94955059D01*
X161150091Y-94955060D01*
X161150090Y-94955062D01*
X161124500Y-95050565D01*
X159269380Y-95050565D01*
X159305276Y-95014669D01*
X159315395Y-94999525D01*
X159332753Y-94973548D01*
X159332753Y-94973547D01*
X159376463Y-94908131D01*
X159376466Y-94908124D01*
X159390261Y-94874820D01*
X159425501Y-94789744D01*
X159441596Y-94708830D01*
X159450500Y-94664071D01*
X159450500Y-94535928D01*
X159425502Y-94410261D01*
X159425501Y-94410260D01*
X159425501Y-94410256D01*
X159376465Y-94291873D01*
X159376464Y-94291872D01*
X159376461Y-94291866D01*
X159305276Y-94185331D01*
X159305273Y-94185327D01*
X159214672Y-94094726D01*
X159214668Y-94094723D01*
X159108133Y-94023538D01*
X159108124Y-94023533D01*
X158989744Y-93974499D01*
X158989738Y-93974497D01*
X158864071Y-93949500D01*
X158864069Y-93949500D01*
X158735931Y-93949500D01*
X158735929Y-93949500D01*
X158610261Y-93974497D01*
X158610252Y-93974500D01*
X158604171Y-93977019D01*
X158584296Y-93979154D01*
X158565569Y-93986140D01*
X158550269Y-93982811D01*
X158534701Y-93984485D01*
X158516826Y-93975536D01*
X158497296Y-93971288D01*
X158475000Y-93954597D01*
X158472223Y-93953207D01*
X158469042Y-93950137D01*
X158308611Y-93789706D01*
X158308609Y-93789703D01*
X158227735Y-93708829D01*
X158203003Y-93698585D01*
X158195758Y-93695584D01*
X158144855Y-93674499D01*
X158055145Y-93674499D01*
X158040711Y-93674499D01*
X158040703Y-93674500D01*
X156528373Y-93674500D01*
X156498932Y-93665855D01*
X156468946Y-93659332D01*
X156463930Y-93655577D01*
X156461334Y-93654815D01*
X156440692Y-93638181D01*
X156411819Y-93609308D01*
X156378334Y-93547985D01*
X156375500Y-93521627D01*
X156375500Y-93466962D01*
X156375500Y-93466960D01*
X156349910Y-93371457D01*
X156300475Y-93285833D01*
X156230562Y-93215920D01*
X156144938Y-93166485D01*
X156049435Y-93140895D01*
X155950565Y-93140895D01*
X155855062Y-93166485D01*
X155855060Y-93166486D01*
X155855059Y-93166486D01*
X155769436Y-93215921D01*
X155699526Y-93285831D01*
X155650091Y-93371454D01*
X155650091Y-93371455D01*
X155650090Y-93371457D01*
X155624500Y-93466960D01*
X155624500Y-93565830D01*
X155650090Y-93661333D01*
X155677512Y-93708830D01*
X155699526Y-93746958D01*
X155723084Y-93770516D01*
X155756569Y-93831839D01*
X155751585Y-93901531D01*
X155723086Y-93945877D01*
X155699525Y-93969438D01*
X155650091Y-94055059D01*
X155650091Y-94055060D01*
X155650090Y-94055062D01*
X155624500Y-94150565D01*
X155624500Y-94249435D01*
X155650090Y-94344938D01*
X155699525Y-94430562D01*
X155769438Y-94500475D01*
X155855062Y-94549910D01*
X155876988Y-94555785D01*
X155932577Y-94587879D01*
X156372432Y-95027734D01*
X156372433Y-95027736D01*
X156435867Y-95091170D01*
X156453783Y-95098591D01*
X156462137Y-95102051D01*
X156476919Y-95114568D01*
X156485913Y-95128219D01*
X156498646Y-95138480D01*
X156504742Y-95156795D01*
X156515361Y-95172912D01*
X156515547Y-95189260D01*
X156520711Y-95204774D01*
X156515937Y-95223475D01*
X156516158Y-95242777D01*
X156507475Y-95256631D01*
X156503432Y-95272473D01*
X156498014Y-95280203D01*
X156498108Y-95280266D01*
X156423538Y-95391866D01*
X156423533Y-95391875D01*
X156421015Y-95397956D01*
X156408471Y-95413519D01*
X156400168Y-95431703D01*
X156386995Y-95440168D01*
X156377172Y-95452358D01*
X156358206Y-95458669D01*
X156341390Y-95469477D01*
X156313822Y-95473440D01*
X156310877Y-95474421D01*
X156306455Y-95474500D01*
X156264845Y-95474500D01*
X156197806Y-95454815D01*
X156177164Y-95438181D01*
X154773896Y-94034913D01*
X154740411Y-93973590D01*
X154737577Y-93947232D01*
X154737577Y-93880413D01*
X154754191Y-93818411D01*
X154755081Y-93816870D01*
X154769967Y-93791087D01*
X154795557Y-93695584D01*
X154795557Y-93596714D01*
X154769967Y-93501211D01*
X154720532Y-93415587D01*
X154650619Y-93345674D01*
X154598857Y-93315789D01*
X154550644Y-93265223D01*
X154537422Y-93196616D01*
X154563390Y-93131752D01*
X154573171Y-93120731D01*
X155474558Y-92219345D01*
X155535881Y-92185860D01*
X155562239Y-92183026D01*
X155956938Y-92183026D01*
X156023977Y-92202711D01*
X156044618Y-92219344D01*
X156075183Y-92249908D01*
X156083276Y-92258001D01*
X156168900Y-92307436D01*
X156264403Y-92333026D01*
X156264405Y-92333026D01*
X156363270Y-92333026D01*
X156363273Y-92333026D01*
X156458776Y-92307436D01*
X156544400Y-92258001D01*
X156614313Y-92188088D01*
X156663748Y-92102464D01*
X156689338Y-92006961D01*
X156689338Y-91908091D01*
X156684254Y-91889117D01*
X156684849Y-91864124D01*
X156681291Y-91839379D01*
X156685666Y-91829798D01*
X156685917Y-91819270D01*
X156699929Y-91798565D01*
X156710316Y-91775823D01*
X156719175Y-91770129D01*
X156725079Y-91761407D01*
X156748062Y-91751565D01*
X156769094Y-91738049D01*
X156784949Y-91735769D01*
X156789308Y-91733903D01*
X156804029Y-91733026D01*
X156862759Y-91733026D01*
X156929798Y-91752711D01*
X156950440Y-91769345D01*
X156988181Y-91807086D01*
X157021666Y-91868409D01*
X157024500Y-91894767D01*
X157024500Y-91949435D01*
X157050090Y-92044938D01*
X157050091Y-92044939D01*
X157050091Y-92044940D01*
X157060120Y-92062311D01*
X157099525Y-92130562D01*
X157169438Y-92200475D01*
X157255062Y-92249910D01*
X157350565Y-92275500D01*
X157350567Y-92275500D01*
X157449432Y-92275500D01*
X157449435Y-92275500D01*
X157544938Y-92249910D01*
X157630562Y-92200475D01*
X157700475Y-92130562D01*
X157749910Y-92044938D01*
X157775500Y-91949435D01*
X157775500Y-91850565D01*
X157749910Y-91755062D01*
X157700475Y-91669438D01*
X157630562Y-91599525D01*
X157544938Y-91550090D01*
X157449435Y-91524500D01*
X157394767Y-91524500D01*
X157365326Y-91515855D01*
X157335340Y-91509332D01*
X157330324Y-91505577D01*
X157327728Y-91504815D01*
X157307086Y-91488181D01*
X157216137Y-91397232D01*
X157216136Y-91397230D01*
X157165776Y-91346869D01*
X157132292Y-91285546D01*
X157137277Y-91215854D01*
X157165775Y-91171510D01*
X157534717Y-90802569D01*
X157534719Y-90802569D01*
X157598153Y-90739135D01*
X157628669Y-90665462D01*
X157632484Y-90656253D01*
X157632484Y-90566544D01*
X157632484Y-90556555D01*
X157632483Y-90556541D01*
X157632483Y-90049179D01*
X157652168Y-89982140D01*
X157668802Y-89961498D01*
X157930775Y-89699526D01*
X158214831Y-89415470D01*
X158214831Y-89415469D01*
X158215876Y-89414425D01*
X158241558Y-89394718D01*
X158254223Y-89387407D01*
X158324136Y-89317494D01*
X158373571Y-89231870D01*
X158399161Y-89136367D01*
X158399161Y-89037497D01*
X158373571Y-88941994D01*
X158324136Y-88856370D01*
X158254223Y-88786457D01*
X158168599Y-88737022D01*
X158073096Y-88711432D01*
X157974226Y-88711432D01*
X157878723Y-88737022D01*
X157878721Y-88737023D01*
X157878720Y-88737023D01*
X157793097Y-88786458D01*
X157776209Y-88803346D01*
X157714885Y-88836830D01*
X157645194Y-88831844D01*
X157643983Y-88831385D01*
X157634932Y-88827900D01*
X157571030Y-88791007D01*
X157475527Y-88765417D01*
X157472615Y-88765417D01*
X157459826Y-88760494D01*
X157443111Y-88747706D01*
X157416692Y-88732453D01*
X157211834Y-88527595D01*
X157194394Y-88510154D01*
X157130960Y-88446720D01*
X157130959Y-88446719D01*
X157106681Y-88436662D01*
X157106681Y-88436661D01*
X157048082Y-88412390D01*
X157048080Y-88412389D01*
X157048079Y-88412389D01*
X156958369Y-88412389D01*
X156943935Y-88412389D01*
X156943927Y-88412390D01*
X152705380Y-88412390D01*
X152638341Y-88392705D01*
X152592586Y-88339901D01*
X152585607Y-88320490D01*
X152574810Y-88280193D01*
X152525375Y-88194569D01*
X152455462Y-88124656D01*
X152455459Y-88124654D01*
X152452491Y-88122377D01*
X152450617Y-88119811D01*
X152449715Y-88118909D01*
X152449855Y-88118768D01*
X152411287Y-88065950D01*
X152407132Y-87996204D01*
X152441343Y-87935283D01*
X152503060Y-87902529D01*
X152527976Y-87900000D01*
X154875000Y-87900000D01*
X154875000Y-86850565D01*
X158824500Y-86850565D01*
X158824500Y-86949435D01*
X158850090Y-87044938D01*
X158850091Y-87044939D01*
X158850091Y-87044940D01*
X158853065Y-87050091D01*
X158899525Y-87130562D01*
X158969438Y-87200475D01*
X159055062Y-87249910D01*
X159150565Y-87275500D01*
X159150567Y-87275500D01*
X159249432Y-87275500D01*
X159249435Y-87275500D01*
X159344938Y-87249910D01*
X159430562Y-87200475D01*
X159500475Y-87130562D01*
X159549910Y-87044938D01*
X159575500Y-86949435D01*
X159575500Y-86850565D01*
X159549910Y-86755062D01*
X159500475Y-86669438D01*
X159430562Y-86599525D01*
X159344938Y-86550090D01*
X159249435Y-86524500D01*
X159150565Y-86524500D01*
X159055062Y-86550090D01*
X159055060Y-86550091D01*
X159055059Y-86550091D01*
X158969436Y-86599526D01*
X158899526Y-86669436D01*
X158850091Y-86755059D01*
X158850091Y-86755060D01*
X158850090Y-86755062D01*
X158824500Y-86850565D01*
X154875000Y-86850565D01*
X154875000Y-84978821D01*
X154894685Y-84911782D01*
X154947489Y-84866027D01*
X155016175Y-84856016D01*
X155570381Y-84933532D01*
G37*
%TD.AperFunction*%
%TA.AperFunction,Conductor*%
G36*
X151969926Y-99197241D02*
G01*
X151972967Y-99196951D01*
X152001497Y-99211659D01*
X152030703Y-99224997D01*
X152033173Y-99227989D01*
X152035070Y-99228967D01*
X152056885Y-99256707D01*
X152099525Y-99330562D01*
X152169438Y-99400475D01*
X152255062Y-99449910D01*
X152350565Y-99475500D01*
X152350567Y-99475500D01*
X152449432Y-99475500D01*
X152449435Y-99475500D01*
X152544938Y-99449910D01*
X152630562Y-99400475D01*
X152630563Y-99400473D01*
X152637600Y-99396411D01*
X152639233Y-99399240D01*
X152690148Y-99379540D01*
X152758597Y-99393559D01*
X152808600Y-99442359D01*
X152824500Y-99503107D01*
X152824500Y-110386809D01*
X152811901Y-110441269D01*
X152759426Y-110548608D01*
X152749500Y-110616739D01*
X152749500Y-113183260D01*
X152759426Y-113251391D01*
X152810803Y-113356485D01*
X152817137Y-113362819D01*
X152850622Y-113424142D01*
X152845638Y-113493834D01*
X152803766Y-113549767D01*
X152738302Y-113574184D01*
X152729456Y-113574500D01*
X150870544Y-113574500D01*
X150803505Y-113554815D01*
X150757750Y-113502011D01*
X150747806Y-113432853D01*
X150776831Y-113369297D01*
X150782863Y-113362819D01*
X150789196Y-113356485D01*
X150789198Y-113356483D01*
X150840573Y-113251393D01*
X150850500Y-113183260D01*
X150850500Y-110616740D01*
X150840573Y-110548607D01*
X150789198Y-110443517D01*
X150789195Y-110443514D01*
X150789195Y-110443513D01*
X150783227Y-110435153D01*
X150786124Y-110433084D01*
X150761489Y-110387969D01*
X150766473Y-110318277D01*
X150794972Y-110273932D01*
X151710294Y-109358609D01*
X151710297Y-109358608D01*
X151727735Y-109341170D01*
X151727736Y-109341170D01*
X151791170Y-109277736D01*
X151815145Y-109219855D01*
X151825501Y-109194854D01*
X151825501Y-109105145D01*
X151825501Y-109095156D01*
X151825500Y-109095142D01*
X151825500Y-102643120D01*
X151845185Y-102576081D01*
X151897989Y-102530326D01*
X151967147Y-102520382D01*
X151981582Y-102523342D01*
X152000565Y-102528429D01*
X152000568Y-102528429D01*
X152099432Y-102528429D01*
X152099435Y-102528429D01*
X152194938Y-102502839D01*
X152280562Y-102453404D01*
X152350475Y-102383491D01*
X152399910Y-102297867D01*
X152425500Y-102202364D01*
X152425500Y-102103494D01*
X152399910Y-102007991D01*
X152350475Y-101922367D01*
X152280562Y-101852454D01*
X152194938Y-101803019D01*
X152099435Y-101777429D01*
X152000565Y-101777429D01*
X151981590Y-101782513D01*
X151911740Y-101780848D01*
X151853879Y-101741683D01*
X151826376Y-101677454D01*
X151825500Y-101662737D01*
X151825500Y-99318710D01*
X151826360Y-99315779D01*
X151825640Y-99312810D01*
X151836144Y-99282457D01*
X151845185Y-99251671D01*
X151847492Y-99249671D01*
X151848492Y-99246783D01*
X151873741Y-99226926D01*
X151897989Y-99205916D01*
X151901011Y-99205481D01*
X151903414Y-99203592D01*
X151935376Y-99200540D01*
X151967147Y-99195972D01*
X151969926Y-99197241D01*
G37*
%TD.AperFunction*%
%TA.AperFunction,Conductor*%
G36*
X159862080Y-100345200D02*
G01*
X159868558Y-100351232D01*
X161888181Y-102370855D01*
X161921666Y-102432178D01*
X161924500Y-102458536D01*
X161924500Y-106487611D01*
X161904815Y-106554650D01*
X161888181Y-106575292D01*
X161517181Y-106946292D01*
X161455858Y-106979777D01*
X161386166Y-106974793D01*
X161330233Y-106932921D01*
X161305816Y-106867457D01*
X161305500Y-106858611D01*
X161305500Y-106550002D01*
X161305500Y-106550000D01*
X161284667Y-106472250D01*
X161280442Y-106456481D01*
X161284455Y-106455405D01*
X161274875Y-106415948D01*
X161289663Y-106371066D01*
X161287094Y-106370002D01*
X161291764Y-106358726D01*
X161291767Y-106358722D01*
X161296950Y-106332666D01*
X161300500Y-106314822D01*
X161300500Y-105285177D01*
X161291768Y-105241282D01*
X161291767Y-105241281D01*
X161291767Y-105241278D01*
X161291765Y-105241275D01*
X161287094Y-105229998D01*
X161289922Y-105228826D01*
X161274756Y-105180390D01*
X161284041Y-105144483D01*
X161280442Y-105143519D01*
X161291975Y-105100476D01*
X161305500Y-105050000D01*
X161305500Y-104434174D01*
X161300201Y-104393927D01*
X161266126Y-104266760D01*
X161250592Y-104229257D01*
X161203969Y-104148504D01*
X161187497Y-104080606D01*
X161203969Y-104024508D01*
X161249910Y-103944938D01*
X161275500Y-103849435D01*
X161275500Y-103750565D01*
X161249910Y-103655062D01*
X161200475Y-103569438D01*
X161130562Y-103499525D01*
X161044938Y-103450090D01*
X160969614Y-103429907D01*
X160949432Y-103424499D01*
X160941375Y-103423439D01*
X160941594Y-103421774D01*
X160883836Y-103404815D01*
X160838081Y-103352011D01*
X160828137Y-103282853D01*
X160857162Y-103219297D01*
X160863194Y-103212819D01*
X160974322Y-103101691D01*
X161087364Y-102988649D01*
X161125500Y-102896580D01*
X161125500Y-102796924D01*
X161125500Y-102403420D01*
X161087364Y-102311351D01*
X161016897Y-102240884D01*
X160823191Y-102047178D01*
X160789706Y-101985855D01*
X160786872Y-101959497D01*
X160786872Y-101950567D01*
X160786872Y-101950565D01*
X160761282Y-101855062D01*
X160711847Y-101769438D01*
X160641934Y-101699525D01*
X160556310Y-101650090D01*
X160460807Y-101624500D01*
X160361937Y-101624500D01*
X160266434Y-101650090D01*
X160266432Y-101650091D01*
X160266431Y-101650091D01*
X160180808Y-101699526D01*
X160110898Y-101769436D01*
X160057398Y-101862101D01*
X160054699Y-101860543D01*
X160020047Y-101903483D01*
X159953737Y-101925502D01*
X159886050Y-101908176D01*
X159861717Y-101889259D01*
X159775478Y-101803020D01*
X159548233Y-101575774D01*
X159240622Y-101268163D01*
X159207137Y-101206840D01*
X159212121Y-101137148D01*
X159240620Y-101092801D01*
X159534548Y-100798877D01*
X159558875Y-100774551D01*
X159623450Y-100662703D01*
X159656877Y-100537952D01*
X159656877Y-100438913D01*
X159676562Y-100371874D01*
X159729366Y-100326119D01*
X159798524Y-100316175D01*
X159862080Y-100345200D01*
G37*
%TD.AperFunction*%
%TA.AperFunction,Conductor*%
G36*
X144893835Y-104327585D02*
G01*
X144949768Y-104369457D01*
X144974184Y-104434922D01*
X144974500Y-104443766D01*
X144974500Y-104691630D01*
X144954815Y-104758669D01*
X144938181Y-104779311D01*
X143429311Y-106288181D01*
X143402383Y-106302884D01*
X143376565Y-106319477D01*
X143370364Y-106320368D01*
X143367988Y-106321666D01*
X143341630Y-106324500D01*
X143261014Y-106324500D01*
X143193975Y-106304815D01*
X143148220Y-106252011D01*
X143138276Y-106182853D01*
X143148548Y-106153172D01*
X143146799Y-106152448D01*
X143149904Y-106144947D01*
X143149910Y-106144938D01*
X143175500Y-106049435D01*
X143175500Y-105950565D01*
X143149910Y-105855062D01*
X143100475Y-105769438D01*
X143030562Y-105699525D01*
X142944938Y-105650090D01*
X142849435Y-105624500D01*
X142794767Y-105624500D01*
X142727728Y-105604815D01*
X142707086Y-105588181D01*
X141832214Y-104713309D01*
X141798729Y-104651986D01*
X141803713Y-104582294D01*
X141845585Y-104526361D01*
X141911049Y-104501944D01*
X141919895Y-104501628D01*
X144479015Y-104501628D01*
X144479017Y-104501629D01*
X144568727Y-104501629D01*
X144627332Y-104477353D01*
X144651608Y-104467298D01*
X144715042Y-104403864D01*
X144715042Y-104403863D01*
X144732473Y-104386432D01*
X144732476Y-104386427D01*
X144762822Y-104356081D01*
X144824144Y-104322599D01*
X144893835Y-104327585D01*
G37*
%TD.AperFunction*%
%TA.AperFunction,Conductor*%
G36*
X149608907Y-88670316D02*
G01*
X149654662Y-88723120D01*
X149664606Y-88792278D01*
X149635581Y-88855834D01*
X149610759Y-88877733D01*
X149585331Y-88894723D01*
X149585327Y-88894726D01*
X149494726Y-88985327D01*
X149494723Y-88985331D01*
X149423538Y-89091866D01*
X149423533Y-89091875D01*
X149374499Y-89210255D01*
X149374497Y-89210261D01*
X149349500Y-89335928D01*
X149349500Y-89335931D01*
X149349500Y-89464069D01*
X149349500Y-89464071D01*
X149349499Y-89464071D01*
X149374497Y-89589738D01*
X149374499Y-89589744D01*
X149423533Y-89708124D01*
X149423538Y-89708133D01*
X149494723Y-89814668D01*
X149494726Y-89814672D01*
X149585327Y-89905273D01*
X149585331Y-89905276D01*
X149691866Y-89976461D01*
X149691875Y-89976466D01*
X149718692Y-89987574D01*
X149810256Y-90025501D01*
X149810260Y-90025501D01*
X149810261Y-90025502D01*
X149935928Y-90050500D01*
X149935931Y-90050500D01*
X150064071Y-90050500D01*
X150178513Y-90027735D01*
X150189744Y-90025501D01*
X150195817Y-90022985D01*
X150265281Y-90015511D01*
X150308354Y-90031993D01*
X150320697Y-90039603D01*
X150372263Y-90091169D01*
X150455144Y-90125499D01*
X150460009Y-90125499D01*
X150478414Y-90136847D01*
X150495407Y-90155733D01*
X150515190Y-90171675D01*
X150518383Y-90181270D01*
X150525147Y-90188787D01*
X150529231Y-90213861D01*
X150537256Y-90237969D01*
X150534755Y-90247767D01*
X150536381Y-90257748D01*
X150526260Y-90281051D01*
X150519978Y-90305669D01*
X150509980Y-90318537D01*
X150508549Y-90321835D01*
X150506195Y-90323410D01*
X150501016Y-90330078D01*
X149717914Y-91113181D01*
X149656591Y-91146666D01*
X149630233Y-91149500D01*
X146884297Y-91149500D01*
X146884289Y-91149499D01*
X146869855Y-91149499D01*
X146780145Y-91149499D01*
X146780143Y-91149499D01*
X146745813Y-91163719D01*
X146721539Y-91173774D01*
X146721537Y-91173774D01*
X146697264Y-91183829D01*
X139909135Y-97971958D01*
X139909135Y-97971960D01*
X139874804Y-98054839D01*
X139874804Y-98158983D01*
X139874805Y-98158992D01*
X139874805Y-98720165D01*
X139874804Y-98725523D01*
X139871326Y-98737359D01*
X139871324Y-98737365D01*
X139864552Y-98760413D01*
X139855119Y-98792539D01*
X139855110Y-98792546D01*
X139855107Y-98792559D01*
X139826834Y-98817048D01*
X139802315Y-98838294D01*
X139802302Y-98838296D01*
X139802294Y-98838304D01*
X139802220Y-98838314D01*
X139750804Y-98849500D01*
X139735929Y-98849500D01*
X139610261Y-98874497D01*
X139610255Y-98874499D01*
X139491875Y-98923533D01*
X139491866Y-98923538D01*
X139385331Y-98994723D01*
X139385327Y-98994726D01*
X139294726Y-99085327D01*
X139294723Y-99085331D01*
X139223538Y-99191866D01*
X139223533Y-99191875D01*
X139174499Y-99310255D01*
X139174497Y-99310261D01*
X139149500Y-99435928D01*
X139149500Y-99435931D01*
X139149500Y-99564069D01*
X139149500Y-99564071D01*
X139149499Y-99564071D01*
X139174497Y-99689738D01*
X139174499Y-99689744D01*
X139223533Y-99808124D01*
X139223538Y-99808133D01*
X139294723Y-99914668D01*
X139294726Y-99914672D01*
X139385327Y-100005273D01*
X139385331Y-100005276D01*
X139491866Y-100076461D01*
X139491872Y-100076464D01*
X139491873Y-100076465D01*
X139610256Y-100125501D01*
X139610262Y-100125502D01*
X139616088Y-100127270D01*
X139615599Y-100128879D01*
X139670368Y-100157521D01*
X139704949Y-100218233D01*
X139701216Y-100288003D01*
X139671956Y-100334443D01*
X138646698Y-101359700D01*
X138646698Y-101359702D01*
X138629711Y-101400711D01*
X138585869Y-101455114D01*
X138519575Y-101477178D01*
X138451875Y-101459898D01*
X138427469Y-101440938D01*
X138376509Y-101389978D01*
X138376508Y-101389977D01*
X138290884Y-101340542D01*
X138195381Y-101314952D01*
X138096511Y-101314952D01*
X138001008Y-101340542D01*
X138001006Y-101340543D01*
X138001005Y-101340543D01*
X137915382Y-101389978D01*
X137845472Y-101459888D01*
X137796037Y-101545511D01*
X137796037Y-101545512D01*
X137796036Y-101545514D01*
X137770446Y-101641017D01*
X137770446Y-101641019D01*
X137770446Y-101695684D01*
X137761801Y-101725124D01*
X137755278Y-101755111D01*
X137751523Y-101760126D01*
X137750761Y-101762723D01*
X137734127Y-101783365D01*
X137585347Y-101932145D01*
X137585346Y-101932146D01*
X137567019Y-101950473D01*
X137521911Y-101995580D01*
X137516770Y-102007989D01*
X137516771Y-102007990D01*
X137487581Y-102078458D01*
X137487581Y-102182604D01*
X137487582Y-102182613D01*
X137487582Y-103754997D01*
X137487581Y-103755011D01*
X137487581Y-103854710D01*
X137506096Y-103899408D01*
X137506095Y-103899408D01*
X137521912Y-103937592D01*
X137522169Y-103937976D01*
X137522470Y-103938939D01*
X137526585Y-103948872D01*
X137525695Y-103949240D01*
X137543046Y-104004654D01*
X137524560Y-104072034D01*
X137472581Y-104118723D01*
X137403610Y-104129898D01*
X137339547Y-104102011D01*
X137331385Y-104094546D01*
X135956134Y-102719295D01*
X135933223Y-102696384D01*
X135933223Y-102696383D01*
X135869789Y-102632949D01*
X135832337Y-102617436D01*
X135816885Y-102611035D01*
X135816882Y-102611033D01*
X135786910Y-102598618D01*
X135786908Y-102598618D01*
X135697198Y-102598618D01*
X135682764Y-102598618D01*
X135682756Y-102598619D01*
X134132291Y-102598619D01*
X134111048Y-102592381D01*
X134088962Y-102590803D01*
X134078175Y-102582728D01*
X134065252Y-102578934D01*
X134050755Y-102562204D01*
X134033027Y-102548934D01*
X134028317Y-102536309D01*
X134019497Y-102526130D01*
X134016346Y-102504216D01*
X134008607Y-102483470D01*
X134011470Y-102470305D01*
X134009553Y-102456972D01*
X134018750Y-102436832D01*
X134023456Y-102415197D01*
X134036727Y-102397467D01*
X134038578Y-102393416D01*
X134044592Y-102386955D01*
X134063295Y-102368253D01*
X134063295Y-102368251D01*
X135666615Y-100764931D01*
X135666618Y-100764929D01*
X135684056Y-100747491D01*
X135684057Y-100747491D01*
X135747491Y-100684057D01*
X135747491Y-100684056D01*
X135764929Y-100666618D01*
X135764930Y-100666615D01*
X135847491Y-100584057D01*
X135847491Y-100584055D01*
X135864929Y-100566618D01*
X135864931Y-100566614D01*
X138643343Y-97788204D01*
X138704662Y-97754722D01*
X138774354Y-97759706D01*
X138830287Y-97801578D01*
X138838405Y-97813884D01*
X138887810Y-97899456D01*
X138957723Y-97969369D01*
X139043347Y-98018804D01*
X139138850Y-98044394D01*
X139138852Y-98044394D01*
X139237717Y-98044394D01*
X139237720Y-98044394D01*
X139333223Y-98018804D01*
X139418847Y-97969369D01*
X139488760Y-97899456D01*
X139538195Y-97813832D01*
X139563785Y-97718329D01*
X139563785Y-97619459D01*
X139538195Y-97523956D01*
X139488760Y-97438332D01*
X139488758Y-97438330D01*
X139484696Y-97431294D01*
X139487303Y-97429788D01*
X139467289Y-97378011D01*
X139481331Y-97309567D01*
X139530147Y-97259580D01*
X139567815Y-97245860D01*
X139579235Y-97243700D01*
X139663054Y-97243700D01*
X139721659Y-97219424D01*
X139745935Y-97209369D01*
X139809369Y-97145935D01*
X139809369Y-97145934D01*
X139826807Y-97128496D01*
X139826809Y-97128493D01*
X148268352Y-88686950D01*
X148329675Y-88653465D01*
X148356033Y-88650631D01*
X149541868Y-88650631D01*
X149608907Y-88670316D01*
G37*
%TD.AperFunction*%
%TA.AperFunction,Conductor*%
G36*
X144253033Y-97070591D02*
G01*
X144308966Y-97112463D01*
X144333383Y-97177927D01*
X144333699Y-97186773D01*
X144333699Y-97300088D01*
X144333700Y-97300097D01*
X144333700Y-97852039D01*
X144314015Y-97919078D01*
X144261211Y-97964833D01*
X144192053Y-97974777D01*
X144185508Y-97973656D01*
X144064071Y-97949500D01*
X144064069Y-97949500D01*
X143935931Y-97949500D01*
X143935929Y-97949500D01*
X143810261Y-97974497D01*
X143810255Y-97974499D01*
X143691875Y-98023533D01*
X143691866Y-98023538D01*
X143585331Y-98094723D01*
X143585327Y-98094726D01*
X143494726Y-98185327D01*
X143494723Y-98185331D01*
X143423538Y-98291866D01*
X143423533Y-98291875D01*
X143374499Y-98410255D01*
X143374497Y-98410261D01*
X143349500Y-98535928D01*
X143349500Y-98535931D01*
X143349500Y-98664069D01*
X143349500Y-98664071D01*
X143349499Y-98664071D01*
X143374497Y-98789738D01*
X143374499Y-98789744D01*
X143423533Y-98908124D01*
X143423538Y-98908133D01*
X143494723Y-99014668D01*
X143494726Y-99014672D01*
X143585327Y-99105273D01*
X143585331Y-99105276D01*
X143691866Y-99176461D01*
X143691872Y-99176464D01*
X143691873Y-99176465D01*
X143810256Y-99225501D01*
X143810260Y-99225501D01*
X143810261Y-99225502D01*
X143935928Y-99250500D01*
X143935931Y-99250500D01*
X144064071Y-99250500D01*
X144189739Y-99225502D01*
X144189739Y-99225501D01*
X144189744Y-99225501D01*
X144195816Y-99222985D01*
X144265282Y-99215511D01*
X144327764Y-99246781D01*
X144330957Y-99249862D01*
X144638181Y-99557086D01*
X144671666Y-99618409D01*
X144674500Y-99644767D01*
X144674500Y-103184397D01*
X144654815Y-103251436D01*
X144602011Y-103297191D01*
X144545071Y-103308278D01*
X144531510Y-103307683D01*
X144499435Y-103299089D01*
X144400565Y-103299089D01*
X144391404Y-103301543D01*
X144373439Y-103300756D01*
X144369762Y-103299499D01*
X144359738Y-103299499D01*
X144270028Y-103299499D01*
X144255594Y-103299499D01*
X144255586Y-103299500D01*
X142418766Y-103299500D01*
X142397520Y-103293261D01*
X142375433Y-103291682D01*
X142364649Y-103283609D01*
X142351727Y-103279815D01*
X142337228Y-103263083D01*
X142319499Y-103249811D01*
X142314791Y-103237188D01*
X142305972Y-103227011D01*
X142302820Y-103205095D01*
X142295082Y-103184347D01*
X142297944Y-103171185D01*
X142296028Y-103157853D01*
X142305226Y-103137711D01*
X142309933Y-103116074D01*
X142323204Y-103098345D01*
X142325053Y-103094297D01*
X142331066Y-103087838D01*
X142410295Y-103008608D01*
X142410299Y-103008606D01*
X142427735Y-102991170D01*
X142427736Y-102991170D01*
X142491170Y-102927736D01*
X142491170Y-102927734D01*
X142491172Y-102927733D01*
X142512166Y-102877048D01*
X142556006Y-102822644D01*
X142622300Y-102800579D01*
X142626727Y-102800500D01*
X142814822Y-102800500D01*
X142858717Y-102791768D01*
X142858717Y-102791767D01*
X142858722Y-102791767D01*
X142858726Y-102791764D01*
X142870002Y-102787094D01*
X142871174Y-102789924D01*
X142919596Y-102774756D01*
X142955517Y-102784039D01*
X142956481Y-102780442D01*
X142972250Y-102784667D01*
X143050000Y-102805500D01*
X143050002Y-102805500D01*
X143665820Y-102805500D01*
X143665826Y-102805500D01*
X143706073Y-102800201D01*
X143833240Y-102766126D01*
X143870743Y-102750592D01*
X143984757Y-102684766D01*
X144016962Y-102660054D01*
X144016969Y-102660047D01*
X144016971Y-102660046D01*
X144110046Y-102566971D01*
X144110047Y-102566969D01*
X144110054Y-102566962D01*
X144134766Y-102534757D01*
X144200592Y-102420743D01*
X144216126Y-102383240D01*
X144250201Y-102256073D01*
X144255500Y-102215826D01*
X144255500Y-101584174D01*
X144250201Y-101543927D01*
X144216126Y-101416760D01*
X144210516Y-101403216D01*
X144200597Y-101379268D01*
X144200594Y-101379262D01*
X144200592Y-101379257D01*
X144134766Y-101265243D01*
X144110054Y-101233038D01*
X144110050Y-101233034D01*
X144110047Y-101233030D01*
X144016969Y-101139952D01*
X144016964Y-101139948D01*
X144016962Y-101139946D01*
X143984757Y-101115234D01*
X143905433Y-101069436D01*
X143870745Y-101049409D01*
X143870731Y-101049402D01*
X143833247Y-101033876D01*
X143833240Y-101033874D01*
X143706073Y-100999799D01*
X143706068Y-100999798D01*
X143706066Y-100999798D01*
X143665832Y-100994500D01*
X143665826Y-100994500D01*
X143623584Y-100994500D01*
X143556545Y-100974815D01*
X143535903Y-100958181D01*
X142740481Y-100162759D01*
X142706996Y-100101436D01*
X142704162Y-100075078D01*
X142704162Y-100020413D01*
X142704162Y-100020411D01*
X142678572Y-99924908D01*
X142629137Y-99839284D01*
X142559224Y-99769371D01*
X142473600Y-99719936D01*
X142378097Y-99694346D01*
X142279227Y-99694346D01*
X142183724Y-99719936D01*
X142183722Y-99719937D01*
X142183721Y-99719937D01*
X142098098Y-99769372D01*
X142028188Y-99839282D01*
X141978753Y-99924905D01*
X141978753Y-99924906D01*
X141978752Y-99924908D01*
X141953162Y-100020411D01*
X141953162Y-100119281D01*
X141978752Y-100214784D01*
X142028187Y-100300408D01*
X142098100Y-100370321D01*
X142183724Y-100419756D01*
X142279227Y-100445346D01*
X142279229Y-100445346D01*
X142333895Y-100445346D01*
X142400934Y-100465031D01*
X142421576Y-100481665D01*
X142727729Y-100787819D01*
X142761214Y-100849142D01*
X142756230Y-100918834D01*
X142714358Y-100974767D01*
X142648894Y-100999184D01*
X142640048Y-100999500D01*
X141785178Y-100999500D01*
X141741282Y-101008231D01*
X141741275Y-101008234D01*
X141691496Y-101041495D01*
X141691495Y-101041496D01*
X141658234Y-101091275D01*
X141658231Y-101091282D01*
X141649500Y-101135177D01*
X141649500Y-101135180D01*
X141649500Y-102664820D01*
X141649500Y-102664822D01*
X141649499Y-102664822D01*
X141658231Y-102708717D01*
X141658232Y-102708720D01*
X141658233Y-102708722D01*
X141691347Y-102758281D01*
X141712225Y-102824958D01*
X141693740Y-102892338D01*
X141641762Y-102939028D01*
X141588245Y-102951171D01*
X139167097Y-102951171D01*
X139145851Y-102944932D01*
X139123768Y-102943354D01*
X139112983Y-102935281D01*
X139100058Y-102931486D01*
X139085559Y-102914753D01*
X139067833Y-102901485D01*
X139063124Y-102888862D01*
X139054303Y-102878682D01*
X139051152Y-102856768D01*
X139043413Y-102836022D01*
X139046276Y-102822857D01*
X139044359Y-102809524D01*
X139053557Y-102789382D01*
X139058263Y-102767748D01*
X139071533Y-102750020D01*
X139073384Y-102745968D01*
X139079398Y-102739507D01*
X139100718Y-102718188D01*
X139100718Y-102718186D01*
X139310294Y-102508610D01*
X139310297Y-102508608D01*
X139327735Y-102491170D01*
X139327736Y-102491170D01*
X139391170Y-102427736D01*
X139391170Y-102427734D01*
X139391172Y-102427733D01*
X139410045Y-102382167D01*
X139425500Y-102344855D01*
X139425500Y-101846972D01*
X139445185Y-101779933D01*
X139461814Y-101759296D01*
X142878837Y-98342273D01*
X142878839Y-98342273D01*
X142942273Y-98278839D01*
X142942273Y-98278837D01*
X144122018Y-97099091D01*
X144183341Y-97065607D01*
X144253033Y-97070591D01*
G37*
%TD.AperFunction*%
%TA.AperFunction,Conductor*%
G36*
X147241505Y-85638154D02*
G01*
X147272964Y-85700541D01*
X147275000Y-85722918D01*
X147275000Y-87900000D01*
X151921824Y-87900000D01*
X151944267Y-87906590D01*
X151967564Y-87908744D01*
X151977169Y-87916251D01*
X151988863Y-87919685D01*
X152004180Y-87937362D01*
X152022615Y-87951770D01*
X152026636Y-87963278D01*
X152034618Y-87972489D01*
X152037947Y-87995642D01*
X152045665Y-88017727D01*
X152042827Y-88029580D01*
X152044562Y-88041647D01*
X152034843Y-88062927D01*
X152029397Y-88085677D01*
X152019049Y-88097511D01*
X152015537Y-88105203D01*
X152007663Y-88113485D01*
X151998556Y-88122220D01*
X151994338Y-88124656D01*
X151954796Y-88164197D01*
X151953839Y-88165116D01*
X151923950Y-88180638D01*
X151894357Y-88196798D01*
X151892439Y-88197004D01*
X151891833Y-88197319D01*
X151890584Y-88197203D01*
X151868000Y-88199631D01*
X148270563Y-88199631D01*
X148270555Y-88199630D01*
X148256121Y-88199630D01*
X148166412Y-88199630D01*
X148166410Y-88199630D01*
X148166408Y-88199631D01*
X148117860Y-88219740D01*
X148083531Y-88233959D01*
X148051814Y-88265677D01*
X148020096Y-88297395D01*
X148020095Y-88297396D01*
X147436283Y-88881207D01*
X147374960Y-88914692D01*
X147305268Y-88909708D01*
X147249335Y-88867836D01*
X147226984Y-88817712D01*
X147225502Y-88810260D01*
X147225501Y-88810258D01*
X147225501Y-88810256D01*
X147176465Y-88691873D01*
X147176464Y-88691872D01*
X147176461Y-88691866D01*
X147105276Y-88585331D01*
X147105273Y-88585327D01*
X147014672Y-88494726D01*
X147014668Y-88494723D01*
X146908133Y-88423538D01*
X146908124Y-88423533D01*
X146789744Y-88374499D01*
X146789738Y-88374497D01*
X146664071Y-88349500D01*
X146664069Y-88349500D01*
X146535931Y-88349500D01*
X146535929Y-88349500D01*
X146410261Y-88374497D01*
X146410255Y-88374499D01*
X146291875Y-88423533D01*
X146291866Y-88423538D01*
X146185331Y-88494723D01*
X146185327Y-88494726D01*
X146094726Y-88585327D01*
X146094723Y-88585331D01*
X146023538Y-88691866D01*
X146023533Y-88691875D01*
X145974499Y-88810255D01*
X145974497Y-88810261D01*
X145949500Y-88935928D01*
X145949500Y-88935931D01*
X145949500Y-89064069D01*
X145949500Y-89064071D01*
X145949499Y-89064071D01*
X145974497Y-89189738D01*
X145974499Y-89189744D01*
X146023533Y-89308124D01*
X146023538Y-89308133D01*
X146094723Y-89414668D01*
X146094726Y-89414672D01*
X146185327Y-89505273D01*
X146185331Y-89505276D01*
X146291866Y-89576461D01*
X146291872Y-89576464D01*
X146291873Y-89576465D01*
X146410256Y-89625501D01*
X146417713Y-89626984D01*
X146479624Y-89659365D01*
X146514202Y-89720079D01*
X146510466Y-89789848D01*
X146481208Y-89836283D01*
X142105363Y-94212128D01*
X142044040Y-94245613D01*
X141974348Y-94240629D01*
X141918415Y-94198757D01*
X141910296Y-94186449D01*
X141900475Y-94169438D01*
X141830562Y-94099525D01*
X141744938Y-94050090D01*
X141649435Y-94024500D01*
X141550565Y-94024500D01*
X141455062Y-94050090D01*
X141455060Y-94050091D01*
X141455059Y-94050091D01*
X141369436Y-94099526D01*
X141299526Y-94169436D01*
X141250091Y-94255059D01*
X141250091Y-94255060D01*
X141250090Y-94255062D01*
X141224500Y-94350565D01*
X141224500Y-94350567D01*
X141224500Y-94405192D01*
X141204815Y-94472231D01*
X141152011Y-94517986D01*
X141082853Y-94527930D01*
X141019297Y-94498905D01*
X141015827Y-94495674D01*
X141014668Y-94494723D01*
X140908133Y-94423538D01*
X140908124Y-94423533D01*
X140789744Y-94374499D01*
X140789738Y-94374497D01*
X140664071Y-94349500D01*
X140664069Y-94349500D01*
X140535931Y-94349500D01*
X140535929Y-94349500D01*
X140410261Y-94374497D01*
X140410255Y-94374499D01*
X140291875Y-94423533D01*
X140291866Y-94423538D01*
X140185331Y-94494723D01*
X140185327Y-94494726D01*
X140094726Y-94585327D01*
X140094723Y-94585331D01*
X140088393Y-94594804D01*
X140088387Y-94594814D01*
X140023535Y-94691873D01*
X139983596Y-94788291D01*
X139983593Y-94788299D01*
X139974500Y-94810251D01*
X139974497Y-94810261D01*
X139949500Y-94935928D01*
X139949500Y-94935931D01*
X139949500Y-95064069D01*
X139949500Y-95064071D01*
X139949499Y-95064071D01*
X139974497Y-95189738D01*
X139974499Y-95189744D01*
X140023533Y-95308124D01*
X140023538Y-95308133D01*
X140094723Y-95414668D01*
X140094726Y-95414672D01*
X140185327Y-95505273D01*
X140185331Y-95505276D01*
X140291866Y-95576461D01*
X140291872Y-95576464D01*
X140291873Y-95576465D01*
X140410256Y-95625501D01*
X140410258Y-95625501D01*
X140410260Y-95625502D01*
X140414794Y-95626403D01*
X140417712Y-95626984D01*
X140479625Y-95659366D01*
X140514201Y-95720080D01*
X140510464Y-95789850D01*
X140481207Y-95836283D01*
X139561113Y-96756380D01*
X139499790Y-96789865D01*
X139473432Y-96792699D01*
X139139298Y-96792699D01*
X139049589Y-96792699D01*
X139049587Y-96792699D01*
X139049585Y-96792700D01*
X138966710Y-96827026D01*
X138762801Y-97030935D01*
X138701478Y-97064420D01*
X138631786Y-97059436D01*
X138575853Y-97017564D01*
X138555345Y-96975347D01*
X138555118Y-96974499D01*
X138549910Y-96955062D01*
X138500475Y-96869438D01*
X138430562Y-96799525D01*
X138344938Y-96750090D01*
X138249435Y-96724500D01*
X138150565Y-96724500D01*
X138055062Y-96750090D01*
X138055060Y-96750091D01*
X138055059Y-96750091D01*
X137969436Y-96799526D01*
X137899526Y-96869436D01*
X137850091Y-96955059D01*
X137850091Y-96955060D01*
X137850090Y-96955062D01*
X137824500Y-97050565D01*
X137824500Y-97149435D01*
X137850090Y-97244938D01*
X137850091Y-97244939D01*
X137850091Y-97244940D01*
X137863337Y-97267882D01*
X137899525Y-97330562D01*
X137969438Y-97400475D01*
X138055062Y-97449910D01*
X138075349Y-97455346D01*
X138135008Y-97491711D01*
X138165536Y-97554558D01*
X138157241Y-97623934D01*
X138130934Y-97662801D01*
X135528586Y-100265150D01*
X135499234Y-100294502D01*
X135437911Y-100327987D01*
X135411553Y-100330821D01*
X135001088Y-100330821D01*
X134934049Y-100311136D01*
X134913407Y-100294502D01*
X134549862Y-99930957D01*
X134516377Y-99869634D01*
X134521361Y-99799942D01*
X134522965Y-99795863D01*
X134525501Y-99789744D01*
X134542069Y-99706455D01*
X134550500Y-99664071D01*
X134550500Y-99535928D01*
X134525502Y-99410261D01*
X134525501Y-99410260D01*
X134525501Y-99410256D01*
X134476465Y-99291873D01*
X134476464Y-99291872D01*
X134476461Y-99291866D01*
X134405276Y-99185331D01*
X134405273Y-99185327D01*
X134314672Y-99094726D01*
X134314668Y-99094723D01*
X134208133Y-99023538D01*
X134208124Y-99023533D01*
X134089744Y-98974499D01*
X134089738Y-98974497D01*
X133964071Y-98949500D01*
X133964069Y-98949500D01*
X133835931Y-98949500D01*
X133835929Y-98949500D01*
X133710261Y-98974497D01*
X133710255Y-98974499D01*
X133591875Y-99023533D01*
X133591866Y-99023538D01*
X133485331Y-99094723D01*
X133485327Y-99094726D01*
X133394726Y-99185327D01*
X133394723Y-99185331D01*
X133323538Y-99291866D01*
X133323533Y-99291875D01*
X133274499Y-99410255D01*
X133274497Y-99410261D01*
X133249500Y-99535928D01*
X133249500Y-99535931D01*
X133249500Y-99664069D01*
X133249500Y-99664071D01*
X133249499Y-99664071D01*
X133274497Y-99789738D01*
X133274499Y-99789744D01*
X133323533Y-99908124D01*
X133323538Y-99908133D01*
X133394723Y-100014668D01*
X133394726Y-100014672D01*
X133485327Y-100105273D01*
X133485331Y-100105276D01*
X133591866Y-100176461D01*
X133591872Y-100176464D01*
X133591873Y-100176465D01*
X133710256Y-100225501D01*
X133710260Y-100225501D01*
X133710261Y-100225502D01*
X133835928Y-100250500D01*
X133835931Y-100250500D01*
X133964071Y-100250500D01*
X134089739Y-100225502D01*
X134089739Y-100225501D01*
X134089744Y-100225501D01*
X134095816Y-100222985D01*
X134165282Y-100215511D01*
X134227764Y-100246781D01*
X134230957Y-100249862D01*
X134665150Y-100684055D01*
X134665151Y-100684057D01*
X134728585Y-100747491D01*
X134745598Y-100754538D01*
X134770684Y-100764929D01*
X134781752Y-100769514D01*
X134836155Y-100813355D01*
X134858220Y-100879649D01*
X134840941Y-100947349D01*
X134821980Y-100971756D01*
X133815039Y-101978698D01*
X133753716Y-102012183D01*
X133727358Y-102015017D01*
X133471269Y-102015017D01*
X133404230Y-101995332D01*
X133398611Y-101991500D01*
X133390586Y-101985697D01*
X133344204Y-101939315D01*
X133258580Y-101889880D01*
X133257777Y-101889665D01*
X133250921Y-101884707D01*
X133233260Y-101861911D01*
X133213363Y-101841043D01*
X133212127Y-101834634D01*
X133208130Y-101829474D01*
X133205596Y-101800745D01*
X133200141Y-101772436D01*
X133202566Y-101766377D01*
X133201993Y-101759874D01*
X133215393Y-101734337D01*
X133226109Y-101707571D01*
X133232215Y-101702279D01*
X133234459Y-101698005D01*
X133242260Y-101693575D01*
X133261576Y-101676839D01*
X133324925Y-101640265D01*
X133394838Y-101570352D01*
X133444273Y-101484728D01*
X133469863Y-101389225D01*
X133469863Y-101290355D01*
X133444273Y-101194852D01*
X133394838Y-101109228D01*
X133361672Y-101076062D01*
X133328187Y-101014739D01*
X133333171Y-100945047D01*
X133341960Y-100926392D01*
X133362809Y-100890282D01*
X133388399Y-100794779D01*
X133388399Y-100695909D01*
X133362809Y-100600406D01*
X133313374Y-100514782D01*
X133243461Y-100444869D01*
X133157837Y-100395434D01*
X133062334Y-100369844D01*
X132963464Y-100369844D01*
X132867961Y-100395434D01*
X132867959Y-100395435D01*
X132867958Y-100395435D01*
X132782335Y-100444870D01*
X132712425Y-100514780D01*
X132662990Y-100600403D01*
X132662989Y-100600404D01*
X132662975Y-100600458D01*
X132637399Y-100695909D01*
X132637399Y-100794779D01*
X132662989Y-100890281D01*
X132662990Y-100890284D01*
X132676236Y-100913226D01*
X132711794Y-100974815D01*
X132712425Y-100975907D01*
X132745589Y-101009071D01*
X132779074Y-101070394D01*
X132774090Y-101140086D01*
X132765295Y-101158751D01*
X132744456Y-101194845D01*
X132744453Y-101194850D01*
X132744453Y-101194852D01*
X132718863Y-101290355D01*
X132718863Y-101290357D01*
X132718863Y-101305414D01*
X132699178Y-101372453D01*
X132646374Y-101418208D01*
X132626955Y-101425189D01*
X132556592Y-101444042D01*
X132486743Y-101442379D01*
X132428880Y-101403216D01*
X132401377Y-101338987D01*
X132400500Y-101324267D01*
X132400500Y-97878253D01*
X135624016Y-97878253D01*
X135624016Y-97977123D01*
X135649606Y-98072626D01*
X135699041Y-98158250D01*
X135768954Y-98228163D01*
X135854578Y-98277598D01*
X135950081Y-98303188D01*
X135950083Y-98303188D01*
X136048948Y-98303188D01*
X136048951Y-98303188D01*
X136144454Y-98277598D01*
X136230078Y-98228163D01*
X136299991Y-98158250D01*
X136349426Y-98072626D01*
X136375016Y-97977123D01*
X136375016Y-97878253D01*
X136349426Y-97782750D01*
X136299991Y-97697126D01*
X136230078Y-97627213D01*
X136144454Y-97577778D01*
X136048951Y-97552188D01*
X135950081Y-97552188D01*
X135854578Y-97577778D01*
X135854576Y-97577779D01*
X135854575Y-97577779D01*
X135768952Y-97627214D01*
X135699042Y-97697124D01*
X135649607Y-97782747D01*
X135649607Y-97782748D01*
X135649606Y-97782750D01*
X135624016Y-97878253D01*
X132400500Y-97878253D01*
X132400500Y-96850565D01*
X133924500Y-96850565D01*
X133924500Y-96949435D01*
X133950090Y-97044938D01*
X133950091Y-97044939D01*
X133950091Y-97044940D01*
X133953339Y-97050565D01*
X133999525Y-97130562D01*
X134069438Y-97200475D01*
X134155062Y-97249910D01*
X134250565Y-97275500D01*
X134250567Y-97275500D01*
X134349432Y-97275500D01*
X134349435Y-97275500D01*
X134444938Y-97249910D01*
X134530562Y-97200475D01*
X134600475Y-97130562D01*
X134649910Y-97044938D01*
X134675500Y-96949435D01*
X134675500Y-96913840D01*
X134695185Y-96846801D01*
X134747989Y-96801046D01*
X134817147Y-96791102D01*
X134846944Y-96799276D01*
X134910256Y-96825501D01*
X134910260Y-96825501D01*
X134910261Y-96825502D01*
X135035928Y-96850500D01*
X135035931Y-96850500D01*
X135164071Y-96850500D01*
X135248615Y-96833682D01*
X135289744Y-96825501D01*
X135408127Y-96776465D01*
X135514669Y-96705276D01*
X135605276Y-96614669D01*
X135676465Y-96508127D01*
X135725501Y-96389744D01*
X135744003Y-96296733D01*
X135750500Y-96264071D01*
X135750500Y-96135928D01*
X135725502Y-96010261D01*
X135725501Y-96010260D01*
X135725501Y-96010256D01*
X135676465Y-95891873D01*
X135676464Y-95891872D01*
X135676461Y-95891866D01*
X135605276Y-95785331D01*
X135605273Y-95785327D01*
X135514672Y-95694726D01*
X135514668Y-95694723D01*
X135408133Y-95623538D01*
X135408124Y-95623533D01*
X135289744Y-95574499D01*
X135289738Y-95574497D01*
X135164071Y-95549500D01*
X135164069Y-95549500D01*
X135035931Y-95549500D01*
X135035929Y-95549500D01*
X134910261Y-95574497D01*
X134910255Y-95574499D01*
X134791875Y-95623533D01*
X134791866Y-95623538D01*
X134685331Y-95694723D01*
X134685327Y-95694726D01*
X134594726Y-95785327D01*
X134594723Y-95785331D01*
X134523538Y-95891866D01*
X134523533Y-95891875D01*
X134474499Y-96010255D01*
X134474497Y-96010261D01*
X134449500Y-96135928D01*
X134449500Y-96264073D01*
X134464363Y-96338793D01*
X134463655Y-96346698D01*
X134466430Y-96354136D01*
X134460586Y-96381000D01*
X134458136Y-96408384D01*
X134452887Y-96416392D01*
X134451579Y-96422409D01*
X134430428Y-96450664D01*
X134392913Y-96488180D01*
X134331591Y-96521666D01*
X134305231Y-96524500D01*
X134250565Y-96524500D01*
X134155062Y-96550090D01*
X134155060Y-96550091D01*
X134155059Y-96550091D01*
X134069436Y-96599526D01*
X133999526Y-96669436D01*
X133950091Y-96755059D01*
X133950091Y-96755060D01*
X133950090Y-96755062D01*
X133924500Y-96850565D01*
X132400500Y-96850565D01*
X132400500Y-95250565D01*
X136824500Y-95250565D01*
X136824500Y-95349435D01*
X136850090Y-95444938D01*
X136850091Y-95444939D01*
X136850091Y-95444940D01*
X136854374Y-95452358D01*
X136899525Y-95530562D01*
X136969438Y-95600475D01*
X137055062Y-95649910D01*
X137150565Y-95675500D01*
X137150567Y-95675500D01*
X137249432Y-95675500D01*
X137249435Y-95675500D01*
X137344938Y-95649910D01*
X137430562Y-95600475D01*
X137500475Y-95530562D01*
X137549910Y-95444938D01*
X137575500Y-95349435D01*
X137575500Y-95250565D01*
X137549910Y-95155062D01*
X137500475Y-95069438D01*
X137430562Y-94999525D01*
X137344938Y-94950090D01*
X137249435Y-94924500D01*
X137150565Y-94924500D01*
X137055062Y-94950090D01*
X137055060Y-94950091D01*
X137055059Y-94950091D01*
X136969436Y-94999526D01*
X136899526Y-95069436D01*
X136850091Y-95155059D01*
X136850091Y-95155060D01*
X136850090Y-95155062D01*
X136824500Y-95250565D01*
X132400500Y-95250565D01*
X132400500Y-95224500D01*
X132420185Y-95157461D01*
X132472989Y-95111706D01*
X132524500Y-95100500D01*
X136376136Y-95100500D01*
X136381490Y-95100615D01*
X136387541Y-95100877D01*
X136414321Y-95102035D01*
X136414321Y-95102034D01*
X136414325Y-95102035D01*
X136414327Y-95102033D01*
X136414868Y-95101951D01*
X136421142Y-95100982D01*
X136422485Y-95100606D01*
X136423017Y-95100500D01*
X136423020Y-95100500D01*
X136455863Y-95086895D01*
X136489266Y-95074722D01*
X136492567Y-95071693D01*
X136496704Y-95069980D01*
X136496706Y-95069978D01*
X136496712Y-95069976D01*
X136519980Y-95046706D01*
X136523800Y-95043047D01*
X136548051Y-95020808D01*
X136548053Y-95020803D01*
X136548361Y-95020384D01*
X136549299Y-95019289D01*
X136552120Y-95015258D01*
X136552826Y-95014004D01*
X136553108Y-95013579D01*
X136553114Y-95013574D01*
X136564568Y-94985918D01*
X136567955Y-94978451D01*
X136878303Y-94350565D01*
X139124500Y-94350565D01*
X139124500Y-94449435D01*
X139150090Y-94544938D01*
X139150091Y-94544939D01*
X139150091Y-94544940D01*
X139160438Y-94562862D01*
X139199525Y-94630562D01*
X139269438Y-94700475D01*
X139355062Y-94749910D01*
X139450565Y-94775500D01*
X139450567Y-94775500D01*
X139549432Y-94775500D01*
X139549435Y-94775500D01*
X139644938Y-94749910D01*
X139730562Y-94700475D01*
X139800475Y-94630562D01*
X139849910Y-94544938D01*
X139875500Y-94449435D01*
X139875500Y-94350565D01*
X139849910Y-94255062D01*
X139800475Y-94169438D01*
X139730562Y-94099525D01*
X139644938Y-94050090D01*
X139549435Y-94024500D01*
X139450565Y-94024500D01*
X139355062Y-94050090D01*
X139355060Y-94050091D01*
X139355059Y-94050091D01*
X139269436Y-94099526D01*
X139199526Y-94169436D01*
X139150091Y-94255059D01*
X139150091Y-94255060D01*
X139150090Y-94255062D01*
X139124500Y-94350565D01*
X136878303Y-94350565D01*
X136928941Y-94248117D01*
X136931577Y-94243082D01*
X137327965Y-93526683D01*
X137330836Y-93521767D01*
X137759992Y-92824461D01*
X137763062Y-92819722D01*
X138224037Y-92143053D01*
X138227349Y-92138425D01*
X138478466Y-91804190D01*
X138534470Y-91762420D01*
X138604171Y-91757557D01*
X138665435Y-91791149D01*
X138698813Y-91852531D01*
X138699162Y-91895301D01*
X138700097Y-91895394D01*
X138699500Y-91901456D01*
X138699500Y-91901459D01*
X138699500Y-91921750D01*
X138699500Y-92098541D01*
X138699500Y-92098543D01*
X138699499Y-92098543D01*
X138737947Y-92291829D01*
X138737950Y-92291839D01*
X138813364Y-92473907D01*
X138813371Y-92473920D01*
X138922860Y-92637781D01*
X138922863Y-92637785D01*
X139062214Y-92777136D01*
X139062218Y-92777139D01*
X139226079Y-92886628D01*
X139226092Y-92886635D01*
X139398136Y-92957897D01*
X139408165Y-92962051D01*
X139408169Y-92962051D01*
X139408170Y-92962052D01*
X139601456Y-93000500D01*
X139601459Y-93000500D01*
X139798543Y-93000500D01*
X139928582Y-92974632D01*
X139991835Y-92962051D01*
X140173914Y-92886632D01*
X140337782Y-92777139D01*
X140477139Y-92637782D01*
X140586632Y-92473914D01*
X140662051Y-92291835D01*
X140692114Y-92140701D01*
X140700500Y-92098543D01*
X140700500Y-91901456D01*
X140662052Y-91708170D01*
X140662051Y-91708169D01*
X140662051Y-91708165D01*
X140628857Y-91628026D01*
X140586635Y-91526092D01*
X140586628Y-91526079D01*
X140477139Y-91362218D01*
X140477136Y-91362214D01*
X140337785Y-91222863D01*
X140337781Y-91222860D01*
X140173920Y-91113371D01*
X140173907Y-91113364D01*
X139991839Y-91037950D01*
X139991829Y-91037947D01*
X139798543Y-90999500D01*
X139798541Y-90999500D01*
X139601459Y-90999500D01*
X139601457Y-90999500D01*
X139408170Y-91037947D01*
X139408160Y-91037950D01*
X139381295Y-91049078D01*
X139375975Y-91049649D01*
X139371544Y-91052646D01*
X139341604Y-91053344D01*
X139311826Y-91056545D01*
X139307042Y-91054150D01*
X139301694Y-91054275D01*
X139276128Y-91038675D01*
X139249347Y-91025269D01*
X139246617Y-91020668D01*
X139242051Y-91017882D01*
X139228977Y-90990936D01*
X139213696Y-90965179D01*
X139213887Y-90959832D01*
X139211552Y-90955020D01*
X139215121Y-90925286D01*
X139216191Y-90895354D01*
X139219412Y-90889539D01*
X139219880Y-90885648D01*
X139238264Y-90855520D01*
X139244256Y-90848270D01*
X139248005Y-90843942D01*
X139798256Y-90237663D01*
X139802148Y-90233569D01*
X140083975Y-89950565D01*
X145024500Y-89950565D01*
X145024500Y-90049435D01*
X145050090Y-90144938D01*
X145099525Y-90230562D01*
X145169438Y-90300475D01*
X145255062Y-90349910D01*
X145350565Y-90375500D01*
X145350567Y-90375500D01*
X145449432Y-90375500D01*
X145449435Y-90375500D01*
X145544938Y-90349910D01*
X145630562Y-90300475D01*
X145700475Y-90230562D01*
X145749910Y-90144938D01*
X145775500Y-90049435D01*
X145775500Y-89950565D01*
X145749910Y-89855062D01*
X145700475Y-89769438D01*
X145630562Y-89699525D01*
X145544938Y-89650090D01*
X145449435Y-89624500D01*
X145350565Y-89624500D01*
X145255062Y-89650090D01*
X145255060Y-89650091D01*
X145255059Y-89650091D01*
X145169436Y-89699526D01*
X145099526Y-89769436D01*
X145050091Y-89855059D01*
X145050091Y-89855060D01*
X145050090Y-89855062D01*
X145024500Y-89950565D01*
X140083975Y-89950565D01*
X140379911Y-89653393D01*
X140383992Y-89649480D01*
X140987996Y-89096685D01*
X140992265Y-89092955D01*
X141621214Y-88568726D01*
X141625657Y-88565194D01*
X142278186Y-88070666D01*
X142282798Y-88067335D01*
X142957548Y-87603540D01*
X142962271Y-87600452D01*
X143364528Y-87350565D01*
X145224500Y-87350565D01*
X145224500Y-87449435D01*
X145250090Y-87544938D01*
X145299525Y-87630562D01*
X145369438Y-87700475D01*
X145455062Y-87749910D01*
X145550565Y-87775500D01*
X145550567Y-87775500D01*
X145649432Y-87775500D01*
X145649435Y-87775500D01*
X145744938Y-87749910D01*
X145830562Y-87700475D01*
X145900475Y-87630562D01*
X145949910Y-87544938D01*
X145975500Y-87449435D01*
X145975500Y-87350565D01*
X145949910Y-87255062D01*
X145900475Y-87169438D01*
X145830562Y-87099525D01*
X145744938Y-87050090D01*
X145649435Y-87024500D01*
X145550565Y-87024500D01*
X145455062Y-87050090D01*
X145455060Y-87050091D01*
X145455059Y-87050091D01*
X145369436Y-87099526D01*
X145299526Y-87169436D01*
X145250091Y-87255059D01*
X145250091Y-87255060D01*
X145250090Y-87255062D01*
X145224500Y-87350565D01*
X143364528Y-87350565D01*
X143625763Y-87188283D01*
X143657758Y-87168409D01*
X143662688Y-87165501D01*
X144377436Y-86766125D01*
X144382453Y-86763473D01*
X145114918Y-86397627D01*
X145120071Y-86395201D01*
X145868687Y-86063667D01*
X145873931Y-86061488D01*
X146637129Y-85764962D01*
X146642473Y-85763028D01*
X147111493Y-85605379D01*
X147181310Y-85602680D01*
X147241505Y-85638154D01*
G37*
%TD.AperFunction*%
%TA.AperFunction,Conductor*%
G36*
X153395923Y-89635204D02*
G01*
X153426658Y-89670674D01*
X153451234Y-89713240D01*
X153461928Y-89731762D01*
X153531841Y-89801675D01*
X153617465Y-89851110D01*
X153712968Y-89876700D01*
X153712970Y-89876700D01*
X153805031Y-89876700D01*
X153872070Y-89896385D01*
X153917825Y-89949189D01*
X153927769Y-90018347D01*
X153898744Y-90081903D01*
X153892712Y-90088381D01*
X152019271Y-91961823D01*
X151957948Y-91995308D01*
X151931590Y-91998142D01*
X151548420Y-91998142D01*
X151548418Y-91998141D01*
X151458709Y-91998141D01*
X151415621Y-92015989D01*
X151401026Y-92022034D01*
X151401021Y-92022035D01*
X151375829Y-92032469D01*
X151047903Y-92360395D01*
X151047902Y-92360397D01*
X151042049Y-92374527D01*
X151013571Y-92443275D01*
X151013571Y-92491897D01*
X150993886Y-92558936D01*
X150977252Y-92579578D01*
X150104983Y-93451846D01*
X150043660Y-93485331D01*
X149973968Y-93480347D01*
X149934153Y-93456156D01*
X149919676Y-93443070D01*
X149900348Y-93409593D01*
X149830435Y-93339680D01*
X149760835Y-93299496D01*
X149751079Y-93290678D01*
X149739410Y-93271655D01*
X149724012Y-93255506D01*
X149721496Y-93242453D01*
X149714545Y-93231121D01*
X149715012Y-93208809D01*
X149710790Y-93186899D01*
X149715730Y-93174558D01*
X149716009Y-93161266D01*
X149728464Y-93142749D01*
X149736758Y-93122034D01*
X149746531Y-93111023D01*
X152950114Y-89907439D01*
X153000071Y-89878599D01*
X152999831Y-89878019D01*
X153004241Y-89876192D01*
X153005708Y-89875345D01*
X153007341Y-89874908D01*
X153092965Y-89825473D01*
X153162878Y-89755560D01*
X153211887Y-89670672D01*
X153262451Y-89622460D01*
X153331058Y-89609236D01*
X153395923Y-89635204D01*
G37*
%TD.AperFunction*%
%TD*%
M02*
