%TF.GenerationSoftware,KiCad,Pcbnew,10.0.3*%
%TF.CreationDate,2026-07-19T10:29:48+10:00*%
%TF.ProjectId,epaper-smart-watch,65706170-6572-42d7-936d-6172742d7761,rev?*%
%TF.SameCoordinates,Original*%
%TF.FileFunction,Copper,L3,Inr*%
%TF.FilePolarity,Positive*%
%FSLAX46Y46*%
G04 Gerber Fmt 4.6, Leading zero omitted, Abs format (unit mm)*
G04 Created by KiCad (PCBNEW 10.0.3) date 2026-07-19 10:29:48*
%MOMM*%
%LPD*%
G01*
G04 APERTURE LIST*
%TA.AperFunction,ComponentPad*%
%ADD10O,1.700000X1.000000*%
%TD*%
%TA.AperFunction,ComponentPad*%
%ADD11O,2.100000X1.000000*%
%TD*%
%TA.AperFunction,ViaPad*%
%ADD12C,0.600000*%
%TD*%
%TA.AperFunction,ViaPad*%
%ADD13C,0.450000*%
%TD*%
%TA.AperFunction,ViaPad*%
%ADD14C,0.500000*%
%TD*%
%TA.AperFunction,Conductor*%
%ADD15C,0.150000*%
%TD*%
G04 APERTURE END LIST*
D10*
%TO.N,GND*%
%TO.C,P1*%
X167644362Y-108020000D03*
D11*
X171644362Y-108020000D03*
D10*
X167644362Y-96780000D03*
D11*
X171644362Y-96780000D03*
%TD*%
D12*
%TO.N,GND*%
X156750500Y-119238631D03*
X148750500Y-119238631D03*
X160750500Y-117238631D03*
X156750500Y-117238631D03*
X160750500Y-115238631D03*
X154750500Y-115238631D03*
X150750500Y-115238631D03*
X142750500Y-115238631D03*
X158750500Y-113238631D03*
X166750500Y-111238631D03*
X172750500Y-109238631D03*
X170750500Y-109238631D03*
X168750500Y-109238631D03*
X166750500Y-109238631D03*
X156750500Y-109238631D03*
X166750500Y-107238631D03*
X156750500Y-101238631D03*
X172750500Y-97238631D03*
X170750500Y-97238631D03*
X168750500Y-97238631D03*
X166750500Y-97238631D03*
X166750500Y-95238631D03*
X164750500Y-95238631D03*
X166750500Y-93238631D03*
X164750500Y-93238631D03*
X162750500Y-93238631D03*
X160750500Y-93238631D03*
X138750500Y-93238631D03*
X162750500Y-91238631D03*
X160750500Y-91238631D03*
X162750500Y-89238631D03*
X160750500Y-89238631D03*
X146750500Y-87238631D03*
D13*
X156400000Y-85500000D03*
X150000000Y-90275003D03*
X161700000Y-104100000D03*
X152600000Y-104700000D03*
X156400000Y-87400000D03*
X158400000Y-93100000D03*
X149000000Y-103700000D03*
X145900000Y-106100000D03*
X136600000Y-107800000D03*
X155501196Y-97770866D03*
X138200000Y-111700000D03*
X138600000Y-94800000D03*
X150200000Y-108300000D03*
D14*
X148700500Y-117181150D03*
D13*
X149700000Y-95500000D03*
X144700000Y-112700000D03*
X138600000Y-95700000D03*
D14*
X152900000Y-114900000D03*
D13*
X139400000Y-111000000D03*
X159600000Y-94000000D03*
X143600000Y-105000000D03*
X150300000Y-102500000D03*
X141400000Y-100900000D03*
X164743217Y-103925285D03*
X152619302Y-91044300D03*
X155450002Y-96125002D03*
X138500000Y-99000000D03*
%TO.N,Net-(P1-D+-PadA6)*%
X165782789Y-102656998D03*
X165500000Y-101650000D03*
%TO.N,/D+*%
X160411372Y-102000000D03*
X154688407Y-96614534D03*
%TO.N,/D-*%
X153900000Y-95444720D03*
X160400000Y-102650000D03*
%TO.N,+3V0*%
X133100000Y-109000000D03*
X151150000Y-104300000D03*
X140400000Y-108300000D03*
X151113039Y-108313039D03*
X135173995Y-101600000D03*
X152400000Y-99100000D03*
X142328662Y-100069846D03*
X145900000Y-108400000D03*
X148300000Y-107800000D03*
X150250000Y-105100000D03*
X147450000Y-103900000D03*
X141600000Y-94400000D03*
X145400000Y-90000000D03*
X152050000Y-102152929D03*
%TO.N,/FLASH_CS*%
X153600000Y-93800000D03*
X156313838Y-91957526D03*
%TO.N,/VIB*%
X166000000Y-108800000D03*
X153654256Y-96892393D03*
%TO.N,/BATC_ALRT*%
X150300000Y-95400000D03*
X150500000Y-97400000D03*
%TO.N,/EPD_VCOM*%
X134100000Y-97300000D03*
%TO.N,/EPD_VGL*%
X140600000Y-95000000D03*
%TO.N,/EPD_VGH*%
X139777746Y-99575000D03*
%TO.N,Net-(J6-Pin_5)*%
X135290040Y-100186206D03*
X134300000Y-107300000D03*
%TO.N,/EPD_MOSI*%
X152862403Y-89524998D03*
X138132201Y-101676707D03*
%TO.N,/EPD_SPICL*%
X152224900Y-88425131D03*
X135220421Y-102198203D03*
%TO.N,/EPD_CSB*%
X151681914Y-89451956D03*
X138570137Y-102096485D03*
X139188285Y-97668894D03*
%TO.N,/EPD_DC*%
X154400000Y-89500000D03*
X134760991Y-102584114D03*
%TO.N,/EPD_RST_N*%
X152278420Y-89387275D03*
X138210429Y-102576707D03*
%TO.N,/EPD_BUSY*%
X146392207Y-88965002D03*
X135600000Y-103100000D03*
%TO.N,Net-(J6-Pin_16)*%
X138203576Y-103176671D03*
%TO.N,/EPD_RESR*%
X144450000Y-103674589D03*
X138395032Y-103750000D03*
%TO.N,/EPD_LIGHT_PWR_NEG*%
X142800000Y-106000000D03*
X138280459Y-104726128D03*
%TO.N,/FLASH_IO1*%
X151993007Y-94025377D03*
X156956983Y-90425002D03*
%TO.N,/FLASH_IO2*%
X152893007Y-93882907D03*
X157400000Y-91900000D03*
%TO.N,/FLASH_IO0*%
X154838799Y-91057526D03*
X158023661Y-89086932D03*
%TO.N,/FLASH_CLK*%
X151083750Y-89405025D03*
X157426092Y-89140917D03*
%TO.N,/FLASH_IO3*%
X156816827Y-89087890D03*
X151775001Y-94700001D03*
%TO.N,/VSYS*%
X154318326Y-100948383D03*
X157378383Y-98516987D03*
X140900000Y-109000000D03*
X157350000Y-104500000D03*
X145864645Y-108998957D03*
X159906250Y-108893750D03*
%TO.N,Net-(D6-A)*%
X144200000Y-112000000D03*
X144800000Y-107400000D03*
%TO.N,/CHGR_MODE*%
X154768607Y-99206169D03*
X153762403Y-89501200D03*
%TO.N,Net-(IC2-VBAT)*%
X153750000Y-105586395D03*
%TO.N,Net-(U3-PH3-BOOT0)*%
X145350000Y-97200000D03*
X149700000Y-93700000D03*
%TO.N,/CHGR_ISET*%
X156284471Y-96545244D03*
X154800000Y-95100000D03*
%TO.N,Net-(IC2-SHPACT)*%
X155355919Y-99083419D03*
%TO.N,Net-(D2-K)*%
X156951696Y-98090301D03*
X154356279Y-100349941D03*
%TO.N,Net-(D1-K)*%
X154300000Y-101548106D03*
X157800000Y-96500000D03*
%TO.N,/CHGR_SHPHLD*%
X154083757Y-102549707D03*
X155000000Y-93800000D03*
%TO.N,Net-(IC2-NTC)*%
X155300000Y-103700000D03*
%TO.N,/VUSB*%
X161500000Y-95100000D03*
X156700000Y-94400000D03*
%TO.N,/EPD_LIGHT*%
X146900000Y-103200000D03*
X143700000Y-109900000D03*
X147949403Y-91855850D03*
%TO.N,Net-(JP2-A)*%
X160900000Y-103800000D03*
%TO.N,/I2C_SCL*%
X148150000Y-97520470D03*
X149400000Y-101300000D03*
X149300000Y-97500000D03*
%TO.N,/BTN_2*%
X145600000Y-87400000D03*
X148631985Y-91985604D03*
%TO.N,/ACCL_INT2*%
X148342912Y-92513240D03*
X148318012Y-107099732D03*
%TO.N,/NRST*%
X145950000Y-107000000D03*
X154800000Y-109200000D03*
X147360586Y-91977936D03*
%TO.N,/ACCL_INT1*%
X148150000Y-93752253D03*
X148300000Y-106500000D03*
%TO.N,/BTN_4*%
X151100000Y-97500000D03*
X163700000Y-114900000D03*
%TO.N,/BTN_1*%
X144500000Y-115800000D03*
X151400000Y-96633656D03*
%TO.N,/BTN_3*%
X152154588Y-96698402D03*
X159200000Y-86900000D03*
%TO.N,/SWDIO*%
X152743199Y-97493199D03*
%TO.N,/SWDCLK*%
X153054310Y-96900627D03*
%TO.N,Net-(J18-Pin_1)*%
X156000000Y-94200000D03*
%TO.N,Net-(J17-Pin_1)*%
X154415022Y-93666570D03*
%TO.N,Net-(J16-Pin_1)*%
X156000000Y-93516395D03*
%TO.N,/SND*%
X151856722Y-92888867D03*
X157837895Y-114475032D03*
%TO.N,Net-(D9-A)*%
X163200000Y-111500000D03*
%TD*%
%TO.N,GND*%
D15*
X164743217Y-103924998D02*
X164743217Y-103925285D01*
X138600000Y-97000000D02*
X138600000Y-96900000D01*
%TO.N,+3V0*%
X141600000Y-94400000D02*
X141628662Y-94400000D01*
X145400000Y-92000000D02*
X142328662Y-95071338D01*
X140400000Y-108300000D02*
X139700000Y-109000000D01*
X140400000Y-108300000D02*
X140500000Y-108200000D01*
X152100000Y-102102929D02*
X152100000Y-99400000D01*
X141628662Y-94400000D02*
X142328662Y-95100000D01*
X150250000Y-105100000D02*
X150350000Y-105100000D01*
X150350000Y-105100000D02*
X151150000Y-104300000D01*
X147800000Y-107800000D02*
X148300000Y-107800000D01*
X147450000Y-107450000D02*
X147800000Y-107800000D01*
X140500000Y-108200000D02*
X145700000Y-108200000D01*
X147450000Y-103900000D02*
X147450000Y-107450000D01*
X152050000Y-102152929D02*
X152100000Y-102102929D01*
X145400000Y-90000000D02*
X145400000Y-92000000D01*
X142328662Y-100069846D02*
X142328662Y-95100000D01*
X145700000Y-108200000D02*
X145900000Y-108400000D01*
X142328662Y-106371338D02*
X142328662Y-100069846D01*
X140400000Y-108300000D02*
X142328662Y-106371338D01*
X139700000Y-109000000D02*
X133100000Y-109000000D01*
X142328662Y-95071338D02*
X142328662Y-95100000D01*
X152100000Y-99400000D02*
X152400000Y-99100000D01*
%TO.N,/VIB*%
X153250000Y-102873896D02*
X153250000Y-97341334D01*
X166000000Y-108850000D02*
X164950000Y-109900000D01*
X166000000Y-108800000D02*
X166000000Y-108850000D01*
X160276103Y-109900000D02*
X153250000Y-102873896D01*
X164950000Y-109900000D02*
X160276103Y-109900000D01*
X153654256Y-96937078D02*
X153654256Y-96892393D01*
X153250000Y-97341334D02*
X153654256Y-96937078D01*
%TO.N,Net-(J6-Pin_5)*%
X135290040Y-100186206D02*
X134300000Y-101176246D01*
X134300000Y-101176246D02*
X134300000Y-107300000D01*
%TO.N,/EPD_CSB*%
X138803515Y-102096485D02*
X138570137Y-102096485D01*
X139100000Y-101800000D02*
X138803515Y-102096485D01*
X139188285Y-97668894D02*
X139100000Y-97757179D01*
X139100000Y-97757179D02*
X139100000Y-101800000D01*
%TO.N,/EPD_BUSY*%
X146392207Y-88965002D02*
X145598601Y-88965002D01*
X138050000Y-96886397D02*
X138050000Y-100650000D01*
X145598601Y-88965002D02*
X139050000Y-95513603D01*
X139050000Y-95513603D02*
X139050000Y-95886396D01*
X138050000Y-100650000D02*
X135600000Y-103100000D01*
X139050000Y-95886396D02*
X138050000Y-96886397D01*
%TO.N,/VSYS*%
X159906250Y-107056250D02*
X157350000Y-104500000D01*
X154263325Y-100948383D02*
X154318326Y-100948383D01*
X154318326Y-100948383D02*
X154319329Y-100949386D01*
X141049999Y-108850001D02*
X140900000Y-109000000D01*
X154600000Y-102100000D02*
X154215497Y-102100000D01*
X159906250Y-108893750D02*
X159906250Y-107056250D01*
X153850000Y-101734503D02*
X153850000Y-101361708D01*
X154215497Y-102100000D02*
X153850000Y-101734503D01*
X145864645Y-108998957D02*
X145715689Y-108850001D01*
X154850614Y-100949386D02*
X157283013Y-98516987D01*
X145715689Y-108850001D02*
X141049999Y-108850001D01*
X153850000Y-101361708D02*
X154263325Y-100948383D01*
X157283013Y-98516987D02*
X157378383Y-98516987D01*
X154319329Y-100949386D02*
X154850614Y-100949386D01*
X157000000Y-104500000D02*
X154600000Y-102100000D01*
X157350000Y-104500000D02*
X157000000Y-104500000D01*
%TO.N,/CHGR_MODE*%
X155550000Y-92913603D02*
X153762403Y-91126006D01*
X154768607Y-99034334D02*
X155582075Y-98220866D01*
X153762403Y-91126006D02*
X153762403Y-89501200D01*
X155582075Y-98220866D02*
X155687594Y-98220866D01*
X156734471Y-96348810D02*
X155550000Y-95164339D01*
X155550000Y-95164339D02*
X155550000Y-92913603D01*
X156734471Y-97173989D02*
X156734471Y-96348810D01*
X154768607Y-99206169D02*
X154768607Y-99034334D01*
X155687594Y-98220866D02*
X156734471Y-97173989D01*
%TO.N,/CHGR_ISET*%
X156284471Y-96323074D02*
X156284471Y-96545244D01*
X155061397Y-95100000D02*
X156284471Y-96323074D01*
X154800000Y-95100000D02*
X155061397Y-95100000D01*
%TO.N,Net-(D2-K)*%
X154356279Y-100349941D02*
X154725795Y-100349941D01*
X156951696Y-98124040D02*
X156951696Y-98090301D01*
X154725795Y-100349941D02*
X156951696Y-98124040D01*
%TO.N,Net-(D1-K)*%
X154300000Y-101548106D02*
X154983661Y-101548106D01*
X157828383Y-98703384D02*
X157828383Y-96528383D01*
X154983661Y-101548106D02*
X157828383Y-98703384D01*
X157828383Y-96528383D02*
X157800000Y-96500000D01*
%TO.N,/CHGR_SHPHLD*%
X155000000Y-94263603D02*
X154350000Y-94913603D01*
X153550000Y-102015950D02*
X154083757Y-102549707D01*
X154104256Y-96562288D02*
X154104256Y-99965567D01*
X154104256Y-99965567D02*
X153550000Y-100519823D01*
X154350000Y-94913603D02*
X154350000Y-96316544D01*
X155000000Y-93800000D02*
X155000000Y-94263603D01*
X154350000Y-96316544D02*
X154104256Y-96562288D01*
X153550000Y-100519823D02*
X153550000Y-102015950D01*
%TO.N,/VUSB*%
X156700000Y-94400000D02*
X157400000Y-95100000D01*
X157400000Y-95100000D02*
X161500000Y-95100000D01*
%TO.N,/EPD_LIGHT*%
X147949403Y-92294948D02*
X146400000Y-93844351D01*
X146700000Y-103400000D02*
X146400000Y-103400000D01*
X146700000Y-103700000D02*
X146700000Y-108800000D01*
X146700000Y-108800000D02*
X145600000Y-109900000D01*
X146400000Y-93844351D02*
X146400000Y-103400000D01*
X147949403Y-91855850D02*
X147949403Y-92294948D01*
X145600000Y-109900000D02*
X143700000Y-109900000D01*
X146900000Y-103200000D02*
X146700000Y-103400000D01*
X146400000Y-103400000D02*
X146700000Y-103700000D01*
%TO.N,/BTN_2*%
X148631985Y-91985604D02*
X148631985Y-90231985D01*
X148631985Y-90231985D02*
X145800000Y-87400000D01*
X145800000Y-87400000D02*
X145600000Y-87400000D01*
%TO.N,/ACCL_INT2*%
X148336665Y-107099732D02*
X148750000Y-106686397D01*
X148300000Y-105863603D02*
X148300000Y-99000000D01*
X148750000Y-106686397D02*
X148750000Y-106313603D01*
X148300000Y-99000000D02*
X148600000Y-98700000D01*
X148600000Y-98700000D02*
X148600000Y-92770328D01*
X148318012Y-107099732D02*
X148336665Y-107099732D01*
X148750000Y-106313603D02*
X148300000Y-105863603D01*
X148600000Y-92770328D02*
X148342912Y-92513240D01*
%TO.N,/NRST*%
X144900000Y-106413103D02*
X144900000Y-94438522D01*
X144900000Y-94438522D02*
X147360586Y-91977936D01*
X145486897Y-107000000D02*
X144900000Y-106413103D01*
X145950000Y-107000000D02*
X145486897Y-107000000D01*
%TO.N,/ACCL_INT1*%
X148300000Y-106500000D02*
X147900000Y-106100000D01*
X147900000Y-106100000D02*
X147900000Y-99000000D01*
X148150000Y-94286397D02*
X147700000Y-94736397D01*
X147900000Y-99000000D02*
X147700000Y-98800000D01*
X147700000Y-98800000D02*
X147700000Y-94736397D01*
X148150000Y-93752253D02*
X148150000Y-94286397D01*
%TO.N,/BTN_4*%
X151100000Y-97500000D02*
X151100000Y-102300000D01*
X151100000Y-102300000D02*
X163700000Y-114900000D01*
%TO.N,/BTN_1*%
X144500000Y-116575000D02*
X144500000Y-115800000D01*
X145025000Y-117100000D02*
X144500000Y-116575000D01*
X147536397Y-117100000D02*
X145025000Y-117100000D01*
X149468198Y-105245405D02*
X149468198Y-115168198D01*
X150566344Y-96633656D02*
X149850000Y-97350000D01*
X149850000Y-97350000D02*
X149850000Y-104863603D01*
X149468198Y-115168198D02*
X147536397Y-117100000D01*
X149850000Y-104863603D02*
X149468198Y-105245405D01*
X151400000Y-96633656D02*
X150566344Y-96633656D01*
%TO.N,/BTN_3*%
X152443007Y-96409983D02*
X152443007Y-93079207D01*
X153312403Y-92209810D02*
X153312403Y-88987597D01*
X152154588Y-96698402D02*
X152443007Y-96409983D01*
X152443007Y-93079207D02*
X153312403Y-92209810D01*
X153312403Y-88987597D02*
X153663068Y-88636932D01*
X157463068Y-88636932D02*
X159200000Y-86900000D01*
X153663068Y-88636932D02*
X157463068Y-88636932D01*
%TD*%
%TA.AperFunction,Conductor*%
%TO.N,GND*%
G36*
X155570381Y-84933532D02*
G01*
X155575996Y-84934451D01*
X156380705Y-85085286D01*
X156386274Y-85086463D01*
X157051563Y-85243368D01*
X157183158Y-85274404D01*
X157188716Y-85275852D01*
X157975980Y-85500474D01*
X157981465Y-85502177D01*
X158757512Y-85763023D01*
X158762883Y-85764967D01*
X159526052Y-86061482D01*
X159531327Y-86063674D01*
X160279906Y-86395191D01*
X160285097Y-86397635D01*
X161017528Y-86763464D01*
X161022581Y-86766135D01*
X161530765Y-87050091D01*
X161737294Y-87165492D01*
X161742241Y-87168409D01*
X162437685Y-87600425D01*
X162442471Y-87603553D01*
X163079828Y-88041647D01*
X163117178Y-88067320D01*
X163121833Y-88070681D01*
X163773780Y-88564769D01*
X163774315Y-88565174D01*
X163778805Y-88568743D01*
X164387403Y-89076010D01*
X164407705Y-89092931D01*
X164412024Y-89096704D01*
X165015985Y-89649460D01*
X165020109Y-89653414D01*
X165597829Y-90233547D01*
X165601764Y-90237687D01*
X165630382Y-90269218D01*
X165655774Y-90297196D01*
X165686252Y-90360068D01*
X165677901Y-90429436D01*
X165633371Y-90483278D01*
X165588144Y-90502148D01*
X165408170Y-90537947D01*
X165408160Y-90537950D01*
X165226092Y-90613364D01*
X165226079Y-90613371D01*
X165062218Y-90722860D01*
X165062214Y-90722863D01*
X164922863Y-90862214D01*
X164922860Y-90862218D01*
X164813371Y-91026079D01*
X164813364Y-91026092D01*
X164737950Y-91208160D01*
X164737947Y-91208170D01*
X164699500Y-91401456D01*
X164699500Y-91401459D01*
X164699500Y-91421750D01*
X164699500Y-91598541D01*
X164699500Y-91598543D01*
X164699499Y-91598543D01*
X164737947Y-91791829D01*
X164737950Y-91791839D01*
X164813364Y-91973907D01*
X164813371Y-91973920D01*
X164922860Y-92137781D01*
X164922863Y-92137785D01*
X165062214Y-92277136D01*
X165062218Y-92277139D01*
X165226079Y-92386628D01*
X165226092Y-92386635D01*
X165408160Y-92462049D01*
X165408165Y-92462051D01*
X165408169Y-92462051D01*
X165408170Y-92462052D01*
X165601456Y-92500500D01*
X165601459Y-92500500D01*
X165798543Y-92500500D01*
X165932196Y-92473914D01*
X165991835Y-92462051D01*
X166173914Y-92386632D01*
X166337782Y-92277139D01*
X166477139Y-92137782D01*
X166586632Y-91973914D01*
X166662051Y-91791835D01*
X166662052Y-91791827D01*
X166663050Y-91788540D01*
X166664045Y-91787021D01*
X166664382Y-91786208D01*
X166664536Y-91786271D01*
X166701343Y-91730098D01*
X166765153Y-91701637D01*
X166834220Y-91712192D01*
X166880850Y-91750042D01*
X167172634Y-92138404D01*
X167175977Y-92143075D01*
X167341898Y-92386632D01*
X167632843Y-92813713D01*
X167636910Y-92819682D01*
X167640026Y-92824492D01*
X167836861Y-93144314D01*
X168069150Y-93521745D01*
X168072046Y-93526705D01*
X168468408Y-94243056D01*
X168471071Y-94248144D01*
X168832038Y-94978441D01*
X168833159Y-94980769D01*
X168834355Y-94983321D01*
X168846886Y-95013574D01*
X168849982Y-95016670D01*
X168851873Y-95020705D01*
X168851946Y-95020805D01*
X168851948Y-95020807D01*
X168851949Y-95020808D01*
X168878149Y-95044837D01*
X168903288Y-95069976D01*
X168907429Y-95071691D01*
X168910734Y-95074722D01*
X168944136Y-95086895D01*
X168976980Y-95100500D01*
X168981463Y-95100500D01*
X168985675Y-95102035D01*
X168985677Y-95102034D01*
X168985678Y-95102035D01*
X169010908Y-95100944D01*
X169018509Y-95100615D01*
X169023864Y-95100500D01*
X173519862Y-95100500D01*
X173586901Y-95120185D01*
X173632656Y-95172989D01*
X173643862Y-95224500D01*
X173643862Y-97525500D01*
X173624177Y-97592539D01*
X173571373Y-97638294D01*
X173519862Y-97649500D01*
X167204478Y-97649500D01*
X167130787Y-97680024D01*
X167074386Y-97736425D01*
X167043862Y-97810116D01*
X167043862Y-106889883D01*
X167070359Y-106953852D01*
X167074386Y-106963574D01*
X167130788Y-107019976D01*
X167204480Y-107050500D01*
X173519862Y-107050500D01*
X173586901Y-107070185D01*
X173632656Y-107122989D01*
X173643862Y-107174500D01*
X173643862Y-109775500D01*
X173624177Y-109842539D01*
X173571373Y-109888294D01*
X173519862Y-109899500D01*
X169021193Y-109899500D01*
X168985675Y-109897965D01*
X168981463Y-109899500D01*
X168976980Y-109899500D01*
X168946602Y-109912082D01*
X168941614Y-109914023D01*
X168910729Y-109925279D01*
X168910249Y-109925570D01*
X168910250Y-109925571D01*
X168904860Y-109928844D01*
X168903764Y-109929705D01*
X168903289Y-109930022D01*
X168880045Y-109953265D01*
X168876183Y-109956964D01*
X168851949Y-109979190D01*
X168851613Y-109979650D01*
X168851610Y-109979653D01*
X168847888Y-109984732D01*
X168847204Y-109985948D01*
X168846887Y-109986421D01*
X168835432Y-110014076D01*
X168832034Y-110021565D01*
X168471071Y-110751855D01*
X168468408Y-110756943D01*
X168072046Y-111473294D01*
X168069150Y-111478254D01*
X167640033Y-112175497D01*
X167636910Y-112180317D01*
X167175977Y-112856924D01*
X167172634Y-112861595D01*
X166880850Y-113249957D01*
X166824844Y-113291730D01*
X166755143Y-113296593D01*
X166693879Y-113263001D01*
X166664431Y-113213771D01*
X166664382Y-113213792D01*
X166664242Y-113213454D01*
X166663051Y-113211463D01*
X166662049Y-113208160D01*
X166586635Y-113026092D01*
X166586628Y-113026079D01*
X166477139Y-112862218D01*
X166477136Y-112862214D01*
X166337785Y-112722863D01*
X166337781Y-112722860D01*
X166173920Y-112613371D01*
X166173907Y-112613364D01*
X165991839Y-112537950D01*
X165991829Y-112537947D01*
X165798543Y-112499500D01*
X165798541Y-112499500D01*
X165601459Y-112499500D01*
X165601457Y-112499500D01*
X165408170Y-112537947D01*
X165408160Y-112537950D01*
X165226092Y-112613364D01*
X165226079Y-112613371D01*
X165062218Y-112722860D01*
X165062214Y-112722863D01*
X164922863Y-112862214D01*
X164922860Y-112862218D01*
X164813371Y-113026079D01*
X164813364Y-113026092D01*
X164737950Y-113208160D01*
X164737947Y-113208170D01*
X164699500Y-113401456D01*
X164699500Y-113401459D01*
X164699500Y-113421750D01*
X164699500Y-113598541D01*
X164699500Y-113598543D01*
X164699499Y-113598543D01*
X164737947Y-113791829D01*
X164737950Y-113791839D01*
X164813364Y-113973907D01*
X164813371Y-113973920D01*
X164922860Y-114137781D01*
X164922863Y-114137785D01*
X165062214Y-114277136D01*
X165062218Y-114277139D01*
X165226079Y-114386628D01*
X165226092Y-114386635D01*
X165320161Y-114425599D01*
X165408165Y-114462051D01*
X165588143Y-114497851D01*
X165594470Y-114501160D01*
X165601612Y-114501325D01*
X165625024Y-114517143D01*
X165650054Y-114530236D01*
X165653587Y-114536441D01*
X165659507Y-114540441D01*
X165670649Y-114566404D01*
X165684628Y-114590951D01*
X165684245Y-114598082D01*
X165687063Y-114604647D01*
X165682400Y-114632511D01*
X165680889Y-114660721D01*
X165676431Y-114668190D01*
X165675533Y-114673558D01*
X165655774Y-114702803D01*
X165601776Y-114762300D01*
X165597818Y-114766463D01*
X165020120Y-115346574D01*
X165015974Y-115350549D01*
X164412031Y-115903289D01*
X164407705Y-115907068D01*
X163778811Y-116431251D01*
X163774315Y-116434825D01*
X163121834Y-116929317D01*
X163117178Y-116932679D01*
X162442493Y-117396431D01*
X162437685Y-117399574D01*
X161742241Y-117831590D01*
X161737294Y-117834507D01*
X161022593Y-118233857D01*
X161017516Y-118236541D01*
X160285103Y-118602361D01*
X160279906Y-118604808D01*
X159531342Y-118936319D01*
X159526038Y-118938523D01*
X158762898Y-119235026D01*
X158757498Y-119236981D01*
X157981465Y-119497822D01*
X157975980Y-119499525D01*
X157188716Y-119724147D01*
X157183158Y-119725595D01*
X156386299Y-119913530D01*
X156380680Y-119914718D01*
X155576023Y-120065543D01*
X155570354Y-120066471D01*
X154759521Y-120179881D01*
X154753817Y-120180544D01*
X153938646Y-120256282D01*
X153932916Y-120256681D01*
X153115091Y-120294593D01*
X153109349Y-120294726D01*
X152290651Y-120294726D01*
X152284909Y-120294593D01*
X151467083Y-120256681D01*
X151461353Y-120256282D01*
X150646182Y-120180544D01*
X150640478Y-120179881D01*
X149829645Y-120066471D01*
X149823976Y-120065543D01*
X149019319Y-119914718D01*
X149013700Y-119913530D01*
X148216841Y-119725595D01*
X148211283Y-119724147D01*
X147424019Y-119499525D01*
X147418534Y-119497822D01*
X146642501Y-119236981D01*
X146637101Y-119235026D01*
X145873961Y-118938523D01*
X145868657Y-118936319D01*
X145120093Y-118604808D01*
X145114896Y-118602361D01*
X144382483Y-118236541D01*
X144377406Y-118233857D01*
X143662705Y-117834507D01*
X143657758Y-117831590D01*
X142962314Y-117399574D01*
X142957518Y-117396439D01*
X142282821Y-116932679D01*
X142278165Y-116929317D01*
X141625684Y-116434825D01*
X141621188Y-116431251D01*
X141448739Y-116287515D01*
X140992290Y-115907065D01*
X140987968Y-115903289D01*
X140970733Y-115887515D01*
X140384015Y-115350540D01*
X140379879Y-115346574D01*
X139802169Y-114766451D01*
X139798236Y-114762313D01*
X139405956Y-114330091D01*
X139248016Y-114156069D01*
X139244256Y-114151729D01*
X139238264Y-114144479D01*
X139210729Y-114080264D01*
X139222282Y-114011356D01*
X139269256Y-113959633D01*
X139336736Y-113941517D01*
X139381295Y-113950921D01*
X139408165Y-113962051D01*
X139408169Y-113962051D01*
X139408170Y-113962052D01*
X139601456Y-114000500D01*
X139601459Y-114000500D01*
X139798543Y-114000500D01*
X139932196Y-113973914D01*
X139991835Y-113962051D01*
X140173914Y-113886632D01*
X140337782Y-113777139D01*
X140477139Y-113637782D01*
X140586632Y-113473914D01*
X140662051Y-113291835D01*
X140686934Y-113166743D01*
X140700500Y-113098543D01*
X140700500Y-112901456D01*
X140662052Y-112708170D01*
X140662051Y-112708169D01*
X140662051Y-112708165D01*
X140631765Y-112635048D01*
X140586635Y-112526092D01*
X140586628Y-112526079D01*
X140477139Y-112362218D01*
X140477136Y-112362214D01*
X140337785Y-112222863D01*
X140337781Y-112222860D01*
X140173920Y-112113371D01*
X140173907Y-112113364D01*
X140037827Y-112056999D01*
X139991839Y-112037950D01*
X139991829Y-112037947D01*
X139798543Y-111999500D01*
X139798541Y-111999500D01*
X139601459Y-111999500D01*
X139601457Y-111999500D01*
X139408170Y-112037947D01*
X139408160Y-112037950D01*
X139226092Y-112113364D01*
X139226079Y-112113371D01*
X139062218Y-112222860D01*
X139062214Y-112222863D01*
X138922863Y-112362214D01*
X138922860Y-112362218D01*
X138813371Y-112526079D01*
X138813364Y-112526092D01*
X138737950Y-112708160D01*
X138737947Y-112708170D01*
X138699500Y-112901456D01*
X138699500Y-113098543D01*
X138700097Y-113104606D01*
X138698540Y-113104759D01*
X138692983Y-113166743D01*
X138650110Y-113221912D01*
X138584216Y-113245145D01*
X138516222Y-113229065D01*
X138478465Y-113195807D01*
X138227364Y-112861594D01*
X138224022Y-112856924D01*
X138058104Y-112613371D01*
X137763075Y-112180296D01*
X137759979Y-112175518D01*
X137621532Y-111950565D01*
X143824500Y-111950565D01*
X143824500Y-112049435D01*
X143850090Y-112144938D01*
X143899525Y-112230562D01*
X143969438Y-112300475D01*
X144055062Y-112349910D01*
X144150565Y-112375500D01*
X144150567Y-112375500D01*
X144249432Y-112375500D01*
X144249435Y-112375500D01*
X144344938Y-112349910D01*
X144430562Y-112300475D01*
X144500475Y-112230562D01*
X144549910Y-112144938D01*
X144575500Y-112049435D01*
X144575500Y-111950565D01*
X144549910Y-111855062D01*
X144500475Y-111769438D01*
X144430562Y-111699525D01*
X144344938Y-111650090D01*
X144249435Y-111624500D01*
X144150565Y-111624500D01*
X144055062Y-111650090D01*
X144055060Y-111650091D01*
X144055059Y-111650091D01*
X143969436Y-111699526D01*
X143899526Y-111769436D01*
X143850091Y-111855059D01*
X143850091Y-111855060D01*
X143850090Y-111855062D01*
X143824500Y-111950565D01*
X137621532Y-111950565D01*
X137330847Y-111478251D01*
X137327953Y-111473294D01*
X137315377Y-111450565D01*
X136931586Y-110756934D01*
X136928928Y-110751855D01*
X136567931Y-110021497D01*
X136566840Y-110019232D01*
X136565650Y-110016693D01*
X136553114Y-109986426D01*
X136550016Y-109983328D01*
X136548127Y-109979296D01*
X136548050Y-109979191D01*
X136523817Y-109956966D01*
X136523816Y-109956965D01*
X136521848Y-109955160D01*
X136496712Y-109930024D01*
X136492570Y-109928308D01*
X136490507Y-109926416D01*
X136489265Y-109925277D01*
X136458370Y-109914017D01*
X136455863Y-109913104D01*
X136423020Y-109899500D01*
X136418537Y-109899500D01*
X136414325Y-109897965D01*
X136414322Y-109897964D01*
X136382588Y-109899336D01*
X136381490Y-109899384D01*
X136376136Y-109899500D01*
X132524500Y-109899500D01*
X132457461Y-109879815D01*
X132411706Y-109827011D01*
X132400500Y-109775500D01*
X132400500Y-97250565D01*
X133724500Y-97250565D01*
X133724500Y-97349435D01*
X133750090Y-97444938D01*
X133799525Y-97530562D01*
X133869438Y-97600475D01*
X133955062Y-97649910D01*
X134050565Y-97675500D01*
X134050567Y-97675500D01*
X134149432Y-97675500D01*
X134149435Y-97675500D01*
X134244938Y-97649910D01*
X134330562Y-97600475D01*
X134400475Y-97530562D01*
X134449910Y-97444938D01*
X134475500Y-97349435D01*
X134475500Y-97250565D01*
X134449910Y-97155062D01*
X134400475Y-97069438D01*
X134330562Y-96999525D01*
X134244938Y-96950090D01*
X134149435Y-96924500D01*
X134050565Y-96924500D01*
X133955062Y-96950090D01*
X133955060Y-96950091D01*
X133955059Y-96950091D01*
X133869436Y-96999526D01*
X133799526Y-97069436D01*
X133750091Y-97155059D01*
X133750091Y-97155060D01*
X133750090Y-97155062D01*
X133724500Y-97250565D01*
X132400500Y-97250565D01*
X132400500Y-95224500D01*
X132420185Y-95157461D01*
X132472989Y-95111706D01*
X132524500Y-95100500D01*
X136378807Y-95100500D01*
X136414325Y-95102035D01*
X136418537Y-95100500D01*
X136423020Y-95100500D01*
X136455863Y-95086895D01*
X136489266Y-95074722D01*
X136492567Y-95071693D01*
X136496704Y-95069980D01*
X136496706Y-95069978D01*
X136496712Y-95069976D01*
X136521850Y-95044837D01*
X136548051Y-95020808D01*
X136549943Y-95016744D01*
X136553114Y-95013574D01*
X136564568Y-94985918D01*
X136567955Y-94978451D01*
X136928941Y-94248117D01*
X136931577Y-94243082D01*
X137327965Y-93526683D01*
X137330836Y-93521767D01*
X137759992Y-92824461D01*
X137763062Y-92819722D01*
X138224037Y-92143053D01*
X138227349Y-92138425D01*
X138478466Y-91804190D01*
X138534470Y-91762420D01*
X138604171Y-91757557D01*
X138665435Y-91791149D01*
X138698813Y-91852531D01*
X138699162Y-91895301D01*
X138700097Y-91895394D01*
X138699500Y-91901456D01*
X138699500Y-91901459D01*
X138699500Y-91921750D01*
X138699500Y-92098541D01*
X138699500Y-92098543D01*
X138699499Y-92098543D01*
X138737947Y-92291826D01*
X138737950Y-92291839D01*
X138813364Y-92473907D01*
X138813371Y-92473920D01*
X138922860Y-92637781D01*
X138922863Y-92637785D01*
X139062214Y-92777136D01*
X139062218Y-92777139D01*
X139226079Y-92886628D01*
X139226092Y-92886635D01*
X139399495Y-92958460D01*
X139408165Y-92962051D01*
X139408169Y-92962051D01*
X139408170Y-92962052D01*
X139601456Y-93000500D01*
X139601459Y-93000500D01*
X139798543Y-93000500D01*
X139948409Y-92970689D01*
X139991835Y-92962051D01*
X140170522Y-92888037D01*
X140173907Y-92886635D01*
X140173907Y-92886634D01*
X140173914Y-92886632D01*
X140337782Y-92777139D01*
X140477139Y-92637782D01*
X140586632Y-92473914D01*
X140662051Y-92291835D01*
X140663196Y-92286079D01*
X140700500Y-92098543D01*
X140700500Y-91901456D01*
X140662052Y-91708170D01*
X140662051Y-91708169D01*
X140662051Y-91708165D01*
X140646009Y-91669436D01*
X140586635Y-91526092D01*
X140586628Y-91526079D01*
X140477139Y-91362218D01*
X140477136Y-91362214D01*
X140337785Y-91222863D01*
X140337781Y-91222860D01*
X140173920Y-91113371D01*
X140173907Y-91113364D01*
X139991839Y-91037950D01*
X139991829Y-91037947D01*
X139798543Y-90999500D01*
X139798541Y-90999500D01*
X139601459Y-90999500D01*
X139601457Y-90999500D01*
X139408170Y-91037947D01*
X139408160Y-91037950D01*
X139381295Y-91049078D01*
X139375975Y-91049649D01*
X139371544Y-91052646D01*
X139341604Y-91053344D01*
X139311826Y-91056545D01*
X139307042Y-91054150D01*
X139301694Y-91054275D01*
X139276128Y-91038675D01*
X139249347Y-91025269D01*
X139246617Y-91020668D01*
X139242051Y-91017882D01*
X139228977Y-90990936D01*
X139213696Y-90965179D01*
X139213887Y-90959832D01*
X139211552Y-90955020D01*
X139215121Y-90925286D01*
X139216191Y-90895354D01*
X139219412Y-90889539D01*
X139219880Y-90885648D01*
X139238264Y-90855520D01*
X139244256Y-90848270D01*
X139248005Y-90843942D01*
X139798256Y-90237663D01*
X139802148Y-90233569D01*
X140379911Y-89653393D01*
X140383992Y-89649480D01*
X140987996Y-89096685D01*
X140992265Y-89092955D01*
X141310717Y-88827525D01*
X142849500Y-88827525D01*
X142849500Y-88972475D01*
X142886335Y-89109942D01*
X142887017Y-89112488D01*
X142959488Y-89238011D01*
X142959490Y-89238013D01*
X142959491Y-89238015D01*
X143061985Y-89340509D01*
X143061986Y-89340510D01*
X143061988Y-89340511D01*
X143187511Y-89412982D01*
X143187512Y-89412982D01*
X143187515Y-89412984D01*
X143327525Y-89450500D01*
X143327528Y-89450500D01*
X143472472Y-89450500D01*
X143472475Y-89450500D01*
X143612485Y-89412984D01*
X143738015Y-89340509D01*
X143840509Y-89238015D01*
X143912984Y-89112485D01*
X143950500Y-88972475D01*
X143950500Y-88827525D01*
X143912984Y-88687515D01*
X143899712Y-88664528D01*
X143840511Y-88561988D01*
X143840506Y-88561982D01*
X143738017Y-88459493D01*
X143738011Y-88459488D01*
X143612488Y-88387017D01*
X143612489Y-88387017D01*
X143578169Y-88377821D01*
X143472475Y-88349500D01*
X143327525Y-88349500D01*
X143221831Y-88377821D01*
X143187511Y-88387017D01*
X143061988Y-88459488D01*
X143061982Y-88459493D01*
X142959493Y-88561982D01*
X142959488Y-88561988D01*
X142887017Y-88687511D01*
X142887016Y-88687515D01*
X142849500Y-88827525D01*
X141310717Y-88827525D01*
X141621214Y-88568726D01*
X141625657Y-88565194D01*
X142278186Y-88070666D01*
X142282798Y-88067335D01*
X142957548Y-87603540D01*
X142962291Y-87600439D01*
X143606139Y-87200475D01*
X143657758Y-87168409D01*
X143662688Y-87165501D01*
X144377436Y-86766125D01*
X144382453Y-86763473D01*
X145114918Y-86397627D01*
X145120071Y-86395201D01*
X145868687Y-86063667D01*
X145873931Y-86061488D01*
X146637129Y-85764962D01*
X146642473Y-85763028D01*
X147111493Y-85605379D01*
X147181310Y-85602680D01*
X147241505Y-85638154D01*
X147272964Y-85700541D01*
X147275000Y-85722918D01*
X147275000Y-87900000D01*
X151921824Y-87900000D01*
X151988863Y-87919685D01*
X152034618Y-87972489D01*
X152044562Y-88041647D01*
X152015537Y-88105203D01*
X151997309Y-88122377D01*
X151994335Y-88124658D01*
X151924426Y-88194567D01*
X151874991Y-88280190D01*
X151874991Y-88280191D01*
X151874990Y-88280193D01*
X151849400Y-88375696D01*
X151849400Y-88474566D01*
X151874990Y-88570069D01*
X151924425Y-88655693D01*
X151994338Y-88725606D01*
X152079962Y-88775041D01*
X152149221Y-88793599D01*
X152208881Y-88829963D01*
X152239410Y-88892810D01*
X152231115Y-88962185D01*
X152186630Y-89016063D01*
X152181308Y-89019471D01*
X152166235Y-89028588D01*
X152133482Y-89037365D01*
X152047858Y-89086800D01*
X152013946Y-89120711D01*
X152001078Y-89128496D01*
X151981253Y-89133736D01*
X151963253Y-89143565D01*
X151948157Y-89142485D01*
X151933529Y-89146352D01*
X151914017Y-89140042D01*
X151893561Y-89138579D01*
X151874897Y-89129785D01*
X151826852Y-89102046D01*
X151731349Y-89076456D01*
X151632479Y-89076456D01*
X151536976Y-89102046D01*
X151536974Y-89102046D01*
X151536974Y-89102047D01*
X151536971Y-89102048D01*
X151476623Y-89136889D01*
X151408723Y-89153360D01*
X151342696Y-89130507D01*
X151326944Y-89117182D01*
X151314313Y-89104551D01*
X151314312Y-89104550D01*
X151228688Y-89055115D01*
X151133185Y-89029525D01*
X151034315Y-89029525D01*
X150938812Y-89055115D01*
X150938810Y-89055116D01*
X150938809Y-89055116D01*
X150853186Y-89104551D01*
X150783276Y-89174461D01*
X150733841Y-89260084D01*
X150733841Y-89260085D01*
X150733840Y-89260087D01*
X150708250Y-89355590D01*
X150708250Y-89454460D01*
X150733840Y-89549963D01*
X150783275Y-89635587D01*
X150853188Y-89705500D01*
X150938812Y-89754935D01*
X151034315Y-89780525D01*
X151034317Y-89780525D01*
X151133182Y-89780525D01*
X151133185Y-89780525D01*
X151228688Y-89754935D01*
X151289039Y-89720091D01*
X151356936Y-89703619D01*
X151422963Y-89726471D01*
X151438716Y-89739795D01*
X151451352Y-89752431D01*
X151536976Y-89801866D01*
X151632479Y-89827456D01*
X151632481Y-89827456D01*
X151731346Y-89827456D01*
X151731349Y-89827456D01*
X151826852Y-89801866D01*
X151912476Y-89752431D01*
X151935757Y-89729149D01*
X151997076Y-89695666D01*
X152066768Y-89700649D01*
X152085425Y-89709439D01*
X152133482Y-89737185D01*
X152228985Y-89762775D01*
X152228987Y-89762775D01*
X152327852Y-89762775D01*
X152327855Y-89762775D01*
X152423358Y-89737185D01*
X152423367Y-89737179D01*
X152430868Y-89734074D01*
X152432141Y-89737149D01*
X152484926Y-89724285D01*
X152550977Y-89747068D01*
X152566838Y-89760470D01*
X152631841Y-89825473D01*
X152717465Y-89874908D01*
X152812968Y-89900498D01*
X152812970Y-89900498D01*
X152911835Y-89900498D01*
X152911838Y-89900498D01*
X152930811Y-89895414D01*
X153000659Y-89897077D01*
X153058522Y-89936239D01*
X153086026Y-90000468D01*
X153086903Y-90015189D01*
X153086903Y-92065042D01*
X153067218Y-92132081D01*
X153050584Y-92152723D01*
X152411883Y-92791424D01*
X152350560Y-92824909D01*
X152280868Y-92819925D01*
X152224935Y-92778053D01*
X152209638Y-92751189D01*
X152206633Y-92743935D01*
X152206632Y-92743929D01*
X152157197Y-92658305D01*
X152087284Y-92588392D01*
X152001660Y-92538957D01*
X151906157Y-92513367D01*
X151807287Y-92513367D01*
X151711784Y-92538957D01*
X151711782Y-92538958D01*
X151711781Y-92538958D01*
X151626158Y-92588393D01*
X151556248Y-92658303D01*
X151506813Y-92743926D01*
X151506813Y-92743927D01*
X151506812Y-92743929D01*
X151481222Y-92839432D01*
X151481222Y-92938302D01*
X151506812Y-93033805D01*
X151506813Y-93033806D01*
X151506813Y-93033807D01*
X151520059Y-93056749D01*
X151556247Y-93119429D01*
X151626160Y-93189342D01*
X151711784Y-93238777D01*
X151807287Y-93264367D01*
X151807289Y-93264367D01*
X151906154Y-93264367D01*
X151906157Y-93264367D01*
X152001660Y-93238777D01*
X152031507Y-93221544D01*
X152037407Y-93220112D01*
X152041996Y-93216137D01*
X152070960Y-93211972D01*
X152099405Y-93205071D01*
X152105143Y-93207057D01*
X152111154Y-93206193D01*
X152137774Y-93218350D01*
X152165432Y-93227922D01*
X152169185Y-93232695D01*
X152174710Y-93235218D01*
X152190533Y-93259839D01*
X152208624Y-93282843D01*
X152210040Y-93290194D01*
X152212484Y-93293996D01*
X152217507Y-93328931D01*
X152217507Y-93535185D01*
X152197822Y-93602224D01*
X152145018Y-93647979D01*
X152075860Y-93657923D01*
X152061417Y-93654961D01*
X152050729Y-93652097D01*
X152042442Y-93649877D01*
X151943572Y-93649877D01*
X151848069Y-93675467D01*
X151848067Y-93675468D01*
X151848066Y-93675468D01*
X151762443Y-93724903D01*
X151692533Y-93794813D01*
X151643098Y-93880436D01*
X151643098Y-93880437D01*
X151643097Y-93880439D01*
X151617507Y-93975942D01*
X151617507Y-94074812D01*
X151643097Y-94170315D01*
X151643098Y-94170316D01*
X151643099Y-94170319D01*
X151655684Y-94192118D01*
X151672155Y-94260019D01*
X151649302Y-94326045D01*
X151610297Y-94361502D01*
X151544438Y-94399526D01*
X151474527Y-94469437D01*
X151425092Y-94555060D01*
X151425092Y-94555061D01*
X151425091Y-94555063D01*
X151399501Y-94650566D01*
X151399501Y-94749436D01*
X151425091Y-94844939D01*
X151425092Y-94844940D01*
X151425092Y-94844941D01*
X151433855Y-94860118D01*
X151474526Y-94930563D01*
X151544439Y-95000476D01*
X151630063Y-95049911D01*
X151725566Y-95075501D01*
X151725568Y-95075501D01*
X151824433Y-95075501D01*
X151824436Y-95075501D01*
X151919939Y-95049911D01*
X152005563Y-95000476D01*
X152005826Y-95000213D01*
X152006102Y-95000061D01*
X152012013Y-94995527D01*
X152012720Y-94996448D01*
X152067149Y-94966728D01*
X152136841Y-94971712D01*
X152192774Y-95013584D01*
X152217191Y-95079048D01*
X152217507Y-95087894D01*
X152217507Y-96199365D01*
X152197822Y-96266404D01*
X152145018Y-96312159D01*
X152109698Y-96322303D01*
X152105161Y-96322900D01*
X152105154Y-96322902D01*
X152105153Y-96322902D01*
X152009650Y-96348492D01*
X152009648Y-96348493D01*
X152009647Y-96348493D01*
X151924024Y-96397928D01*
X151894675Y-96427277D01*
X151833351Y-96460762D01*
X151763660Y-96455776D01*
X151707727Y-96413904D01*
X151701349Y-96404233D01*
X151700475Y-96403094D01*
X151630563Y-96333182D01*
X151630562Y-96333181D01*
X151544938Y-96283746D01*
X151449435Y-96258156D01*
X151350565Y-96258156D01*
X151255062Y-96283746D01*
X151255060Y-96283747D01*
X151255059Y-96283747D01*
X151169436Y-96333182D01*
X151130780Y-96371838D01*
X151069457Y-96405323D01*
X151043100Y-96408156D01*
X150611198Y-96408156D01*
X150521489Y-96408156D01*
X150521487Y-96408156D01*
X150521485Y-96408157D01*
X150438610Y-96442483D01*
X149722265Y-97158828D01*
X149722265Y-97158829D01*
X149722264Y-97158830D01*
X149706052Y-97175042D01*
X149692898Y-97188196D01*
X149631574Y-97221680D01*
X149561882Y-97216694D01*
X149537750Y-97203328D01*
X149537600Y-97203589D01*
X149530563Y-97199526D01*
X149530562Y-97199525D01*
X149444938Y-97150090D01*
X149349435Y-97124500D01*
X149250565Y-97124500D01*
X149155062Y-97150090D01*
X149155060Y-97150091D01*
X149155059Y-97150091D01*
X149069436Y-97199526D01*
X149037181Y-97231782D01*
X148975858Y-97265267D01*
X148906166Y-97260283D01*
X148850233Y-97218411D01*
X148825816Y-97152947D01*
X148825500Y-97144101D01*
X148825500Y-95350565D01*
X149924500Y-95350565D01*
X149924500Y-95449435D01*
X149950090Y-95544938D01*
X149999525Y-95630562D01*
X150069438Y-95700475D01*
X150155062Y-95749910D01*
X150250565Y-95775500D01*
X150250567Y-95775500D01*
X150349432Y-95775500D01*
X150349435Y-95775500D01*
X150444938Y-95749910D01*
X150530562Y-95700475D01*
X150600475Y-95630562D01*
X150649910Y-95544938D01*
X150675500Y-95449435D01*
X150675500Y-95350565D01*
X150649910Y-95255062D01*
X150600475Y-95169438D01*
X150530562Y-95099525D01*
X150444938Y-95050090D01*
X150349435Y-95024500D01*
X150250565Y-95024500D01*
X150155062Y-95050090D01*
X150155060Y-95050091D01*
X150155059Y-95050091D01*
X150069436Y-95099526D01*
X149999526Y-95169436D01*
X149950091Y-95255059D01*
X149950091Y-95255060D01*
X149950090Y-95255062D01*
X149924500Y-95350565D01*
X148825500Y-95350565D01*
X148825500Y-93650565D01*
X149324500Y-93650565D01*
X149324500Y-93749435D01*
X149350090Y-93844938D01*
X149399525Y-93930562D01*
X149469438Y-94000475D01*
X149555062Y-94049910D01*
X149650565Y-94075500D01*
X149650567Y-94075500D01*
X149749432Y-94075500D01*
X149749435Y-94075500D01*
X149844938Y-94049910D01*
X149930562Y-94000475D01*
X150000475Y-93930562D01*
X150049910Y-93844938D01*
X150075500Y-93749435D01*
X150075500Y-93650565D01*
X150049910Y-93555062D01*
X150000475Y-93469438D01*
X149930562Y-93399525D01*
X149844938Y-93350090D01*
X149749435Y-93324500D01*
X149650565Y-93324500D01*
X149555062Y-93350090D01*
X149555060Y-93350091D01*
X149555059Y-93350091D01*
X149469436Y-93399526D01*
X149399526Y-93469436D01*
X149350091Y-93555059D01*
X149350091Y-93555060D01*
X149350090Y-93555062D01*
X149324500Y-93650565D01*
X148825500Y-93650565D01*
X148825500Y-92725474D01*
X148825498Y-92725469D01*
X148791172Y-92642594D01*
X148754731Y-92606153D01*
X148740702Y-92580461D01*
X148724294Y-92556210D01*
X148723029Y-92548095D01*
X148721246Y-92544830D01*
X148718447Y-92521403D01*
X148718412Y-92519922D01*
X148718412Y-92463805D01*
X148716956Y-92458373D01*
X148716637Y-92444862D01*
X148724029Y-92417290D01*
X148728428Y-92389082D01*
X148732962Y-92383973D01*
X148734731Y-92377376D01*
X148755857Y-92358177D01*
X148774807Y-92336826D01*
X148778575Y-92334559D01*
X148862547Y-92286079D01*
X148932460Y-92216166D01*
X148981895Y-92130542D01*
X149007485Y-92035039D01*
X149007485Y-91936169D01*
X148981895Y-91840666D01*
X148932460Y-91755042D01*
X148924790Y-91747372D01*
X148893803Y-91716384D01*
X148860318Y-91655061D01*
X148857485Y-91628704D01*
X148857485Y-90302757D01*
X148857485Y-90276842D01*
X148857486Y-90276840D01*
X148857486Y-90187131D01*
X148823155Y-90104250D01*
X148823155Y-90104249D01*
X148759721Y-90040815D01*
X148752656Y-90033750D01*
X148752649Y-90033744D01*
X146008611Y-87289706D01*
X145991170Y-87272265D01*
X145991170Y-87272264D01*
X145928586Y-87209680D01*
X145928585Y-87209678D01*
X145908884Y-87184004D01*
X145900475Y-87169438D01*
X145830562Y-87099525D01*
X145744938Y-87050090D01*
X145649435Y-87024500D01*
X145550565Y-87024500D01*
X145455062Y-87050090D01*
X145455060Y-87050091D01*
X145455059Y-87050091D01*
X145369436Y-87099526D01*
X145299526Y-87169436D01*
X145250091Y-87255059D01*
X145250091Y-87255060D01*
X145250090Y-87255062D01*
X145224500Y-87350565D01*
X145224500Y-87449435D01*
X145250090Y-87544938D01*
X145299525Y-87630562D01*
X145369438Y-87700475D01*
X145455062Y-87749910D01*
X145550565Y-87775500D01*
X145550567Y-87775500D01*
X145649432Y-87775500D01*
X145649435Y-87775500D01*
X145743668Y-87750250D01*
X145813514Y-87751913D01*
X145863439Y-87782344D01*
X146458916Y-88377821D01*
X146492401Y-88439144D01*
X146487417Y-88508836D01*
X146445545Y-88564769D01*
X146380081Y-88589186D01*
X146371235Y-88589502D01*
X146342772Y-88589502D01*
X146247269Y-88615092D01*
X146247267Y-88615093D01*
X146247266Y-88615093D01*
X146161643Y-88664528D01*
X146122987Y-88703184D01*
X146061664Y-88736669D01*
X146035307Y-88739502D01*
X145643455Y-88739502D01*
X145553746Y-88739502D01*
X145553744Y-88739502D01*
X145553742Y-88739503D01*
X145470867Y-88773829D01*
X138858830Y-95385866D01*
X138858830Y-95385868D01*
X138824499Y-95468747D01*
X138824499Y-95572891D01*
X138824500Y-95572900D01*
X138824500Y-95741628D01*
X138804815Y-95808667D01*
X138788181Y-95829309D01*
X138352867Y-96264624D01*
X137922265Y-96695226D01*
X137922264Y-96695227D01*
X137892966Y-96724525D01*
X137858830Y-96758660D01*
X137850574Y-96778593D01*
X137850574Y-96778594D01*
X137824499Y-96841542D01*
X137824499Y-96945685D01*
X137824500Y-96945694D01*
X137824500Y-100505232D01*
X137804815Y-100572271D01*
X137788181Y-100592913D01*
X135692913Y-102688181D01*
X135669260Y-102701096D01*
X135647543Y-102717058D01*
X135636458Y-102719007D01*
X135631590Y-102721666D01*
X135612991Y-102724257D01*
X135609115Y-102724500D01*
X135550565Y-102724500D01*
X135532681Y-102729291D01*
X135520316Y-102730067D01*
X135497837Y-102724969D01*
X135474798Y-102724421D01*
X135464410Y-102717390D01*
X135452176Y-102714616D01*
X135436024Y-102698177D01*
X135416936Y-102685258D01*
X135411997Y-102673724D01*
X135403207Y-102664778D01*
X135398505Y-102642214D01*
X135389434Y-102621028D01*
X135391514Y-102608659D01*
X135388955Y-102596377D01*
X135397199Y-102574851D01*
X135401022Y-102552126D01*
X135409460Y-102542844D01*
X135413947Y-102531130D01*
X135432516Y-102517482D01*
X135444801Y-102503968D01*
X135444537Y-102503624D01*
X135446446Y-102502158D01*
X135448021Y-102500427D01*
X135450519Y-102498945D01*
X135450983Y-102498678D01*
X135520896Y-102428765D01*
X135570331Y-102343141D01*
X135595921Y-102247638D01*
X135595921Y-102148768D01*
X135570331Y-102053265D01*
X135520896Y-101967641D01*
X135508568Y-101955313D01*
X135475083Y-101893990D01*
X135480067Y-101824298D01*
X135488856Y-101805643D01*
X135523905Y-101744938D01*
X135549495Y-101649435D01*
X135549495Y-101550565D01*
X135523905Y-101455062D01*
X135474470Y-101369438D01*
X135404557Y-101299525D01*
X135318933Y-101250090D01*
X135223430Y-101224500D01*
X135124560Y-101224500D01*
X135029057Y-101250090D01*
X135029055Y-101250091D01*
X135029054Y-101250091D01*
X134943431Y-101299526D01*
X134873521Y-101369436D01*
X134824086Y-101455059D01*
X134824086Y-101455060D01*
X134824085Y-101455062D01*
X134798495Y-101550565D01*
X134798495Y-101649435D01*
X134824085Y-101744938D01*
X134869903Y-101824298D01*
X134873521Y-101830563D01*
X134885846Y-101842888D01*
X134895524Y-101860613D01*
X134909239Y-101875445D01*
X134911929Y-101890655D01*
X134919331Y-101904211D01*
X134917890Y-101924357D01*
X134921408Y-101944247D01*
X134915091Y-101963498D01*
X134914347Y-101973903D01*
X134912562Y-101978415D01*
X134909503Y-101985728D01*
X134870511Y-102053265D01*
X134851353Y-102124763D01*
X134848134Y-102132460D01*
X134831165Y-102153369D01*
X134817147Y-102176368D01*
X134809478Y-102180093D01*
X134804107Y-102186712D01*
X134778527Y-102195128D01*
X134754300Y-102206897D01*
X134738832Y-102208188D01*
X134737737Y-102208549D01*
X134736951Y-102208345D01*
X134733737Y-102208614D01*
X134711556Y-102208614D01*
X134681591Y-102216643D01*
X134611741Y-102214978D01*
X134553879Y-102175814D01*
X134526377Y-102111585D01*
X134525500Y-102096867D01*
X134525500Y-101321012D01*
X134545185Y-101253973D01*
X134561815Y-101233335D01*
X135197125Y-100598024D01*
X135258448Y-100564540D01*
X135284806Y-100561706D01*
X135339472Y-100561706D01*
X135339475Y-100561706D01*
X135434978Y-100536116D01*
X135520602Y-100486681D01*
X135590515Y-100416768D01*
X135639950Y-100331144D01*
X135665540Y-100235641D01*
X135665540Y-100136771D01*
X135639950Y-100041268D01*
X135590515Y-99955644D01*
X135520602Y-99885731D01*
X135434978Y-99836296D01*
X135339475Y-99810706D01*
X135240605Y-99810706D01*
X135145102Y-99836296D01*
X135145100Y-99836297D01*
X135145099Y-99836297D01*
X135059476Y-99885732D01*
X134989566Y-99955642D01*
X134940131Y-100041265D01*
X134940131Y-100041266D01*
X134940130Y-100041268D01*
X134914540Y-100136771D01*
X134914540Y-100136773D01*
X134914540Y-100191438D01*
X134894855Y-100258477D01*
X134878221Y-100279119D01*
X134108829Y-101048510D01*
X134098774Y-101072783D01*
X134098774Y-101072785D01*
X134096978Y-101077122D01*
X134074499Y-101131389D01*
X134074499Y-101235534D01*
X134074500Y-101235543D01*
X134074500Y-106943100D01*
X134054815Y-107010139D01*
X134038182Y-107030780D01*
X133999526Y-107069436D01*
X133950091Y-107155059D01*
X133950091Y-107155060D01*
X133950090Y-107155062D01*
X133924500Y-107250565D01*
X133924500Y-107349435D01*
X133950090Y-107444938D01*
X133950091Y-107444939D01*
X133950091Y-107444940D01*
X133954791Y-107453080D01*
X133999525Y-107530562D01*
X134069438Y-107600475D01*
X134155062Y-107649910D01*
X134250565Y-107675500D01*
X134250567Y-107675500D01*
X134349432Y-107675500D01*
X134349435Y-107675500D01*
X134444938Y-107649910D01*
X134530562Y-107600475D01*
X134600475Y-107530562D01*
X134649910Y-107444938D01*
X134675500Y-107349435D01*
X134675500Y-107250565D01*
X134649910Y-107155062D01*
X134600475Y-107069438D01*
X134581334Y-107050297D01*
X134561818Y-107030780D01*
X134528333Y-106969457D01*
X134525500Y-106943100D01*
X134525500Y-104676693D01*
X137904959Y-104676693D01*
X137904959Y-104775563D01*
X137930549Y-104871066D01*
X137979984Y-104956690D01*
X138049897Y-105026603D01*
X138135521Y-105076038D01*
X138231024Y-105101628D01*
X138231026Y-105101628D01*
X138329891Y-105101628D01*
X138329894Y-105101628D01*
X138425397Y-105076038D01*
X138511021Y-105026603D01*
X138580934Y-104956690D01*
X138630369Y-104871066D01*
X138655959Y-104775563D01*
X138655959Y-104676693D01*
X138630369Y-104581190D01*
X138580934Y-104495566D01*
X138511021Y-104425653D01*
X138425397Y-104376218D01*
X138329894Y-104350628D01*
X138231024Y-104350628D01*
X138135521Y-104376218D01*
X138135519Y-104376219D01*
X138135518Y-104376219D01*
X138049895Y-104425654D01*
X137979985Y-104495564D01*
X137930550Y-104581187D01*
X137930550Y-104581188D01*
X137930549Y-104581190D01*
X137904959Y-104676693D01*
X134525500Y-104676693D01*
X134525500Y-103071360D01*
X134545185Y-103004321D01*
X134597989Y-102958566D01*
X134667147Y-102948622D01*
X134681583Y-102951582D01*
X134711556Y-102959614D01*
X134711559Y-102959614D01*
X134810423Y-102959614D01*
X134810426Y-102959614D01*
X134905929Y-102934024D01*
X134991553Y-102884589D01*
X135043286Y-102832855D01*
X135104607Y-102799371D01*
X135174299Y-102804355D01*
X135230232Y-102846226D01*
X135254650Y-102911690D01*
X135250741Y-102952629D01*
X135224500Y-103050563D01*
X135224500Y-103050565D01*
X135224500Y-103149435D01*
X135250090Y-103244938D01*
X135250091Y-103244939D01*
X135250091Y-103244940D01*
X135252686Y-103249435D01*
X135299525Y-103330562D01*
X135369438Y-103400475D01*
X135455062Y-103449910D01*
X135550565Y-103475500D01*
X135550567Y-103475500D01*
X135649432Y-103475500D01*
X135649435Y-103475500D01*
X135744938Y-103449910D01*
X135830562Y-103400475D01*
X135900475Y-103330562D01*
X135949910Y-103244938D01*
X135975500Y-103149435D01*
X135975500Y-103094766D01*
X135995185Y-103027727D01*
X136011819Y-103007085D01*
X136787271Y-102231633D01*
X137563097Y-101455806D01*
X137624418Y-101422323D01*
X137694110Y-101427307D01*
X137750043Y-101469179D01*
X137774460Y-101534643D01*
X137770551Y-101575581D01*
X137756701Y-101627270D01*
X137756701Y-101627272D01*
X137756701Y-101726142D01*
X137782291Y-101821645D01*
X137782292Y-101821646D01*
X137782292Y-101821647D01*
X137783823Y-101824298D01*
X137831726Y-101907269D01*
X137901639Y-101977182D01*
X137987263Y-102026617D01*
X137988346Y-102026907D01*
X137989155Y-102027400D01*
X137994770Y-102029726D01*
X137994407Y-102030601D01*
X138048007Y-102063271D01*
X138078537Y-102126117D01*
X138070243Y-102195493D01*
X138025758Y-102249372D01*
X138018256Y-102254068D01*
X137979865Y-102276233D01*
X137909955Y-102346143D01*
X137860520Y-102431766D01*
X137860520Y-102431767D01*
X137860519Y-102431769D01*
X137834929Y-102527272D01*
X137834929Y-102626142D01*
X137860519Y-102721645D01*
X137909954Y-102807269D01*
X137909956Y-102807271D01*
X137911327Y-102809645D01*
X137927800Y-102877546D01*
X137906615Y-102938753D01*
X137907165Y-102939071D01*
X137905520Y-102941920D01*
X137904948Y-102943573D01*
X137903204Y-102945930D01*
X137853667Y-103031730D01*
X137853667Y-103031731D01*
X137853666Y-103031733D01*
X137828076Y-103127236D01*
X137828076Y-103226106D01*
X137853666Y-103321609D01*
X137853667Y-103321610D01*
X137853667Y-103321611D01*
X137866913Y-103344553D01*
X137903101Y-103407233D01*
X137973014Y-103477146D01*
X137982742Y-103482762D01*
X138030957Y-103533327D01*
X138044182Y-103601934D01*
X138040518Y-103622241D01*
X138019532Y-103700563D01*
X138019532Y-103700565D01*
X138019532Y-103799435D01*
X138045122Y-103894938D01*
X138094557Y-103980562D01*
X138164470Y-104050475D01*
X138250094Y-104099910D01*
X138345597Y-104125500D01*
X138439104Y-104125500D01*
X138444464Y-104125500D01*
X138444467Y-104125500D01*
X138539970Y-104099910D01*
X138625594Y-104050475D01*
X138695507Y-103980562D01*
X138744942Y-103894938D01*
X138770532Y-103799435D01*
X138770532Y-103700565D01*
X138744942Y-103605062D01*
X138695507Y-103519438D01*
X138625594Y-103449525D01*
X138615862Y-103443906D01*
X138567648Y-103393341D01*
X138554425Y-103324734D01*
X138558087Y-103304437D01*
X138579076Y-103226106D01*
X138579076Y-103127236D01*
X138553486Y-103031733D01*
X138504051Y-102946109D01*
X138504047Y-102946105D01*
X138502677Y-102943732D01*
X138486204Y-102875832D01*
X138507388Y-102814623D01*
X138506840Y-102814307D01*
X138508482Y-102811462D01*
X138509056Y-102809805D01*
X138510805Y-102807439D01*
X138510901Y-102807271D01*
X138510904Y-102807269D01*
X138560339Y-102721645D01*
X138585929Y-102626142D01*
X138585929Y-102576147D01*
X138605614Y-102509108D01*
X138658418Y-102463353D01*
X138677827Y-102456375D01*
X138715075Y-102446395D01*
X138800699Y-102396960D01*
X138870612Y-102327047D01*
X138870612Y-102327046D01*
X138876360Y-102321299D01*
X138876758Y-102321697D01*
X138885013Y-102313061D01*
X138899670Y-102300735D01*
X138913938Y-102294826D01*
X138931251Y-102287655D01*
X138994685Y-102224221D01*
X138994685Y-102224219D01*
X139227734Y-101991170D01*
X139227736Y-101991170D01*
X139291170Y-101927736D01*
X139303600Y-101897728D01*
X139325501Y-101844855D01*
X139325501Y-101755145D01*
X139325501Y-101745156D01*
X139325500Y-101745142D01*
X139325500Y-99953153D01*
X139345185Y-99886114D01*
X139397989Y-99840359D01*
X139467147Y-99830415D01*
X139530703Y-99859440D01*
X139537181Y-99865472D01*
X139547184Y-99875475D01*
X139632808Y-99924910D01*
X139728311Y-99950500D01*
X139728313Y-99950500D01*
X139827178Y-99950500D01*
X139827181Y-99950500D01*
X139922684Y-99924910D01*
X140008308Y-99875475D01*
X140078221Y-99805562D01*
X140127656Y-99719938D01*
X140153246Y-99624435D01*
X140153246Y-99525565D01*
X140127656Y-99430062D01*
X140078221Y-99344438D01*
X140008308Y-99274525D01*
X139922684Y-99225090D01*
X139827181Y-99199500D01*
X139728311Y-99199500D01*
X139632808Y-99225090D01*
X139632806Y-99225091D01*
X139632805Y-99225091D01*
X139547182Y-99274526D01*
X139537181Y-99284528D01*
X139475858Y-99318013D01*
X139406166Y-99313029D01*
X139350233Y-99271157D01*
X139325816Y-99205693D01*
X139325500Y-99196847D01*
X139325500Y-98094853D01*
X139345185Y-98027814D01*
X139387496Y-97987469D01*
X139418847Y-97969369D01*
X139488760Y-97899456D01*
X139538195Y-97813832D01*
X139563785Y-97718329D01*
X139563785Y-97619459D01*
X139538195Y-97523956D01*
X139488760Y-97438332D01*
X139418847Y-97368419D01*
X139333223Y-97318984D01*
X139237720Y-97293394D01*
X139138850Y-97293394D01*
X139043347Y-97318984D01*
X139043345Y-97318985D01*
X139043344Y-97318985D01*
X138957721Y-97368420D01*
X138887811Y-97438330D01*
X138838376Y-97523953D01*
X138838376Y-97523954D01*
X138838375Y-97523956D01*
X138812785Y-97619459D01*
X138812785Y-97718329D01*
X138838375Y-97813832D01*
X138857409Y-97846799D01*
X138857887Y-97847627D01*
X138874500Y-97909628D01*
X138874500Y-101627693D01*
X138867735Y-101650729D01*
X138865279Y-101674617D01*
X138858069Y-101683648D01*
X138854815Y-101694732D01*
X138836671Y-101710453D01*
X138821689Y-101729222D01*
X138810741Y-101732921D01*
X138802011Y-101740487D01*
X138778244Y-101743904D01*
X138755497Y-101751592D01*
X138738174Y-101749665D01*
X138732853Y-101750431D01*
X138720388Y-101747981D01*
X138715307Y-101746709D01*
X138715075Y-101746575D01*
X138619572Y-101720985D01*
X138612546Y-101720985D01*
X138597857Y-101717308D01*
X138573603Y-101703068D01*
X138547882Y-101691688D01*
X138543876Y-101685615D01*
X138537605Y-101681933D01*
X138524900Y-101656843D01*
X138509414Y-101633362D01*
X138508194Y-101629114D01*
X138507701Y-101627274D01*
X138507701Y-101627272D01*
X138482111Y-101531769D01*
X138432676Y-101446145D01*
X138362763Y-101376232D01*
X138277139Y-101326797D01*
X138181636Y-101301207D01*
X138082766Y-101301207D01*
X138082764Y-101301207D01*
X138031075Y-101315057D01*
X137961225Y-101313394D01*
X137903363Y-101274231D01*
X137875860Y-101210002D01*
X137887447Y-101141100D01*
X137911299Y-101107604D01*
X138160294Y-100858610D01*
X138160297Y-100858608D01*
X138177735Y-100841170D01*
X138177736Y-100841170D01*
X138241170Y-100777736D01*
X138241170Y-100777734D01*
X138241172Y-100777733D01*
X138265987Y-100717821D01*
X138275500Y-100694855D01*
X138275500Y-97031162D01*
X138295185Y-96964123D01*
X138311815Y-96943485D01*
X139160294Y-96095005D01*
X139160297Y-96095004D01*
X139177735Y-96077566D01*
X139177736Y-96077566D01*
X139241170Y-96014132D01*
X139241170Y-96014130D01*
X139241172Y-96014129D01*
X139258335Y-95972691D01*
X139275500Y-95931251D01*
X139275500Y-95658370D01*
X139295185Y-95591331D01*
X139311819Y-95570689D01*
X140012819Y-94869689D01*
X140074142Y-94836204D01*
X140143834Y-94841188D01*
X140199767Y-94883060D01*
X140224184Y-94948524D01*
X140224500Y-94957370D01*
X140224500Y-95049435D01*
X140250090Y-95144938D01*
X140250091Y-95144939D01*
X140250091Y-95144940D01*
X140252686Y-95149435D01*
X140299525Y-95230562D01*
X140369438Y-95300475D01*
X140455062Y-95349910D01*
X140550565Y-95375500D01*
X140550567Y-95375500D01*
X140649432Y-95375500D01*
X140649435Y-95375500D01*
X140744938Y-95349910D01*
X140830562Y-95300475D01*
X140900475Y-95230562D01*
X140949910Y-95144938D01*
X140975500Y-95049435D01*
X140975500Y-94950565D01*
X140949910Y-94855062D01*
X140900475Y-94769438D01*
X140830562Y-94699525D01*
X140744938Y-94650090D01*
X140649435Y-94624500D01*
X140557370Y-94624500D01*
X140490331Y-94604815D01*
X140444576Y-94552011D01*
X140434632Y-94482853D01*
X140463657Y-94419297D01*
X140469689Y-94412819D01*
X142632600Y-92249908D01*
X144832180Y-90050327D01*
X144893501Y-90016844D01*
X144963193Y-90021828D01*
X145019126Y-90063700D01*
X145039633Y-90105915D01*
X145050088Y-90144933D01*
X145050091Y-90144940D01*
X145099526Y-90230563D01*
X145138181Y-90269218D01*
X145171666Y-90330541D01*
X145174500Y-90356899D01*
X145174500Y-91855232D01*
X145154815Y-91922271D01*
X145138181Y-91942913D01*
X142402012Y-94679082D01*
X142340689Y-94712567D01*
X142270997Y-94707583D01*
X142226650Y-94679082D01*
X142011819Y-94464251D01*
X141978334Y-94402928D01*
X141975500Y-94376570D01*
X141975500Y-94350567D01*
X141975500Y-94350565D01*
X141949910Y-94255062D01*
X141900475Y-94169438D01*
X141830562Y-94099525D01*
X141744938Y-94050090D01*
X141649435Y-94024500D01*
X141550565Y-94024500D01*
X141455062Y-94050090D01*
X141455060Y-94050091D01*
X141455059Y-94050091D01*
X141369436Y-94099526D01*
X141299526Y-94169436D01*
X141250091Y-94255059D01*
X141250091Y-94255060D01*
X141250090Y-94255062D01*
X141224500Y-94350565D01*
X141224500Y-94449435D01*
X141250090Y-94544938D01*
X141250091Y-94544939D01*
X141250091Y-94544940D01*
X141255936Y-94555063D01*
X141299525Y-94630562D01*
X141369438Y-94700475D01*
X141455062Y-94749910D01*
X141550565Y-94775500D01*
X141550567Y-94775500D01*
X141633895Y-94775500D01*
X141700934Y-94795185D01*
X141721576Y-94811819D01*
X142066843Y-95157086D01*
X142100328Y-95218409D01*
X142103162Y-95244767D01*
X142103162Y-99712946D01*
X142083477Y-99779985D01*
X142066844Y-99800626D01*
X142028188Y-99839282D01*
X141978753Y-99924905D01*
X141978753Y-99924906D01*
X141978752Y-99924908D01*
X141953162Y-100020411D01*
X141953162Y-100119281D01*
X141978752Y-100214784D01*
X142013758Y-100275417D01*
X142028188Y-100300409D01*
X142066843Y-100339064D01*
X142100328Y-100400387D01*
X142103162Y-100426745D01*
X142103162Y-106226570D01*
X142083477Y-106293609D01*
X142066843Y-106314251D01*
X140492913Y-107888181D01*
X140431590Y-107921666D01*
X140405232Y-107924500D01*
X140350565Y-107924500D01*
X140255062Y-107950090D01*
X140255060Y-107950091D01*
X140255059Y-107950091D01*
X140169436Y-107999526D01*
X140099526Y-108069436D01*
X140050091Y-108155059D01*
X140050091Y-108155060D01*
X140050090Y-108155062D01*
X140024500Y-108250565D01*
X140024500Y-108250567D01*
X140024500Y-108305231D01*
X140004815Y-108372270D01*
X139988180Y-108392912D01*
X139717907Y-108663188D01*
X139642914Y-108738181D01*
X139581591Y-108771666D01*
X139555233Y-108774500D01*
X133456900Y-108774500D01*
X133389861Y-108754815D01*
X133369220Y-108738182D01*
X133330563Y-108699526D01*
X133330562Y-108699525D01*
X133244938Y-108650090D01*
X133149435Y-108624500D01*
X133050565Y-108624500D01*
X132955062Y-108650090D01*
X132955060Y-108650091D01*
X132955059Y-108650091D01*
X132869436Y-108699526D01*
X132799526Y-108769436D01*
X132750091Y-108855059D01*
X132750091Y-108855060D01*
X132750090Y-108855062D01*
X132724500Y-108950565D01*
X132724500Y-109049435D01*
X132750090Y-109144938D01*
X132750091Y-109144939D01*
X132750091Y-109144940D01*
X132753339Y-109150565D01*
X132799525Y-109230562D01*
X132869438Y-109300475D01*
X132955062Y-109349910D01*
X133050565Y-109375500D01*
X133050567Y-109375500D01*
X133149432Y-109375500D01*
X133149435Y-109375500D01*
X133244938Y-109349910D01*
X133330562Y-109300475D01*
X133349891Y-109281145D01*
X133369220Y-109261818D01*
X133430543Y-109228333D01*
X133456900Y-109225500D01*
X139655143Y-109225500D01*
X139655145Y-109225501D01*
X139744855Y-109225501D01*
X139820360Y-109194225D01*
X139827736Y-109191170D01*
X139891170Y-109127736D01*
X139891170Y-109127735D01*
X139908610Y-109110295D01*
X139908610Y-109110293D01*
X140307086Y-108711819D01*
X140334013Y-108697115D01*
X140359832Y-108680523D01*
X140366032Y-108679631D01*
X140368409Y-108678334D01*
X140394767Y-108675500D01*
X140438986Y-108675500D01*
X140506025Y-108695185D01*
X140551780Y-108747989D01*
X140561724Y-108817147D01*
X140551451Y-108846827D01*
X140553201Y-108847552D01*
X140550090Y-108855060D01*
X140550090Y-108855062D01*
X140524500Y-108950565D01*
X140524500Y-109049435D01*
X140550090Y-109144938D01*
X140550091Y-109144939D01*
X140550091Y-109144940D01*
X140553339Y-109150565D01*
X140599525Y-109230562D01*
X140669438Y-109300475D01*
X140755062Y-109349910D01*
X140850565Y-109375500D01*
X140850567Y-109375500D01*
X140949432Y-109375500D01*
X140949435Y-109375500D01*
X141044938Y-109349910D01*
X141130562Y-109300475D01*
X141200475Y-109230562D01*
X141249910Y-109144938D01*
X141249910Y-109144937D01*
X141253974Y-109137899D01*
X141256981Y-109139635D01*
X141290747Y-109097686D01*
X141357028Y-109075583D01*
X141361526Y-109075501D01*
X145403656Y-109075501D01*
X145470695Y-109095186D01*
X145511043Y-109137500D01*
X145514734Y-109143894D01*
X145514735Y-109143895D01*
X145564170Y-109229519D01*
X145634083Y-109299432D01*
X145651094Y-109309253D01*
X145668343Y-109327344D01*
X145688360Y-109342328D01*
X145692041Y-109352197D01*
X145699308Y-109359819D01*
X145704039Y-109384366D01*
X145712777Y-109407792D01*
X145710538Y-109418082D01*
X145712532Y-109428425D01*
X145703238Y-109451638D01*
X145697925Y-109476065D01*
X145688326Y-109488888D01*
X145686564Y-109493290D01*
X145676779Y-109504314D01*
X145542912Y-109638182D01*
X145481592Y-109671666D01*
X145455233Y-109674500D01*
X144056900Y-109674500D01*
X143989861Y-109654815D01*
X143969220Y-109638182D01*
X143930563Y-109599526D01*
X143930562Y-109599525D01*
X143844938Y-109550090D01*
X143749435Y-109524500D01*
X143650565Y-109524500D01*
X143555062Y-109550090D01*
X143555060Y-109550091D01*
X143555059Y-109550091D01*
X143469436Y-109599526D01*
X143399526Y-109669436D01*
X143350091Y-109755059D01*
X143350091Y-109755060D01*
X143350090Y-109755062D01*
X143324500Y-109850565D01*
X143324500Y-109949435D01*
X143350090Y-110044938D01*
X143399525Y-110130562D01*
X143469438Y-110200475D01*
X143555062Y-110249910D01*
X143650565Y-110275500D01*
X143650567Y-110275500D01*
X143749432Y-110275500D01*
X143749435Y-110275500D01*
X143844938Y-110249910D01*
X143930562Y-110200475D01*
X143949891Y-110181145D01*
X143969220Y-110161818D01*
X144030543Y-110128333D01*
X144056900Y-110125500D01*
X145555143Y-110125500D01*
X145555145Y-110125501D01*
X145644855Y-110125501D01*
X145703460Y-110101225D01*
X145727736Y-110091170D01*
X145791170Y-110027736D01*
X145791170Y-110027735D01*
X145808608Y-110010297D01*
X145808610Y-110010294D01*
X146827734Y-108991170D01*
X146827736Y-108991170D01*
X146891170Y-108927736D01*
X146920445Y-108857060D01*
X146925501Y-108844855D01*
X146925501Y-108755145D01*
X146925501Y-108745156D01*
X146925500Y-108745142D01*
X146925500Y-104203898D01*
X146932063Y-104181544D01*
X146934173Y-104158338D01*
X146941724Y-104148645D01*
X146945185Y-104136859D01*
X146962792Y-104121602D01*
X146977113Y-104103220D01*
X146988704Y-104099148D01*
X146997989Y-104091104D01*
X147021051Y-104087787D01*
X147043035Y-104080067D01*
X147054986Y-104082908D01*
X147067147Y-104081160D01*
X147088342Y-104090839D01*
X147111009Y-104096229D01*
X147122928Y-104106634D01*
X147130703Y-104110185D01*
X147138852Y-104117920D01*
X147147287Y-104126686D01*
X147149525Y-104130562D01*
X147189036Y-104170073D01*
X147189852Y-104170921D01*
X147205479Y-104200898D01*
X147221666Y-104230541D01*
X147221856Y-104232311D01*
X147222151Y-104232877D01*
X147222043Y-104234055D01*
X147224500Y-104256899D01*
X147224500Y-107395142D01*
X147224499Y-107395156D01*
X147224499Y-107494855D01*
X147226433Y-107499525D01*
X147231752Y-107512364D01*
X147258830Y-107577736D01*
X147258831Y-107577737D01*
X147339700Y-107658606D01*
X147339706Y-107658611D01*
X147608829Y-107927734D01*
X147608830Y-107927736D01*
X147672264Y-107991170D01*
X147692435Y-107999525D01*
X147755146Y-108025501D01*
X147755147Y-108025501D01*
X147859289Y-108025501D01*
X147859297Y-108025500D01*
X147943100Y-108025500D01*
X148010139Y-108045185D01*
X148030780Y-108061818D01*
X148051438Y-108082475D01*
X148069438Y-108100475D01*
X148155062Y-108149910D01*
X148250565Y-108175500D01*
X148250567Y-108175500D01*
X148349432Y-108175500D01*
X148349435Y-108175500D01*
X148444938Y-108149910D01*
X148530562Y-108100475D01*
X148600475Y-108030562D01*
X148649910Y-107944938D01*
X148675500Y-107849435D01*
X148675500Y-107750565D01*
X148649910Y-107655062D01*
X148600475Y-107569438D01*
X148577590Y-107546553D01*
X148544105Y-107485230D01*
X148549089Y-107415538D01*
X148577590Y-107371191D01*
X148595603Y-107353178D01*
X148618487Y-107330294D01*
X148667922Y-107244670D01*
X148693512Y-107149167D01*
X148693512Y-107113151D01*
X148702157Y-107083707D01*
X148708680Y-107053725D01*
X148712434Y-107048709D01*
X148713197Y-107046112D01*
X148729822Y-107025479D01*
X148860295Y-106895005D01*
X148860299Y-106895003D01*
X148877735Y-106877567D01*
X148877736Y-106877567D01*
X148941170Y-106814133D01*
X148952145Y-106787636D01*
X148975501Y-106731252D01*
X148975501Y-106641542D01*
X148975501Y-106631553D01*
X148975500Y-106631539D01*
X148975500Y-106383519D01*
X148975500Y-106358460D01*
X148975501Y-106358458D01*
X148975501Y-106268748D01*
X148946827Y-106199525D01*
X148941170Y-106185867D01*
X148877736Y-106122433D01*
X148877734Y-106122432D01*
X148870668Y-106115366D01*
X148870668Y-106115365D01*
X148870664Y-106115362D01*
X148561819Y-105806517D01*
X148528334Y-105745194D01*
X148525500Y-105718836D01*
X148525500Y-99144766D01*
X148534144Y-99115325D01*
X148540668Y-99085339D01*
X148544422Y-99080323D01*
X148545185Y-99077727D01*
X148561810Y-99057094D01*
X148710295Y-98908608D01*
X148710299Y-98908606D01*
X148727735Y-98891170D01*
X148727736Y-98891170D01*
X148791170Y-98827736D01*
X148802855Y-98799525D01*
X148825501Y-98744855D01*
X148825501Y-98655145D01*
X148825501Y-98645156D01*
X148825500Y-98645142D01*
X148825500Y-97855899D01*
X148845185Y-97788860D01*
X148897989Y-97743105D01*
X148967147Y-97733161D01*
X149030703Y-97762186D01*
X149037181Y-97768218D01*
X149069438Y-97800475D01*
X149155062Y-97849910D01*
X149250565Y-97875500D01*
X149250567Y-97875500D01*
X149349432Y-97875500D01*
X149349435Y-97875500D01*
X149444938Y-97849910D01*
X149444947Y-97849904D01*
X149452448Y-97846799D01*
X149453744Y-97849928D01*
X149506398Y-97837154D01*
X149572425Y-97860005D01*
X149615617Y-97914926D01*
X149624500Y-97961014D01*
X149624500Y-100809808D01*
X149604815Y-100876847D01*
X149552011Y-100922602D01*
X149482853Y-100932546D01*
X149468410Y-100929584D01*
X149457722Y-100926720D01*
X149449435Y-100924500D01*
X149350565Y-100924500D01*
X149255062Y-100950090D01*
X149255060Y-100950091D01*
X149255059Y-100950091D01*
X149169436Y-100999526D01*
X149099526Y-101069436D01*
X149050091Y-101155059D01*
X149050091Y-101155060D01*
X149050090Y-101155062D01*
X149024500Y-101250565D01*
X149024500Y-101349435D01*
X149050090Y-101444938D01*
X149099525Y-101530562D01*
X149169438Y-101600475D01*
X149255062Y-101649910D01*
X149350565Y-101675500D01*
X149350567Y-101675500D01*
X149449432Y-101675500D01*
X149449435Y-101675500D01*
X149468408Y-101670416D01*
X149538256Y-101672079D01*
X149596119Y-101711241D01*
X149623623Y-101775470D01*
X149624500Y-101790191D01*
X149624500Y-104718835D01*
X149604815Y-104785874D01*
X149588181Y-104806516D01*
X149277028Y-105117668D01*
X149277028Y-105117670D01*
X149242697Y-105200549D01*
X149242697Y-105304693D01*
X149242698Y-105304702D01*
X149242698Y-115023431D01*
X149223013Y-115090470D01*
X149206379Y-115111112D01*
X147479311Y-116838181D01*
X147417988Y-116871666D01*
X147391630Y-116874500D01*
X145169767Y-116874500D01*
X145102728Y-116854815D01*
X145082086Y-116838181D01*
X144761819Y-116517914D01*
X144728334Y-116456591D01*
X144725500Y-116430233D01*
X144725500Y-116156899D01*
X144745185Y-116089860D01*
X144761819Y-116069218D01*
X144771549Y-116059488D01*
X144800475Y-116030562D01*
X144849910Y-115944938D01*
X144875500Y-115849435D01*
X144875500Y-115750565D01*
X144849910Y-115655062D01*
X144800475Y-115569438D01*
X144730562Y-115499525D01*
X144644938Y-115450090D01*
X144549435Y-115424500D01*
X144450565Y-115424500D01*
X144355062Y-115450090D01*
X144355060Y-115450091D01*
X144355059Y-115450091D01*
X144269436Y-115499526D01*
X144199526Y-115569436D01*
X144150091Y-115655059D01*
X144150091Y-115655060D01*
X144150090Y-115655062D01*
X144124500Y-115750565D01*
X144124500Y-115750567D01*
X144124500Y-115791096D01*
X144104815Y-115858135D01*
X144052011Y-115903890D01*
X143982853Y-115913834D01*
X143919297Y-115884809D01*
X143893113Y-115853097D01*
X143857316Y-115791096D01*
X143840509Y-115761985D01*
X143738015Y-115659491D01*
X143738013Y-115659490D01*
X143738011Y-115659488D01*
X143612488Y-115587017D01*
X143612489Y-115587017D01*
X143601006Y-115583940D01*
X143472475Y-115549500D01*
X143327525Y-115549500D01*
X143198993Y-115583940D01*
X143187511Y-115587017D01*
X143061988Y-115659488D01*
X143061982Y-115659493D01*
X142959493Y-115761982D01*
X142959488Y-115761988D01*
X142887017Y-115887511D01*
X142887016Y-115887515D01*
X142849500Y-116027525D01*
X142849500Y-116172475D01*
X142887016Y-116312485D01*
X142887017Y-116312488D01*
X142959488Y-116438011D01*
X142959490Y-116438013D01*
X142959491Y-116438015D01*
X143061985Y-116540509D01*
X143061986Y-116540510D01*
X143061988Y-116540511D01*
X143187511Y-116612982D01*
X143187512Y-116612982D01*
X143187515Y-116612984D01*
X143327525Y-116650500D01*
X143327528Y-116650500D01*
X143472472Y-116650500D01*
X143472475Y-116650500D01*
X143612485Y-116612984D01*
X143738015Y-116540509D01*
X143840509Y-116438015D01*
X143912984Y-116312485D01*
X143950500Y-116172475D01*
X143950500Y-116062011D01*
X143970185Y-115994972D01*
X144022989Y-115949217D01*
X144092147Y-115939273D01*
X144155703Y-115968298D01*
X144171283Y-115984493D01*
X144177172Y-115991845D01*
X144199525Y-116030562D01*
X144243013Y-116074050D01*
X144247283Y-116079381D01*
X144258065Y-116105632D01*
X144271666Y-116130541D01*
X144272861Y-116141658D01*
X144273828Y-116144012D01*
X144273378Y-116146464D01*
X144274500Y-116156899D01*
X144274500Y-116520142D01*
X144274499Y-116520156D01*
X144274499Y-116619857D01*
X144287192Y-116650498D01*
X144287192Y-116650499D01*
X144287193Y-116650499D01*
X144287193Y-116650500D01*
X144308830Y-116702736D01*
X144308831Y-116702737D01*
X144389700Y-116783606D01*
X144389706Y-116783611D01*
X144833829Y-117227734D01*
X144833830Y-117227736D01*
X144897264Y-117291170D01*
X144921539Y-117301225D01*
X144980145Y-117325501D01*
X144980146Y-117325501D01*
X145084289Y-117325501D01*
X145084297Y-117325500D01*
X147491540Y-117325500D01*
X147491542Y-117325501D01*
X147581252Y-117325501D01*
X147639857Y-117301225D01*
X147664133Y-117291170D01*
X147727567Y-117227736D01*
X147727567Y-117227735D01*
X147745005Y-117210297D01*
X147745007Y-117210293D01*
X148527775Y-116427525D01*
X160949500Y-116427525D01*
X160949500Y-116572475D01*
X160970407Y-116650499D01*
X160987017Y-116712488D01*
X161059488Y-116838011D01*
X161059490Y-116838013D01*
X161059491Y-116838015D01*
X161161985Y-116940509D01*
X161161986Y-116940510D01*
X161161988Y-116940511D01*
X161287511Y-117012982D01*
X161287512Y-117012982D01*
X161287515Y-117012984D01*
X161427525Y-117050500D01*
X161427528Y-117050500D01*
X161572472Y-117050500D01*
X161572475Y-117050500D01*
X161712485Y-117012984D01*
X161838015Y-116940509D01*
X161940509Y-116838015D01*
X162012984Y-116712485D01*
X162050500Y-116572475D01*
X162050500Y-116427525D01*
X162012984Y-116287515D01*
X161946565Y-116172475D01*
X161940511Y-116161988D01*
X161940506Y-116161982D01*
X161838017Y-116059493D01*
X161838011Y-116059488D01*
X161712488Y-115987017D01*
X161712489Y-115987017D01*
X161701006Y-115983940D01*
X161572475Y-115949500D01*
X161427525Y-115949500D01*
X161298993Y-115983940D01*
X161287511Y-115987017D01*
X161161988Y-116059488D01*
X161161982Y-116059493D01*
X161059493Y-116161982D01*
X161059488Y-116161988D01*
X160987017Y-116287511D01*
X160987016Y-116287515D01*
X160949500Y-116427525D01*
X148527775Y-116427525D01*
X149578492Y-115376807D01*
X149578495Y-115376806D01*
X149595933Y-115359368D01*
X149595934Y-115359368D01*
X149659368Y-115295934D01*
X149678432Y-115249910D01*
X149693699Y-115213052D01*
X149693699Y-115123343D01*
X149693699Y-115113354D01*
X149693698Y-115113340D01*
X149693698Y-114425597D01*
X157462395Y-114425597D01*
X157462395Y-114524467D01*
X157487985Y-114619970D01*
X157487986Y-114619971D01*
X157487986Y-114619972D01*
X157501232Y-114642914D01*
X157537420Y-114705594D01*
X157607333Y-114775507D01*
X157692957Y-114824942D01*
X157788460Y-114850532D01*
X157788462Y-114850532D01*
X157887327Y-114850532D01*
X157887330Y-114850532D01*
X157982833Y-114824942D01*
X158068457Y-114775507D01*
X158138370Y-114705594D01*
X158187805Y-114619970D01*
X158213395Y-114524467D01*
X158213395Y-114425597D01*
X158187805Y-114330094D01*
X158138370Y-114244470D01*
X158068457Y-114174557D01*
X157982833Y-114125122D01*
X157887330Y-114099532D01*
X157788460Y-114099532D01*
X157692957Y-114125122D01*
X157692955Y-114125123D01*
X157692954Y-114125123D01*
X157607331Y-114174558D01*
X157537421Y-114244468D01*
X157487986Y-114330091D01*
X157487986Y-114330092D01*
X157487985Y-114330094D01*
X157462395Y-114425597D01*
X149693698Y-114425597D01*
X149693698Y-109150565D01*
X154424500Y-109150565D01*
X154424500Y-109249435D01*
X154450090Y-109344938D01*
X154450091Y-109344939D01*
X154450091Y-109344940D01*
X154463337Y-109367882D01*
X154499525Y-109430562D01*
X154569438Y-109500475D01*
X154655062Y-109549910D01*
X154750565Y-109575500D01*
X154750567Y-109575500D01*
X154849432Y-109575500D01*
X154849435Y-109575500D01*
X154944938Y-109549910D01*
X155030562Y-109500475D01*
X155100475Y-109430562D01*
X155149910Y-109344938D01*
X155175500Y-109249435D01*
X155175500Y-109150565D01*
X155149910Y-109055062D01*
X155100475Y-108969438D01*
X155030562Y-108899525D01*
X154944938Y-108850090D01*
X154849435Y-108824500D01*
X154750565Y-108824500D01*
X154655062Y-108850090D01*
X154655060Y-108850091D01*
X154655059Y-108850091D01*
X154569436Y-108899526D01*
X154499526Y-108969436D01*
X154450091Y-109055059D01*
X154450091Y-109055060D01*
X154450090Y-109055062D01*
X154424500Y-109150565D01*
X149693698Y-109150565D01*
X149693698Y-108263604D01*
X150737539Y-108263604D01*
X150737539Y-108362474D01*
X150763129Y-108457977D01*
X150812564Y-108543601D01*
X150882477Y-108613514D01*
X150968101Y-108662949D01*
X151063604Y-108688539D01*
X151063606Y-108688539D01*
X151162471Y-108688539D01*
X151162474Y-108688539D01*
X151257977Y-108662949D01*
X151343601Y-108613514D01*
X151413514Y-108543601D01*
X151462949Y-108457977D01*
X151488539Y-108362474D01*
X151488539Y-108263604D01*
X151462949Y-108168101D01*
X151413514Y-108082477D01*
X151343601Y-108012564D01*
X151257977Y-107963129D01*
X151162474Y-107937539D01*
X151063604Y-107937539D01*
X150968101Y-107963129D01*
X150968099Y-107963130D01*
X150968098Y-107963130D01*
X150882475Y-108012565D01*
X150812565Y-108082475D01*
X150763130Y-108168098D01*
X150763130Y-108168099D01*
X150763129Y-108168101D01*
X150737539Y-108263604D01*
X149693698Y-108263604D01*
X149693698Y-105390171D01*
X149702342Y-105360730D01*
X149708866Y-105330744D01*
X149712620Y-105325728D01*
X149713383Y-105323132D01*
X149730013Y-105302494D01*
X149744637Y-105287870D01*
X149805959Y-105254386D01*
X149875651Y-105259370D01*
X149931584Y-105301242D01*
X149939702Y-105313549D01*
X149945235Y-105323132D01*
X149949525Y-105330562D01*
X150019438Y-105400475D01*
X150105062Y-105449910D01*
X150200565Y-105475500D01*
X150200567Y-105475500D01*
X150299432Y-105475500D01*
X150299435Y-105475500D01*
X150394938Y-105449910D01*
X150480562Y-105400475D01*
X150550475Y-105330562D01*
X150599910Y-105244938D01*
X150619108Y-105173288D01*
X150651199Y-105117705D01*
X151057085Y-104711818D01*
X151118408Y-104678334D01*
X151144766Y-104675500D01*
X151199432Y-104675500D01*
X151199435Y-104675500D01*
X151294938Y-104649910D01*
X151380562Y-104600475D01*
X151450475Y-104530562D01*
X151499910Y-104444938D01*
X151525500Y-104349435D01*
X151525500Y-104250565D01*
X151499910Y-104155062D01*
X151450475Y-104069438D01*
X151380562Y-103999525D01*
X151294938Y-103950090D01*
X151199435Y-103924500D01*
X151100565Y-103924500D01*
X151005062Y-103950090D01*
X151005060Y-103950091D01*
X151005059Y-103950091D01*
X150919436Y-103999526D01*
X150849526Y-104069436D01*
X150800091Y-104155059D01*
X150800091Y-104155060D01*
X150800090Y-104155062D01*
X150774500Y-104250565D01*
X150774500Y-104250567D01*
X150774500Y-104305232D01*
X150754815Y-104372271D01*
X150738181Y-104392913D01*
X150434571Y-104696522D01*
X150373248Y-104730007D01*
X150339884Y-104732643D01*
X150327132Y-104731921D01*
X150299435Y-104724500D01*
X150200565Y-104724500D01*
X150199767Y-104724713D01*
X150192494Y-104724302D01*
X150162748Y-104713708D01*
X150132461Y-104704815D01*
X150130088Y-104702077D01*
X150126674Y-104700861D01*
X150107374Y-104675863D01*
X150086706Y-104652011D01*
X150085822Y-104647948D01*
X150083975Y-104645556D01*
X150083099Y-104635433D01*
X150075500Y-104600500D01*
X150075500Y-97803107D01*
X150095185Y-97736068D01*
X150147989Y-97690313D01*
X150217147Y-97680369D01*
X150260994Y-97698845D01*
X150262400Y-97696411D01*
X150269436Y-97700473D01*
X150269438Y-97700475D01*
X150355062Y-97749910D01*
X150450565Y-97775500D01*
X150450567Y-97775500D01*
X150549432Y-97775500D01*
X150549435Y-97775500D01*
X150644938Y-97749910D01*
X150672807Y-97733819D01*
X150699870Y-97727253D01*
X150725961Y-97717522D01*
X150733352Y-97719129D01*
X150740705Y-97717346D01*
X150767025Y-97726455D01*
X150794234Y-97732374D01*
X150802923Y-97738878D01*
X150806732Y-97740197D01*
X150822488Y-97753525D01*
X150838181Y-97769218D01*
X150871666Y-97830541D01*
X150874500Y-97856899D01*
X150874500Y-102245142D01*
X150874499Y-102245156D01*
X150874499Y-102255145D01*
X150874499Y-102344855D01*
X150883091Y-102365595D01*
X150885640Y-102371749D01*
X150885641Y-102371752D01*
X150908830Y-102427736D01*
X150989700Y-102508606D01*
X150989706Y-102508611D01*
X153562127Y-105081032D01*
X153595612Y-105142355D01*
X153590628Y-105212047D01*
X153548756Y-105267980D01*
X153536449Y-105276098D01*
X153519437Y-105285920D01*
X153449526Y-105355831D01*
X153400091Y-105441454D01*
X153400091Y-105441455D01*
X153400090Y-105441457D01*
X153374500Y-105536960D01*
X153374500Y-105635830D01*
X153400090Y-105731333D01*
X153449525Y-105816957D01*
X153519438Y-105886870D01*
X153605062Y-105936305D01*
X153700565Y-105961895D01*
X153700567Y-105961895D01*
X153799432Y-105961895D01*
X153799435Y-105961895D01*
X153894938Y-105936305D01*
X153980562Y-105886870D01*
X154050475Y-105816957D01*
X154060295Y-105799947D01*
X154110859Y-105751733D01*
X154179466Y-105738509D01*
X154244331Y-105764476D01*
X154255362Y-105774267D01*
X163288181Y-114807086D01*
X163321666Y-114868409D01*
X163324500Y-114894767D01*
X163324500Y-114949435D01*
X163350090Y-115044938D01*
X163399525Y-115130562D01*
X163469438Y-115200475D01*
X163555062Y-115249910D01*
X163650565Y-115275500D01*
X163650567Y-115275500D01*
X163749432Y-115275500D01*
X163749435Y-115275500D01*
X163844938Y-115249910D01*
X163930562Y-115200475D01*
X164000475Y-115130562D01*
X164049910Y-115044938D01*
X164075500Y-114949435D01*
X164075500Y-114850565D01*
X164049910Y-114755062D01*
X164000475Y-114669438D01*
X163930562Y-114599525D01*
X163844938Y-114550090D01*
X163749435Y-114524500D01*
X163694767Y-114524500D01*
X163627728Y-114504815D01*
X163607086Y-114488181D01*
X160569470Y-111450565D01*
X162824500Y-111450565D01*
X162824500Y-111549435D01*
X162850090Y-111644938D01*
X162850091Y-111644939D01*
X162850091Y-111644940D01*
X162853065Y-111650091D01*
X162899525Y-111730562D01*
X162969438Y-111800475D01*
X163055062Y-111849910D01*
X163150565Y-111875500D01*
X163150567Y-111875500D01*
X163249432Y-111875500D01*
X163249435Y-111875500D01*
X163344938Y-111849910D01*
X163430562Y-111800475D01*
X163500475Y-111730562D01*
X163549910Y-111644938D01*
X163575500Y-111549435D01*
X163575500Y-111450565D01*
X163549910Y-111355062D01*
X163500475Y-111269438D01*
X163430562Y-111199525D01*
X163344938Y-111150090D01*
X163249435Y-111124500D01*
X163150565Y-111124500D01*
X163055062Y-111150090D01*
X163055060Y-111150091D01*
X163055059Y-111150091D01*
X162969436Y-111199526D01*
X162899526Y-111269436D01*
X162850091Y-111355059D01*
X162850091Y-111355060D01*
X162850090Y-111355062D01*
X162824500Y-111450565D01*
X160569470Y-111450565D01*
X151845272Y-102726367D01*
X151811787Y-102665044D01*
X151816771Y-102595352D01*
X151858643Y-102539419D01*
X151924107Y-102515002D01*
X151965041Y-102518910D01*
X152000565Y-102528429D01*
X152000568Y-102528429D01*
X152099432Y-102528429D01*
X152099435Y-102528429D01*
X152194938Y-102502839D01*
X152280562Y-102453404D01*
X152350475Y-102383491D01*
X152399910Y-102297867D01*
X152425500Y-102202364D01*
X152425500Y-102103494D01*
X152399910Y-102007991D01*
X152350475Y-101922367D01*
X152350473Y-101922365D01*
X152346411Y-101915329D01*
X152347770Y-101914544D01*
X152325929Y-101858036D01*
X152325500Y-101847727D01*
X152325500Y-99599500D01*
X152345185Y-99532461D01*
X152397989Y-99486706D01*
X152441465Y-99477247D01*
X152441375Y-99476561D01*
X152449432Y-99475500D01*
X152449435Y-99475500D01*
X152544938Y-99449910D01*
X152630562Y-99400475D01*
X152700475Y-99330562D01*
X152749910Y-99244938D01*
X152775500Y-99149435D01*
X152775500Y-99050565D01*
X152749910Y-98955062D01*
X152700475Y-98869438D01*
X152630562Y-98799525D01*
X152544938Y-98750090D01*
X152449435Y-98724500D01*
X152350565Y-98724500D01*
X152255062Y-98750090D01*
X152255060Y-98750091D01*
X152255059Y-98750091D01*
X152169436Y-98799526D01*
X152099526Y-98869436D01*
X152050091Y-98955059D01*
X152050091Y-98955060D01*
X152050090Y-98955062D01*
X152024500Y-99050565D01*
X152024500Y-99050567D01*
X152024500Y-99105232D01*
X152004815Y-99172271D01*
X151988181Y-99192913D01*
X151908831Y-99272262D01*
X151908828Y-99272266D01*
X151899087Y-99295783D01*
X151889880Y-99318013D01*
X151874499Y-99355144D01*
X151874499Y-99459288D01*
X151874500Y-99459297D01*
X151874500Y-101749072D01*
X151854815Y-101816111D01*
X151824207Y-101845319D01*
X151825886Y-101847506D01*
X151819438Y-101852453D01*
X151749525Y-101922367D01*
X151700091Y-102007988D01*
X151700091Y-102007989D01*
X151700090Y-102007991D01*
X151674500Y-102103494D01*
X151674500Y-102103496D01*
X151674500Y-102202365D01*
X151684017Y-102237883D01*
X151682354Y-102307732D01*
X151643191Y-102365595D01*
X151578962Y-102393098D01*
X151510060Y-102381511D01*
X151476561Y-102357656D01*
X151361819Y-102242914D01*
X151328334Y-102181591D01*
X151325500Y-102155233D01*
X151325500Y-97856899D01*
X151345185Y-97789860D01*
X151361819Y-97769218D01*
X151381129Y-97749908D01*
X151400475Y-97730562D01*
X151449910Y-97644938D01*
X151475500Y-97549435D01*
X151475500Y-97450565D01*
X151449910Y-97355062D01*
X151400475Y-97269438D01*
X151351874Y-97220837D01*
X151318389Y-97159514D01*
X151323373Y-97089822D01*
X151365245Y-97033889D01*
X151430709Y-97009472D01*
X151439555Y-97009156D01*
X151449432Y-97009156D01*
X151449435Y-97009156D01*
X151544938Y-96983566D01*
X151630562Y-96934131D01*
X151659912Y-96904780D01*
X151721232Y-96871296D01*
X151790924Y-96876280D01*
X151846858Y-96918150D01*
X151853241Y-96927828D01*
X151854112Y-96928963D01*
X151854113Y-96928964D01*
X151924026Y-96998877D01*
X152009650Y-97048312D01*
X152105153Y-97073902D01*
X152105155Y-97073902D01*
X152204020Y-97073902D01*
X152204023Y-97073902D01*
X152299526Y-97048312D01*
X152329752Y-97030860D01*
X152397647Y-97014388D01*
X152463675Y-97037239D01*
X152506867Y-97092159D01*
X152513510Y-97161712D01*
X152481495Y-97223816D01*
X152479432Y-97225928D01*
X152442725Y-97262635D01*
X152393290Y-97348258D01*
X152393290Y-97348259D01*
X152393289Y-97348261D01*
X152367699Y-97443764D01*
X152367699Y-97542634D01*
X152393289Y-97638137D01*
X152393290Y-97638138D01*
X152393290Y-97638139D01*
X152397216Y-97644939D01*
X152442724Y-97723761D01*
X152512637Y-97793674D01*
X152598261Y-97843109D01*
X152693764Y-97868699D01*
X152693766Y-97868699D01*
X152792631Y-97868699D01*
X152792634Y-97868699D01*
X152868409Y-97848395D01*
X152938256Y-97850058D01*
X152996119Y-97889220D01*
X153023623Y-97953448D01*
X153024500Y-97968170D01*
X153024500Y-102829038D01*
X153024499Y-102829041D01*
X153024499Y-102918751D01*
X153045495Y-102969438D01*
X153051218Y-102983256D01*
X153051219Y-102983259D01*
X153058828Y-103001630D01*
X153139700Y-103082502D01*
X153139705Y-103082506D01*
X160084932Y-110027734D01*
X160084933Y-110027736D01*
X160148367Y-110091170D01*
X160172642Y-110101225D01*
X160231248Y-110125501D01*
X160231249Y-110125501D01*
X160335392Y-110125501D01*
X160335400Y-110125500D01*
X164905143Y-110125500D01*
X164905145Y-110125501D01*
X164994855Y-110125501D01*
X165053460Y-110101225D01*
X165077736Y-110091170D01*
X165141170Y-110027736D01*
X165141170Y-110027735D01*
X165158608Y-110010297D01*
X165158609Y-110010294D01*
X165957086Y-109211819D01*
X166018409Y-109178334D01*
X166044767Y-109175500D01*
X166049432Y-109175500D01*
X166049435Y-109175500D01*
X166144938Y-109149910D01*
X166230562Y-109100475D01*
X166300475Y-109030562D01*
X166349910Y-108944938D01*
X166375500Y-108849435D01*
X166375500Y-108750565D01*
X166349910Y-108655062D01*
X166300475Y-108569438D01*
X166230562Y-108499525D01*
X166144938Y-108450090D01*
X166049435Y-108424500D01*
X165950565Y-108424500D01*
X165855062Y-108450090D01*
X165855060Y-108450091D01*
X165855059Y-108450091D01*
X165769436Y-108499526D01*
X165699526Y-108569436D01*
X165650091Y-108655059D01*
X165650091Y-108655060D01*
X165650090Y-108655062D01*
X165624500Y-108750565D01*
X165624500Y-108750567D01*
X165624500Y-108855232D01*
X165604815Y-108922271D01*
X165588181Y-108942913D01*
X164892914Y-109638181D01*
X164831591Y-109671666D01*
X164805233Y-109674500D01*
X160420870Y-109674500D01*
X160353831Y-109654815D01*
X160333189Y-109638181D01*
X160094121Y-109399113D01*
X160060636Y-109337790D01*
X160065620Y-109268098D01*
X160107492Y-109212165D01*
X160119793Y-109204050D01*
X160136812Y-109194225D01*
X160206725Y-109124312D01*
X160256160Y-109038688D01*
X160281750Y-108943185D01*
X160281750Y-108844315D01*
X160256160Y-108748812D01*
X160206725Y-108663188D01*
X160193447Y-108649910D01*
X160168068Y-108624530D01*
X160134583Y-108563207D01*
X160131750Y-108536850D01*
X160131750Y-107011396D01*
X160131748Y-107011391D01*
X160131229Y-107010139D01*
X160114379Y-106969457D01*
X160097422Y-106928516D01*
X157761819Y-104592913D01*
X157728334Y-104531590D01*
X157725500Y-104505232D01*
X157725500Y-104450567D01*
X157725500Y-104450565D01*
X157699910Y-104355062D01*
X157650475Y-104269438D01*
X157580562Y-104199525D01*
X157494938Y-104150090D01*
X157399435Y-104124500D01*
X157300565Y-104124500D01*
X157205062Y-104150090D01*
X157205060Y-104150090D01*
X157205060Y-104150091D01*
X157205055Y-104150093D01*
X157137801Y-104188922D01*
X157069901Y-104205395D01*
X157003874Y-104182542D01*
X156988121Y-104169216D01*
X156569470Y-103750565D01*
X160524500Y-103750565D01*
X160524500Y-103849435D01*
X160550090Y-103944938D01*
X160550091Y-103944939D01*
X160550091Y-103944940D01*
X160553065Y-103950091D01*
X160599525Y-104030562D01*
X160669438Y-104100475D01*
X160755062Y-104149910D01*
X160850565Y-104175500D01*
X160850567Y-104175500D01*
X160949432Y-104175500D01*
X160949435Y-104175500D01*
X161044938Y-104149910D01*
X161130562Y-104100475D01*
X161200475Y-104030562D01*
X161249910Y-103944938D01*
X161275500Y-103849435D01*
X161275500Y-103750565D01*
X161249910Y-103655062D01*
X161200475Y-103569438D01*
X161130562Y-103499525D01*
X161044938Y-103450090D01*
X160949435Y-103424500D01*
X160850565Y-103424500D01*
X160755062Y-103450090D01*
X160755060Y-103450091D01*
X160755059Y-103450091D01*
X160669436Y-103499526D01*
X160599526Y-103569436D01*
X160550091Y-103655059D01*
X160550091Y-103655060D01*
X160550090Y-103655062D01*
X160524500Y-103750565D01*
X156569470Y-103750565D01*
X155419470Y-102600565D01*
X160024500Y-102600565D01*
X160024500Y-102699435D01*
X160050090Y-102794938D01*
X160099525Y-102880562D01*
X160169438Y-102950475D01*
X160255062Y-102999910D01*
X160350565Y-103025500D01*
X160350567Y-103025500D01*
X160449432Y-103025500D01*
X160449435Y-103025500D01*
X160544938Y-102999910D01*
X160630562Y-102950475D01*
X160700475Y-102880562D01*
X160749910Y-102794938D01*
X160775500Y-102699435D01*
X160775500Y-102607563D01*
X165407289Y-102607563D01*
X165407289Y-102706433D01*
X165432879Y-102801936D01*
X165432880Y-102801937D01*
X165432880Y-102801938D01*
X165435958Y-102807269D01*
X165482314Y-102887560D01*
X165552227Y-102957473D01*
X165637851Y-103006908D01*
X165733354Y-103032498D01*
X165733356Y-103032498D01*
X165832221Y-103032498D01*
X165832224Y-103032498D01*
X165927727Y-103006908D01*
X166013351Y-102957473D01*
X166083264Y-102887560D01*
X166132699Y-102801936D01*
X166158289Y-102706433D01*
X166158289Y-102607563D01*
X166132699Y-102512060D01*
X166083264Y-102426436D01*
X166013351Y-102356523D01*
X165927727Y-102307088D01*
X165832224Y-102281498D01*
X165733354Y-102281498D01*
X165637851Y-102307088D01*
X165637849Y-102307089D01*
X165637848Y-102307089D01*
X165552225Y-102356524D01*
X165482315Y-102426434D01*
X165432880Y-102512057D01*
X165432880Y-102512058D01*
X165432879Y-102512060D01*
X165407289Y-102607563D01*
X160775500Y-102607563D01*
X160775500Y-102600565D01*
X160749910Y-102505062D01*
X160700475Y-102419438D01*
X160699404Y-102418367D01*
X160698788Y-102417240D01*
X160695526Y-102412988D01*
X160696189Y-102412479D01*
X160665919Y-102357044D01*
X160670903Y-102287352D01*
X160699404Y-102243005D01*
X160705397Y-102237012D01*
X160711847Y-102230562D01*
X160761282Y-102144938D01*
X160786872Y-102049435D01*
X160786872Y-101950565D01*
X160761282Y-101855062D01*
X160711847Y-101769438D01*
X160641934Y-101699525D01*
X160556310Y-101650090D01*
X160460807Y-101624500D01*
X160361937Y-101624500D01*
X160266434Y-101650090D01*
X160266432Y-101650091D01*
X160266431Y-101650091D01*
X160180808Y-101699526D01*
X160110898Y-101769436D01*
X160061463Y-101855059D01*
X160061463Y-101855060D01*
X160061462Y-101855062D01*
X160035872Y-101950565D01*
X160035872Y-102049435D01*
X160061462Y-102144938D01*
X160108723Y-102226797D01*
X160110898Y-102230563D01*
X160111968Y-102231633D01*
X160112583Y-102232759D01*
X160115846Y-102237012D01*
X160115182Y-102237520D01*
X160145453Y-102292956D01*
X160140469Y-102362648D01*
X160111968Y-102406995D01*
X160099526Y-102419436D01*
X160050091Y-102505059D01*
X160050091Y-102505060D01*
X160050090Y-102505062D01*
X160024500Y-102600565D01*
X155419470Y-102600565D01*
X154808601Y-101989696D01*
X154804183Y-101985277D01*
X154787635Y-101954964D01*
X154770708Y-101923964D01*
X154770708Y-101923956D01*
X154770705Y-101923950D01*
X154773444Y-101885707D01*
X154775692Y-101854272D01*
X154775696Y-101854265D01*
X154775697Y-101854259D01*
X154798267Y-101824116D01*
X154817564Y-101798339D01*
X154817569Y-101798336D01*
X154817575Y-101798330D01*
X154852732Y-101785221D01*
X154883028Y-101773922D01*
X154883040Y-101773921D01*
X154883043Y-101773921D01*
X154891874Y-101773606D01*
X154924364Y-101773606D01*
X154924372Y-101773607D01*
X154938806Y-101773607D01*
X155028513Y-101773607D01*
X155028516Y-101773607D01*
X155093775Y-101746575D01*
X155111397Y-101739276D01*
X155174831Y-101675842D01*
X155174831Y-101675840D01*
X155250106Y-101600565D01*
X165124500Y-101600565D01*
X165124500Y-101699435D01*
X165150090Y-101794938D01*
X165150091Y-101794939D01*
X165150091Y-101794940D01*
X165156263Y-101805630D01*
X165199525Y-101880562D01*
X165269438Y-101950475D01*
X165355062Y-101999910D01*
X165450565Y-102025500D01*
X165450567Y-102025500D01*
X165549432Y-102025500D01*
X165549435Y-102025500D01*
X165644938Y-101999910D01*
X165730562Y-101950475D01*
X165800475Y-101880562D01*
X165849910Y-101794938D01*
X165875500Y-101699435D01*
X165875500Y-101600565D01*
X165849910Y-101505062D01*
X165800475Y-101419438D01*
X165730562Y-101349525D01*
X165644938Y-101300090D01*
X165549435Y-101274500D01*
X165450565Y-101274500D01*
X165355062Y-101300090D01*
X165355060Y-101300091D01*
X165355059Y-101300091D01*
X165269436Y-101349526D01*
X165199526Y-101419436D01*
X165150091Y-101505059D01*
X165150091Y-101505060D01*
X165150090Y-101505062D01*
X165124500Y-101600565D01*
X155250106Y-101600565D01*
X158019553Y-98831120D01*
X158019553Y-98831118D01*
X158019555Y-98831117D01*
X158051022Y-98755145D01*
X158053883Y-98748239D01*
X158053883Y-98658530D01*
X158053883Y-96828516D01*
X158073568Y-96761477D01*
X158090202Y-96740835D01*
X158100475Y-96730562D01*
X158149910Y-96644938D01*
X158175500Y-96549435D01*
X158175500Y-96450565D01*
X158149910Y-96355062D01*
X158100475Y-96269438D01*
X158030562Y-96199525D01*
X157944938Y-96150090D01*
X157849435Y-96124500D01*
X157750565Y-96124500D01*
X157655062Y-96150090D01*
X157655060Y-96150091D01*
X157655059Y-96150091D01*
X157569436Y-96199526D01*
X157499526Y-96269436D01*
X157450091Y-96355059D01*
X157450091Y-96355060D01*
X157450090Y-96355062D01*
X157424500Y-96450565D01*
X157424500Y-96549435D01*
X157450090Y-96644938D01*
X157479124Y-96695227D01*
X157499526Y-96730563D01*
X157566564Y-96797601D01*
X157600049Y-96858924D01*
X157602883Y-96885282D01*
X157602883Y-98026795D01*
X157596032Y-98050125D01*
X157593422Y-98074300D01*
X157586364Y-98083049D01*
X157583198Y-98093834D01*
X157564824Y-98109755D01*
X157549557Y-98128683D01*
X157538888Y-98132228D01*
X157530394Y-98139589D01*
X157506327Y-98143049D01*
X157483252Y-98150718D01*
X157466358Y-98148796D01*
X157461236Y-98149533D01*
X157448162Y-98146929D01*
X157447412Y-98146737D01*
X157427818Y-98141487D01*
X157426881Y-98141487D01*
X157418700Y-98139395D01*
X157394774Y-98125184D01*
X157369324Y-98113921D01*
X157365148Y-98107588D01*
X157358628Y-98103716D01*
X157346182Y-98078824D01*
X157330862Y-98055590D01*
X157329364Y-98048699D01*
X157329299Y-98048717D01*
X157327196Y-98040868D01*
X157327196Y-98040866D01*
X157301606Y-97945363D01*
X157252171Y-97859739D01*
X157182258Y-97789826D01*
X157096634Y-97740391D01*
X157001131Y-97714801D01*
X156902261Y-97714801D01*
X156816927Y-97737666D01*
X156813872Y-97737593D01*
X156811192Y-97739057D01*
X156779172Y-97736767D01*
X156747077Y-97736003D01*
X156744547Y-97734290D01*
X156741500Y-97734073D01*
X156715798Y-97714832D01*
X156689215Y-97696840D01*
X156688012Y-97694031D01*
X156685567Y-97692201D01*
X156674347Y-97662120D01*
X156661711Y-97632611D01*
X156662217Y-97629599D01*
X156661150Y-97626737D01*
X156667974Y-97595366D01*
X156673298Y-97563709D01*
X156675548Y-97560548D01*
X156676002Y-97558464D01*
X156697150Y-97530213D01*
X156844765Y-97382599D01*
X156844768Y-97382597D01*
X156862206Y-97365159D01*
X156862207Y-97365159D01*
X156925641Y-97301725D01*
X156946832Y-97250565D01*
X156959972Y-97218843D01*
X156959972Y-97129134D01*
X156959971Y-97129131D01*
X156959971Y-96408107D01*
X156959972Y-96408098D01*
X156959972Y-96303956D01*
X156959972Y-96303955D01*
X156925641Y-96221075D01*
X156925641Y-96221074D01*
X156862207Y-96157640D01*
X156855142Y-96150575D01*
X156855135Y-96150569D01*
X155811819Y-95107253D01*
X155778334Y-95045930D01*
X155775500Y-95019572D01*
X155775500Y-94690191D01*
X155795185Y-94623152D01*
X155847989Y-94577397D01*
X155917147Y-94567453D01*
X155931582Y-94570413D01*
X155950565Y-94575500D01*
X155950568Y-94575500D01*
X156049432Y-94575500D01*
X156049435Y-94575500D01*
X156144938Y-94549910D01*
X156193568Y-94521833D01*
X156261465Y-94505360D01*
X156327493Y-94528212D01*
X156362953Y-94567219D01*
X156396025Y-94624500D01*
X156399525Y-94630562D01*
X156469438Y-94700475D01*
X156555062Y-94749910D01*
X156650565Y-94775500D01*
X156650567Y-94775500D01*
X156705233Y-94775500D01*
X156772272Y-94795185D01*
X156792913Y-94811818D01*
X157001799Y-95020705D01*
X157208829Y-95227735D01*
X157272266Y-95291172D01*
X157336365Y-95317721D01*
X157355145Y-95325500D01*
X161143100Y-95325500D01*
X161210139Y-95345185D01*
X161230780Y-95361818D01*
X161254829Y-95385866D01*
X161269438Y-95400475D01*
X161355062Y-95449910D01*
X161450565Y-95475500D01*
X161450567Y-95475500D01*
X161549432Y-95475500D01*
X161549435Y-95475500D01*
X161644938Y-95449910D01*
X161730562Y-95400475D01*
X161800475Y-95330562D01*
X161849910Y-95244938D01*
X161875500Y-95149435D01*
X161875500Y-95050565D01*
X161849910Y-94955062D01*
X161800475Y-94869438D01*
X161730562Y-94799525D01*
X161644938Y-94750090D01*
X161549435Y-94724500D01*
X161450565Y-94724500D01*
X161355062Y-94750090D01*
X161355060Y-94750091D01*
X161355059Y-94750091D01*
X161269436Y-94799526D01*
X161230780Y-94838182D01*
X161169457Y-94871667D01*
X161143100Y-94874500D01*
X157544768Y-94874500D01*
X157477729Y-94854815D01*
X157457087Y-94838181D01*
X157111819Y-94492913D01*
X157078334Y-94431590D01*
X157075500Y-94405232D01*
X157075500Y-94350567D01*
X157075500Y-94350565D01*
X157049910Y-94255062D01*
X157000475Y-94169438D01*
X156930562Y-94099525D01*
X156844938Y-94050090D01*
X156749435Y-94024500D01*
X156650565Y-94024500D01*
X156600817Y-94037830D01*
X156555061Y-94050090D01*
X156506431Y-94078167D01*
X156503339Y-94078916D01*
X156501035Y-94081106D01*
X156469626Y-94087095D01*
X156438531Y-94094639D01*
X156435524Y-94093598D01*
X156432402Y-94094194D01*
X156402734Y-94082249D01*
X156372504Y-94071786D01*
X156369654Y-94068930D01*
X156367589Y-94068099D01*
X156359569Y-94058826D01*
X156343283Y-94042507D01*
X156339938Y-94037790D01*
X156300475Y-93969438D01*
X156269505Y-93938468D01*
X156263447Y-93929925D01*
X156255353Y-93906391D01*
X156243430Y-93884555D01*
X156244189Y-93873929D01*
X156240725Y-93863854D01*
X156246638Y-93839684D01*
X156248414Y-93814863D01*
X156255354Y-93804063D01*
X156257331Y-93795986D01*
X156265582Y-93788149D01*
X156276912Y-93770519D01*
X156300475Y-93746957D01*
X156349910Y-93661333D01*
X156375500Y-93565830D01*
X156375500Y-93466960D01*
X156349910Y-93371457D01*
X156300475Y-93285833D01*
X156230562Y-93215920D01*
X156144938Y-93166485D01*
X156049435Y-93140895D01*
X155950565Y-93140895D01*
X155931590Y-93145979D01*
X155906596Y-93145383D01*
X155881853Y-93148941D01*
X155872270Y-93144565D01*
X155861740Y-93144314D01*
X155841039Y-93130301D01*
X155818297Y-93119916D01*
X155812600Y-93111052D01*
X155803879Y-93105149D01*
X155794039Y-93082170D01*
X155780523Y-93061138D01*
X155778242Y-93045279D01*
X155776376Y-93040920D01*
X155775500Y-93026203D01*
X155775500Y-92972900D01*
X155775501Y-92972891D01*
X155775501Y-92868749D01*
X155775501Y-92868748D01*
X155741170Y-92785868D01*
X155741170Y-92785867D01*
X155677736Y-92722433D01*
X155670671Y-92715368D01*
X155670664Y-92715362D01*
X154863393Y-91908091D01*
X155938338Y-91908091D01*
X155938338Y-92006961D01*
X155963928Y-92102464D01*
X156013363Y-92188088D01*
X156083276Y-92258001D01*
X156168900Y-92307436D01*
X156264403Y-92333026D01*
X156264405Y-92333026D01*
X156363270Y-92333026D01*
X156363273Y-92333026D01*
X156458776Y-92307436D01*
X156544400Y-92258001D01*
X156614313Y-92188088D01*
X156663748Y-92102464D01*
X156689338Y-92006961D01*
X156689338Y-91908091D01*
X156673924Y-91850565D01*
X157024500Y-91850565D01*
X157024500Y-91949435D01*
X157050090Y-92044938D01*
X157050091Y-92044939D01*
X157050091Y-92044940D01*
X157060120Y-92062311D01*
X157099525Y-92130562D01*
X157169438Y-92200475D01*
X157255062Y-92249910D01*
X157350565Y-92275500D01*
X157350567Y-92275500D01*
X157449432Y-92275500D01*
X157449435Y-92275500D01*
X157544938Y-92249910D01*
X157630562Y-92200475D01*
X157700475Y-92130562D01*
X157749910Y-92044938D01*
X157775500Y-91949435D01*
X157775500Y-91850565D01*
X157749910Y-91755062D01*
X157700475Y-91669438D01*
X157630562Y-91599525D01*
X157544938Y-91550090D01*
X157449435Y-91524500D01*
X157350565Y-91524500D01*
X157255062Y-91550090D01*
X157255060Y-91550091D01*
X157255059Y-91550091D01*
X157169436Y-91599526D01*
X157099526Y-91669436D01*
X157050091Y-91755059D01*
X157050091Y-91755060D01*
X157050090Y-91755062D01*
X157024500Y-91850565D01*
X156673924Y-91850565D01*
X156663748Y-91812588D01*
X156614313Y-91726964D01*
X156544400Y-91657051D01*
X156458776Y-91607616D01*
X156363273Y-91582026D01*
X156264403Y-91582026D01*
X156168900Y-91607616D01*
X156168898Y-91607617D01*
X156168897Y-91607617D01*
X156083274Y-91657052D01*
X156013364Y-91726962D01*
X155963929Y-91812585D01*
X155963929Y-91812586D01*
X155963928Y-91812588D01*
X155938338Y-91908091D01*
X154863393Y-91908091D01*
X154568768Y-91613466D01*
X154535283Y-91552143D01*
X154540267Y-91482451D01*
X154582139Y-91426518D01*
X154647603Y-91402101D01*
X154688543Y-91406010D01*
X154693857Y-91407434D01*
X154693861Y-91407436D01*
X154789364Y-91433026D01*
X154789367Y-91433026D01*
X154888231Y-91433026D01*
X154888234Y-91433026D01*
X154983737Y-91407436D01*
X155069361Y-91358001D01*
X155139274Y-91288088D01*
X155188709Y-91202464D01*
X155214299Y-91106961D01*
X155214299Y-91008091D01*
X155188709Y-90912588D01*
X155139274Y-90826964D01*
X155069361Y-90757051D01*
X154983737Y-90707616D01*
X154888234Y-90682026D01*
X154789364Y-90682026D01*
X154693861Y-90707616D01*
X154693859Y-90707617D01*
X154693858Y-90707617D01*
X154608235Y-90757052D01*
X154538325Y-90826962D01*
X154488890Y-90912585D01*
X154488890Y-90912586D01*
X154488889Y-90912588D01*
X154463299Y-91008091D01*
X154463299Y-91008093D01*
X154463299Y-91106960D01*
X154490314Y-91207782D01*
X154488651Y-91277632D01*
X154449488Y-91335494D01*
X154385260Y-91362998D01*
X154316358Y-91351411D01*
X154282858Y-91327556D01*
X154024222Y-91068920D01*
X153990737Y-91007597D01*
X153987903Y-90981239D01*
X153987903Y-90375567D01*
X156581483Y-90375567D01*
X156581483Y-90474437D01*
X156607073Y-90569940D01*
X156656508Y-90655564D01*
X156726421Y-90725477D01*
X156812045Y-90774912D01*
X156907548Y-90800502D01*
X156907550Y-90800502D01*
X157006415Y-90800502D01*
X157006418Y-90800502D01*
X157101921Y-90774912D01*
X157187545Y-90725477D01*
X157257458Y-90655564D01*
X157306893Y-90569940D01*
X157332483Y-90474437D01*
X157332483Y-90375567D01*
X157306893Y-90280064D01*
X157257458Y-90194440D01*
X157187545Y-90124527D01*
X157101921Y-90075092D01*
X157006418Y-90049502D01*
X156907548Y-90049502D01*
X156812045Y-90075092D01*
X156812043Y-90075093D01*
X156812042Y-90075093D01*
X156726419Y-90124528D01*
X156656509Y-90194438D01*
X156607074Y-90280061D01*
X156607074Y-90280062D01*
X156607073Y-90280064D01*
X156581483Y-90375567D01*
X153987903Y-90375567D01*
X153987903Y-89910439D01*
X154007588Y-89843400D01*
X154060392Y-89797645D01*
X154129550Y-89787701D01*
X154173897Y-89803049D01*
X154255062Y-89849910D01*
X154350565Y-89875500D01*
X154350567Y-89875500D01*
X154449432Y-89875500D01*
X154449435Y-89875500D01*
X154544938Y-89849910D01*
X154630562Y-89800475D01*
X154700475Y-89730562D01*
X154749910Y-89644938D01*
X154775500Y-89549435D01*
X154775500Y-89450565D01*
X154749910Y-89355062D01*
X154700475Y-89269438D01*
X154630562Y-89199525D01*
X154544938Y-89150090D01*
X154449435Y-89124500D01*
X154350565Y-89124500D01*
X154255062Y-89150090D01*
X154255060Y-89150091D01*
X154255059Y-89150091D01*
X154211764Y-89175088D01*
X154169438Y-89199525D01*
X154169437Y-89199526D01*
X154168276Y-89200687D01*
X154167054Y-89201353D01*
X154162988Y-89204474D01*
X154162501Y-89203839D01*
X154106950Y-89234167D01*
X154037259Y-89229178D01*
X153999836Y-89205125D01*
X153999415Y-89205674D01*
X153992968Y-89200727D01*
X153990888Y-89199526D01*
X153907341Y-89151290D01*
X153811838Y-89125700D01*
X153792567Y-89125700D01*
X153771321Y-89119461D01*
X153749233Y-89117882D01*
X153738449Y-89109809D01*
X153725528Y-89106015D01*
X153711028Y-89089281D01*
X153693300Y-89076010D01*
X153688592Y-89063389D01*
X153679773Y-89053211D01*
X153676621Y-89031293D01*
X153668883Y-89010546D01*
X153671745Y-88997385D01*
X153669829Y-88984053D01*
X153679028Y-88963909D01*
X153683735Y-88942273D01*
X153697003Y-88924547D01*
X153698854Y-88920497D01*
X153704886Y-88914019D01*
X153720154Y-88898751D01*
X153781477Y-88865266D01*
X153807835Y-88862432D01*
X156326893Y-88862432D01*
X156393932Y-88882117D01*
X156439687Y-88934921D01*
X156449631Y-89004079D01*
X156446667Y-89018527D01*
X156441327Y-89038453D01*
X156441327Y-89038455D01*
X156441327Y-89137325D01*
X156466917Y-89232828D01*
X156466918Y-89232829D01*
X156466918Y-89232830D01*
X156467690Y-89234167D01*
X156516352Y-89318452D01*
X156586265Y-89388365D01*
X156671889Y-89437800D01*
X156767392Y-89463390D01*
X156767394Y-89463390D01*
X156866259Y-89463390D01*
X156866262Y-89463390D01*
X156961765Y-89437800D01*
X157025290Y-89401123D01*
X157093185Y-89384651D01*
X157159212Y-89407502D01*
X157174968Y-89420830D01*
X157195530Y-89441392D01*
X157281154Y-89490827D01*
X157376657Y-89516417D01*
X157376659Y-89516417D01*
X157475524Y-89516417D01*
X157475527Y-89516417D01*
X157571030Y-89490827D01*
X157656654Y-89441392D01*
X157673541Y-89424504D01*
X157734861Y-89391019D01*
X157804553Y-89396002D01*
X157823212Y-89404793D01*
X157878723Y-89436842D01*
X157974226Y-89462432D01*
X157974228Y-89462432D01*
X158073093Y-89462432D01*
X158073096Y-89462432D01*
X158168599Y-89436842D01*
X158254223Y-89387407D01*
X158324136Y-89317494D01*
X158373571Y-89231870D01*
X158399161Y-89136367D01*
X158399161Y-89037497D01*
X158373571Y-88941994D01*
X158324136Y-88856370D01*
X158254223Y-88786457D01*
X158168599Y-88737022D01*
X158073096Y-88711432D01*
X158006834Y-88711432D01*
X157985588Y-88705193D01*
X157963500Y-88703614D01*
X157952716Y-88695541D01*
X157939795Y-88691747D01*
X157925295Y-88675013D01*
X157907567Y-88661742D01*
X157902859Y-88649121D01*
X157894040Y-88638943D01*
X157890888Y-88617025D01*
X157883150Y-88596278D01*
X157886012Y-88583117D01*
X157884096Y-88569785D01*
X157893295Y-88549641D01*
X157898002Y-88528005D01*
X157911270Y-88510279D01*
X157913121Y-88506229D01*
X157919153Y-88499751D01*
X157991379Y-88427525D01*
X160949500Y-88427525D01*
X160949500Y-88572475D01*
X160981459Y-88691747D01*
X160987017Y-88712488D01*
X161059488Y-88838011D01*
X161059490Y-88838013D01*
X161059491Y-88838015D01*
X161161985Y-88940509D01*
X161161986Y-88940510D01*
X161161988Y-88940511D01*
X161287511Y-89012982D01*
X161287512Y-89012982D01*
X161287515Y-89012984D01*
X161427525Y-89050500D01*
X161427528Y-89050500D01*
X161572472Y-89050500D01*
X161572475Y-89050500D01*
X161712485Y-89012984D01*
X161838015Y-88940509D01*
X161940509Y-88838015D01*
X162012984Y-88712485D01*
X162050500Y-88572475D01*
X162050500Y-88427525D01*
X162012984Y-88287515D01*
X162008755Y-88280191D01*
X161940511Y-88161988D01*
X161940506Y-88161982D01*
X161838017Y-88059493D01*
X161838011Y-88059488D01*
X161712488Y-87987017D01*
X161712489Y-87987017D01*
X161701006Y-87983940D01*
X161572475Y-87949500D01*
X161427525Y-87949500D01*
X161298993Y-87983940D01*
X161287511Y-87987017D01*
X161161988Y-88059488D01*
X161161982Y-88059493D01*
X161059493Y-88161982D01*
X161059488Y-88161988D01*
X160987017Y-88287511D01*
X160987016Y-88287515D01*
X160949500Y-88427525D01*
X157991379Y-88427525D01*
X159107085Y-87311819D01*
X159168408Y-87278334D01*
X159194766Y-87275500D01*
X159249432Y-87275500D01*
X159249435Y-87275500D01*
X159344938Y-87249910D01*
X159430562Y-87200475D01*
X159500475Y-87130562D01*
X159549910Y-87044938D01*
X159575500Y-86949435D01*
X159575500Y-86850565D01*
X159549910Y-86755062D01*
X159500475Y-86669438D01*
X159430562Y-86599525D01*
X159344938Y-86550090D01*
X159249435Y-86524500D01*
X159150565Y-86524500D01*
X159055062Y-86550090D01*
X159055060Y-86550091D01*
X159055059Y-86550091D01*
X158969436Y-86599526D01*
X158899526Y-86669436D01*
X158850091Y-86755059D01*
X158850091Y-86755060D01*
X158850090Y-86755062D01*
X158824500Y-86850565D01*
X158824500Y-86850567D01*
X158824500Y-86905232D01*
X158804815Y-86972271D01*
X158788181Y-86992913D01*
X157405982Y-88375113D01*
X157344659Y-88408598D01*
X157318301Y-88411432D01*
X153618213Y-88411432D01*
X153618211Y-88411432D01*
X153618209Y-88411433D01*
X153535334Y-88445759D01*
X153121232Y-88859861D01*
X153111177Y-88884134D01*
X153111177Y-88884136D01*
X153101122Y-88908410D01*
X153086902Y-88942740D01*
X153086902Y-89034806D01*
X153067217Y-89101845D01*
X153014413Y-89147600D01*
X152945255Y-89157544D01*
X152930814Y-89154582D01*
X152911838Y-89149498D01*
X152812968Y-89149498D01*
X152717465Y-89175088D01*
X152717463Y-89175088D01*
X152717463Y-89175089D01*
X152709955Y-89178199D01*
X152708691Y-89175147D01*
X152655721Y-89187978D01*
X152589702Y-89165103D01*
X152573984Y-89151802D01*
X152508983Y-89086801D01*
X152508982Y-89086800D01*
X152425246Y-89038455D01*
X152423360Y-89037366D01*
X152423359Y-89037365D01*
X152383364Y-89026648D01*
X152354097Y-89018806D01*
X152294438Y-88982441D01*
X152263909Y-88919594D01*
X152272204Y-88850219D01*
X152316690Y-88796341D01*
X152354096Y-88779258D01*
X152369838Y-88775041D01*
X152455462Y-88725606D01*
X152525375Y-88655693D01*
X152574810Y-88570069D01*
X152600400Y-88474566D01*
X152600400Y-88375696D01*
X152574810Y-88280193D01*
X152525375Y-88194569D01*
X152455462Y-88124656D01*
X152455459Y-88124654D01*
X152452491Y-88122377D01*
X152450617Y-88119811D01*
X152449715Y-88118909D01*
X152449855Y-88118768D01*
X152411287Y-88065950D01*
X152407132Y-87996204D01*
X152441343Y-87935283D01*
X152503060Y-87902529D01*
X152527976Y-87900000D01*
X154875000Y-87900000D01*
X154875000Y-84978821D01*
X154894685Y-84911782D01*
X154947489Y-84866027D01*
X155016175Y-84856016D01*
X155570381Y-84933532D01*
G37*
%TD.AperFunction*%
%TA.AperFunction,Conductor*%
G36*
X146972910Y-88892261D02*
G01*
X146979388Y-88898293D01*
X148370166Y-90289071D01*
X148403651Y-90350394D01*
X148406485Y-90376752D01*
X148406485Y-91482533D01*
X148386800Y-91549572D01*
X148333996Y-91595327D01*
X148264838Y-91605271D01*
X148201282Y-91576246D01*
X148194804Y-91570214D01*
X148179966Y-91555376D01*
X148179965Y-91555375D01*
X148094341Y-91505940D01*
X147998838Y-91480350D01*
X147899968Y-91480350D01*
X147804465Y-91505940D01*
X147804463Y-91505941D01*
X147804462Y-91505941D01*
X147718841Y-91555375D01*
X147661982Y-91612234D01*
X147600658Y-91645718D01*
X147530967Y-91640733D01*
X147512303Y-91631940D01*
X147509313Y-91630213D01*
X147505525Y-91628026D01*
X147451185Y-91613466D01*
X147410021Y-91602436D01*
X147311151Y-91602436D01*
X147215648Y-91628026D01*
X147215646Y-91628027D01*
X147215645Y-91628027D01*
X147130022Y-91677462D01*
X147060112Y-91747372D01*
X147010677Y-91832995D01*
X147010677Y-91832996D01*
X147010676Y-91832998D01*
X146985086Y-91928501D01*
X146985086Y-91928503D01*
X146985086Y-91983168D01*
X146965401Y-92050207D01*
X146948767Y-92070849D01*
X144708830Y-94310785D01*
X144708830Y-94310787D01*
X144674499Y-94393666D01*
X144674499Y-94497810D01*
X144674500Y-94497819D01*
X144674500Y-103184397D01*
X144654815Y-103251436D01*
X144602011Y-103297191D01*
X144532853Y-103307135D01*
X144518410Y-103304173D01*
X144507722Y-103301309D01*
X144499435Y-103299089D01*
X144400565Y-103299089D01*
X144305062Y-103324679D01*
X144305060Y-103324680D01*
X144305059Y-103324680D01*
X144219436Y-103374115D01*
X144149526Y-103444025D01*
X144100091Y-103529648D01*
X144100091Y-103529649D01*
X144100090Y-103529651D01*
X144074500Y-103625154D01*
X144074500Y-103724024D01*
X144100090Y-103819527D01*
X144149525Y-103905151D01*
X144219438Y-103975064D01*
X144305062Y-104024499D01*
X144400565Y-104050089D01*
X144400567Y-104050089D01*
X144499432Y-104050089D01*
X144499435Y-104050089D01*
X144518408Y-104045005D01*
X144588256Y-104046668D01*
X144646119Y-104085830D01*
X144673623Y-104150059D01*
X144674500Y-104164780D01*
X144674500Y-106358245D01*
X144674499Y-106358259D01*
X144674499Y-106457959D01*
X144693890Y-106504773D01*
X144708828Y-106540836D01*
X144708831Y-106540840D01*
X144789700Y-106621709D01*
X144789706Y-106621714D01*
X144990829Y-106822837D01*
X145024314Y-106884160D01*
X145019330Y-106953852D01*
X144977458Y-107009785D01*
X144911994Y-107034202D01*
X144871056Y-107030293D01*
X144849436Y-107024500D01*
X144849435Y-107024500D01*
X144750565Y-107024500D01*
X144655062Y-107050090D01*
X144655060Y-107050091D01*
X144655059Y-107050091D01*
X144569436Y-107099526D01*
X144499526Y-107169436D01*
X144450091Y-107255059D01*
X144450091Y-107255060D01*
X144450090Y-107255062D01*
X144424500Y-107350565D01*
X144424500Y-107449435D01*
X144450090Y-107544938D01*
X144499525Y-107630562D01*
X144569438Y-107700475D01*
X144643290Y-107743113D01*
X144691505Y-107793681D01*
X144704727Y-107862288D01*
X144678759Y-107927152D01*
X144621845Y-107967680D01*
X144581289Y-107974500D01*
X141343767Y-107974500D01*
X141276728Y-107954815D01*
X141230973Y-107902011D01*
X141221029Y-107832853D01*
X141250054Y-107769297D01*
X141256086Y-107762819D01*
X141449469Y-107569436D01*
X142456396Y-106562508D01*
X142456398Y-106562508D01*
X142519832Y-106499074D01*
X142543747Y-106441338D01*
X142549519Y-106427403D01*
X142558452Y-106415271D01*
X142565958Y-106409557D01*
X142591192Y-106378252D01*
X142657489Y-106356195D01*
X142693987Y-106360340D01*
X142750565Y-106375500D01*
X142750568Y-106375500D01*
X142849432Y-106375500D01*
X142849435Y-106375500D01*
X142944938Y-106349910D01*
X143030562Y-106300475D01*
X143100475Y-106230562D01*
X143149910Y-106144938D01*
X143175500Y-106049435D01*
X143175500Y-105950565D01*
X143149910Y-105855062D01*
X143100475Y-105769438D01*
X143030562Y-105699525D01*
X142944938Y-105650090D01*
X142849435Y-105624500D01*
X142750565Y-105624500D01*
X142710255Y-105635301D01*
X142640405Y-105633638D01*
X142582542Y-105594475D01*
X142555039Y-105530246D01*
X142554162Y-105515526D01*
X142554162Y-100426745D01*
X142573847Y-100359706D01*
X142590481Y-100339064D01*
X142598401Y-100331144D01*
X142629137Y-100300408D01*
X142678572Y-100214784D01*
X142704162Y-100119281D01*
X142704162Y-100020411D01*
X142678572Y-99924908D01*
X142629137Y-99839284D01*
X142610652Y-99820799D01*
X142590480Y-99800626D01*
X142556995Y-99739303D01*
X142554162Y-99712946D01*
X142554162Y-95216104D01*
X142573847Y-95149065D01*
X142590476Y-95128428D01*
X145510294Y-92208609D01*
X145510297Y-92208608D01*
X145527735Y-92191170D01*
X145527736Y-92191170D01*
X145591170Y-92127736D01*
X145601638Y-92102464D01*
X145625501Y-92044855D01*
X145625501Y-91955145D01*
X145625501Y-91945156D01*
X145625500Y-91945142D01*
X145625500Y-90356899D01*
X145645185Y-90289860D01*
X145661819Y-90269218D01*
X145666188Y-90264849D01*
X145700475Y-90230562D01*
X145749910Y-90144938D01*
X145775500Y-90049435D01*
X145775500Y-89950565D01*
X145749910Y-89855062D01*
X145700475Y-89769438D01*
X145630562Y-89699525D01*
X145551236Y-89653726D01*
X145544940Y-89650091D01*
X145544933Y-89650088D01*
X145505915Y-89639633D01*
X145446255Y-89603268D01*
X145415727Y-89540420D01*
X145424022Y-89471045D01*
X145450324Y-89432183D01*
X145655689Y-89226818D01*
X145717011Y-89193336D01*
X145743369Y-89190502D01*
X146035307Y-89190502D01*
X146102346Y-89210187D01*
X146122987Y-89226820D01*
X146156252Y-89260084D01*
X146161645Y-89265477D01*
X146247269Y-89314912D01*
X146342772Y-89340502D01*
X146342774Y-89340502D01*
X146441639Y-89340502D01*
X146441642Y-89340502D01*
X146537145Y-89314912D01*
X146622769Y-89265477D01*
X146692682Y-89195564D01*
X146742117Y-89109940D01*
X146767707Y-89014437D01*
X146767707Y-88985974D01*
X146787392Y-88918935D01*
X146840196Y-88873180D01*
X146909354Y-88863236D01*
X146972910Y-88892261D01*
G37*
%TD.AperFunction*%
%TA.AperFunction,Conductor*%
G36*
X146082254Y-93663950D02*
G01*
X146095071Y-93664867D01*
X146113284Y-93678501D01*
X146133883Y-93688161D01*
X146140720Y-93699039D01*
X146151005Y-93706739D01*
X146158954Y-93728053D01*
X146171062Y-93747317D01*
X146173805Y-93767868D01*
X146175422Y-93772203D01*
X146175091Y-93777499D01*
X146175732Y-93782301D01*
X146175584Y-93796874D01*
X146174499Y-93799496D01*
X146174499Y-93889206D01*
X146174500Y-93889208D01*
X146174500Y-93904305D01*
X146174500Y-103345142D01*
X146174499Y-103345156D01*
X146174499Y-103355145D01*
X146174499Y-103444855D01*
X146176667Y-103450090D01*
X146184681Y-103469435D01*
X146184681Y-103469437D01*
X146184682Y-103469437D01*
X146184682Y-103469438D01*
X146208830Y-103527736D01*
X146208831Y-103527737D01*
X146289700Y-103608606D01*
X146289706Y-103608611D01*
X146438181Y-103757086D01*
X146471666Y-103818409D01*
X146474500Y-103844767D01*
X146474500Y-106696101D01*
X146454815Y-106763140D01*
X146402011Y-106808895D01*
X146332853Y-106818839D01*
X146269297Y-106789814D01*
X146252126Y-106771590D01*
X146250473Y-106769436D01*
X146180563Y-106699526D01*
X146180562Y-106699525D01*
X146094938Y-106650090D01*
X145999435Y-106624500D01*
X145900565Y-106624500D01*
X145805062Y-106650090D01*
X145805060Y-106650091D01*
X145805059Y-106650091D01*
X145719436Y-106699526D01*
X145700061Y-106718901D01*
X145638738Y-106752385D01*
X145569046Y-106747399D01*
X145524701Y-106718899D01*
X145161819Y-106356017D01*
X145128334Y-106294694D01*
X145125500Y-106268336D01*
X145125500Y-97690191D01*
X145145185Y-97623152D01*
X145197989Y-97577397D01*
X145267147Y-97567453D01*
X145281582Y-97570413D01*
X145300565Y-97575500D01*
X145300568Y-97575500D01*
X145399432Y-97575500D01*
X145399435Y-97575500D01*
X145494938Y-97549910D01*
X145580562Y-97500475D01*
X145650475Y-97430562D01*
X145699910Y-97344938D01*
X145725500Y-97249435D01*
X145725500Y-97150565D01*
X145699910Y-97055062D01*
X145650475Y-96969438D01*
X145580562Y-96899525D01*
X145494938Y-96850090D01*
X145399435Y-96824500D01*
X145300565Y-96824500D01*
X145281590Y-96829584D01*
X145211740Y-96827919D01*
X145153879Y-96788754D01*
X145126376Y-96724525D01*
X145125500Y-96709808D01*
X145125500Y-94583288D01*
X145145185Y-94516249D01*
X145161814Y-94495612D01*
X145964060Y-93693366D01*
X145984023Y-93682465D01*
X146001368Y-93667740D01*
X146014104Y-93666039D01*
X146025380Y-93659883D01*
X146048073Y-93661505D01*
X146070623Y-93658496D01*
X146082254Y-93663950D01*
G37*
%TD.AperFunction*%
%TA.AperFunction,Conductor*%
G36*
X155089948Y-95449885D02*
G01*
X155105706Y-95463214D01*
X155907676Y-96265184D01*
X155941161Y-96326507D01*
X155936448Y-96392398D01*
X155936665Y-96392456D01*
X155936364Y-96393577D01*
X155936177Y-96396199D01*
X155934563Y-96400299D01*
X155934561Y-96400305D01*
X155934561Y-96400306D01*
X155908971Y-96495809D01*
X155908971Y-96594679D01*
X155934561Y-96690182D01*
X155983996Y-96775806D01*
X156053909Y-96845719D01*
X156139533Y-96895154D01*
X156235036Y-96920744D01*
X156235038Y-96920744D01*
X156333904Y-96920744D01*
X156333906Y-96920744D01*
X156344389Y-96917935D01*
X156414237Y-96919596D01*
X156472100Y-96958757D01*
X156499606Y-97022985D01*
X156488021Y-97091888D01*
X156464164Y-97125390D01*
X155630508Y-97959047D01*
X155569185Y-97992532D01*
X155542827Y-97995366D01*
X155537220Y-97995366D01*
X155537218Y-97995366D01*
X155537216Y-97995367D01*
X155454341Y-98029693D01*
X154644930Y-98839104D01*
X154621873Y-98857252D01*
X154620554Y-98858057D01*
X154538045Y-98905694D01*
X154530988Y-98912750D01*
X154518380Y-98920450D01*
X154498331Y-98925839D01*
X154480114Y-98935787D01*
X154465273Y-98934725D01*
X154450906Y-98938588D01*
X154431129Y-98932283D01*
X154410422Y-98930803D01*
X154398510Y-98921886D01*
X154384337Y-98917368D01*
X154371107Y-98901372D01*
X154354489Y-98888931D01*
X154349289Y-98874990D01*
X154339808Y-98863526D01*
X154337326Y-98842917D01*
X154330072Y-98823467D01*
X154329756Y-98814621D01*
X154329756Y-97055830D01*
X154349441Y-96988791D01*
X154402245Y-96943036D01*
X154471403Y-96933092D01*
X154515753Y-96948442D01*
X154543469Y-96964444D01*
X154638972Y-96990034D01*
X154638974Y-96990034D01*
X154737839Y-96990034D01*
X154737842Y-96990034D01*
X154833345Y-96964444D01*
X154918969Y-96915009D01*
X154988882Y-96845096D01*
X155038317Y-96759472D01*
X155063907Y-96663969D01*
X155063907Y-96565099D01*
X155038317Y-96469596D01*
X154988882Y-96383972D01*
X154918969Y-96314059D01*
X154833345Y-96264624D01*
X154737842Y-96239034D01*
X154699500Y-96239034D01*
X154632461Y-96219349D01*
X154586706Y-96166545D01*
X154575500Y-96115034D01*
X154575500Y-95590191D01*
X154595185Y-95523152D01*
X154647989Y-95477397D01*
X154717147Y-95467453D01*
X154731582Y-95470413D01*
X154750565Y-95475500D01*
X154750568Y-95475500D01*
X154849432Y-95475500D01*
X154849435Y-95475500D01*
X154944938Y-95449910D01*
X154956024Y-95443509D01*
X155023920Y-95427035D01*
X155089948Y-95449885D01*
G37*
%TD.AperFunction*%
%TD*%
M02*
