%TF.GenerationSoftware,KiCad,Pcbnew,8.0.7*%
%TF.CreationDate,2025-01-11T23:39:27+09:00*%
%TF.ProjectId,epaper-smart-watch,65706170-6572-42d7-936d-6172742d7761,rev?*%
%TF.SameCoordinates,Original*%
%TF.FileFunction,Copper,L4,Bot*%
%TF.FilePolarity,Positive*%
%FSLAX46Y46*%
G04 Gerber Fmt 4.6, Leading zero omitted, Abs format (unit mm)*
G04 Created by KiCad (PCBNEW 8.0.7) date 2025-01-11 23:39:27*
%MOMM*%
%LPD*%
G01*
G04 APERTURE LIST*
G04 Aperture macros list*
%AMRoundRect*
0 Rectangle with rounded corners*
0 $1 Rounding radius*
0 $2 $3 $4 $5 $6 $7 $8 $9 X,Y pos of 4 corners*
0 Add a 4 corners polygon primitive as box body*
4,1,4,$2,$3,$4,$5,$6,$7,$8,$9,$2,$3,0*
0 Add four circle primitives for the rounded corners*
1,1,$1+$1,$2,$3*
1,1,$1+$1,$4,$5*
1,1,$1+$1,$6,$7*
1,1,$1+$1,$8,$9*
0 Add four rect primitives between the rounded corners*
20,1,$1+$1,$2,$3,$4,$5,0*
20,1,$1+$1,$4,$5,$6,$7,0*
20,1,$1+$1,$6,$7,$8,$9,0*
20,1,$1+$1,$8,$9,$2,$3,0*%
%AMFreePoly0*
4,1,19,0.550000,-0.750000,0.000000,-0.750000,0.000000,-0.744911,-0.071157,-0.744911,-0.207708,-0.704816,-0.327430,-0.627875,-0.420627,-0.520320,-0.479746,-0.390866,-0.500000,-0.250000,-0.500000,0.250000,-0.479746,0.390866,-0.420627,0.520320,-0.327430,0.627875,-0.207708,0.704816,-0.071157,0.744911,0.000000,0.744911,0.000000,0.750000,0.550000,0.750000,0.550000,-0.750000,0.550000,-0.750000,
$1*%
%AMFreePoly1*
4,1,19,0.000000,0.744911,0.071157,0.744911,0.207708,0.704816,0.327430,0.627875,0.420627,0.520320,0.479746,0.390866,0.500000,0.250000,0.500000,-0.250000,0.479746,-0.390866,0.420627,-0.520320,0.327430,-0.627875,0.207708,-0.704816,0.071157,-0.744911,0.000000,-0.744911,0.000000,-0.750000,-0.550000,-0.750000,-0.550000,0.750000,0.000000,0.750000,0.000000,0.744911,0.000000,0.744911,
$1*%
G04 Aperture macros list end*
%TA.AperFunction,EtchedComponent*%
%ADD10C,0.000000*%
%TD*%
%TA.AperFunction,ComponentPad*%
%ADD11O,2.000000X1.200000*%
%TD*%
%TA.AperFunction,ComponentPad*%
%ADD12O,1.800000X1.200000*%
%TD*%
%TA.AperFunction,SMDPad,CuDef*%
%ADD13RoundRect,0.200000X0.200000X1.250000X-0.200000X1.250000X-0.200000X-1.250000X0.200000X-1.250000X0*%
%TD*%
%TA.AperFunction,SMDPad,CuDef*%
%ADD14RoundRect,0.250000X0.650000X1.650000X-0.650000X1.650000X-0.650000X-1.650000X0.650000X-1.650000X0*%
%TD*%
%TA.AperFunction,SMDPad,CuDef*%
%ADD15FreePoly0,90.000000*%
%TD*%
%TA.AperFunction,SMDPad,CuDef*%
%ADD16R,1.500000X1.000000*%
%TD*%
%TA.AperFunction,SMDPad,CuDef*%
%ADD17FreePoly1,90.000000*%
%TD*%
%TA.AperFunction,SMDPad,CuDef*%
%ADD18FreePoly0,270.000000*%
%TD*%
%TA.AperFunction,SMDPad,CuDef*%
%ADD19FreePoly1,270.000000*%
%TD*%
%TA.AperFunction,ViaPad*%
%ADD20C,0.500000*%
%TD*%
%TA.AperFunction,ViaPad*%
%ADD21C,0.800000*%
%TD*%
%TA.AperFunction,Conductor*%
%ADD22C,0.230000*%
%TD*%
%TA.AperFunction,Conductor*%
%ADD23C,0.150000*%
%TD*%
G04 APERTURE END LIST*
D10*
%TA.AperFunction,EtchedComponent*%
%TO.C,JP2*%
G36*
X144800000Y-91700000D02*
G01*
X144200000Y-91700000D01*
X144200000Y-91200000D01*
X144800000Y-91200000D01*
X144800000Y-91700000D01*
G37*
%TD.AperFunction*%
%TA.AperFunction,EtchedComponent*%
%TO.C,JP1*%
G36*
X147400000Y-90400000D02*
G01*
X146800000Y-90400000D01*
X146800000Y-89900000D01*
X147400000Y-89900000D01*
X147400000Y-90400000D01*
G37*
%TD.AperFunction*%
%TA.AperFunction,EtchedComponent*%
%TO.C,JP3*%
G36*
X140700000Y-88200000D02*
G01*
X140100000Y-88200000D01*
X140100000Y-87700000D01*
X140700000Y-87700000D01*
X140700000Y-88200000D01*
G37*
%TD.AperFunction*%
%TD*%
D11*
%TO.P,P1,1*%
%TO.N,N/C*%
X135551000Y-91680000D03*
%TO.P,P1,2*%
X135551000Y-100320000D03*
D12*
%TO.P,P1,3*%
X131371000Y-91680000D03*
%TO.P,P1,4*%
X131371000Y-100320000D03*
%TD*%
D13*
%TO.P,SWD1,1,1*%
%TO.N,unconnected-(SWD1-Pad1)*%
X147300000Y-101800000D03*
%TO.P,SWD1,2,2*%
%TO.N,/NRST*%
X145800000Y-101800000D03*
%TO.P,SWD1,3,3*%
%TO.N,/SWDIO*%
X144300000Y-101800000D03*
%TO.P,SWD1,4,4*%
%TO.N,GND*%
X142800000Y-101800000D03*
%TO.P,SWD1,5,5*%
%TO.N,/SWDCLK*%
X141300000Y-101800000D03*
%TO.P,SWD1,6,6*%
%TO.N,/EPD_VDD*%
X139800000Y-101800000D03*
D14*
%TO.P,SWD1,MP*%
%TO.N,N/C*%
X149900000Y-106500000D03*
X137200000Y-106500000D03*
%TD*%
D15*
%TO.P,JP2,1,A*%
%TO.N,Net-(JP1-B)*%
X144500000Y-92100000D03*
D16*
%TO.P,JP2,2,C*%
%TO.N,/RXD*%
X144500000Y-90800000D03*
D17*
%TO.P,JP2,3,B*%
%TO.N,Net-(JP1-A)*%
X144500000Y-89500000D03*
%TD*%
D18*
%TO.P,JP1,1,A*%
%TO.N,Net-(JP1-A)*%
X147100000Y-89500000D03*
D16*
%TO.P,JP1,2,C*%
%TO.N,/TXD*%
X147100000Y-90800000D03*
D19*
%TO.P,JP1,3,B*%
%TO.N,Net-(JP1-B)*%
X147100000Y-92100000D03*
%TD*%
D18*
%TO.P,JP3,1,A*%
%TO.N,GND*%
X140400000Y-87300000D03*
D16*
%TO.P,JP3,2,C*%
%TO.N,Net-(J1-Pin_16)*%
X140400000Y-88600000D03*
D19*
%TO.P,JP3,3,B*%
%TO.N,/EPD_VDD*%
X140400000Y-89900000D03*
%TD*%
D20*
%TO.N,GND*%
X134750000Y-85450000D03*
X156500000Y-101300000D03*
X153700000Y-90700000D03*
X149277183Y-96650407D03*
X143900000Y-88370000D03*
X141900000Y-104000000D03*
X145450000Y-95080000D03*
X150300000Y-86000000D03*
X141300000Y-97000000D03*
X140670000Y-91380000D03*
X131390000Y-95560000D03*
X135800000Y-103140000D03*
X136900000Y-90800000D03*
X144650000Y-104800000D03*
X145160000Y-97500000D03*
X156700000Y-90500000D03*
X154300000Y-92600000D03*
D21*
%TO.N,/VBUS*%
X138600001Y-99399999D03*
X133950000Y-98650000D03*
X134800000Y-97151000D03*
X142699990Y-104600000D03*
X140447700Y-93002300D03*
D20*
%TO.N,/EPD_VDD*%
X145459897Y-96911210D03*
X146698823Y-95658541D03*
X140470000Y-101580000D03*
X144382487Y-83335777D03*
X139500000Y-91000000D03*
X142420000Y-96840000D03*
X136033821Y-88566183D03*
X147950000Y-97310000D03*
%TO.N,Net-(PS1-ISET)*%
X138600000Y-106400000D03*
X139780000Y-106640000D03*
%TO.N,/CSB*%
X150495725Y-94497477D03*
X144010000Y-84960000D03*
%TO.N,/DC*%
X143022574Y-83822781D03*
X151854094Y-94491921D03*
%TO.N,/RST_N*%
X152689703Y-97880000D03*
X143219998Y-86600002D03*
%TO.N,/BUSY*%
X142425001Y-84095001D03*
X151180000Y-94510000D03*
%TO.N,/RESR*%
X138760002Y-84580000D03*
X140174822Y-84574822D03*
%TO.N,/BATMS*%
X141010000Y-106300000D03*
X149370000Y-98005000D03*
%TO.N,/NRST*%
X148420000Y-101360000D03*
X146270000Y-99310000D03*
X146803864Y-96300000D03*
%TO.N,/SWDIO*%
X150484857Y-100715737D03*
%TO.N,/SWDCLK*%
X150045439Y-100236765D03*
%TO.N,/BTN_1*%
X153070000Y-93980000D03*
X135200000Y-89099990D03*
%TO.N,/BTN_4*%
X151570000Y-100530000D03*
X135800000Y-104200000D03*
%TO.N,Net-(JP1-A)*%
X143080000Y-92680000D03*
%TO.N,/TXD*%
X152239992Y-98410000D03*
%TO.N,Net-(JP1-B)*%
X146003805Y-91703805D03*
X145280000Y-94220000D03*
%TO.N,/RXD*%
X151570000Y-98500010D03*
%TO.N,/Accel_INT1*%
X150037434Y-99549007D03*
X144100000Y-95700004D03*
%TO.N,/EPD_MOSI*%
X149775380Y-94448885D03*
X143901008Y-86608992D03*
%TO.N,/EPD_SPICL*%
X152560000Y-94530000D03*
X143738845Y-83535723D03*
%TO.N,Net-(J1-Pin_16)*%
X143170028Y-84939986D03*
%TO.N,/VIB*%
X149255876Y-102785876D03*
X150598102Y-101355799D03*
%TO.N,/Accel_CS*%
X146670000Y-98680000D03*
X152190000Y-100120000D03*
%TD*%
D22*
%TO.N,/VBUS*%
X136299000Y-97151000D02*
X140447700Y-93002300D01*
X133950000Y-98001000D02*
X134800000Y-97151000D01*
X134800000Y-97151000D02*
X136299000Y-97151000D01*
X133950000Y-98650000D02*
X133950000Y-98001000D01*
X142699990Y-104600000D02*
X140492391Y-104600000D01*
X140492391Y-104600000D02*
X138600001Y-102707610D01*
X138600001Y-102707610D02*
X138600001Y-99399999D01*
%TO.N,/EPD_VDD*%
X137003817Y-88566183D02*
X142685389Y-82884611D01*
X140400000Y-90100000D02*
X139500000Y-91000000D01*
X142420000Y-96840000D02*
X142420000Y-94034147D01*
X140020000Y-101580000D02*
X139800000Y-101800000D01*
X146698823Y-95785000D02*
X146698823Y-95658541D01*
X147950000Y-97310000D02*
X147950000Y-96717816D01*
X147017184Y-95785000D02*
X146698823Y-95785000D01*
X143931321Y-82884611D02*
X144382487Y-83335777D01*
X142420000Y-94034147D02*
X139500000Y-91114147D01*
X139500000Y-91114147D02*
X139500000Y-91000000D01*
X139800000Y-101800000D02*
X139800014Y-101800014D01*
X139800000Y-99460000D02*
X139800000Y-101800000D01*
X136033821Y-88566183D02*
X137003817Y-88566183D01*
X147950000Y-96717816D02*
X147017184Y-95785000D01*
X142420000Y-96840000D02*
X139800000Y-99460000D01*
X146698823Y-95672284D02*
X145459897Y-96911210D01*
X142685389Y-82884611D02*
X143931321Y-82884611D01*
X140470000Y-101580000D02*
X140020000Y-101580000D01*
X146698823Y-95658541D02*
X146698823Y-95672284D01*
D23*
%TO.N,Net-(PS1-ISET)*%
X139540000Y-106400000D02*
X138600000Y-106400000D01*
X139780000Y-106640000D02*
X139540000Y-106400000D01*
%TO.N,/CSB*%
X145294264Y-84750000D02*
X150495725Y-89951461D01*
X150495725Y-89951461D02*
X150495725Y-94497477D01*
X144220000Y-84750000D02*
X145294264Y-84750000D01*
X144010000Y-84960000D02*
X144220000Y-84750000D01*
%TO.N,/DC*%
X151854094Y-94491921D02*
X151635170Y-94272997D01*
X151635170Y-90242378D02*
X145503569Y-84110777D01*
X143310570Y-84110777D02*
X143022574Y-83822781D01*
X145503569Y-84110777D02*
X143310570Y-84110777D01*
X151635170Y-94272997D02*
X151635170Y-90242378D01*
%TO.N,/RST_N*%
X147126397Y-88150000D02*
X144769996Y-88150000D01*
X152689703Y-97880000D02*
X152534743Y-97880000D01*
X144769996Y-88150000D02*
X143219998Y-86600002D01*
X152534743Y-97880000D02*
X149300380Y-94645637D01*
X149300380Y-94645637D02*
X149300380Y-90323983D01*
X149300380Y-90323983D02*
X147126397Y-88150000D01*
%TO.N,/BUSY*%
X151180000Y-94510000D02*
X151180000Y-90211472D01*
X142740777Y-84410777D02*
X142425001Y-84095001D01*
X145379305Y-84410777D02*
X142740777Y-84410777D01*
X151180000Y-90211472D02*
X145379305Y-84410777D01*
%TO.N,/RESR*%
X140174822Y-84574822D02*
X138765180Y-84574822D01*
X138765180Y-84574822D02*
X138760002Y-84580000D01*
%TO.N,/BATMS*%
X151070000Y-101410000D02*
X151078806Y-101401194D01*
X149370000Y-103330000D02*
X149487612Y-103330000D01*
X146310000Y-106390000D02*
X149370000Y-103330000D01*
X141010000Y-106300000D02*
X141100000Y-106390000D01*
X151078806Y-101401194D02*
X151078806Y-99713806D01*
X151078806Y-99713806D02*
X149370000Y-98005000D01*
X151070000Y-101747612D02*
X151070000Y-101410000D01*
X149487612Y-103330000D02*
X151070000Y-101747612D01*
X141100000Y-106390000D02*
X146310000Y-106390000D01*
%TO.N,/NRST*%
X148200000Y-102956582D02*
X147681582Y-103475000D01*
X147681582Y-103475000D02*
X146025000Y-103475000D01*
X145800000Y-103250000D02*
X145800000Y-101800000D01*
X148200000Y-101580000D02*
X148200000Y-102956582D01*
X146025000Y-103475000D02*
X145800000Y-103250000D01*
X146040000Y-97063864D02*
X146803864Y-96300000D01*
X146270000Y-99310000D02*
X146040000Y-99080000D01*
X146040000Y-99080000D02*
X146040000Y-97063864D01*
X148420000Y-101360000D02*
X148200000Y-101580000D01*
%TO.N,/SWDIO*%
X144300000Y-101800000D02*
X144300000Y-103250000D01*
X144825000Y-103775000D02*
X147805846Y-103775000D01*
X147805846Y-103775000D02*
X148500000Y-103080846D01*
X148500000Y-102700594D02*
X150484857Y-100715737D01*
X144300000Y-103250000D02*
X144825000Y-103775000D01*
X148500000Y-103080846D02*
X148500000Y-102700594D01*
%TO.N,/SWDCLK*%
X141300000Y-101243418D02*
X142418418Y-100125000D01*
X149933674Y-100125000D02*
X150045439Y-100236765D01*
X142418418Y-100125000D02*
X149933674Y-100125000D01*
%TO.N,/BTN_1*%
X140132666Y-82525582D02*
X145175582Y-82525582D01*
X135200000Y-89099990D02*
X135200000Y-87458248D01*
X153070000Y-90420000D02*
X153070000Y-93980000D01*
X135200000Y-87458248D02*
X140132666Y-82525582D01*
X145175582Y-82525582D02*
X153070000Y-90420000D01*
%TO.N,/BTN_4*%
X140860071Y-106930000D02*
X146282795Y-106930000D01*
X146282795Y-106930000D02*
X149582795Y-103630000D01*
X151570000Y-102494264D02*
X151570000Y-100530000D01*
X138130071Y-104200000D02*
X140860071Y-106930000D01*
X150434264Y-103630000D02*
X151570000Y-102494264D01*
X149582795Y-103630000D02*
X150434264Y-103630000D01*
X135800000Y-104200000D02*
X138130071Y-104200000D01*
%TO.N,Net-(JP1-A)*%
X144500000Y-89500000D02*
X147100000Y-89500000D01*
X143080000Y-90514000D02*
X144094000Y-89500000D01*
X143080000Y-92680000D02*
X143080000Y-90514000D01*
%TO.N,/TXD*%
X148080000Y-90880000D02*
X148080000Y-94105416D01*
X152239992Y-98265408D02*
X152239992Y-98410000D01*
X148080000Y-94105416D02*
X152239992Y-98265408D01*
X148000000Y-90800000D02*
X148080000Y-90880000D01*
X147100000Y-90800000D02*
X148000000Y-90800000D01*
%TO.N,Net-(JP1-B)*%
X145280000Y-94220000D02*
X145280000Y-92880000D01*
X145280000Y-92880000D02*
X144500000Y-92100000D01*
X146703805Y-91703805D02*
X146003805Y-91703805D01*
X147100000Y-92100000D02*
X146703805Y-91703805D01*
%TO.N,/RXD*%
X144500000Y-90800000D02*
X145400000Y-90800000D01*
X151570000Y-98029841D02*
X151570000Y-98500010D01*
X145480000Y-91939841D02*
X151570000Y-98029841D01*
X145400000Y-90800000D02*
X145480000Y-90880000D01*
X145480000Y-90880000D02*
X145480000Y-91939841D01*
%TO.N,/Accel_INT1*%
X144100000Y-95700004D02*
X144100000Y-97871041D01*
X146038959Y-99810000D02*
X149776441Y-99810000D01*
X149776441Y-99810000D02*
X150037434Y-99549007D01*
X144100000Y-97871041D02*
X146038959Y-99810000D01*
%TO.N,/EPD_MOSI*%
X149775380Y-89655380D02*
X149775380Y-94448885D01*
X143901008Y-86608992D02*
X146728992Y-86608992D01*
X146728992Y-86608992D02*
X149775380Y-89655380D01*
%TO.N,/EPD_SPICL*%
X152560000Y-94530000D02*
X152560000Y-90742944D01*
X144013899Y-83810777D02*
X143738845Y-83535723D01*
X145627833Y-83810777D02*
X144013899Y-83810777D01*
X152560000Y-90742944D02*
X145627833Y-83810777D01*
%TO.N,Net-(J1-Pin_16)*%
X142710000Y-87190000D02*
X142710000Y-85400014D01*
X142710000Y-85400014D02*
X143170028Y-84939986D01*
X141300000Y-88600000D02*
X142710000Y-87190000D01*
X140400000Y-88600000D02*
X141300000Y-88600000D01*
%TO.N,/VIB*%
X149255876Y-102785876D02*
X150598102Y-101443650D01*
X150598102Y-101443650D02*
X150598102Y-101355799D01*
%TO.N,/Accel_CS*%
X148023248Y-98680000D02*
X149173248Y-97530000D01*
X149600000Y-97530000D02*
X152190000Y-100120000D01*
X149173248Y-97530000D02*
X149600000Y-97530000D01*
X146670000Y-98680000D02*
X148023248Y-98680000D01*
%TD*%
%TA.AperFunction,Conductor*%
%TO.N,GND*%
G36*
X144185492Y-81402670D02*
G01*
X144942474Y-81442343D01*
X144948896Y-81442848D01*
X145702824Y-81522089D01*
X145709196Y-81522928D01*
X146379800Y-81629142D01*
X146457887Y-81641510D01*
X146464270Y-81642693D01*
X146638858Y-81679802D01*
X147205719Y-81800292D01*
X147212001Y-81801800D01*
X147944224Y-81997998D01*
X147950400Y-81999827D01*
X148671334Y-82234074D01*
X148677431Y-82236232D01*
X149385104Y-82507883D01*
X149391097Y-82510365D01*
X150083588Y-82818682D01*
X150089414Y-82821460D01*
X150454976Y-83007724D01*
X150764825Y-83165600D01*
X150770530Y-83168698D01*
X151426995Y-83547708D01*
X151432494Y-83551078D01*
X152068242Y-83963938D01*
X152073558Y-83967591D01*
X152598965Y-84349322D01*
X152686806Y-84413142D01*
X152691951Y-84417089D01*
X152775283Y-84484570D01*
X153281046Y-84894129D01*
X153285982Y-84898345D01*
X153849289Y-85405549D01*
X153853998Y-85410018D01*
X154389981Y-85946001D01*
X154394450Y-85950710D01*
X154901654Y-86514017D01*
X154905870Y-86518953D01*
X155382905Y-87108042D01*
X155386856Y-87113192D01*
X155783767Y-87659493D01*
X155832396Y-87726424D01*
X155836067Y-87731765D01*
X156231821Y-88341172D01*
X156248910Y-88367487D01*
X156252298Y-88373015D01*
X156265098Y-88395185D01*
X156631301Y-89029469D01*
X156634399Y-89035174D01*
X156978530Y-89710568D01*
X156981325Y-89716428D01*
X157289632Y-90408898D01*
X157292116Y-90414895D01*
X157563762Y-91122556D01*
X157565929Y-91128676D01*
X157800164Y-91849575D01*
X157802008Y-91855800D01*
X157998195Y-92587983D01*
X157999710Y-92594295D01*
X158157306Y-93335729D01*
X158158489Y-93342112D01*
X158277066Y-94090771D01*
X158277914Y-94097207D01*
X158290088Y-94213040D01*
X158277520Y-94281768D01*
X158229788Y-94332792D01*
X158166768Y-94350000D01*
X155000000Y-94350000D01*
X155000000Y-98100000D01*
X158101666Y-98100000D01*
X158168705Y-98119685D01*
X158214460Y-98172489D01*
X158224404Y-98241647D01*
X158224148Y-98243341D01*
X158215946Y-98295125D01*
X158158489Y-98657887D01*
X158157306Y-98664270D01*
X157999710Y-99405704D01*
X157998195Y-99412016D01*
X157802008Y-100144199D01*
X157800164Y-100150424D01*
X157565929Y-100871323D01*
X157563762Y-100877443D01*
X157292116Y-101585104D01*
X157289632Y-101591101D01*
X156981325Y-102283571D01*
X156978530Y-102289431D01*
X156634399Y-102964825D01*
X156631301Y-102970530D01*
X156252302Y-103626977D01*
X156248910Y-103632512D01*
X155836073Y-104268225D01*
X155832396Y-104273575D01*
X155386857Y-104886806D01*
X155382905Y-104891957D01*
X154905870Y-105481046D01*
X154901654Y-105485982D01*
X154394450Y-106049289D01*
X154389981Y-106053998D01*
X153853998Y-106589981D01*
X153849289Y-106594450D01*
X153285982Y-107101654D01*
X153281046Y-107105870D01*
X152691957Y-107582905D01*
X152686806Y-107586857D01*
X152073575Y-108032396D01*
X152068225Y-108036073D01*
X151432512Y-108448910D01*
X151426977Y-108452302D01*
X150770530Y-108831301D01*
X150764825Y-108834399D01*
X150089431Y-109178530D01*
X150083571Y-109181325D01*
X149391101Y-109489632D01*
X149385104Y-109492116D01*
X148677443Y-109763762D01*
X148671323Y-109765929D01*
X147950424Y-110000164D01*
X147944199Y-110002008D01*
X147212016Y-110198195D01*
X147205704Y-110199710D01*
X146464270Y-110357306D01*
X146457887Y-110358489D01*
X145709228Y-110477066D01*
X145702792Y-110477914D01*
X144948921Y-110557149D01*
X144942449Y-110557658D01*
X144185493Y-110597329D01*
X144179003Y-110597499D01*
X143420997Y-110597499D01*
X143414507Y-110597329D01*
X142657550Y-110557658D01*
X142651078Y-110557149D01*
X141897207Y-110477914D01*
X141890771Y-110477066D01*
X141142112Y-110358489D01*
X141135729Y-110357306D01*
X140394295Y-110199710D01*
X140387983Y-110198195D01*
X139655800Y-110002008D01*
X139649575Y-110000164D01*
X138928676Y-109765929D01*
X138922556Y-109763762D01*
X138214895Y-109492116D01*
X138208898Y-109489632D01*
X137516428Y-109181325D01*
X137510568Y-109178530D01*
X136835174Y-108834399D01*
X136829469Y-108831301D01*
X136743880Y-108781886D01*
X136695664Y-108731319D01*
X136682441Y-108662712D01*
X136708410Y-108597847D01*
X136765324Y-108557319D01*
X136805875Y-108550499D01*
X137881518Y-108550499D01*
X137975304Y-108535646D01*
X138088342Y-108478050D01*
X138178050Y-108388342D01*
X138235646Y-108275304D01*
X138235646Y-108275302D01*
X138235647Y-108275301D01*
X138250499Y-108181524D01*
X138250500Y-108181519D01*
X138250499Y-106873760D01*
X138270184Y-106806722D01*
X138322987Y-106760967D01*
X138392146Y-106751023D01*
X138430795Y-106763277D01*
X138474696Y-106785646D01*
X138474699Y-106785647D01*
X138599997Y-106805492D01*
X138600000Y-106805492D01*
X138600003Y-106805492D01*
X138725300Y-106785647D01*
X138725301Y-106785647D01*
X138725302Y-106785646D01*
X138725304Y-106785646D01*
X138838342Y-106728050D01*
X138904574Y-106661817D01*
X138965895Y-106628334D01*
X138992254Y-106625500D01*
X139266305Y-106625500D01*
X139333344Y-106645185D01*
X139379099Y-106697989D01*
X139388778Y-106730102D01*
X139394352Y-106765301D01*
X139394354Y-106765304D01*
X139451950Y-106878342D01*
X139451952Y-106878344D01*
X139451954Y-106878347D01*
X139541652Y-106968045D01*
X139541654Y-106968046D01*
X139541658Y-106968050D01*
X139654696Y-107025646D01*
X139654697Y-107025646D01*
X139654699Y-107025647D01*
X139779997Y-107045492D01*
X139780000Y-107045492D01*
X139780003Y-107045492D01*
X139905300Y-107025647D01*
X139905301Y-107025647D01*
X139905302Y-107025646D01*
X139905304Y-107025646D01*
X140018342Y-106968050D01*
X140108050Y-106878342D01*
X140159325Y-106777708D01*
X140207299Y-106726914D01*
X140275120Y-106710119D01*
X140341255Y-106732656D01*
X140357490Y-106746324D01*
X140661830Y-107050664D01*
X140661833Y-107050668D01*
X140668901Y-107057736D01*
X140732335Y-107121170D01*
X140756608Y-107131224D01*
X140756609Y-107131225D01*
X140756610Y-107131225D01*
X140815216Y-107155501D01*
X140815217Y-107155501D01*
X140919360Y-107155501D01*
X140919368Y-107155500D01*
X146223498Y-107155500D01*
X146223506Y-107155501D01*
X146237940Y-107155501D01*
X146327648Y-107155501D01*
X146327650Y-107155501D01*
X146386255Y-107131225D01*
X146410531Y-107121170D01*
X146473965Y-107057736D01*
X146473965Y-107057735D01*
X146491403Y-107040297D01*
X146491404Y-107040294D01*
X148637820Y-104893879D01*
X148699142Y-104860395D01*
X148768834Y-104865379D01*
X148824767Y-104907251D01*
X148849184Y-104972715D01*
X148849500Y-104981561D01*
X148849500Y-108181517D01*
X148860292Y-108249657D01*
X148864354Y-108275304D01*
X148921950Y-108388342D01*
X148921952Y-108388344D01*
X148921954Y-108388347D01*
X149011652Y-108478045D01*
X149011654Y-108478046D01*
X149011658Y-108478050D01*
X149124694Y-108535645D01*
X149124698Y-108535647D01*
X149218475Y-108550499D01*
X149218481Y-108550500D01*
X150581518Y-108550499D01*
X150675304Y-108535646D01*
X150788342Y-108478050D01*
X150878050Y-108388342D01*
X150935646Y-108275304D01*
X150935646Y-108275302D01*
X150935647Y-108275301D01*
X150950499Y-108181524D01*
X150950500Y-108181519D01*
X150950499Y-104818482D01*
X150935646Y-104724696D01*
X150878050Y-104611658D01*
X150878046Y-104611654D01*
X150878045Y-104611652D01*
X150788347Y-104521954D01*
X150788344Y-104521952D01*
X150788342Y-104521950D01*
X150711517Y-104482805D01*
X150675301Y-104464352D01*
X150581524Y-104449500D01*
X149381561Y-104449500D01*
X149314522Y-104429815D01*
X149268767Y-104377011D01*
X149258823Y-104307853D01*
X149287848Y-104244297D01*
X149293868Y-104237831D01*
X149639881Y-103891819D01*
X149701204Y-103858334D01*
X149727562Y-103855500D01*
X150374967Y-103855500D01*
X150374975Y-103855501D01*
X150389409Y-103855501D01*
X150479116Y-103855501D01*
X150479119Y-103855501D01*
X150531357Y-103833862D01*
X150546658Y-103827525D01*
X153849500Y-103827525D01*
X153849500Y-103972475D01*
X153880912Y-104089705D01*
X153887017Y-104112488D01*
X153959488Y-104238011D01*
X153959490Y-104238013D01*
X153959491Y-104238015D01*
X154061985Y-104340509D01*
X154061986Y-104340510D01*
X154061988Y-104340511D01*
X154187511Y-104412982D01*
X154187512Y-104412982D01*
X154187515Y-104412984D01*
X154327525Y-104450500D01*
X154327528Y-104450500D01*
X154472472Y-104450500D01*
X154472475Y-104450500D01*
X154612485Y-104412984D01*
X154738015Y-104340509D01*
X154840509Y-104238015D01*
X154912984Y-104112485D01*
X154950500Y-103972475D01*
X154950500Y-103827525D01*
X154912984Y-103687515D01*
X154878032Y-103626977D01*
X154840511Y-103561988D01*
X154840506Y-103561982D01*
X154738017Y-103459493D01*
X154738011Y-103459488D01*
X154612488Y-103387017D01*
X154612489Y-103387017D01*
X154601006Y-103383940D01*
X154472475Y-103349500D01*
X154327525Y-103349500D01*
X154198993Y-103383940D01*
X154187511Y-103387017D01*
X154061988Y-103459488D01*
X154061982Y-103459493D01*
X153959493Y-103561982D01*
X153959488Y-103561988D01*
X153887017Y-103687511D01*
X153887016Y-103687515D01*
X153849500Y-103827525D01*
X150546658Y-103827525D01*
X150546660Y-103827523D01*
X150562000Y-103821170D01*
X150625434Y-103757736D01*
X150625434Y-103757735D01*
X150642872Y-103740297D01*
X150642874Y-103740294D01*
X151680294Y-102702874D01*
X151680297Y-102702872D01*
X151697735Y-102685434D01*
X151697736Y-102685434D01*
X151761170Y-102622000D01*
X151761170Y-102621998D01*
X151761172Y-102621997D01*
X151778335Y-102580559D01*
X151795500Y-102539119D01*
X151795500Y-100922254D01*
X151815185Y-100855215D01*
X151831814Y-100834577D01*
X151898050Y-100768342D01*
X151955646Y-100655304D01*
X151962040Y-100614931D01*
X151991968Y-100551799D01*
X152051278Y-100514867D01*
X152103911Y-100511857D01*
X152189998Y-100525492D01*
X152190000Y-100525492D01*
X152190003Y-100525492D01*
X152315300Y-100505647D01*
X152315301Y-100505647D01*
X152315302Y-100505646D01*
X152315304Y-100505646D01*
X152428342Y-100448050D01*
X152518050Y-100358342D01*
X152575646Y-100245304D01*
X152575646Y-100245302D01*
X152575647Y-100245301D01*
X152575647Y-100245300D01*
X152595492Y-100120003D01*
X152595492Y-100119996D01*
X152575647Y-99994699D01*
X152575647Y-99994698D01*
X152566407Y-99976564D01*
X152518050Y-99881658D01*
X152518046Y-99881654D01*
X152518045Y-99881652D01*
X152428347Y-99791954D01*
X152428344Y-99791952D01*
X152428342Y-99791950D01*
X152315304Y-99734354D01*
X152315303Y-99734353D01*
X152315300Y-99734352D01*
X152190003Y-99714508D01*
X152189995Y-99714508D01*
X152177647Y-99716463D01*
X152108354Y-99707505D01*
X152070575Y-99681670D01*
X151504172Y-99115267D01*
X151470687Y-99053944D01*
X151475671Y-98984252D01*
X151517543Y-98928319D01*
X151572452Y-98905113D01*
X151695304Y-98885656D01*
X151808342Y-98828060D01*
X151869516Y-98766885D01*
X151930837Y-98733402D01*
X152000529Y-98738386D01*
X152013486Y-98744081D01*
X152114688Y-98795646D01*
X152114689Y-98795646D01*
X152114691Y-98795647D01*
X152239989Y-98815492D01*
X152239992Y-98815492D01*
X152239995Y-98815492D01*
X152365292Y-98795647D01*
X152365293Y-98795647D01*
X152365294Y-98795646D01*
X152365296Y-98795646D01*
X152478334Y-98738050D01*
X152568042Y-98648342D01*
X152625638Y-98535304D01*
X152625638Y-98535302D01*
X152625639Y-98535301D01*
X152625639Y-98535300D01*
X152645484Y-98410003D01*
X152645484Y-98400241D01*
X152649007Y-98400241D01*
X152655662Y-98348594D01*
X152700637Y-98295125D01*
X152749797Y-98275974D01*
X152815007Y-98265646D01*
X152928045Y-98208050D01*
X153017753Y-98118342D01*
X153075349Y-98005304D01*
X153075349Y-98005302D01*
X153075350Y-98005301D01*
X153075350Y-98005300D01*
X153095195Y-97880003D01*
X153095195Y-97879996D01*
X153075350Y-97754699D01*
X153075350Y-97754698D01*
X153050664Y-97706250D01*
X153017753Y-97641658D01*
X153017749Y-97641654D01*
X153017748Y-97641652D01*
X152928050Y-97551954D01*
X152928047Y-97551952D01*
X152928045Y-97551950D01*
X152815007Y-97494354D01*
X152815006Y-97494353D01*
X152815003Y-97494352D01*
X152689706Y-97474508D01*
X152689701Y-97474508D01*
X152564395Y-97494354D01*
X152563897Y-97494516D01*
X152563258Y-97494534D01*
X152554761Y-97495880D01*
X152554586Y-97494781D01*
X152494056Y-97496504D01*
X152437910Y-97464262D01*
X149960085Y-94986437D01*
X149926600Y-94925114D01*
X149931584Y-94855422D01*
X149973456Y-94799489D01*
X149991459Y-94788278D01*
X150013722Y-94776935D01*
X150023574Y-94767082D01*
X150084894Y-94733598D01*
X150154586Y-94738580D01*
X150198937Y-94767082D01*
X150257377Y-94825522D01*
X150257379Y-94825523D01*
X150257383Y-94825527D01*
X150370421Y-94883123D01*
X150370422Y-94883123D01*
X150370424Y-94883124D01*
X150495722Y-94902969D01*
X150495725Y-94902969D01*
X150495728Y-94902969D01*
X150621025Y-94883124D01*
X150621026Y-94883124D01*
X150621027Y-94883123D01*
X150621029Y-94883123D01*
X150734067Y-94825527D01*
X150743916Y-94815677D01*
X150805235Y-94782190D01*
X150874927Y-94787171D01*
X150919281Y-94815674D01*
X150941652Y-94838045D01*
X150941654Y-94838046D01*
X150941658Y-94838050D01*
X151054696Y-94895646D01*
X151054697Y-94895646D01*
X151054699Y-94895647D01*
X151179997Y-94915492D01*
X151180000Y-94915492D01*
X151180003Y-94915492D01*
X151305300Y-94895647D01*
X151305301Y-94895647D01*
X151305302Y-94895646D01*
X151305304Y-94895646D01*
X151418342Y-94838050D01*
X151438405Y-94817986D01*
X151499726Y-94784502D01*
X151569417Y-94789485D01*
X151613767Y-94817987D01*
X151615746Y-94819966D01*
X151615748Y-94819967D01*
X151615752Y-94819971D01*
X151728790Y-94877567D01*
X151728791Y-94877567D01*
X151728793Y-94877568D01*
X151854091Y-94897413D01*
X151854094Y-94897413D01*
X151854097Y-94897413D01*
X151979394Y-94877568D01*
X151979395Y-94877568D01*
X151979396Y-94877567D01*
X151979398Y-94877567D01*
X152092436Y-94819971D01*
X152100323Y-94812084D01*
X152161645Y-94778597D01*
X152231337Y-94783579D01*
X152275688Y-94812081D01*
X152321652Y-94858045D01*
X152321654Y-94858046D01*
X152321658Y-94858050D01*
X152434696Y-94915646D01*
X152434697Y-94915646D01*
X152434699Y-94915647D01*
X152559997Y-94935492D01*
X152560000Y-94935492D01*
X152560003Y-94935492D01*
X152685300Y-94915647D01*
X152685301Y-94915647D01*
X152685302Y-94915646D01*
X152685304Y-94915646D01*
X152798342Y-94858050D01*
X152888050Y-94768342D01*
X152945646Y-94655304D01*
X152945646Y-94655302D01*
X152945647Y-94655301D01*
X152945647Y-94655300D01*
X152965492Y-94530003D01*
X152965492Y-94529997D01*
X152965120Y-94527649D01*
X152965492Y-94524770D01*
X152965492Y-94520241D01*
X152966077Y-94520241D01*
X152974075Y-94458355D01*
X153019071Y-94404903D01*
X153068196Y-94385778D01*
X153195300Y-94365647D01*
X153195301Y-94365647D01*
X153195302Y-94365646D01*
X153195304Y-94365646D01*
X153308342Y-94308050D01*
X153398050Y-94218342D01*
X153455646Y-94105304D01*
X153455646Y-94105302D01*
X153455647Y-94105301D01*
X153455647Y-94105300D01*
X153475492Y-93980003D01*
X153475492Y-93979996D01*
X153455647Y-93854699D01*
X153455647Y-93854698D01*
X153455344Y-93854103D01*
X153398050Y-93741658D01*
X153398046Y-93741654D01*
X153398045Y-93741652D01*
X153331819Y-93675426D01*
X153298334Y-93614103D01*
X153295500Y-93587745D01*
X153295500Y-90479297D01*
X153295501Y-90479288D01*
X153295501Y-90375146D01*
X153295501Y-90375145D01*
X153261170Y-90292265D01*
X153261170Y-90292264D01*
X153197736Y-90228830D01*
X153190671Y-90221765D01*
X153190664Y-90221759D01*
X150996430Y-88027525D01*
X153849500Y-88027525D01*
X153849500Y-88172475D01*
X153883854Y-88300683D01*
X153887017Y-88312488D01*
X153959488Y-88438011D01*
X153959490Y-88438013D01*
X153959491Y-88438015D01*
X154061985Y-88540509D01*
X154061986Y-88540510D01*
X154061988Y-88540511D01*
X154187511Y-88612982D01*
X154187512Y-88612982D01*
X154187515Y-88612984D01*
X154327525Y-88650500D01*
X154327528Y-88650500D01*
X154472472Y-88650500D01*
X154472475Y-88650500D01*
X154612485Y-88612984D01*
X154738015Y-88540509D01*
X154840509Y-88438015D01*
X154912984Y-88312485D01*
X154950500Y-88172475D01*
X154950500Y-88027525D01*
X154912984Y-87887515D01*
X154840509Y-87761985D01*
X154738015Y-87659491D01*
X154738013Y-87659490D01*
X154738011Y-87659488D01*
X154612488Y-87587017D01*
X154612489Y-87587017D01*
X154601006Y-87583940D01*
X154472475Y-87549500D01*
X154327525Y-87549500D01*
X154198993Y-87583940D01*
X154187511Y-87587017D01*
X154061988Y-87659488D01*
X154061982Y-87659493D01*
X153959493Y-87761982D01*
X153959488Y-87761988D01*
X153887017Y-87887511D01*
X153882583Y-87904055D01*
X153849500Y-88027525D01*
X150996430Y-88027525D01*
X145384192Y-82415287D01*
X145366752Y-82397846D01*
X145303318Y-82334412D01*
X145303317Y-82334411D01*
X145279039Y-82324354D01*
X145279039Y-82324353D01*
X145220440Y-82300082D01*
X145220438Y-82300081D01*
X145220437Y-82300081D01*
X145130727Y-82300081D01*
X145116293Y-82300081D01*
X145116285Y-82300082D01*
X140087811Y-82300082D01*
X140087809Y-82300082D01*
X140087807Y-82300083D01*
X140004932Y-82334409D01*
X135008830Y-87330511D01*
X135008830Y-87330513D01*
X134974499Y-87413392D01*
X134974499Y-87517536D01*
X134974500Y-87517545D01*
X134974500Y-88707735D01*
X134954815Y-88774774D01*
X134938181Y-88795416D01*
X134871954Y-88861642D01*
X134871951Y-88861647D01*
X134871950Y-88861648D01*
X134858271Y-88888494D01*
X134814352Y-88974688D01*
X134814352Y-88974689D01*
X134794508Y-89099986D01*
X134794508Y-89099993D01*
X134814352Y-89225290D01*
X134814352Y-89225291D01*
X134825081Y-89246347D01*
X134871950Y-89338332D01*
X134871952Y-89338334D01*
X134871954Y-89338337D01*
X134961652Y-89428035D01*
X134961654Y-89428036D01*
X134961658Y-89428040D01*
X135074696Y-89485636D01*
X135074697Y-89485636D01*
X135074699Y-89485637D01*
X135199997Y-89505482D01*
X135200000Y-89505482D01*
X135200003Y-89505482D01*
X135325300Y-89485637D01*
X135325301Y-89485637D01*
X135325302Y-89485636D01*
X135325304Y-89485636D01*
X135438342Y-89428040D01*
X135528050Y-89338332D01*
X135585646Y-89225294D01*
X135585646Y-89225292D01*
X135585647Y-89225291D01*
X135585647Y-89225290D01*
X135605492Y-89099993D01*
X135605492Y-89099988D01*
X135590717Y-89006705D01*
X135599671Y-88937412D01*
X135644667Y-88883960D01*
X135711419Y-88863320D01*
X135778733Y-88882045D01*
X135787314Y-88888859D01*
X135787580Y-88888494D01*
X135795474Y-88894228D01*
X135795479Y-88894233D01*
X135908517Y-88951829D01*
X135908518Y-88951829D01*
X135908520Y-88951830D01*
X136033818Y-88971675D01*
X136033821Y-88971675D01*
X136033824Y-88971675D01*
X136159121Y-88951830D01*
X136159122Y-88951830D01*
X136159123Y-88951829D01*
X136159125Y-88951829D01*
X136272163Y-88894233D01*
X136284351Y-88882045D01*
X136298395Y-88868002D01*
X136359718Y-88834517D01*
X136386076Y-88831683D01*
X137056628Y-88831683D01*
X137056629Y-88831683D01*
X137154211Y-88791263D01*
X141824314Y-84121159D01*
X141885635Y-84087676D01*
X141955327Y-84092660D01*
X142011260Y-84134532D01*
X142034466Y-84189443D01*
X142039353Y-84220302D01*
X142039355Y-84220305D01*
X142096951Y-84333343D01*
X142096953Y-84333345D01*
X142096955Y-84333348D01*
X142186653Y-84423046D01*
X142186655Y-84423047D01*
X142186659Y-84423051D01*
X142299697Y-84480647D01*
X142299698Y-84480647D01*
X142299700Y-84480648D01*
X142424998Y-84500493D01*
X142425001Y-84500493D01*
X142437344Y-84498538D01*
X142506637Y-84507492D01*
X142544424Y-84533330D01*
X142549607Y-84538513D01*
X142613041Y-84601947D01*
X142637154Y-84611934D01*
X142637157Y-84611937D01*
X142637157Y-84611936D01*
X142695923Y-84636278D01*
X142695926Y-84636278D01*
X142698108Y-84636712D01*
X142702437Y-84638976D01*
X142707207Y-84640952D01*
X142707030Y-84641378D01*
X142760021Y-84669093D01*
X142794600Y-84729806D01*
X142790864Y-84799576D01*
X142784414Y-84814617D01*
X142784383Y-84814676D01*
X142784380Y-84814685D01*
X142764536Y-84939982D01*
X142764536Y-84939988D01*
X142766491Y-84952335D01*
X142757533Y-85021628D01*
X142731699Y-85059409D01*
X142582265Y-85208843D01*
X142518830Y-85272277D01*
X142518830Y-85272279D01*
X142484499Y-85355158D01*
X142484499Y-85459302D01*
X142484500Y-85459311D01*
X142484500Y-87045233D01*
X142464815Y-87112272D01*
X142448181Y-87132914D01*
X141495643Y-88085451D01*
X141434320Y-88118936D01*
X141364628Y-88113952D01*
X141308695Y-88072080D01*
X141293402Y-88045225D01*
X141291766Y-88041276D01*
X141258504Y-87991496D01*
X141258503Y-87991495D01*
X141208724Y-87958234D01*
X141208717Y-87958231D01*
X141164822Y-87949500D01*
X141164820Y-87949500D01*
X139635180Y-87949500D01*
X139635178Y-87949500D01*
X139591282Y-87958231D01*
X139591275Y-87958234D01*
X139541496Y-87991495D01*
X139541495Y-87991496D01*
X139508234Y-88041275D01*
X139508231Y-88041282D01*
X139499500Y-88085177D01*
X139499500Y-88085180D01*
X139499500Y-89114820D01*
X139499500Y-89114822D01*
X139499499Y-89114822D01*
X139508231Y-89158717D01*
X139512906Y-89170002D01*
X139510077Y-89171173D01*
X139525243Y-89219616D01*
X139515966Y-89255518D01*
X139519558Y-89256481D01*
X139494500Y-89350000D01*
X139494500Y-89971890D01*
X139500797Y-90015691D01*
X139500800Y-90015703D01*
X139541306Y-90153655D01*
X139559689Y-90193908D01*
X139559694Y-90193918D01*
X139637421Y-90314863D01*
X139637426Y-90314870D01*
X139641780Y-90319894D01*
X139670804Y-90383450D01*
X139660860Y-90452608D01*
X139635747Y-90488777D01*
X139564155Y-90560369D01*
X139502832Y-90593854D01*
X139495872Y-90595161D01*
X139374698Y-90614352D01*
X139299337Y-90652751D01*
X139261658Y-90671950D01*
X139261657Y-90671951D01*
X139261652Y-90671954D01*
X139171954Y-90761652D01*
X139171951Y-90761657D01*
X139171950Y-90761658D01*
X139152751Y-90799337D01*
X139114352Y-90874698D01*
X139114352Y-90874699D01*
X139094508Y-90999996D01*
X139094508Y-91000003D01*
X139114352Y-91125300D01*
X139114352Y-91125301D01*
X139116072Y-91128676D01*
X139171950Y-91238342D01*
X139171952Y-91238344D01*
X139171954Y-91238347D01*
X139261652Y-91328045D01*
X139261655Y-91328047D01*
X139261658Y-91328050D01*
X139315172Y-91355316D01*
X139374689Y-91385643D01*
X139374692Y-91385643D01*
X139374696Y-91385646D01*
X139374700Y-91385646D01*
X139377970Y-91386709D01*
X139427341Y-91416962D01*
X140294642Y-92284263D01*
X140328127Y-92345586D01*
X140323143Y-92415278D01*
X140281271Y-92471211D01*
X140254413Y-92486505D01*
X140170078Y-92521437D01*
X140170075Y-92521438D01*
X140170075Y-92521439D01*
X140126730Y-92554699D01*
X140055079Y-92609679D01*
X139966837Y-92724677D01*
X139911371Y-92858587D01*
X139911370Y-92858591D01*
X139892450Y-93002299D01*
X139892450Y-93002302D01*
X139905382Y-93100534D01*
X139894616Y-93169570D01*
X139870124Y-93204400D01*
X136225345Y-96849181D01*
X136164022Y-96882666D01*
X136137664Y-96885500D01*
X135351315Y-96885500D01*
X135284276Y-96865815D01*
X135252940Y-96836987D01*
X135220034Y-96794104D01*
X135192621Y-96758379D01*
X135077625Y-96670139D01*
X135077624Y-96670138D01*
X135077622Y-96670137D01*
X134943712Y-96614671D01*
X134943710Y-96614670D01*
X134943709Y-96614670D01*
X134844875Y-96601658D01*
X134800001Y-96595750D01*
X134799999Y-96595750D01*
X134656291Y-96614670D01*
X134656287Y-96614671D01*
X134522377Y-96670137D01*
X134407379Y-96758379D01*
X134319137Y-96873377D01*
X134263671Y-97007287D01*
X134263670Y-97007291D01*
X134244750Y-97150999D01*
X134244750Y-97151002D01*
X134257682Y-97249234D01*
X134246916Y-97318270D01*
X134222424Y-97353100D01*
X133724922Y-97850603D01*
X133724917Y-97850611D01*
X133703589Y-97902103D01*
X133703589Y-97902104D01*
X133684500Y-97948186D01*
X133684500Y-98098685D01*
X133664815Y-98165724D01*
X133635987Y-98197060D01*
X133557381Y-98257377D01*
X133557380Y-98257378D01*
X133557379Y-98257379D01*
X133529007Y-98294354D01*
X133469137Y-98372377D01*
X133413671Y-98506287D01*
X133413670Y-98506291D01*
X133394968Y-98648347D01*
X133394750Y-98650000D01*
X133407136Y-98744083D01*
X133413670Y-98793708D01*
X133413671Y-98793712D01*
X133469137Y-98927622D01*
X133469138Y-98927624D01*
X133469139Y-98927625D01*
X133557379Y-99042621D01*
X133672375Y-99130861D01*
X133672376Y-99130861D01*
X133672377Y-99130862D01*
X133702449Y-99143318D01*
X133806291Y-99186330D01*
X133933280Y-99203048D01*
X133949999Y-99205250D01*
X133950000Y-99205250D01*
X133950001Y-99205250D01*
X133964977Y-99203278D01*
X134093709Y-99186330D01*
X134227625Y-99130861D01*
X134342621Y-99042621D01*
X134342625Y-99042616D01*
X134348368Y-99036874D01*
X134350589Y-99039095D01*
X134395020Y-99006628D01*
X134464765Y-99002449D01*
X134525697Y-99036640D01*
X134551573Y-99075857D01*
X134554608Y-99083187D01*
X134573130Y-99115267D01*
X134620500Y-99197314D01*
X134713686Y-99290500D01*
X134827814Y-99356392D01*
X134892966Y-99373849D01*
X134952625Y-99410212D01*
X134983155Y-99473059D01*
X134974861Y-99542434D01*
X134930376Y-99596313D01*
X134908325Y-99608184D01*
X134795508Y-99654914D01*
X134795498Y-99654919D01*
X134672584Y-99737048D01*
X134672580Y-99737051D01*
X134568051Y-99841580D01*
X134568048Y-99841584D01*
X134485919Y-99964498D01*
X134485912Y-99964511D01*
X134429343Y-100101082D01*
X134429340Y-100101092D01*
X134400500Y-100246079D01*
X134400500Y-100246082D01*
X134400500Y-100393918D01*
X134400500Y-100393920D01*
X134400499Y-100393920D01*
X134429340Y-100538907D01*
X134429343Y-100538917D01*
X134485912Y-100675488D01*
X134485919Y-100675501D01*
X134568048Y-100798415D01*
X134568051Y-100798419D01*
X134672580Y-100902948D01*
X134672584Y-100902951D01*
X134795498Y-100985080D01*
X134795511Y-100985087D01*
X134908652Y-101031951D01*
X134932087Y-101041658D01*
X134932091Y-101041658D01*
X134932092Y-101041659D01*
X135077079Y-101070500D01*
X135077082Y-101070500D01*
X136024920Y-101070500D01*
X136125422Y-101050508D01*
X136169913Y-101041658D01*
X136306495Y-100985084D01*
X136429416Y-100902951D01*
X136533951Y-100798416D01*
X136616084Y-100675495D01*
X136672658Y-100538913D01*
X136690621Y-100448608D01*
X136701500Y-100393920D01*
X136701500Y-100246079D01*
X136672659Y-100101092D01*
X136672658Y-100101091D01*
X136672658Y-100101087D01*
X136649530Y-100045251D01*
X136616087Y-99964511D01*
X136616080Y-99964498D01*
X136533951Y-99841584D01*
X136533948Y-99841580D01*
X136429419Y-99737051D01*
X136429415Y-99737048D01*
X136306501Y-99654919D01*
X136306488Y-99654912D01*
X136169917Y-99598343D01*
X136169907Y-99598340D01*
X136024920Y-99569500D01*
X136024918Y-99569500D01*
X135307847Y-99569500D01*
X135240808Y-99549815D01*
X135195053Y-99497011D01*
X135185109Y-99427853D01*
X135214134Y-99364297D01*
X135245846Y-99338113D01*
X135328314Y-99290500D01*
X135421500Y-99197314D01*
X135487392Y-99083186D01*
X135521500Y-98955892D01*
X135521500Y-98824108D01*
X135487392Y-98696814D01*
X135421500Y-98582686D01*
X135328314Y-98489500D01*
X135248342Y-98443328D01*
X135214187Y-98423608D01*
X135126978Y-98400241D01*
X135086892Y-98389500D01*
X134955108Y-98389500D01*
X134827812Y-98423608D01*
X134713686Y-98489500D01*
X134713682Y-98489503D01*
X134679226Y-98523959D01*
X134617903Y-98557444D01*
X134548211Y-98552458D01*
X134492278Y-98510586D01*
X134476985Y-98483729D01*
X134430862Y-98372377D01*
X134430861Y-98372376D01*
X134430861Y-98372375D01*
X134342621Y-98257379D01*
X134320608Y-98240488D01*
X134300027Y-98224695D01*
X134258825Y-98168267D01*
X134254670Y-98098521D01*
X134287830Y-98038643D01*
X134597900Y-97728572D01*
X134659221Y-97695089D01*
X134701760Y-97693316D01*
X134800000Y-97706250D01*
X134943709Y-97687330D01*
X135077625Y-97631861D01*
X135192621Y-97543621D01*
X135245654Y-97474508D01*
X135252940Y-97465013D01*
X135309368Y-97423810D01*
X135351315Y-97416500D01*
X136351811Y-97416500D01*
X136351812Y-97416500D01*
X136449394Y-97376080D01*
X140245600Y-93579872D01*
X140306921Y-93546389D01*
X140349460Y-93544616D01*
X140447700Y-93557550D01*
X140591409Y-93538630D01*
X140725325Y-93483161D01*
X140840321Y-93394921D01*
X140928561Y-93279925D01*
X140963495Y-93195583D01*
X141007333Y-93141183D01*
X141073627Y-93119117D01*
X141141327Y-93136395D01*
X141165736Y-93155357D01*
X142118181Y-94107802D01*
X142151666Y-94169125D01*
X142154500Y-94195483D01*
X142154500Y-96487745D01*
X142134815Y-96554784D01*
X142118181Y-96575426D01*
X142091954Y-96601652D01*
X142091951Y-96601657D01*
X142034352Y-96714698D01*
X142015161Y-96835872D01*
X141985232Y-96899007D01*
X141980369Y-96904155D01*
X139574919Y-99309606D01*
X139574917Y-99309608D01*
X139541413Y-99390498D01*
X139541413Y-99390499D01*
X139534500Y-99407186D01*
X139534500Y-100114475D01*
X139514815Y-100181514D01*
X139464960Y-100225876D01*
X139393514Y-100260803D01*
X139310803Y-100343514D01*
X139259426Y-100448608D01*
X139249500Y-100516739D01*
X139249500Y-102682273D01*
X139229815Y-102749312D01*
X139177011Y-102795067D01*
X139107853Y-102805011D01*
X139044297Y-102775986D01*
X139037819Y-102769954D01*
X138901820Y-102633955D01*
X138868335Y-102572632D01*
X138865501Y-102546274D01*
X138865501Y-99951313D01*
X138885186Y-99884274D01*
X138914013Y-99852939D01*
X138992622Y-99792620D01*
X139080862Y-99677624D01*
X139136331Y-99543708D01*
X139155251Y-99399999D01*
X139136331Y-99256290D01*
X139084378Y-99130862D01*
X139080863Y-99122376D01*
X139080862Y-99122375D01*
X139080862Y-99122374D01*
X138992622Y-99007378D01*
X138877626Y-98919138D01*
X138877625Y-98919137D01*
X138877623Y-98919136D01*
X138743713Y-98863670D01*
X138743711Y-98863669D01*
X138743710Y-98863669D01*
X138671855Y-98854209D01*
X138600002Y-98844749D01*
X138600000Y-98844749D01*
X138456292Y-98863669D01*
X138456288Y-98863670D01*
X138322378Y-98919136D01*
X138207380Y-99007378D01*
X138119138Y-99122376D01*
X138063672Y-99256286D01*
X138063671Y-99256290D01*
X138044751Y-99399998D01*
X138044751Y-99399999D01*
X138063671Y-99543707D01*
X138063672Y-99543711D01*
X138119138Y-99677621D01*
X138119139Y-99677623D01*
X138119140Y-99677624D01*
X138206866Y-99791950D01*
X138207381Y-99792621D01*
X138226395Y-99807211D01*
X138285987Y-99852938D01*
X138327190Y-99909365D01*
X138334501Y-99951313D01*
X138334501Y-102654798D01*
X138334501Y-102760422D01*
X138374921Y-102858004D01*
X140341997Y-104825080D01*
X140439580Y-104865500D01*
X140545203Y-104865500D01*
X142148675Y-104865500D01*
X142215714Y-104885185D01*
X142247050Y-104914013D01*
X142265990Y-104938695D01*
X142307369Y-104992621D01*
X142422365Y-105080861D01*
X142556281Y-105136330D01*
X142683270Y-105153048D01*
X142699989Y-105155250D01*
X142699990Y-105155250D01*
X142699991Y-105155250D01*
X142714967Y-105153278D01*
X142843699Y-105136330D01*
X142977615Y-105080861D01*
X143092611Y-104992621D01*
X143180851Y-104877625D01*
X143236320Y-104743709D01*
X143255240Y-104600000D01*
X143236320Y-104456291D01*
X143185873Y-104334500D01*
X143180852Y-104322377D01*
X143180851Y-104322376D01*
X143180851Y-104322375D01*
X143092611Y-104207379D01*
X142977615Y-104119139D01*
X142977614Y-104119138D01*
X142977612Y-104119137D01*
X142843702Y-104063671D01*
X142843700Y-104063670D01*
X142843699Y-104063670D01*
X142771844Y-104054210D01*
X142699991Y-104044750D01*
X142699989Y-104044750D01*
X142556281Y-104063670D01*
X142556277Y-104063671D01*
X142422367Y-104119137D01*
X142364867Y-104163259D01*
X142307369Y-104207379D01*
X142307368Y-104207380D01*
X142307367Y-104207381D01*
X142247050Y-104285987D01*
X142190622Y-104327190D01*
X142148675Y-104334500D01*
X140653727Y-104334500D01*
X140586688Y-104314815D01*
X140566046Y-104298181D01*
X139880046Y-103612181D01*
X139846561Y-103550858D01*
X139851545Y-103481166D01*
X139893417Y-103425233D01*
X139958881Y-103400816D01*
X139967727Y-103400500D01*
X140033261Y-103400500D01*
X140055971Y-103397191D01*
X140101393Y-103390573D01*
X140206483Y-103339198D01*
X140289198Y-103256483D01*
X140340573Y-103151393D01*
X140350500Y-103083260D01*
X140350500Y-102109492D01*
X140370185Y-102042453D01*
X140422989Y-101996698D01*
X140460599Y-101988516D01*
X140460362Y-101987019D01*
X140604944Y-101964120D01*
X140605521Y-101967766D01*
X140656984Y-101966280D01*
X140716829Y-102002341D01*
X140747677Y-102065031D01*
X140749500Y-102086216D01*
X140749500Y-103083260D01*
X140759426Y-103151391D01*
X140810803Y-103256485D01*
X140893514Y-103339196D01*
X140893515Y-103339196D01*
X140893517Y-103339198D01*
X140998607Y-103390573D01*
X141032673Y-103395536D01*
X141066739Y-103400500D01*
X141066740Y-103400500D01*
X141533261Y-103400500D01*
X141555971Y-103397191D01*
X141601393Y-103390573D01*
X141706483Y-103339198D01*
X141752377Y-103293304D01*
X141813700Y-103259818D01*
X141883391Y-103264802D01*
X141939325Y-103306673D01*
X141952806Y-103333051D01*
X141953903Y-103332558D01*
X141956980Y-103339395D01*
X142044927Y-103484877D01*
X142165122Y-103605072D01*
X142310604Y-103693019D01*
X142310603Y-103693019D01*
X142472894Y-103743590D01*
X142472893Y-103743590D01*
X142543408Y-103749998D01*
X142543426Y-103749999D01*
X142549999Y-103749998D01*
X142550000Y-103749998D01*
X142550000Y-100474500D01*
X142569685Y-100407461D01*
X142622489Y-100361706D01*
X142674000Y-100350500D01*
X142926000Y-100350500D01*
X142993039Y-100370185D01*
X143038794Y-100422989D01*
X143050000Y-100474500D01*
X143050000Y-103749999D01*
X143056581Y-103749999D01*
X143127102Y-103743591D01*
X143127107Y-103743590D01*
X143289396Y-103693018D01*
X143434877Y-103605072D01*
X143555072Y-103484877D01*
X143643019Y-103339395D01*
X143646097Y-103332558D01*
X143648518Y-103333647D01*
X143680277Y-103285959D01*
X143744298Y-103257975D01*
X143813285Y-103269045D01*
X143847621Y-103293303D01*
X143893514Y-103339196D01*
X143893515Y-103339196D01*
X143893517Y-103339198D01*
X143998607Y-103390573D01*
X144032673Y-103395536D01*
X144066739Y-103400500D01*
X144066740Y-103400500D01*
X144080232Y-103400500D01*
X144147271Y-103420185D01*
X144167913Y-103436819D01*
X144189700Y-103458606D01*
X144189706Y-103458611D01*
X144626759Y-103895664D01*
X144626762Y-103895668D01*
X144633830Y-103902736D01*
X144697264Y-103966170D01*
X144697266Y-103966171D01*
X144697268Y-103966172D01*
X144712481Y-103972473D01*
X144712485Y-103972476D01*
X144712486Y-103972475D01*
X144780145Y-104000501D01*
X144780146Y-104000501D01*
X144884289Y-104000501D01*
X144884297Y-104000500D01*
X147746549Y-104000500D01*
X147746557Y-104000501D01*
X147760991Y-104000501D01*
X147850700Y-104000501D01*
X147850701Y-104000501D01*
X147918360Y-103972475D01*
X147933582Y-103966170D01*
X147997016Y-103902736D01*
X147997016Y-103902735D01*
X148014454Y-103885297D01*
X148014456Y-103885294D01*
X148627734Y-103272016D01*
X148627736Y-103272016D01*
X148691170Y-103208582D01*
X148706521Y-103171522D01*
X148725501Y-103125701D01*
X148725501Y-103121256D01*
X148745186Y-103054217D01*
X148797990Y-103008462D01*
X148867148Y-102998518D01*
X148930704Y-103027543D01*
X148937182Y-103033575D01*
X149017528Y-103113921D01*
X149017533Y-103113925D01*
X149017534Y-103113926D01*
X149030839Y-103120705D01*
X149081634Y-103168680D01*
X149098428Y-103236502D01*
X149075889Y-103302636D01*
X149062223Y-103318870D01*
X146252914Y-106128181D01*
X146191591Y-106161666D01*
X146165233Y-106164500D01*
X141466438Y-106164500D01*
X141399399Y-106144815D01*
X141355954Y-106096796D01*
X141351601Y-106088254D01*
X141338050Y-106061658D01*
X141338047Y-106061655D01*
X141338045Y-106061652D01*
X141248347Y-105971954D01*
X141248344Y-105971952D01*
X141248342Y-105971950D01*
X141135304Y-105914354D01*
X141135303Y-105914353D01*
X141135300Y-105914352D01*
X141010003Y-105894508D01*
X141009997Y-105894508D01*
X140884699Y-105914352D01*
X140884698Y-105914352D01*
X140809337Y-105952751D01*
X140771658Y-105971950D01*
X140771657Y-105971951D01*
X140771652Y-105971954D01*
X140681954Y-106061652D01*
X140681951Y-106061657D01*
X140681950Y-106061658D01*
X140637057Y-106149766D01*
X140634099Y-106155571D01*
X140586124Y-106206367D01*
X140518303Y-106223162D01*
X140452168Y-106200624D01*
X140435933Y-106186957D01*
X138338681Y-104089705D01*
X138321241Y-104072264D01*
X138257807Y-104008830D01*
X138257806Y-104008829D01*
X138233528Y-103998772D01*
X138233528Y-103998771D01*
X138174929Y-103974500D01*
X138174927Y-103974499D01*
X138174926Y-103974499D01*
X138085216Y-103974499D01*
X138070782Y-103974499D01*
X138070774Y-103974500D01*
X136192254Y-103974500D01*
X136125215Y-103954815D01*
X136104577Y-103938185D01*
X136038342Y-103871950D01*
X135925304Y-103814354D01*
X135925303Y-103814353D01*
X135925300Y-103814352D01*
X135800003Y-103794508D01*
X135799997Y-103794508D01*
X135674699Y-103814352D01*
X135674698Y-103814352D01*
X135599337Y-103852751D01*
X135561658Y-103871950D01*
X135561657Y-103871951D01*
X135561652Y-103871954D01*
X135471954Y-103961652D01*
X135471951Y-103961657D01*
X135471950Y-103961658D01*
X135466438Y-103972476D01*
X135414352Y-104074698D01*
X135414352Y-104074699D01*
X135394508Y-104199996D01*
X135394508Y-104200003D01*
X135414352Y-104325300D01*
X135414352Y-104325301D01*
X135422100Y-104340506D01*
X135471950Y-104438342D01*
X135471952Y-104438344D01*
X135471954Y-104438347D01*
X135561652Y-104528045D01*
X135561654Y-104528046D01*
X135561658Y-104528050D01*
X135674696Y-104585646D01*
X135674697Y-104585646D01*
X135674699Y-104585647D01*
X135799997Y-104605492D01*
X135800000Y-104605492D01*
X135800003Y-104605492D01*
X135925300Y-104585647D01*
X135925302Y-104585646D01*
X135925304Y-104585646D01*
X136003834Y-104545632D01*
X136072501Y-104532736D01*
X136137242Y-104559012D01*
X136177499Y-104616118D01*
X136180492Y-104685923D01*
X136170614Y-104712410D01*
X136164353Y-104724697D01*
X136164352Y-104724698D01*
X136149500Y-104818475D01*
X136149500Y-108181519D01*
X136151077Y-108191474D01*
X136142117Y-108260766D01*
X136097118Y-108314216D01*
X136030365Y-108334851D01*
X135963053Y-108316122D01*
X135961067Y-108314859D01*
X135755749Y-108181524D01*
X135531765Y-108036067D01*
X135526424Y-108032396D01*
X134913193Y-107586857D01*
X134908042Y-107582905D01*
X134318953Y-107105870D01*
X134314017Y-107101654D01*
X133750710Y-106594450D01*
X133746001Y-106589981D01*
X133210018Y-106053998D01*
X133205549Y-106049289D01*
X132698345Y-105485982D01*
X132694129Y-105481046D01*
X132217094Y-104891957D01*
X132213142Y-104886806D01*
X131767591Y-104273558D01*
X131763938Y-104268242D01*
X131477733Y-103827525D01*
X132649500Y-103827525D01*
X132649500Y-103972475D01*
X132680912Y-104089705D01*
X132687017Y-104112488D01*
X132759488Y-104238011D01*
X132759490Y-104238013D01*
X132759491Y-104238015D01*
X132861985Y-104340509D01*
X132861986Y-104340510D01*
X132861988Y-104340511D01*
X132987511Y-104412982D01*
X132987512Y-104412982D01*
X132987515Y-104412984D01*
X133127525Y-104450500D01*
X133127528Y-104450500D01*
X133272472Y-104450500D01*
X133272475Y-104450500D01*
X133412485Y-104412984D01*
X133538015Y-104340509D01*
X133640509Y-104238015D01*
X133712984Y-104112485D01*
X133750500Y-103972475D01*
X133750500Y-103827525D01*
X133712984Y-103687515D01*
X133678032Y-103626977D01*
X133640511Y-103561988D01*
X133640506Y-103561982D01*
X133538017Y-103459493D01*
X133538011Y-103459488D01*
X133412488Y-103387017D01*
X133412489Y-103387017D01*
X133401006Y-103383940D01*
X133272475Y-103349500D01*
X133127525Y-103349500D01*
X132998993Y-103383940D01*
X132987511Y-103387017D01*
X132861988Y-103459488D01*
X132861982Y-103459493D01*
X132759493Y-103561982D01*
X132759488Y-103561988D01*
X132687017Y-103687511D01*
X132687016Y-103687515D01*
X132649500Y-103827525D01*
X131477733Y-103827525D01*
X131351078Y-103632494D01*
X131347708Y-103626995D01*
X130968698Y-102970530D01*
X130965600Y-102964825D01*
X130861451Y-102760422D01*
X130621460Y-102289414D01*
X130618682Y-102283588D01*
X130310365Y-101591097D01*
X130307883Y-101585104D01*
X130148721Y-101170473D01*
X130036232Y-100877431D01*
X130034070Y-100871323D01*
X129878952Y-100393920D01*
X130320499Y-100393920D01*
X130349340Y-100538907D01*
X130349343Y-100538917D01*
X130405912Y-100675488D01*
X130405919Y-100675501D01*
X130488048Y-100798415D01*
X130488051Y-100798419D01*
X130592580Y-100902948D01*
X130592584Y-100902951D01*
X130715498Y-100985080D01*
X130715511Y-100985087D01*
X130828652Y-101031951D01*
X130852087Y-101041658D01*
X130852091Y-101041658D01*
X130852092Y-101041659D01*
X130997079Y-101070500D01*
X130997082Y-101070500D01*
X131744920Y-101070500D01*
X131845422Y-101050508D01*
X131889913Y-101041658D01*
X132026495Y-100985084D01*
X132149416Y-100902951D01*
X132253951Y-100798416D01*
X132336084Y-100675495D01*
X132392658Y-100538913D01*
X132410621Y-100448608D01*
X132421500Y-100393920D01*
X132421500Y-100246079D01*
X132392659Y-100101092D01*
X132392658Y-100101091D01*
X132392658Y-100101087D01*
X132369530Y-100045251D01*
X132336087Y-99964511D01*
X132336080Y-99964498D01*
X132253951Y-99841584D01*
X132253948Y-99841580D01*
X132149419Y-99737051D01*
X132149415Y-99737048D01*
X132026501Y-99654919D01*
X132026488Y-99654912D01*
X131889917Y-99598343D01*
X131889907Y-99598340D01*
X131744920Y-99569500D01*
X131744918Y-99569500D01*
X130997082Y-99569500D01*
X130997080Y-99569500D01*
X130852092Y-99598340D01*
X130852082Y-99598343D01*
X130715511Y-99654912D01*
X130715498Y-99654919D01*
X130592584Y-99737048D01*
X130592580Y-99737051D01*
X130488051Y-99841580D01*
X130488048Y-99841584D01*
X130405919Y-99964498D01*
X130405912Y-99964511D01*
X130349343Y-100101082D01*
X130349340Y-100101092D01*
X130320500Y-100246079D01*
X130320500Y-100246082D01*
X130320500Y-100393918D01*
X130320500Y-100393920D01*
X130320499Y-100393920D01*
X129878952Y-100393920D01*
X129799827Y-100150400D01*
X129797998Y-100144224D01*
X129601800Y-99412001D01*
X129600289Y-99405704D01*
X129599076Y-99399999D01*
X129442693Y-98664270D01*
X129441510Y-98657887D01*
X129413926Y-98483729D01*
X129322928Y-97909196D01*
X129322089Y-97902824D01*
X129242848Y-97148896D01*
X129242343Y-97142474D01*
X129202671Y-96385492D01*
X129202501Y-96379002D01*
X129202501Y-95620997D01*
X129202671Y-95614507D01*
X129210681Y-95461661D01*
X129242343Y-94857522D01*
X129242847Y-94851106D01*
X129322089Y-94097170D01*
X129322928Y-94090808D01*
X129441510Y-93342109D01*
X129442693Y-93335729D01*
X129472481Y-93195587D01*
X129600294Y-92594271D01*
X129601798Y-92588007D01*
X129798001Y-91855765D01*
X129799824Y-91849609D01*
X129830915Y-91753920D01*
X130320499Y-91753920D01*
X130349340Y-91898907D01*
X130349343Y-91898917D01*
X130405912Y-92035488D01*
X130405919Y-92035501D01*
X130488048Y-92158415D01*
X130488051Y-92158419D01*
X130592580Y-92262948D01*
X130592584Y-92262951D01*
X130715498Y-92345080D01*
X130715511Y-92345087D01*
X130833384Y-92393911D01*
X130852087Y-92401658D01*
X130852091Y-92401658D01*
X130852092Y-92401659D01*
X130997079Y-92430500D01*
X130997082Y-92430500D01*
X131744920Y-92430500D01*
X131842462Y-92411096D01*
X131889913Y-92401658D01*
X132026495Y-92345084D01*
X132149416Y-92262951D01*
X132253951Y-92158416D01*
X132336084Y-92035495D01*
X132392658Y-91898913D01*
X132421500Y-91753920D01*
X134400499Y-91753920D01*
X134429340Y-91898907D01*
X134429343Y-91898917D01*
X134485912Y-92035488D01*
X134485919Y-92035501D01*
X134568048Y-92158415D01*
X134568051Y-92158419D01*
X134672580Y-92262948D01*
X134672584Y-92262951D01*
X134795498Y-92345080D01*
X134795511Y-92345087D01*
X134908324Y-92391815D01*
X134962728Y-92435655D01*
X134984793Y-92501949D01*
X134967514Y-92569649D01*
X134916377Y-92617260D01*
X134892968Y-92626150D01*
X134827814Y-92643608D01*
X134827812Y-92643608D01*
X134827812Y-92643609D01*
X134713686Y-92709500D01*
X134713683Y-92709502D01*
X134620502Y-92802683D01*
X134620500Y-92802686D01*
X134554608Y-92916812D01*
X134520500Y-93044108D01*
X134520500Y-93175891D01*
X134554608Y-93303187D01*
X134573397Y-93335729D01*
X134620500Y-93417314D01*
X134713686Y-93510500D01*
X134827814Y-93576392D01*
X134955108Y-93610500D01*
X134955110Y-93610500D01*
X135086890Y-93610500D01*
X135086892Y-93610500D01*
X135214186Y-93576392D01*
X135328314Y-93510500D01*
X135421500Y-93417314D01*
X135487392Y-93303186D01*
X135521500Y-93175892D01*
X135521500Y-93044108D01*
X135487392Y-92916814D01*
X135421500Y-92802686D01*
X135328314Y-92709500D01*
X135245845Y-92661886D01*
X135197631Y-92611319D01*
X135184409Y-92542712D01*
X135210377Y-92477848D01*
X135267291Y-92437320D01*
X135307847Y-92430500D01*
X136024920Y-92430500D01*
X136122462Y-92411096D01*
X136169913Y-92401658D01*
X136306495Y-92345084D01*
X136429416Y-92262951D01*
X136533951Y-92158416D01*
X136616084Y-92035495D01*
X136672658Y-91898913D01*
X136701500Y-91753918D01*
X136701500Y-91606082D01*
X136701500Y-91606079D01*
X136672659Y-91461092D01*
X136672658Y-91461091D01*
X136672658Y-91461087D01*
X136654381Y-91416962D01*
X136616087Y-91324511D01*
X136616080Y-91324498D01*
X136533951Y-91201584D01*
X136533948Y-91201580D01*
X136429419Y-91097051D01*
X136429415Y-91097048D01*
X136306501Y-91014919D01*
X136306488Y-91014912D01*
X136169917Y-90958343D01*
X136169907Y-90958340D01*
X136024920Y-90929500D01*
X136024918Y-90929500D01*
X135077082Y-90929500D01*
X135077080Y-90929500D01*
X134932092Y-90958340D01*
X134932082Y-90958343D01*
X134795511Y-91014912D01*
X134795498Y-91014919D01*
X134672584Y-91097048D01*
X134672580Y-91097051D01*
X134568051Y-91201580D01*
X134568048Y-91201584D01*
X134485919Y-91324498D01*
X134485912Y-91324511D01*
X134429343Y-91461082D01*
X134429340Y-91461092D01*
X134400500Y-91606079D01*
X134400500Y-91606082D01*
X134400500Y-91753918D01*
X134400500Y-91753920D01*
X134400499Y-91753920D01*
X132421500Y-91753920D01*
X132421500Y-91753918D01*
X132421500Y-91606082D01*
X132421500Y-91606079D01*
X132392659Y-91461092D01*
X132392658Y-91461091D01*
X132392658Y-91461087D01*
X132374381Y-91416962D01*
X132336087Y-91324511D01*
X132336080Y-91324498D01*
X132253951Y-91201584D01*
X132253948Y-91201580D01*
X132149419Y-91097051D01*
X132149415Y-91097048D01*
X132026501Y-91014919D01*
X132026488Y-91014912D01*
X131889917Y-90958343D01*
X131889907Y-90958340D01*
X131744920Y-90929500D01*
X131744918Y-90929500D01*
X130997082Y-90929500D01*
X130997080Y-90929500D01*
X130852092Y-90958340D01*
X130852082Y-90958343D01*
X130715511Y-91014912D01*
X130715498Y-91014919D01*
X130592584Y-91097048D01*
X130592580Y-91097051D01*
X130488051Y-91201580D01*
X130488048Y-91201584D01*
X130405919Y-91324498D01*
X130405912Y-91324511D01*
X130349343Y-91461082D01*
X130349340Y-91461092D01*
X130320500Y-91606079D01*
X130320500Y-91606082D01*
X130320500Y-91753918D01*
X130320500Y-91753920D01*
X130320499Y-91753920D01*
X129830915Y-91753920D01*
X130034078Y-91128652D01*
X130036228Y-91122580D01*
X130307889Y-90414878D01*
X130310359Y-90408915D01*
X130618689Y-89716396D01*
X130621453Y-89710600D01*
X130965608Y-89035158D01*
X130968689Y-89029485D01*
X131347718Y-88372987D01*
X131351067Y-88367522D01*
X131571863Y-88027525D01*
X132649500Y-88027525D01*
X132649500Y-88172475D01*
X132683854Y-88300683D01*
X132687017Y-88312488D01*
X132759488Y-88438011D01*
X132759490Y-88438013D01*
X132759491Y-88438015D01*
X132861985Y-88540509D01*
X132861986Y-88540510D01*
X132861988Y-88540511D01*
X132987511Y-88612982D01*
X132987512Y-88612982D01*
X132987515Y-88612984D01*
X133127525Y-88650500D01*
X133127528Y-88650500D01*
X133272472Y-88650500D01*
X133272475Y-88650500D01*
X133412485Y-88612984D01*
X133538015Y-88540509D01*
X133640509Y-88438015D01*
X133712984Y-88312485D01*
X133750500Y-88172475D01*
X133750500Y-88027525D01*
X133712984Y-87887515D01*
X133640509Y-87761985D01*
X133538015Y-87659491D01*
X133538013Y-87659490D01*
X133538011Y-87659488D01*
X133412488Y-87587017D01*
X133412489Y-87587017D01*
X133401006Y-87583940D01*
X133272475Y-87549500D01*
X133127525Y-87549500D01*
X132998993Y-87583940D01*
X132987511Y-87587017D01*
X132861988Y-87659488D01*
X132861982Y-87659493D01*
X132759493Y-87761982D01*
X132759488Y-87761988D01*
X132687017Y-87887511D01*
X132682583Y-87904055D01*
X132649500Y-88027525D01*
X131571863Y-88027525D01*
X131763949Y-87731739D01*
X131767579Y-87726458D01*
X132213161Y-87113168D01*
X132217075Y-87108066D01*
X132694135Y-86518945D01*
X132698345Y-86514017D01*
X133205567Y-85950691D01*
X133209999Y-85946020D01*
X133746020Y-85409999D01*
X133750691Y-85405567D01*
X134314025Y-84898338D01*
X134318953Y-84894129D01*
X134389945Y-84836641D01*
X134908066Y-84417075D01*
X134913168Y-84413161D01*
X135526458Y-83967579D01*
X135531739Y-83963949D01*
X136167522Y-83551067D01*
X136172987Y-83547718D01*
X136829485Y-83168689D01*
X136835158Y-83165608D01*
X137510600Y-82821453D01*
X137516396Y-82818689D01*
X138208915Y-82510359D01*
X138214878Y-82507889D01*
X138922580Y-82236228D01*
X138928652Y-82234078D01*
X139649609Y-81999824D01*
X139655765Y-81998001D01*
X140388007Y-81801798D01*
X140394271Y-81800294D01*
X141135731Y-81642692D01*
X141142112Y-81641510D01*
X141890808Y-81522928D01*
X141897170Y-81522089D01*
X142651106Y-81442847D01*
X142657522Y-81442343D01*
X143414507Y-81402670D01*
X143420997Y-81402501D01*
X144179003Y-81402501D01*
X144185492Y-81402670D01*
G37*
%TD.AperFunction*%
%TA.AperFunction,Conductor*%
G36*
X143090804Y-86985032D02*
G01*
X143219995Y-87005494D01*
X143219996Y-87005494D01*
X143219996Y-87005493D01*
X143219998Y-87005494D01*
X143232338Y-87003539D01*
X143301629Y-87012490D01*
X143339421Y-87038330D01*
X144571755Y-88270664D01*
X144571758Y-88270668D01*
X144642262Y-88341172D01*
X144705796Y-88367487D01*
X144725141Y-88375500D01*
X144814850Y-88375500D01*
X146981630Y-88375500D01*
X147048669Y-88395185D01*
X147069311Y-88411819D01*
X147290311Y-88632819D01*
X147323796Y-88694142D01*
X147318812Y-88763834D01*
X147276940Y-88819767D01*
X147211476Y-88844184D01*
X147202630Y-88844500D01*
X146905753Y-88844500D01*
X146888108Y-88843238D01*
X146872133Y-88840941D01*
X146872130Y-88840941D01*
X146827870Y-88840941D01*
X146685560Y-88861401D01*
X146685555Y-88861403D01*
X146643092Y-88873870D01*
X146643076Y-88873876D01*
X146512314Y-88933593D01*
X146512298Y-88933602D01*
X146475074Y-88957525D01*
X146475058Y-88957536D01*
X146366412Y-89051679D01*
X146337427Y-89085129D01*
X146337421Y-89085136D01*
X146259694Y-89206082D01*
X146257597Y-89209924D01*
X146208193Y-89259331D01*
X146148763Y-89274500D01*
X145451237Y-89274500D01*
X145384198Y-89254815D01*
X145342403Y-89209924D01*
X145340305Y-89206082D01*
X145262578Y-89085136D01*
X145262577Y-89085135D01*
X145262576Y-89085133D01*
X145233591Y-89051682D01*
X145207955Y-89029469D01*
X145124941Y-88957536D01*
X145124932Y-88957530D01*
X145124930Y-88957528D01*
X145093629Y-88937412D01*
X145087701Y-88933602D01*
X145087685Y-88933593D01*
X144956923Y-88873876D01*
X144956907Y-88873870D01*
X144929546Y-88865837D01*
X144914445Y-88861403D01*
X144914443Y-88861402D01*
X144914439Y-88861401D01*
X144788100Y-88843237D01*
X144772130Y-88840941D01*
X144727870Y-88840941D01*
X144727866Y-88840941D01*
X144711892Y-88843238D01*
X144694247Y-88844500D01*
X144305753Y-88844500D01*
X144288108Y-88843238D01*
X144272133Y-88840941D01*
X144272130Y-88840941D01*
X144227870Y-88840941D01*
X144085560Y-88861401D01*
X144085555Y-88861403D01*
X144043092Y-88873870D01*
X144043076Y-88873876D01*
X143912314Y-88933593D01*
X143912298Y-88933602D01*
X143875074Y-88957525D01*
X143875058Y-88957536D01*
X143766412Y-89051679D01*
X143737427Y-89085129D01*
X143737421Y-89085136D01*
X143659694Y-89206081D01*
X143659689Y-89206091D01*
X143641306Y-89246344D01*
X143600800Y-89384296D01*
X143600797Y-89384308D01*
X143594500Y-89428109D01*
X143594500Y-89629232D01*
X143574815Y-89696271D01*
X143558181Y-89716913D01*
X142888831Y-90386262D01*
X142888830Y-90386264D01*
X142882045Y-90402644D01*
X142854499Y-90469142D01*
X142854499Y-90573288D01*
X142854500Y-90573297D01*
X142854500Y-92287745D01*
X142834815Y-92354784D01*
X142818181Y-92375426D01*
X142751954Y-92441652D01*
X142751951Y-92441657D01*
X142751950Y-92441658D01*
X142733510Y-92477848D01*
X142694352Y-92554698D01*
X142694352Y-92554699D01*
X142674508Y-92679996D01*
X142674508Y-92680003D01*
X142694352Y-92805300D01*
X142694352Y-92805301D01*
X142694354Y-92805304D01*
X142751950Y-92918342D01*
X142751952Y-92918344D01*
X142751954Y-92918347D01*
X142841652Y-93008045D01*
X142841654Y-93008046D01*
X142841658Y-93008050D01*
X142954696Y-93065646D01*
X142954697Y-93065646D01*
X142954699Y-93065647D01*
X143079997Y-93085492D01*
X143080000Y-93085492D01*
X143080003Y-93085492D01*
X143205300Y-93065647D01*
X143205301Y-93065647D01*
X143205302Y-93065646D01*
X143205304Y-93065646D01*
X143318342Y-93008050D01*
X143408050Y-92918342D01*
X143465646Y-92805304D01*
X143465646Y-92805302D01*
X143465647Y-92805301D01*
X143465647Y-92805300D01*
X143485492Y-92680003D01*
X143485492Y-92679996D01*
X143465647Y-92554699D01*
X143465646Y-92554697D01*
X143465646Y-92554696D01*
X143452967Y-92529813D01*
X143445860Y-92491968D01*
X143433797Y-92484209D01*
X143417059Y-92459340D01*
X143408050Y-92441658D01*
X143408047Y-92441655D01*
X143408045Y-92441652D01*
X143341819Y-92375426D01*
X143308334Y-92314103D01*
X143305500Y-92287745D01*
X143305500Y-90658767D01*
X143325185Y-90591728D01*
X143341819Y-90571086D01*
X143387819Y-90525086D01*
X143449142Y-90491601D01*
X143518834Y-90496585D01*
X143574767Y-90538457D01*
X143599184Y-90603921D01*
X143599500Y-90612767D01*
X143599500Y-91314820D01*
X143599500Y-91314822D01*
X143599499Y-91314822D01*
X143608231Y-91358717D01*
X143612906Y-91370002D01*
X143610077Y-91371173D01*
X143625243Y-91419616D01*
X143615966Y-91455518D01*
X143619558Y-91456481D01*
X143594500Y-91550000D01*
X143594500Y-92171890D01*
X143600797Y-92215691D01*
X143600800Y-92215703D01*
X143620931Y-92284263D01*
X143638937Y-92345586D01*
X143641308Y-92353659D01*
X143642855Y-92357807D01*
X143641331Y-92358375D01*
X143644905Y-92383301D01*
X143653602Y-92388378D01*
X143667768Y-92406481D01*
X143701736Y-92459335D01*
X143737424Y-92514867D01*
X143766409Y-92548318D01*
X143791027Y-92569649D01*
X143875058Y-92642463D01*
X143875065Y-92642468D01*
X143875070Y-92642472D01*
X143902170Y-92659888D01*
X143912298Y-92666397D01*
X143912314Y-92666406D01*
X144043076Y-92726123D01*
X144043081Y-92726125D01*
X144043088Y-92726128D01*
X144085555Y-92738597D01*
X144085558Y-92738597D01*
X144085560Y-92738598D01*
X144116785Y-92743087D01*
X144227870Y-92759059D01*
X144227871Y-92759059D01*
X144272127Y-92759059D01*
X144272130Y-92759059D01*
X144283467Y-92757429D01*
X144288108Y-92756762D01*
X144305753Y-92755500D01*
X144694247Y-92755500D01*
X144711892Y-92756762D01*
X144717546Y-92757574D01*
X144727870Y-92759059D01*
X144727873Y-92759059D01*
X144772130Y-92759059D01*
X144776548Y-92758743D01*
X144776657Y-92760280D01*
X144839301Y-92769274D01*
X144875493Y-92794398D01*
X145018181Y-92937086D01*
X145051666Y-92998409D01*
X145054500Y-93024767D01*
X145054500Y-93827745D01*
X145034815Y-93894784D01*
X145018181Y-93915426D01*
X144951954Y-93981652D01*
X144951951Y-93981657D01*
X144894352Y-94094698D01*
X144894352Y-94094699D01*
X144874508Y-94219996D01*
X144874508Y-94220003D01*
X144894352Y-94345300D01*
X144894352Y-94345301D01*
X144904719Y-94365646D01*
X144951950Y-94458342D01*
X144951952Y-94458344D01*
X144951954Y-94458347D01*
X145041652Y-94548045D01*
X145041654Y-94548046D01*
X145041658Y-94548050D01*
X145154696Y-94605646D01*
X145154697Y-94605646D01*
X145154699Y-94605647D01*
X145279997Y-94625492D01*
X145280000Y-94625492D01*
X145280003Y-94625492D01*
X145405300Y-94605647D01*
X145405301Y-94605647D01*
X145405302Y-94605646D01*
X145405304Y-94605646D01*
X145518342Y-94548050D01*
X145608050Y-94458342D01*
X145665646Y-94345304D01*
X145665646Y-94345302D01*
X145665647Y-94345301D01*
X145665647Y-94345300D01*
X145685492Y-94220003D01*
X145685492Y-94219996D01*
X145665647Y-94094699D01*
X145665647Y-94094698D01*
X145659681Y-94082989D01*
X145608050Y-93981658D01*
X145608046Y-93981654D01*
X145608045Y-93981652D01*
X145541819Y-93915426D01*
X145508334Y-93854103D01*
X145505500Y-93827745D01*
X145505500Y-92939297D01*
X145505501Y-92939288D01*
X145505501Y-92835147D01*
X145505501Y-92835146D01*
X145481507Y-92777220D01*
X145471170Y-92752264D01*
X145407736Y-92688830D01*
X145400671Y-92681765D01*
X145400664Y-92681759D01*
X145321964Y-92603059D01*
X145288479Y-92541736D01*
X145293463Y-92472044D01*
X145305325Y-92448347D01*
X145340308Y-92393913D01*
X145352287Y-92367680D01*
X145398038Y-92314878D01*
X145465076Y-92295190D01*
X145532117Y-92314872D01*
X145552763Y-92331509D01*
X151274754Y-98053500D01*
X151308239Y-98114823D01*
X151303255Y-98184515D01*
X151274755Y-98228861D01*
X151241954Y-98261662D01*
X151241951Y-98261667D01*
X151241950Y-98261668D01*
X151235534Y-98274260D01*
X151184352Y-98374708D01*
X151164896Y-98497554D01*
X151134967Y-98560689D01*
X151075655Y-98597620D01*
X151005793Y-98596622D01*
X150954742Y-98565837D01*
X149808610Y-97419705D01*
X149791170Y-97402264D01*
X149727736Y-97338830D01*
X149727735Y-97338829D01*
X149703457Y-97328772D01*
X149703457Y-97328771D01*
X149644858Y-97304500D01*
X149644856Y-97304499D01*
X149644855Y-97304499D01*
X149555145Y-97304499D01*
X149540711Y-97304499D01*
X149540703Y-97304500D01*
X149232545Y-97304500D01*
X149232537Y-97304499D01*
X149218103Y-97304499D01*
X149128394Y-97304499D01*
X149128391Y-97304499D01*
X149098933Y-97316701D01*
X149098934Y-97316702D01*
X149045515Y-97338829D01*
X149045510Y-97338831D01*
X149008264Y-97376078D01*
X148982078Y-97402264D01*
X148982077Y-97402265D01*
X148468447Y-97915896D01*
X147966162Y-98418181D01*
X147904839Y-98451666D01*
X147878481Y-98454500D01*
X147062254Y-98454500D01*
X146995215Y-98434815D01*
X146974577Y-98418185D01*
X146908342Y-98351950D01*
X146795304Y-98294354D01*
X146795303Y-98294353D01*
X146795300Y-98294352D01*
X146670003Y-98274508D01*
X146669997Y-98274508D01*
X146544699Y-98294352D01*
X146544698Y-98294352D01*
X146445795Y-98344747D01*
X146377126Y-98357643D01*
X146312385Y-98331367D01*
X146272128Y-98274260D01*
X146265500Y-98234262D01*
X146265500Y-97208630D01*
X146285185Y-97141591D01*
X146301815Y-97120953D01*
X146684441Y-96738326D01*
X146745762Y-96704843D01*
X146791515Y-96703536D01*
X146803864Y-96705492D01*
X146866516Y-96695569D01*
X146929164Y-96685647D01*
X146929165Y-96685647D01*
X146929166Y-96685646D01*
X146929168Y-96685646D01*
X147042206Y-96628050D01*
X147131914Y-96538342D01*
X147143251Y-96516091D01*
X147191224Y-96465297D01*
X147259045Y-96448501D01*
X147325180Y-96471038D01*
X147341416Y-96484706D01*
X147648181Y-96791471D01*
X147681666Y-96852794D01*
X147684500Y-96879152D01*
X147684500Y-96957745D01*
X147664815Y-97024784D01*
X147648181Y-97045426D01*
X147621954Y-97071652D01*
X147621951Y-97071657D01*
X147621950Y-97071658D01*
X147618542Y-97078347D01*
X147564352Y-97184698D01*
X147564352Y-97184699D01*
X147544508Y-97309996D01*
X147544508Y-97310003D01*
X147564352Y-97435300D01*
X147564352Y-97435301D01*
X147582805Y-97471517D01*
X147621950Y-97548342D01*
X147621952Y-97548344D01*
X147621954Y-97548347D01*
X147711652Y-97638045D01*
X147711654Y-97638046D01*
X147711658Y-97638050D01*
X147824696Y-97695646D01*
X147824697Y-97695646D01*
X147824699Y-97695647D01*
X147949997Y-97715492D01*
X147950000Y-97715492D01*
X147950003Y-97715492D01*
X148075300Y-97695647D01*
X148075301Y-97695647D01*
X148075302Y-97695646D01*
X148075304Y-97695646D01*
X148188342Y-97638050D01*
X148278050Y-97548342D01*
X148335646Y-97435304D01*
X148335646Y-97435302D01*
X148335647Y-97435301D01*
X148335647Y-97435300D01*
X148355492Y-97310003D01*
X148355492Y-97309996D01*
X148335647Y-97184699D01*
X148335647Y-97184698D01*
X148318478Y-97151002D01*
X148278050Y-97071658D01*
X148278046Y-97071654D01*
X148278045Y-97071652D01*
X148251819Y-97045426D01*
X148218334Y-96984103D01*
X148215500Y-96957745D01*
X148215500Y-96665006D01*
X148215499Y-96665002D01*
X148188781Y-96600500D01*
X148175080Y-96567422D01*
X147673557Y-96065899D01*
X147167580Y-95559921D01*
X147121730Y-95540929D01*
X147067327Y-95497087D01*
X147058699Y-95482662D01*
X147047999Y-95461662D01*
X147026873Y-95420199D01*
X147026870Y-95420196D01*
X147026868Y-95420193D01*
X146937170Y-95330495D01*
X146937167Y-95330493D01*
X146937165Y-95330491D01*
X146824127Y-95272895D01*
X146824126Y-95272894D01*
X146824123Y-95272893D01*
X146698826Y-95253049D01*
X146698820Y-95253049D01*
X146573522Y-95272893D01*
X146573521Y-95272893D01*
X146531093Y-95294512D01*
X146460481Y-95330491D01*
X146460480Y-95330492D01*
X146460475Y-95330495D01*
X146370777Y-95420193D01*
X146370774Y-95420198D01*
X146370773Y-95420199D01*
X146351574Y-95457878D01*
X146313175Y-95533239D01*
X146313175Y-95533240D01*
X146291804Y-95668179D01*
X146288425Y-95667643D01*
X146273646Y-95717978D01*
X146257012Y-95738620D01*
X145524052Y-96471579D01*
X145462729Y-96505064D01*
X145455769Y-96506371D01*
X145334595Y-96525562D01*
X145259234Y-96563961D01*
X145221555Y-96583160D01*
X145221554Y-96583161D01*
X145221549Y-96583164D01*
X145131851Y-96672862D01*
X145131848Y-96672867D01*
X145131847Y-96672868D01*
X145116221Y-96703536D01*
X145074249Y-96785908D01*
X145074249Y-96785909D01*
X145054405Y-96911206D01*
X145054405Y-96911213D01*
X145074249Y-97036510D01*
X145074249Y-97036511D01*
X145074251Y-97036514D01*
X145131847Y-97149552D01*
X145131849Y-97149554D01*
X145131851Y-97149557D01*
X145221549Y-97239255D01*
X145221551Y-97239256D01*
X145221555Y-97239260D01*
X145334593Y-97296856D01*
X145334594Y-97296856D01*
X145334596Y-97296857D01*
X145459894Y-97316702D01*
X145459897Y-97316702D01*
X145459900Y-97316702D01*
X145585197Y-97296857D01*
X145585199Y-97296856D01*
X145585201Y-97296856D01*
X145634205Y-97271886D01*
X145702873Y-97258990D01*
X145767614Y-97285265D01*
X145807871Y-97342371D01*
X145814500Y-97382371D01*
X145814500Y-98967274D01*
X145794815Y-99034313D01*
X145742011Y-99080068D01*
X145672853Y-99090012D01*
X145609297Y-99060987D01*
X145602819Y-99054955D01*
X144361819Y-97813955D01*
X144328334Y-97752632D01*
X144325500Y-97726274D01*
X144325500Y-96092258D01*
X144345185Y-96025219D01*
X144361814Y-96004581D01*
X144428050Y-95938346D01*
X144485646Y-95825308D01*
X144485646Y-95825306D01*
X144485647Y-95825305D01*
X144485647Y-95825304D01*
X144505492Y-95700007D01*
X144505492Y-95700000D01*
X144485647Y-95574703D01*
X144485647Y-95574702D01*
X144485646Y-95574700D01*
X144428050Y-95461662D01*
X144428046Y-95461658D01*
X144428045Y-95461656D01*
X144338347Y-95371958D01*
X144338344Y-95371956D01*
X144338342Y-95371954D01*
X144225304Y-95314358D01*
X144225303Y-95314357D01*
X144225300Y-95314356D01*
X144100003Y-95294512D01*
X144099997Y-95294512D01*
X143974699Y-95314356D01*
X143974698Y-95314356D01*
X143899337Y-95352755D01*
X143861658Y-95371954D01*
X143861657Y-95371955D01*
X143861652Y-95371958D01*
X143771954Y-95461656D01*
X143771951Y-95461661D01*
X143714352Y-95574702D01*
X143714352Y-95574703D01*
X143694508Y-95700000D01*
X143694508Y-95700007D01*
X143714352Y-95825304D01*
X143714352Y-95825305D01*
X143714354Y-95825308D01*
X143771950Y-95938346D01*
X143838182Y-96004578D01*
X143871666Y-96065899D01*
X143874500Y-96092258D01*
X143874500Y-97816183D01*
X143874499Y-97816197D01*
X143874499Y-97915896D01*
X143887876Y-97948189D01*
X143887878Y-97948193D01*
X143908829Y-97998776D01*
X143989700Y-98079647D01*
X143989706Y-98079652D01*
X145597873Y-99687819D01*
X145631358Y-99749142D01*
X145626374Y-99818834D01*
X145584502Y-99874767D01*
X145519038Y-99899184D01*
X145510192Y-99899500D01*
X143284260Y-99899500D01*
X143247370Y-99893885D01*
X143127105Y-99856409D01*
X143127106Y-99856409D01*
X143056572Y-99850000D01*
X143050000Y-99850000D01*
X143036819Y-99863181D01*
X142975496Y-99896666D01*
X142949138Y-99899500D01*
X142650864Y-99899500D01*
X142583825Y-99879815D01*
X142563189Y-99863187D01*
X142549999Y-99849999D01*
X142543436Y-99850000D01*
X142543417Y-99850001D01*
X142472897Y-99856408D01*
X142472892Y-99856409D01*
X142310603Y-99906981D01*
X142165122Y-99994927D01*
X142044928Y-100115121D01*
X142044925Y-100115125D01*
X141954180Y-100265234D01*
X141935749Y-100288761D01*
X141922781Y-100301730D01*
X141861459Y-100335217D01*
X141791767Y-100330235D01*
X141747415Y-100301733D01*
X141706485Y-100260803D01*
X141601391Y-100209426D01*
X141533261Y-100199500D01*
X141533260Y-100199500D01*
X141066740Y-100199500D01*
X141066739Y-100199500D01*
X140998608Y-100209426D01*
X140893514Y-100260803D01*
X140810803Y-100343514D01*
X140759426Y-100448608D01*
X140749500Y-100516739D01*
X140749500Y-101073783D01*
X140729815Y-101140822D01*
X140677011Y-101186577D01*
X140607853Y-101196521D01*
X140604949Y-101195846D01*
X140604944Y-101195880D01*
X140460362Y-101172981D01*
X140460759Y-101170473D01*
X140407461Y-101154823D01*
X140361706Y-101102019D01*
X140350500Y-101050508D01*
X140350500Y-100516739D01*
X140340573Y-100448608D01*
X140340573Y-100448607D01*
X140289198Y-100343517D01*
X140289196Y-100343515D01*
X140289196Y-100343514D01*
X140206485Y-100260803D01*
X140187721Y-100251630D01*
X140135039Y-100225875D01*
X140083457Y-100178748D01*
X140065500Y-100114475D01*
X140065500Y-99621335D01*
X140085185Y-99554296D01*
X140101814Y-99533659D01*
X142355844Y-97279628D01*
X142417165Y-97246145D01*
X142424081Y-97244845D01*
X142545304Y-97225646D01*
X142658342Y-97168050D01*
X142748050Y-97078342D01*
X142805646Y-96965304D01*
X142805646Y-96965302D01*
X142805647Y-96965301D01*
X142805647Y-96965300D01*
X142825492Y-96840003D01*
X142825492Y-96839996D01*
X142805647Y-96714699D01*
X142805647Y-96714698D01*
X142800956Y-96705491D01*
X142748050Y-96601658D01*
X142748046Y-96601654D01*
X142748045Y-96601652D01*
X142721819Y-96575426D01*
X142688334Y-96514103D01*
X142685500Y-96487745D01*
X142685500Y-93981337D01*
X142685498Y-93981332D01*
X142684946Y-93980000D01*
X142659887Y-93919500D01*
X142645080Y-93883753D01*
X139930456Y-91169129D01*
X139896971Y-91107806D01*
X139895664Y-91062051D01*
X139904838Y-91004126D01*
X139934767Y-90940991D01*
X139939611Y-90935861D01*
X140283655Y-90591819D01*
X140344978Y-90558334D01*
X140371336Y-90555500D01*
X140594247Y-90555500D01*
X140611892Y-90556762D01*
X140617546Y-90557574D01*
X140627870Y-90559059D01*
X140627873Y-90559059D01*
X140672129Y-90559059D01*
X140672130Y-90559059D01*
X140810648Y-90539143D01*
X140814439Y-90538598D01*
X140814439Y-90538597D01*
X140814445Y-90538597D01*
X140856912Y-90526128D01*
X140859194Y-90525086D01*
X140987685Y-90466406D01*
X140987689Y-90466403D01*
X140987697Y-90466400D01*
X141024930Y-90442472D01*
X141024938Y-90442465D01*
X141024941Y-90442463D01*
X141063677Y-90408898D01*
X141133591Y-90348318D01*
X141162576Y-90314867D01*
X141240308Y-90193913D01*
X141258694Y-90153653D01*
X141299201Y-90015698D01*
X141305500Y-89971889D01*
X141305500Y-89350000D01*
X141284667Y-89272250D01*
X141280442Y-89256481D01*
X141284455Y-89255405D01*
X141274875Y-89215948D01*
X141289663Y-89171066D01*
X141287094Y-89170002D01*
X141291764Y-89158726D01*
X141291767Y-89158722D01*
X141300500Y-89114820D01*
X141300500Y-88926726D01*
X141320185Y-88859687D01*
X141372989Y-88813932D01*
X141377017Y-88812178D01*
X141407649Y-88799490D01*
X141427736Y-88791170D01*
X141491170Y-88727736D01*
X141491170Y-88727735D01*
X141508608Y-88710297D01*
X141508610Y-88710294D01*
X142820294Y-87398610D01*
X142820297Y-87398608D01*
X142837735Y-87381170D01*
X142837736Y-87381170D01*
X142901170Y-87317736D01*
X142922153Y-87267078D01*
X142935501Y-87234855D01*
X142935501Y-87145145D01*
X142935501Y-87135156D01*
X142935500Y-87135142D01*
X142935500Y-87104594D01*
X142955185Y-87037555D01*
X143007989Y-86991800D01*
X143077147Y-86981856D01*
X143090804Y-86985032D01*
G37*
%TD.AperFunction*%
%TD*%
M02*
