M48
; DRILL file {KiCad 8.0.7} date 2025-01-11T23:39:27+0900
; FORMAT={-:-/ absolute / inch / decimal}
; #@! TF.CreationDate,2025-01-11T23:39:27+09:00
; #@! TF.GenerationSoftware,Kicad,Pcbnew,8.0.7
; #@! TF.FileFunction,Plated,1,4,PTH
FMAT,2
INCH
; #@! TA.AperFunction,Plated,PTH,ViaDrill
T1C0.0118
; #@! TA.AperFunction,Plated,PTH,ViaDrill
T2C0.0157
; #@! TA.AperFunction,Plated,PTH,ComponentDrill
T3C0.0276
%
G90
G05
T1
X5.1728Y-3.7622
X5.3051Y-3.3642
X5.3228Y-3.5079
X5.3465Y-4.0606
X5.3465Y-4.1024
X5.3557Y-3.4869
X5.3898Y-3.5748
X5.4567Y-4.189
X5.463Y-3.3299
X5.4921Y-3.5827
X5.5031Y-4.1984
X5.5187Y-3.3297
X5.5303Y-3.9992
X5.5382Y-3.5976
X5.5516Y-4.185
X5.563Y-3.8189
X5.5866Y-4.0945
X5.6071Y-3.8126
X5.6073Y-3.3108
X5.6308Y-3.3001
X5.6331Y-3.6488
X5.6366Y-3.3441
X5.6386Y-3.4094
X5.659Y-3.2888
X5.6654Y-3.4791
X5.6654Y-3.4098
X5.6697Y-3.3449
X5.6732Y-3.7677
X5.6843Y-3.2809
X5.6949Y-4.126
X5.715Y-3.8386
X5.7197Y-3.7094
X5.7264Y-3.7433
X5.7268Y-3.8154
X5.7482Y-3.6104
X5.7587Y-3.9098
X5.7744Y-3.885
X5.7755Y-3.7661
X5.7797Y-3.7913
X5.8248Y-3.8311
X5.8433Y-3.9906
X5.8762Y-4.0467
X5.8771Y-3.8051
X5.8807Y-3.8585
X5.8967Y-3.7185
X5.907Y-3.9193
X5.9073Y-3.9463
X5.9173Y-3.3858
X5.9246Y-3.9652
X5.925Y-3.7204
X5.9291Y-3.9904
X5.952Y-3.7209
X5.9673Y-3.878
X5.9673Y-3.9579
X5.9785Y-3.7202
X5.9917Y-3.9417
X5.9937Y-3.8744
X6.0063Y-3.7217
X6.0114Y-3.8535
X6.0264Y-3.7
X6.0512Y-3.5709
X6.0748Y-3.6457
X6.1614Y-3.9882
X6.1693Y-3.563
T2
X5.2736Y-3.8839
X5.3071Y-3.8248
X5.4567Y-3.9134
X5.5294Y-3.6615
X5.6181Y-4.1181
T3
G00X5.1859Y-3.6094
M15
G01X5.1583Y-3.6094
M16
G05
G00X5.1859Y-3.9496
M15
G01X5.1583Y-3.9496
M16
G05
G00X5.3563Y-3.6094
M15
G01X5.317Y-3.6094
M16
G05
G00X5.3563Y-3.9496
M15
G01X5.317Y-3.9496
M16
G05
M30
