%TF.GenerationSoftware,KiCad,Pcbnew,10.0.3*%
%TF.CreationDate,2026-07-21T14:30:20+10:00*%
%TF.ProjectId,epaper-smart-watch,65706170-6572-42d7-936d-6172742d7761,rev?*%
%TF.SameCoordinates,Original*%
%TF.FileFunction,Legend,Top*%
%TF.FilePolarity,Positive*%
%FSLAX46Y46*%
G04 Gerber Fmt 4.6, Leading zero omitted, Abs format (unit mm)*
G04 Created by KiCad (PCBNEW 10.0.3) date 2026-07-21 14:30:20*
%MOMM*%
%LPD*%
G01*
G04 APERTURE LIST*
G04 Aperture macros list*
%AMRoundRect*
0 Rectangle with rounded corners*
0 $1 Rounding radius*
0 $2 $3 $4 $5 $6 $7 $8 $9 X,Y pos of 4 corners*
0 Add a 4 corners polygon primitive as box body*
4,1,4,$2,$3,$4,$5,$6,$7,$8,$9,$2,$3,0*
0 Add four circle primitives for the rounded corners*
1,1,$1+$1,$2,$3*
1,1,$1+$1,$4,$5*
1,1,$1+$1,$6,$7*
1,1,$1+$1,$8,$9*
0 Add four rect primitives between the rounded corners*
20,1,$1+$1,$2,$3,$4,$5,0*
20,1,$1+$1,$4,$5,$6,$7,0*
20,1,$1+$1,$6,$7,$8,$9,0*
20,1,$1+$1,$8,$9,$2,$3,0*%
%AMRotRect*
0 Rectangle, with rotation*
0 The origin of the aperture is its center*
0 $1 length*
0 $2 width*
0 $3 Rotation angle, in degrees counterclockwise*
0 Add horizontal line*
21,1,$1,$2,0,0,$3*%
G04 Aperture macros list end*
%ADD10C,0.150000*%
%ADD11C,0.120000*%
%ADD12C,0.200000*%
%ADD13C,0.060000*%
%ADD14C,0.250000*%
%ADD15C,0.100000*%
%ADD16RoundRect,0.150000X0.512500X0.150000X-0.512500X0.150000X-0.512500X-0.150000X0.512500X-0.150000X0*%
%ADD17RoundRect,0.135000X0.135000X0.185000X-0.135000X0.185000X-0.135000X-0.185000X0.135000X-0.185000X0*%
%ADD18RoundRect,0.135000X-0.135000X-0.185000X0.135000X-0.185000X0.135000X0.185000X-0.135000X0.185000X0*%
%ADD19R,2.700000X0.800000*%
%ADD20R,0.920000X0.230000*%
%ADD21R,1.200000X0.700000*%
%ADD22R,0.300000X0.700000*%
%ADD23R,1.700000X0.500000*%
%ADD24RoundRect,0.135000X-0.185000X0.135000X-0.185000X-0.135000X0.185000X-0.135000X0.185000X0.135000X0*%
%ADD25RoundRect,0.225000X-0.250000X0.225000X-0.250000X-0.225000X0.250000X-0.225000X0.250000X0.225000X0*%
%ADD26RoundRect,0.225000X0.225000X0.250000X-0.225000X0.250000X-0.225000X-0.250000X0.225000X-0.250000X0*%
%ADD27RoundRect,0.225000X-0.225000X-0.250000X0.225000X-0.250000X0.225000X0.250000X-0.225000X0.250000X0*%
%ADD28RoundRect,0.218750X-0.218750X-0.256250X0.218750X-0.256250X0.218750X0.256250X-0.218750X0.256250X0*%
%ADD29RoundRect,0.200000X0.275000X-0.200000X0.275000X0.200000X-0.275000X0.200000X-0.275000X-0.200000X0*%
%ADD30RoundRect,0.250000X0.475000X-0.250000X0.475000X0.250000X-0.475000X0.250000X-0.475000X-0.250000X0*%
%ADD31RoundRect,0.250000X-0.475000X0.250000X-0.475000X-0.250000X0.475000X-0.250000X0.475000X0.250000X0*%
%ADD32RoundRect,0.140000X0.140000X0.170000X-0.140000X0.170000X-0.140000X-0.170000X0.140000X-0.170000X0*%
%ADD33RoundRect,0.250000X-0.750000X0.275000X-0.750000X-0.275000X0.750000X-0.275000X0.750000X0.275000X0*%
%ADD34R,0.300000X0.800000*%
%ADD35R,0.800000X0.300000*%
%ADD36R,2.800000X2.800000*%
%ADD37RoundRect,0.140000X-0.140000X-0.170000X0.140000X-0.170000X0.140000X0.170000X-0.140000X0.170000X0*%
%ADD38RoundRect,0.150000X-0.150000X0.512500X-0.150000X-0.512500X0.150000X-0.512500X0.150000X0.512500X0*%
%ADD39R,0.550000X1.200000*%
%ADD40RoundRect,0.225000X0.375000X-0.225000X0.375000X0.225000X-0.375000X0.225000X-0.375000X-0.225000X0*%
%ADD41RoundRect,0.140000X0.170000X-0.140000X0.170000X0.140000X-0.170000X0.140000X-0.170000X-0.140000X0*%
%ADD42RoundRect,0.140000X-0.170000X0.140000X-0.170000X-0.140000X0.170000X-0.140000X0.170000X0.140000X0*%
%ADD43R,0.350000X0.350000*%
%ADD44R,0.350000X0.300000*%
%ADD45R,0.300000X0.350000*%
%ADD46R,0.600000X0.600000*%
%ADD47R,0.430000X0.430000*%
%ADD48RoundRect,0.225000X0.250000X-0.225000X0.250000X0.225000X-0.250000X0.225000X-0.250000X-0.225000X0*%
%ADD49RoundRect,0.218750X0.256250X-0.218750X0.256250X0.218750X-0.256250X0.218750X-0.256250X-0.218750X0*%
%ADD50RoundRect,0.135000X0.185000X-0.135000X0.185000X0.135000X-0.185000X0.135000X-0.185000X-0.135000X0*%
%ADD51RoundRect,0.112500X0.112500X-0.350000X0.112500X0.350000X-0.112500X0.350000X-0.112500X-0.350000X0*%
%ADD52RotRect,0.900000X1.700000X145.000000*%
%ADD53RotRect,0.900000X1.700000X215.000000*%
%ADD54RoundRect,0.150000X0.587500X0.150000X-0.587500X0.150000X-0.587500X-0.150000X0.587500X-0.150000X0*%
%ADD55R,1.100000X0.300000*%
%ADD56O,1.700000X1.000000*%
%ADD57O,2.100000X1.000000*%
%ADD58R,0.300000X0.750000*%
%ADD59R,1.300000X0.900000*%
%ADD60RoundRect,0.225000X0.225000X0.375000X-0.225000X0.375000X-0.225000X-0.375000X0.225000X-0.375000X0*%
%ADD61RoundRect,0.250000X-0.250000X-0.475000X0.250000X-0.475000X0.250000X0.475000X-0.250000X0.475000X0*%
%ADD62RotRect,0.900000X1.700000X35.000000*%
%ADD63R,0.350000X0.375000*%
%ADD64R,0.375000X0.350000*%
%ADD65RoundRect,0.150000X-0.587500X-0.150000X0.587500X-0.150000X0.587500X0.150000X-0.587500X0.150000X0*%
%ADD66R,4.200000X2.000000*%
%ADD67RoundRect,0.225000X-0.225000X-0.375000X0.225000X-0.375000X0.225000X0.375000X-0.225000X0.375000X0*%
%ADD68RotRect,0.900000X1.700000X325.000000*%
%ADD69R,0.500000X0.350000*%
G04 APERTURE END LIST*
D10*
X145924819Y-107642857D02*
X145448628Y-107976190D01*
X145924819Y-108214285D02*
X144924819Y-108214285D01*
X144924819Y-108214285D02*
X144924819Y-107833333D01*
X144924819Y-107833333D02*
X144972438Y-107738095D01*
X144972438Y-107738095D02*
X145020057Y-107690476D01*
X145020057Y-107690476D02*
X145115295Y-107642857D01*
X145115295Y-107642857D02*
X145258152Y-107642857D01*
X145258152Y-107642857D02*
X145353390Y-107690476D01*
X145353390Y-107690476D02*
X145401009Y-107738095D01*
X145401009Y-107738095D02*
X145448628Y-107833333D01*
X145448628Y-107833333D02*
X145448628Y-108214285D01*
X145924819Y-106690476D02*
X145924819Y-107261904D01*
X145924819Y-106976190D02*
X144924819Y-106976190D01*
X144924819Y-106976190D02*
X145067676Y-107071428D01*
X145067676Y-107071428D02*
X145162914Y-107166666D01*
X145162914Y-107166666D02*
X145210533Y-107261904D01*
X144924819Y-106071428D02*
X144924819Y-105976190D01*
X144924819Y-105976190D02*
X144972438Y-105880952D01*
X144972438Y-105880952D02*
X145020057Y-105833333D01*
X145020057Y-105833333D02*
X145115295Y-105785714D01*
X145115295Y-105785714D02*
X145305771Y-105738095D01*
X145305771Y-105738095D02*
X145543866Y-105738095D01*
X145543866Y-105738095D02*
X145734342Y-105785714D01*
X145734342Y-105785714D02*
X145829580Y-105833333D01*
X145829580Y-105833333D02*
X145877200Y-105880952D01*
X145877200Y-105880952D02*
X145924819Y-105976190D01*
X145924819Y-105976190D02*
X145924819Y-106071428D01*
X145924819Y-106071428D02*
X145877200Y-106166666D01*
X145877200Y-106166666D02*
X145829580Y-106214285D01*
X145829580Y-106214285D02*
X145734342Y-106261904D01*
X145734342Y-106261904D02*
X145543866Y-106309523D01*
X145543866Y-106309523D02*
X145305771Y-106309523D01*
X145305771Y-106309523D02*
X145115295Y-106261904D01*
X145115295Y-106261904D02*
X145020057Y-106214285D01*
X145020057Y-106214285D02*
X144972438Y-106166666D01*
X144972438Y-106166666D02*
X144924819Y-106071428D01*
X140353508Y-118126246D02*
X140443216Y-118247193D01*
X140443216Y-118247193D02*
X140638253Y-118383758D01*
X140638253Y-118383758D02*
X140743580Y-118399378D01*
X140743580Y-118399378D02*
X140809901Y-118387683D01*
X140809901Y-118387683D02*
X140903534Y-118336982D01*
X140903534Y-118336982D02*
X140958161Y-118258968D01*
X140958161Y-118258968D02*
X140973780Y-118153640D01*
X140973780Y-118153640D02*
X140962086Y-118087320D01*
X140962086Y-118087320D02*
X140911384Y-117993686D01*
X140911384Y-117993686D02*
X140782668Y-117845426D01*
X140782668Y-117845426D02*
X140731967Y-117751793D01*
X140731967Y-117751793D02*
X140720273Y-117685472D01*
X140720273Y-117685472D02*
X140735892Y-117580145D01*
X140735892Y-117580145D02*
X140790518Y-117502130D01*
X140790518Y-117502130D02*
X140884152Y-117451429D01*
X140884152Y-117451429D02*
X140950472Y-117439735D01*
X140950472Y-117439735D02*
X141055800Y-117455354D01*
X141055800Y-117455354D02*
X141250836Y-117591920D01*
X141250836Y-117591920D02*
X141340545Y-117712866D01*
X141640909Y-117865051D02*
X141262369Y-118820769D01*
X141262369Y-118820769D02*
X141828095Y-118344913D01*
X141828095Y-118344913D02*
X141574426Y-119039274D01*
X141574426Y-119039274D02*
X142343039Y-118356688D01*
X142561463Y-118625895D02*
X142627784Y-118614201D01*
X142627784Y-118614201D02*
X142733111Y-118629820D01*
X142733111Y-118629820D02*
X142928148Y-118766386D01*
X142928148Y-118766386D02*
X142978849Y-118860019D01*
X142978849Y-118860019D02*
X142990543Y-118926340D01*
X142990543Y-118926340D02*
X142974924Y-119031667D01*
X142974924Y-119031667D02*
X142920298Y-119109682D01*
X142920298Y-119109682D02*
X142799351Y-119199390D01*
X142799351Y-119199390D02*
X142003506Y-119339719D01*
X142003506Y-119339719D02*
X142510600Y-119694790D01*
X162362087Y-120055782D02*
X162506421Y-120012850D01*
X162506421Y-120012850D02*
X162701458Y-119876284D01*
X162701458Y-119876284D02*
X162752159Y-119782651D01*
X162752159Y-119782651D02*
X162763853Y-119716330D01*
X162763853Y-119716330D02*
X162748234Y-119611003D01*
X162748234Y-119611003D02*
X162693608Y-119532988D01*
X162693608Y-119532988D02*
X162599974Y-119482287D01*
X162599974Y-119482287D02*
X162533654Y-119470593D01*
X162533654Y-119470593D02*
X162428326Y-119486212D01*
X162428326Y-119486212D02*
X162244984Y-119556457D01*
X162244984Y-119556457D02*
X162139656Y-119572077D01*
X162139656Y-119572077D02*
X162073336Y-119560382D01*
X162073336Y-119560382D02*
X161979702Y-119509681D01*
X161979702Y-119509681D02*
X161925076Y-119431667D01*
X161925076Y-119431667D02*
X161909457Y-119326339D01*
X161909457Y-119326339D02*
X161921151Y-119260019D01*
X161921151Y-119260019D02*
X161971852Y-119166385D01*
X161971852Y-119166385D02*
X162166888Y-119029819D01*
X162166888Y-119029819D02*
X162311223Y-118986887D01*
X162556961Y-118756688D02*
X163325573Y-119439274D01*
X163325573Y-119439274D02*
X163071905Y-118744913D01*
X163071905Y-118744913D02*
X163637631Y-119220768D01*
X163637631Y-119220768D02*
X163259091Y-118265051D01*
X163961221Y-117773414D02*
X163571149Y-118046545D01*
X163571149Y-118046545D02*
X163805273Y-118463931D01*
X163805273Y-118463931D02*
X163816967Y-118397611D01*
X163816967Y-118397611D02*
X163867669Y-118303977D01*
X163867669Y-118303977D02*
X164062705Y-118167411D01*
X164062705Y-118167411D02*
X164168033Y-118151792D01*
X164168033Y-118151792D02*
X164234353Y-118163486D01*
X164234353Y-118163486D02*
X164327987Y-118214187D01*
X164327987Y-118214187D02*
X164464552Y-118409224D01*
X164464552Y-118409224D02*
X164480171Y-118514551D01*
X164480171Y-118514551D02*
X164468477Y-118580872D01*
X164468477Y-118580872D02*
X164417776Y-118674505D01*
X164417776Y-118674505D02*
X164222740Y-118811071D01*
X164222740Y-118811071D02*
X164117412Y-118826690D01*
X164117412Y-118826690D02*
X164051092Y-118814996D01*
X140820629Y-87540870D02*
X140964963Y-87497938D01*
X140964963Y-87497938D02*
X141160000Y-87361372D01*
X141160000Y-87361372D02*
X141210701Y-87267739D01*
X141210701Y-87267739D02*
X141222395Y-87201418D01*
X141222395Y-87201418D02*
X141206776Y-87096091D01*
X141206776Y-87096091D02*
X141152150Y-87018076D01*
X141152150Y-87018076D02*
X141058516Y-86967375D01*
X141058516Y-86967375D02*
X140992196Y-86955681D01*
X140992196Y-86955681D02*
X140886868Y-86971300D01*
X140886868Y-86971300D02*
X140703526Y-87041545D01*
X140703526Y-87041545D02*
X140598198Y-87057165D01*
X140598198Y-87057165D02*
X140531878Y-87045470D01*
X140531878Y-87045470D02*
X140438244Y-86994769D01*
X140438244Y-86994769D02*
X140383618Y-86916755D01*
X140383618Y-86916755D02*
X140367999Y-86811427D01*
X140367999Y-86811427D02*
X140379693Y-86745107D01*
X140379693Y-86745107D02*
X140430394Y-86651473D01*
X140430394Y-86651473D02*
X140625430Y-86514907D01*
X140625430Y-86514907D02*
X140769765Y-86471975D01*
X141015503Y-86241776D02*
X141784115Y-86924362D01*
X141784115Y-86924362D02*
X141530447Y-86230001D01*
X141530447Y-86230001D02*
X142096173Y-86705856D01*
X142096173Y-86705856D02*
X141717633Y-85750139D01*
X141951677Y-85586260D02*
X142458771Y-85231189D01*
X142458771Y-85231189D02*
X142404225Y-85734439D01*
X142404225Y-85734439D02*
X142521247Y-85652499D01*
X142521247Y-85652499D02*
X142626575Y-85636880D01*
X142626575Y-85636880D02*
X142692895Y-85648574D01*
X142692895Y-85648574D02*
X142786529Y-85699275D01*
X142786529Y-85699275D02*
X142923094Y-85894312D01*
X142923094Y-85894312D02*
X142938713Y-85999639D01*
X142938713Y-85999639D02*
X142927019Y-86065960D01*
X142927019Y-86065960D02*
X142876318Y-86159593D01*
X142876318Y-86159593D02*
X142642275Y-86323472D01*
X142642275Y-86323472D02*
X142536947Y-86339091D01*
X142536947Y-86339091D02*
X142470627Y-86327397D01*
X161894966Y-85611334D02*
X161984674Y-85732281D01*
X161984674Y-85732281D02*
X162179711Y-85868846D01*
X162179711Y-85868846D02*
X162285038Y-85884466D01*
X162285038Y-85884466D02*
X162351359Y-85872771D01*
X162351359Y-85872771D02*
X162444992Y-85822070D01*
X162444992Y-85822070D02*
X162499619Y-85744056D01*
X162499619Y-85744056D02*
X162515238Y-85638728D01*
X162515238Y-85638728D02*
X162503544Y-85572408D01*
X162503544Y-85572408D02*
X162452842Y-85478774D01*
X162452842Y-85478774D02*
X162324126Y-85330514D01*
X162324126Y-85330514D02*
X162273425Y-85236881D01*
X162273425Y-85236881D02*
X162261731Y-85170560D01*
X162261731Y-85170560D02*
X162277350Y-85065233D01*
X162277350Y-85065233D02*
X162331976Y-84987218D01*
X162331976Y-84987218D02*
X162425610Y-84936517D01*
X162425610Y-84936517D02*
X162491930Y-84924823D01*
X162491930Y-84924823D02*
X162597258Y-84940442D01*
X162597258Y-84940442D02*
X162792294Y-85077008D01*
X162792294Y-85077008D02*
X162882003Y-85197954D01*
X163182367Y-85350139D02*
X162803827Y-86305857D01*
X162803827Y-86305857D02*
X163369553Y-85830001D01*
X163369553Y-85830001D02*
X163115884Y-86524362D01*
X163115884Y-86524362D02*
X163884497Y-85841776D01*
X164356428Y-86579151D02*
X163974044Y-87125252D01*
X164379897Y-86130527D02*
X163775163Y-86579070D01*
X163775163Y-86579070D02*
X164282257Y-86934141D01*
%TO.C,U2*%
D11*
X162290000Y-100740000D02*
X164110000Y-100740000D01*
X162290000Y-100790000D02*
X162290000Y-100740000D01*
X162290000Y-103860000D02*
X162290000Y-103810000D01*
X164110000Y-100740000D02*
X164110000Y-100790000D01*
X164110000Y-103810000D02*
X164110000Y-103860000D01*
X164110000Y-103860000D02*
X162290000Y-103860000D01*
X164650000Y-103810000D02*
X164890000Y-104140000D01*
X164410000Y-104140000D01*
X164650000Y-103810000D01*
G36*
X164890000Y-104140000D02*
G01*
X164410000Y-104140000D01*
X164650000Y-103810000D01*
X164890000Y-104140000D01*
G37*
%TO.C,R14*%
X157353641Y-92220000D02*
X157046359Y-92220000D01*
X157353641Y-92980000D02*
X157046359Y-92980000D01*
%TO.C,R7*%
X164708859Y-108420000D02*
X165016141Y-108420000D01*
X164708859Y-109180000D02*
X165016141Y-109180000D01*
%TO.C,L2*%
X139000000Y-108000000D02*
X139000000Y-105000000D01*
X142200000Y-108000000D02*
X142200000Y-105000000D01*
%TO.C,R17*%
X152053641Y-98020000D02*
X151746359Y-98020000D01*
X152053641Y-98780000D02*
X151746359Y-98780000D01*
%TO.C,J6*%
D10*
X133315000Y-98725000D02*
X133315000Y-99800000D01*
X133315000Y-100600000D02*
X133315000Y-106075000D01*
X137965000Y-98725000D02*
X133315000Y-98725000D01*
X137965000Y-98725000D02*
X137965000Y-106075000D01*
X137965000Y-106075000D02*
X133315000Y-106075000D01*
D12*
X133240000Y-100200000D02*
G75*
G02*
X133040000Y-100200000I-100000J0D01*
G01*
X133040000Y-100200000D02*
G75*
G02*
X133240000Y-100200000I100000J0D01*
G01*
%TO.C,U4*%
X156100000Y-91400000D02*
X156100000Y-88200000D01*
X158300000Y-91400000D02*
X158300000Y-88200000D01*
X156000000Y-91700000D02*
G75*
G02*
X155800000Y-91700000I-100000J0D01*
G01*
X155800000Y-91700000D02*
G75*
G02*
X156000000Y-91700000I100000J0D01*
G01*
D13*
X156230000Y-91300000D02*
G75*
G02*
X156170000Y-91300000I-30000J0D01*
G01*
X156170000Y-91300000D02*
G75*
G02*
X156230000Y-91300000I30000J0D01*
G01*
%TO.C,R19*%
D11*
X139120000Y-96346359D02*
X139120000Y-96653641D01*
X139880000Y-96346359D02*
X139880000Y-96653641D01*
%TO.C,C22*%
X141190000Y-109659420D02*
X141190000Y-109940580D01*
X142210000Y-109659420D02*
X142210000Y-109940580D01*
%TO.C,C16*%
X145970580Y-109930000D02*
X145689420Y-109930000D01*
X145970580Y-110950000D02*
X145689420Y-110950000D01*
%TO.C,C21*%
X134259420Y-97190000D02*
X134540580Y-97190000D01*
X134259420Y-98210000D02*
X134540580Y-98210000D01*
%TO.C,L3*%
X146037221Y-104190000D02*
X146362779Y-104190000D01*
X146037221Y-105210000D02*
X146362779Y-105210000D01*
%TO.C,R10*%
X146377500Y-107237258D02*
X146377500Y-106762742D01*
X147422500Y-107237258D02*
X147422500Y-106762742D01*
%TO.C,R13*%
X152846359Y-99920000D02*
X153153641Y-99920000D01*
X152846359Y-100680000D02*
X153153641Y-100680000D01*
%TO.C,C17*%
X144065000Y-99961252D02*
X144065000Y-99438748D01*
X145535000Y-99961252D02*
X145535000Y-99438748D01*
%TO.C,R12*%
X134453641Y-106420000D02*
X134146359Y-106420000D01*
X134453641Y-107180000D02*
X134146359Y-107180000D01*
%TO.C,C4*%
X156265580Y-104690000D02*
X155984420Y-104690000D01*
X156265580Y-105710000D02*
X155984420Y-105710000D01*
%TO.C,C7*%
X159065000Y-106388748D02*
X159065000Y-106911252D01*
X160535000Y-106388748D02*
X160535000Y-106911252D01*
%TO.C,C8*%
X153627836Y-103240000D02*
X153412164Y-103240000D01*
X153627836Y-103960000D02*
X153412164Y-103960000D01*
%TO.C,SW6*%
X143550000Y-92100000D02*
X143550000Y-96300000D01*
X143550000Y-96300000D02*
X143940000Y-96300000D01*
X143940000Y-92100000D02*
X143550000Y-92100000D01*
X146460000Y-92100000D02*
X146850000Y-92100000D01*
X146850000Y-92100000D02*
X146850000Y-96300000D01*
X146850000Y-96300000D02*
X146460000Y-96300000D01*
%TO.C,IC2*%
D10*
X154700000Y-98900000D02*
X158600000Y-98900000D01*
X154700000Y-103700000D02*
X154700000Y-98900000D01*
X158600000Y-98900000D02*
X159500000Y-99800000D01*
X159500000Y-99800000D02*
X159500000Y-103700000D01*
X159500000Y-103700000D02*
X154700000Y-103700000D01*
D14*
X159225000Y-98900000D02*
G75*
G02*
X158975000Y-98900000I-125000J0D01*
G01*
X158975000Y-98900000D02*
G75*
G02*
X159225000Y-98900000I125000J0D01*
G01*
%TO.C,C11*%
D11*
X151612164Y-107140000D02*
X151827836Y-107140000D01*
X151612164Y-107860000D02*
X151827836Y-107860000D01*
%TO.C,U5*%
X162040000Y-95490000D02*
X162090000Y-95490000D01*
X162040000Y-97310000D02*
X162040000Y-95490000D01*
X163040000Y-97310000D02*
X162040000Y-97310000D01*
X163210000Y-95490000D02*
X163990000Y-95490000D01*
X165110000Y-95490000D02*
X165160000Y-95490000D01*
X165160000Y-95490000D02*
X165160000Y-97310000D01*
X165160000Y-97310000D02*
X164160000Y-97310000D01*
X163980000Y-94950000D02*
X163650000Y-95190000D01*
X163650000Y-94710000D01*
X163980000Y-94950000D01*
G36*
X163980000Y-94950000D02*
G01*
X163650000Y-95190000D01*
X163650000Y-94710000D01*
X163980000Y-94950000D01*
G37*
%TO.C,IC4*%
D12*
X142840000Y-107300000D02*
X145760000Y-107300000D01*
X142840000Y-107900000D02*
X142840000Y-107300000D01*
X145760000Y-107300000D02*
X145760000Y-107900000D01*
X145760000Y-107900000D02*
X142840000Y-107900000D01*
X145875000Y-105750000D02*
X145875000Y-106950000D01*
%TO.C,R16*%
D11*
X159820000Y-103746359D02*
X159820000Y-104053641D01*
X160580000Y-103746359D02*
X160580000Y-104053641D01*
%TO.C,R24*%
X160353641Y-109820000D02*
X160046359Y-109820000D01*
X160353641Y-110580000D02*
X160046359Y-110580000D01*
%TO.C,D3*%
X155715000Y-105965000D02*
X155715000Y-107435000D01*
X155715000Y-107435000D02*
X158000000Y-107435000D01*
X158000000Y-105965000D02*
X155715000Y-105965000D01*
%TO.C,D7*%
X146000000Y-102060000D02*
X146000000Y-98050000D01*
X146000000Y-102060000D02*
X148000000Y-102060000D01*
X148000000Y-102060000D02*
X148000000Y-98050000D01*
%TO.C,C10*%
X151040000Y-100007836D02*
X151040000Y-99792164D01*
X151760000Y-100007836D02*
X151760000Y-99792164D01*
%TO.C,C27*%
X161040000Y-96292164D02*
X161040000Y-96507836D01*
X161760000Y-96292164D02*
X161760000Y-96507836D01*
%TO.C,R2*%
X146420000Y-90046359D02*
X146420000Y-90353641D01*
X147180000Y-90046359D02*
X147180000Y-90353641D01*
%TO.C,U3*%
X148455000Y-85275000D02*
X148455000Y-88030000D01*
X148455000Y-96520000D02*
X148455000Y-93770000D01*
X150255000Y-85275000D02*
X148455000Y-85275000D01*
X150280000Y-96520000D02*
X148455000Y-96520000D01*
X154170000Y-85280000D02*
X155995000Y-85280000D01*
X154170000Y-96520000D02*
X155995000Y-96520000D01*
X155995000Y-85280000D02*
X155995000Y-88030000D01*
X155995000Y-96520000D02*
X155995000Y-93770000D01*
X148465000Y-88800000D02*
X148135000Y-89040000D01*
X148135000Y-88560000D01*
X148465000Y-88800000D01*
G36*
X148465000Y-88800000D02*
G01*
X148135000Y-89040000D01*
X148135000Y-88560000D01*
X148465000Y-88800000D01*
G37*
%TO.C,R23*%
X163046359Y-112020000D02*
X163353641Y-112020000D01*
X163046359Y-112780000D02*
X163353641Y-112780000D01*
%TO.C,C14*%
X137690000Y-97140580D02*
X137690000Y-96859420D01*
X138710000Y-97140580D02*
X138710000Y-96859420D01*
%TO.C,C5*%
X165440000Y-96407836D02*
X165440000Y-96192164D01*
X166160000Y-96407836D02*
X166160000Y-96192164D01*
%TO.C,C28*%
X158440000Y-89992164D02*
X158440000Y-90207836D01*
X159160000Y-89992164D02*
X159160000Y-90207836D01*
%TO.C,R21*%
X145553641Y-90320000D02*
X145246359Y-90320000D01*
X145553641Y-91080000D02*
X145246359Y-91080000D01*
%TO.C,L1*%
X160090000Y-99462779D02*
X160090000Y-99137221D01*
X161110000Y-99462779D02*
X161110000Y-99137221D01*
%TO.C,R8*%
X164920000Y-107253641D02*
X164920000Y-106946359D01*
X165680000Y-107253641D02*
X165680000Y-106946359D01*
%TO.C,C12*%
X134292164Y-107540000D02*
X134507836Y-107540000D01*
X134292164Y-108260000D02*
X134507836Y-108260000D01*
%TO.C,R3*%
X164446359Y-99720000D02*
X164753641Y-99720000D01*
X164446359Y-100480000D02*
X164753641Y-100480000D01*
%TO.C,Q2*%
X142465000Y-103065000D02*
X143115000Y-103065000D01*
X142465000Y-104535000D02*
X142465000Y-103065000D01*
X143765000Y-104535000D02*
X143435000Y-104535000D01*
X144085000Y-103065000D02*
X144735000Y-103065000D01*
X144735000Y-103065000D02*
X144735000Y-104535000D01*
X143440000Y-104980000D02*
X143630000Y-104840000D01*
X143630000Y-105120000D01*
X143440000Y-104980000D01*
G36*
X143630000Y-105120000D02*
G01*
X143440000Y-104980000D01*
X143630000Y-104840000D01*
X143630000Y-105120000D01*
G37*
%TO.C,C25*%
X157092164Y-93240000D02*
X157307836Y-93240000D01*
X157092164Y-93960000D02*
X157307836Y-93960000D01*
%TO.C,SW2*%
X141245392Y-116300412D02*
X141417465Y-116054666D01*
X141594296Y-116935365D02*
X141777841Y-116673236D01*
X141785913Y-117533431D02*
X141594296Y-116935365D01*
X142605066Y-118107008D02*
X141785913Y-117533431D01*
X142605066Y-118107008D02*
X143232601Y-118082518D01*
X142851406Y-114006786D02*
X142679333Y-114252532D01*
X143232601Y-118082518D02*
X143416145Y-117820389D01*
X143948594Y-118193214D02*
X141245392Y-116300412D01*
X144120667Y-117947468D02*
X143948594Y-118193214D01*
X145382535Y-116145334D02*
X145554608Y-115899588D01*
X145554608Y-115899588D02*
X142851406Y-114006786D01*
%TO.C,C19*%
X136190000Y-97140580D02*
X136190000Y-96859420D01*
X137210000Y-97140580D02*
X137210000Y-96859420D01*
%TO.C,D1*%
X156115000Y-94965000D02*
X156115000Y-96435000D01*
X156115000Y-96435000D02*
X158400000Y-96435000D01*
X158400000Y-94965000D02*
X156115000Y-94965000D01*
%TO.C,R4*%
X164546359Y-104120000D02*
X164853641Y-104120000D01*
X164546359Y-104880000D02*
X164853641Y-104880000D01*
%TO.C,R18*%
X153320000Y-98853641D02*
X153320000Y-98546359D01*
X154080000Y-98853641D02*
X154080000Y-98546359D01*
%TO.C,C13*%
X136890000Y-107940580D02*
X136890000Y-107659420D01*
X137910000Y-107940580D02*
X137910000Y-107659420D01*
%TO.C,SW5*%
X159345392Y-116299588D02*
X159517465Y-116545334D01*
X160951406Y-118593214D02*
X160779333Y-118347468D01*
X161667399Y-118482518D02*
X161483855Y-118220389D01*
X162048594Y-114406786D02*
X159345392Y-116299588D01*
X162220667Y-114652532D02*
X162048594Y-114406786D01*
X162294934Y-118507008D02*
X161667399Y-118482518D01*
X163114087Y-117933431D02*
X162294934Y-118507008D01*
X163114087Y-117933431D02*
X163305704Y-117335365D01*
X163305704Y-117335365D02*
X163122159Y-117073236D01*
X163482535Y-116454666D02*
X163654608Y-116700412D01*
X163654608Y-116700412D02*
X160951406Y-118593214D01*
%TO.C,D2*%
X156127500Y-96565000D02*
X156127500Y-98035000D01*
X156127500Y-98035000D02*
X158412500Y-98035000D01*
X158412500Y-96565000D02*
X156127500Y-96565000D01*
%TO.C,R5*%
X153346359Y-102220000D02*
X153653641Y-102220000D01*
X153346359Y-102980000D02*
X153653641Y-102980000D01*
%TO.C,Q3*%
X162040000Y-105240000D02*
X163560000Y-105240000D01*
X162040000Y-106240000D02*
X162040000Y-105240000D01*
X162040000Y-108360000D02*
X162040000Y-107360000D01*
X163560000Y-105240000D02*
X163560000Y-105290000D01*
X163560000Y-106410000D02*
X163560000Y-107190000D01*
X163560000Y-108310000D02*
X163560000Y-108360000D01*
X163560000Y-108360000D02*
X162040000Y-108360000D01*
X164100000Y-107180000D02*
X163860000Y-106850000D01*
X164340000Y-106850000D01*
X164100000Y-107180000D01*
G36*
X164100000Y-107180000D02*
G01*
X163860000Y-106850000D01*
X164340000Y-106850000D01*
X164100000Y-107180000D01*
G37*
%TO.C,P1*%
D14*
X167234362Y-106870000D02*
X167234362Y-97930000D01*
X173734362Y-97930000D02*
X167234362Y-97930000D01*
X173734362Y-106870000D02*
X167234362Y-106870000D01*
X173734362Y-106870000D02*
X173734362Y-97930000D01*
D13*
X166574362Y-108170000D02*
G75*
G02*
X166514362Y-108170000I-30000J0D01*
G01*
X166514362Y-108170000D02*
G75*
G02*
X166574362Y-108170000I30000J0D01*
G01*
%TO.C,IC3*%
D10*
X148250000Y-97700000D02*
X150950000Y-97700000D01*
X148250000Y-100000000D02*
X148250000Y-97700000D01*
X148750000Y-100500000D02*
X148250000Y-100000000D01*
X150950000Y-97700000D02*
X150950000Y-100500000D01*
X150950000Y-100500000D02*
X148750000Y-100500000D01*
D14*
X148325000Y-100475000D02*
G75*
G02*
X148075000Y-100475000I-125000J0D01*
G01*
X148075000Y-100475000D02*
G75*
G02*
X148325000Y-100475000I125000J0D01*
G01*
%TO.C,D6*%
D11*
X147297500Y-111360000D02*
X143287500Y-111360000D01*
X147297500Y-113360000D02*
X143287500Y-113360000D01*
X147297500Y-113360000D02*
X147297500Y-111360000D01*
%TO.C,C24*%
X154192164Y-107840000D02*
X154407836Y-107840000D01*
X154192164Y-108560000D02*
X154407836Y-108560000D01*
%TO.C,D8*%
X143660000Y-97600000D02*
X139650000Y-97600000D01*
X143660000Y-99600000D02*
X139650000Y-99600000D01*
X143660000Y-99600000D02*
X143660000Y-97600000D01*
%TO.C,R1*%
X147420000Y-90046359D02*
X147420000Y-90353641D01*
X148180000Y-90046359D02*
X148180000Y-90353641D01*
%TO.C,R15*%
X139056359Y-108920000D02*
X139363641Y-108920000D01*
X139056359Y-109680000D02*
X139363641Y-109680000D01*
%TO.C,C15*%
X140388748Y-102365000D02*
X140911252Y-102365000D01*
X140388748Y-103835000D02*
X140911252Y-103835000D01*
%TO.C,SW3*%
X141245392Y-88699588D02*
X143948594Y-86806786D01*
X141417465Y-88945334D02*
X141245392Y-88699588D01*
X141594296Y-88064635D02*
X141777841Y-88326764D01*
X141785913Y-87466569D02*
X141594296Y-88064635D01*
X141785913Y-87466569D02*
X142605066Y-86892992D01*
X142605066Y-86892992D02*
X143232601Y-86917482D01*
X142679333Y-90747468D02*
X142851406Y-90993214D01*
X142851406Y-90993214D02*
X145554608Y-89100412D01*
X143232601Y-86917482D02*
X143416145Y-87179611D01*
X143948594Y-86806786D02*
X144120667Y-87052532D01*
X145554608Y-89100412D02*
X145382535Y-88854666D01*
%TO.C,AC1*%
X148450000Y-105662500D02*
X148950000Y-105662500D01*
X148450000Y-106162500D02*
X148450000Y-105662500D01*
X148450000Y-107362500D02*
X148450000Y-107362500D01*
X148450000Y-107862500D02*
X148450000Y-107362500D01*
X148950000Y-105662500D02*
X148950000Y-105662500D01*
X148950000Y-107862500D02*
X148450000Y-107862500D01*
X150150000Y-105662500D02*
X150450000Y-105662500D01*
X150150000Y-107862500D02*
X150150000Y-107862500D01*
X150650000Y-105662500D02*
X150650000Y-105662500D01*
X150650000Y-106162500D02*
X150650000Y-105862500D01*
X150650000Y-107362500D02*
X150650000Y-107862500D01*
X150650000Y-107862500D02*
X150150000Y-107862500D01*
X150650000Y-105662500D02*
X150650000Y-105302500D01*
X151010000Y-105662500D01*
X150650000Y-105662500D01*
G36*
X151010000Y-105662500D02*
G01*
X150650000Y-105662500D01*
X150650000Y-105302500D01*
X151010000Y-105662500D01*
G37*
%TO.C,R11*%
X143553641Y-109920000D02*
X143246359Y-109920000D01*
X143553641Y-110680000D02*
X143246359Y-110680000D01*
%TO.C,C18*%
X138092164Y-94640000D02*
X138307836Y-94640000D01*
X138092164Y-95360000D02*
X138307836Y-95360000D01*
%TO.C,Q4*%
X159540000Y-110840000D02*
X161060000Y-110840000D01*
X159540000Y-110890000D02*
X159540000Y-110840000D01*
X159540000Y-112790000D02*
X159540000Y-112010000D01*
X159540000Y-113960000D02*
X159540000Y-113910000D01*
X161060000Y-110840000D02*
X161060000Y-111840000D01*
X161060000Y-112960000D02*
X161060000Y-113960000D01*
X161060000Y-113960000D02*
X159540000Y-113960000D01*
X159000000Y-112020000D02*
X159240000Y-112350000D01*
X158760000Y-112350000D01*
X159000000Y-112020000D01*
G36*
X159240000Y-112350000D02*
G01*
X158760000Y-112350000D01*
X159000000Y-112020000D01*
X159240000Y-112350000D01*
G37*
%TO.C,LS1*%
D15*
X148350000Y-110350000D02*
X148350000Y-119350000D01*
X148350000Y-119350000D02*
X150310000Y-119350000D01*
X150310000Y-110350000D02*
X148350000Y-110350000D01*
X155390000Y-110350000D02*
X157350000Y-110350000D01*
X157350000Y-110350000D02*
X157350000Y-119350000D01*
X157350000Y-119350000D02*
X155390000Y-119350000D01*
%TO.C,R20*%
D11*
X147353641Y-102220000D02*
X147046359Y-102220000D01*
X147353641Y-102980000D02*
X147046359Y-102980000D01*
%TO.C,C9*%
X161292164Y-108640000D02*
X161507836Y-108640000D01*
X161292164Y-109360000D02*
X161507836Y-109360000D01*
%TO.C,R9*%
X145453641Y-102220000D02*
X145146359Y-102220000D01*
X145453641Y-102980000D02*
X145146359Y-102980000D01*
%TO.C,C3*%
X161690000Y-99240580D02*
X161690000Y-98959420D01*
X162710000Y-99240580D02*
X162710000Y-98959420D01*
%TO.C,C26*%
X151740000Y-103307836D02*
X151740000Y-103092164D01*
X152460000Y-103307836D02*
X152460000Y-103092164D01*
%TO.C,D9*%
X161340000Y-109700000D02*
X161340000Y-111700000D01*
X161340000Y-109700000D02*
X165350000Y-109700000D01*
X161340000Y-111700000D02*
X165350000Y-111700000D01*
%TO.C,D5*%
X138940000Y-99900000D02*
X138940000Y-101900000D01*
X138940000Y-99900000D02*
X142950000Y-99900000D01*
X138940000Y-101900000D02*
X142950000Y-101900000D01*
%TO.C,C23*%
X141438748Y-95665000D02*
X141961252Y-95665000D01*
X141438748Y-97135000D02*
X141961252Y-97135000D01*
%TO.C,C20*%
X134259420Y-95690000D02*
X134540580Y-95690000D01*
X134259420Y-96710000D02*
X134540580Y-96710000D01*
%TO.C,SW4*%
X159345392Y-88700412D02*
X162048594Y-90593214D01*
X159517465Y-88454666D02*
X159345392Y-88700412D01*
X160779333Y-86652532D02*
X160951406Y-86406786D01*
X160951406Y-86406786D02*
X163654608Y-88299588D01*
X161667399Y-86517482D02*
X161483855Y-86779611D01*
X162048594Y-90593214D02*
X162220667Y-90347468D01*
X162294934Y-86492992D02*
X161667399Y-86517482D01*
X162294934Y-86492992D02*
X163114087Y-87066569D01*
X163114087Y-87066569D02*
X163305704Y-87664635D01*
X163305704Y-87664635D02*
X163122159Y-87926764D01*
X163654608Y-88299588D02*
X163482535Y-88545334D01*
%TO.C,U1*%
D15*
X148550000Y-100950000D02*
X148700000Y-100950000D01*
X148550000Y-101100000D02*
X148550000Y-100950000D01*
X151250000Y-100950000D02*
X151100000Y-100950000D01*
X151250000Y-100950000D02*
X151250000Y-101100000D01*
X151250000Y-103650000D02*
X151100000Y-103650000D01*
X151260000Y-103650000D02*
X151260000Y-103500000D01*
D11*
X148550000Y-103650000D02*
X148550000Y-104010000D01*
X148190000Y-103650000D01*
X148550000Y-103650000D01*
G36*
X148550000Y-104010000D02*
G01*
X148190000Y-103650000D01*
X148550000Y-103650000D01*
X148550000Y-104010000D01*
G37*
%TO.C,R6*%
X157820000Y-104746359D02*
X157820000Y-105053641D01*
X158580000Y-104746359D02*
X158580000Y-105053641D01*
%TO.C,C2*%
X159390000Y-96440580D02*
X159390000Y-96159420D01*
X160410000Y-96440580D02*
X160410000Y-96159420D01*
%TO.C,C6*%
X149492164Y-103940000D02*
X149707836Y-103940000D01*
X149492164Y-104660000D02*
X149707836Y-104660000D01*
%TO.C,R22*%
X158520000Y-115053641D02*
X158520000Y-114746359D01*
X159280000Y-115053641D02*
X159280000Y-114746359D01*
%TD*%
%LPC*%
D16*
%TO.C,U2*%
X164337500Y-103250000D03*
X164337500Y-102300000D03*
X164337500Y-101350000D03*
X162062500Y-101350000D03*
X162062500Y-102300000D03*
X162062500Y-103250000D03*
%TD*%
D17*
%TO.C,R14*%
X157710000Y-92600000D03*
X156690000Y-92600000D03*
%TD*%
D18*
%TO.C,R7*%
X164352500Y-108800000D03*
X165372500Y-108800000D03*
%TD*%
D19*
%TO.C,L2*%
X140600000Y-107600000D03*
X140600000Y-105400000D03*
%TD*%
D17*
%TO.C,R17*%
X152410000Y-98400000D03*
X151390000Y-98400000D03*
%TD*%
D20*
%TO.C,J6*%
X134000000Y-100200000D03*
X137280000Y-100200000D03*
X134000000Y-100600000D03*
X137280000Y-100600000D03*
X134000000Y-101000000D03*
X137280000Y-101000000D03*
X134000000Y-101400000D03*
X137280000Y-101400000D03*
X134000000Y-101800000D03*
X137280000Y-101800000D03*
X134000000Y-102200000D03*
X137280000Y-102200000D03*
X134000000Y-102600000D03*
X137280000Y-102600000D03*
X134000000Y-103000000D03*
X137280000Y-103000000D03*
X134000000Y-103400000D03*
X137280000Y-103400000D03*
X134000000Y-103800000D03*
X137280000Y-103800000D03*
X134000000Y-104200000D03*
X137280000Y-104200000D03*
X134000000Y-104600000D03*
X137280000Y-104600000D03*
D21*
X137140000Y-99300000D03*
X134140000Y-99300000D03*
X134140000Y-105500000D03*
X137140000Y-105500000D03*
%TD*%
D22*
%TO.C,U4*%
X156450000Y-91200000D03*
X156950000Y-91200000D03*
X157450000Y-91200000D03*
X157950000Y-91200000D03*
X157950000Y-88400000D03*
X157450000Y-88400000D03*
X156950000Y-88400000D03*
X156450000Y-88400000D03*
D23*
X157200000Y-89800000D03*
%TD*%
D24*
%TO.C,R19*%
X139500000Y-95990000D03*
X139500000Y-97010000D03*
%TD*%
D25*
%TO.C,C22*%
X141700000Y-109025000D03*
X141700000Y-110575000D03*
%TD*%
D26*
%TO.C,C16*%
X146605000Y-110440000D03*
X145055000Y-110440000D03*
%TD*%
D27*
%TO.C,C21*%
X133625000Y-97700000D03*
X135175000Y-97700000D03*
%TD*%
D28*
%TO.C,L3*%
X145412500Y-104700000D03*
X146987500Y-104700000D03*
%TD*%
D29*
%TO.C,R10*%
X146900000Y-107825000D03*
X146900000Y-106175000D03*
%TD*%
D18*
%TO.C,R13*%
X152490000Y-100300000D03*
X153510000Y-100300000D03*
%TD*%
D30*
%TO.C,C17*%
X144800000Y-100650000D03*
X144800000Y-98750000D03*
%TD*%
D17*
%TO.C,R12*%
X134810000Y-106800000D03*
X133790000Y-106800000D03*
%TD*%
D26*
%TO.C,C4*%
X156900000Y-105200000D03*
X155350000Y-105200000D03*
%TD*%
D31*
%TO.C,C7*%
X159800000Y-105700000D03*
X159800000Y-107600000D03*
%TD*%
D32*
%TO.C,C8*%
X154000000Y-103600000D03*
X153040000Y-103600000D03*
%TD*%
D33*
%TO.C,SW6*%
X145200000Y-91975000D03*
X145200000Y-96425000D03*
%TD*%
D34*
%TO.C,IC2*%
X158350000Y-99300000D03*
X157850000Y-99300000D03*
X157350000Y-99300000D03*
X156850000Y-99300000D03*
X156350000Y-99300000D03*
X155850000Y-99300000D03*
D35*
X155100000Y-100050000D03*
X155100000Y-100550000D03*
X155100000Y-101050000D03*
X155100000Y-101550000D03*
X155100000Y-102050000D03*
X155100000Y-102550000D03*
D34*
X155850000Y-103300000D03*
X156350000Y-103300000D03*
X156850000Y-103300000D03*
X157350000Y-103300000D03*
X157850000Y-103300000D03*
X158350000Y-103300000D03*
D35*
X159100000Y-102550000D03*
X159100000Y-102050000D03*
X159100000Y-101550000D03*
X159100000Y-101050000D03*
X159100000Y-100550000D03*
X159100000Y-100050000D03*
D36*
X157100000Y-101300000D03*
%TD*%
D37*
%TO.C,C11*%
X151240000Y-107500000D03*
X152200000Y-107500000D03*
%TD*%
D38*
%TO.C,U5*%
X164550000Y-95262500D03*
X162650000Y-95262500D03*
X163600000Y-97537500D03*
%TD*%
D39*
%TO.C,IC4*%
X145250000Y-106350000D03*
X144300000Y-106350000D03*
X143350000Y-106350000D03*
X143350000Y-108850000D03*
X144300000Y-108850000D03*
X145250000Y-108850000D03*
%TD*%
D24*
%TO.C,R16*%
X160200000Y-103390000D03*
X160200000Y-104410000D03*
%TD*%
D17*
%TO.C,R24*%
X160710000Y-110200000D03*
X159690000Y-110200000D03*
%TD*%
D28*
%TO.C,D3*%
X156412500Y-106700000D03*
X157987500Y-106700000D03*
%TD*%
D40*
%TO.C,D7*%
X147000000Y-101350000D03*
X147000000Y-98050000D03*
%TD*%
D41*
%TO.C,C10*%
X151400000Y-100380000D03*
X151400000Y-99420000D03*
%TD*%
D42*
%TO.C,C27*%
X161400000Y-95920000D03*
X161400000Y-96880000D03*
%TD*%
D24*
%TO.C,R2*%
X146800000Y-89690000D03*
X146800000Y-90710000D03*
%TD*%
D43*
%TO.C,U3*%
X149050000Y-88825000D03*
D44*
X149050000Y-89300000D03*
X149050000Y-89750000D03*
X149050000Y-90200000D03*
X149050000Y-90650000D03*
X149050000Y-91100000D03*
X149050000Y-91550000D03*
X149050000Y-92000000D03*
X149050000Y-92450000D03*
X149050000Y-92900000D03*
X149050000Y-93350000D03*
X149050000Y-93800000D03*
X149050000Y-94250000D03*
X149050000Y-94700000D03*
X149050000Y-95150000D03*
X149050000Y-95600000D03*
D43*
X149050000Y-96075000D03*
D45*
X149525000Y-96075000D03*
X149975000Y-96075000D03*
X150425000Y-96075000D03*
X150875000Y-96075000D03*
X151325000Y-96075000D03*
X151775000Y-96075000D03*
X152225000Y-96075000D03*
X152675000Y-96075000D03*
X153125000Y-96075000D03*
X153575000Y-96075000D03*
X154025000Y-96075000D03*
X154475000Y-96075000D03*
X154925000Y-96075000D03*
D43*
X155400000Y-96075000D03*
D44*
X155400000Y-95600000D03*
X155400000Y-95150000D03*
X155400000Y-94700000D03*
X155400000Y-94250000D03*
X155400000Y-93800000D03*
X155400000Y-93350000D03*
X155400000Y-92900000D03*
X155400000Y-92450000D03*
X155400000Y-92000000D03*
X155400000Y-91550000D03*
X155400000Y-91100000D03*
X155400000Y-90650000D03*
X155400000Y-90200000D03*
X155400000Y-89750000D03*
X155400000Y-89300000D03*
D43*
X155400000Y-88825000D03*
D45*
X154925000Y-88825000D03*
X154475000Y-88825000D03*
X154025000Y-88825000D03*
X153575000Y-88825000D03*
X153125000Y-88825000D03*
X152675000Y-88825000D03*
X152225000Y-88825000D03*
X151775000Y-88825000D03*
X151325000Y-88825000D03*
X150875000Y-88825000D03*
X150425000Y-88825000D03*
X149975000Y-88825000D03*
X149525000Y-88825000D03*
D46*
X150875000Y-90200000D03*
X150875000Y-91100000D03*
X150875000Y-92000000D03*
X150875000Y-92900000D03*
X150875000Y-93800000D03*
X150875000Y-94700000D03*
X151775000Y-94700000D03*
X152675000Y-94700000D03*
X153575000Y-94700000D03*
X153575000Y-93800000D03*
X153575000Y-92900000D03*
X153575000Y-92000000D03*
X153575000Y-91100000D03*
X153575000Y-90200000D03*
X152675000Y-90200000D03*
X151775000Y-90200000D03*
X151775000Y-91100000D03*
X151775000Y-92000000D03*
X151775000Y-92900000D03*
X151775000Y-93800000D03*
X152675000Y-93800000D03*
X152675000Y-92900000D03*
X152675000Y-92000000D03*
X152675000Y-91100000D03*
D47*
X149175000Y-85865000D03*
X155275000Y-85865000D03*
%TD*%
D18*
%TO.C,R23*%
X162690000Y-112400000D03*
X163710000Y-112400000D03*
%TD*%
D48*
%TO.C,C14*%
X138200000Y-97775000D03*
X138200000Y-96225000D03*
%TD*%
D41*
%TO.C,C5*%
X165800000Y-96780000D03*
X165800000Y-95820000D03*
%TD*%
D42*
%TO.C,C28*%
X158800000Y-89620000D03*
X158800000Y-90580000D03*
%TD*%
D17*
%TO.C,R21*%
X145910000Y-90700000D03*
X144890000Y-90700000D03*
%TD*%
D49*
%TO.C,L1*%
X160600000Y-100087500D03*
X160600000Y-98512500D03*
%TD*%
D50*
%TO.C,R8*%
X165300000Y-107610000D03*
X165300000Y-106590000D03*
%TD*%
D37*
%TO.C,C12*%
X133920000Y-107900000D03*
X134880000Y-107900000D03*
%TD*%
D18*
%TO.C,R3*%
X164090000Y-100100000D03*
X165110000Y-100100000D03*
%TD*%
D51*
%TO.C,Q2*%
X142950000Y-104687500D03*
X144250000Y-104687500D03*
X143600000Y-102912500D03*
%TD*%
D37*
%TO.C,C25*%
X156720000Y-93600000D03*
X157680000Y-93600000D03*
%TD*%
D52*
%TO.C,SW2*%
X144792558Y-117075080D03*
X142007442Y-115124920D03*
%TD*%
D48*
%TO.C,C19*%
X136700000Y-97775000D03*
X136700000Y-96225000D03*
%TD*%
D28*
%TO.C,D1*%
X156812500Y-95700000D03*
X158387500Y-95700000D03*
%TD*%
D18*
%TO.C,R4*%
X164190000Y-104500000D03*
X165210000Y-104500000D03*
%TD*%
D50*
%TO.C,R18*%
X153700000Y-99210000D03*
X153700000Y-98190000D03*
%TD*%
D48*
%TO.C,C13*%
X137400000Y-108575000D03*
X137400000Y-107025000D03*
%TD*%
D53*
%TO.C,SW5*%
X162892558Y-115524920D03*
X160107442Y-117475080D03*
%TD*%
D28*
%TO.C,D2*%
X156825000Y-97300000D03*
X158400000Y-97300000D03*
%TD*%
D18*
%TO.C,R5*%
X152990000Y-102600000D03*
X154010000Y-102600000D03*
%TD*%
D54*
%TO.C,Q3*%
X163737500Y-107750000D03*
X163737500Y-105850000D03*
X161862500Y-106800000D03*
%TD*%
D55*
%TO.C,P1*%
X166484362Y-105750000D03*
X166484362Y-104950000D03*
X166484362Y-103650000D03*
X166484362Y-102650000D03*
X166484362Y-102150000D03*
X166484362Y-101150000D03*
X166484362Y-99850000D03*
X166484362Y-99050000D03*
X166484362Y-99350000D03*
X166484362Y-100150000D03*
X166484362Y-100650000D03*
X166484362Y-101650000D03*
X166484362Y-103150000D03*
X166484362Y-104150000D03*
X166484362Y-104650000D03*
X166484362Y-105450000D03*
D56*
X167644362Y-108020000D03*
D57*
X171644362Y-108020000D03*
D56*
X167644362Y-96780000D03*
D57*
X171644362Y-96780000D03*
%TD*%
D58*
%TO.C,IC3*%
X148850000Y-100100000D03*
X149350000Y-100100000D03*
X149850000Y-100100000D03*
X150350000Y-100100000D03*
X150350000Y-98100000D03*
X149850000Y-98100000D03*
X149350000Y-98100000D03*
X148850000Y-98100000D03*
D59*
X149600000Y-99100000D03*
%TD*%
D60*
%TO.C,D6*%
X146587500Y-112360000D03*
X143287500Y-112360000D03*
%TD*%
D37*
%TO.C,C24*%
X153820000Y-108200000D03*
X154780000Y-108200000D03*
%TD*%
D60*
%TO.C,D8*%
X142950000Y-98600000D03*
X139650000Y-98600000D03*
%TD*%
D24*
%TO.C,R1*%
X147800000Y-89690000D03*
X147800000Y-90710000D03*
%TD*%
D18*
%TO.C,R15*%
X138700000Y-109300000D03*
X139720000Y-109300000D03*
%TD*%
D61*
%TO.C,C15*%
X139700000Y-103100000D03*
X141600000Y-103100000D03*
%TD*%
D62*
%TO.C,SW3*%
X142007442Y-89875080D03*
X144792558Y-87924920D03*
%TD*%
D63*
%TO.C,AC1*%
X150300000Y-106000000D03*
X149800000Y-106000000D03*
X149300000Y-106000000D03*
X148800000Y-106000000D03*
D64*
X148787500Y-106512500D03*
X148787500Y-107012500D03*
D63*
X148800000Y-107525000D03*
X149300000Y-107525000D03*
X149800000Y-107525000D03*
X150300000Y-107525000D03*
D64*
X150312500Y-107012500D03*
X150312500Y-106512500D03*
%TD*%
D17*
%TO.C,R11*%
X143910000Y-110300000D03*
X142890000Y-110300000D03*
%TD*%
D37*
%TO.C,C18*%
X137720000Y-95000000D03*
X138680000Y-95000000D03*
%TD*%
D65*
%TO.C,Q4*%
X159362500Y-111450000D03*
X159362500Y-113350000D03*
X161237500Y-112400000D03*
%TD*%
D66*
%TO.C,LS1*%
X152850000Y-110850000D03*
X152850000Y-118850000D03*
%TD*%
D17*
%TO.C,R20*%
X147710000Y-102600000D03*
X146690000Y-102600000D03*
%TD*%
D37*
%TO.C,C9*%
X160920000Y-109000000D03*
X161880000Y-109000000D03*
%TD*%
D17*
%TO.C,R9*%
X145810000Y-102600000D03*
X144790000Y-102600000D03*
%TD*%
D48*
%TO.C,C3*%
X162200000Y-99875000D03*
X162200000Y-98325000D03*
%TD*%
D41*
%TO.C,C26*%
X152100000Y-103680000D03*
X152100000Y-102720000D03*
%TD*%
D67*
%TO.C,D9*%
X162050000Y-110700000D03*
X165350000Y-110700000D03*
%TD*%
%TO.C,D5*%
X139650000Y-100900000D03*
X142950000Y-100900000D03*
%TD*%
D61*
%TO.C,C23*%
X140750000Y-96400000D03*
X142650000Y-96400000D03*
%TD*%
D27*
%TO.C,C20*%
X133625000Y-96200000D03*
X135175000Y-96200000D03*
%TD*%
D68*
%TO.C,SW4*%
X160107442Y-87524920D03*
X162892558Y-89475080D03*
%TD*%
D69*
%TO.C,U1*%
X148875000Y-103275000D03*
X148875000Y-102625000D03*
X148875000Y-101975000D03*
X148875000Y-101325000D03*
X150925000Y-101325000D03*
X150925000Y-101975000D03*
X150925000Y-102625000D03*
X150925000Y-103275000D03*
%TD*%
D24*
%TO.C,R6*%
X158200000Y-104390000D03*
X158200000Y-105410000D03*
%TD*%
D48*
%TO.C,C2*%
X159900000Y-97075000D03*
X159900000Y-95525000D03*
%TD*%
D37*
%TO.C,C6*%
X149120000Y-104300000D03*
X150080000Y-104300000D03*
%TD*%
D50*
%TO.C,R22*%
X158900000Y-115410000D03*
X158900000Y-114390000D03*
%TD*%
%LPD*%
M02*
